G04 #@! TF.GenerationSoftware,KiCad,Pcbnew,5.1.5+dfsg1-2build2*
G04 #@! TF.CreationDate,2022-06-14T14:03:14+02:00*
G04 #@! TF.ProjectId,model1,6d6f6465-6c31-42e6-9b69-6361645f7063,rev?*
G04 #@! TF.SameCoordinates,Original*
G04 #@! TF.FileFunction,Paste,Top*
G04 #@! TF.FilePolarity,Positive*
%FSLAX46Y46*%
G04 Gerber Fmt 4.6, Leading zero omitted, Abs format (unit mm)*
G04 Created by KiCad (PCBNEW 5.1.5+dfsg1-2build2) date 2022-06-14 14:03:14*
%MOMM*%
%LPD*%
G04 APERTURE LIST*
%ADD10C,0.100000*%
%ADD11R,3.300000X1.700000*%
%ADD12R,1.500000X2.000000*%
%ADD13R,3.800000X2.000000*%
%ADD14R,3.500000X2.700000*%
%ADD15R,0.900000X0.800000*%
%ADD16R,0.800000X0.900000*%
%ADD17R,1.700000X0.650000*%
%ADD18R,1.000000X1.500000*%
%ADD19R,1.000000X1.800000*%
%ADD20R,2.200000X1.840000*%
G04 APERTURE END LIST*
D10*
G36*
X72656779Y-52949144D02*
G01*
X72679834Y-52952563D01*
X72702443Y-52958227D01*
X72724387Y-52966079D01*
X72745457Y-52976044D01*
X72765448Y-52988026D01*
X72784168Y-53001910D01*
X72801438Y-53017562D01*
X72817090Y-53034832D01*
X72830974Y-53053552D01*
X72842956Y-53073543D01*
X72852921Y-53094613D01*
X72860773Y-53116557D01*
X72866437Y-53139166D01*
X72869856Y-53162221D01*
X72871000Y-53185500D01*
X72871000Y-53760500D01*
X72869856Y-53783779D01*
X72866437Y-53806834D01*
X72860773Y-53829443D01*
X72852921Y-53851387D01*
X72842956Y-53872457D01*
X72830974Y-53892448D01*
X72817090Y-53911168D01*
X72801438Y-53928438D01*
X72784168Y-53944090D01*
X72765448Y-53957974D01*
X72745457Y-53969956D01*
X72724387Y-53979921D01*
X72702443Y-53987773D01*
X72679834Y-53993437D01*
X72656779Y-53996856D01*
X72633500Y-53998000D01*
X72158500Y-53998000D01*
X72135221Y-53996856D01*
X72112166Y-53993437D01*
X72089557Y-53987773D01*
X72067613Y-53979921D01*
X72046543Y-53969956D01*
X72026552Y-53957974D01*
X72007832Y-53944090D01*
X71990562Y-53928438D01*
X71974910Y-53911168D01*
X71961026Y-53892448D01*
X71949044Y-53872457D01*
X71939079Y-53851387D01*
X71931227Y-53829443D01*
X71925563Y-53806834D01*
X71922144Y-53783779D01*
X71921000Y-53760500D01*
X71921000Y-53185500D01*
X71922144Y-53162221D01*
X71925563Y-53139166D01*
X71931227Y-53116557D01*
X71939079Y-53094613D01*
X71949044Y-53073543D01*
X71961026Y-53053552D01*
X71974910Y-53034832D01*
X71990562Y-53017562D01*
X72007832Y-53001910D01*
X72026552Y-52988026D01*
X72046543Y-52976044D01*
X72067613Y-52966079D01*
X72089557Y-52958227D01*
X72112166Y-52952563D01*
X72135221Y-52949144D01*
X72158500Y-52948000D01*
X72633500Y-52948000D01*
X72656779Y-52949144D01*
G37*
G36*
X72656779Y-51199144D02*
G01*
X72679834Y-51202563D01*
X72702443Y-51208227D01*
X72724387Y-51216079D01*
X72745457Y-51226044D01*
X72765448Y-51238026D01*
X72784168Y-51251910D01*
X72801438Y-51267562D01*
X72817090Y-51284832D01*
X72830974Y-51303552D01*
X72842956Y-51323543D01*
X72852921Y-51344613D01*
X72860773Y-51366557D01*
X72866437Y-51389166D01*
X72869856Y-51412221D01*
X72871000Y-51435500D01*
X72871000Y-52010500D01*
X72869856Y-52033779D01*
X72866437Y-52056834D01*
X72860773Y-52079443D01*
X72852921Y-52101387D01*
X72842956Y-52122457D01*
X72830974Y-52142448D01*
X72817090Y-52161168D01*
X72801438Y-52178438D01*
X72784168Y-52194090D01*
X72765448Y-52207974D01*
X72745457Y-52219956D01*
X72724387Y-52229921D01*
X72702443Y-52237773D01*
X72679834Y-52243437D01*
X72656779Y-52246856D01*
X72633500Y-52248000D01*
X72158500Y-52248000D01*
X72135221Y-52246856D01*
X72112166Y-52243437D01*
X72089557Y-52237773D01*
X72067613Y-52229921D01*
X72046543Y-52219956D01*
X72026552Y-52207974D01*
X72007832Y-52194090D01*
X71990562Y-52178438D01*
X71974910Y-52161168D01*
X71961026Y-52142448D01*
X71949044Y-52122457D01*
X71939079Y-52101387D01*
X71931227Y-52079443D01*
X71925563Y-52056834D01*
X71922144Y-52033779D01*
X71921000Y-52010500D01*
X71921000Y-51435500D01*
X71922144Y-51412221D01*
X71925563Y-51389166D01*
X71931227Y-51366557D01*
X71939079Y-51344613D01*
X71949044Y-51323543D01*
X71961026Y-51303552D01*
X71974910Y-51284832D01*
X71990562Y-51267562D01*
X72007832Y-51251910D01*
X72026552Y-51238026D01*
X72046543Y-51226044D01*
X72067613Y-51216079D01*
X72089557Y-51208227D01*
X72112166Y-51202563D01*
X72135221Y-51199144D01*
X72158500Y-51198000D01*
X72633500Y-51198000D01*
X72656779Y-51199144D01*
G37*
G36*
X74662569Y-68226201D02*
G01*
X74686776Y-68229792D01*
X74710515Y-68235738D01*
X74733557Y-68243982D01*
X74755680Y-68254446D01*
X74776671Y-68267027D01*
X74796327Y-68281605D01*
X74814460Y-68298040D01*
X74830895Y-68316173D01*
X74845473Y-68335829D01*
X74858054Y-68356820D01*
X74868518Y-68378943D01*
X74876762Y-68401985D01*
X74882708Y-68425724D01*
X74886299Y-68449931D01*
X74887500Y-68474374D01*
X74887500Y-69725626D01*
X74886299Y-69750069D01*
X74882708Y-69774276D01*
X74876762Y-69798015D01*
X74868518Y-69821057D01*
X74858054Y-69843180D01*
X74845473Y-69864171D01*
X74830895Y-69883827D01*
X74814460Y-69901960D01*
X74796327Y-69918395D01*
X74776671Y-69932973D01*
X74755680Y-69945554D01*
X74733557Y-69956018D01*
X74710515Y-69964262D01*
X74686776Y-69970208D01*
X74662569Y-69973799D01*
X74638126Y-69975000D01*
X73711874Y-69975000D01*
X73687431Y-69973799D01*
X73663224Y-69970208D01*
X73639485Y-69964262D01*
X73616443Y-69956018D01*
X73594320Y-69945554D01*
X73573329Y-69932973D01*
X73553673Y-69918395D01*
X73535540Y-69901960D01*
X73519105Y-69883827D01*
X73504527Y-69864171D01*
X73491946Y-69843180D01*
X73481482Y-69821057D01*
X73473238Y-69798015D01*
X73467292Y-69774276D01*
X73463701Y-69750069D01*
X73462500Y-69725626D01*
X73462500Y-68474374D01*
X73463701Y-68449931D01*
X73467292Y-68425724D01*
X73473238Y-68401985D01*
X73481482Y-68378943D01*
X73491946Y-68356820D01*
X73504527Y-68335829D01*
X73519105Y-68316173D01*
X73535540Y-68298040D01*
X73553673Y-68281605D01*
X73573329Y-68267027D01*
X73594320Y-68254446D01*
X73616443Y-68243982D01*
X73639485Y-68235738D01*
X73663224Y-68229792D01*
X73687431Y-68226201D01*
X73711874Y-68225000D01*
X74638126Y-68225000D01*
X74662569Y-68226201D01*
G37*
G36*
X71687569Y-68226201D02*
G01*
X71711776Y-68229792D01*
X71735515Y-68235738D01*
X71758557Y-68243982D01*
X71780680Y-68254446D01*
X71801671Y-68267027D01*
X71821327Y-68281605D01*
X71839460Y-68298040D01*
X71855895Y-68316173D01*
X71870473Y-68335829D01*
X71883054Y-68356820D01*
X71893518Y-68378943D01*
X71901762Y-68401985D01*
X71907708Y-68425724D01*
X71911299Y-68449931D01*
X71912500Y-68474374D01*
X71912500Y-69725626D01*
X71911299Y-69750069D01*
X71907708Y-69774276D01*
X71901762Y-69798015D01*
X71893518Y-69821057D01*
X71883054Y-69843180D01*
X71870473Y-69864171D01*
X71855895Y-69883827D01*
X71839460Y-69901960D01*
X71821327Y-69918395D01*
X71801671Y-69932973D01*
X71780680Y-69945554D01*
X71758557Y-69956018D01*
X71735515Y-69964262D01*
X71711776Y-69970208D01*
X71687569Y-69973799D01*
X71663126Y-69975000D01*
X70736874Y-69975000D01*
X70712431Y-69973799D01*
X70688224Y-69970208D01*
X70664485Y-69964262D01*
X70641443Y-69956018D01*
X70619320Y-69945554D01*
X70598329Y-69932973D01*
X70578673Y-69918395D01*
X70560540Y-69901960D01*
X70544105Y-69883827D01*
X70529527Y-69864171D01*
X70516946Y-69843180D01*
X70506482Y-69821057D01*
X70498238Y-69798015D01*
X70492292Y-69774276D01*
X70488701Y-69750069D01*
X70487500Y-69725626D01*
X70487500Y-68474374D01*
X70488701Y-68449931D01*
X70492292Y-68425724D01*
X70498238Y-68401985D01*
X70506482Y-68378943D01*
X70516946Y-68356820D01*
X70529527Y-68335829D01*
X70544105Y-68316173D01*
X70560540Y-68298040D01*
X70578673Y-68281605D01*
X70598329Y-68267027D01*
X70619320Y-68254446D01*
X70641443Y-68243982D01*
X70664485Y-68235738D01*
X70688224Y-68229792D01*
X70712431Y-68226201D01*
X70736874Y-68225000D01*
X71663126Y-68225000D01*
X71687569Y-68226201D01*
G37*
G36*
X81800779Y-48659144D02*
G01*
X81823834Y-48662563D01*
X81846443Y-48668227D01*
X81868387Y-48676079D01*
X81889457Y-48686044D01*
X81909448Y-48698026D01*
X81928168Y-48711910D01*
X81945438Y-48727562D01*
X81961090Y-48744832D01*
X81974974Y-48763552D01*
X81986956Y-48783543D01*
X81996921Y-48804613D01*
X82004773Y-48826557D01*
X82010437Y-48849166D01*
X82013856Y-48872221D01*
X82015000Y-48895500D01*
X82015000Y-49470500D01*
X82013856Y-49493779D01*
X82010437Y-49516834D01*
X82004773Y-49539443D01*
X81996921Y-49561387D01*
X81986956Y-49582457D01*
X81974974Y-49602448D01*
X81961090Y-49621168D01*
X81945438Y-49638438D01*
X81928168Y-49654090D01*
X81909448Y-49667974D01*
X81889457Y-49679956D01*
X81868387Y-49689921D01*
X81846443Y-49697773D01*
X81823834Y-49703437D01*
X81800779Y-49706856D01*
X81777500Y-49708000D01*
X81302500Y-49708000D01*
X81279221Y-49706856D01*
X81256166Y-49703437D01*
X81233557Y-49697773D01*
X81211613Y-49689921D01*
X81190543Y-49679956D01*
X81170552Y-49667974D01*
X81151832Y-49654090D01*
X81134562Y-49638438D01*
X81118910Y-49621168D01*
X81105026Y-49602448D01*
X81093044Y-49582457D01*
X81083079Y-49561387D01*
X81075227Y-49539443D01*
X81069563Y-49516834D01*
X81066144Y-49493779D01*
X81065000Y-49470500D01*
X81065000Y-48895500D01*
X81066144Y-48872221D01*
X81069563Y-48849166D01*
X81075227Y-48826557D01*
X81083079Y-48804613D01*
X81093044Y-48783543D01*
X81105026Y-48763552D01*
X81118910Y-48744832D01*
X81134562Y-48727562D01*
X81151832Y-48711910D01*
X81170552Y-48698026D01*
X81190543Y-48686044D01*
X81211613Y-48676079D01*
X81233557Y-48668227D01*
X81256166Y-48662563D01*
X81279221Y-48659144D01*
X81302500Y-48658000D01*
X81777500Y-48658000D01*
X81800779Y-48659144D01*
G37*
G36*
X81800779Y-50409144D02*
G01*
X81823834Y-50412563D01*
X81846443Y-50418227D01*
X81868387Y-50426079D01*
X81889457Y-50436044D01*
X81909448Y-50448026D01*
X81928168Y-50461910D01*
X81945438Y-50477562D01*
X81961090Y-50494832D01*
X81974974Y-50513552D01*
X81986956Y-50533543D01*
X81996921Y-50554613D01*
X82004773Y-50576557D01*
X82010437Y-50599166D01*
X82013856Y-50622221D01*
X82015000Y-50645500D01*
X82015000Y-51220500D01*
X82013856Y-51243779D01*
X82010437Y-51266834D01*
X82004773Y-51289443D01*
X81996921Y-51311387D01*
X81986956Y-51332457D01*
X81974974Y-51352448D01*
X81961090Y-51371168D01*
X81945438Y-51388438D01*
X81928168Y-51404090D01*
X81909448Y-51417974D01*
X81889457Y-51429956D01*
X81868387Y-51439921D01*
X81846443Y-51447773D01*
X81823834Y-51453437D01*
X81800779Y-51456856D01*
X81777500Y-51458000D01*
X81302500Y-51458000D01*
X81279221Y-51456856D01*
X81256166Y-51453437D01*
X81233557Y-51447773D01*
X81211613Y-51439921D01*
X81190543Y-51429956D01*
X81170552Y-51417974D01*
X81151832Y-51404090D01*
X81134562Y-51388438D01*
X81118910Y-51371168D01*
X81105026Y-51352448D01*
X81093044Y-51332457D01*
X81083079Y-51311387D01*
X81075227Y-51289443D01*
X81069563Y-51266834D01*
X81066144Y-51243779D01*
X81065000Y-51220500D01*
X81065000Y-50645500D01*
X81066144Y-50622221D01*
X81069563Y-50599166D01*
X81075227Y-50576557D01*
X81083079Y-50554613D01*
X81093044Y-50533543D01*
X81105026Y-50513552D01*
X81118910Y-50494832D01*
X81134562Y-50477562D01*
X81151832Y-50461910D01*
X81170552Y-50448026D01*
X81190543Y-50436044D01*
X81211613Y-50426079D01*
X81233557Y-50418227D01*
X81256166Y-50412563D01*
X81279221Y-50409144D01*
X81302500Y-50408000D01*
X81777500Y-50408000D01*
X81800779Y-50409144D01*
G37*
D11*
X98411000Y-76311000D03*
X92911000Y-76311000D03*
D12*
X89741000Y-54969000D03*
X94341000Y-54969000D03*
X92041000Y-54969000D03*
D13*
X92041000Y-48669000D03*
D10*
G36*
X44520779Y-56168144D02*
G01*
X44543834Y-56171563D01*
X44566443Y-56177227D01*
X44588387Y-56185079D01*
X44609457Y-56195044D01*
X44629448Y-56207026D01*
X44648168Y-56220910D01*
X44665438Y-56236562D01*
X44681090Y-56253832D01*
X44694974Y-56272552D01*
X44706956Y-56292543D01*
X44716921Y-56313613D01*
X44724773Y-56335557D01*
X44730437Y-56358166D01*
X44733856Y-56381221D01*
X44735000Y-56404500D01*
X44735000Y-56879500D01*
X44733856Y-56902779D01*
X44730437Y-56925834D01*
X44724773Y-56948443D01*
X44716921Y-56970387D01*
X44706956Y-56991457D01*
X44694974Y-57011448D01*
X44681090Y-57030168D01*
X44665438Y-57047438D01*
X44648168Y-57063090D01*
X44629448Y-57076974D01*
X44609457Y-57088956D01*
X44588387Y-57098921D01*
X44566443Y-57106773D01*
X44543834Y-57112437D01*
X44520779Y-57115856D01*
X44497500Y-57117000D01*
X43922500Y-57117000D01*
X43899221Y-57115856D01*
X43876166Y-57112437D01*
X43853557Y-57106773D01*
X43831613Y-57098921D01*
X43810543Y-57088956D01*
X43790552Y-57076974D01*
X43771832Y-57063090D01*
X43754562Y-57047438D01*
X43738910Y-57030168D01*
X43725026Y-57011448D01*
X43713044Y-56991457D01*
X43703079Y-56970387D01*
X43695227Y-56948443D01*
X43689563Y-56925834D01*
X43686144Y-56902779D01*
X43685000Y-56879500D01*
X43685000Y-56404500D01*
X43686144Y-56381221D01*
X43689563Y-56358166D01*
X43695227Y-56335557D01*
X43703079Y-56313613D01*
X43713044Y-56292543D01*
X43725026Y-56272552D01*
X43738910Y-56253832D01*
X43754562Y-56236562D01*
X43771832Y-56220910D01*
X43790552Y-56207026D01*
X43810543Y-56195044D01*
X43831613Y-56185079D01*
X43853557Y-56177227D01*
X43876166Y-56171563D01*
X43899221Y-56168144D01*
X43922500Y-56167000D01*
X44497500Y-56167000D01*
X44520779Y-56168144D01*
G37*
G36*
X46270779Y-56168144D02*
G01*
X46293834Y-56171563D01*
X46316443Y-56177227D01*
X46338387Y-56185079D01*
X46359457Y-56195044D01*
X46379448Y-56207026D01*
X46398168Y-56220910D01*
X46415438Y-56236562D01*
X46431090Y-56253832D01*
X46444974Y-56272552D01*
X46456956Y-56292543D01*
X46466921Y-56313613D01*
X46474773Y-56335557D01*
X46480437Y-56358166D01*
X46483856Y-56381221D01*
X46485000Y-56404500D01*
X46485000Y-56879500D01*
X46483856Y-56902779D01*
X46480437Y-56925834D01*
X46474773Y-56948443D01*
X46466921Y-56970387D01*
X46456956Y-56991457D01*
X46444974Y-57011448D01*
X46431090Y-57030168D01*
X46415438Y-57047438D01*
X46398168Y-57063090D01*
X46379448Y-57076974D01*
X46359457Y-57088956D01*
X46338387Y-57098921D01*
X46316443Y-57106773D01*
X46293834Y-57112437D01*
X46270779Y-57115856D01*
X46247500Y-57117000D01*
X45672500Y-57117000D01*
X45649221Y-57115856D01*
X45626166Y-57112437D01*
X45603557Y-57106773D01*
X45581613Y-57098921D01*
X45560543Y-57088956D01*
X45540552Y-57076974D01*
X45521832Y-57063090D01*
X45504562Y-57047438D01*
X45488910Y-57030168D01*
X45475026Y-57011448D01*
X45463044Y-56991457D01*
X45453079Y-56970387D01*
X45445227Y-56948443D01*
X45439563Y-56925834D01*
X45436144Y-56902779D01*
X45435000Y-56879500D01*
X45435000Y-56404500D01*
X45436144Y-56381221D01*
X45439563Y-56358166D01*
X45445227Y-56335557D01*
X45453079Y-56313613D01*
X45463044Y-56292543D01*
X45475026Y-56272552D01*
X45488910Y-56253832D01*
X45504562Y-56236562D01*
X45521832Y-56220910D01*
X45540552Y-56207026D01*
X45560543Y-56195044D01*
X45581613Y-56185079D01*
X45603557Y-56177227D01*
X45626166Y-56171563D01*
X45649221Y-56168144D01*
X45672500Y-56167000D01*
X46247500Y-56167000D01*
X46270779Y-56168144D01*
G37*
G36*
X44520779Y-54390144D02*
G01*
X44543834Y-54393563D01*
X44566443Y-54399227D01*
X44588387Y-54407079D01*
X44609457Y-54417044D01*
X44629448Y-54429026D01*
X44648168Y-54442910D01*
X44665438Y-54458562D01*
X44681090Y-54475832D01*
X44694974Y-54494552D01*
X44706956Y-54514543D01*
X44716921Y-54535613D01*
X44724773Y-54557557D01*
X44730437Y-54580166D01*
X44733856Y-54603221D01*
X44735000Y-54626500D01*
X44735000Y-55101500D01*
X44733856Y-55124779D01*
X44730437Y-55147834D01*
X44724773Y-55170443D01*
X44716921Y-55192387D01*
X44706956Y-55213457D01*
X44694974Y-55233448D01*
X44681090Y-55252168D01*
X44665438Y-55269438D01*
X44648168Y-55285090D01*
X44629448Y-55298974D01*
X44609457Y-55310956D01*
X44588387Y-55320921D01*
X44566443Y-55328773D01*
X44543834Y-55334437D01*
X44520779Y-55337856D01*
X44497500Y-55339000D01*
X43922500Y-55339000D01*
X43899221Y-55337856D01*
X43876166Y-55334437D01*
X43853557Y-55328773D01*
X43831613Y-55320921D01*
X43810543Y-55310956D01*
X43790552Y-55298974D01*
X43771832Y-55285090D01*
X43754562Y-55269438D01*
X43738910Y-55252168D01*
X43725026Y-55233448D01*
X43713044Y-55213457D01*
X43703079Y-55192387D01*
X43695227Y-55170443D01*
X43689563Y-55147834D01*
X43686144Y-55124779D01*
X43685000Y-55101500D01*
X43685000Y-54626500D01*
X43686144Y-54603221D01*
X43689563Y-54580166D01*
X43695227Y-54557557D01*
X43703079Y-54535613D01*
X43713044Y-54514543D01*
X43725026Y-54494552D01*
X43738910Y-54475832D01*
X43754562Y-54458562D01*
X43771832Y-54442910D01*
X43790552Y-54429026D01*
X43810543Y-54417044D01*
X43831613Y-54407079D01*
X43853557Y-54399227D01*
X43876166Y-54393563D01*
X43899221Y-54390144D01*
X43922500Y-54389000D01*
X44497500Y-54389000D01*
X44520779Y-54390144D01*
G37*
G36*
X46270779Y-54390144D02*
G01*
X46293834Y-54393563D01*
X46316443Y-54399227D01*
X46338387Y-54407079D01*
X46359457Y-54417044D01*
X46379448Y-54429026D01*
X46398168Y-54442910D01*
X46415438Y-54458562D01*
X46431090Y-54475832D01*
X46444974Y-54494552D01*
X46456956Y-54514543D01*
X46466921Y-54535613D01*
X46474773Y-54557557D01*
X46480437Y-54580166D01*
X46483856Y-54603221D01*
X46485000Y-54626500D01*
X46485000Y-55101500D01*
X46483856Y-55124779D01*
X46480437Y-55147834D01*
X46474773Y-55170443D01*
X46466921Y-55192387D01*
X46456956Y-55213457D01*
X46444974Y-55233448D01*
X46431090Y-55252168D01*
X46415438Y-55269438D01*
X46398168Y-55285090D01*
X46379448Y-55298974D01*
X46359457Y-55310956D01*
X46338387Y-55320921D01*
X46316443Y-55328773D01*
X46293834Y-55334437D01*
X46270779Y-55337856D01*
X46247500Y-55339000D01*
X45672500Y-55339000D01*
X45649221Y-55337856D01*
X45626166Y-55334437D01*
X45603557Y-55328773D01*
X45581613Y-55320921D01*
X45560543Y-55310956D01*
X45540552Y-55298974D01*
X45521832Y-55285090D01*
X45504562Y-55269438D01*
X45488910Y-55252168D01*
X45475026Y-55233448D01*
X45463044Y-55213457D01*
X45453079Y-55192387D01*
X45445227Y-55170443D01*
X45439563Y-55147834D01*
X45436144Y-55124779D01*
X45435000Y-55101500D01*
X45435000Y-54626500D01*
X45436144Y-54603221D01*
X45439563Y-54580166D01*
X45445227Y-54557557D01*
X45453079Y-54535613D01*
X45463044Y-54514543D01*
X45475026Y-54494552D01*
X45488910Y-54475832D01*
X45504562Y-54458562D01*
X45521832Y-54442910D01*
X45540552Y-54429026D01*
X45560543Y-54417044D01*
X45581613Y-54407079D01*
X45603557Y-54399227D01*
X45626166Y-54393563D01*
X45649221Y-54390144D01*
X45672500Y-54389000D01*
X46247500Y-54389000D01*
X46270779Y-54390144D01*
G37*
G36*
X74873779Y-49818144D02*
G01*
X74896834Y-49821563D01*
X74919443Y-49827227D01*
X74941387Y-49835079D01*
X74962457Y-49845044D01*
X74982448Y-49857026D01*
X75001168Y-49870910D01*
X75018438Y-49886562D01*
X75034090Y-49903832D01*
X75047974Y-49922552D01*
X75059956Y-49942543D01*
X75069921Y-49963613D01*
X75077773Y-49985557D01*
X75083437Y-50008166D01*
X75086856Y-50031221D01*
X75088000Y-50054500D01*
X75088000Y-50529500D01*
X75086856Y-50552779D01*
X75083437Y-50575834D01*
X75077773Y-50598443D01*
X75069921Y-50620387D01*
X75059956Y-50641457D01*
X75047974Y-50661448D01*
X75034090Y-50680168D01*
X75018438Y-50697438D01*
X75001168Y-50713090D01*
X74982448Y-50726974D01*
X74962457Y-50738956D01*
X74941387Y-50748921D01*
X74919443Y-50756773D01*
X74896834Y-50762437D01*
X74873779Y-50765856D01*
X74850500Y-50767000D01*
X74275500Y-50767000D01*
X74252221Y-50765856D01*
X74229166Y-50762437D01*
X74206557Y-50756773D01*
X74184613Y-50748921D01*
X74163543Y-50738956D01*
X74143552Y-50726974D01*
X74124832Y-50713090D01*
X74107562Y-50697438D01*
X74091910Y-50680168D01*
X74078026Y-50661448D01*
X74066044Y-50641457D01*
X74056079Y-50620387D01*
X74048227Y-50598443D01*
X74042563Y-50575834D01*
X74039144Y-50552779D01*
X74038000Y-50529500D01*
X74038000Y-50054500D01*
X74039144Y-50031221D01*
X74042563Y-50008166D01*
X74048227Y-49985557D01*
X74056079Y-49963613D01*
X74066044Y-49942543D01*
X74078026Y-49922552D01*
X74091910Y-49903832D01*
X74107562Y-49886562D01*
X74124832Y-49870910D01*
X74143552Y-49857026D01*
X74163543Y-49845044D01*
X74184613Y-49835079D01*
X74206557Y-49827227D01*
X74229166Y-49821563D01*
X74252221Y-49818144D01*
X74275500Y-49817000D01*
X74850500Y-49817000D01*
X74873779Y-49818144D01*
G37*
G36*
X76623779Y-49818144D02*
G01*
X76646834Y-49821563D01*
X76669443Y-49827227D01*
X76691387Y-49835079D01*
X76712457Y-49845044D01*
X76732448Y-49857026D01*
X76751168Y-49870910D01*
X76768438Y-49886562D01*
X76784090Y-49903832D01*
X76797974Y-49922552D01*
X76809956Y-49942543D01*
X76819921Y-49963613D01*
X76827773Y-49985557D01*
X76833437Y-50008166D01*
X76836856Y-50031221D01*
X76838000Y-50054500D01*
X76838000Y-50529500D01*
X76836856Y-50552779D01*
X76833437Y-50575834D01*
X76827773Y-50598443D01*
X76819921Y-50620387D01*
X76809956Y-50641457D01*
X76797974Y-50661448D01*
X76784090Y-50680168D01*
X76768438Y-50697438D01*
X76751168Y-50713090D01*
X76732448Y-50726974D01*
X76712457Y-50738956D01*
X76691387Y-50748921D01*
X76669443Y-50756773D01*
X76646834Y-50762437D01*
X76623779Y-50765856D01*
X76600500Y-50767000D01*
X76025500Y-50767000D01*
X76002221Y-50765856D01*
X75979166Y-50762437D01*
X75956557Y-50756773D01*
X75934613Y-50748921D01*
X75913543Y-50738956D01*
X75893552Y-50726974D01*
X75874832Y-50713090D01*
X75857562Y-50697438D01*
X75841910Y-50680168D01*
X75828026Y-50661448D01*
X75816044Y-50641457D01*
X75806079Y-50620387D01*
X75798227Y-50598443D01*
X75792563Y-50575834D01*
X75789144Y-50552779D01*
X75788000Y-50529500D01*
X75788000Y-50054500D01*
X75789144Y-50031221D01*
X75792563Y-50008166D01*
X75798227Y-49985557D01*
X75806079Y-49963613D01*
X75816044Y-49942543D01*
X75828026Y-49922552D01*
X75841910Y-49903832D01*
X75857562Y-49886562D01*
X75874832Y-49870910D01*
X75893552Y-49857026D01*
X75913543Y-49845044D01*
X75934613Y-49835079D01*
X75956557Y-49827227D01*
X75979166Y-49821563D01*
X76002221Y-49818144D01*
X76025500Y-49817000D01*
X76600500Y-49817000D01*
X76623779Y-49818144D01*
G37*
G36*
X64205779Y-67090144D02*
G01*
X64228834Y-67093563D01*
X64251443Y-67099227D01*
X64273387Y-67107079D01*
X64294457Y-67117044D01*
X64314448Y-67129026D01*
X64333168Y-67142910D01*
X64350438Y-67158562D01*
X64366090Y-67175832D01*
X64379974Y-67194552D01*
X64391956Y-67214543D01*
X64401921Y-67235613D01*
X64409773Y-67257557D01*
X64415437Y-67280166D01*
X64418856Y-67303221D01*
X64420000Y-67326500D01*
X64420000Y-67801500D01*
X64418856Y-67824779D01*
X64415437Y-67847834D01*
X64409773Y-67870443D01*
X64401921Y-67892387D01*
X64391956Y-67913457D01*
X64379974Y-67933448D01*
X64366090Y-67952168D01*
X64350438Y-67969438D01*
X64333168Y-67985090D01*
X64314448Y-67998974D01*
X64294457Y-68010956D01*
X64273387Y-68020921D01*
X64251443Y-68028773D01*
X64228834Y-68034437D01*
X64205779Y-68037856D01*
X64182500Y-68039000D01*
X63607500Y-68039000D01*
X63584221Y-68037856D01*
X63561166Y-68034437D01*
X63538557Y-68028773D01*
X63516613Y-68020921D01*
X63495543Y-68010956D01*
X63475552Y-67998974D01*
X63456832Y-67985090D01*
X63439562Y-67969438D01*
X63423910Y-67952168D01*
X63410026Y-67933448D01*
X63398044Y-67913457D01*
X63388079Y-67892387D01*
X63380227Y-67870443D01*
X63374563Y-67847834D01*
X63371144Y-67824779D01*
X63370000Y-67801500D01*
X63370000Y-67326500D01*
X63371144Y-67303221D01*
X63374563Y-67280166D01*
X63380227Y-67257557D01*
X63388079Y-67235613D01*
X63398044Y-67214543D01*
X63410026Y-67194552D01*
X63423910Y-67175832D01*
X63439562Y-67158562D01*
X63456832Y-67142910D01*
X63475552Y-67129026D01*
X63495543Y-67117044D01*
X63516613Y-67107079D01*
X63538557Y-67099227D01*
X63561166Y-67093563D01*
X63584221Y-67090144D01*
X63607500Y-67089000D01*
X64182500Y-67089000D01*
X64205779Y-67090144D01*
G37*
G36*
X65955779Y-67090144D02*
G01*
X65978834Y-67093563D01*
X66001443Y-67099227D01*
X66023387Y-67107079D01*
X66044457Y-67117044D01*
X66064448Y-67129026D01*
X66083168Y-67142910D01*
X66100438Y-67158562D01*
X66116090Y-67175832D01*
X66129974Y-67194552D01*
X66141956Y-67214543D01*
X66151921Y-67235613D01*
X66159773Y-67257557D01*
X66165437Y-67280166D01*
X66168856Y-67303221D01*
X66170000Y-67326500D01*
X66170000Y-67801500D01*
X66168856Y-67824779D01*
X66165437Y-67847834D01*
X66159773Y-67870443D01*
X66151921Y-67892387D01*
X66141956Y-67913457D01*
X66129974Y-67933448D01*
X66116090Y-67952168D01*
X66100438Y-67969438D01*
X66083168Y-67985090D01*
X66064448Y-67998974D01*
X66044457Y-68010956D01*
X66023387Y-68020921D01*
X66001443Y-68028773D01*
X65978834Y-68034437D01*
X65955779Y-68037856D01*
X65932500Y-68039000D01*
X65357500Y-68039000D01*
X65334221Y-68037856D01*
X65311166Y-68034437D01*
X65288557Y-68028773D01*
X65266613Y-68020921D01*
X65245543Y-68010956D01*
X65225552Y-67998974D01*
X65206832Y-67985090D01*
X65189562Y-67969438D01*
X65173910Y-67952168D01*
X65160026Y-67933448D01*
X65148044Y-67913457D01*
X65138079Y-67892387D01*
X65130227Y-67870443D01*
X65124563Y-67847834D01*
X65121144Y-67824779D01*
X65120000Y-67801500D01*
X65120000Y-67326500D01*
X65121144Y-67303221D01*
X65124563Y-67280166D01*
X65130227Y-67257557D01*
X65138079Y-67235613D01*
X65148044Y-67214543D01*
X65160026Y-67194552D01*
X65173910Y-67175832D01*
X65189562Y-67158562D01*
X65206832Y-67142910D01*
X65225552Y-67129026D01*
X65245543Y-67117044D01*
X65266613Y-67107079D01*
X65288557Y-67099227D01*
X65311166Y-67093563D01*
X65334221Y-67090144D01*
X65357500Y-67089000D01*
X65932500Y-67089000D01*
X65955779Y-67090144D01*
G37*
G36*
X64205779Y-68614144D02*
G01*
X64228834Y-68617563D01*
X64251443Y-68623227D01*
X64273387Y-68631079D01*
X64294457Y-68641044D01*
X64314448Y-68653026D01*
X64333168Y-68666910D01*
X64350438Y-68682562D01*
X64366090Y-68699832D01*
X64379974Y-68718552D01*
X64391956Y-68738543D01*
X64401921Y-68759613D01*
X64409773Y-68781557D01*
X64415437Y-68804166D01*
X64418856Y-68827221D01*
X64420000Y-68850500D01*
X64420000Y-69325500D01*
X64418856Y-69348779D01*
X64415437Y-69371834D01*
X64409773Y-69394443D01*
X64401921Y-69416387D01*
X64391956Y-69437457D01*
X64379974Y-69457448D01*
X64366090Y-69476168D01*
X64350438Y-69493438D01*
X64333168Y-69509090D01*
X64314448Y-69522974D01*
X64294457Y-69534956D01*
X64273387Y-69544921D01*
X64251443Y-69552773D01*
X64228834Y-69558437D01*
X64205779Y-69561856D01*
X64182500Y-69563000D01*
X63607500Y-69563000D01*
X63584221Y-69561856D01*
X63561166Y-69558437D01*
X63538557Y-69552773D01*
X63516613Y-69544921D01*
X63495543Y-69534956D01*
X63475552Y-69522974D01*
X63456832Y-69509090D01*
X63439562Y-69493438D01*
X63423910Y-69476168D01*
X63410026Y-69457448D01*
X63398044Y-69437457D01*
X63388079Y-69416387D01*
X63380227Y-69394443D01*
X63374563Y-69371834D01*
X63371144Y-69348779D01*
X63370000Y-69325500D01*
X63370000Y-68850500D01*
X63371144Y-68827221D01*
X63374563Y-68804166D01*
X63380227Y-68781557D01*
X63388079Y-68759613D01*
X63398044Y-68738543D01*
X63410026Y-68718552D01*
X63423910Y-68699832D01*
X63439562Y-68682562D01*
X63456832Y-68666910D01*
X63475552Y-68653026D01*
X63495543Y-68641044D01*
X63516613Y-68631079D01*
X63538557Y-68623227D01*
X63561166Y-68617563D01*
X63584221Y-68614144D01*
X63607500Y-68613000D01*
X64182500Y-68613000D01*
X64205779Y-68614144D01*
G37*
G36*
X65955779Y-68614144D02*
G01*
X65978834Y-68617563D01*
X66001443Y-68623227D01*
X66023387Y-68631079D01*
X66044457Y-68641044D01*
X66064448Y-68653026D01*
X66083168Y-68666910D01*
X66100438Y-68682562D01*
X66116090Y-68699832D01*
X66129974Y-68718552D01*
X66141956Y-68738543D01*
X66151921Y-68759613D01*
X66159773Y-68781557D01*
X66165437Y-68804166D01*
X66168856Y-68827221D01*
X66170000Y-68850500D01*
X66170000Y-69325500D01*
X66168856Y-69348779D01*
X66165437Y-69371834D01*
X66159773Y-69394443D01*
X66151921Y-69416387D01*
X66141956Y-69437457D01*
X66129974Y-69457448D01*
X66116090Y-69476168D01*
X66100438Y-69493438D01*
X66083168Y-69509090D01*
X66064448Y-69522974D01*
X66044457Y-69534956D01*
X66023387Y-69544921D01*
X66001443Y-69552773D01*
X65978834Y-69558437D01*
X65955779Y-69561856D01*
X65932500Y-69563000D01*
X65357500Y-69563000D01*
X65334221Y-69561856D01*
X65311166Y-69558437D01*
X65288557Y-69552773D01*
X65266613Y-69544921D01*
X65245543Y-69534956D01*
X65225552Y-69522974D01*
X65206832Y-69509090D01*
X65189562Y-69493438D01*
X65173910Y-69476168D01*
X65160026Y-69457448D01*
X65148044Y-69437457D01*
X65138079Y-69416387D01*
X65130227Y-69394443D01*
X65124563Y-69371834D01*
X65121144Y-69348779D01*
X65120000Y-69325500D01*
X65120000Y-68850500D01*
X65121144Y-68827221D01*
X65124563Y-68804166D01*
X65130227Y-68781557D01*
X65138079Y-68759613D01*
X65148044Y-68738543D01*
X65160026Y-68718552D01*
X65173910Y-68699832D01*
X65189562Y-68682562D01*
X65206832Y-68666910D01*
X65225552Y-68653026D01*
X65245543Y-68641044D01*
X65266613Y-68631079D01*
X65288557Y-68623227D01*
X65311166Y-68617563D01*
X65334221Y-68614144D01*
X65357500Y-68613000D01*
X65932500Y-68613000D01*
X65955779Y-68614144D01*
G37*
G36*
X69608779Y-56279144D02*
G01*
X69631834Y-56282563D01*
X69654443Y-56288227D01*
X69676387Y-56296079D01*
X69697457Y-56306044D01*
X69717448Y-56318026D01*
X69736168Y-56331910D01*
X69753438Y-56347562D01*
X69769090Y-56364832D01*
X69782974Y-56383552D01*
X69794956Y-56403543D01*
X69804921Y-56424613D01*
X69812773Y-56446557D01*
X69818437Y-56469166D01*
X69821856Y-56492221D01*
X69823000Y-56515500D01*
X69823000Y-57090500D01*
X69821856Y-57113779D01*
X69818437Y-57136834D01*
X69812773Y-57159443D01*
X69804921Y-57181387D01*
X69794956Y-57202457D01*
X69782974Y-57222448D01*
X69769090Y-57241168D01*
X69753438Y-57258438D01*
X69736168Y-57274090D01*
X69717448Y-57287974D01*
X69697457Y-57299956D01*
X69676387Y-57309921D01*
X69654443Y-57317773D01*
X69631834Y-57323437D01*
X69608779Y-57326856D01*
X69585500Y-57328000D01*
X69110500Y-57328000D01*
X69087221Y-57326856D01*
X69064166Y-57323437D01*
X69041557Y-57317773D01*
X69019613Y-57309921D01*
X68998543Y-57299956D01*
X68978552Y-57287974D01*
X68959832Y-57274090D01*
X68942562Y-57258438D01*
X68926910Y-57241168D01*
X68913026Y-57222448D01*
X68901044Y-57202457D01*
X68891079Y-57181387D01*
X68883227Y-57159443D01*
X68877563Y-57136834D01*
X68874144Y-57113779D01*
X68873000Y-57090500D01*
X68873000Y-56515500D01*
X68874144Y-56492221D01*
X68877563Y-56469166D01*
X68883227Y-56446557D01*
X68891079Y-56424613D01*
X68901044Y-56403543D01*
X68913026Y-56383552D01*
X68926910Y-56364832D01*
X68942562Y-56347562D01*
X68959832Y-56331910D01*
X68978552Y-56318026D01*
X68998543Y-56306044D01*
X69019613Y-56296079D01*
X69041557Y-56288227D01*
X69064166Y-56282563D01*
X69087221Y-56279144D01*
X69110500Y-56278000D01*
X69585500Y-56278000D01*
X69608779Y-56279144D01*
G37*
G36*
X69608779Y-58029144D02*
G01*
X69631834Y-58032563D01*
X69654443Y-58038227D01*
X69676387Y-58046079D01*
X69697457Y-58056044D01*
X69717448Y-58068026D01*
X69736168Y-58081910D01*
X69753438Y-58097562D01*
X69769090Y-58114832D01*
X69782974Y-58133552D01*
X69794956Y-58153543D01*
X69804921Y-58174613D01*
X69812773Y-58196557D01*
X69818437Y-58219166D01*
X69821856Y-58242221D01*
X69823000Y-58265500D01*
X69823000Y-58840500D01*
X69821856Y-58863779D01*
X69818437Y-58886834D01*
X69812773Y-58909443D01*
X69804921Y-58931387D01*
X69794956Y-58952457D01*
X69782974Y-58972448D01*
X69769090Y-58991168D01*
X69753438Y-59008438D01*
X69736168Y-59024090D01*
X69717448Y-59037974D01*
X69697457Y-59049956D01*
X69676387Y-59059921D01*
X69654443Y-59067773D01*
X69631834Y-59073437D01*
X69608779Y-59076856D01*
X69585500Y-59078000D01*
X69110500Y-59078000D01*
X69087221Y-59076856D01*
X69064166Y-59073437D01*
X69041557Y-59067773D01*
X69019613Y-59059921D01*
X68998543Y-59049956D01*
X68978552Y-59037974D01*
X68959832Y-59024090D01*
X68942562Y-59008438D01*
X68926910Y-58991168D01*
X68913026Y-58972448D01*
X68901044Y-58952457D01*
X68891079Y-58931387D01*
X68883227Y-58909443D01*
X68877563Y-58886834D01*
X68874144Y-58863779D01*
X68873000Y-58840500D01*
X68873000Y-58265500D01*
X68874144Y-58242221D01*
X68877563Y-58219166D01*
X68883227Y-58196557D01*
X68891079Y-58174613D01*
X68901044Y-58153543D01*
X68913026Y-58133552D01*
X68926910Y-58114832D01*
X68942562Y-58097562D01*
X68959832Y-58081910D01*
X68978552Y-58068026D01*
X68998543Y-58056044D01*
X69019613Y-58046079D01*
X69041557Y-58038227D01*
X69064166Y-58032563D01*
X69087221Y-58029144D01*
X69110500Y-58028000D01*
X69585500Y-58028000D01*
X69608779Y-58029144D01*
G37*
G36*
X59887779Y-59470144D02*
G01*
X59910834Y-59473563D01*
X59933443Y-59479227D01*
X59955387Y-59487079D01*
X59976457Y-59497044D01*
X59996448Y-59509026D01*
X60015168Y-59522910D01*
X60032438Y-59538562D01*
X60048090Y-59555832D01*
X60061974Y-59574552D01*
X60073956Y-59594543D01*
X60083921Y-59615613D01*
X60091773Y-59637557D01*
X60097437Y-59660166D01*
X60100856Y-59683221D01*
X60102000Y-59706500D01*
X60102000Y-60181500D01*
X60100856Y-60204779D01*
X60097437Y-60227834D01*
X60091773Y-60250443D01*
X60083921Y-60272387D01*
X60073956Y-60293457D01*
X60061974Y-60313448D01*
X60048090Y-60332168D01*
X60032438Y-60349438D01*
X60015168Y-60365090D01*
X59996448Y-60378974D01*
X59976457Y-60390956D01*
X59955387Y-60400921D01*
X59933443Y-60408773D01*
X59910834Y-60414437D01*
X59887779Y-60417856D01*
X59864500Y-60419000D01*
X59289500Y-60419000D01*
X59266221Y-60417856D01*
X59243166Y-60414437D01*
X59220557Y-60408773D01*
X59198613Y-60400921D01*
X59177543Y-60390956D01*
X59157552Y-60378974D01*
X59138832Y-60365090D01*
X59121562Y-60349438D01*
X59105910Y-60332168D01*
X59092026Y-60313448D01*
X59080044Y-60293457D01*
X59070079Y-60272387D01*
X59062227Y-60250443D01*
X59056563Y-60227834D01*
X59053144Y-60204779D01*
X59052000Y-60181500D01*
X59052000Y-59706500D01*
X59053144Y-59683221D01*
X59056563Y-59660166D01*
X59062227Y-59637557D01*
X59070079Y-59615613D01*
X59080044Y-59594543D01*
X59092026Y-59574552D01*
X59105910Y-59555832D01*
X59121562Y-59538562D01*
X59138832Y-59522910D01*
X59157552Y-59509026D01*
X59177543Y-59497044D01*
X59198613Y-59487079D01*
X59220557Y-59479227D01*
X59243166Y-59473563D01*
X59266221Y-59470144D01*
X59289500Y-59469000D01*
X59864500Y-59469000D01*
X59887779Y-59470144D01*
G37*
G36*
X61637779Y-59470144D02*
G01*
X61660834Y-59473563D01*
X61683443Y-59479227D01*
X61705387Y-59487079D01*
X61726457Y-59497044D01*
X61746448Y-59509026D01*
X61765168Y-59522910D01*
X61782438Y-59538562D01*
X61798090Y-59555832D01*
X61811974Y-59574552D01*
X61823956Y-59594543D01*
X61833921Y-59615613D01*
X61841773Y-59637557D01*
X61847437Y-59660166D01*
X61850856Y-59683221D01*
X61852000Y-59706500D01*
X61852000Y-60181500D01*
X61850856Y-60204779D01*
X61847437Y-60227834D01*
X61841773Y-60250443D01*
X61833921Y-60272387D01*
X61823956Y-60293457D01*
X61811974Y-60313448D01*
X61798090Y-60332168D01*
X61782438Y-60349438D01*
X61765168Y-60365090D01*
X61746448Y-60378974D01*
X61726457Y-60390956D01*
X61705387Y-60400921D01*
X61683443Y-60408773D01*
X61660834Y-60414437D01*
X61637779Y-60417856D01*
X61614500Y-60419000D01*
X61039500Y-60419000D01*
X61016221Y-60417856D01*
X60993166Y-60414437D01*
X60970557Y-60408773D01*
X60948613Y-60400921D01*
X60927543Y-60390956D01*
X60907552Y-60378974D01*
X60888832Y-60365090D01*
X60871562Y-60349438D01*
X60855910Y-60332168D01*
X60842026Y-60313448D01*
X60830044Y-60293457D01*
X60820079Y-60272387D01*
X60812227Y-60250443D01*
X60806563Y-60227834D01*
X60803144Y-60204779D01*
X60802000Y-60181500D01*
X60802000Y-59706500D01*
X60803144Y-59683221D01*
X60806563Y-59660166D01*
X60812227Y-59637557D01*
X60820079Y-59615613D01*
X60830044Y-59594543D01*
X60842026Y-59574552D01*
X60855910Y-59555832D01*
X60871562Y-59538562D01*
X60888832Y-59522910D01*
X60907552Y-59509026D01*
X60927543Y-59497044D01*
X60948613Y-59487079D01*
X60970557Y-59479227D01*
X60993166Y-59473563D01*
X61016221Y-59470144D01*
X61039500Y-59469000D01*
X61614500Y-59469000D01*
X61637779Y-59470144D01*
G37*
G36*
X72656779Y-56251144D02*
G01*
X72679834Y-56254563D01*
X72702443Y-56260227D01*
X72724387Y-56268079D01*
X72745457Y-56278044D01*
X72765448Y-56290026D01*
X72784168Y-56303910D01*
X72801438Y-56319562D01*
X72817090Y-56336832D01*
X72830974Y-56355552D01*
X72842956Y-56375543D01*
X72852921Y-56396613D01*
X72860773Y-56418557D01*
X72866437Y-56441166D01*
X72869856Y-56464221D01*
X72871000Y-56487500D01*
X72871000Y-57062500D01*
X72869856Y-57085779D01*
X72866437Y-57108834D01*
X72860773Y-57131443D01*
X72852921Y-57153387D01*
X72842956Y-57174457D01*
X72830974Y-57194448D01*
X72817090Y-57213168D01*
X72801438Y-57230438D01*
X72784168Y-57246090D01*
X72765448Y-57259974D01*
X72745457Y-57271956D01*
X72724387Y-57281921D01*
X72702443Y-57289773D01*
X72679834Y-57295437D01*
X72656779Y-57298856D01*
X72633500Y-57300000D01*
X72158500Y-57300000D01*
X72135221Y-57298856D01*
X72112166Y-57295437D01*
X72089557Y-57289773D01*
X72067613Y-57281921D01*
X72046543Y-57271956D01*
X72026552Y-57259974D01*
X72007832Y-57246090D01*
X71990562Y-57230438D01*
X71974910Y-57213168D01*
X71961026Y-57194448D01*
X71949044Y-57174457D01*
X71939079Y-57153387D01*
X71931227Y-57131443D01*
X71925563Y-57108834D01*
X71922144Y-57085779D01*
X71921000Y-57062500D01*
X71921000Y-56487500D01*
X71922144Y-56464221D01*
X71925563Y-56441166D01*
X71931227Y-56418557D01*
X71939079Y-56396613D01*
X71949044Y-56375543D01*
X71961026Y-56355552D01*
X71974910Y-56336832D01*
X71990562Y-56319562D01*
X72007832Y-56303910D01*
X72026552Y-56290026D01*
X72046543Y-56278044D01*
X72067613Y-56268079D01*
X72089557Y-56260227D01*
X72112166Y-56254563D01*
X72135221Y-56251144D01*
X72158500Y-56250000D01*
X72633500Y-56250000D01*
X72656779Y-56251144D01*
G37*
G36*
X72656779Y-54501144D02*
G01*
X72679834Y-54504563D01*
X72702443Y-54510227D01*
X72724387Y-54518079D01*
X72745457Y-54528044D01*
X72765448Y-54540026D01*
X72784168Y-54553910D01*
X72801438Y-54569562D01*
X72817090Y-54586832D01*
X72830974Y-54605552D01*
X72842956Y-54625543D01*
X72852921Y-54646613D01*
X72860773Y-54668557D01*
X72866437Y-54691166D01*
X72869856Y-54714221D01*
X72871000Y-54737500D01*
X72871000Y-55312500D01*
X72869856Y-55335779D01*
X72866437Y-55358834D01*
X72860773Y-55381443D01*
X72852921Y-55403387D01*
X72842956Y-55424457D01*
X72830974Y-55444448D01*
X72817090Y-55463168D01*
X72801438Y-55480438D01*
X72784168Y-55496090D01*
X72765448Y-55509974D01*
X72745457Y-55521956D01*
X72724387Y-55531921D01*
X72702443Y-55539773D01*
X72679834Y-55545437D01*
X72656779Y-55548856D01*
X72633500Y-55550000D01*
X72158500Y-55550000D01*
X72135221Y-55548856D01*
X72112166Y-55545437D01*
X72089557Y-55539773D01*
X72067613Y-55531921D01*
X72046543Y-55521956D01*
X72026552Y-55509974D01*
X72007832Y-55496090D01*
X71990562Y-55480438D01*
X71974910Y-55463168D01*
X71961026Y-55444448D01*
X71949044Y-55424457D01*
X71939079Y-55403387D01*
X71931227Y-55381443D01*
X71925563Y-55358834D01*
X71922144Y-55335779D01*
X71921000Y-55312500D01*
X71921000Y-54737500D01*
X71922144Y-54714221D01*
X71925563Y-54691166D01*
X71931227Y-54668557D01*
X71939079Y-54646613D01*
X71949044Y-54625543D01*
X71961026Y-54605552D01*
X71974910Y-54586832D01*
X71990562Y-54569562D01*
X72007832Y-54553910D01*
X72026552Y-54540026D01*
X72046543Y-54528044D01*
X72067613Y-54518079D01*
X72089557Y-54510227D01*
X72112166Y-54504563D01*
X72135221Y-54501144D01*
X72158500Y-54500000D01*
X72633500Y-54500000D01*
X72656779Y-54501144D01*
G37*
G36*
X59935779Y-61026144D02*
G01*
X59958834Y-61029563D01*
X59981443Y-61035227D01*
X60003387Y-61043079D01*
X60024457Y-61053044D01*
X60044448Y-61065026D01*
X60063168Y-61078910D01*
X60080438Y-61094562D01*
X60096090Y-61111832D01*
X60109974Y-61130552D01*
X60121956Y-61150543D01*
X60131921Y-61171613D01*
X60139773Y-61193557D01*
X60145437Y-61216166D01*
X60148856Y-61239221D01*
X60150000Y-61262500D01*
X60150000Y-61737500D01*
X60148856Y-61760779D01*
X60145437Y-61783834D01*
X60139773Y-61806443D01*
X60131921Y-61828387D01*
X60121956Y-61849457D01*
X60109974Y-61869448D01*
X60096090Y-61888168D01*
X60080438Y-61905438D01*
X60063168Y-61921090D01*
X60044448Y-61934974D01*
X60024457Y-61946956D01*
X60003387Y-61956921D01*
X59981443Y-61964773D01*
X59958834Y-61970437D01*
X59935779Y-61973856D01*
X59912500Y-61975000D01*
X59337500Y-61975000D01*
X59314221Y-61973856D01*
X59291166Y-61970437D01*
X59268557Y-61964773D01*
X59246613Y-61956921D01*
X59225543Y-61946956D01*
X59205552Y-61934974D01*
X59186832Y-61921090D01*
X59169562Y-61905438D01*
X59153910Y-61888168D01*
X59140026Y-61869448D01*
X59128044Y-61849457D01*
X59118079Y-61828387D01*
X59110227Y-61806443D01*
X59104563Y-61783834D01*
X59101144Y-61760779D01*
X59100000Y-61737500D01*
X59100000Y-61262500D01*
X59101144Y-61239221D01*
X59104563Y-61216166D01*
X59110227Y-61193557D01*
X59118079Y-61171613D01*
X59128044Y-61150543D01*
X59140026Y-61130552D01*
X59153910Y-61111832D01*
X59169562Y-61094562D01*
X59186832Y-61078910D01*
X59205552Y-61065026D01*
X59225543Y-61053044D01*
X59246613Y-61043079D01*
X59268557Y-61035227D01*
X59291166Y-61029563D01*
X59314221Y-61026144D01*
X59337500Y-61025000D01*
X59912500Y-61025000D01*
X59935779Y-61026144D01*
G37*
G36*
X61685779Y-61026144D02*
G01*
X61708834Y-61029563D01*
X61731443Y-61035227D01*
X61753387Y-61043079D01*
X61774457Y-61053044D01*
X61794448Y-61065026D01*
X61813168Y-61078910D01*
X61830438Y-61094562D01*
X61846090Y-61111832D01*
X61859974Y-61130552D01*
X61871956Y-61150543D01*
X61881921Y-61171613D01*
X61889773Y-61193557D01*
X61895437Y-61216166D01*
X61898856Y-61239221D01*
X61900000Y-61262500D01*
X61900000Y-61737500D01*
X61898856Y-61760779D01*
X61895437Y-61783834D01*
X61889773Y-61806443D01*
X61881921Y-61828387D01*
X61871956Y-61849457D01*
X61859974Y-61869448D01*
X61846090Y-61888168D01*
X61830438Y-61905438D01*
X61813168Y-61921090D01*
X61794448Y-61934974D01*
X61774457Y-61946956D01*
X61753387Y-61956921D01*
X61731443Y-61964773D01*
X61708834Y-61970437D01*
X61685779Y-61973856D01*
X61662500Y-61975000D01*
X61087500Y-61975000D01*
X61064221Y-61973856D01*
X61041166Y-61970437D01*
X61018557Y-61964773D01*
X60996613Y-61956921D01*
X60975543Y-61946956D01*
X60955552Y-61934974D01*
X60936832Y-61921090D01*
X60919562Y-61905438D01*
X60903910Y-61888168D01*
X60890026Y-61869448D01*
X60878044Y-61849457D01*
X60868079Y-61828387D01*
X60860227Y-61806443D01*
X60854563Y-61783834D01*
X60851144Y-61760779D01*
X60850000Y-61737500D01*
X60850000Y-61262500D01*
X60851144Y-61239221D01*
X60854563Y-61216166D01*
X60860227Y-61193557D01*
X60868079Y-61171613D01*
X60878044Y-61150543D01*
X60890026Y-61130552D01*
X60903910Y-61111832D01*
X60919562Y-61094562D01*
X60936832Y-61078910D01*
X60955552Y-61065026D01*
X60975543Y-61053044D01*
X60996613Y-61043079D01*
X61018557Y-61035227D01*
X61041166Y-61029563D01*
X61064221Y-61026144D01*
X61087500Y-61025000D01*
X61662500Y-61025000D01*
X61685779Y-61026144D01*
G37*
G36*
X46270779Y-57946144D02*
G01*
X46293834Y-57949563D01*
X46316443Y-57955227D01*
X46338387Y-57963079D01*
X46359457Y-57973044D01*
X46379448Y-57985026D01*
X46398168Y-57998910D01*
X46415438Y-58014562D01*
X46431090Y-58031832D01*
X46444974Y-58050552D01*
X46456956Y-58070543D01*
X46466921Y-58091613D01*
X46474773Y-58113557D01*
X46480437Y-58136166D01*
X46483856Y-58159221D01*
X46485000Y-58182500D01*
X46485000Y-58657500D01*
X46483856Y-58680779D01*
X46480437Y-58703834D01*
X46474773Y-58726443D01*
X46466921Y-58748387D01*
X46456956Y-58769457D01*
X46444974Y-58789448D01*
X46431090Y-58808168D01*
X46415438Y-58825438D01*
X46398168Y-58841090D01*
X46379448Y-58854974D01*
X46359457Y-58866956D01*
X46338387Y-58876921D01*
X46316443Y-58884773D01*
X46293834Y-58890437D01*
X46270779Y-58893856D01*
X46247500Y-58895000D01*
X45672500Y-58895000D01*
X45649221Y-58893856D01*
X45626166Y-58890437D01*
X45603557Y-58884773D01*
X45581613Y-58876921D01*
X45560543Y-58866956D01*
X45540552Y-58854974D01*
X45521832Y-58841090D01*
X45504562Y-58825438D01*
X45488910Y-58808168D01*
X45475026Y-58789448D01*
X45463044Y-58769457D01*
X45453079Y-58748387D01*
X45445227Y-58726443D01*
X45439563Y-58703834D01*
X45436144Y-58680779D01*
X45435000Y-58657500D01*
X45435000Y-58182500D01*
X45436144Y-58159221D01*
X45439563Y-58136166D01*
X45445227Y-58113557D01*
X45453079Y-58091613D01*
X45463044Y-58070543D01*
X45475026Y-58050552D01*
X45488910Y-58031832D01*
X45504562Y-58014562D01*
X45521832Y-57998910D01*
X45540552Y-57985026D01*
X45560543Y-57973044D01*
X45581613Y-57963079D01*
X45603557Y-57955227D01*
X45626166Y-57949563D01*
X45649221Y-57946144D01*
X45672500Y-57945000D01*
X46247500Y-57945000D01*
X46270779Y-57946144D01*
G37*
G36*
X44520779Y-57946144D02*
G01*
X44543834Y-57949563D01*
X44566443Y-57955227D01*
X44588387Y-57963079D01*
X44609457Y-57973044D01*
X44629448Y-57985026D01*
X44648168Y-57998910D01*
X44665438Y-58014562D01*
X44681090Y-58031832D01*
X44694974Y-58050552D01*
X44706956Y-58070543D01*
X44716921Y-58091613D01*
X44724773Y-58113557D01*
X44730437Y-58136166D01*
X44733856Y-58159221D01*
X44735000Y-58182500D01*
X44735000Y-58657500D01*
X44733856Y-58680779D01*
X44730437Y-58703834D01*
X44724773Y-58726443D01*
X44716921Y-58748387D01*
X44706956Y-58769457D01*
X44694974Y-58789448D01*
X44681090Y-58808168D01*
X44665438Y-58825438D01*
X44648168Y-58841090D01*
X44629448Y-58854974D01*
X44609457Y-58866956D01*
X44588387Y-58876921D01*
X44566443Y-58884773D01*
X44543834Y-58890437D01*
X44520779Y-58893856D01*
X44497500Y-58895000D01*
X43922500Y-58895000D01*
X43899221Y-58893856D01*
X43876166Y-58890437D01*
X43853557Y-58884773D01*
X43831613Y-58876921D01*
X43810543Y-58866956D01*
X43790552Y-58854974D01*
X43771832Y-58841090D01*
X43754562Y-58825438D01*
X43738910Y-58808168D01*
X43725026Y-58789448D01*
X43713044Y-58769457D01*
X43703079Y-58748387D01*
X43695227Y-58726443D01*
X43689563Y-58703834D01*
X43686144Y-58680779D01*
X43685000Y-58657500D01*
X43685000Y-58182500D01*
X43686144Y-58159221D01*
X43689563Y-58136166D01*
X43695227Y-58113557D01*
X43703079Y-58091613D01*
X43713044Y-58070543D01*
X43725026Y-58050552D01*
X43738910Y-58031832D01*
X43754562Y-58014562D01*
X43771832Y-57998910D01*
X43790552Y-57985026D01*
X43810543Y-57973044D01*
X43831613Y-57963079D01*
X43853557Y-57955227D01*
X43876166Y-57949563D01*
X43899221Y-57946144D01*
X43922500Y-57945000D01*
X44497500Y-57945000D01*
X44520779Y-57946144D01*
G37*
G36*
X73060779Y-49751144D02*
G01*
X73083834Y-49754563D01*
X73106443Y-49760227D01*
X73128387Y-49768079D01*
X73149457Y-49778044D01*
X73169448Y-49790026D01*
X73188168Y-49803910D01*
X73205438Y-49819562D01*
X73221090Y-49836832D01*
X73234974Y-49855552D01*
X73246956Y-49875543D01*
X73256921Y-49896613D01*
X73264773Y-49918557D01*
X73270437Y-49941166D01*
X73273856Y-49964221D01*
X73275000Y-49987500D01*
X73275000Y-50562500D01*
X73273856Y-50585779D01*
X73270437Y-50608834D01*
X73264773Y-50631443D01*
X73256921Y-50653387D01*
X73246956Y-50674457D01*
X73234974Y-50694448D01*
X73221090Y-50713168D01*
X73205438Y-50730438D01*
X73188168Y-50746090D01*
X73169448Y-50759974D01*
X73149457Y-50771956D01*
X73128387Y-50781921D01*
X73106443Y-50789773D01*
X73083834Y-50795437D01*
X73060779Y-50798856D01*
X73037500Y-50800000D01*
X72562500Y-50800000D01*
X72539221Y-50798856D01*
X72516166Y-50795437D01*
X72493557Y-50789773D01*
X72471613Y-50781921D01*
X72450543Y-50771956D01*
X72430552Y-50759974D01*
X72411832Y-50746090D01*
X72394562Y-50730438D01*
X72378910Y-50713168D01*
X72365026Y-50694448D01*
X72353044Y-50674457D01*
X72343079Y-50653387D01*
X72335227Y-50631443D01*
X72329563Y-50608834D01*
X72326144Y-50585779D01*
X72325000Y-50562500D01*
X72325000Y-49987500D01*
X72326144Y-49964221D01*
X72329563Y-49941166D01*
X72335227Y-49918557D01*
X72343079Y-49896613D01*
X72353044Y-49875543D01*
X72365026Y-49855552D01*
X72378910Y-49836832D01*
X72394562Y-49819562D01*
X72411832Y-49803910D01*
X72430552Y-49790026D01*
X72450543Y-49778044D01*
X72471613Y-49768079D01*
X72493557Y-49760227D01*
X72516166Y-49754563D01*
X72539221Y-49751144D01*
X72562500Y-49750000D01*
X73037500Y-49750000D01*
X73060779Y-49751144D01*
G37*
G36*
X73060779Y-48001144D02*
G01*
X73083834Y-48004563D01*
X73106443Y-48010227D01*
X73128387Y-48018079D01*
X73149457Y-48028044D01*
X73169448Y-48040026D01*
X73188168Y-48053910D01*
X73205438Y-48069562D01*
X73221090Y-48086832D01*
X73234974Y-48105552D01*
X73246956Y-48125543D01*
X73256921Y-48146613D01*
X73264773Y-48168557D01*
X73270437Y-48191166D01*
X73273856Y-48214221D01*
X73275000Y-48237500D01*
X73275000Y-48812500D01*
X73273856Y-48835779D01*
X73270437Y-48858834D01*
X73264773Y-48881443D01*
X73256921Y-48903387D01*
X73246956Y-48924457D01*
X73234974Y-48944448D01*
X73221090Y-48963168D01*
X73205438Y-48980438D01*
X73188168Y-48996090D01*
X73169448Y-49009974D01*
X73149457Y-49021956D01*
X73128387Y-49031921D01*
X73106443Y-49039773D01*
X73083834Y-49045437D01*
X73060779Y-49048856D01*
X73037500Y-49050000D01*
X72562500Y-49050000D01*
X72539221Y-49048856D01*
X72516166Y-49045437D01*
X72493557Y-49039773D01*
X72471613Y-49031921D01*
X72450543Y-49021956D01*
X72430552Y-49009974D01*
X72411832Y-48996090D01*
X72394562Y-48980438D01*
X72378910Y-48963168D01*
X72365026Y-48944448D01*
X72353044Y-48924457D01*
X72343079Y-48903387D01*
X72335227Y-48881443D01*
X72329563Y-48858834D01*
X72326144Y-48835779D01*
X72325000Y-48812500D01*
X72325000Y-48237500D01*
X72326144Y-48214221D01*
X72329563Y-48191166D01*
X72335227Y-48168557D01*
X72343079Y-48146613D01*
X72353044Y-48125543D01*
X72365026Y-48105552D01*
X72378910Y-48086832D01*
X72394562Y-48069562D01*
X72411832Y-48053910D01*
X72430552Y-48040026D01*
X72450543Y-48028044D01*
X72471613Y-48018079D01*
X72493557Y-48010227D01*
X72516166Y-48004563D01*
X72539221Y-48001144D01*
X72562500Y-48000000D01*
X73037500Y-48000000D01*
X73060779Y-48001144D01*
G37*
G36*
X62824505Y-47561204D02*
G01*
X62848773Y-47564804D01*
X62872572Y-47570765D01*
X62895671Y-47579030D01*
X62917850Y-47589520D01*
X62938893Y-47602132D01*
X62958599Y-47616747D01*
X62976777Y-47633223D01*
X62993253Y-47651401D01*
X63007868Y-47671107D01*
X63020480Y-47692150D01*
X63030970Y-47714329D01*
X63039235Y-47737428D01*
X63045196Y-47761227D01*
X63048796Y-47785495D01*
X63050000Y-47809999D01*
X63050000Y-48710001D01*
X63048796Y-48734505D01*
X63045196Y-48758773D01*
X63039235Y-48782572D01*
X63030970Y-48805671D01*
X63020480Y-48827850D01*
X63007868Y-48848893D01*
X62993253Y-48868599D01*
X62976777Y-48886777D01*
X62958599Y-48903253D01*
X62938893Y-48917868D01*
X62917850Y-48930480D01*
X62895671Y-48940970D01*
X62872572Y-48949235D01*
X62848773Y-48955196D01*
X62824505Y-48958796D01*
X62800001Y-48960000D01*
X62149999Y-48960000D01*
X62125495Y-48958796D01*
X62101227Y-48955196D01*
X62077428Y-48949235D01*
X62054329Y-48940970D01*
X62032150Y-48930480D01*
X62011107Y-48917868D01*
X61991401Y-48903253D01*
X61973223Y-48886777D01*
X61956747Y-48868599D01*
X61942132Y-48848893D01*
X61929520Y-48827850D01*
X61919030Y-48805671D01*
X61910765Y-48782572D01*
X61904804Y-48758773D01*
X61901204Y-48734505D01*
X61900000Y-48710001D01*
X61900000Y-47809999D01*
X61901204Y-47785495D01*
X61904804Y-47761227D01*
X61910765Y-47737428D01*
X61919030Y-47714329D01*
X61929520Y-47692150D01*
X61942132Y-47671107D01*
X61956747Y-47651401D01*
X61973223Y-47633223D01*
X61991401Y-47616747D01*
X62011107Y-47602132D01*
X62032150Y-47589520D01*
X62054329Y-47579030D01*
X62077428Y-47570765D01*
X62101227Y-47564804D01*
X62125495Y-47561204D01*
X62149999Y-47560000D01*
X62800001Y-47560000D01*
X62824505Y-47561204D01*
G37*
G36*
X64874505Y-47561204D02*
G01*
X64898773Y-47564804D01*
X64922572Y-47570765D01*
X64945671Y-47579030D01*
X64967850Y-47589520D01*
X64988893Y-47602132D01*
X65008599Y-47616747D01*
X65026777Y-47633223D01*
X65043253Y-47651401D01*
X65057868Y-47671107D01*
X65070480Y-47692150D01*
X65080970Y-47714329D01*
X65089235Y-47737428D01*
X65095196Y-47761227D01*
X65098796Y-47785495D01*
X65100000Y-47809999D01*
X65100000Y-48710001D01*
X65098796Y-48734505D01*
X65095196Y-48758773D01*
X65089235Y-48782572D01*
X65080970Y-48805671D01*
X65070480Y-48827850D01*
X65057868Y-48848893D01*
X65043253Y-48868599D01*
X65026777Y-48886777D01*
X65008599Y-48903253D01*
X64988893Y-48917868D01*
X64967850Y-48930480D01*
X64945671Y-48940970D01*
X64922572Y-48949235D01*
X64898773Y-48955196D01*
X64874505Y-48958796D01*
X64850001Y-48960000D01*
X64199999Y-48960000D01*
X64175495Y-48958796D01*
X64151227Y-48955196D01*
X64127428Y-48949235D01*
X64104329Y-48940970D01*
X64082150Y-48930480D01*
X64061107Y-48917868D01*
X64041401Y-48903253D01*
X64023223Y-48886777D01*
X64006747Y-48868599D01*
X63992132Y-48848893D01*
X63979520Y-48827850D01*
X63969030Y-48805671D01*
X63960765Y-48782572D01*
X63954804Y-48758773D01*
X63951204Y-48734505D01*
X63950000Y-48710001D01*
X63950000Y-47809999D01*
X63951204Y-47785495D01*
X63954804Y-47761227D01*
X63960765Y-47737428D01*
X63969030Y-47714329D01*
X63979520Y-47692150D01*
X63992132Y-47671107D01*
X64006747Y-47651401D01*
X64023223Y-47633223D01*
X64041401Y-47616747D01*
X64061107Y-47602132D01*
X64082150Y-47589520D01*
X64104329Y-47579030D01*
X64127428Y-47570765D01*
X64151227Y-47564804D01*
X64175495Y-47561204D01*
X64199999Y-47560000D01*
X64850001Y-47560000D01*
X64874505Y-47561204D01*
G37*
G36*
X64883505Y-79311204D02*
G01*
X64907773Y-79314804D01*
X64931572Y-79320765D01*
X64954671Y-79329030D01*
X64976850Y-79339520D01*
X64997893Y-79352132D01*
X65017599Y-79366747D01*
X65035777Y-79383223D01*
X65052253Y-79401401D01*
X65066868Y-79421107D01*
X65079480Y-79442150D01*
X65089970Y-79464329D01*
X65098235Y-79487428D01*
X65104196Y-79511227D01*
X65107796Y-79535495D01*
X65109000Y-79559999D01*
X65109000Y-80460001D01*
X65107796Y-80484505D01*
X65104196Y-80508773D01*
X65098235Y-80532572D01*
X65089970Y-80555671D01*
X65079480Y-80577850D01*
X65066868Y-80598893D01*
X65052253Y-80618599D01*
X65035777Y-80636777D01*
X65017599Y-80653253D01*
X64997893Y-80667868D01*
X64976850Y-80680480D01*
X64954671Y-80690970D01*
X64931572Y-80699235D01*
X64907773Y-80705196D01*
X64883505Y-80708796D01*
X64859001Y-80710000D01*
X64208999Y-80710000D01*
X64184495Y-80708796D01*
X64160227Y-80705196D01*
X64136428Y-80699235D01*
X64113329Y-80690970D01*
X64091150Y-80680480D01*
X64070107Y-80667868D01*
X64050401Y-80653253D01*
X64032223Y-80636777D01*
X64015747Y-80618599D01*
X64001132Y-80598893D01*
X63988520Y-80577850D01*
X63978030Y-80555671D01*
X63969765Y-80532572D01*
X63963804Y-80508773D01*
X63960204Y-80484505D01*
X63959000Y-80460001D01*
X63959000Y-79559999D01*
X63960204Y-79535495D01*
X63963804Y-79511227D01*
X63969765Y-79487428D01*
X63978030Y-79464329D01*
X63988520Y-79442150D01*
X64001132Y-79421107D01*
X64015747Y-79401401D01*
X64032223Y-79383223D01*
X64050401Y-79366747D01*
X64070107Y-79352132D01*
X64091150Y-79339520D01*
X64113329Y-79329030D01*
X64136428Y-79320765D01*
X64160227Y-79314804D01*
X64184495Y-79311204D01*
X64208999Y-79310000D01*
X64859001Y-79310000D01*
X64883505Y-79311204D01*
G37*
G36*
X62833505Y-79311204D02*
G01*
X62857773Y-79314804D01*
X62881572Y-79320765D01*
X62904671Y-79329030D01*
X62926850Y-79339520D01*
X62947893Y-79352132D01*
X62967599Y-79366747D01*
X62985777Y-79383223D01*
X63002253Y-79401401D01*
X63016868Y-79421107D01*
X63029480Y-79442150D01*
X63039970Y-79464329D01*
X63048235Y-79487428D01*
X63054196Y-79511227D01*
X63057796Y-79535495D01*
X63059000Y-79559999D01*
X63059000Y-80460001D01*
X63057796Y-80484505D01*
X63054196Y-80508773D01*
X63048235Y-80532572D01*
X63039970Y-80555671D01*
X63029480Y-80577850D01*
X63016868Y-80598893D01*
X63002253Y-80618599D01*
X62985777Y-80636777D01*
X62967599Y-80653253D01*
X62947893Y-80667868D01*
X62926850Y-80680480D01*
X62904671Y-80690970D01*
X62881572Y-80699235D01*
X62857773Y-80705196D01*
X62833505Y-80708796D01*
X62809001Y-80710000D01*
X62158999Y-80710000D01*
X62134495Y-80708796D01*
X62110227Y-80705196D01*
X62086428Y-80699235D01*
X62063329Y-80690970D01*
X62041150Y-80680480D01*
X62020107Y-80667868D01*
X62000401Y-80653253D01*
X61982223Y-80636777D01*
X61965747Y-80618599D01*
X61951132Y-80598893D01*
X61938520Y-80577850D01*
X61928030Y-80555671D01*
X61919765Y-80532572D01*
X61913804Y-80508773D01*
X61910204Y-80484505D01*
X61909000Y-80460001D01*
X61909000Y-79559999D01*
X61910204Y-79535495D01*
X61913804Y-79511227D01*
X61919765Y-79487428D01*
X61928030Y-79464329D01*
X61938520Y-79442150D01*
X61951132Y-79421107D01*
X61965747Y-79401401D01*
X61982223Y-79383223D01*
X62000401Y-79366747D01*
X62020107Y-79352132D01*
X62041150Y-79339520D01*
X62063329Y-79329030D01*
X62086428Y-79320765D01*
X62110227Y-79314804D01*
X62134495Y-79311204D01*
X62158999Y-79310000D01*
X62809001Y-79310000D01*
X62833505Y-79311204D01*
G37*
D11*
X83386000Y-76311000D03*
X88886000Y-76311000D03*
D14*
X90991000Y-69326000D03*
X97791000Y-69326000D03*
D11*
X71926000Y-77470000D03*
X77426000Y-77470000D03*
X81481000Y-69961000D03*
X86981000Y-69961000D03*
D15*
X45958000Y-66990000D03*
X45958000Y-65090000D03*
X43958000Y-66040000D03*
X63738000Y-75692000D03*
X61738000Y-76642000D03*
X61738000Y-74742000D03*
D16*
X91091000Y-52819000D03*
X92991000Y-52819000D03*
X92041000Y-50819000D03*
X98074000Y-61722000D03*
X99024000Y-63722000D03*
X97124000Y-63722000D03*
D10*
G36*
X50235779Y-49818144D02*
G01*
X50258834Y-49821563D01*
X50281443Y-49827227D01*
X50303387Y-49835079D01*
X50324457Y-49845044D01*
X50344448Y-49857026D01*
X50363168Y-49870910D01*
X50380438Y-49886562D01*
X50396090Y-49903832D01*
X50409974Y-49922552D01*
X50421956Y-49942543D01*
X50431921Y-49963613D01*
X50439773Y-49985557D01*
X50445437Y-50008166D01*
X50448856Y-50031221D01*
X50450000Y-50054500D01*
X50450000Y-50529500D01*
X50448856Y-50552779D01*
X50445437Y-50575834D01*
X50439773Y-50598443D01*
X50431921Y-50620387D01*
X50421956Y-50641457D01*
X50409974Y-50661448D01*
X50396090Y-50680168D01*
X50380438Y-50697438D01*
X50363168Y-50713090D01*
X50344448Y-50726974D01*
X50324457Y-50738956D01*
X50303387Y-50748921D01*
X50281443Y-50756773D01*
X50258834Y-50762437D01*
X50235779Y-50765856D01*
X50212500Y-50767000D01*
X49637500Y-50767000D01*
X49614221Y-50765856D01*
X49591166Y-50762437D01*
X49568557Y-50756773D01*
X49546613Y-50748921D01*
X49525543Y-50738956D01*
X49505552Y-50726974D01*
X49486832Y-50713090D01*
X49469562Y-50697438D01*
X49453910Y-50680168D01*
X49440026Y-50661448D01*
X49428044Y-50641457D01*
X49418079Y-50620387D01*
X49410227Y-50598443D01*
X49404563Y-50575834D01*
X49401144Y-50552779D01*
X49400000Y-50529500D01*
X49400000Y-50054500D01*
X49401144Y-50031221D01*
X49404563Y-50008166D01*
X49410227Y-49985557D01*
X49418079Y-49963613D01*
X49428044Y-49942543D01*
X49440026Y-49922552D01*
X49453910Y-49903832D01*
X49469562Y-49886562D01*
X49486832Y-49870910D01*
X49505552Y-49857026D01*
X49525543Y-49845044D01*
X49546613Y-49835079D01*
X49568557Y-49827227D01*
X49591166Y-49821563D01*
X49614221Y-49818144D01*
X49637500Y-49817000D01*
X50212500Y-49817000D01*
X50235779Y-49818144D01*
G37*
G36*
X51985779Y-49818144D02*
G01*
X52008834Y-49821563D01*
X52031443Y-49827227D01*
X52053387Y-49835079D01*
X52074457Y-49845044D01*
X52094448Y-49857026D01*
X52113168Y-49870910D01*
X52130438Y-49886562D01*
X52146090Y-49903832D01*
X52159974Y-49922552D01*
X52171956Y-49942543D01*
X52181921Y-49963613D01*
X52189773Y-49985557D01*
X52195437Y-50008166D01*
X52198856Y-50031221D01*
X52200000Y-50054500D01*
X52200000Y-50529500D01*
X52198856Y-50552779D01*
X52195437Y-50575834D01*
X52189773Y-50598443D01*
X52181921Y-50620387D01*
X52171956Y-50641457D01*
X52159974Y-50661448D01*
X52146090Y-50680168D01*
X52130438Y-50697438D01*
X52113168Y-50713090D01*
X52094448Y-50726974D01*
X52074457Y-50738956D01*
X52053387Y-50748921D01*
X52031443Y-50756773D01*
X52008834Y-50762437D01*
X51985779Y-50765856D01*
X51962500Y-50767000D01*
X51387500Y-50767000D01*
X51364221Y-50765856D01*
X51341166Y-50762437D01*
X51318557Y-50756773D01*
X51296613Y-50748921D01*
X51275543Y-50738956D01*
X51255552Y-50726974D01*
X51236832Y-50713090D01*
X51219562Y-50697438D01*
X51203910Y-50680168D01*
X51190026Y-50661448D01*
X51178044Y-50641457D01*
X51168079Y-50620387D01*
X51160227Y-50598443D01*
X51154563Y-50575834D01*
X51151144Y-50552779D01*
X51150000Y-50529500D01*
X51150000Y-50054500D01*
X51151144Y-50031221D01*
X51154563Y-50008166D01*
X51160227Y-49985557D01*
X51168079Y-49963613D01*
X51178044Y-49942543D01*
X51190026Y-49922552D01*
X51203910Y-49903832D01*
X51219562Y-49886562D01*
X51236832Y-49870910D01*
X51255552Y-49857026D01*
X51275543Y-49845044D01*
X51296613Y-49835079D01*
X51318557Y-49827227D01*
X51341166Y-49821563D01*
X51364221Y-49818144D01*
X51387500Y-49817000D01*
X51962500Y-49817000D01*
X51985779Y-49818144D01*
G37*
G36*
X50235779Y-51342144D02*
G01*
X50258834Y-51345563D01*
X50281443Y-51351227D01*
X50303387Y-51359079D01*
X50324457Y-51369044D01*
X50344448Y-51381026D01*
X50363168Y-51394910D01*
X50380438Y-51410562D01*
X50396090Y-51427832D01*
X50409974Y-51446552D01*
X50421956Y-51466543D01*
X50431921Y-51487613D01*
X50439773Y-51509557D01*
X50445437Y-51532166D01*
X50448856Y-51555221D01*
X50450000Y-51578500D01*
X50450000Y-52053500D01*
X50448856Y-52076779D01*
X50445437Y-52099834D01*
X50439773Y-52122443D01*
X50431921Y-52144387D01*
X50421956Y-52165457D01*
X50409974Y-52185448D01*
X50396090Y-52204168D01*
X50380438Y-52221438D01*
X50363168Y-52237090D01*
X50344448Y-52250974D01*
X50324457Y-52262956D01*
X50303387Y-52272921D01*
X50281443Y-52280773D01*
X50258834Y-52286437D01*
X50235779Y-52289856D01*
X50212500Y-52291000D01*
X49637500Y-52291000D01*
X49614221Y-52289856D01*
X49591166Y-52286437D01*
X49568557Y-52280773D01*
X49546613Y-52272921D01*
X49525543Y-52262956D01*
X49505552Y-52250974D01*
X49486832Y-52237090D01*
X49469562Y-52221438D01*
X49453910Y-52204168D01*
X49440026Y-52185448D01*
X49428044Y-52165457D01*
X49418079Y-52144387D01*
X49410227Y-52122443D01*
X49404563Y-52099834D01*
X49401144Y-52076779D01*
X49400000Y-52053500D01*
X49400000Y-51578500D01*
X49401144Y-51555221D01*
X49404563Y-51532166D01*
X49410227Y-51509557D01*
X49418079Y-51487613D01*
X49428044Y-51466543D01*
X49440026Y-51446552D01*
X49453910Y-51427832D01*
X49469562Y-51410562D01*
X49486832Y-51394910D01*
X49505552Y-51381026D01*
X49525543Y-51369044D01*
X49546613Y-51359079D01*
X49568557Y-51351227D01*
X49591166Y-51345563D01*
X49614221Y-51342144D01*
X49637500Y-51341000D01*
X50212500Y-51341000D01*
X50235779Y-51342144D01*
G37*
G36*
X51985779Y-51342144D02*
G01*
X52008834Y-51345563D01*
X52031443Y-51351227D01*
X52053387Y-51359079D01*
X52074457Y-51369044D01*
X52094448Y-51381026D01*
X52113168Y-51394910D01*
X52130438Y-51410562D01*
X52146090Y-51427832D01*
X52159974Y-51446552D01*
X52171956Y-51466543D01*
X52181921Y-51487613D01*
X52189773Y-51509557D01*
X52195437Y-51532166D01*
X52198856Y-51555221D01*
X52200000Y-51578500D01*
X52200000Y-52053500D01*
X52198856Y-52076779D01*
X52195437Y-52099834D01*
X52189773Y-52122443D01*
X52181921Y-52144387D01*
X52171956Y-52165457D01*
X52159974Y-52185448D01*
X52146090Y-52204168D01*
X52130438Y-52221438D01*
X52113168Y-52237090D01*
X52094448Y-52250974D01*
X52074457Y-52262956D01*
X52053387Y-52272921D01*
X52031443Y-52280773D01*
X52008834Y-52286437D01*
X51985779Y-52289856D01*
X51962500Y-52291000D01*
X51387500Y-52291000D01*
X51364221Y-52289856D01*
X51341166Y-52286437D01*
X51318557Y-52280773D01*
X51296613Y-52272921D01*
X51275543Y-52262956D01*
X51255552Y-52250974D01*
X51236832Y-52237090D01*
X51219562Y-52221438D01*
X51203910Y-52204168D01*
X51190026Y-52185448D01*
X51178044Y-52165457D01*
X51168079Y-52144387D01*
X51160227Y-52122443D01*
X51154563Y-52099834D01*
X51151144Y-52076779D01*
X51150000Y-52053500D01*
X51150000Y-51578500D01*
X51151144Y-51555221D01*
X51154563Y-51532166D01*
X51160227Y-51509557D01*
X51168079Y-51487613D01*
X51178044Y-51466543D01*
X51190026Y-51446552D01*
X51203910Y-51427832D01*
X51219562Y-51410562D01*
X51236832Y-51394910D01*
X51255552Y-51381026D01*
X51275543Y-51369044D01*
X51296613Y-51359079D01*
X51318557Y-51351227D01*
X51341166Y-51345563D01*
X51364221Y-51342144D01*
X51387500Y-51341000D01*
X51962500Y-51341000D01*
X51985779Y-51342144D01*
G37*
G36*
X48012779Y-66391144D02*
G01*
X48035834Y-66394563D01*
X48058443Y-66400227D01*
X48080387Y-66408079D01*
X48101457Y-66418044D01*
X48121448Y-66430026D01*
X48140168Y-66443910D01*
X48157438Y-66459562D01*
X48173090Y-66476832D01*
X48186974Y-66495552D01*
X48198956Y-66515543D01*
X48208921Y-66536613D01*
X48216773Y-66558557D01*
X48222437Y-66581166D01*
X48225856Y-66604221D01*
X48227000Y-66627500D01*
X48227000Y-67202500D01*
X48225856Y-67225779D01*
X48222437Y-67248834D01*
X48216773Y-67271443D01*
X48208921Y-67293387D01*
X48198956Y-67314457D01*
X48186974Y-67334448D01*
X48173090Y-67353168D01*
X48157438Y-67370438D01*
X48140168Y-67386090D01*
X48121448Y-67399974D01*
X48101457Y-67411956D01*
X48080387Y-67421921D01*
X48058443Y-67429773D01*
X48035834Y-67435437D01*
X48012779Y-67438856D01*
X47989500Y-67440000D01*
X47514500Y-67440000D01*
X47491221Y-67438856D01*
X47468166Y-67435437D01*
X47445557Y-67429773D01*
X47423613Y-67421921D01*
X47402543Y-67411956D01*
X47382552Y-67399974D01*
X47363832Y-67386090D01*
X47346562Y-67370438D01*
X47330910Y-67353168D01*
X47317026Y-67334448D01*
X47305044Y-67314457D01*
X47295079Y-67293387D01*
X47287227Y-67271443D01*
X47281563Y-67248834D01*
X47278144Y-67225779D01*
X47277000Y-67202500D01*
X47277000Y-66627500D01*
X47278144Y-66604221D01*
X47281563Y-66581166D01*
X47287227Y-66558557D01*
X47295079Y-66536613D01*
X47305044Y-66515543D01*
X47317026Y-66495552D01*
X47330910Y-66476832D01*
X47346562Y-66459562D01*
X47363832Y-66443910D01*
X47382552Y-66430026D01*
X47402543Y-66418044D01*
X47423613Y-66408079D01*
X47445557Y-66400227D01*
X47468166Y-66394563D01*
X47491221Y-66391144D01*
X47514500Y-66390000D01*
X47989500Y-66390000D01*
X48012779Y-66391144D01*
G37*
G36*
X48012779Y-64641144D02*
G01*
X48035834Y-64644563D01*
X48058443Y-64650227D01*
X48080387Y-64658079D01*
X48101457Y-64668044D01*
X48121448Y-64680026D01*
X48140168Y-64693910D01*
X48157438Y-64709562D01*
X48173090Y-64726832D01*
X48186974Y-64745552D01*
X48198956Y-64765543D01*
X48208921Y-64786613D01*
X48216773Y-64808557D01*
X48222437Y-64831166D01*
X48225856Y-64854221D01*
X48227000Y-64877500D01*
X48227000Y-65452500D01*
X48225856Y-65475779D01*
X48222437Y-65498834D01*
X48216773Y-65521443D01*
X48208921Y-65543387D01*
X48198956Y-65564457D01*
X48186974Y-65584448D01*
X48173090Y-65603168D01*
X48157438Y-65620438D01*
X48140168Y-65636090D01*
X48121448Y-65649974D01*
X48101457Y-65661956D01*
X48080387Y-65671921D01*
X48058443Y-65679773D01*
X48035834Y-65685437D01*
X48012779Y-65688856D01*
X47989500Y-65690000D01*
X47514500Y-65690000D01*
X47491221Y-65688856D01*
X47468166Y-65685437D01*
X47445557Y-65679773D01*
X47423613Y-65671921D01*
X47402543Y-65661956D01*
X47382552Y-65649974D01*
X47363832Y-65636090D01*
X47346562Y-65620438D01*
X47330910Y-65603168D01*
X47317026Y-65584448D01*
X47305044Y-65564457D01*
X47295079Y-65543387D01*
X47287227Y-65521443D01*
X47281563Y-65498834D01*
X47278144Y-65475779D01*
X47277000Y-65452500D01*
X47277000Y-64877500D01*
X47278144Y-64854221D01*
X47281563Y-64831166D01*
X47287227Y-64808557D01*
X47295079Y-64786613D01*
X47305044Y-64765543D01*
X47317026Y-64745552D01*
X47330910Y-64726832D01*
X47346562Y-64709562D01*
X47363832Y-64693910D01*
X47382552Y-64680026D01*
X47402543Y-64668044D01*
X47423613Y-64658079D01*
X47445557Y-64650227D01*
X47468166Y-64644563D01*
X47491221Y-64641144D01*
X47514500Y-64640000D01*
X47989500Y-64640000D01*
X48012779Y-64641144D01*
G37*
G36*
X58617779Y-47786144D02*
G01*
X58640834Y-47789563D01*
X58663443Y-47795227D01*
X58685387Y-47803079D01*
X58706457Y-47813044D01*
X58726448Y-47825026D01*
X58745168Y-47838910D01*
X58762438Y-47854562D01*
X58778090Y-47871832D01*
X58791974Y-47890552D01*
X58803956Y-47910543D01*
X58813921Y-47931613D01*
X58821773Y-47953557D01*
X58827437Y-47976166D01*
X58830856Y-47999221D01*
X58832000Y-48022500D01*
X58832000Y-48497500D01*
X58830856Y-48520779D01*
X58827437Y-48543834D01*
X58821773Y-48566443D01*
X58813921Y-48588387D01*
X58803956Y-48609457D01*
X58791974Y-48629448D01*
X58778090Y-48648168D01*
X58762438Y-48665438D01*
X58745168Y-48681090D01*
X58726448Y-48694974D01*
X58706457Y-48706956D01*
X58685387Y-48716921D01*
X58663443Y-48724773D01*
X58640834Y-48730437D01*
X58617779Y-48733856D01*
X58594500Y-48735000D01*
X58019500Y-48735000D01*
X57996221Y-48733856D01*
X57973166Y-48730437D01*
X57950557Y-48724773D01*
X57928613Y-48716921D01*
X57907543Y-48706956D01*
X57887552Y-48694974D01*
X57868832Y-48681090D01*
X57851562Y-48665438D01*
X57835910Y-48648168D01*
X57822026Y-48629448D01*
X57810044Y-48609457D01*
X57800079Y-48588387D01*
X57792227Y-48566443D01*
X57786563Y-48543834D01*
X57783144Y-48520779D01*
X57782000Y-48497500D01*
X57782000Y-48022500D01*
X57783144Y-47999221D01*
X57786563Y-47976166D01*
X57792227Y-47953557D01*
X57800079Y-47931613D01*
X57810044Y-47910543D01*
X57822026Y-47890552D01*
X57835910Y-47871832D01*
X57851562Y-47854562D01*
X57868832Y-47838910D01*
X57887552Y-47825026D01*
X57907543Y-47813044D01*
X57928613Y-47803079D01*
X57950557Y-47795227D01*
X57973166Y-47789563D01*
X57996221Y-47786144D01*
X58019500Y-47785000D01*
X58594500Y-47785000D01*
X58617779Y-47786144D01*
G37*
G36*
X60367779Y-47786144D02*
G01*
X60390834Y-47789563D01*
X60413443Y-47795227D01*
X60435387Y-47803079D01*
X60456457Y-47813044D01*
X60476448Y-47825026D01*
X60495168Y-47838910D01*
X60512438Y-47854562D01*
X60528090Y-47871832D01*
X60541974Y-47890552D01*
X60553956Y-47910543D01*
X60563921Y-47931613D01*
X60571773Y-47953557D01*
X60577437Y-47976166D01*
X60580856Y-47999221D01*
X60582000Y-48022500D01*
X60582000Y-48497500D01*
X60580856Y-48520779D01*
X60577437Y-48543834D01*
X60571773Y-48566443D01*
X60563921Y-48588387D01*
X60553956Y-48609457D01*
X60541974Y-48629448D01*
X60528090Y-48648168D01*
X60512438Y-48665438D01*
X60495168Y-48681090D01*
X60476448Y-48694974D01*
X60456457Y-48706956D01*
X60435387Y-48716921D01*
X60413443Y-48724773D01*
X60390834Y-48730437D01*
X60367779Y-48733856D01*
X60344500Y-48735000D01*
X59769500Y-48735000D01*
X59746221Y-48733856D01*
X59723166Y-48730437D01*
X59700557Y-48724773D01*
X59678613Y-48716921D01*
X59657543Y-48706956D01*
X59637552Y-48694974D01*
X59618832Y-48681090D01*
X59601562Y-48665438D01*
X59585910Y-48648168D01*
X59572026Y-48629448D01*
X59560044Y-48609457D01*
X59550079Y-48588387D01*
X59542227Y-48566443D01*
X59536563Y-48543834D01*
X59533144Y-48520779D01*
X59532000Y-48497500D01*
X59532000Y-48022500D01*
X59533144Y-47999221D01*
X59536563Y-47976166D01*
X59542227Y-47953557D01*
X59550079Y-47931613D01*
X59560044Y-47910543D01*
X59572026Y-47890552D01*
X59585910Y-47871832D01*
X59601562Y-47854562D01*
X59618832Y-47838910D01*
X59637552Y-47825026D01*
X59657543Y-47813044D01*
X59678613Y-47803079D01*
X59700557Y-47795227D01*
X59723166Y-47789563D01*
X59746221Y-47786144D01*
X59769500Y-47785000D01*
X60344500Y-47785000D01*
X60367779Y-47786144D01*
G37*
G36*
X46284779Y-68106144D02*
G01*
X46307834Y-68109563D01*
X46330443Y-68115227D01*
X46352387Y-68123079D01*
X46373457Y-68133044D01*
X46393448Y-68145026D01*
X46412168Y-68158910D01*
X46429438Y-68174562D01*
X46445090Y-68191832D01*
X46458974Y-68210552D01*
X46470956Y-68230543D01*
X46480921Y-68251613D01*
X46488773Y-68273557D01*
X46494437Y-68296166D01*
X46497856Y-68319221D01*
X46499000Y-68342500D01*
X46499000Y-68817500D01*
X46497856Y-68840779D01*
X46494437Y-68863834D01*
X46488773Y-68886443D01*
X46480921Y-68908387D01*
X46470956Y-68929457D01*
X46458974Y-68949448D01*
X46445090Y-68968168D01*
X46429438Y-68985438D01*
X46412168Y-69001090D01*
X46393448Y-69014974D01*
X46373457Y-69026956D01*
X46352387Y-69036921D01*
X46330443Y-69044773D01*
X46307834Y-69050437D01*
X46284779Y-69053856D01*
X46261500Y-69055000D01*
X45686500Y-69055000D01*
X45663221Y-69053856D01*
X45640166Y-69050437D01*
X45617557Y-69044773D01*
X45595613Y-69036921D01*
X45574543Y-69026956D01*
X45554552Y-69014974D01*
X45535832Y-69001090D01*
X45518562Y-68985438D01*
X45502910Y-68968168D01*
X45489026Y-68949448D01*
X45477044Y-68929457D01*
X45467079Y-68908387D01*
X45459227Y-68886443D01*
X45453563Y-68863834D01*
X45450144Y-68840779D01*
X45449000Y-68817500D01*
X45449000Y-68342500D01*
X45450144Y-68319221D01*
X45453563Y-68296166D01*
X45459227Y-68273557D01*
X45467079Y-68251613D01*
X45477044Y-68230543D01*
X45489026Y-68210552D01*
X45502910Y-68191832D01*
X45518562Y-68174562D01*
X45535832Y-68158910D01*
X45554552Y-68145026D01*
X45574543Y-68133044D01*
X45595613Y-68123079D01*
X45617557Y-68115227D01*
X45640166Y-68109563D01*
X45663221Y-68106144D01*
X45686500Y-68105000D01*
X46261500Y-68105000D01*
X46284779Y-68106144D01*
G37*
G36*
X48034779Y-68106144D02*
G01*
X48057834Y-68109563D01*
X48080443Y-68115227D01*
X48102387Y-68123079D01*
X48123457Y-68133044D01*
X48143448Y-68145026D01*
X48162168Y-68158910D01*
X48179438Y-68174562D01*
X48195090Y-68191832D01*
X48208974Y-68210552D01*
X48220956Y-68230543D01*
X48230921Y-68251613D01*
X48238773Y-68273557D01*
X48244437Y-68296166D01*
X48247856Y-68319221D01*
X48249000Y-68342500D01*
X48249000Y-68817500D01*
X48247856Y-68840779D01*
X48244437Y-68863834D01*
X48238773Y-68886443D01*
X48230921Y-68908387D01*
X48220956Y-68929457D01*
X48208974Y-68949448D01*
X48195090Y-68968168D01*
X48179438Y-68985438D01*
X48162168Y-69001090D01*
X48143448Y-69014974D01*
X48123457Y-69026956D01*
X48102387Y-69036921D01*
X48080443Y-69044773D01*
X48057834Y-69050437D01*
X48034779Y-69053856D01*
X48011500Y-69055000D01*
X47436500Y-69055000D01*
X47413221Y-69053856D01*
X47390166Y-69050437D01*
X47367557Y-69044773D01*
X47345613Y-69036921D01*
X47324543Y-69026956D01*
X47304552Y-69014974D01*
X47285832Y-69001090D01*
X47268562Y-68985438D01*
X47252910Y-68968168D01*
X47239026Y-68949448D01*
X47227044Y-68929457D01*
X47217079Y-68908387D01*
X47209227Y-68886443D01*
X47203563Y-68863834D01*
X47200144Y-68840779D01*
X47199000Y-68817500D01*
X47199000Y-68342500D01*
X47200144Y-68319221D01*
X47203563Y-68296166D01*
X47209227Y-68273557D01*
X47217079Y-68251613D01*
X47227044Y-68230543D01*
X47239026Y-68210552D01*
X47252910Y-68191832D01*
X47268562Y-68174562D01*
X47285832Y-68158910D01*
X47304552Y-68145026D01*
X47324543Y-68133044D01*
X47345613Y-68123079D01*
X47367557Y-68115227D01*
X47390166Y-68109563D01*
X47413221Y-68106144D01*
X47436500Y-68105000D01*
X48011500Y-68105000D01*
X48034779Y-68106144D01*
G37*
G36*
X45917779Y-72170144D02*
G01*
X45940834Y-72173563D01*
X45963443Y-72179227D01*
X45985387Y-72187079D01*
X46006457Y-72197044D01*
X46026448Y-72209026D01*
X46045168Y-72222910D01*
X46062438Y-72238562D01*
X46078090Y-72255832D01*
X46091974Y-72274552D01*
X46103956Y-72294543D01*
X46113921Y-72315613D01*
X46121773Y-72337557D01*
X46127437Y-72360166D01*
X46130856Y-72383221D01*
X46132000Y-72406500D01*
X46132000Y-72881500D01*
X46130856Y-72904779D01*
X46127437Y-72927834D01*
X46121773Y-72950443D01*
X46113921Y-72972387D01*
X46103956Y-72993457D01*
X46091974Y-73013448D01*
X46078090Y-73032168D01*
X46062438Y-73049438D01*
X46045168Y-73065090D01*
X46026448Y-73078974D01*
X46006457Y-73090956D01*
X45985387Y-73100921D01*
X45963443Y-73108773D01*
X45940834Y-73114437D01*
X45917779Y-73117856D01*
X45894500Y-73119000D01*
X45319500Y-73119000D01*
X45296221Y-73117856D01*
X45273166Y-73114437D01*
X45250557Y-73108773D01*
X45228613Y-73100921D01*
X45207543Y-73090956D01*
X45187552Y-73078974D01*
X45168832Y-73065090D01*
X45151562Y-73049438D01*
X45135910Y-73032168D01*
X45122026Y-73013448D01*
X45110044Y-72993457D01*
X45100079Y-72972387D01*
X45092227Y-72950443D01*
X45086563Y-72927834D01*
X45083144Y-72904779D01*
X45082000Y-72881500D01*
X45082000Y-72406500D01*
X45083144Y-72383221D01*
X45086563Y-72360166D01*
X45092227Y-72337557D01*
X45100079Y-72315613D01*
X45110044Y-72294543D01*
X45122026Y-72274552D01*
X45135910Y-72255832D01*
X45151562Y-72238562D01*
X45168832Y-72222910D01*
X45187552Y-72209026D01*
X45207543Y-72197044D01*
X45228613Y-72187079D01*
X45250557Y-72179227D01*
X45273166Y-72173563D01*
X45296221Y-72170144D01*
X45319500Y-72169000D01*
X45894500Y-72169000D01*
X45917779Y-72170144D01*
G37*
G36*
X47667779Y-72170144D02*
G01*
X47690834Y-72173563D01*
X47713443Y-72179227D01*
X47735387Y-72187079D01*
X47756457Y-72197044D01*
X47776448Y-72209026D01*
X47795168Y-72222910D01*
X47812438Y-72238562D01*
X47828090Y-72255832D01*
X47841974Y-72274552D01*
X47853956Y-72294543D01*
X47863921Y-72315613D01*
X47871773Y-72337557D01*
X47877437Y-72360166D01*
X47880856Y-72383221D01*
X47882000Y-72406500D01*
X47882000Y-72881500D01*
X47880856Y-72904779D01*
X47877437Y-72927834D01*
X47871773Y-72950443D01*
X47863921Y-72972387D01*
X47853956Y-72993457D01*
X47841974Y-73013448D01*
X47828090Y-73032168D01*
X47812438Y-73049438D01*
X47795168Y-73065090D01*
X47776448Y-73078974D01*
X47756457Y-73090956D01*
X47735387Y-73100921D01*
X47713443Y-73108773D01*
X47690834Y-73114437D01*
X47667779Y-73117856D01*
X47644500Y-73119000D01*
X47069500Y-73119000D01*
X47046221Y-73117856D01*
X47023166Y-73114437D01*
X47000557Y-73108773D01*
X46978613Y-73100921D01*
X46957543Y-73090956D01*
X46937552Y-73078974D01*
X46918832Y-73065090D01*
X46901562Y-73049438D01*
X46885910Y-73032168D01*
X46872026Y-73013448D01*
X46860044Y-72993457D01*
X46850079Y-72972387D01*
X46842227Y-72950443D01*
X46836563Y-72927834D01*
X46833144Y-72904779D01*
X46832000Y-72881500D01*
X46832000Y-72406500D01*
X46833144Y-72383221D01*
X46836563Y-72360166D01*
X46842227Y-72337557D01*
X46850079Y-72315613D01*
X46860044Y-72294543D01*
X46872026Y-72274552D01*
X46885910Y-72255832D01*
X46901562Y-72238562D01*
X46918832Y-72222910D01*
X46937552Y-72209026D01*
X46957543Y-72197044D01*
X46978613Y-72187079D01*
X47000557Y-72179227D01*
X47023166Y-72173563D01*
X47046221Y-72170144D01*
X47069500Y-72169000D01*
X47644500Y-72169000D01*
X47667779Y-72170144D01*
G37*
G36*
X60367779Y-78012144D02*
G01*
X60390834Y-78015563D01*
X60413443Y-78021227D01*
X60435387Y-78029079D01*
X60456457Y-78039044D01*
X60476448Y-78051026D01*
X60495168Y-78064910D01*
X60512438Y-78080562D01*
X60528090Y-78097832D01*
X60541974Y-78116552D01*
X60553956Y-78136543D01*
X60563921Y-78157613D01*
X60571773Y-78179557D01*
X60577437Y-78202166D01*
X60580856Y-78225221D01*
X60582000Y-78248500D01*
X60582000Y-78723500D01*
X60580856Y-78746779D01*
X60577437Y-78769834D01*
X60571773Y-78792443D01*
X60563921Y-78814387D01*
X60553956Y-78835457D01*
X60541974Y-78855448D01*
X60528090Y-78874168D01*
X60512438Y-78891438D01*
X60495168Y-78907090D01*
X60476448Y-78920974D01*
X60456457Y-78932956D01*
X60435387Y-78942921D01*
X60413443Y-78950773D01*
X60390834Y-78956437D01*
X60367779Y-78959856D01*
X60344500Y-78961000D01*
X59769500Y-78961000D01*
X59746221Y-78959856D01*
X59723166Y-78956437D01*
X59700557Y-78950773D01*
X59678613Y-78942921D01*
X59657543Y-78932956D01*
X59637552Y-78920974D01*
X59618832Y-78907090D01*
X59601562Y-78891438D01*
X59585910Y-78874168D01*
X59572026Y-78855448D01*
X59560044Y-78835457D01*
X59550079Y-78814387D01*
X59542227Y-78792443D01*
X59536563Y-78769834D01*
X59533144Y-78746779D01*
X59532000Y-78723500D01*
X59532000Y-78248500D01*
X59533144Y-78225221D01*
X59536563Y-78202166D01*
X59542227Y-78179557D01*
X59550079Y-78157613D01*
X59560044Y-78136543D01*
X59572026Y-78116552D01*
X59585910Y-78097832D01*
X59601562Y-78080562D01*
X59618832Y-78064910D01*
X59637552Y-78051026D01*
X59657543Y-78039044D01*
X59678613Y-78029079D01*
X59700557Y-78021227D01*
X59723166Y-78015563D01*
X59746221Y-78012144D01*
X59769500Y-78011000D01*
X60344500Y-78011000D01*
X60367779Y-78012144D01*
G37*
G36*
X58617779Y-78012144D02*
G01*
X58640834Y-78015563D01*
X58663443Y-78021227D01*
X58685387Y-78029079D01*
X58706457Y-78039044D01*
X58726448Y-78051026D01*
X58745168Y-78064910D01*
X58762438Y-78080562D01*
X58778090Y-78097832D01*
X58791974Y-78116552D01*
X58803956Y-78136543D01*
X58813921Y-78157613D01*
X58821773Y-78179557D01*
X58827437Y-78202166D01*
X58830856Y-78225221D01*
X58832000Y-78248500D01*
X58832000Y-78723500D01*
X58830856Y-78746779D01*
X58827437Y-78769834D01*
X58821773Y-78792443D01*
X58813921Y-78814387D01*
X58803956Y-78835457D01*
X58791974Y-78855448D01*
X58778090Y-78874168D01*
X58762438Y-78891438D01*
X58745168Y-78907090D01*
X58726448Y-78920974D01*
X58706457Y-78932956D01*
X58685387Y-78942921D01*
X58663443Y-78950773D01*
X58640834Y-78956437D01*
X58617779Y-78959856D01*
X58594500Y-78961000D01*
X58019500Y-78961000D01*
X57996221Y-78959856D01*
X57973166Y-78956437D01*
X57950557Y-78950773D01*
X57928613Y-78942921D01*
X57907543Y-78932956D01*
X57887552Y-78920974D01*
X57868832Y-78907090D01*
X57851562Y-78891438D01*
X57835910Y-78874168D01*
X57822026Y-78855448D01*
X57810044Y-78835457D01*
X57800079Y-78814387D01*
X57792227Y-78792443D01*
X57786563Y-78769834D01*
X57783144Y-78746779D01*
X57782000Y-78723500D01*
X57782000Y-78248500D01*
X57783144Y-78225221D01*
X57786563Y-78202166D01*
X57792227Y-78179557D01*
X57800079Y-78157613D01*
X57810044Y-78136543D01*
X57822026Y-78116552D01*
X57835910Y-78097832D01*
X57851562Y-78080562D01*
X57868832Y-78064910D01*
X57887552Y-78051026D01*
X57907543Y-78039044D01*
X57928613Y-78029079D01*
X57950557Y-78021227D01*
X57973166Y-78015563D01*
X57996221Y-78012144D01*
X58019500Y-78011000D01*
X58594500Y-78011000D01*
X58617779Y-78012144D01*
G37*
G36*
X79931779Y-49076144D02*
G01*
X79954834Y-49079563D01*
X79977443Y-49085227D01*
X79999387Y-49093079D01*
X80020457Y-49103044D01*
X80040448Y-49115026D01*
X80059168Y-49128910D01*
X80076438Y-49144562D01*
X80092090Y-49161832D01*
X80105974Y-49180552D01*
X80117956Y-49200543D01*
X80127921Y-49221613D01*
X80135773Y-49243557D01*
X80141437Y-49266166D01*
X80144856Y-49289221D01*
X80146000Y-49312500D01*
X80146000Y-49787500D01*
X80144856Y-49810779D01*
X80141437Y-49833834D01*
X80135773Y-49856443D01*
X80127921Y-49878387D01*
X80117956Y-49899457D01*
X80105974Y-49919448D01*
X80092090Y-49938168D01*
X80076438Y-49955438D01*
X80059168Y-49971090D01*
X80040448Y-49984974D01*
X80020457Y-49996956D01*
X79999387Y-50006921D01*
X79977443Y-50014773D01*
X79954834Y-50020437D01*
X79931779Y-50023856D01*
X79908500Y-50025000D01*
X79333500Y-50025000D01*
X79310221Y-50023856D01*
X79287166Y-50020437D01*
X79264557Y-50014773D01*
X79242613Y-50006921D01*
X79221543Y-49996956D01*
X79201552Y-49984974D01*
X79182832Y-49971090D01*
X79165562Y-49955438D01*
X79149910Y-49938168D01*
X79136026Y-49919448D01*
X79124044Y-49899457D01*
X79114079Y-49878387D01*
X79106227Y-49856443D01*
X79100563Y-49833834D01*
X79097144Y-49810779D01*
X79096000Y-49787500D01*
X79096000Y-49312500D01*
X79097144Y-49289221D01*
X79100563Y-49266166D01*
X79106227Y-49243557D01*
X79114079Y-49221613D01*
X79124044Y-49200543D01*
X79136026Y-49180552D01*
X79149910Y-49161832D01*
X79165562Y-49144562D01*
X79182832Y-49128910D01*
X79201552Y-49115026D01*
X79221543Y-49103044D01*
X79242613Y-49093079D01*
X79264557Y-49085227D01*
X79287166Y-49079563D01*
X79310221Y-49076144D01*
X79333500Y-49075000D01*
X79908500Y-49075000D01*
X79931779Y-49076144D01*
G37*
G36*
X78181779Y-49076144D02*
G01*
X78204834Y-49079563D01*
X78227443Y-49085227D01*
X78249387Y-49093079D01*
X78270457Y-49103044D01*
X78290448Y-49115026D01*
X78309168Y-49128910D01*
X78326438Y-49144562D01*
X78342090Y-49161832D01*
X78355974Y-49180552D01*
X78367956Y-49200543D01*
X78377921Y-49221613D01*
X78385773Y-49243557D01*
X78391437Y-49266166D01*
X78394856Y-49289221D01*
X78396000Y-49312500D01*
X78396000Y-49787500D01*
X78394856Y-49810779D01*
X78391437Y-49833834D01*
X78385773Y-49856443D01*
X78377921Y-49878387D01*
X78367956Y-49899457D01*
X78355974Y-49919448D01*
X78342090Y-49938168D01*
X78326438Y-49955438D01*
X78309168Y-49971090D01*
X78290448Y-49984974D01*
X78270457Y-49996956D01*
X78249387Y-50006921D01*
X78227443Y-50014773D01*
X78204834Y-50020437D01*
X78181779Y-50023856D01*
X78158500Y-50025000D01*
X77583500Y-50025000D01*
X77560221Y-50023856D01*
X77537166Y-50020437D01*
X77514557Y-50014773D01*
X77492613Y-50006921D01*
X77471543Y-49996956D01*
X77451552Y-49984974D01*
X77432832Y-49971090D01*
X77415562Y-49955438D01*
X77399910Y-49938168D01*
X77386026Y-49919448D01*
X77374044Y-49899457D01*
X77364079Y-49878387D01*
X77356227Y-49856443D01*
X77350563Y-49833834D01*
X77347144Y-49810779D01*
X77346000Y-49787500D01*
X77346000Y-49312500D01*
X77347144Y-49289221D01*
X77350563Y-49266166D01*
X77356227Y-49243557D01*
X77364079Y-49221613D01*
X77374044Y-49200543D01*
X77386026Y-49180552D01*
X77399910Y-49161832D01*
X77415562Y-49144562D01*
X77432832Y-49128910D01*
X77451552Y-49115026D01*
X77471543Y-49103044D01*
X77492613Y-49093079D01*
X77514557Y-49085227D01*
X77537166Y-49079563D01*
X77560221Y-49076144D01*
X77583500Y-49075000D01*
X78158500Y-49075000D01*
X78181779Y-49076144D01*
G37*
G36*
X60458779Y-74293144D02*
G01*
X60481834Y-74296563D01*
X60504443Y-74302227D01*
X60526387Y-74310079D01*
X60547457Y-74320044D01*
X60567448Y-74332026D01*
X60586168Y-74345910D01*
X60603438Y-74361562D01*
X60619090Y-74378832D01*
X60632974Y-74397552D01*
X60644956Y-74417543D01*
X60654921Y-74438613D01*
X60662773Y-74460557D01*
X60668437Y-74483166D01*
X60671856Y-74506221D01*
X60673000Y-74529500D01*
X60673000Y-75104500D01*
X60671856Y-75127779D01*
X60668437Y-75150834D01*
X60662773Y-75173443D01*
X60654921Y-75195387D01*
X60644956Y-75216457D01*
X60632974Y-75236448D01*
X60619090Y-75255168D01*
X60603438Y-75272438D01*
X60586168Y-75288090D01*
X60567448Y-75301974D01*
X60547457Y-75313956D01*
X60526387Y-75323921D01*
X60504443Y-75331773D01*
X60481834Y-75337437D01*
X60458779Y-75340856D01*
X60435500Y-75342000D01*
X59960500Y-75342000D01*
X59937221Y-75340856D01*
X59914166Y-75337437D01*
X59891557Y-75331773D01*
X59869613Y-75323921D01*
X59848543Y-75313956D01*
X59828552Y-75301974D01*
X59809832Y-75288090D01*
X59792562Y-75272438D01*
X59776910Y-75255168D01*
X59763026Y-75236448D01*
X59751044Y-75216457D01*
X59741079Y-75195387D01*
X59733227Y-75173443D01*
X59727563Y-75150834D01*
X59724144Y-75127779D01*
X59723000Y-75104500D01*
X59723000Y-74529500D01*
X59724144Y-74506221D01*
X59727563Y-74483166D01*
X59733227Y-74460557D01*
X59741079Y-74438613D01*
X59751044Y-74417543D01*
X59763026Y-74397552D01*
X59776910Y-74378832D01*
X59792562Y-74361562D01*
X59809832Y-74345910D01*
X59828552Y-74332026D01*
X59848543Y-74320044D01*
X59869613Y-74310079D01*
X59891557Y-74302227D01*
X59914166Y-74296563D01*
X59937221Y-74293144D01*
X59960500Y-74292000D01*
X60435500Y-74292000D01*
X60458779Y-74293144D01*
G37*
G36*
X60458779Y-76043144D02*
G01*
X60481834Y-76046563D01*
X60504443Y-76052227D01*
X60526387Y-76060079D01*
X60547457Y-76070044D01*
X60567448Y-76082026D01*
X60586168Y-76095910D01*
X60603438Y-76111562D01*
X60619090Y-76128832D01*
X60632974Y-76147552D01*
X60644956Y-76167543D01*
X60654921Y-76188613D01*
X60662773Y-76210557D01*
X60668437Y-76233166D01*
X60671856Y-76256221D01*
X60673000Y-76279500D01*
X60673000Y-76854500D01*
X60671856Y-76877779D01*
X60668437Y-76900834D01*
X60662773Y-76923443D01*
X60654921Y-76945387D01*
X60644956Y-76966457D01*
X60632974Y-76986448D01*
X60619090Y-77005168D01*
X60603438Y-77022438D01*
X60586168Y-77038090D01*
X60567448Y-77051974D01*
X60547457Y-77063956D01*
X60526387Y-77073921D01*
X60504443Y-77081773D01*
X60481834Y-77087437D01*
X60458779Y-77090856D01*
X60435500Y-77092000D01*
X59960500Y-77092000D01*
X59937221Y-77090856D01*
X59914166Y-77087437D01*
X59891557Y-77081773D01*
X59869613Y-77073921D01*
X59848543Y-77063956D01*
X59828552Y-77051974D01*
X59809832Y-77038090D01*
X59792562Y-77022438D01*
X59776910Y-77005168D01*
X59763026Y-76986448D01*
X59751044Y-76966457D01*
X59741079Y-76945387D01*
X59733227Y-76923443D01*
X59727563Y-76900834D01*
X59724144Y-76877779D01*
X59723000Y-76854500D01*
X59723000Y-76279500D01*
X59724144Y-76256221D01*
X59727563Y-76233166D01*
X59733227Y-76210557D01*
X59741079Y-76188613D01*
X59751044Y-76167543D01*
X59763026Y-76147552D01*
X59776910Y-76128832D01*
X59792562Y-76111562D01*
X59809832Y-76095910D01*
X59828552Y-76082026D01*
X59848543Y-76070044D01*
X59869613Y-76060079D01*
X59891557Y-76052227D01*
X59914166Y-76046563D01*
X59937221Y-76043144D01*
X59960500Y-76042000D01*
X60435500Y-76042000D01*
X60458779Y-76043144D01*
G37*
G36*
X58617779Y-79536144D02*
G01*
X58640834Y-79539563D01*
X58663443Y-79545227D01*
X58685387Y-79553079D01*
X58706457Y-79563044D01*
X58726448Y-79575026D01*
X58745168Y-79588910D01*
X58762438Y-79604562D01*
X58778090Y-79621832D01*
X58791974Y-79640552D01*
X58803956Y-79660543D01*
X58813921Y-79681613D01*
X58821773Y-79703557D01*
X58827437Y-79726166D01*
X58830856Y-79749221D01*
X58832000Y-79772500D01*
X58832000Y-80247500D01*
X58830856Y-80270779D01*
X58827437Y-80293834D01*
X58821773Y-80316443D01*
X58813921Y-80338387D01*
X58803956Y-80359457D01*
X58791974Y-80379448D01*
X58778090Y-80398168D01*
X58762438Y-80415438D01*
X58745168Y-80431090D01*
X58726448Y-80444974D01*
X58706457Y-80456956D01*
X58685387Y-80466921D01*
X58663443Y-80474773D01*
X58640834Y-80480437D01*
X58617779Y-80483856D01*
X58594500Y-80485000D01*
X58019500Y-80485000D01*
X57996221Y-80483856D01*
X57973166Y-80480437D01*
X57950557Y-80474773D01*
X57928613Y-80466921D01*
X57907543Y-80456956D01*
X57887552Y-80444974D01*
X57868832Y-80431090D01*
X57851562Y-80415438D01*
X57835910Y-80398168D01*
X57822026Y-80379448D01*
X57810044Y-80359457D01*
X57800079Y-80338387D01*
X57792227Y-80316443D01*
X57786563Y-80293834D01*
X57783144Y-80270779D01*
X57782000Y-80247500D01*
X57782000Y-79772500D01*
X57783144Y-79749221D01*
X57786563Y-79726166D01*
X57792227Y-79703557D01*
X57800079Y-79681613D01*
X57810044Y-79660543D01*
X57822026Y-79640552D01*
X57835910Y-79621832D01*
X57851562Y-79604562D01*
X57868832Y-79588910D01*
X57887552Y-79575026D01*
X57907543Y-79563044D01*
X57928613Y-79553079D01*
X57950557Y-79545227D01*
X57973166Y-79539563D01*
X57996221Y-79536144D01*
X58019500Y-79535000D01*
X58594500Y-79535000D01*
X58617779Y-79536144D01*
G37*
G36*
X60367779Y-79536144D02*
G01*
X60390834Y-79539563D01*
X60413443Y-79545227D01*
X60435387Y-79553079D01*
X60456457Y-79563044D01*
X60476448Y-79575026D01*
X60495168Y-79588910D01*
X60512438Y-79604562D01*
X60528090Y-79621832D01*
X60541974Y-79640552D01*
X60553956Y-79660543D01*
X60563921Y-79681613D01*
X60571773Y-79703557D01*
X60577437Y-79726166D01*
X60580856Y-79749221D01*
X60582000Y-79772500D01*
X60582000Y-80247500D01*
X60580856Y-80270779D01*
X60577437Y-80293834D01*
X60571773Y-80316443D01*
X60563921Y-80338387D01*
X60553956Y-80359457D01*
X60541974Y-80379448D01*
X60528090Y-80398168D01*
X60512438Y-80415438D01*
X60495168Y-80431090D01*
X60476448Y-80444974D01*
X60456457Y-80456956D01*
X60435387Y-80466921D01*
X60413443Y-80474773D01*
X60390834Y-80480437D01*
X60367779Y-80483856D01*
X60344500Y-80485000D01*
X59769500Y-80485000D01*
X59746221Y-80483856D01*
X59723166Y-80480437D01*
X59700557Y-80474773D01*
X59678613Y-80466921D01*
X59657543Y-80456956D01*
X59637552Y-80444974D01*
X59618832Y-80431090D01*
X59601562Y-80415438D01*
X59585910Y-80398168D01*
X59572026Y-80379448D01*
X59560044Y-80359457D01*
X59550079Y-80338387D01*
X59542227Y-80316443D01*
X59536563Y-80293834D01*
X59533144Y-80270779D01*
X59532000Y-80247500D01*
X59532000Y-79772500D01*
X59533144Y-79749221D01*
X59536563Y-79726166D01*
X59542227Y-79703557D01*
X59550079Y-79681613D01*
X59560044Y-79660543D01*
X59572026Y-79640552D01*
X59585910Y-79621832D01*
X59601562Y-79604562D01*
X59618832Y-79588910D01*
X59637552Y-79575026D01*
X59657543Y-79563044D01*
X59678613Y-79553079D01*
X59700557Y-79545227D01*
X59723166Y-79539563D01*
X59746221Y-79536144D01*
X59769500Y-79535000D01*
X60344500Y-79535000D01*
X60367779Y-79536144D01*
G37*
G36*
X63923779Y-72424144D02*
G01*
X63946834Y-72427563D01*
X63969443Y-72433227D01*
X63991387Y-72441079D01*
X64012457Y-72451044D01*
X64032448Y-72463026D01*
X64051168Y-72476910D01*
X64068438Y-72492562D01*
X64084090Y-72509832D01*
X64097974Y-72528552D01*
X64109956Y-72548543D01*
X64119921Y-72569613D01*
X64127773Y-72591557D01*
X64133437Y-72614166D01*
X64136856Y-72637221D01*
X64138000Y-72660500D01*
X64138000Y-73135500D01*
X64136856Y-73158779D01*
X64133437Y-73181834D01*
X64127773Y-73204443D01*
X64119921Y-73226387D01*
X64109956Y-73247457D01*
X64097974Y-73267448D01*
X64084090Y-73286168D01*
X64068438Y-73303438D01*
X64051168Y-73319090D01*
X64032448Y-73332974D01*
X64012457Y-73344956D01*
X63991387Y-73354921D01*
X63969443Y-73362773D01*
X63946834Y-73368437D01*
X63923779Y-73371856D01*
X63900500Y-73373000D01*
X63325500Y-73373000D01*
X63302221Y-73371856D01*
X63279166Y-73368437D01*
X63256557Y-73362773D01*
X63234613Y-73354921D01*
X63213543Y-73344956D01*
X63193552Y-73332974D01*
X63174832Y-73319090D01*
X63157562Y-73303438D01*
X63141910Y-73286168D01*
X63128026Y-73267448D01*
X63116044Y-73247457D01*
X63106079Y-73226387D01*
X63098227Y-73204443D01*
X63092563Y-73181834D01*
X63089144Y-73158779D01*
X63088000Y-73135500D01*
X63088000Y-72660500D01*
X63089144Y-72637221D01*
X63092563Y-72614166D01*
X63098227Y-72591557D01*
X63106079Y-72569613D01*
X63116044Y-72548543D01*
X63128026Y-72528552D01*
X63141910Y-72509832D01*
X63157562Y-72492562D01*
X63174832Y-72476910D01*
X63193552Y-72463026D01*
X63213543Y-72451044D01*
X63234613Y-72441079D01*
X63256557Y-72433227D01*
X63279166Y-72427563D01*
X63302221Y-72424144D01*
X63325500Y-72423000D01*
X63900500Y-72423000D01*
X63923779Y-72424144D01*
G37*
G36*
X62173779Y-72424144D02*
G01*
X62196834Y-72427563D01*
X62219443Y-72433227D01*
X62241387Y-72441079D01*
X62262457Y-72451044D01*
X62282448Y-72463026D01*
X62301168Y-72476910D01*
X62318438Y-72492562D01*
X62334090Y-72509832D01*
X62347974Y-72528552D01*
X62359956Y-72548543D01*
X62369921Y-72569613D01*
X62377773Y-72591557D01*
X62383437Y-72614166D01*
X62386856Y-72637221D01*
X62388000Y-72660500D01*
X62388000Y-73135500D01*
X62386856Y-73158779D01*
X62383437Y-73181834D01*
X62377773Y-73204443D01*
X62369921Y-73226387D01*
X62359956Y-73247457D01*
X62347974Y-73267448D01*
X62334090Y-73286168D01*
X62318438Y-73303438D01*
X62301168Y-73319090D01*
X62282448Y-73332974D01*
X62262457Y-73344956D01*
X62241387Y-73354921D01*
X62219443Y-73362773D01*
X62196834Y-73368437D01*
X62173779Y-73371856D01*
X62150500Y-73373000D01*
X61575500Y-73373000D01*
X61552221Y-73371856D01*
X61529166Y-73368437D01*
X61506557Y-73362773D01*
X61484613Y-73354921D01*
X61463543Y-73344956D01*
X61443552Y-73332974D01*
X61424832Y-73319090D01*
X61407562Y-73303438D01*
X61391910Y-73286168D01*
X61378026Y-73267448D01*
X61366044Y-73247457D01*
X61356079Y-73226387D01*
X61348227Y-73204443D01*
X61342563Y-73181834D01*
X61339144Y-73158779D01*
X61338000Y-73135500D01*
X61338000Y-72660500D01*
X61339144Y-72637221D01*
X61342563Y-72614166D01*
X61348227Y-72591557D01*
X61356079Y-72569613D01*
X61366044Y-72548543D01*
X61378026Y-72528552D01*
X61391910Y-72509832D01*
X61407562Y-72492562D01*
X61424832Y-72476910D01*
X61443552Y-72463026D01*
X61463543Y-72451044D01*
X61484613Y-72441079D01*
X61506557Y-72433227D01*
X61529166Y-72427563D01*
X61552221Y-72424144D01*
X61575500Y-72423000D01*
X62150500Y-72423000D01*
X62173779Y-72424144D01*
G37*
G36*
X100660779Y-67401144D02*
G01*
X100683834Y-67404563D01*
X100706443Y-67410227D01*
X100728387Y-67418079D01*
X100749457Y-67428044D01*
X100769448Y-67440026D01*
X100788168Y-67453910D01*
X100805438Y-67469562D01*
X100821090Y-67486832D01*
X100834974Y-67505552D01*
X100846956Y-67525543D01*
X100856921Y-67546613D01*
X100864773Y-67568557D01*
X100870437Y-67591166D01*
X100873856Y-67614221D01*
X100875000Y-67637500D01*
X100875000Y-68212500D01*
X100873856Y-68235779D01*
X100870437Y-68258834D01*
X100864773Y-68281443D01*
X100856921Y-68303387D01*
X100846956Y-68324457D01*
X100834974Y-68344448D01*
X100821090Y-68363168D01*
X100805438Y-68380438D01*
X100788168Y-68396090D01*
X100769448Y-68409974D01*
X100749457Y-68421956D01*
X100728387Y-68431921D01*
X100706443Y-68439773D01*
X100683834Y-68445437D01*
X100660779Y-68448856D01*
X100637500Y-68450000D01*
X100162500Y-68450000D01*
X100139221Y-68448856D01*
X100116166Y-68445437D01*
X100093557Y-68439773D01*
X100071613Y-68431921D01*
X100050543Y-68421956D01*
X100030552Y-68409974D01*
X100011832Y-68396090D01*
X99994562Y-68380438D01*
X99978910Y-68363168D01*
X99965026Y-68344448D01*
X99953044Y-68324457D01*
X99943079Y-68303387D01*
X99935227Y-68281443D01*
X99929563Y-68258834D01*
X99926144Y-68235779D01*
X99925000Y-68212500D01*
X99925000Y-67637500D01*
X99926144Y-67614221D01*
X99929563Y-67591166D01*
X99935227Y-67568557D01*
X99943079Y-67546613D01*
X99953044Y-67525543D01*
X99965026Y-67505552D01*
X99978910Y-67486832D01*
X99994562Y-67469562D01*
X100011832Y-67453910D01*
X100030552Y-67440026D01*
X100050543Y-67428044D01*
X100071613Y-67418079D01*
X100093557Y-67410227D01*
X100116166Y-67404563D01*
X100139221Y-67401144D01*
X100162500Y-67400000D01*
X100637500Y-67400000D01*
X100660779Y-67401144D01*
G37*
G36*
X100660779Y-69151144D02*
G01*
X100683834Y-69154563D01*
X100706443Y-69160227D01*
X100728387Y-69168079D01*
X100749457Y-69178044D01*
X100769448Y-69190026D01*
X100788168Y-69203910D01*
X100805438Y-69219562D01*
X100821090Y-69236832D01*
X100834974Y-69255552D01*
X100846956Y-69275543D01*
X100856921Y-69296613D01*
X100864773Y-69318557D01*
X100870437Y-69341166D01*
X100873856Y-69364221D01*
X100875000Y-69387500D01*
X100875000Y-69962500D01*
X100873856Y-69985779D01*
X100870437Y-70008834D01*
X100864773Y-70031443D01*
X100856921Y-70053387D01*
X100846956Y-70074457D01*
X100834974Y-70094448D01*
X100821090Y-70113168D01*
X100805438Y-70130438D01*
X100788168Y-70146090D01*
X100769448Y-70159974D01*
X100749457Y-70171956D01*
X100728387Y-70181921D01*
X100706443Y-70189773D01*
X100683834Y-70195437D01*
X100660779Y-70198856D01*
X100637500Y-70200000D01*
X100162500Y-70200000D01*
X100139221Y-70198856D01*
X100116166Y-70195437D01*
X100093557Y-70189773D01*
X100071613Y-70181921D01*
X100050543Y-70171956D01*
X100030552Y-70159974D01*
X100011832Y-70146090D01*
X99994562Y-70130438D01*
X99978910Y-70113168D01*
X99965026Y-70094448D01*
X99953044Y-70074457D01*
X99943079Y-70053387D01*
X99935227Y-70031443D01*
X99929563Y-70008834D01*
X99926144Y-69985779D01*
X99925000Y-69962500D01*
X99925000Y-69387500D01*
X99926144Y-69364221D01*
X99929563Y-69341166D01*
X99935227Y-69318557D01*
X99943079Y-69296613D01*
X99953044Y-69275543D01*
X99965026Y-69255552D01*
X99978910Y-69236832D01*
X99994562Y-69219562D01*
X100011832Y-69203910D01*
X100030552Y-69190026D01*
X100050543Y-69178044D01*
X100071613Y-69168079D01*
X100093557Y-69160227D01*
X100116166Y-69154563D01*
X100139221Y-69151144D01*
X100162500Y-69150000D01*
X100637500Y-69150000D01*
X100660779Y-69151144D01*
G37*
G36*
X91413779Y-56660144D02*
G01*
X91436834Y-56663563D01*
X91459443Y-56669227D01*
X91481387Y-56677079D01*
X91502457Y-56687044D01*
X91522448Y-56699026D01*
X91541168Y-56712910D01*
X91558438Y-56728562D01*
X91574090Y-56745832D01*
X91587974Y-56764552D01*
X91599956Y-56784543D01*
X91609921Y-56805613D01*
X91617773Y-56827557D01*
X91623437Y-56850166D01*
X91626856Y-56873221D01*
X91628000Y-56896500D01*
X91628000Y-57371500D01*
X91626856Y-57394779D01*
X91623437Y-57417834D01*
X91617773Y-57440443D01*
X91609921Y-57462387D01*
X91599956Y-57483457D01*
X91587974Y-57503448D01*
X91574090Y-57522168D01*
X91558438Y-57539438D01*
X91541168Y-57555090D01*
X91522448Y-57568974D01*
X91502457Y-57580956D01*
X91481387Y-57590921D01*
X91459443Y-57598773D01*
X91436834Y-57604437D01*
X91413779Y-57607856D01*
X91390500Y-57609000D01*
X90815500Y-57609000D01*
X90792221Y-57607856D01*
X90769166Y-57604437D01*
X90746557Y-57598773D01*
X90724613Y-57590921D01*
X90703543Y-57580956D01*
X90683552Y-57568974D01*
X90664832Y-57555090D01*
X90647562Y-57539438D01*
X90631910Y-57522168D01*
X90618026Y-57503448D01*
X90606044Y-57483457D01*
X90596079Y-57462387D01*
X90588227Y-57440443D01*
X90582563Y-57417834D01*
X90579144Y-57394779D01*
X90578000Y-57371500D01*
X90578000Y-56896500D01*
X90579144Y-56873221D01*
X90582563Y-56850166D01*
X90588227Y-56827557D01*
X90596079Y-56805613D01*
X90606044Y-56784543D01*
X90618026Y-56764552D01*
X90631910Y-56745832D01*
X90647562Y-56728562D01*
X90664832Y-56712910D01*
X90683552Y-56699026D01*
X90703543Y-56687044D01*
X90724613Y-56677079D01*
X90746557Y-56669227D01*
X90769166Y-56663563D01*
X90792221Y-56660144D01*
X90815500Y-56659000D01*
X91390500Y-56659000D01*
X91413779Y-56660144D01*
G37*
G36*
X93163779Y-56660144D02*
G01*
X93186834Y-56663563D01*
X93209443Y-56669227D01*
X93231387Y-56677079D01*
X93252457Y-56687044D01*
X93272448Y-56699026D01*
X93291168Y-56712910D01*
X93308438Y-56728562D01*
X93324090Y-56745832D01*
X93337974Y-56764552D01*
X93349956Y-56784543D01*
X93359921Y-56805613D01*
X93367773Y-56827557D01*
X93373437Y-56850166D01*
X93376856Y-56873221D01*
X93378000Y-56896500D01*
X93378000Y-57371500D01*
X93376856Y-57394779D01*
X93373437Y-57417834D01*
X93367773Y-57440443D01*
X93359921Y-57462387D01*
X93349956Y-57483457D01*
X93337974Y-57503448D01*
X93324090Y-57522168D01*
X93308438Y-57539438D01*
X93291168Y-57555090D01*
X93272448Y-57568974D01*
X93252457Y-57580956D01*
X93231387Y-57590921D01*
X93209443Y-57598773D01*
X93186834Y-57604437D01*
X93163779Y-57607856D01*
X93140500Y-57609000D01*
X92565500Y-57609000D01*
X92542221Y-57607856D01*
X92519166Y-57604437D01*
X92496557Y-57598773D01*
X92474613Y-57590921D01*
X92453543Y-57580956D01*
X92433552Y-57568974D01*
X92414832Y-57555090D01*
X92397562Y-57539438D01*
X92381910Y-57522168D01*
X92368026Y-57503448D01*
X92356044Y-57483457D01*
X92346079Y-57462387D01*
X92338227Y-57440443D01*
X92332563Y-57417834D01*
X92329144Y-57394779D01*
X92328000Y-57371500D01*
X92328000Y-56896500D01*
X92329144Y-56873221D01*
X92332563Y-56850166D01*
X92338227Y-56827557D01*
X92346079Y-56805613D01*
X92356044Y-56784543D01*
X92368026Y-56764552D01*
X92381910Y-56745832D01*
X92397562Y-56728562D01*
X92414832Y-56712910D01*
X92433552Y-56699026D01*
X92453543Y-56687044D01*
X92474613Y-56677079D01*
X92496557Y-56669227D01*
X92519166Y-56663563D01*
X92542221Y-56660144D01*
X92565500Y-56659000D01*
X93140500Y-56659000D01*
X93163779Y-56660144D01*
G37*
G36*
X93953779Y-61232144D02*
G01*
X93976834Y-61235563D01*
X93999443Y-61241227D01*
X94021387Y-61249079D01*
X94042457Y-61259044D01*
X94062448Y-61271026D01*
X94081168Y-61284910D01*
X94098438Y-61300562D01*
X94114090Y-61317832D01*
X94127974Y-61336552D01*
X94139956Y-61356543D01*
X94149921Y-61377613D01*
X94157773Y-61399557D01*
X94163437Y-61422166D01*
X94166856Y-61445221D01*
X94168000Y-61468500D01*
X94168000Y-61943500D01*
X94166856Y-61966779D01*
X94163437Y-61989834D01*
X94157773Y-62012443D01*
X94149921Y-62034387D01*
X94139956Y-62055457D01*
X94127974Y-62075448D01*
X94114090Y-62094168D01*
X94098438Y-62111438D01*
X94081168Y-62127090D01*
X94062448Y-62140974D01*
X94042457Y-62152956D01*
X94021387Y-62162921D01*
X93999443Y-62170773D01*
X93976834Y-62176437D01*
X93953779Y-62179856D01*
X93930500Y-62181000D01*
X93355500Y-62181000D01*
X93332221Y-62179856D01*
X93309166Y-62176437D01*
X93286557Y-62170773D01*
X93264613Y-62162921D01*
X93243543Y-62152956D01*
X93223552Y-62140974D01*
X93204832Y-62127090D01*
X93187562Y-62111438D01*
X93171910Y-62094168D01*
X93158026Y-62075448D01*
X93146044Y-62055457D01*
X93136079Y-62034387D01*
X93128227Y-62012443D01*
X93122563Y-61989834D01*
X93119144Y-61966779D01*
X93118000Y-61943500D01*
X93118000Y-61468500D01*
X93119144Y-61445221D01*
X93122563Y-61422166D01*
X93128227Y-61399557D01*
X93136079Y-61377613D01*
X93146044Y-61356543D01*
X93158026Y-61336552D01*
X93171910Y-61317832D01*
X93187562Y-61300562D01*
X93204832Y-61284910D01*
X93223552Y-61271026D01*
X93243543Y-61259044D01*
X93264613Y-61249079D01*
X93286557Y-61241227D01*
X93309166Y-61235563D01*
X93332221Y-61232144D01*
X93355500Y-61231000D01*
X93930500Y-61231000D01*
X93953779Y-61232144D01*
G37*
G36*
X95703779Y-61232144D02*
G01*
X95726834Y-61235563D01*
X95749443Y-61241227D01*
X95771387Y-61249079D01*
X95792457Y-61259044D01*
X95812448Y-61271026D01*
X95831168Y-61284910D01*
X95848438Y-61300562D01*
X95864090Y-61317832D01*
X95877974Y-61336552D01*
X95889956Y-61356543D01*
X95899921Y-61377613D01*
X95907773Y-61399557D01*
X95913437Y-61422166D01*
X95916856Y-61445221D01*
X95918000Y-61468500D01*
X95918000Y-61943500D01*
X95916856Y-61966779D01*
X95913437Y-61989834D01*
X95907773Y-62012443D01*
X95899921Y-62034387D01*
X95889956Y-62055457D01*
X95877974Y-62075448D01*
X95864090Y-62094168D01*
X95848438Y-62111438D01*
X95831168Y-62127090D01*
X95812448Y-62140974D01*
X95792457Y-62152956D01*
X95771387Y-62162921D01*
X95749443Y-62170773D01*
X95726834Y-62176437D01*
X95703779Y-62179856D01*
X95680500Y-62181000D01*
X95105500Y-62181000D01*
X95082221Y-62179856D01*
X95059166Y-62176437D01*
X95036557Y-62170773D01*
X95014613Y-62162921D01*
X94993543Y-62152956D01*
X94973552Y-62140974D01*
X94954832Y-62127090D01*
X94937562Y-62111438D01*
X94921910Y-62094168D01*
X94908026Y-62075448D01*
X94896044Y-62055457D01*
X94886079Y-62034387D01*
X94878227Y-62012443D01*
X94872563Y-61989834D01*
X94869144Y-61966779D01*
X94868000Y-61943500D01*
X94868000Y-61468500D01*
X94869144Y-61445221D01*
X94872563Y-61422166D01*
X94878227Y-61399557D01*
X94886079Y-61377613D01*
X94896044Y-61356543D01*
X94908026Y-61336552D01*
X94921910Y-61317832D01*
X94937562Y-61300562D01*
X94954832Y-61284910D01*
X94973552Y-61271026D01*
X94993543Y-61259044D01*
X95014613Y-61249079D01*
X95036557Y-61241227D01*
X95059166Y-61235563D01*
X95082221Y-61232144D01*
X95105500Y-61231000D01*
X95680500Y-61231000D01*
X95703779Y-61232144D01*
G37*
G36*
X95032779Y-57767144D02*
G01*
X95055834Y-57770563D01*
X95078443Y-57776227D01*
X95100387Y-57784079D01*
X95121457Y-57794044D01*
X95141448Y-57806026D01*
X95160168Y-57819910D01*
X95177438Y-57835562D01*
X95193090Y-57852832D01*
X95206974Y-57871552D01*
X95218956Y-57891543D01*
X95228921Y-57912613D01*
X95236773Y-57934557D01*
X95242437Y-57957166D01*
X95245856Y-57980221D01*
X95247000Y-58003500D01*
X95247000Y-58578500D01*
X95245856Y-58601779D01*
X95242437Y-58624834D01*
X95236773Y-58647443D01*
X95228921Y-58669387D01*
X95218956Y-58690457D01*
X95206974Y-58710448D01*
X95193090Y-58729168D01*
X95177438Y-58746438D01*
X95160168Y-58762090D01*
X95141448Y-58775974D01*
X95121457Y-58787956D01*
X95100387Y-58797921D01*
X95078443Y-58805773D01*
X95055834Y-58811437D01*
X95032779Y-58814856D01*
X95009500Y-58816000D01*
X94534500Y-58816000D01*
X94511221Y-58814856D01*
X94488166Y-58811437D01*
X94465557Y-58805773D01*
X94443613Y-58797921D01*
X94422543Y-58787956D01*
X94402552Y-58775974D01*
X94383832Y-58762090D01*
X94366562Y-58746438D01*
X94350910Y-58729168D01*
X94337026Y-58710448D01*
X94325044Y-58690457D01*
X94315079Y-58669387D01*
X94307227Y-58647443D01*
X94301563Y-58624834D01*
X94298144Y-58601779D01*
X94297000Y-58578500D01*
X94297000Y-58003500D01*
X94298144Y-57980221D01*
X94301563Y-57957166D01*
X94307227Y-57934557D01*
X94315079Y-57912613D01*
X94325044Y-57891543D01*
X94337026Y-57871552D01*
X94350910Y-57852832D01*
X94366562Y-57835562D01*
X94383832Y-57819910D01*
X94402552Y-57806026D01*
X94422543Y-57794044D01*
X94443613Y-57784079D01*
X94465557Y-57776227D01*
X94488166Y-57770563D01*
X94511221Y-57767144D01*
X94534500Y-57766000D01*
X95009500Y-57766000D01*
X95032779Y-57767144D01*
G37*
G36*
X95032779Y-59517144D02*
G01*
X95055834Y-59520563D01*
X95078443Y-59526227D01*
X95100387Y-59534079D01*
X95121457Y-59544044D01*
X95141448Y-59556026D01*
X95160168Y-59569910D01*
X95177438Y-59585562D01*
X95193090Y-59602832D01*
X95206974Y-59621552D01*
X95218956Y-59641543D01*
X95228921Y-59662613D01*
X95236773Y-59684557D01*
X95242437Y-59707166D01*
X95245856Y-59730221D01*
X95247000Y-59753500D01*
X95247000Y-60328500D01*
X95245856Y-60351779D01*
X95242437Y-60374834D01*
X95236773Y-60397443D01*
X95228921Y-60419387D01*
X95218956Y-60440457D01*
X95206974Y-60460448D01*
X95193090Y-60479168D01*
X95177438Y-60496438D01*
X95160168Y-60512090D01*
X95141448Y-60525974D01*
X95121457Y-60537956D01*
X95100387Y-60547921D01*
X95078443Y-60555773D01*
X95055834Y-60561437D01*
X95032779Y-60564856D01*
X95009500Y-60566000D01*
X94534500Y-60566000D01*
X94511221Y-60564856D01*
X94488166Y-60561437D01*
X94465557Y-60555773D01*
X94443613Y-60547921D01*
X94422543Y-60537956D01*
X94402552Y-60525974D01*
X94383832Y-60512090D01*
X94366562Y-60496438D01*
X94350910Y-60479168D01*
X94337026Y-60460448D01*
X94325044Y-60440457D01*
X94315079Y-60419387D01*
X94307227Y-60397443D01*
X94301563Y-60374834D01*
X94298144Y-60351779D01*
X94297000Y-60328500D01*
X94297000Y-59753500D01*
X94298144Y-59730221D01*
X94301563Y-59707166D01*
X94307227Y-59684557D01*
X94315079Y-59662613D01*
X94325044Y-59641543D01*
X94337026Y-59621552D01*
X94350910Y-59602832D01*
X94366562Y-59585562D01*
X94383832Y-59569910D01*
X94402552Y-59556026D01*
X94422543Y-59544044D01*
X94443613Y-59534079D01*
X94465557Y-59526227D01*
X94488166Y-59520563D01*
X94511221Y-59517144D01*
X94534500Y-59516000D01*
X95009500Y-59516000D01*
X95032779Y-59517144D01*
G37*
G36*
X93953779Y-63010144D02*
G01*
X93976834Y-63013563D01*
X93999443Y-63019227D01*
X94021387Y-63027079D01*
X94042457Y-63037044D01*
X94062448Y-63049026D01*
X94081168Y-63062910D01*
X94098438Y-63078562D01*
X94114090Y-63095832D01*
X94127974Y-63114552D01*
X94139956Y-63134543D01*
X94149921Y-63155613D01*
X94157773Y-63177557D01*
X94163437Y-63200166D01*
X94166856Y-63223221D01*
X94168000Y-63246500D01*
X94168000Y-63721500D01*
X94166856Y-63744779D01*
X94163437Y-63767834D01*
X94157773Y-63790443D01*
X94149921Y-63812387D01*
X94139956Y-63833457D01*
X94127974Y-63853448D01*
X94114090Y-63872168D01*
X94098438Y-63889438D01*
X94081168Y-63905090D01*
X94062448Y-63918974D01*
X94042457Y-63930956D01*
X94021387Y-63940921D01*
X93999443Y-63948773D01*
X93976834Y-63954437D01*
X93953779Y-63957856D01*
X93930500Y-63959000D01*
X93355500Y-63959000D01*
X93332221Y-63957856D01*
X93309166Y-63954437D01*
X93286557Y-63948773D01*
X93264613Y-63940921D01*
X93243543Y-63930956D01*
X93223552Y-63918974D01*
X93204832Y-63905090D01*
X93187562Y-63889438D01*
X93171910Y-63872168D01*
X93158026Y-63853448D01*
X93146044Y-63833457D01*
X93136079Y-63812387D01*
X93128227Y-63790443D01*
X93122563Y-63767834D01*
X93119144Y-63744779D01*
X93118000Y-63721500D01*
X93118000Y-63246500D01*
X93119144Y-63223221D01*
X93122563Y-63200166D01*
X93128227Y-63177557D01*
X93136079Y-63155613D01*
X93146044Y-63134543D01*
X93158026Y-63114552D01*
X93171910Y-63095832D01*
X93187562Y-63078562D01*
X93204832Y-63062910D01*
X93223552Y-63049026D01*
X93243543Y-63037044D01*
X93264613Y-63027079D01*
X93286557Y-63019227D01*
X93309166Y-63013563D01*
X93332221Y-63010144D01*
X93355500Y-63009000D01*
X93930500Y-63009000D01*
X93953779Y-63010144D01*
G37*
G36*
X95703779Y-63010144D02*
G01*
X95726834Y-63013563D01*
X95749443Y-63019227D01*
X95771387Y-63027079D01*
X95792457Y-63037044D01*
X95812448Y-63049026D01*
X95831168Y-63062910D01*
X95848438Y-63078562D01*
X95864090Y-63095832D01*
X95877974Y-63114552D01*
X95889956Y-63134543D01*
X95899921Y-63155613D01*
X95907773Y-63177557D01*
X95913437Y-63200166D01*
X95916856Y-63223221D01*
X95918000Y-63246500D01*
X95918000Y-63721500D01*
X95916856Y-63744779D01*
X95913437Y-63767834D01*
X95907773Y-63790443D01*
X95899921Y-63812387D01*
X95889956Y-63833457D01*
X95877974Y-63853448D01*
X95864090Y-63872168D01*
X95848438Y-63889438D01*
X95831168Y-63905090D01*
X95812448Y-63918974D01*
X95792457Y-63930956D01*
X95771387Y-63940921D01*
X95749443Y-63948773D01*
X95726834Y-63954437D01*
X95703779Y-63957856D01*
X95680500Y-63959000D01*
X95105500Y-63959000D01*
X95082221Y-63957856D01*
X95059166Y-63954437D01*
X95036557Y-63948773D01*
X95014613Y-63940921D01*
X94993543Y-63930956D01*
X94973552Y-63918974D01*
X94954832Y-63905090D01*
X94937562Y-63889438D01*
X94921910Y-63872168D01*
X94908026Y-63853448D01*
X94896044Y-63833457D01*
X94886079Y-63812387D01*
X94878227Y-63790443D01*
X94872563Y-63767834D01*
X94869144Y-63744779D01*
X94868000Y-63721500D01*
X94868000Y-63246500D01*
X94869144Y-63223221D01*
X94872563Y-63200166D01*
X94878227Y-63177557D01*
X94886079Y-63155613D01*
X94896044Y-63134543D01*
X94908026Y-63114552D01*
X94921910Y-63095832D01*
X94937562Y-63078562D01*
X94954832Y-63062910D01*
X94973552Y-63049026D01*
X94993543Y-63037044D01*
X95014613Y-63027079D01*
X95036557Y-63019227D01*
X95059166Y-63013563D01*
X95082221Y-63010144D01*
X95105500Y-63009000D01*
X95680500Y-63009000D01*
X95703779Y-63010144D01*
G37*
G36*
X71041779Y-54664144D02*
G01*
X71064834Y-54667563D01*
X71087443Y-54673227D01*
X71109387Y-54681079D01*
X71130457Y-54691044D01*
X71150448Y-54703026D01*
X71169168Y-54716910D01*
X71186438Y-54732562D01*
X71202090Y-54749832D01*
X71215974Y-54768552D01*
X71227956Y-54788543D01*
X71237921Y-54809613D01*
X71245773Y-54831557D01*
X71251437Y-54854166D01*
X71254856Y-54877221D01*
X71256000Y-54900500D01*
X71256000Y-55375500D01*
X71254856Y-55398779D01*
X71251437Y-55421834D01*
X71245773Y-55444443D01*
X71237921Y-55466387D01*
X71227956Y-55487457D01*
X71215974Y-55507448D01*
X71202090Y-55526168D01*
X71186438Y-55543438D01*
X71169168Y-55559090D01*
X71150448Y-55572974D01*
X71130457Y-55584956D01*
X71109387Y-55594921D01*
X71087443Y-55602773D01*
X71064834Y-55608437D01*
X71041779Y-55611856D01*
X71018500Y-55613000D01*
X70443500Y-55613000D01*
X70420221Y-55611856D01*
X70397166Y-55608437D01*
X70374557Y-55602773D01*
X70352613Y-55594921D01*
X70331543Y-55584956D01*
X70311552Y-55572974D01*
X70292832Y-55559090D01*
X70275562Y-55543438D01*
X70259910Y-55526168D01*
X70246026Y-55507448D01*
X70234044Y-55487457D01*
X70224079Y-55466387D01*
X70216227Y-55444443D01*
X70210563Y-55421834D01*
X70207144Y-55398779D01*
X70206000Y-55375500D01*
X70206000Y-54900500D01*
X70207144Y-54877221D01*
X70210563Y-54854166D01*
X70216227Y-54831557D01*
X70224079Y-54809613D01*
X70234044Y-54788543D01*
X70246026Y-54768552D01*
X70259910Y-54749832D01*
X70275562Y-54732562D01*
X70292832Y-54716910D01*
X70311552Y-54703026D01*
X70331543Y-54691044D01*
X70352613Y-54681079D01*
X70374557Y-54673227D01*
X70397166Y-54667563D01*
X70420221Y-54664144D01*
X70443500Y-54663000D01*
X71018500Y-54663000D01*
X71041779Y-54664144D01*
G37*
G36*
X69291779Y-54664144D02*
G01*
X69314834Y-54667563D01*
X69337443Y-54673227D01*
X69359387Y-54681079D01*
X69380457Y-54691044D01*
X69400448Y-54703026D01*
X69419168Y-54716910D01*
X69436438Y-54732562D01*
X69452090Y-54749832D01*
X69465974Y-54768552D01*
X69477956Y-54788543D01*
X69487921Y-54809613D01*
X69495773Y-54831557D01*
X69501437Y-54854166D01*
X69504856Y-54877221D01*
X69506000Y-54900500D01*
X69506000Y-55375500D01*
X69504856Y-55398779D01*
X69501437Y-55421834D01*
X69495773Y-55444443D01*
X69487921Y-55466387D01*
X69477956Y-55487457D01*
X69465974Y-55507448D01*
X69452090Y-55526168D01*
X69436438Y-55543438D01*
X69419168Y-55559090D01*
X69400448Y-55572974D01*
X69380457Y-55584956D01*
X69359387Y-55594921D01*
X69337443Y-55602773D01*
X69314834Y-55608437D01*
X69291779Y-55611856D01*
X69268500Y-55613000D01*
X68693500Y-55613000D01*
X68670221Y-55611856D01*
X68647166Y-55608437D01*
X68624557Y-55602773D01*
X68602613Y-55594921D01*
X68581543Y-55584956D01*
X68561552Y-55572974D01*
X68542832Y-55559090D01*
X68525562Y-55543438D01*
X68509910Y-55526168D01*
X68496026Y-55507448D01*
X68484044Y-55487457D01*
X68474079Y-55466387D01*
X68466227Y-55444443D01*
X68460563Y-55421834D01*
X68457144Y-55398779D01*
X68456000Y-55375500D01*
X68456000Y-54900500D01*
X68457144Y-54877221D01*
X68460563Y-54854166D01*
X68466227Y-54831557D01*
X68474079Y-54809613D01*
X68484044Y-54788543D01*
X68496026Y-54768552D01*
X68509910Y-54749832D01*
X68525562Y-54732562D01*
X68542832Y-54716910D01*
X68561552Y-54703026D01*
X68581543Y-54691044D01*
X68602613Y-54681079D01*
X68624557Y-54673227D01*
X68647166Y-54667563D01*
X68670221Y-54664144D01*
X68693500Y-54663000D01*
X69268500Y-54663000D01*
X69291779Y-54664144D01*
G37*
G36*
X71132779Y-56279144D02*
G01*
X71155834Y-56282563D01*
X71178443Y-56288227D01*
X71200387Y-56296079D01*
X71221457Y-56306044D01*
X71241448Y-56318026D01*
X71260168Y-56331910D01*
X71277438Y-56347562D01*
X71293090Y-56364832D01*
X71306974Y-56383552D01*
X71318956Y-56403543D01*
X71328921Y-56424613D01*
X71336773Y-56446557D01*
X71342437Y-56469166D01*
X71345856Y-56492221D01*
X71347000Y-56515500D01*
X71347000Y-57090500D01*
X71345856Y-57113779D01*
X71342437Y-57136834D01*
X71336773Y-57159443D01*
X71328921Y-57181387D01*
X71318956Y-57202457D01*
X71306974Y-57222448D01*
X71293090Y-57241168D01*
X71277438Y-57258438D01*
X71260168Y-57274090D01*
X71241448Y-57287974D01*
X71221457Y-57299956D01*
X71200387Y-57309921D01*
X71178443Y-57317773D01*
X71155834Y-57323437D01*
X71132779Y-57326856D01*
X71109500Y-57328000D01*
X70634500Y-57328000D01*
X70611221Y-57326856D01*
X70588166Y-57323437D01*
X70565557Y-57317773D01*
X70543613Y-57309921D01*
X70522543Y-57299956D01*
X70502552Y-57287974D01*
X70483832Y-57274090D01*
X70466562Y-57258438D01*
X70450910Y-57241168D01*
X70437026Y-57222448D01*
X70425044Y-57202457D01*
X70415079Y-57181387D01*
X70407227Y-57159443D01*
X70401563Y-57136834D01*
X70398144Y-57113779D01*
X70397000Y-57090500D01*
X70397000Y-56515500D01*
X70398144Y-56492221D01*
X70401563Y-56469166D01*
X70407227Y-56446557D01*
X70415079Y-56424613D01*
X70425044Y-56403543D01*
X70437026Y-56383552D01*
X70450910Y-56364832D01*
X70466562Y-56347562D01*
X70483832Y-56331910D01*
X70502552Y-56318026D01*
X70522543Y-56306044D01*
X70543613Y-56296079D01*
X70565557Y-56288227D01*
X70588166Y-56282563D01*
X70611221Y-56279144D01*
X70634500Y-56278000D01*
X71109500Y-56278000D01*
X71132779Y-56279144D01*
G37*
G36*
X71132779Y-58029144D02*
G01*
X71155834Y-58032563D01*
X71178443Y-58038227D01*
X71200387Y-58046079D01*
X71221457Y-58056044D01*
X71241448Y-58068026D01*
X71260168Y-58081910D01*
X71277438Y-58097562D01*
X71293090Y-58114832D01*
X71306974Y-58133552D01*
X71318956Y-58153543D01*
X71328921Y-58174613D01*
X71336773Y-58196557D01*
X71342437Y-58219166D01*
X71345856Y-58242221D01*
X71347000Y-58265500D01*
X71347000Y-58840500D01*
X71345856Y-58863779D01*
X71342437Y-58886834D01*
X71336773Y-58909443D01*
X71328921Y-58931387D01*
X71318956Y-58952457D01*
X71306974Y-58972448D01*
X71293090Y-58991168D01*
X71277438Y-59008438D01*
X71260168Y-59024090D01*
X71241448Y-59037974D01*
X71221457Y-59049956D01*
X71200387Y-59059921D01*
X71178443Y-59067773D01*
X71155834Y-59073437D01*
X71132779Y-59076856D01*
X71109500Y-59078000D01*
X70634500Y-59078000D01*
X70611221Y-59076856D01*
X70588166Y-59073437D01*
X70565557Y-59067773D01*
X70543613Y-59059921D01*
X70522543Y-59049956D01*
X70502552Y-59037974D01*
X70483832Y-59024090D01*
X70466562Y-59008438D01*
X70450910Y-58991168D01*
X70437026Y-58972448D01*
X70425044Y-58952457D01*
X70415079Y-58931387D01*
X70407227Y-58909443D01*
X70401563Y-58886834D01*
X70398144Y-58863779D01*
X70397000Y-58840500D01*
X70397000Y-58265500D01*
X70398144Y-58242221D01*
X70401563Y-58219166D01*
X70407227Y-58196557D01*
X70415079Y-58174613D01*
X70425044Y-58153543D01*
X70437026Y-58133552D01*
X70450910Y-58114832D01*
X70466562Y-58097562D01*
X70483832Y-58081910D01*
X70502552Y-58068026D01*
X70522543Y-58056044D01*
X70543613Y-58046079D01*
X70565557Y-58038227D01*
X70588166Y-58032563D01*
X70611221Y-58029144D01*
X70634500Y-58028000D01*
X71109500Y-58028000D01*
X71132779Y-58029144D01*
G37*
D17*
X74334000Y-52217000D03*
X74334000Y-53487000D03*
X74334000Y-54757000D03*
X74334000Y-56027000D03*
X81634000Y-56027000D03*
X81634000Y-54757000D03*
X81634000Y-53487000D03*
X81634000Y-52217000D03*
D10*
G36*
X67570779Y-72261144D02*
G01*
X67593834Y-72264563D01*
X67616443Y-72270227D01*
X67638387Y-72278079D01*
X67659457Y-72288044D01*
X67679448Y-72300026D01*
X67698168Y-72313910D01*
X67715438Y-72329562D01*
X67731090Y-72346832D01*
X67744974Y-72365552D01*
X67756956Y-72385543D01*
X67766921Y-72406613D01*
X67774773Y-72428557D01*
X67780437Y-72451166D01*
X67783856Y-72474221D01*
X67785000Y-72497500D01*
X67785000Y-73072500D01*
X67783856Y-73095779D01*
X67780437Y-73118834D01*
X67774773Y-73141443D01*
X67766921Y-73163387D01*
X67756956Y-73184457D01*
X67744974Y-73204448D01*
X67731090Y-73223168D01*
X67715438Y-73240438D01*
X67698168Y-73256090D01*
X67679448Y-73269974D01*
X67659457Y-73281956D01*
X67638387Y-73291921D01*
X67616443Y-73299773D01*
X67593834Y-73305437D01*
X67570779Y-73308856D01*
X67547500Y-73310000D01*
X67072500Y-73310000D01*
X67049221Y-73308856D01*
X67026166Y-73305437D01*
X67003557Y-73299773D01*
X66981613Y-73291921D01*
X66960543Y-73281956D01*
X66940552Y-73269974D01*
X66921832Y-73256090D01*
X66904562Y-73240438D01*
X66888910Y-73223168D01*
X66875026Y-73204448D01*
X66863044Y-73184457D01*
X66853079Y-73163387D01*
X66845227Y-73141443D01*
X66839563Y-73118834D01*
X66836144Y-73095779D01*
X66835000Y-73072500D01*
X66835000Y-72497500D01*
X66836144Y-72474221D01*
X66839563Y-72451166D01*
X66845227Y-72428557D01*
X66853079Y-72406613D01*
X66863044Y-72385543D01*
X66875026Y-72365552D01*
X66888910Y-72346832D01*
X66904562Y-72329562D01*
X66921832Y-72313910D01*
X66940552Y-72300026D01*
X66960543Y-72288044D01*
X66981613Y-72278079D01*
X67003557Y-72270227D01*
X67026166Y-72264563D01*
X67049221Y-72261144D01*
X67072500Y-72260000D01*
X67547500Y-72260000D01*
X67570779Y-72261144D01*
G37*
G36*
X67570779Y-74011144D02*
G01*
X67593834Y-74014563D01*
X67616443Y-74020227D01*
X67638387Y-74028079D01*
X67659457Y-74038044D01*
X67679448Y-74050026D01*
X67698168Y-74063910D01*
X67715438Y-74079562D01*
X67731090Y-74096832D01*
X67744974Y-74115552D01*
X67756956Y-74135543D01*
X67766921Y-74156613D01*
X67774773Y-74178557D01*
X67780437Y-74201166D01*
X67783856Y-74224221D01*
X67785000Y-74247500D01*
X67785000Y-74822500D01*
X67783856Y-74845779D01*
X67780437Y-74868834D01*
X67774773Y-74891443D01*
X67766921Y-74913387D01*
X67756956Y-74934457D01*
X67744974Y-74954448D01*
X67731090Y-74973168D01*
X67715438Y-74990438D01*
X67698168Y-75006090D01*
X67679448Y-75019974D01*
X67659457Y-75031956D01*
X67638387Y-75041921D01*
X67616443Y-75049773D01*
X67593834Y-75055437D01*
X67570779Y-75058856D01*
X67547500Y-75060000D01*
X67072500Y-75060000D01*
X67049221Y-75058856D01*
X67026166Y-75055437D01*
X67003557Y-75049773D01*
X66981613Y-75041921D01*
X66960543Y-75031956D01*
X66940552Y-75019974D01*
X66921832Y-75006090D01*
X66904562Y-74990438D01*
X66888910Y-74973168D01*
X66875026Y-74954448D01*
X66863044Y-74934457D01*
X66853079Y-74913387D01*
X66845227Y-74891443D01*
X66839563Y-74868834D01*
X66836144Y-74845779D01*
X66835000Y-74822500D01*
X66835000Y-74247500D01*
X66836144Y-74224221D01*
X66839563Y-74201166D01*
X66845227Y-74178557D01*
X66853079Y-74156613D01*
X66863044Y-74135543D01*
X66875026Y-74115552D01*
X66888910Y-74096832D01*
X66904562Y-74079562D01*
X66921832Y-74063910D01*
X66940552Y-74050026D01*
X66960543Y-74038044D01*
X66981613Y-74028079D01*
X67003557Y-74020227D01*
X67026166Y-74014563D01*
X67049221Y-74011144D01*
X67072500Y-74010000D01*
X67547500Y-74010000D01*
X67570779Y-74011144D01*
G37*
G36*
X69094779Y-74011144D02*
G01*
X69117834Y-74014563D01*
X69140443Y-74020227D01*
X69162387Y-74028079D01*
X69183457Y-74038044D01*
X69203448Y-74050026D01*
X69222168Y-74063910D01*
X69239438Y-74079562D01*
X69255090Y-74096832D01*
X69268974Y-74115552D01*
X69280956Y-74135543D01*
X69290921Y-74156613D01*
X69298773Y-74178557D01*
X69304437Y-74201166D01*
X69307856Y-74224221D01*
X69309000Y-74247500D01*
X69309000Y-74822500D01*
X69307856Y-74845779D01*
X69304437Y-74868834D01*
X69298773Y-74891443D01*
X69290921Y-74913387D01*
X69280956Y-74934457D01*
X69268974Y-74954448D01*
X69255090Y-74973168D01*
X69239438Y-74990438D01*
X69222168Y-75006090D01*
X69203448Y-75019974D01*
X69183457Y-75031956D01*
X69162387Y-75041921D01*
X69140443Y-75049773D01*
X69117834Y-75055437D01*
X69094779Y-75058856D01*
X69071500Y-75060000D01*
X68596500Y-75060000D01*
X68573221Y-75058856D01*
X68550166Y-75055437D01*
X68527557Y-75049773D01*
X68505613Y-75041921D01*
X68484543Y-75031956D01*
X68464552Y-75019974D01*
X68445832Y-75006090D01*
X68428562Y-74990438D01*
X68412910Y-74973168D01*
X68399026Y-74954448D01*
X68387044Y-74934457D01*
X68377079Y-74913387D01*
X68369227Y-74891443D01*
X68363563Y-74868834D01*
X68360144Y-74845779D01*
X68359000Y-74822500D01*
X68359000Y-74247500D01*
X68360144Y-74224221D01*
X68363563Y-74201166D01*
X68369227Y-74178557D01*
X68377079Y-74156613D01*
X68387044Y-74135543D01*
X68399026Y-74115552D01*
X68412910Y-74096832D01*
X68428562Y-74079562D01*
X68445832Y-74063910D01*
X68464552Y-74050026D01*
X68484543Y-74038044D01*
X68505613Y-74028079D01*
X68527557Y-74020227D01*
X68550166Y-74014563D01*
X68573221Y-74011144D01*
X68596500Y-74010000D01*
X69071500Y-74010000D01*
X69094779Y-74011144D01*
G37*
G36*
X69094779Y-72261144D02*
G01*
X69117834Y-72264563D01*
X69140443Y-72270227D01*
X69162387Y-72278079D01*
X69183457Y-72288044D01*
X69203448Y-72300026D01*
X69222168Y-72313910D01*
X69239438Y-72329562D01*
X69255090Y-72346832D01*
X69268974Y-72365552D01*
X69280956Y-72385543D01*
X69290921Y-72406613D01*
X69298773Y-72428557D01*
X69304437Y-72451166D01*
X69307856Y-72474221D01*
X69309000Y-72497500D01*
X69309000Y-73072500D01*
X69307856Y-73095779D01*
X69304437Y-73118834D01*
X69298773Y-73141443D01*
X69290921Y-73163387D01*
X69280956Y-73184457D01*
X69268974Y-73204448D01*
X69255090Y-73223168D01*
X69239438Y-73240438D01*
X69222168Y-73256090D01*
X69203448Y-73269974D01*
X69183457Y-73281956D01*
X69162387Y-73291921D01*
X69140443Y-73299773D01*
X69117834Y-73305437D01*
X69094779Y-73308856D01*
X69071500Y-73310000D01*
X68596500Y-73310000D01*
X68573221Y-73308856D01*
X68550166Y-73305437D01*
X68527557Y-73299773D01*
X68505613Y-73291921D01*
X68484543Y-73281956D01*
X68464552Y-73269974D01*
X68445832Y-73256090D01*
X68428562Y-73240438D01*
X68412910Y-73223168D01*
X68399026Y-73204448D01*
X68387044Y-73184457D01*
X68377079Y-73163387D01*
X68369227Y-73141443D01*
X68363563Y-73118834D01*
X68360144Y-73095779D01*
X68359000Y-73072500D01*
X68359000Y-72497500D01*
X68360144Y-72474221D01*
X68363563Y-72451166D01*
X68369227Y-72428557D01*
X68377079Y-72406613D01*
X68387044Y-72385543D01*
X68399026Y-72365552D01*
X68412910Y-72346832D01*
X68428562Y-72329562D01*
X68445832Y-72313910D01*
X68464552Y-72300026D01*
X68484543Y-72288044D01*
X68505613Y-72278079D01*
X68527557Y-72270227D01*
X68550166Y-72264563D01*
X68573221Y-72261144D01*
X68596500Y-72260000D01*
X69071500Y-72260000D01*
X69094779Y-72261144D01*
G37*
G36*
X52408000Y-79966000D02*
G01*
X51808000Y-80816000D01*
X50808000Y-80816000D01*
X50208000Y-79966000D01*
X52408000Y-79966000D01*
G37*
D18*
X52808000Y-76244000D03*
D19*
X51308000Y-76390500D03*
D18*
X49808000Y-76244000D03*
D20*
X51308000Y-79057500D03*
D10*
G36*
X50208000Y-78147800D02*
G01*
X50908000Y-77147800D01*
X51708000Y-77147800D01*
X52408000Y-78147800D01*
X50208000Y-78147800D01*
G37*
M02*
