M48
; DRILL file {KiCad 5.1.5+dfsg1-2build2} date wto, 14 cze 2022, 14:03:18
; FORMAT={-:-/ absolute / inch / decimal}
; #@! TF.CreationDate,2022-06-14T14:03:18+02:00
; #@! TF.GenerationSoftware,Kicad,Pcbnew,5.1.5+dfsg1-2build2
; #@! TF.FileFunction,Plated,1,2,PTH
FMAT,2
INCH
T1C0.0157
T2C0.0276
T3C0.0295
T4C0.0315
T5C0.0354
T6C0.0394
T7C0.0433
T8C0.0472
T9C0.0512
T10C0.0598
%
G90
G05
T1
X1.79Y-2.37
X1.93Y-2.7
X2.0177Y-2.9094
X2.02Y-3.1125
X2.15Y-3.0
X2.22Y-2.83
X2.4252Y-2.2047
X2.5079Y-2.0995
X2.5197Y-2.2047
X2.57Y-2.87
X2.63Y-2.2
X2.69Y-2.39
X2.72Y-2.13
X2.7362Y-2.5
X2.8898Y-2.5
X2.9134Y-1.8996
X2.97Y-2.27
X2.97Y-2.39
X3.0213Y-2.1194
X3.0213Y-2.2094
X3.0906Y-2.0276
X3.1347Y-2.2708
X3.47Y-2.08
X3.4764Y-1.9961
X3.5827Y-1.9961
X3.6212Y-2.0394
X3.73Y-2.08
X3.7677Y-1.9882
T2
X4.0162Y-3.0044
X4.0162Y-3.0544
X4.0162Y-3.1044
X4.0162Y-3.1544
X4.0162Y-2.7544
X4.0162Y-2.8044
X4.0162Y-2.8544
X4.0162Y-2.9044
T3
X1.99Y-1.91
X2.04Y-1.91
X2.09Y-1.91
X3.3402Y-1.9321
X3.3402Y-2.0108
X3.3402Y-2.0896
X3.3402Y-2.1683
X3.3402Y-2.247
X3.3402Y-2.3258
T4
X2.58Y-3.01
X2.6784Y-3.01
X2.66Y-2.58
X3.06Y-2.58
X2.19Y-1.91
X2.79Y-1.91
X2.19Y-3.14
X2.79Y-3.14
X3.5162Y-2.8794
X3.9162Y-2.8794
X3.5162Y-3.1294
X3.9162Y-3.1294
X2.66Y-2.72
X3.06Y-2.72
X2.39Y-2.04
X2.79Y-2.04
T5
X2.9972Y-2.874
X3.2972Y-2.874
X3.5912Y-2.6044
X3.8912Y-2.6044
T6
X1.5484Y-2.1803
X1.5484Y-2.2803
X1.5484Y-2.7803
X1.5484Y-2.8803
X4.0054Y-2.4719
X4.0054Y-2.5719
X1.5484Y-2.3803
X1.5484Y-2.4803
X1.5484Y-2.5803
X1.5484Y-2.6803
X3.9105Y-1.9044
X4.0105Y-1.9044
T7
X3.1854Y-2.4722
X3.1854Y-2.6494
X3.4413Y-2.4722
X3.4413Y-2.6494
T8
X1.4781Y-2.025
X1.8719Y-2.025
X1.4781Y-3.15
X1.8719Y-3.15
X1.4781Y-1.9
X1.8719Y-1.9
X1.4781Y-3.025
X1.8719Y-3.025
T9
X2.1652Y-2.6228
X2.1654Y-2.22
X2.1652Y-2.426
X2.1654Y-2.9134
X2.1654Y-2.126
X2.1652Y-2.3276
X2.1652Y-2.7213
T10
X3.9254Y-2.0869
X3.9254Y-2.2869
T0
M30
