G04 #@! TF.GenerationSoftware,KiCad,Pcbnew,5.1.5+dfsg1-2build2*
G04 #@! TF.CreationDate,2022-06-14T14:03:14+02:00*
G04 #@! TF.ProjectId,model1,6d6f6465-6c31-42e6-9b69-6361645f7063,rev?*
G04 #@! TF.SameCoordinates,Original*
G04 #@! TF.FileFunction,Legend,Top*
G04 #@! TF.FilePolarity,Positive*
%FSLAX46Y46*%
G04 Gerber Fmt 4.6, Leading zero omitted, Abs format (unit mm)*
G04 Created by KiCad (PCBNEW 5.1.5+dfsg1-2build2) date 2022-06-14 14:03:14*
%MOMM*%
%LPD*%
G04 APERTURE LIST*
%ADD10C,0.120000*%
%ADD11C,0.150000*%
G04 APERTURE END LIST*
D10*
X103500000Y-46500000D02*
X89500000Y-46500000D01*
X103500000Y-81500000D02*
X103500000Y-46500000D01*
X80500000Y-81500000D02*
X103500000Y-81500000D01*
X36000000Y-81500000D02*
X80500000Y-81500000D01*
X36000000Y-49000000D02*
X36000000Y-81500000D01*
X36000000Y-46500000D02*
X89500000Y-46500000D01*
X36000000Y-47000000D02*
X36000000Y-46500000D01*
X36000000Y-49000000D02*
X36000000Y-47000000D01*
X71886000Y-52769267D02*
X71886000Y-52426733D01*
X72906000Y-52769267D02*
X72906000Y-52426733D01*
X72085436Y-70010000D02*
X73289564Y-70010000D01*
X72085436Y-68190000D02*
X73289564Y-68190000D01*
X76684000Y-69088000D02*
X75914000Y-69088000D01*
X68604000Y-69088000D02*
X69374000Y-69088000D01*
X75914000Y-67718000D02*
X69374000Y-67718000D01*
X75914000Y-70458000D02*
X75914000Y-67718000D01*
X69374000Y-70458000D02*
X75914000Y-70458000D01*
X69374000Y-67718000D02*
X69374000Y-70458000D01*
X82050000Y-50229267D02*
X82050000Y-49886733D01*
X81030000Y-50229267D02*
X81030000Y-49886733D01*
X91111000Y-77311000D02*
X98411000Y-77311000D01*
X91111000Y-75311000D02*
X91111000Y-77311000D01*
X98411000Y-75311000D02*
X91111000Y-75311000D01*
X69826000Y-51816000D02*
X69056000Y-51816000D01*
X61746000Y-51816000D02*
X62516000Y-51816000D01*
X69056000Y-50446000D02*
X62516000Y-50446000D01*
X69056000Y-53186000D02*
X69056000Y-50446000D01*
X62516000Y-53186000D02*
X69056000Y-53186000D01*
X62516000Y-50446000D02*
X62516000Y-53186000D01*
X69826000Y-79756000D02*
X67866000Y-79756000D01*
X56666000Y-79756000D02*
X58626000Y-79756000D01*
X67866000Y-78036000D02*
X58626000Y-78036000D01*
X67866000Y-81476000D02*
X67866000Y-78036000D01*
X58626000Y-81476000D02*
X67866000Y-81476000D01*
X58626000Y-78036000D02*
X58626000Y-81476000D01*
X69826000Y-48514000D02*
X67866000Y-48514000D01*
X56666000Y-48514000D02*
X58626000Y-48514000D01*
X67866000Y-46794000D02*
X58626000Y-46794000D01*
X67866000Y-50234000D02*
X67866000Y-46794000D01*
X58626000Y-50234000D02*
X67866000Y-50234000D01*
X58626000Y-46794000D02*
X58626000Y-50234000D01*
X88631000Y-55919000D02*
X88631000Y-49909000D01*
X95451000Y-53669000D02*
X95451000Y-49909000D01*
X88631000Y-49909000D02*
X89891000Y-49909000D01*
X95451000Y-49909000D02*
X94191000Y-49909000D01*
X40660000Y-74490000D02*
X39330000Y-74490000D01*
X40660000Y-73160000D02*
X40660000Y-74490000D01*
X40660000Y-71890000D02*
X38000000Y-71890000D01*
X38000000Y-71890000D02*
X38000000Y-69290000D01*
X40660000Y-71890000D02*
X40660000Y-69290000D01*
X40660000Y-69290000D02*
X38000000Y-69290000D01*
X40660000Y-69410000D02*
X39330000Y-69410000D01*
X40660000Y-68080000D02*
X40660000Y-69410000D01*
X40660000Y-66810000D02*
X38000000Y-66810000D01*
X38000000Y-66810000D02*
X38000000Y-64210000D01*
X40660000Y-66810000D02*
X40660000Y-64210000D01*
X40660000Y-64210000D02*
X38000000Y-64210000D01*
X40660000Y-64330000D02*
X39330000Y-64330000D01*
X40660000Y-63000000D02*
X40660000Y-64330000D01*
X40660000Y-61730000D02*
X38000000Y-61730000D01*
X38000000Y-61730000D02*
X38000000Y-59130000D01*
X40660000Y-61730000D02*
X40660000Y-59130000D01*
X40660000Y-59130000D02*
X38000000Y-59130000D01*
X40660000Y-59250000D02*
X39330000Y-59250000D01*
X40660000Y-57920000D02*
X40660000Y-59250000D01*
X40660000Y-56650000D02*
X38000000Y-56650000D01*
X38000000Y-56650000D02*
X38000000Y-54050000D01*
X40660000Y-56650000D02*
X40660000Y-54050000D01*
X40660000Y-54050000D02*
X38000000Y-54050000D01*
X63320000Y-51865741D02*
X60820000Y-51865741D01*
X62070000Y-50615741D02*
X62070000Y-53115741D01*
X55666000Y-76720000D02*
X54324000Y-76720000D01*
X56185000Y-76680000D02*
X53805000Y-76680000D01*
X56541000Y-76640000D02*
X53449000Y-76640000D01*
X56830000Y-76600000D02*
X53160000Y-76600000D01*
X57079000Y-76560000D02*
X52911000Y-76560000D01*
X57302000Y-76520000D02*
X52688000Y-76520000D01*
X57504000Y-76480000D02*
X52486000Y-76480000D01*
X57691000Y-76440000D02*
X52299000Y-76440000D01*
X57865000Y-76400000D02*
X52125000Y-76400000D01*
X58029000Y-76360000D02*
X51961000Y-76360000D01*
X58184000Y-76320000D02*
X51806000Y-76320000D01*
X58332000Y-76280000D02*
X51658000Y-76280000D01*
X58473000Y-76240000D02*
X51517000Y-76240000D01*
X58608000Y-76200000D02*
X51382000Y-76200000D01*
X58737000Y-76160000D02*
X51253000Y-76160000D01*
X58862000Y-76120000D02*
X51128000Y-76120000D01*
X58983000Y-76080000D02*
X51007000Y-76080000D01*
X59100000Y-76040000D02*
X50890000Y-76040000D01*
X59213000Y-76000000D02*
X50777000Y-76000000D01*
X59323000Y-75960000D02*
X50667000Y-75960000D01*
X59430000Y-75920000D02*
X50560000Y-75920000D01*
X59534000Y-75880000D02*
X50456000Y-75880000D01*
X59636000Y-75840000D02*
X50354000Y-75840000D01*
X59735000Y-75800000D02*
X50255000Y-75800000D01*
X59831000Y-75760000D02*
X50159000Y-75760000D01*
X59926000Y-75720000D02*
X50064000Y-75720000D01*
X60018000Y-75680000D02*
X49972000Y-75680000D01*
X60109000Y-75640000D02*
X49881000Y-75640000D01*
X60197000Y-75600000D02*
X49793000Y-75600000D01*
X60284000Y-75560000D02*
X49706000Y-75560000D01*
X60369000Y-75520000D02*
X49621000Y-75520000D01*
X60452000Y-75480000D02*
X49538000Y-75480000D01*
X60534000Y-75440000D02*
X49456000Y-75440000D01*
X60615000Y-75400000D02*
X49375000Y-75400000D01*
X60694000Y-75360000D02*
X49296000Y-75360000D01*
X60771000Y-75320000D02*
X49219000Y-75320000D01*
X60848000Y-75280000D02*
X49142000Y-75280000D01*
X60923000Y-75240000D02*
X49067000Y-75240000D01*
X60997000Y-75200000D02*
X48993000Y-75200000D01*
X61070000Y-75160000D02*
X48920000Y-75160000D01*
X61141000Y-75120000D02*
X48849000Y-75120000D01*
X61212000Y-75080000D02*
X48778000Y-75080000D01*
X61281000Y-75040000D02*
X48709000Y-75040000D01*
X61350000Y-75000000D02*
X48640000Y-75000000D01*
X61418000Y-74960000D02*
X48572000Y-74960000D01*
X61484000Y-74920000D02*
X48506000Y-74920000D01*
X61550000Y-74880000D02*
X48440000Y-74880000D01*
X61615000Y-74840000D02*
X48375000Y-74840000D01*
X61679000Y-74800000D02*
X48311000Y-74800000D01*
X61742000Y-74760000D02*
X48248000Y-74760000D01*
X61804000Y-74720000D02*
X48186000Y-74720000D01*
X61866000Y-74680000D02*
X48124000Y-74680000D01*
X61926000Y-74640000D02*
X48064000Y-74640000D01*
X61986000Y-74600000D02*
X48004000Y-74600000D01*
X62046000Y-74560000D02*
X47944000Y-74560000D01*
X62104000Y-74520000D02*
X47886000Y-74520000D01*
X62162000Y-74480000D02*
X47828000Y-74480000D01*
X62219000Y-74440000D02*
X47771000Y-74440000D01*
X62276000Y-74400000D02*
X47714000Y-74400000D01*
X62332000Y-74360000D02*
X47658000Y-74360000D01*
X62387000Y-74320000D02*
X47603000Y-74320000D01*
X62441000Y-74280000D02*
X47549000Y-74280000D01*
X62495000Y-74240000D02*
X47495000Y-74240000D01*
X62549000Y-74200000D02*
X47441000Y-74200000D01*
X62602000Y-74160000D02*
X47388000Y-74160000D01*
X62654000Y-74120000D02*
X47336000Y-74120000D01*
X62706000Y-74080000D02*
X47284000Y-74080000D01*
X62757000Y-74040000D02*
X47233000Y-74040000D01*
X62807000Y-74000000D02*
X47183000Y-74000000D01*
X62857000Y-73960000D02*
X47133000Y-73960000D01*
X62907000Y-73920000D02*
X47083000Y-73920000D01*
X62956000Y-73880000D02*
X47034000Y-73880000D01*
X63004000Y-73840000D02*
X46986000Y-73840000D01*
X63053000Y-73800000D02*
X46937000Y-73800000D01*
X63100000Y-73760000D02*
X46890000Y-73760000D01*
X63147000Y-73720000D02*
X46843000Y-73720000D01*
X63194000Y-73680000D02*
X46796000Y-73680000D01*
X63240000Y-73640000D02*
X46750000Y-73640000D01*
X63286000Y-73600000D02*
X46704000Y-73600000D01*
X63331000Y-73560000D02*
X46659000Y-73560000D01*
X63376000Y-73520000D02*
X46614000Y-73520000D01*
X63420000Y-73480000D02*
X46570000Y-73480000D01*
X63464000Y-73440000D02*
X46526000Y-73440000D01*
X63508000Y-73400000D02*
X46482000Y-73400000D01*
X63551000Y-73360000D02*
X46439000Y-73360000D01*
X63594000Y-73320000D02*
X46396000Y-73320000D01*
X63636000Y-73280000D02*
X46354000Y-73280000D01*
X63678000Y-73240000D02*
X46312000Y-73240000D01*
X63720000Y-73200000D02*
X46270000Y-73200000D01*
X63761000Y-73160000D02*
X46229000Y-73160000D01*
X63802000Y-73120000D02*
X46188000Y-73120000D01*
X63843000Y-73080000D02*
X46147000Y-73080000D01*
X63883000Y-73040000D02*
X46107000Y-73040000D01*
X63923000Y-73000000D02*
X46067000Y-73000000D01*
X63962000Y-72960000D02*
X46028000Y-72960000D01*
X64001000Y-72920000D02*
X45989000Y-72920000D01*
X64040000Y-72880000D02*
X45950000Y-72880000D01*
X64078000Y-72840000D02*
X45912000Y-72840000D01*
X64116000Y-72800000D02*
X45874000Y-72800000D01*
X64154000Y-72760000D02*
X45836000Y-72760000D01*
X64192000Y-72720000D02*
X45798000Y-72720000D01*
X64229000Y-72680000D02*
X45761000Y-72680000D01*
X64265000Y-72640000D02*
X45725000Y-72640000D01*
X64302000Y-72600000D02*
X45688000Y-72600000D01*
X64338000Y-72560000D02*
X45652000Y-72560000D01*
X64374000Y-72520000D02*
X45616000Y-72520000D01*
X64409000Y-72480000D02*
X45581000Y-72480000D01*
X64445000Y-72440000D02*
X45545000Y-72440000D01*
X64479000Y-72400000D02*
X45511000Y-72400000D01*
X64514000Y-72360000D02*
X45476000Y-72360000D01*
X64548000Y-72320000D02*
X45442000Y-72320000D01*
X64582000Y-72281000D02*
X45408000Y-72281000D01*
X64616000Y-72241000D02*
X45374000Y-72241000D01*
X64650000Y-72201000D02*
X45340000Y-72201000D01*
X64683000Y-72161000D02*
X45307000Y-72161000D01*
X64716000Y-72121000D02*
X45274000Y-72121000D01*
X64748000Y-72081000D02*
X45242000Y-72081000D01*
X64781000Y-72041000D02*
X45209000Y-72041000D01*
X64813000Y-72001000D02*
X45177000Y-72001000D01*
X64845000Y-71961000D02*
X45145000Y-71961000D01*
X64876000Y-71921000D02*
X45114000Y-71921000D01*
X64908000Y-71881000D02*
X45082000Y-71881000D01*
X64939000Y-71841000D02*
X45051000Y-71841000D01*
X64970000Y-71801000D02*
X45020000Y-71801000D01*
X65000000Y-71761000D02*
X44990000Y-71761000D01*
X65030000Y-71721000D02*
X44960000Y-71721000D01*
X65060000Y-71681000D02*
X44930000Y-71681000D01*
X65090000Y-71641000D02*
X44900000Y-71641000D01*
X65120000Y-71601000D02*
X44870000Y-71601000D01*
X65149000Y-71561000D02*
X44841000Y-71561000D01*
X65178000Y-71521000D02*
X44812000Y-71521000D01*
X65207000Y-71481000D02*
X44783000Y-71481000D01*
X65236000Y-71441000D02*
X44754000Y-71441000D01*
X65264000Y-71401000D02*
X44726000Y-71401000D01*
X65292000Y-71361000D02*
X44698000Y-71361000D01*
X52755000Y-71321000D02*
X44670000Y-71321000D01*
X65320000Y-71321000D02*
X57235000Y-71321000D01*
X52755000Y-71281000D02*
X44642000Y-71281000D01*
X65348000Y-71281000D02*
X57235000Y-71281000D01*
X52755000Y-71241000D02*
X44615000Y-71241000D01*
X65375000Y-71241000D02*
X57235000Y-71241000D01*
X52755000Y-71201000D02*
X44588000Y-71201000D01*
X65402000Y-71201000D02*
X57235000Y-71201000D01*
X52755000Y-71161000D02*
X44561000Y-71161000D01*
X65429000Y-71161000D02*
X57235000Y-71161000D01*
X52755000Y-71121000D02*
X44534000Y-71121000D01*
X65456000Y-71121000D02*
X57235000Y-71121000D01*
X52755000Y-71081000D02*
X44507000Y-71081000D01*
X65483000Y-71081000D02*
X57235000Y-71081000D01*
X52755000Y-71041000D02*
X44481000Y-71041000D01*
X65509000Y-71041000D02*
X57235000Y-71041000D01*
X52755000Y-71001000D02*
X44455000Y-71001000D01*
X65535000Y-71001000D02*
X57235000Y-71001000D01*
X52755000Y-70961000D02*
X44429000Y-70961000D01*
X65561000Y-70961000D02*
X57235000Y-70961000D01*
X52755000Y-70921000D02*
X44403000Y-70921000D01*
X65587000Y-70921000D02*
X57235000Y-70921000D01*
X52755000Y-70881000D02*
X44378000Y-70881000D01*
X65612000Y-70881000D02*
X57235000Y-70881000D01*
X52755000Y-70841000D02*
X44352000Y-70841000D01*
X65638000Y-70841000D02*
X57235000Y-70841000D01*
X52755000Y-70801000D02*
X44327000Y-70801000D01*
X65663000Y-70801000D02*
X57235000Y-70801000D01*
X52755000Y-70761000D02*
X44303000Y-70761000D01*
X65687000Y-70761000D02*
X57235000Y-70761000D01*
X52755000Y-70721000D02*
X44278000Y-70721000D01*
X65712000Y-70721000D02*
X57235000Y-70721000D01*
X52755000Y-70681000D02*
X44253000Y-70681000D01*
X65737000Y-70681000D02*
X57235000Y-70681000D01*
X52755000Y-70641000D02*
X44229000Y-70641000D01*
X65761000Y-70641000D02*
X57235000Y-70641000D01*
X52755000Y-70601000D02*
X44205000Y-70601000D01*
X65785000Y-70601000D02*
X57235000Y-70601000D01*
X52755000Y-70561000D02*
X44181000Y-70561000D01*
X65809000Y-70561000D02*
X57235000Y-70561000D01*
X52755000Y-70521000D02*
X44158000Y-70521000D01*
X65832000Y-70521000D02*
X57235000Y-70521000D01*
X52755000Y-70481000D02*
X44134000Y-70481000D01*
X65856000Y-70481000D02*
X57235000Y-70481000D01*
X52755000Y-70441000D02*
X44111000Y-70441000D01*
X65879000Y-70441000D02*
X57235000Y-70441000D01*
X52755000Y-70401000D02*
X44088000Y-70401000D01*
X65902000Y-70401000D02*
X57235000Y-70401000D01*
X52755000Y-70361000D02*
X44065000Y-70361000D01*
X65925000Y-70361000D02*
X57235000Y-70361000D01*
X52755000Y-70321000D02*
X44042000Y-70321000D01*
X65948000Y-70321000D02*
X57235000Y-70321000D01*
X52755000Y-70281000D02*
X44020000Y-70281000D01*
X65970000Y-70281000D02*
X57235000Y-70281000D01*
X52755000Y-70241000D02*
X43998000Y-70241000D01*
X65992000Y-70241000D02*
X57235000Y-70241000D01*
X52755000Y-70201000D02*
X43976000Y-70201000D01*
X66014000Y-70201000D02*
X57235000Y-70201000D01*
X52755000Y-70161000D02*
X43954000Y-70161000D01*
X66036000Y-70161000D02*
X57235000Y-70161000D01*
X52755000Y-70121000D02*
X43932000Y-70121000D01*
X66058000Y-70121000D02*
X57235000Y-70121000D01*
X52755000Y-70081000D02*
X43911000Y-70081000D01*
X66079000Y-70081000D02*
X57235000Y-70081000D01*
X52755000Y-70041000D02*
X43889000Y-70041000D01*
X66101000Y-70041000D02*
X57235000Y-70041000D01*
X52755000Y-70001000D02*
X43868000Y-70001000D01*
X66122000Y-70001000D02*
X57235000Y-70001000D01*
X52755000Y-69961000D02*
X43847000Y-69961000D01*
X66143000Y-69961000D02*
X57235000Y-69961000D01*
X52755000Y-69921000D02*
X43826000Y-69921000D01*
X66164000Y-69921000D02*
X57235000Y-69921000D01*
X52755000Y-69881000D02*
X43806000Y-69881000D01*
X66184000Y-69881000D02*
X57235000Y-69881000D01*
X52755000Y-69841000D02*
X43785000Y-69841000D01*
X66205000Y-69841000D02*
X57235000Y-69841000D01*
X52755000Y-69801000D02*
X43765000Y-69801000D01*
X66225000Y-69801000D02*
X57235000Y-69801000D01*
X52755000Y-69761000D02*
X43745000Y-69761000D01*
X66245000Y-69761000D02*
X57235000Y-69761000D01*
X52755000Y-69721000D02*
X43725000Y-69721000D01*
X66265000Y-69721000D02*
X57235000Y-69721000D01*
X52755000Y-69681000D02*
X43705000Y-69681000D01*
X66285000Y-69681000D02*
X57235000Y-69681000D01*
X52755000Y-69641000D02*
X43686000Y-69641000D01*
X66304000Y-69641000D02*
X57235000Y-69641000D01*
X52755000Y-69601000D02*
X43666000Y-69601000D01*
X66324000Y-69601000D02*
X57235000Y-69601000D01*
X52755000Y-69561000D02*
X43647000Y-69561000D01*
X66343000Y-69561000D02*
X57235000Y-69561000D01*
X52755000Y-69521000D02*
X43628000Y-69521000D01*
X66362000Y-69521000D02*
X57235000Y-69521000D01*
X52755000Y-69481000D02*
X43609000Y-69481000D01*
X66381000Y-69481000D02*
X57235000Y-69481000D01*
X52755000Y-69441000D02*
X43591000Y-69441000D01*
X66399000Y-69441000D02*
X57235000Y-69441000D01*
X52755000Y-69401000D02*
X43572000Y-69401000D01*
X66418000Y-69401000D02*
X57235000Y-69401000D01*
X52755000Y-69361000D02*
X43554000Y-69361000D01*
X66436000Y-69361000D02*
X57235000Y-69361000D01*
X52755000Y-69321000D02*
X43536000Y-69321000D01*
X66454000Y-69321000D02*
X57235000Y-69321000D01*
X52755000Y-69281000D02*
X43518000Y-69281000D01*
X66472000Y-69281000D02*
X57235000Y-69281000D01*
X52755000Y-69241000D02*
X43500000Y-69241000D01*
X66490000Y-69241000D02*
X57235000Y-69241000D01*
X52755000Y-69201000D02*
X43482000Y-69201000D01*
X66508000Y-69201000D02*
X57235000Y-69201000D01*
X52755000Y-69161000D02*
X43465000Y-69161000D01*
X66525000Y-69161000D02*
X57235000Y-69161000D01*
X52755000Y-69121000D02*
X43447000Y-69121000D01*
X66543000Y-69121000D02*
X57235000Y-69121000D01*
X52755000Y-69081000D02*
X43430000Y-69081000D01*
X66560000Y-69081000D02*
X57235000Y-69081000D01*
X52755000Y-69041000D02*
X43413000Y-69041000D01*
X66577000Y-69041000D02*
X57235000Y-69041000D01*
X52755000Y-69001000D02*
X43396000Y-69001000D01*
X66594000Y-69001000D02*
X57235000Y-69001000D01*
X52755000Y-68961000D02*
X43380000Y-68961000D01*
X66610000Y-68961000D02*
X57235000Y-68961000D01*
X52755000Y-68921000D02*
X43363000Y-68921000D01*
X66627000Y-68921000D02*
X57235000Y-68921000D01*
X52755000Y-68881000D02*
X43347000Y-68881000D01*
X66643000Y-68881000D02*
X57235000Y-68881000D01*
X52755000Y-68841000D02*
X43330000Y-68841000D01*
X66660000Y-68841000D02*
X57235000Y-68841000D01*
X52755000Y-68801000D02*
X43314000Y-68801000D01*
X66676000Y-68801000D02*
X57235000Y-68801000D01*
X52755000Y-68761000D02*
X43298000Y-68761000D01*
X66692000Y-68761000D02*
X57235000Y-68761000D01*
X52755000Y-68721000D02*
X43283000Y-68721000D01*
X66707000Y-68721000D02*
X57235000Y-68721000D01*
X52755000Y-68681000D02*
X43267000Y-68681000D01*
X66723000Y-68681000D02*
X57235000Y-68681000D01*
X52755000Y-68641000D02*
X43252000Y-68641000D01*
X66738000Y-68641000D02*
X57235000Y-68641000D01*
X52755000Y-68601000D02*
X43236000Y-68601000D01*
X66754000Y-68601000D02*
X57235000Y-68601000D01*
X52755000Y-68561000D02*
X43221000Y-68561000D01*
X66769000Y-68561000D02*
X57235000Y-68561000D01*
X52755000Y-68521000D02*
X43206000Y-68521000D01*
X66784000Y-68521000D02*
X57235000Y-68521000D01*
X52755000Y-68481000D02*
X43192000Y-68481000D01*
X66798000Y-68481000D02*
X57235000Y-68481000D01*
X52755000Y-68441000D02*
X43177000Y-68441000D01*
X66813000Y-68441000D02*
X57235000Y-68441000D01*
X52755000Y-68401000D02*
X43162000Y-68401000D01*
X66828000Y-68401000D02*
X57235000Y-68401000D01*
X52755000Y-68361000D02*
X43148000Y-68361000D01*
X66842000Y-68361000D02*
X57235000Y-68361000D01*
X52755000Y-68321000D02*
X43134000Y-68321000D01*
X66856000Y-68321000D02*
X57235000Y-68321000D01*
X52755000Y-68281000D02*
X43120000Y-68281000D01*
X66870000Y-68281000D02*
X57235000Y-68281000D01*
X52755000Y-68241000D02*
X43106000Y-68241000D01*
X66884000Y-68241000D02*
X57235000Y-68241000D01*
X52755000Y-68201000D02*
X43092000Y-68201000D01*
X66898000Y-68201000D02*
X57235000Y-68201000D01*
X52755000Y-68161000D02*
X43079000Y-68161000D01*
X66911000Y-68161000D02*
X57235000Y-68161000D01*
X52755000Y-68121000D02*
X43065000Y-68121000D01*
X66925000Y-68121000D02*
X57235000Y-68121000D01*
X52755000Y-68081000D02*
X43052000Y-68081000D01*
X66938000Y-68081000D02*
X57235000Y-68081000D01*
X52755000Y-68041000D02*
X43039000Y-68041000D01*
X66951000Y-68041000D02*
X57235000Y-68041000D01*
X52755000Y-68001000D02*
X43026000Y-68001000D01*
X66964000Y-68001000D02*
X57235000Y-68001000D01*
X52755000Y-67961000D02*
X43013000Y-67961000D01*
X66977000Y-67961000D02*
X57235000Y-67961000D01*
X52755000Y-67921000D02*
X43000000Y-67921000D01*
X66990000Y-67921000D02*
X57235000Y-67921000D01*
X52755000Y-67881000D02*
X42988000Y-67881000D01*
X67002000Y-67881000D02*
X57235000Y-67881000D01*
X52755000Y-67841000D02*
X42975000Y-67841000D01*
X67015000Y-67841000D02*
X57235000Y-67841000D01*
X52755000Y-67801000D02*
X42963000Y-67801000D01*
X67027000Y-67801000D02*
X57235000Y-67801000D01*
X52755000Y-67761000D02*
X42951000Y-67761000D01*
X67039000Y-67761000D02*
X57235000Y-67761000D01*
X52755000Y-67721000D02*
X42939000Y-67721000D01*
X67051000Y-67721000D02*
X57235000Y-67721000D01*
X52755000Y-67681000D02*
X42927000Y-67681000D01*
X67063000Y-67681000D02*
X57235000Y-67681000D01*
X52755000Y-67641000D02*
X42915000Y-67641000D01*
X67075000Y-67641000D02*
X57235000Y-67641000D01*
X52755000Y-67601000D02*
X42904000Y-67601000D01*
X67086000Y-67601000D02*
X57235000Y-67601000D01*
X52755000Y-67561000D02*
X42892000Y-67561000D01*
X67098000Y-67561000D02*
X57235000Y-67561000D01*
X52755000Y-67521000D02*
X42881000Y-67521000D01*
X67109000Y-67521000D02*
X57235000Y-67521000D01*
X52755000Y-67481000D02*
X42870000Y-67481000D01*
X67120000Y-67481000D02*
X57235000Y-67481000D01*
X52755000Y-67441000D02*
X42859000Y-67441000D01*
X67131000Y-67441000D02*
X57235000Y-67441000D01*
X52755000Y-67401000D02*
X42848000Y-67401000D01*
X67142000Y-67401000D02*
X57235000Y-67401000D01*
X52755000Y-67361000D02*
X42838000Y-67361000D01*
X67152000Y-67361000D02*
X57235000Y-67361000D01*
X52755000Y-67321000D02*
X42827000Y-67321000D01*
X67163000Y-67321000D02*
X57235000Y-67321000D01*
X52755000Y-67281000D02*
X42817000Y-67281000D01*
X67173000Y-67281000D02*
X57235000Y-67281000D01*
X52755000Y-67241000D02*
X42806000Y-67241000D01*
X67184000Y-67241000D02*
X57235000Y-67241000D01*
X52755000Y-67201000D02*
X42796000Y-67201000D01*
X67194000Y-67201000D02*
X57235000Y-67201000D01*
X52755000Y-67161000D02*
X42786000Y-67161000D01*
X67204000Y-67161000D02*
X57235000Y-67161000D01*
X52755000Y-67121000D02*
X42776000Y-67121000D01*
X67214000Y-67121000D02*
X57235000Y-67121000D01*
X52755000Y-67081000D02*
X42767000Y-67081000D01*
X67223000Y-67081000D02*
X57235000Y-67081000D01*
X52755000Y-67041000D02*
X42757000Y-67041000D01*
X67233000Y-67041000D02*
X57235000Y-67041000D01*
X52755000Y-67001000D02*
X42748000Y-67001000D01*
X67242000Y-67001000D02*
X57235000Y-67001000D01*
X52755000Y-66961000D02*
X42738000Y-66961000D01*
X67252000Y-66961000D02*
X57235000Y-66961000D01*
X52755000Y-66921000D02*
X42729000Y-66921000D01*
X67261000Y-66921000D02*
X57235000Y-66921000D01*
X52755000Y-66881000D02*
X42720000Y-66881000D01*
X67270000Y-66881000D02*
X57235000Y-66881000D01*
X67279000Y-66841000D02*
X42711000Y-66841000D01*
X67288000Y-66801000D02*
X42702000Y-66801000D01*
X67296000Y-66761000D02*
X42694000Y-66761000D01*
X67305000Y-66721000D02*
X42685000Y-66721000D01*
X67313000Y-66681000D02*
X42677000Y-66681000D01*
X67321000Y-66641000D02*
X42669000Y-66641000D01*
X67329000Y-66601000D02*
X42661000Y-66601000D01*
X67337000Y-66561000D02*
X42653000Y-66561000D01*
X67345000Y-66521000D02*
X42645000Y-66521000D01*
X67353000Y-66481000D02*
X42637000Y-66481000D01*
X67360000Y-66441000D02*
X42630000Y-66441000D01*
X67368000Y-66401000D02*
X42622000Y-66401000D01*
X67375000Y-66361000D02*
X42615000Y-66361000D01*
X67382000Y-66321000D02*
X42608000Y-66321000D01*
X67389000Y-66281000D02*
X42601000Y-66281000D01*
X67396000Y-66241000D02*
X42594000Y-66241000D01*
X67403000Y-66201000D02*
X42587000Y-66201000D01*
X67410000Y-66161000D02*
X42580000Y-66161000D01*
X67416000Y-66121000D02*
X42574000Y-66121000D01*
X67422000Y-66081000D02*
X42568000Y-66081000D01*
X67429000Y-66041000D02*
X42561000Y-66041000D01*
X67435000Y-66001000D02*
X42555000Y-66001000D01*
X67441000Y-65961000D02*
X42549000Y-65961000D01*
X67446000Y-65921000D02*
X42544000Y-65921000D01*
X67452000Y-65881000D02*
X42538000Y-65881000D01*
X67458000Y-65841000D02*
X42532000Y-65841000D01*
X67463000Y-65801000D02*
X42527000Y-65801000D01*
X67468000Y-65761000D02*
X42522000Y-65761000D01*
X67474000Y-65721000D02*
X42516000Y-65721000D01*
X67479000Y-65681000D02*
X42511000Y-65681000D01*
X67484000Y-65641000D02*
X42506000Y-65641000D01*
X67488000Y-65601000D02*
X42502000Y-65601000D01*
X67493000Y-65561000D02*
X42497000Y-65561000D01*
X67498000Y-65521000D02*
X42492000Y-65521000D01*
X67502000Y-65481000D02*
X42488000Y-65481000D01*
X67506000Y-65441000D02*
X42484000Y-65441000D01*
X67510000Y-65401000D02*
X42480000Y-65401000D01*
X67514000Y-65361000D02*
X42476000Y-65361000D01*
X67518000Y-65321000D02*
X42472000Y-65321000D01*
X67522000Y-65281000D02*
X42468000Y-65281000D01*
X67526000Y-65241000D02*
X42464000Y-65241000D01*
X67529000Y-65201000D02*
X42461000Y-65201000D01*
X67533000Y-65161000D02*
X42457000Y-65161000D01*
X67536000Y-65121000D02*
X42454000Y-65121000D01*
X67539000Y-65081000D02*
X42451000Y-65081000D01*
X67542000Y-65041000D02*
X42448000Y-65041000D01*
X67545000Y-65001000D02*
X42445000Y-65001000D01*
X67548000Y-64961000D02*
X42442000Y-64961000D01*
X67550000Y-64921000D02*
X42440000Y-64921000D01*
X67553000Y-64881000D02*
X42437000Y-64881000D01*
X67555000Y-64841000D02*
X42435000Y-64841000D01*
X67557000Y-64800000D02*
X42433000Y-64800000D01*
X67559000Y-64760000D02*
X42431000Y-64760000D01*
X67561000Y-64720000D02*
X42429000Y-64720000D01*
X67563000Y-64680000D02*
X42427000Y-64680000D01*
X67565000Y-64640000D02*
X42425000Y-64640000D01*
X67566000Y-64600000D02*
X42424000Y-64600000D01*
X67568000Y-64560000D02*
X42422000Y-64560000D01*
X67569000Y-64520000D02*
X42421000Y-64520000D01*
X67570000Y-64480000D02*
X42420000Y-64480000D01*
X67571000Y-64440000D02*
X42419000Y-64440000D01*
X67572000Y-64400000D02*
X42418000Y-64400000D01*
X67573000Y-64360000D02*
X42417000Y-64360000D01*
X67574000Y-64320000D02*
X42416000Y-64320000D01*
X67574000Y-64280000D02*
X42416000Y-64280000D01*
X67575000Y-64240000D02*
X42415000Y-64240000D01*
X67575000Y-64200000D02*
X42415000Y-64200000D01*
X67575000Y-64160000D02*
X42415000Y-64160000D01*
X67576000Y-64120000D02*
X42414000Y-64120000D01*
X67615000Y-64120000D02*
G75*
G03X67615000Y-64120000I-12620000J0D01*
G01*
X45256267Y-56132000D02*
X44913733Y-56132000D01*
X45256267Y-57152000D02*
X44913733Y-57152000D01*
X44913733Y-54354000D02*
X45256267Y-54354000D01*
X44913733Y-55374000D02*
X45256267Y-55374000D01*
X97166000Y-60626000D02*
X97166000Y-50466000D01*
X95896000Y-60626000D02*
X103516000Y-60626000D01*
X103516000Y-60626000D02*
X103516000Y-50466000D01*
X103516000Y-50466000D02*
X95896000Y-50466000D01*
X95896000Y-50466000D02*
X95896000Y-60626000D01*
X75266733Y-49782000D02*
X75609267Y-49782000D01*
X75266733Y-50802000D02*
X75609267Y-50802000D01*
X64941267Y-67054000D02*
X64598733Y-67054000D01*
X64941267Y-68074000D02*
X64598733Y-68074000D01*
X64941267Y-68578000D02*
X64598733Y-68578000D01*
X64941267Y-69598000D02*
X64598733Y-69598000D01*
X69858000Y-57506733D02*
X69858000Y-57849267D01*
X68838000Y-57506733D02*
X68838000Y-57849267D01*
X60280733Y-59434000D02*
X60623267Y-59434000D01*
X60280733Y-60454000D02*
X60623267Y-60454000D01*
X71886000Y-55728733D02*
X71886000Y-56071267D01*
X72906000Y-55728733D02*
X72906000Y-56071267D01*
X60328733Y-60990000D02*
X60671267Y-60990000D01*
X60328733Y-62010000D02*
X60671267Y-62010000D01*
X45256267Y-58930000D02*
X44913733Y-58930000D01*
X45256267Y-57910000D02*
X44913733Y-57910000D01*
X72290000Y-49228733D02*
X72290000Y-49571267D01*
X73310000Y-49228733D02*
X73310000Y-49571267D01*
X64500000Y-47300000D02*
X61640000Y-47300000D01*
X61640000Y-47300000D02*
X61640000Y-49220000D01*
X61640000Y-49220000D02*
X64500000Y-49220000D01*
X61649000Y-80970000D02*
X64509000Y-80970000D01*
X61649000Y-79050000D02*
X61649000Y-80970000D01*
X64509000Y-79050000D02*
X61649000Y-79050000D01*
X82660000Y-74140000D02*
X82660000Y-74470000D01*
X82660000Y-74470000D02*
X77220000Y-74470000D01*
X77220000Y-74470000D02*
X77220000Y-74140000D01*
X82660000Y-71860000D02*
X82660000Y-71530000D01*
X82660000Y-71530000D02*
X77220000Y-71530000D01*
X77220000Y-71530000D02*
X77220000Y-71860000D01*
X81760000Y-74470000D02*
X81760000Y-71530000D01*
X81640000Y-74470000D02*
X81640000Y-71530000D01*
X81880000Y-74470000D02*
X81880000Y-71530000D01*
X88886000Y-75311000D02*
X81586000Y-75311000D01*
X81586000Y-75311000D02*
X81586000Y-77311000D01*
X81586000Y-77311000D02*
X88886000Y-77311000D01*
X97791000Y-67826000D02*
X89091000Y-67826000D01*
X89091000Y-67826000D02*
X89091000Y-70826000D01*
X89091000Y-70826000D02*
X97791000Y-70826000D01*
X79226000Y-76470000D02*
X71926000Y-76470000D01*
X79226000Y-78470000D02*
X79226000Y-76470000D01*
X71926000Y-78470000D02*
X79226000Y-78470000D01*
X86981000Y-68961000D02*
X79681000Y-68961000D01*
X79681000Y-68961000D02*
X79681000Y-70961000D01*
X79681000Y-70961000D02*
X86981000Y-70961000D01*
X103068000Y-61455000D02*
X100408000Y-61455000D01*
X103068000Y-64055000D02*
X103068000Y-61455000D01*
X100408000Y-64055000D02*
X100408000Y-61455000D01*
X103068000Y-64055000D02*
X100408000Y-64055000D01*
X103068000Y-65325000D02*
X103068000Y-66655000D01*
X103068000Y-66655000D02*
X101738000Y-66655000D01*
X93086000Y-64681000D02*
X93086000Y-67621000D01*
X93326000Y-64681000D02*
X93326000Y-67621000D01*
X93206000Y-64681000D02*
X93206000Y-67621000D01*
X97746000Y-67621000D02*
X97746000Y-67291000D01*
X92306000Y-67621000D02*
X97746000Y-67621000D01*
X92306000Y-67291000D02*
X92306000Y-67621000D01*
X97746000Y-64681000D02*
X97746000Y-65011000D01*
X92306000Y-64681000D02*
X97746000Y-64681000D01*
X92306000Y-65011000D02*
X92306000Y-64681000D01*
X38645000Y-49760000D02*
X48845000Y-49760000D01*
X48845000Y-49760000D02*
X48845000Y-46760000D01*
X48845000Y-46760000D02*
X38645000Y-46760000D01*
X48845000Y-49935000D02*
X38645000Y-49935000D01*
X48845000Y-52935000D02*
X48845000Y-49935000D01*
X38645000Y-52935000D02*
X48845000Y-52935000D01*
X48845000Y-75335000D02*
X38645000Y-75335000D01*
X48845000Y-78335000D02*
X48845000Y-75335000D01*
X38645000Y-78335000D02*
X48845000Y-78335000D01*
X38645000Y-81510000D02*
X48845000Y-81510000D01*
X48845000Y-81510000D02*
X48845000Y-78510000D01*
X48845000Y-78510000D02*
X38645000Y-78510000D01*
X83032000Y-61135000D02*
X87752000Y-61135000D01*
X87752000Y-61135000D02*
X87752000Y-47015000D01*
X87752000Y-47015000D02*
X83032000Y-47015000D01*
X83032000Y-47015000D02*
X83032000Y-61135000D01*
X83032000Y-59375000D02*
X82832000Y-59375000D01*
X82832000Y-59375000D02*
X82832000Y-59675000D01*
X82832000Y-59675000D02*
X83032000Y-59675000D01*
X82932000Y-59375000D02*
X82932000Y-59675000D01*
X83032000Y-58575000D02*
X83642000Y-58575000D01*
X83642000Y-58575000D02*
X83642000Y-60525000D01*
X83642000Y-60525000D02*
X87142000Y-60525000D01*
X87142000Y-60525000D02*
X87142000Y-47625000D01*
X87142000Y-47625000D02*
X83642000Y-47625000D01*
X83642000Y-47625000D02*
X83642000Y-49575000D01*
X83642000Y-49575000D02*
X83032000Y-49575000D01*
X84342000Y-61135000D02*
X84342000Y-60525000D01*
X85642000Y-61135000D02*
X85642000Y-60525000D01*
X84342000Y-47015000D02*
X84342000Y-47625000D01*
X85642000Y-47015000D02*
X85642000Y-47625000D01*
X87142000Y-58175000D02*
X86642000Y-58175000D01*
X86642000Y-58175000D02*
X86642000Y-57975000D01*
X86642000Y-57975000D02*
X87142000Y-57975000D01*
X87142000Y-58075000D02*
X86642000Y-58075000D01*
X87142000Y-56175000D02*
X86642000Y-56175000D01*
X86642000Y-56175000D02*
X86642000Y-55975000D01*
X86642000Y-55975000D02*
X87142000Y-55975000D01*
X87142000Y-56075000D02*
X86642000Y-56075000D01*
X87142000Y-54175000D02*
X86642000Y-54175000D01*
X86642000Y-54175000D02*
X86642000Y-53975000D01*
X86642000Y-53975000D02*
X87142000Y-53975000D01*
X87142000Y-54075000D02*
X86642000Y-54075000D01*
X87142000Y-52175000D02*
X86642000Y-52175000D01*
X86642000Y-52175000D02*
X86642000Y-51975000D01*
X86642000Y-51975000D02*
X87142000Y-51975000D01*
X87142000Y-52075000D02*
X86642000Y-52075000D01*
X87142000Y-50175000D02*
X86642000Y-50175000D01*
X86642000Y-50175000D02*
X86642000Y-49975000D01*
X86642000Y-49975000D02*
X87142000Y-49975000D01*
X87142000Y-50075000D02*
X86642000Y-50075000D01*
X82732000Y-60185000D02*
X82732000Y-61435000D01*
X82732000Y-61435000D02*
X83982000Y-61435000D01*
X97061000Y-77216000D02*
X97061000Y-79216000D01*
X94261000Y-77216000D02*
X97061000Y-77216000D01*
X94261000Y-79216000D02*
X94261000Y-77216000D01*
X97061000Y-79216000D02*
X94261000Y-79216000D01*
X98431000Y-79486000D02*
X98011000Y-79486000D01*
X90351000Y-79486000D02*
X90771000Y-79486000D01*
X98011000Y-77716000D02*
X90771000Y-77716000D01*
X98011000Y-81256000D02*
X98011000Y-77716000D01*
X90771000Y-81256000D02*
X98011000Y-81256000D01*
X90771000Y-77716000D02*
X90771000Y-81256000D01*
X90771000Y-71366000D02*
X90771000Y-74906000D01*
X90771000Y-74906000D02*
X98011000Y-74906000D01*
X98011000Y-74906000D02*
X98011000Y-71366000D01*
X98011000Y-71366000D02*
X90771000Y-71366000D01*
X90351000Y-73136000D02*
X90771000Y-73136000D01*
X98431000Y-73136000D02*
X98011000Y-73136000D01*
X76264000Y-67302000D02*
X76264000Y-63762000D01*
X76264000Y-63762000D02*
X69024000Y-63762000D01*
X69024000Y-63762000D02*
X69024000Y-67302000D01*
X69024000Y-67302000D02*
X76264000Y-67302000D01*
X76684000Y-65532000D02*
X76264000Y-65532000D01*
X68604000Y-65532000D02*
X69024000Y-65532000D01*
X53616000Y-46664000D02*
X50016000Y-46664000D01*
X53654478Y-46675522D02*
G75*
G02X51816000Y-51114000I-1838478J-1838478D01*
G01*
X49977522Y-46675522D02*
G75*
G03X51816000Y-51114000I1838478J-1838478D01*
G01*
X44198000Y-64460000D02*
X44198000Y-65390000D01*
X44198000Y-67620000D02*
X44198000Y-66690000D01*
X44198000Y-67620000D02*
X46358000Y-67620000D01*
X44198000Y-64460000D02*
X45658000Y-64460000D01*
X63498000Y-77272000D02*
X62038000Y-77272000D01*
X63498000Y-74112000D02*
X61338000Y-74112000D01*
X63498000Y-74112000D02*
X63498000Y-75042000D01*
X63498000Y-77272000D02*
X63498000Y-76342000D01*
X93621000Y-51059000D02*
X92691000Y-51059000D01*
X90461000Y-51059000D02*
X91391000Y-51059000D01*
X90461000Y-51059000D02*
X90461000Y-53219000D01*
X93621000Y-51059000D02*
X93621000Y-52519000D01*
X99654000Y-61962000D02*
X99654000Y-63422000D01*
X96494000Y-61962000D02*
X96494000Y-64122000D01*
X96494000Y-61962000D02*
X97424000Y-61962000D01*
X99654000Y-61962000D02*
X98724000Y-61962000D01*
X50628733Y-49782000D02*
X50971267Y-49782000D01*
X50628733Y-50802000D02*
X50971267Y-50802000D01*
X50971267Y-51306000D02*
X50628733Y-51306000D01*
X50971267Y-52326000D02*
X50628733Y-52326000D01*
X47242000Y-66211267D02*
X47242000Y-65868733D01*
X48262000Y-66211267D02*
X48262000Y-65868733D01*
X59353267Y-47750000D02*
X59010733Y-47750000D01*
X59353267Y-48770000D02*
X59010733Y-48770000D01*
X47020267Y-68070000D02*
X46677733Y-68070000D01*
X47020267Y-69090000D02*
X46677733Y-69090000D01*
X46310733Y-72134000D02*
X46653267Y-72134000D01*
X46310733Y-73154000D02*
X46653267Y-73154000D01*
X59010733Y-78996000D02*
X59353267Y-78996000D01*
X59010733Y-77976000D02*
X59353267Y-77976000D01*
X78917267Y-50060000D02*
X78574733Y-50060000D01*
X78917267Y-49040000D02*
X78574733Y-49040000D01*
X60708000Y-75520733D02*
X60708000Y-75863267D01*
X59688000Y-75520733D02*
X59688000Y-75863267D01*
X59353267Y-79500000D02*
X59010733Y-79500000D01*
X59353267Y-80520000D02*
X59010733Y-80520000D01*
X62909267Y-73408000D02*
X62566733Y-73408000D01*
X62909267Y-72388000D02*
X62566733Y-72388000D01*
X100910000Y-68628733D02*
X100910000Y-68971267D01*
X99890000Y-68628733D02*
X99890000Y-68971267D01*
X92149267Y-56624000D02*
X91806733Y-56624000D01*
X92149267Y-57644000D02*
X91806733Y-57644000D01*
X94346733Y-61196000D02*
X94689267Y-61196000D01*
X94346733Y-62216000D02*
X94689267Y-62216000D01*
X95282000Y-59337267D02*
X95282000Y-58994733D01*
X94262000Y-59337267D02*
X94262000Y-58994733D01*
X94346733Y-62974000D02*
X94689267Y-62974000D01*
X94346733Y-63994000D02*
X94689267Y-63994000D01*
X69684733Y-55648000D02*
X70027267Y-55648000D01*
X69684733Y-54628000D02*
X70027267Y-54628000D01*
X71382000Y-57506733D02*
X71382000Y-57849267D01*
X70362000Y-57506733D02*
X70362000Y-57849267D01*
X86408000Y-61794000D02*
X81908000Y-61794000D01*
X87658000Y-65794000D02*
X87658000Y-64294000D01*
X81908000Y-68294000D02*
X86408000Y-68294000D01*
X80658000Y-64294000D02*
X80658000Y-65794000D01*
X100901000Y-75551000D02*
X102011000Y-75551000D01*
X100901000Y-76311000D02*
X100901000Y-75551000D01*
X102574471Y-77071000D02*
X103121000Y-77071000D01*
X100901000Y-77071000D02*
X101447529Y-77071000D01*
X103121000Y-77071000D02*
X103121000Y-80816000D01*
X100901000Y-77071000D02*
X100901000Y-80816000D01*
X102318530Y-80816000D02*
X103121000Y-80816000D01*
X100901000Y-80816000D02*
X101703470Y-80816000D01*
X100901000Y-74466000D02*
X101703470Y-74466000D01*
X102318530Y-74466000D02*
X103121000Y-74466000D01*
X100901000Y-70721000D02*
X100901000Y-74466000D01*
X103121000Y-70721000D02*
X103121000Y-74466000D01*
X100901000Y-70721000D02*
X101447529Y-70721000D01*
X102574471Y-70721000D02*
X103121000Y-70721000D01*
X100901000Y-69961000D02*
X100901000Y-69201000D01*
X100901000Y-69201000D02*
X102011000Y-69201000D01*
D11*
X75234000Y-51367000D02*
X75234000Y-51572000D01*
X80734000Y-51367000D02*
X80734000Y-51667000D01*
X80734000Y-56877000D02*
X80734000Y-56577000D01*
X75234000Y-56877000D02*
X75234000Y-56577000D01*
X75234000Y-51367000D02*
X80734000Y-51367000D01*
X75234000Y-56877000D02*
X80734000Y-56877000D01*
X75234000Y-51572000D02*
X73484000Y-51572000D01*
D10*
X67820000Y-73831267D02*
X67820000Y-73488733D01*
X66800000Y-73831267D02*
X66800000Y-73488733D01*
X68324000Y-73831267D02*
X68324000Y-73488733D01*
X69344000Y-73831267D02*
X69344000Y-73488733D01*
X65162000Y-75334000D02*
X68402000Y-75334000D01*
X65162000Y-77574000D02*
X68402000Y-77574000D01*
X65162000Y-75334000D02*
X65162000Y-75399000D01*
X65162000Y-77509000D02*
X65162000Y-77574000D01*
X68402000Y-75334000D02*
X68402000Y-75399000D01*
X68402000Y-77509000D02*
X68402000Y-77574000D01*
X97996000Y-47041000D02*
X97996000Y-49701000D01*
X100596000Y-47041000D02*
X97996000Y-47041000D01*
X100596000Y-49701000D02*
X97996000Y-49701000D01*
X100596000Y-47041000D02*
X100596000Y-49701000D01*
X101866000Y-47041000D02*
X103196000Y-47041000D01*
X103196000Y-47041000D02*
X103196000Y-48371000D01*
X50108000Y-79504000D02*
X48908000Y-79504000D01*
X48908000Y-79504000D02*
X48908000Y-76804000D01*
X53708000Y-75504000D02*
X53708000Y-79504000D01*
X53708000Y-79504000D02*
X52508000Y-79504000D01*
D11*
X71323142Y-53240857D02*
X71370761Y-53288476D01*
X71418380Y-53431333D01*
X71418380Y-53526571D01*
X71370761Y-53669428D01*
X71275523Y-53764666D01*
X71180285Y-53812285D01*
X70989809Y-53859904D01*
X70846952Y-53859904D01*
X70656476Y-53812285D01*
X70561238Y-53764666D01*
X70466000Y-53669428D01*
X70418380Y-53526571D01*
X70418380Y-53431333D01*
X70466000Y-53288476D01*
X70513619Y-53240857D01*
X71418380Y-52288476D02*
X71418380Y-52859904D01*
X71418380Y-52574190D02*
X70418380Y-52574190D01*
X70561238Y-52669428D01*
X70656476Y-52764666D01*
X70704095Y-52859904D01*
X70418380Y-51955142D02*
X70418380Y-51336095D01*
X70799333Y-51669428D01*
X70799333Y-51526571D01*
X70846952Y-51431333D01*
X70894571Y-51383714D01*
X70989809Y-51336095D01*
X71227904Y-51336095D01*
X71323142Y-51383714D01*
X71370761Y-51431333D01*
X71418380Y-51526571D01*
X71418380Y-51812285D01*
X71370761Y-51907523D01*
X71323142Y-51955142D01*
X72997023Y-69552380D02*
X72663690Y-69076190D01*
X72425595Y-69552380D02*
X72425595Y-68552380D01*
X72806547Y-68552380D01*
X72901785Y-68600000D01*
X72949404Y-68647619D01*
X72997023Y-68742857D01*
X72997023Y-68885714D01*
X72949404Y-68980952D01*
X72901785Y-69028571D01*
X72806547Y-69076190D01*
X72425595Y-69076190D01*
X66921142Y-68110380D02*
X66587809Y-67634190D01*
X66349714Y-68110380D02*
X66349714Y-67110380D01*
X66730666Y-67110380D01*
X66825904Y-67158000D01*
X66873523Y-67205619D01*
X66921142Y-67300857D01*
X66921142Y-67443714D01*
X66873523Y-67538952D01*
X66825904Y-67586571D01*
X66730666Y-67634190D01*
X66349714Y-67634190D01*
X67302095Y-67205619D02*
X67349714Y-67158000D01*
X67444952Y-67110380D01*
X67683047Y-67110380D01*
X67778285Y-67158000D01*
X67825904Y-67205619D01*
X67873523Y-67300857D01*
X67873523Y-67396095D01*
X67825904Y-67538952D01*
X67254476Y-68110380D01*
X67873523Y-68110380D01*
X68492571Y-67110380D02*
X68587809Y-67110380D01*
X68683047Y-67158000D01*
X68730666Y-67205619D01*
X68778285Y-67300857D01*
X68825904Y-67491333D01*
X68825904Y-67729428D01*
X68778285Y-67919904D01*
X68730666Y-68015142D01*
X68683047Y-68062761D01*
X68587809Y-68110380D01*
X68492571Y-68110380D01*
X68397333Y-68062761D01*
X68349714Y-68015142D01*
X68302095Y-67919904D01*
X68254476Y-67729428D01*
X68254476Y-67491333D01*
X68302095Y-67300857D01*
X68349714Y-67205619D01*
X68397333Y-67158000D01*
X68492571Y-67110380D01*
X80467142Y-50224666D02*
X80514761Y-50272285D01*
X80562380Y-50415142D01*
X80562380Y-50510380D01*
X80514761Y-50653238D01*
X80419523Y-50748476D01*
X80324285Y-50796095D01*
X80133809Y-50843714D01*
X79990952Y-50843714D01*
X79800476Y-50796095D01*
X79705238Y-50748476D01*
X79610000Y-50653238D01*
X79562380Y-50510380D01*
X79562380Y-50415142D01*
X79610000Y-50272285D01*
X79657619Y-50224666D01*
X80562380Y-49748476D02*
X80562380Y-49558000D01*
X80514761Y-49462761D01*
X80467142Y-49415142D01*
X80324285Y-49319904D01*
X80133809Y-49272285D01*
X79752857Y-49272285D01*
X79657619Y-49319904D01*
X79610000Y-49367523D01*
X79562380Y-49462761D01*
X79562380Y-49653238D01*
X79610000Y-49748476D01*
X79657619Y-49796095D01*
X79752857Y-49843714D01*
X79990952Y-49843714D01*
X80086190Y-49796095D01*
X80133809Y-49748476D01*
X80181428Y-49653238D01*
X80181428Y-49462761D01*
X80133809Y-49367523D01*
X80086190Y-49319904D01*
X79990952Y-49272285D01*
X53666666Y-53030380D02*
X53333333Y-52554190D01*
X53095238Y-53030380D02*
X53095238Y-52030380D01*
X53476190Y-52030380D01*
X53571428Y-52078000D01*
X53619047Y-52125619D01*
X53666666Y-52220857D01*
X53666666Y-52363714D01*
X53619047Y-52458952D01*
X53571428Y-52506571D01*
X53476190Y-52554190D01*
X53095238Y-52554190D01*
X54095238Y-52506571D02*
X54428571Y-52506571D01*
X54571428Y-53030380D02*
X54095238Y-53030380D01*
X54095238Y-52030380D01*
X54571428Y-52030380D01*
X55333333Y-52506571D02*
X55000000Y-52506571D01*
X55000000Y-53030380D02*
X55000000Y-52030380D01*
X55476190Y-52030380D01*
X56000000Y-52030380D02*
X56000000Y-52268476D01*
X55761904Y-52173238D02*
X56000000Y-52268476D01*
X56238095Y-52173238D01*
X55857142Y-52458952D02*
X56000000Y-52268476D01*
X56142857Y-52458952D01*
X56761904Y-52030380D02*
X56761904Y-52268476D01*
X56523809Y-52173238D02*
X56761904Y-52268476D01*
X57000000Y-52173238D01*
X56619047Y-52458952D02*
X56761904Y-52268476D01*
X56904761Y-52458952D01*
X53666666Y-50642380D02*
X53333333Y-50166190D01*
X53095238Y-50642380D02*
X53095238Y-49642380D01*
X53476190Y-49642380D01*
X53571428Y-49690000D01*
X53619047Y-49737619D01*
X53666666Y-49832857D01*
X53666666Y-49975714D01*
X53619047Y-50070952D01*
X53571428Y-50118571D01*
X53476190Y-50166190D01*
X53095238Y-50166190D01*
X54095238Y-50118571D02*
X54428571Y-50118571D01*
X54571428Y-50642380D02*
X54095238Y-50642380D01*
X54095238Y-49642380D01*
X54571428Y-49642380D01*
X55333333Y-50118571D02*
X55000000Y-50118571D01*
X55000000Y-50642380D02*
X55000000Y-49642380D01*
X55476190Y-49642380D01*
X56000000Y-49642380D02*
X56000000Y-49880476D01*
X55761904Y-49785238D02*
X56000000Y-49880476D01*
X56238095Y-49785238D01*
X55857142Y-50070952D02*
X56000000Y-49880476D01*
X56142857Y-50070952D01*
X56761904Y-49642380D02*
X56761904Y-49880476D01*
X56523809Y-49785238D02*
X56761904Y-49880476D01*
X57000000Y-49785238D01*
X56619047Y-50070952D02*
X56761904Y-49880476D01*
X56904761Y-50070952D01*
X53666666Y-70642380D02*
X53333333Y-70166190D01*
X53095238Y-70642380D02*
X53095238Y-69642380D01*
X53476190Y-69642380D01*
X53571428Y-69690000D01*
X53619047Y-69737619D01*
X53666666Y-69832857D01*
X53666666Y-69975714D01*
X53619047Y-70070952D01*
X53571428Y-70118571D01*
X53476190Y-70166190D01*
X53095238Y-70166190D01*
X54095238Y-70118571D02*
X54428571Y-70118571D01*
X54571428Y-70642380D02*
X54095238Y-70642380D01*
X54095238Y-69642380D01*
X54571428Y-69642380D01*
X55333333Y-70118571D02*
X55000000Y-70118571D01*
X55000000Y-70642380D02*
X55000000Y-69642380D01*
X55476190Y-69642380D01*
X56000000Y-69642380D02*
X56000000Y-69880476D01*
X55761904Y-69785238D02*
X56000000Y-69880476D01*
X56238095Y-69785238D01*
X55857142Y-70070952D02*
X56000000Y-69880476D01*
X56142857Y-70070952D01*
X56761904Y-69642380D02*
X56761904Y-69880476D01*
X56523809Y-69785238D02*
X56761904Y-69880476D01*
X57000000Y-69785238D01*
X56619047Y-70070952D02*
X56761904Y-69880476D01*
X56904761Y-70070952D01*
X94922904Y-75013380D02*
X94922904Y-74013380D01*
X95161000Y-74013380D01*
X95303857Y-74061000D01*
X95399095Y-74156238D01*
X95446714Y-74251476D01*
X95494333Y-74441952D01*
X95494333Y-74584809D01*
X95446714Y-74775285D01*
X95399095Y-74870523D01*
X95303857Y-74965761D01*
X95161000Y-75013380D01*
X94922904Y-75013380D01*
X95827666Y-74013380D02*
X96446714Y-74013380D01*
X96113380Y-74394333D01*
X96256238Y-74394333D01*
X96351476Y-74441952D01*
X96399095Y-74489571D01*
X96446714Y-74584809D01*
X96446714Y-74822904D01*
X96399095Y-74918142D01*
X96351476Y-74965761D01*
X96256238Y-75013380D01*
X95970523Y-75013380D01*
X95875285Y-74965761D01*
X95827666Y-74918142D01*
X65619333Y-49898380D02*
X65286000Y-49422190D01*
X65047904Y-49898380D02*
X65047904Y-48898380D01*
X65428857Y-48898380D01*
X65524095Y-48946000D01*
X65571714Y-48993619D01*
X65619333Y-49088857D01*
X65619333Y-49231714D01*
X65571714Y-49326952D01*
X65524095Y-49374571D01*
X65428857Y-49422190D01*
X65047904Y-49422190D01*
X66571714Y-49898380D02*
X66000285Y-49898380D01*
X66286000Y-49898380D02*
X66286000Y-48898380D01*
X66190761Y-49041238D01*
X66095523Y-49136476D01*
X66000285Y-49184095D01*
X65619333Y-77488380D02*
X65286000Y-77012190D01*
X65047904Y-77488380D02*
X65047904Y-76488380D01*
X65428857Y-76488380D01*
X65524095Y-76536000D01*
X65571714Y-76583619D01*
X65619333Y-76678857D01*
X65619333Y-76821714D01*
X65571714Y-76916952D01*
X65524095Y-76964571D01*
X65428857Y-77012190D01*
X65047904Y-77012190D01*
X66524095Y-76488380D02*
X66047904Y-76488380D01*
X66000285Y-76964571D01*
X66047904Y-76916952D01*
X66143142Y-76869333D01*
X66381238Y-76869333D01*
X66476476Y-76916952D01*
X66524095Y-76964571D01*
X66571714Y-77059809D01*
X66571714Y-77297904D01*
X66524095Y-77393142D01*
X66476476Y-77440761D01*
X66381238Y-77488380D01*
X66143142Y-77488380D01*
X66047904Y-77440761D01*
X66000285Y-77393142D01*
X65619333Y-46246380D02*
X65286000Y-45770190D01*
X65047904Y-46246380D02*
X65047904Y-45246380D01*
X65428857Y-45246380D01*
X65524095Y-45294000D01*
X65571714Y-45341619D01*
X65619333Y-45436857D01*
X65619333Y-45579714D01*
X65571714Y-45674952D01*
X65524095Y-45722571D01*
X65428857Y-45770190D01*
X65047904Y-45770190D01*
X66000285Y-45341619D02*
X66047904Y-45294000D01*
X66143142Y-45246380D01*
X66381238Y-45246380D01*
X66476476Y-45294000D01*
X66524095Y-45341619D01*
X66571714Y-45436857D01*
X66571714Y-45532095D01*
X66524095Y-45674952D01*
X65952666Y-46246380D01*
X66571714Y-46246380D01*
X87993380Y-53152333D02*
X87517190Y-53485666D01*
X87993380Y-53723761D02*
X86993380Y-53723761D01*
X86993380Y-53342809D01*
X87041000Y-53247571D01*
X87088619Y-53199952D01*
X87183857Y-53152333D01*
X87326714Y-53152333D01*
X87421952Y-53199952D01*
X87469571Y-53247571D01*
X87517190Y-53342809D01*
X87517190Y-53723761D01*
X87469571Y-52723761D02*
X87469571Y-52390428D01*
X87993380Y-52247571D02*
X87993380Y-52723761D01*
X86993380Y-52723761D01*
X86993380Y-52247571D01*
X87469571Y-51485666D02*
X87469571Y-51819000D01*
X87993380Y-51819000D02*
X86993380Y-51819000D01*
X86993380Y-51342809D01*
X86993380Y-50819000D02*
X87231476Y-50819000D01*
X87136238Y-51057095D02*
X87231476Y-50819000D01*
X87136238Y-50580904D01*
X87421952Y-50961857D02*
X87231476Y-50819000D01*
X87421952Y-50676142D01*
X86993380Y-50057095D02*
X87231476Y-50057095D01*
X87136238Y-50295190D02*
X87231476Y-50057095D01*
X87136238Y-49819000D01*
X87421952Y-50199952D02*
X87231476Y-50057095D01*
X87421952Y-49914238D01*
X34611666Y-74882380D02*
X34611666Y-75596666D01*
X34564047Y-75739523D01*
X34468809Y-75834761D01*
X34325952Y-75882380D01*
X34230714Y-75882380D01*
X35564047Y-74882380D02*
X35087857Y-74882380D01*
X35040238Y-75358571D01*
X35087857Y-75310952D01*
X35183095Y-75263333D01*
X35421190Y-75263333D01*
X35516428Y-75310952D01*
X35564047Y-75358571D01*
X35611666Y-75453809D01*
X35611666Y-75691904D01*
X35564047Y-75787142D01*
X35516428Y-75834761D01*
X35421190Y-75882380D01*
X35183095Y-75882380D01*
X35087857Y-75834761D01*
X35040238Y-75787142D01*
X34611666Y-69802380D02*
X34611666Y-70516666D01*
X34564047Y-70659523D01*
X34468809Y-70754761D01*
X34325952Y-70802380D01*
X34230714Y-70802380D01*
X35516428Y-70135714D02*
X35516428Y-70802380D01*
X35278333Y-69754761D02*
X35040238Y-70469047D01*
X35659285Y-70469047D01*
X34611666Y-64722380D02*
X34611666Y-65436666D01*
X34564047Y-65579523D01*
X34468809Y-65674761D01*
X34325952Y-65722380D01*
X34230714Y-65722380D01*
X34992619Y-64722380D02*
X35611666Y-64722380D01*
X35278333Y-65103333D01*
X35421190Y-65103333D01*
X35516428Y-65150952D01*
X35564047Y-65198571D01*
X35611666Y-65293809D01*
X35611666Y-65531904D01*
X35564047Y-65627142D01*
X35516428Y-65674761D01*
X35421190Y-65722380D01*
X35135476Y-65722380D01*
X35040238Y-65674761D01*
X34992619Y-65627142D01*
X34611666Y-59642380D02*
X34611666Y-60356666D01*
X34564047Y-60499523D01*
X34468809Y-60594761D01*
X34325952Y-60642380D01*
X34230714Y-60642380D01*
X35040238Y-59737619D02*
X35087857Y-59690000D01*
X35183095Y-59642380D01*
X35421190Y-59642380D01*
X35516428Y-59690000D01*
X35564047Y-59737619D01*
X35611666Y-59832857D01*
X35611666Y-59928095D01*
X35564047Y-60070952D01*
X34992619Y-60642380D01*
X35611666Y-60642380D01*
X62102142Y-61786666D02*
X62149761Y-61834285D01*
X62197380Y-61977142D01*
X62197380Y-62072380D01*
X62149761Y-62215238D01*
X62054523Y-62310476D01*
X61959285Y-62358095D01*
X61768809Y-62405714D01*
X61625952Y-62405714D01*
X61435476Y-62358095D01*
X61340238Y-62310476D01*
X61245000Y-62215238D01*
X61197380Y-62072380D01*
X61197380Y-61977142D01*
X61245000Y-61834285D01*
X61292619Y-61786666D01*
X61197380Y-60929523D02*
X61197380Y-61120000D01*
X61245000Y-61215238D01*
X61292619Y-61262857D01*
X61435476Y-61358095D01*
X61625952Y-61405714D01*
X62006904Y-61405714D01*
X62102142Y-61358095D01*
X62149761Y-61310476D01*
X62197380Y-61215238D01*
X62197380Y-61024761D01*
X62149761Y-60929523D01*
X62102142Y-60881904D01*
X62006904Y-60834285D01*
X61768809Y-60834285D01*
X61673571Y-60881904D01*
X61625952Y-60929523D01*
X61578333Y-61024761D01*
X61578333Y-61215238D01*
X61625952Y-61310476D01*
X61673571Y-61358095D01*
X61768809Y-61405714D01*
X53661666Y-58262380D02*
X53328333Y-57786190D01*
X53090238Y-58262380D02*
X53090238Y-57262380D01*
X53471190Y-57262380D01*
X53566428Y-57310000D01*
X53614047Y-57357619D01*
X53661666Y-57452857D01*
X53661666Y-57595714D01*
X53614047Y-57690952D01*
X53566428Y-57738571D01*
X53471190Y-57786190D01*
X53090238Y-57786190D01*
X54090238Y-57738571D02*
X54423571Y-57738571D01*
X54566428Y-58262380D02*
X54090238Y-58262380D01*
X54090238Y-57262380D01*
X54566428Y-57262380D01*
X55328333Y-57738571D02*
X54995000Y-57738571D01*
X54995000Y-58262380D02*
X54995000Y-57262380D01*
X55471190Y-57262380D01*
X55995000Y-57262380D02*
X55995000Y-57500476D01*
X55756904Y-57405238D02*
X55995000Y-57500476D01*
X56233095Y-57405238D01*
X55852142Y-57690952D02*
X55995000Y-57500476D01*
X56137857Y-57690952D01*
X56756904Y-57262380D02*
X56756904Y-57500476D01*
X56518809Y-57405238D02*
X56756904Y-57500476D01*
X56995000Y-57405238D01*
X56614047Y-57690952D02*
X56756904Y-57500476D01*
X56899761Y-57690952D01*
X53661666Y-63262380D02*
X53328333Y-62786190D01*
X53090238Y-63262380D02*
X53090238Y-62262380D01*
X53471190Y-62262380D01*
X53566428Y-62310000D01*
X53614047Y-62357619D01*
X53661666Y-62452857D01*
X53661666Y-62595714D01*
X53614047Y-62690952D01*
X53566428Y-62738571D01*
X53471190Y-62786190D01*
X53090238Y-62786190D01*
X54090238Y-62738571D02*
X54423571Y-62738571D01*
X54566428Y-63262380D02*
X54090238Y-63262380D01*
X54090238Y-62262380D01*
X54566428Y-62262380D01*
X55328333Y-62738571D02*
X54995000Y-62738571D01*
X54995000Y-63262380D02*
X54995000Y-62262380D01*
X55471190Y-62262380D01*
X55995000Y-62262380D02*
X55995000Y-62500476D01*
X55756904Y-62405238D02*
X55995000Y-62500476D01*
X56233095Y-62405238D01*
X55852142Y-62690952D02*
X55995000Y-62500476D01*
X56137857Y-62690952D01*
X56756904Y-62262380D02*
X56756904Y-62500476D01*
X56518809Y-62405238D02*
X56756904Y-62500476D01*
X56995000Y-62405238D01*
X56614047Y-62690952D02*
X56756904Y-62500476D01*
X56899761Y-62690952D01*
X44013571Y-58524380D02*
X43442142Y-58524380D01*
X43727857Y-58524380D02*
X43727857Y-57524380D01*
X43632619Y-57667238D01*
X43537380Y-57762476D01*
X43442142Y-57810095D01*
X44632619Y-57524380D02*
X44727857Y-57524380D01*
X44823095Y-57572000D01*
X44870714Y-57619619D01*
X44918333Y-57714857D01*
X44965952Y-57905333D01*
X44965952Y-58143428D01*
X44918333Y-58333904D01*
X44870714Y-58429142D01*
X44823095Y-58476761D01*
X44727857Y-58524380D01*
X44632619Y-58524380D01*
X44537380Y-58476761D01*
X44489761Y-58429142D01*
X44442142Y-58333904D01*
X44394523Y-58143428D01*
X44394523Y-57905333D01*
X44442142Y-57714857D01*
X44489761Y-57619619D01*
X44537380Y-57572000D01*
X44632619Y-57524380D01*
X45394523Y-58524380D02*
X45394523Y-57524380D01*
X45489761Y-58143428D02*
X45775476Y-58524380D01*
X45775476Y-57857714D02*
X45394523Y-58238666D01*
X46727857Y-58524380D02*
X46156428Y-58524380D01*
X46442142Y-58524380D02*
X46442142Y-57524380D01*
X46346904Y-57667238D01*
X46251666Y-57762476D01*
X46156428Y-57810095D01*
X44013571Y-53886380D02*
X43442142Y-53886380D01*
X43727857Y-53886380D02*
X43727857Y-52886380D01*
X43632619Y-53029238D01*
X43537380Y-53124476D01*
X43442142Y-53172095D01*
X44918333Y-52886380D02*
X44442142Y-52886380D01*
X44394523Y-53362571D01*
X44442142Y-53314952D01*
X44537380Y-53267333D01*
X44775476Y-53267333D01*
X44870714Y-53314952D01*
X44918333Y-53362571D01*
X44965952Y-53457809D01*
X44965952Y-53695904D01*
X44918333Y-53791142D01*
X44870714Y-53838761D01*
X44775476Y-53886380D01*
X44537380Y-53886380D01*
X44442142Y-53838761D01*
X44394523Y-53791142D01*
X45394523Y-53886380D02*
X45394523Y-52886380D01*
X45489761Y-53505428D02*
X45775476Y-53886380D01*
X45775476Y-53219714D02*
X45394523Y-53600666D01*
X46727857Y-53886380D02*
X46156428Y-53886380D01*
X46442142Y-53886380D02*
X46442142Y-52886380D01*
X46346904Y-53029238D01*
X46251666Y-53124476D01*
X46156428Y-53172095D01*
X104714571Y-56331714D02*
X104762190Y-56188857D01*
X104809809Y-56141238D01*
X104905047Y-56093619D01*
X105047904Y-56093619D01*
X105143142Y-56141238D01*
X105190761Y-56188857D01*
X105238380Y-56284095D01*
X105238380Y-56665047D01*
X104238380Y-56665047D01*
X104238380Y-56331714D01*
X104286000Y-56236476D01*
X104333619Y-56188857D01*
X104428857Y-56141238D01*
X104524095Y-56141238D01*
X104619333Y-56188857D01*
X104666952Y-56236476D01*
X104714571Y-56331714D01*
X104714571Y-56665047D01*
X104238380Y-55807904D02*
X104238380Y-55236476D01*
X105238380Y-55522190D02*
X104238380Y-55522190D01*
X105238380Y-54379333D02*
X105238380Y-54950761D01*
X105238380Y-54665047D02*
X104238380Y-54665047D01*
X104381238Y-54760285D01*
X104476476Y-54855523D01*
X104524095Y-54950761D01*
X75271333Y-49219142D02*
X75223714Y-49266761D01*
X75080857Y-49314380D01*
X74985619Y-49314380D01*
X74842761Y-49266761D01*
X74747523Y-49171523D01*
X74699904Y-49076285D01*
X74652285Y-48885809D01*
X74652285Y-48742952D01*
X74699904Y-48552476D01*
X74747523Y-48457238D01*
X74842761Y-48362000D01*
X74985619Y-48314380D01*
X75080857Y-48314380D01*
X75223714Y-48362000D01*
X75271333Y-48409619D01*
X76223714Y-49314380D02*
X75652285Y-49314380D01*
X75938000Y-49314380D02*
X75938000Y-48314380D01*
X75842761Y-48457238D01*
X75747523Y-48552476D01*
X75652285Y-48600095D01*
X64603333Y-69351142D02*
X64555714Y-69398761D01*
X64412857Y-69446380D01*
X64317619Y-69446380D01*
X64174761Y-69398761D01*
X64079523Y-69303523D01*
X64031904Y-69208285D01*
X63984285Y-69017809D01*
X63984285Y-68874952D01*
X64031904Y-68684476D01*
X64079523Y-68589238D01*
X64174761Y-68494000D01*
X64317619Y-68446380D01*
X64412857Y-68446380D01*
X64555714Y-68494000D01*
X64603333Y-68541619D01*
X64984285Y-68541619D02*
X65031904Y-68494000D01*
X65127142Y-68446380D01*
X65365238Y-68446380D01*
X65460476Y-68494000D01*
X65508095Y-68541619D01*
X65555714Y-68636857D01*
X65555714Y-68732095D01*
X65508095Y-68874952D01*
X64936666Y-69446380D01*
X65555714Y-69446380D01*
X64603333Y-70875142D02*
X64555714Y-70922761D01*
X64412857Y-70970380D01*
X64317619Y-70970380D01*
X64174761Y-70922761D01*
X64079523Y-70827523D01*
X64031904Y-70732285D01*
X63984285Y-70541809D01*
X63984285Y-70398952D01*
X64031904Y-70208476D01*
X64079523Y-70113238D01*
X64174761Y-70018000D01*
X64317619Y-69970380D01*
X64412857Y-69970380D01*
X64555714Y-70018000D01*
X64603333Y-70065619D01*
X64936666Y-69970380D02*
X65555714Y-69970380D01*
X65222380Y-70351333D01*
X65365238Y-70351333D01*
X65460476Y-70398952D01*
X65508095Y-70446571D01*
X65555714Y-70541809D01*
X65555714Y-70779904D01*
X65508095Y-70875142D01*
X65460476Y-70922761D01*
X65365238Y-70970380D01*
X65079523Y-70970380D01*
X64984285Y-70922761D01*
X64936666Y-70875142D01*
X71135142Y-57844666D02*
X71182761Y-57892285D01*
X71230380Y-58035142D01*
X71230380Y-58130380D01*
X71182761Y-58273238D01*
X71087523Y-58368476D01*
X70992285Y-58416095D01*
X70801809Y-58463714D01*
X70658952Y-58463714D01*
X70468476Y-58416095D01*
X70373238Y-58368476D01*
X70278000Y-58273238D01*
X70230380Y-58130380D01*
X70230380Y-58035142D01*
X70278000Y-57892285D01*
X70325619Y-57844666D01*
X70563714Y-56987523D02*
X71230380Y-56987523D01*
X70182761Y-57225619D02*
X70897047Y-57463714D01*
X70897047Y-56844666D01*
X60285333Y-58871142D02*
X60237714Y-58918761D01*
X60094857Y-58966380D01*
X59999619Y-58966380D01*
X59856761Y-58918761D01*
X59761523Y-58823523D01*
X59713904Y-58728285D01*
X59666285Y-58537809D01*
X59666285Y-58394952D01*
X59713904Y-58204476D01*
X59761523Y-58109238D01*
X59856761Y-58014000D01*
X59999619Y-57966380D01*
X60094857Y-57966380D01*
X60237714Y-58014000D01*
X60285333Y-58061619D01*
X61190095Y-57966380D02*
X60713904Y-57966380D01*
X60666285Y-58442571D01*
X60713904Y-58394952D01*
X60809142Y-58347333D01*
X61047238Y-58347333D01*
X61142476Y-58394952D01*
X61190095Y-58442571D01*
X61237714Y-58537809D01*
X61237714Y-58775904D01*
X61190095Y-58871142D01*
X61142476Y-58918761D01*
X61047238Y-58966380D01*
X60809142Y-58966380D01*
X60713904Y-58918761D01*
X60666285Y-58871142D01*
X74183142Y-56066666D02*
X74230761Y-56114285D01*
X74278380Y-56257142D01*
X74278380Y-56352380D01*
X74230761Y-56495238D01*
X74135523Y-56590476D01*
X74040285Y-56638095D01*
X73849809Y-56685714D01*
X73706952Y-56685714D01*
X73516476Y-56638095D01*
X73421238Y-56590476D01*
X73326000Y-56495238D01*
X73278380Y-56352380D01*
X73278380Y-56257142D01*
X73326000Y-56114285D01*
X73373619Y-56066666D01*
X73278380Y-55733333D02*
X73278380Y-55066666D01*
X74278380Y-55495238D01*
X60333333Y-60427142D02*
X60285714Y-60474761D01*
X60142857Y-60522380D01*
X60047619Y-60522380D01*
X59904761Y-60474761D01*
X59809523Y-60379523D01*
X59761904Y-60284285D01*
X59714285Y-60093809D01*
X59714285Y-59950952D01*
X59761904Y-59760476D01*
X59809523Y-59665238D01*
X59904761Y-59570000D01*
X60047619Y-59522380D01*
X60142857Y-59522380D01*
X60285714Y-59570000D01*
X60333333Y-59617619D01*
X60904761Y-59950952D02*
X60809523Y-59903333D01*
X60761904Y-59855714D01*
X60714285Y-59760476D01*
X60714285Y-59712857D01*
X60761904Y-59617619D01*
X60809523Y-59570000D01*
X60904761Y-59522380D01*
X61095238Y-59522380D01*
X61190476Y-59570000D01*
X61238095Y-59617619D01*
X61285714Y-59712857D01*
X61285714Y-59760476D01*
X61238095Y-59855714D01*
X61190476Y-59903333D01*
X61095238Y-59950952D01*
X60904761Y-59950952D01*
X60809523Y-59998571D01*
X60761904Y-60046190D01*
X60714285Y-60141428D01*
X60714285Y-60331904D01*
X60761904Y-60427142D01*
X60809523Y-60474761D01*
X60904761Y-60522380D01*
X61095238Y-60522380D01*
X61190476Y-60474761D01*
X61238095Y-60427142D01*
X61285714Y-60331904D01*
X61285714Y-60141428D01*
X61238095Y-60046190D01*
X61190476Y-59998571D01*
X61095238Y-59950952D01*
X44442142Y-60207142D02*
X44394523Y-60254761D01*
X44251666Y-60302380D01*
X44156428Y-60302380D01*
X44013571Y-60254761D01*
X43918333Y-60159523D01*
X43870714Y-60064285D01*
X43823095Y-59873809D01*
X43823095Y-59730952D01*
X43870714Y-59540476D01*
X43918333Y-59445238D01*
X44013571Y-59350000D01*
X44156428Y-59302380D01*
X44251666Y-59302380D01*
X44394523Y-59350000D01*
X44442142Y-59397619D01*
X45394523Y-60302380D02*
X44823095Y-60302380D01*
X45108809Y-60302380D02*
X45108809Y-59302380D01*
X45013571Y-59445238D01*
X44918333Y-59540476D01*
X44823095Y-59588095D01*
X46013571Y-59302380D02*
X46108809Y-59302380D01*
X46204047Y-59350000D01*
X46251666Y-59397619D01*
X46299285Y-59492857D01*
X46346904Y-59683333D01*
X46346904Y-59921428D01*
X46299285Y-60111904D01*
X46251666Y-60207142D01*
X46204047Y-60254761D01*
X46108809Y-60302380D01*
X46013571Y-60302380D01*
X45918333Y-60254761D01*
X45870714Y-60207142D01*
X45823095Y-60111904D01*
X45775476Y-59921428D01*
X45775476Y-59683333D01*
X45823095Y-59492857D01*
X45870714Y-59397619D01*
X45918333Y-59350000D01*
X46013571Y-59302380D01*
X74587142Y-50042857D02*
X74634761Y-50090476D01*
X74682380Y-50233333D01*
X74682380Y-50328571D01*
X74634761Y-50471428D01*
X74539523Y-50566666D01*
X74444285Y-50614285D01*
X74253809Y-50661904D01*
X74110952Y-50661904D01*
X73920476Y-50614285D01*
X73825238Y-50566666D01*
X73730000Y-50471428D01*
X73682380Y-50328571D01*
X73682380Y-50233333D01*
X73730000Y-50090476D01*
X73777619Y-50042857D01*
X74682380Y-49090476D02*
X74682380Y-49661904D01*
X74682380Y-49376190D02*
X73682380Y-49376190D01*
X73825238Y-49471428D01*
X73920476Y-49566666D01*
X73968095Y-49661904D01*
X74682380Y-48138095D02*
X74682380Y-48709523D01*
X74682380Y-48423809D02*
X73682380Y-48423809D01*
X73825238Y-48519047D01*
X73920476Y-48614285D01*
X73968095Y-48709523D01*
X62761904Y-47062380D02*
X62761904Y-46062380D01*
X63000000Y-46062380D01*
X63142857Y-46110000D01*
X63238095Y-46205238D01*
X63285714Y-46300476D01*
X63333333Y-46490952D01*
X63333333Y-46633809D01*
X63285714Y-46824285D01*
X63238095Y-46919523D01*
X63142857Y-47014761D01*
X63000000Y-47062380D01*
X62761904Y-47062380D01*
X64285714Y-47062380D02*
X63714285Y-47062380D01*
X64000000Y-47062380D02*
X64000000Y-46062380D01*
X63904761Y-46205238D01*
X63809523Y-46300476D01*
X63714285Y-46348095D01*
X62770904Y-78812380D02*
X62770904Y-77812380D01*
X63009000Y-77812380D01*
X63151857Y-77860000D01*
X63247095Y-77955238D01*
X63294714Y-78050476D01*
X63342333Y-78240952D01*
X63342333Y-78383809D01*
X63294714Y-78574285D01*
X63247095Y-78669523D01*
X63151857Y-78764761D01*
X63009000Y-78812380D01*
X62770904Y-78812380D01*
X63723285Y-77907619D02*
X63770904Y-77860000D01*
X63866142Y-77812380D01*
X64104238Y-77812380D01*
X64199476Y-77860000D01*
X64247095Y-77907619D01*
X64294714Y-78002857D01*
X64294714Y-78098095D01*
X64247095Y-78240952D01*
X63675666Y-78812380D01*
X64294714Y-78812380D01*
X79201904Y-75922380D02*
X79201904Y-74922380D01*
X79440000Y-74922380D01*
X79582857Y-74970000D01*
X79678095Y-75065238D01*
X79725714Y-75160476D01*
X79773333Y-75350952D01*
X79773333Y-75493809D01*
X79725714Y-75684285D01*
X79678095Y-75779523D01*
X79582857Y-75874761D01*
X79440000Y-75922380D01*
X79201904Y-75922380D01*
X80630476Y-75255714D02*
X80630476Y-75922380D01*
X80392380Y-74874761D02*
X80154285Y-75589047D01*
X80773333Y-75589047D01*
X83488095Y-75352380D02*
X83488095Y-74352380D01*
X84059523Y-75352380D02*
X83630952Y-74780952D01*
X84059523Y-74352380D02*
X83488095Y-74923809D01*
X85397904Y-75013380D02*
X85397904Y-74013380D01*
X85636000Y-74013380D01*
X85778857Y-74061000D01*
X85874095Y-74156238D01*
X85921714Y-74251476D01*
X85969333Y-74441952D01*
X85969333Y-74584809D01*
X85921714Y-74775285D01*
X85874095Y-74870523D01*
X85778857Y-74965761D01*
X85636000Y-75013380D01*
X85397904Y-75013380D01*
X86874095Y-74013380D02*
X86397904Y-74013380D01*
X86350285Y-74489571D01*
X86397904Y-74441952D01*
X86493142Y-74394333D01*
X86731238Y-74394333D01*
X86826476Y-74441952D01*
X86874095Y-74489571D01*
X86921714Y-74584809D01*
X86921714Y-74822904D01*
X86874095Y-74918142D01*
X86826476Y-74965761D01*
X86731238Y-75013380D01*
X86493142Y-75013380D01*
X86397904Y-74965761D01*
X86350285Y-74918142D01*
X93652904Y-67528380D02*
X93652904Y-66528380D01*
X93891000Y-66528380D01*
X94033857Y-66576000D01*
X94129095Y-66671238D01*
X94176714Y-66766476D01*
X94224333Y-66956952D01*
X94224333Y-67099809D01*
X94176714Y-67290285D01*
X94129095Y-67385523D01*
X94033857Y-67480761D01*
X93891000Y-67528380D01*
X93652904Y-67528380D01*
X95081476Y-66528380D02*
X94891000Y-66528380D01*
X94795761Y-66576000D01*
X94748142Y-66623619D01*
X94652904Y-66766476D01*
X94605285Y-66956952D01*
X94605285Y-67337904D01*
X94652904Y-67433142D01*
X94700523Y-67480761D01*
X94795761Y-67528380D01*
X94986238Y-67528380D01*
X95081476Y-67480761D01*
X95129095Y-67433142D01*
X95176714Y-67337904D01*
X95176714Y-67099809D01*
X95129095Y-67004571D01*
X95081476Y-66956952D01*
X94986238Y-66909333D01*
X94795761Y-66909333D01*
X94700523Y-66956952D01*
X94652904Y-67004571D01*
X94605285Y-67099809D01*
X73937904Y-79672380D02*
X73937904Y-78672380D01*
X74176000Y-78672380D01*
X74318857Y-78720000D01*
X74414095Y-78815238D01*
X74461714Y-78910476D01*
X74509333Y-79100952D01*
X74509333Y-79243809D01*
X74461714Y-79434285D01*
X74414095Y-79529523D01*
X74318857Y-79624761D01*
X74176000Y-79672380D01*
X73937904Y-79672380D01*
X74842666Y-78672380D02*
X75509333Y-78672380D01*
X75080761Y-79672380D01*
X83492904Y-68663380D02*
X83492904Y-67663380D01*
X83731000Y-67663380D01*
X83873857Y-67711000D01*
X83969095Y-67806238D01*
X84016714Y-67901476D01*
X84064333Y-68091952D01*
X84064333Y-68234809D01*
X84016714Y-68425285D01*
X83969095Y-68520523D01*
X83873857Y-68615761D01*
X83731000Y-68663380D01*
X83492904Y-68663380D01*
X84635761Y-68091952D02*
X84540523Y-68044333D01*
X84492904Y-67996714D01*
X84445285Y-67901476D01*
X84445285Y-67853857D01*
X84492904Y-67758619D01*
X84540523Y-67711000D01*
X84635761Y-67663380D01*
X84826238Y-67663380D01*
X84921476Y-67711000D01*
X84969095Y-67758619D01*
X85016714Y-67853857D01*
X85016714Y-67901476D01*
X84969095Y-67996714D01*
X84921476Y-68044333D01*
X84826238Y-68091952D01*
X84635761Y-68091952D01*
X84540523Y-68139571D01*
X84492904Y-68187190D01*
X84445285Y-68282428D01*
X84445285Y-68472904D01*
X84492904Y-68568142D01*
X84540523Y-68615761D01*
X84635761Y-68663380D01*
X84826238Y-68663380D01*
X84921476Y-68615761D01*
X84969095Y-68568142D01*
X85016714Y-68472904D01*
X85016714Y-68282428D01*
X84969095Y-68187190D01*
X84921476Y-68139571D01*
X84826238Y-68091952D01*
X100999904Y-68107380D02*
X100999904Y-67107380D01*
X101238000Y-67107380D01*
X101380857Y-67155000D01*
X101476095Y-67250238D01*
X101523714Y-67345476D01*
X101571333Y-67535952D01*
X101571333Y-67678809D01*
X101523714Y-67869285D01*
X101476095Y-67964523D01*
X101380857Y-68059761D01*
X101238000Y-68107380D01*
X100999904Y-68107380D01*
X102047523Y-68107380D02*
X102238000Y-68107380D01*
X102333238Y-68059761D01*
X102380857Y-68012142D01*
X102476095Y-67869285D01*
X102523714Y-67678809D01*
X102523714Y-67297857D01*
X102476095Y-67202619D01*
X102428476Y-67155000D01*
X102333238Y-67107380D01*
X102142761Y-67107380D01*
X102047523Y-67155000D01*
X101999904Y-67202619D01*
X101952285Y-67297857D01*
X101952285Y-67535952D01*
X101999904Y-67631190D01*
X102047523Y-67678809D01*
X102142761Y-67726428D01*
X102333238Y-67726428D01*
X102428476Y-67678809D01*
X102476095Y-67631190D01*
X102523714Y-67535952D01*
X93811714Y-64133380D02*
X93811714Y-63133380D01*
X94049809Y-63133380D01*
X94192666Y-63181000D01*
X94287904Y-63276238D01*
X94335523Y-63371476D01*
X94383142Y-63561952D01*
X94383142Y-63704809D01*
X94335523Y-63895285D01*
X94287904Y-63990523D01*
X94192666Y-64085761D01*
X94049809Y-64133380D01*
X93811714Y-64133380D01*
X95335523Y-64133380D02*
X94764095Y-64133380D01*
X95049809Y-64133380D02*
X95049809Y-63133380D01*
X94954571Y-63276238D01*
X94859333Y-63371476D01*
X94764095Y-63419095D01*
X95954571Y-63133380D02*
X96049809Y-63133380D01*
X96145047Y-63181000D01*
X96192666Y-63228619D01*
X96240285Y-63323857D01*
X96287904Y-63514333D01*
X96287904Y-63752428D01*
X96240285Y-63942904D01*
X96192666Y-64038142D01*
X96145047Y-64085761D01*
X96049809Y-64133380D01*
X95954571Y-64133380D01*
X95859333Y-64085761D01*
X95811714Y-64038142D01*
X95764095Y-63942904D01*
X95716476Y-63752428D01*
X95716476Y-63514333D01*
X95764095Y-63323857D01*
X95811714Y-63228619D01*
X95859333Y-63181000D01*
X95954571Y-63133380D01*
X90954095Y-64703380D02*
X90954095Y-63703380D01*
X91525523Y-64703380D02*
X91096952Y-64131952D01*
X91525523Y-63703380D02*
X90954095Y-64274809D01*
X41330714Y-51212380D02*
X41330714Y-50212380D01*
X41568809Y-50212380D01*
X41711666Y-50260000D01*
X41806904Y-50355238D01*
X41854523Y-50450476D01*
X41902142Y-50640952D01*
X41902142Y-50783809D01*
X41854523Y-50974285D01*
X41806904Y-51069523D01*
X41711666Y-51164761D01*
X41568809Y-51212380D01*
X41330714Y-51212380D01*
X42854523Y-51212380D02*
X42283095Y-51212380D01*
X42568809Y-51212380D02*
X42568809Y-50212380D01*
X42473571Y-50355238D01*
X42378333Y-50450476D01*
X42283095Y-50498095D01*
X43806904Y-51212380D02*
X43235476Y-51212380D01*
X43521190Y-51212380D02*
X43521190Y-50212380D01*
X43425952Y-50355238D01*
X43330714Y-50450476D01*
X43235476Y-50498095D01*
X41330714Y-54387380D02*
X41330714Y-53387380D01*
X41568809Y-53387380D01*
X41711666Y-53435000D01*
X41806904Y-53530238D01*
X41854523Y-53625476D01*
X41902142Y-53815952D01*
X41902142Y-53958809D01*
X41854523Y-54149285D01*
X41806904Y-54244523D01*
X41711666Y-54339761D01*
X41568809Y-54387380D01*
X41330714Y-54387380D01*
X42854523Y-54387380D02*
X42283095Y-54387380D01*
X42568809Y-54387380D02*
X42568809Y-53387380D01*
X42473571Y-53530238D01*
X42378333Y-53625476D01*
X42283095Y-53673095D01*
X43235476Y-53482619D02*
X43283095Y-53435000D01*
X43378333Y-53387380D01*
X43616428Y-53387380D01*
X43711666Y-53435000D01*
X43759285Y-53482619D01*
X43806904Y-53577857D01*
X43806904Y-53673095D01*
X43759285Y-53815952D01*
X43187857Y-54387380D01*
X43806904Y-54387380D01*
X41330714Y-79787380D02*
X41330714Y-78787380D01*
X41568809Y-78787380D01*
X41711666Y-78835000D01*
X41806904Y-78930238D01*
X41854523Y-79025476D01*
X41902142Y-79215952D01*
X41902142Y-79358809D01*
X41854523Y-79549285D01*
X41806904Y-79644523D01*
X41711666Y-79739761D01*
X41568809Y-79787380D01*
X41330714Y-79787380D01*
X42854523Y-79787380D02*
X42283095Y-79787380D01*
X42568809Y-79787380D02*
X42568809Y-78787380D01*
X42473571Y-78930238D01*
X42378333Y-79025476D01*
X42283095Y-79073095D01*
X43187857Y-78787380D02*
X43806904Y-78787380D01*
X43473571Y-79168333D01*
X43616428Y-79168333D01*
X43711666Y-79215952D01*
X43759285Y-79263571D01*
X43806904Y-79358809D01*
X43806904Y-79596904D01*
X43759285Y-79692142D01*
X43711666Y-79739761D01*
X43616428Y-79787380D01*
X43330714Y-79787380D01*
X43235476Y-79739761D01*
X43187857Y-79692142D01*
X41330714Y-82962380D02*
X41330714Y-81962380D01*
X41568809Y-81962380D01*
X41711666Y-82010000D01*
X41806904Y-82105238D01*
X41854523Y-82200476D01*
X41902142Y-82390952D01*
X41902142Y-82533809D01*
X41854523Y-82724285D01*
X41806904Y-82819523D01*
X41711666Y-82914761D01*
X41568809Y-82962380D01*
X41330714Y-82962380D01*
X42854523Y-82962380D02*
X42283095Y-82962380D01*
X42568809Y-82962380D02*
X42568809Y-81962380D01*
X42473571Y-82105238D01*
X42378333Y-82200476D01*
X42283095Y-82248095D01*
X43711666Y-82295714D02*
X43711666Y-82962380D01*
X43473571Y-81914761D02*
X43235476Y-82629047D01*
X43854523Y-82629047D01*
X81394380Y-54408333D02*
X82108666Y-54408333D01*
X82251523Y-54455952D01*
X82346761Y-54551190D01*
X82394380Y-54694047D01*
X82394380Y-54789285D01*
X82394380Y-53408333D02*
X82394380Y-53979761D01*
X82394380Y-53694047D02*
X81394380Y-53694047D01*
X81537238Y-53789285D01*
X81632476Y-53884523D01*
X81680095Y-53979761D01*
X94827666Y-79468380D02*
X94827666Y-80182666D01*
X94780047Y-80325523D01*
X94684809Y-80420761D01*
X94541952Y-80468380D01*
X94446714Y-80468380D01*
X95303857Y-80468380D02*
X95303857Y-79468380D01*
X95684809Y-79468380D01*
X95780047Y-79516000D01*
X95827666Y-79563619D01*
X95875285Y-79658857D01*
X95875285Y-79801714D01*
X95827666Y-79896952D01*
X95780047Y-79944571D01*
X95684809Y-79992190D01*
X95303857Y-79992190D01*
X96827666Y-80468380D02*
X96256238Y-80468380D01*
X96541952Y-80468380D02*
X96541952Y-79468380D01*
X96446714Y-79611238D01*
X96351476Y-79706476D01*
X96256238Y-79754095D01*
X94224333Y-77168380D02*
X93748142Y-77168380D01*
X93748142Y-76168380D01*
X95081476Y-77168380D02*
X94510047Y-77168380D01*
X94795761Y-77168380D02*
X94795761Y-76168380D01*
X94700523Y-76311238D01*
X94605285Y-76406476D01*
X94510047Y-76454095D01*
X94224333Y-70818380D02*
X93748142Y-70818380D01*
X93748142Y-69818380D01*
X94510047Y-69913619D02*
X94557666Y-69866000D01*
X94652904Y-69818380D01*
X94891000Y-69818380D01*
X94986238Y-69866000D01*
X95033857Y-69913619D01*
X95081476Y-70008857D01*
X95081476Y-70104095D01*
X95033857Y-70246952D01*
X94462428Y-70818380D01*
X95081476Y-70818380D01*
X72477333Y-68754380D02*
X72001142Y-68754380D01*
X72001142Y-67754380D01*
X72715428Y-67754380D02*
X73334476Y-67754380D01*
X73001142Y-68135333D01*
X73144000Y-68135333D01*
X73239238Y-68182952D01*
X73286857Y-68230571D01*
X73334476Y-68325809D01*
X73334476Y-68563904D01*
X73286857Y-68659142D01*
X73239238Y-68706761D01*
X73144000Y-68754380D01*
X72858285Y-68754380D01*
X72763047Y-68706761D01*
X72715428Y-68659142D01*
X51720761Y-52621619D02*
X51625523Y-52574000D01*
X51530285Y-52478761D01*
X51387428Y-52335904D01*
X51292190Y-52288285D01*
X51196952Y-52288285D01*
X51244571Y-52526380D02*
X51149333Y-52478761D01*
X51054095Y-52383523D01*
X51006476Y-52193047D01*
X51006476Y-51859714D01*
X51054095Y-51669238D01*
X51149333Y-51574000D01*
X51244571Y-51526380D01*
X51435047Y-51526380D01*
X51530285Y-51574000D01*
X51625523Y-51669238D01*
X51673142Y-51859714D01*
X51673142Y-52193047D01*
X51625523Y-52383523D01*
X51530285Y-52478761D01*
X51435047Y-52526380D01*
X51244571Y-52526380D01*
X52625523Y-52526380D02*
X52054095Y-52526380D01*
X52339809Y-52526380D02*
X52339809Y-51526380D01*
X52244571Y-51669238D01*
X52149333Y-51764476D01*
X52054095Y-51812095D01*
X44862761Y-69087619D02*
X44767523Y-69040000D01*
X44672285Y-68944761D01*
X44529428Y-68801904D01*
X44434190Y-68754285D01*
X44338952Y-68754285D01*
X44386571Y-68992380D02*
X44291333Y-68944761D01*
X44196095Y-68849523D01*
X44148476Y-68659047D01*
X44148476Y-68325714D01*
X44196095Y-68135238D01*
X44291333Y-68040000D01*
X44386571Y-67992380D01*
X44577047Y-67992380D01*
X44672285Y-68040000D01*
X44767523Y-68135238D01*
X44815142Y-68325714D01*
X44815142Y-68659047D01*
X44767523Y-68849523D01*
X44672285Y-68944761D01*
X44577047Y-68992380D01*
X44386571Y-68992380D01*
X45196095Y-68087619D02*
X45243714Y-68040000D01*
X45338952Y-67992380D01*
X45577047Y-67992380D01*
X45672285Y-68040000D01*
X45719904Y-68087619D01*
X45767523Y-68182857D01*
X45767523Y-68278095D01*
X45719904Y-68420952D01*
X45148476Y-68992380D01*
X45767523Y-68992380D01*
X62642761Y-73739619D02*
X62547523Y-73692000D01*
X62452285Y-73596761D01*
X62309428Y-73453904D01*
X62214190Y-73406285D01*
X62118952Y-73406285D01*
X62166571Y-73644380D02*
X62071333Y-73596761D01*
X61976095Y-73501523D01*
X61928476Y-73311047D01*
X61928476Y-72977714D01*
X61976095Y-72787238D01*
X62071333Y-72692000D01*
X62166571Y-72644380D01*
X62357047Y-72644380D01*
X62452285Y-72692000D01*
X62547523Y-72787238D01*
X62595142Y-72977714D01*
X62595142Y-73311047D01*
X62547523Y-73501523D01*
X62452285Y-73596761D01*
X62357047Y-73644380D01*
X62166571Y-73644380D01*
X63452285Y-72977714D02*
X63452285Y-73644380D01*
X63214190Y-72596761D02*
X62976095Y-73311047D01*
X63595142Y-73311047D01*
X90088619Y-51914238D02*
X90041000Y-52009476D01*
X89945761Y-52104714D01*
X89802904Y-52247571D01*
X89755285Y-52342809D01*
X89755285Y-52438047D01*
X89993380Y-52390428D02*
X89945761Y-52485666D01*
X89850523Y-52580904D01*
X89660047Y-52628523D01*
X89326714Y-52628523D01*
X89136238Y-52580904D01*
X89041000Y-52485666D01*
X88993380Y-52390428D01*
X88993380Y-52199952D01*
X89041000Y-52104714D01*
X89136238Y-52009476D01*
X89326714Y-51961857D01*
X89660047Y-51961857D01*
X89850523Y-52009476D01*
X89945761Y-52104714D01*
X89993380Y-52199952D01*
X89993380Y-52390428D01*
X88993380Y-51057095D02*
X88993380Y-51533285D01*
X89469571Y-51580904D01*
X89421952Y-51533285D01*
X89374333Y-51438047D01*
X89374333Y-51199952D01*
X89421952Y-51104714D01*
X89469571Y-51057095D01*
X89564809Y-51009476D01*
X89802904Y-51009476D01*
X89898142Y-51057095D01*
X89945761Y-51104714D01*
X89993380Y-51199952D01*
X89993380Y-51438047D01*
X89945761Y-51533285D01*
X89898142Y-51580904D01*
X96121619Y-62817238D02*
X96074000Y-62912476D01*
X95978761Y-63007714D01*
X95835904Y-63150571D01*
X95788285Y-63245809D01*
X95788285Y-63341047D01*
X96026380Y-63293428D02*
X95978761Y-63388666D01*
X95883523Y-63483904D01*
X95693047Y-63531523D01*
X95359714Y-63531523D01*
X95169238Y-63483904D01*
X95074000Y-63388666D01*
X95026380Y-63293428D01*
X95026380Y-63102952D01*
X95074000Y-63007714D01*
X95169238Y-62912476D01*
X95359714Y-62864857D01*
X95693047Y-62864857D01*
X95883523Y-62912476D01*
X95978761Y-63007714D01*
X96026380Y-63102952D01*
X96026380Y-63293428D01*
X95026380Y-62007714D02*
X95026380Y-62198190D01*
X95074000Y-62293428D01*
X95121619Y-62341047D01*
X95264476Y-62436285D01*
X95454952Y-62483904D01*
X95835904Y-62483904D01*
X95931142Y-62436285D01*
X95978761Y-62388666D01*
X96026380Y-62293428D01*
X96026380Y-62102952D01*
X95978761Y-62007714D01*
X95931142Y-61960095D01*
X95835904Y-61912476D01*
X95597809Y-61912476D01*
X95502571Y-61960095D01*
X95454952Y-62007714D01*
X95407333Y-62102952D01*
X95407333Y-62293428D01*
X95454952Y-62388666D01*
X95502571Y-62436285D01*
X95597809Y-62483904D01*
X50633333Y-49314380D02*
X50300000Y-48838190D01*
X50061904Y-49314380D02*
X50061904Y-48314380D01*
X50442857Y-48314380D01*
X50538095Y-48362000D01*
X50585714Y-48409619D01*
X50633333Y-48504857D01*
X50633333Y-48647714D01*
X50585714Y-48742952D01*
X50538095Y-48790571D01*
X50442857Y-48838190D01*
X50061904Y-48838190D01*
X50966666Y-48314380D02*
X51585714Y-48314380D01*
X51252380Y-48695333D01*
X51395238Y-48695333D01*
X51490476Y-48742952D01*
X51538095Y-48790571D01*
X51585714Y-48885809D01*
X51585714Y-49123904D01*
X51538095Y-49219142D01*
X51490476Y-49266761D01*
X51395238Y-49314380D01*
X51109523Y-49314380D01*
X51014285Y-49266761D01*
X50966666Y-49219142D01*
X50633333Y-53698380D02*
X50300000Y-53222190D01*
X50061904Y-53698380D02*
X50061904Y-52698380D01*
X50442857Y-52698380D01*
X50538095Y-52746000D01*
X50585714Y-52793619D01*
X50633333Y-52888857D01*
X50633333Y-53031714D01*
X50585714Y-53126952D01*
X50538095Y-53174571D01*
X50442857Y-53222190D01*
X50061904Y-53222190D01*
X51490476Y-53031714D02*
X51490476Y-53698380D01*
X51252380Y-52650761D02*
X51014285Y-53365047D01*
X51633333Y-53365047D01*
X46774380Y-66206666D02*
X46298190Y-66540000D01*
X46774380Y-66778095D02*
X45774380Y-66778095D01*
X45774380Y-66397142D01*
X45822000Y-66301904D01*
X45869619Y-66254285D01*
X45964857Y-66206666D01*
X46107714Y-66206666D01*
X46202952Y-66254285D01*
X46250571Y-66301904D01*
X46298190Y-66397142D01*
X46298190Y-66778095D01*
X45774380Y-65349523D02*
X45774380Y-65540000D01*
X45822000Y-65635238D01*
X45869619Y-65682857D01*
X46012476Y-65778095D01*
X46202952Y-65825714D01*
X46583904Y-65825714D01*
X46679142Y-65778095D01*
X46726761Y-65730476D01*
X46774380Y-65635238D01*
X46774380Y-65444761D01*
X46726761Y-65349523D01*
X46679142Y-65301904D01*
X46583904Y-65254285D01*
X46345809Y-65254285D01*
X46250571Y-65301904D01*
X46202952Y-65349523D01*
X46155333Y-65444761D01*
X46155333Y-65635238D01*
X46202952Y-65730476D01*
X46250571Y-65778095D01*
X46345809Y-65825714D01*
X59015333Y-50142380D02*
X58682000Y-49666190D01*
X58443904Y-50142380D02*
X58443904Y-49142380D01*
X58824857Y-49142380D01*
X58920095Y-49190000D01*
X58967714Y-49237619D01*
X59015333Y-49332857D01*
X59015333Y-49475714D01*
X58967714Y-49570952D01*
X58920095Y-49618571D01*
X58824857Y-49666190D01*
X58443904Y-49666190D01*
X59348666Y-49142380D02*
X60015333Y-49142380D01*
X59586761Y-50142380D01*
X46682333Y-70462380D02*
X46349000Y-69986190D01*
X46110904Y-70462380D02*
X46110904Y-69462380D01*
X46491857Y-69462380D01*
X46587095Y-69510000D01*
X46634714Y-69557619D01*
X46682333Y-69652857D01*
X46682333Y-69795714D01*
X46634714Y-69890952D01*
X46587095Y-69938571D01*
X46491857Y-69986190D01*
X46110904Y-69986190D01*
X47253761Y-69890952D02*
X47158523Y-69843333D01*
X47110904Y-69795714D01*
X47063285Y-69700476D01*
X47063285Y-69652857D01*
X47110904Y-69557619D01*
X47158523Y-69510000D01*
X47253761Y-69462380D01*
X47444238Y-69462380D01*
X47539476Y-69510000D01*
X47587095Y-69557619D01*
X47634714Y-69652857D01*
X47634714Y-69700476D01*
X47587095Y-69795714D01*
X47539476Y-69843333D01*
X47444238Y-69890952D01*
X47253761Y-69890952D01*
X47158523Y-69938571D01*
X47110904Y-69986190D01*
X47063285Y-70081428D01*
X47063285Y-70271904D01*
X47110904Y-70367142D01*
X47158523Y-70414761D01*
X47253761Y-70462380D01*
X47444238Y-70462380D01*
X47539476Y-70414761D01*
X47587095Y-70367142D01*
X47634714Y-70271904D01*
X47634714Y-70081428D01*
X47587095Y-69986190D01*
X47539476Y-69938571D01*
X47444238Y-69890952D01*
X46315333Y-71666380D02*
X45982000Y-71190190D01*
X45743904Y-71666380D02*
X45743904Y-70666380D01*
X46124857Y-70666380D01*
X46220095Y-70714000D01*
X46267714Y-70761619D01*
X46315333Y-70856857D01*
X46315333Y-70999714D01*
X46267714Y-71094952D01*
X46220095Y-71142571D01*
X46124857Y-71190190D01*
X45743904Y-71190190D01*
X46791523Y-71666380D02*
X46982000Y-71666380D01*
X47077238Y-71618761D01*
X47124857Y-71571142D01*
X47220095Y-71428285D01*
X47267714Y-71237809D01*
X47267714Y-70856857D01*
X47220095Y-70761619D01*
X47172476Y-70714000D01*
X47077238Y-70666380D01*
X46886761Y-70666380D01*
X46791523Y-70714000D01*
X46743904Y-70761619D01*
X46696285Y-70856857D01*
X46696285Y-71094952D01*
X46743904Y-71190190D01*
X46791523Y-71237809D01*
X46886761Y-71285428D01*
X47077238Y-71285428D01*
X47172476Y-71237809D01*
X47220095Y-71190190D01*
X47267714Y-71094952D01*
X58539142Y-77508380D02*
X58205809Y-77032190D01*
X57967714Y-77508380D02*
X57967714Y-76508380D01*
X58348666Y-76508380D01*
X58443904Y-76556000D01*
X58491523Y-76603619D01*
X58539142Y-76698857D01*
X58539142Y-76841714D01*
X58491523Y-76936952D01*
X58443904Y-76984571D01*
X58348666Y-77032190D01*
X57967714Y-77032190D01*
X59491523Y-77508380D02*
X58920095Y-77508380D01*
X59205809Y-77508380D02*
X59205809Y-76508380D01*
X59110571Y-76651238D01*
X59015333Y-76746476D01*
X58920095Y-76794095D01*
X60110571Y-76508380D02*
X60205809Y-76508380D01*
X60301047Y-76556000D01*
X60348666Y-76603619D01*
X60396285Y-76698857D01*
X60443904Y-76889333D01*
X60443904Y-77127428D01*
X60396285Y-77317904D01*
X60348666Y-77413142D01*
X60301047Y-77460761D01*
X60205809Y-77508380D01*
X60110571Y-77508380D01*
X60015333Y-77460761D01*
X59967714Y-77413142D01*
X59920095Y-77317904D01*
X59872476Y-77127428D01*
X59872476Y-76889333D01*
X59920095Y-76698857D01*
X59967714Y-76603619D01*
X60015333Y-76556000D01*
X60110571Y-76508380D01*
X78103142Y-51432380D02*
X77769809Y-50956190D01*
X77531714Y-51432380D02*
X77531714Y-50432380D01*
X77912666Y-50432380D01*
X78007904Y-50480000D01*
X78055523Y-50527619D01*
X78103142Y-50622857D01*
X78103142Y-50765714D01*
X78055523Y-50860952D01*
X78007904Y-50908571D01*
X77912666Y-50956190D01*
X77531714Y-50956190D01*
X79055523Y-51432380D02*
X78484095Y-51432380D01*
X78769809Y-51432380D02*
X78769809Y-50432380D01*
X78674571Y-50575238D01*
X78579333Y-50670476D01*
X78484095Y-50718095D01*
X80007904Y-51432380D02*
X79436476Y-51432380D01*
X79722190Y-51432380D02*
X79722190Y-50432380D01*
X79626952Y-50575238D01*
X79531714Y-50670476D01*
X79436476Y-50718095D01*
X62080380Y-76334857D02*
X61604190Y-76668190D01*
X62080380Y-76906285D02*
X61080380Y-76906285D01*
X61080380Y-76525333D01*
X61128000Y-76430095D01*
X61175619Y-76382476D01*
X61270857Y-76334857D01*
X61413714Y-76334857D01*
X61508952Y-76382476D01*
X61556571Y-76430095D01*
X61604190Y-76525333D01*
X61604190Y-76906285D01*
X62080380Y-75382476D02*
X62080380Y-75953904D01*
X62080380Y-75668190D02*
X61080380Y-75668190D01*
X61223238Y-75763428D01*
X61318476Y-75858666D01*
X61366095Y-75953904D01*
X61175619Y-75001523D02*
X61128000Y-74953904D01*
X61080380Y-74858666D01*
X61080380Y-74620571D01*
X61128000Y-74525333D01*
X61175619Y-74477714D01*
X61270857Y-74430095D01*
X61366095Y-74430095D01*
X61508952Y-74477714D01*
X62080380Y-75049142D01*
X62080380Y-74430095D01*
X58539142Y-81892380D02*
X58205809Y-81416190D01*
X57967714Y-81892380D02*
X57967714Y-80892380D01*
X58348666Y-80892380D01*
X58443904Y-80940000D01*
X58491523Y-80987619D01*
X58539142Y-81082857D01*
X58539142Y-81225714D01*
X58491523Y-81320952D01*
X58443904Y-81368571D01*
X58348666Y-81416190D01*
X57967714Y-81416190D01*
X59491523Y-81892380D02*
X58920095Y-81892380D01*
X59205809Y-81892380D02*
X59205809Y-80892380D01*
X59110571Y-81035238D01*
X59015333Y-81130476D01*
X58920095Y-81178095D01*
X59824857Y-80892380D02*
X60443904Y-80892380D01*
X60110571Y-81273333D01*
X60253428Y-81273333D01*
X60348666Y-81320952D01*
X60396285Y-81368571D01*
X60443904Y-81463809D01*
X60443904Y-81701904D01*
X60396285Y-81797142D01*
X60348666Y-81844761D01*
X60253428Y-81892380D01*
X59967714Y-81892380D01*
X59872476Y-81844761D01*
X59824857Y-81797142D01*
X62095142Y-74780380D02*
X61761809Y-74304190D01*
X61523714Y-74780380D02*
X61523714Y-73780380D01*
X61904666Y-73780380D01*
X61999904Y-73828000D01*
X62047523Y-73875619D01*
X62095142Y-73970857D01*
X62095142Y-74113714D01*
X62047523Y-74208952D01*
X61999904Y-74256571D01*
X61904666Y-74304190D01*
X61523714Y-74304190D01*
X63047523Y-74780380D02*
X62476095Y-74780380D01*
X62761809Y-74780380D02*
X62761809Y-73780380D01*
X62666571Y-73923238D01*
X62571333Y-74018476D01*
X62476095Y-74066095D01*
X63904666Y-74113714D02*
X63904666Y-74780380D01*
X63666571Y-73732761D02*
X63428476Y-74447047D01*
X64047523Y-74447047D01*
X102282380Y-69442857D02*
X101806190Y-69776190D01*
X102282380Y-70014285D02*
X101282380Y-70014285D01*
X101282380Y-69633333D01*
X101330000Y-69538095D01*
X101377619Y-69490476D01*
X101472857Y-69442857D01*
X101615714Y-69442857D01*
X101710952Y-69490476D01*
X101758571Y-69538095D01*
X101806190Y-69633333D01*
X101806190Y-70014285D01*
X102282380Y-68490476D02*
X102282380Y-69061904D01*
X102282380Y-68776190D02*
X101282380Y-68776190D01*
X101425238Y-68871428D01*
X101520476Y-68966666D01*
X101568095Y-69061904D01*
X101282380Y-67585714D02*
X101282380Y-68061904D01*
X101758571Y-68109523D01*
X101710952Y-68061904D01*
X101663333Y-67966666D01*
X101663333Y-67728571D01*
X101710952Y-67633333D01*
X101758571Y-67585714D01*
X101853809Y-67538095D01*
X102091904Y-67538095D01*
X102187142Y-67585714D01*
X102234761Y-67633333D01*
X102282380Y-67728571D01*
X102282380Y-67966666D01*
X102234761Y-68061904D01*
X102187142Y-68109523D01*
X91335142Y-59016380D02*
X91001809Y-58540190D01*
X90763714Y-59016380D02*
X90763714Y-58016380D01*
X91144666Y-58016380D01*
X91239904Y-58064000D01*
X91287523Y-58111619D01*
X91335142Y-58206857D01*
X91335142Y-58349714D01*
X91287523Y-58444952D01*
X91239904Y-58492571D01*
X91144666Y-58540190D01*
X90763714Y-58540190D01*
X92287523Y-59016380D02*
X91716095Y-59016380D01*
X92001809Y-59016380D02*
X92001809Y-58016380D01*
X91906571Y-58159238D01*
X91811333Y-58254476D01*
X91716095Y-58302095D01*
X93144666Y-58016380D02*
X92954190Y-58016380D01*
X92858952Y-58064000D01*
X92811333Y-58111619D01*
X92716095Y-58254476D01*
X92668476Y-58444952D01*
X92668476Y-58825904D01*
X92716095Y-58921142D01*
X92763714Y-58968761D01*
X92858952Y-59016380D01*
X93049428Y-59016380D01*
X93144666Y-58968761D01*
X93192285Y-58921142D01*
X93239904Y-58825904D01*
X93239904Y-58587809D01*
X93192285Y-58492571D01*
X93144666Y-58444952D01*
X93049428Y-58397333D01*
X92858952Y-58397333D01*
X92763714Y-58444952D01*
X92716095Y-58492571D01*
X92668476Y-58587809D01*
X93875142Y-60728380D02*
X93541809Y-60252190D01*
X93303714Y-60728380D02*
X93303714Y-59728380D01*
X93684666Y-59728380D01*
X93779904Y-59776000D01*
X93827523Y-59823619D01*
X93875142Y-59918857D01*
X93875142Y-60061714D01*
X93827523Y-60156952D01*
X93779904Y-60204571D01*
X93684666Y-60252190D01*
X93303714Y-60252190D01*
X94827523Y-60728380D02*
X94256095Y-60728380D01*
X94541809Y-60728380D02*
X94541809Y-59728380D01*
X94446571Y-59871238D01*
X94351333Y-59966476D01*
X94256095Y-60014095D01*
X95160857Y-59728380D02*
X95827523Y-59728380D01*
X95398952Y-60728380D01*
X93794380Y-59808857D02*
X93318190Y-60142190D01*
X93794380Y-60380285D02*
X92794380Y-60380285D01*
X92794380Y-59999333D01*
X92842000Y-59904095D01*
X92889619Y-59856476D01*
X92984857Y-59808857D01*
X93127714Y-59808857D01*
X93222952Y-59856476D01*
X93270571Y-59904095D01*
X93318190Y-59999333D01*
X93318190Y-60380285D01*
X93794380Y-58856476D02*
X93794380Y-59427904D01*
X93794380Y-59142190D02*
X92794380Y-59142190D01*
X92937238Y-59237428D01*
X93032476Y-59332666D01*
X93080095Y-59427904D01*
X93222952Y-58285047D02*
X93175333Y-58380285D01*
X93127714Y-58427904D01*
X93032476Y-58475523D01*
X92984857Y-58475523D01*
X92889619Y-58427904D01*
X92842000Y-58380285D01*
X92794380Y-58285047D01*
X92794380Y-58094571D01*
X92842000Y-57999333D01*
X92889619Y-57951714D01*
X92984857Y-57904095D01*
X93032476Y-57904095D01*
X93127714Y-57951714D01*
X93175333Y-57999333D01*
X93222952Y-58094571D01*
X93222952Y-58285047D01*
X93270571Y-58380285D01*
X93318190Y-58427904D01*
X93413428Y-58475523D01*
X93603904Y-58475523D01*
X93699142Y-58427904D01*
X93746761Y-58380285D01*
X93794380Y-58285047D01*
X93794380Y-58094571D01*
X93746761Y-57999333D01*
X93699142Y-57951714D01*
X93603904Y-57904095D01*
X93413428Y-57904095D01*
X93318190Y-57951714D01*
X93270571Y-57999333D01*
X93222952Y-58094571D01*
X93875142Y-62506380D02*
X93541809Y-62030190D01*
X93303714Y-62506380D02*
X93303714Y-61506380D01*
X93684666Y-61506380D01*
X93779904Y-61554000D01*
X93827523Y-61601619D01*
X93875142Y-61696857D01*
X93875142Y-61839714D01*
X93827523Y-61934952D01*
X93779904Y-61982571D01*
X93684666Y-62030190D01*
X93303714Y-62030190D01*
X94827523Y-62506380D02*
X94256095Y-62506380D01*
X94541809Y-62506380D02*
X94541809Y-61506380D01*
X94446571Y-61649238D01*
X94351333Y-61744476D01*
X94256095Y-61792095D01*
X95303714Y-62506380D02*
X95494190Y-62506380D01*
X95589428Y-62458761D01*
X95637047Y-62411142D01*
X95732285Y-62268285D01*
X95779904Y-62077809D01*
X95779904Y-61696857D01*
X95732285Y-61601619D01*
X95684666Y-61554000D01*
X95589428Y-61506380D01*
X95398952Y-61506380D01*
X95303714Y-61554000D01*
X95256095Y-61601619D01*
X95208476Y-61696857D01*
X95208476Y-61934952D01*
X95256095Y-62030190D01*
X95303714Y-62077809D01*
X95398952Y-62125428D01*
X95589428Y-62125428D01*
X95684666Y-62077809D01*
X95732285Y-62030190D01*
X95779904Y-61934952D01*
X69213142Y-54160380D02*
X68879809Y-53684190D01*
X68641714Y-54160380D02*
X68641714Y-53160380D01*
X69022666Y-53160380D01*
X69117904Y-53208000D01*
X69165523Y-53255619D01*
X69213142Y-53350857D01*
X69213142Y-53493714D01*
X69165523Y-53588952D01*
X69117904Y-53636571D01*
X69022666Y-53684190D01*
X68641714Y-53684190D01*
X69594095Y-53255619D02*
X69641714Y-53208000D01*
X69736952Y-53160380D01*
X69975047Y-53160380D01*
X70070285Y-53208000D01*
X70117904Y-53255619D01*
X70165523Y-53350857D01*
X70165523Y-53446095D01*
X70117904Y-53588952D01*
X69546476Y-54160380D01*
X70165523Y-54160380D01*
X71117904Y-54160380D02*
X70546476Y-54160380D01*
X70832190Y-54160380D02*
X70832190Y-53160380D01*
X70736952Y-53303238D01*
X70641714Y-53398476D01*
X70546476Y-53446095D01*
X72754380Y-58320857D02*
X72278190Y-58654190D01*
X72754380Y-58892285D02*
X71754380Y-58892285D01*
X71754380Y-58511333D01*
X71802000Y-58416095D01*
X71849619Y-58368476D01*
X71944857Y-58320857D01*
X72087714Y-58320857D01*
X72182952Y-58368476D01*
X72230571Y-58416095D01*
X72278190Y-58511333D01*
X72278190Y-58892285D01*
X71849619Y-57939904D02*
X71802000Y-57892285D01*
X71754380Y-57797047D01*
X71754380Y-57558952D01*
X71802000Y-57463714D01*
X71849619Y-57416095D01*
X71944857Y-57368476D01*
X72040095Y-57368476D01*
X72182952Y-57416095D01*
X72754380Y-57987523D01*
X72754380Y-57368476D01*
X71849619Y-56987523D02*
X71802000Y-56939904D01*
X71754380Y-56844666D01*
X71754380Y-56606571D01*
X71802000Y-56511333D01*
X71849619Y-56463714D01*
X71944857Y-56416095D01*
X72040095Y-56416095D01*
X72182952Y-56463714D01*
X72754380Y-57035142D01*
X72754380Y-56416095D01*
X82824666Y-69698761D02*
X82967523Y-69746380D01*
X83205619Y-69746380D01*
X83300857Y-69698761D01*
X83348476Y-69651142D01*
X83396095Y-69555904D01*
X83396095Y-69460666D01*
X83348476Y-69365428D01*
X83300857Y-69317809D01*
X83205619Y-69270190D01*
X83015142Y-69222571D01*
X82919904Y-69174952D01*
X82872285Y-69127333D01*
X82824666Y-69032095D01*
X82824666Y-68936857D01*
X82872285Y-68841619D01*
X82919904Y-68794000D01*
X83015142Y-68746380D01*
X83253238Y-68746380D01*
X83396095Y-68794000D01*
X83729428Y-68746380D02*
X83967523Y-69746380D01*
X84158000Y-69032095D01*
X84348476Y-69746380D01*
X84586571Y-68746380D01*
X85491333Y-69746380D02*
X84919904Y-69746380D01*
X85205619Y-69746380D02*
X85205619Y-68746380D01*
X85110380Y-68889238D01*
X85015142Y-68984476D01*
X84919904Y-69032095D01*
X101249095Y-74068380D02*
X101249095Y-74877904D01*
X101296714Y-74973142D01*
X101344333Y-75020761D01*
X101439571Y-75068380D01*
X101630047Y-75068380D01*
X101725285Y-75020761D01*
X101772904Y-74973142D01*
X101820523Y-74877904D01*
X101820523Y-74068380D01*
X102820523Y-75068380D02*
X102249095Y-75068380D01*
X102534809Y-75068380D02*
X102534809Y-74068380D01*
X102439571Y-74211238D01*
X102344333Y-74306476D01*
X102249095Y-74354095D01*
X101249095Y-67718380D02*
X101249095Y-68527904D01*
X101296714Y-68623142D01*
X101344333Y-68670761D01*
X101439571Y-68718380D01*
X101630047Y-68718380D01*
X101725285Y-68670761D01*
X101772904Y-68623142D01*
X101820523Y-68527904D01*
X101820523Y-67718380D01*
X102249095Y-67813619D02*
X102296714Y-67766000D01*
X102391952Y-67718380D01*
X102630047Y-67718380D01*
X102725285Y-67766000D01*
X102772904Y-67813619D01*
X102820523Y-67908857D01*
X102820523Y-68004095D01*
X102772904Y-68146952D01*
X102201476Y-68718380D01*
X102820523Y-68718380D01*
X77222095Y-49894380D02*
X77222095Y-50703904D01*
X77269714Y-50799142D01*
X77317333Y-50846761D01*
X77412571Y-50894380D01*
X77603047Y-50894380D01*
X77698285Y-50846761D01*
X77745904Y-50799142D01*
X77793523Y-50703904D01*
X77793523Y-49894380D01*
X78174476Y-49894380D02*
X78793523Y-49894380D01*
X78460190Y-50275333D01*
X78603047Y-50275333D01*
X78698285Y-50322952D01*
X78745904Y-50370571D01*
X78793523Y-50465809D01*
X78793523Y-50703904D01*
X78745904Y-50799142D01*
X78698285Y-50846761D01*
X78603047Y-50894380D01*
X78317333Y-50894380D01*
X78222095Y-50846761D01*
X78174476Y-50799142D01*
X66237142Y-74302857D02*
X66284761Y-74350476D01*
X66332380Y-74493333D01*
X66332380Y-74588571D01*
X66284761Y-74731428D01*
X66189523Y-74826666D01*
X66094285Y-74874285D01*
X65903809Y-74921904D01*
X65760952Y-74921904D01*
X65570476Y-74874285D01*
X65475238Y-74826666D01*
X65380000Y-74731428D01*
X65332380Y-74588571D01*
X65332380Y-74493333D01*
X65380000Y-74350476D01*
X65427619Y-74302857D01*
X66332380Y-73350476D02*
X66332380Y-73921904D01*
X66332380Y-73636190D02*
X65332380Y-73636190D01*
X65475238Y-73731428D01*
X65570476Y-73826666D01*
X65618095Y-73921904D01*
X65427619Y-72969523D02*
X65380000Y-72921904D01*
X65332380Y-72826666D01*
X65332380Y-72588571D01*
X65380000Y-72493333D01*
X65427619Y-72445714D01*
X65522857Y-72398095D01*
X65618095Y-72398095D01*
X65760952Y-72445714D01*
X66332380Y-73017142D01*
X66332380Y-72398095D01*
X67856380Y-74302857D02*
X67380190Y-74636190D01*
X67856380Y-74874285D02*
X66856380Y-74874285D01*
X66856380Y-74493333D01*
X66904000Y-74398095D01*
X66951619Y-74350476D01*
X67046857Y-74302857D01*
X67189714Y-74302857D01*
X67284952Y-74350476D01*
X67332571Y-74398095D01*
X67380190Y-74493333D01*
X67380190Y-74874285D01*
X66951619Y-73921904D02*
X66904000Y-73874285D01*
X66856380Y-73779047D01*
X66856380Y-73540952D01*
X66904000Y-73445714D01*
X66951619Y-73398095D01*
X67046857Y-73350476D01*
X67142095Y-73350476D01*
X67284952Y-73398095D01*
X67856380Y-73969523D01*
X67856380Y-73350476D01*
X66856380Y-73017142D02*
X66856380Y-72398095D01*
X67237333Y-72731428D01*
X67237333Y-72588571D01*
X67284952Y-72493333D01*
X67332571Y-72445714D01*
X67427809Y-72398095D01*
X67665904Y-72398095D01*
X67761142Y-72445714D01*
X67808761Y-72493333D01*
X67856380Y-72588571D01*
X67856380Y-72874285D01*
X67808761Y-72969523D01*
X67761142Y-73017142D01*
X65496285Y-73656380D02*
X66067714Y-73656380D01*
X65782000Y-74656380D02*
X65782000Y-73656380D01*
X66401047Y-74656380D02*
X66401047Y-73656380D01*
X66401047Y-74132571D02*
X66972476Y-74132571D01*
X66972476Y-74656380D02*
X66972476Y-73656380D01*
X67972476Y-74656380D02*
X67401047Y-74656380D01*
X67686761Y-74656380D02*
X67686761Y-73656380D01*
X67591523Y-73799238D01*
X67496285Y-73894476D01*
X67401047Y-73942095D01*
X103648380Y-49204333D02*
X104362666Y-49204333D01*
X104505523Y-49251952D01*
X104600761Y-49347190D01*
X104648380Y-49490047D01*
X104648380Y-49585285D01*
X104648380Y-48728142D02*
X103648380Y-48728142D01*
X103648380Y-48347190D01*
X103696000Y-48251952D01*
X103743619Y-48204333D01*
X103838857Y-48156714D01*
X103981714Y-48156714D01*
X104076952Y-48204333D01*
X104124571Y-48251952D01*
X104172190Y-48347190D01*
X104172190Y-48728142D01*
X103648380Y-47823380D02*
X103648380Y-47204333D01*
X104029333Y-47537666D01*
X104029333Y-47394809D01*
X104076952Y-47299571D01*
X104124571Y-47251952D01*
X104219809Y-47204333D01*
X104457904Y-47204333D01*
X104553142Y-47251952D01*
X104600761Y-47299571D01*
X104648380Y-47394809D01*
X104648380Y-47680523D01*
X104600761Y-47775761D01*
X104553142Y-47823380D01*
X55055619Y-78269238D02*
X55008000Y-78364476D01*
X54912761Y-78459714D01*
X54769904Y-78602571D01*
X54722285Y-78697809D01*
X54722285Y-78793047D01*
X54960380Y-78745428D02*
X54912761Y-78840666D01*
X54817523Y-78935904D01*
X54627047Y-78983523D01*
X54293714Y-78983523D01*
X54103238Y-78935904D01*
X54008000Y-78840666D01*
X53960380Y-78745428D01*
X53960380Y-78554952D01*
X54008000Y-78459714D01*
X54103238Y-78364476D01*
X54293714Y-78316857D01*
X54627047Y-78316857D01*
X54817523Y-78364476D01*
X54912761Y-78459714D01*
X54960380Y-78554952D01*
X54960380Y-78745428D01*
X53960380Y-77983523D02*
X53960380Y-77364476D01*
X54341333Y-77697809D01*
X54341333Y-77554952D01*
X54388952Y-77459714D01*
X54436571Y-77412095D01*
X54531809Y-77364476D01*
X54769904Y-77364476D01*
X54865142Y-77412095D01*
X54912761Y-77459714D01*
X54960380Y-77554952D01*
X54960380Y-77840666D01*
X54912761Y-77935904D01*
X54865142Y-77983523D01*
M02*
