G04 #@! TF.GenerationSoftware,KiCad,Pcbnew,5.1.5+dfsg1-2build2*
G04 #@! TF.CreationDate,2022-06-14T14:03:14+02:00*
G04 #@! TF.ProjectId,model1,6d6f6465-6c31-42e6-9b69-6361645f7063,rev?*
G04 #@! TF.SameCoordinates,Original*
G04 #@! TF.FileFunction,Soldermask,Bot*
G04 #@! TF.FilePolarity,Negative*
%FSLAX46Y46*%
G04 Gerber Fmt 4.6, Leading zero omitted, Abs format (unit mm)*
G04 Created by KiCad (PCBNEW 5.1.5+dfsg1-2build2) date 2022-06-14 14:03:14*
%MOMM*%
%LPD*%
G04 APERTURE LIST*
%ADD10C,0.100000*%
G04 APERTURE END LIST*
D10*
G36*
X48746000Y-81411000D02*
G01*
X44144000Y-81411000D01*
X44144000Y-78609000D01*
X48746000Y-78609000D01*
X48746000Y-81411000D01*
G37*
G36*
X40946000Y-81411000D02*
G01*
X36344000Y-81411000D01*
X36344000Y-78609000D01*
X40946000Y-78609000D01*
X40946000Y-81411000D01*
G37*
G36*
X102812000Y-76862000D02*
G01*
X102583735Y-76862000D01*
X102559349Y-76864402D01*
X102535900Y-76871515D01*
X102514289Y-76883066D01*
X102495347Y-76898611D01*
X102479802Y-76917553D01*
X102468251Y-76939164D01*
X102461138Y-76962613D01*
X102458736Y-76986999D01*
X102461138Y-77011385D01*
X102468251Y-77034834D01*
X102479802Y-77056445D01*
X102495347Y-77075387D01*
X102514289Y-77090932D01*
X102524802Y-77097233D01*
X102568600Y-77120644D01*
X102568602Y-77120645D01*
X102568601Y-77120645D01*
X102652501Y-77189499D01*
X102721357Y-77273400D01*
X102738247Y-77305000D01*
X102772521Y-77369121D01*
X102804027Y-77472985D01*
X102814666Y-77581000D01*
X102804027Y-77689015D01*
X102772521Y-77792879D01*
X102772519Y-77792882D01*
X102721357Y-77888600D01*
X102652501Y-77972501D01*
X102568600Y-78041357D01*
X102500055Y-78077995D01*
X102472879Y-78092521D01*
X102460131Y-78096388D01*
X102437504Y-78105760D01*
X102417130Y-78119374D01*
X102399803Y-78136701D01*
X102386189Y-78157075D01*
X102376812Y-78179714D01*
X102372031Y-78203747D01*
X102372031Y-78228251D01*
X102376811Y-78252285D01*
X102386188Y-78274924D01*
X102399802Y-78295298D01*
X102417129Y-78312625D01*
X102437503Y-78326239D01*
X102460131Y-78335612D01*
X102472879Y-78339479D01*
X102500055Y-78354005D01*
X102568600Y-78390643D01*
X102652501Y-78459499D01*
X102721357Y-78543400D01*
X102756421Y-78609000D01*
X102772521Y-78639121D01*
X102804027Y-78742985D01*
X102814666Y-78851000D01*
X102804027Y-78959015D01*
X102772521Y-79062879D01*
X102772519Y-79062882D01*
X102721357Y-79158600D01*
X102652501Y-79242501D01*
X102568600Y-79311357D01*
X102500055Y-79347995D01*
X102472879Y-79362521D01*
X102460131Y-79366388D01*
X102437504Y-79375760D01*
X102417130Y-79389374D01*
X102399803Y-79406701D01*
X102386189Y-79427075D01*
X102376812Y-79449714D01*
X102372031Y-79473747D01*
X102372031Y-79498251D01*
X102376811Y-79522285D01*
X102386188Y-79544924D01*
X102399802Y-79565298D01*
X102417129Y-79582625D01*
X102437503Y-79596239D01*
X102460131Y-79605612D01*
X102472879Y-79609479D01*
X102500055Y-79624005D01*
X102568600Y-79660643D01*
X102652501Y-79729499D01*
X102721357Y-79813400D01*
X102757995Y-79881945D01*
X102772521Y-79909121D01*
X102804027Y-80012985D01*
X102814666Y-80121000D01*
X102804027Y-80229015D01*
X102772521Y-80332879D01*
X102772519Y-80332882D01*
X102721357Y-80428600D01*
X102652501Y-80512501D01*
X102568600Y-80581357D01*
X102500055Y-80617995D01*
X102472879Y-80632521D01*
X102369015Y-80664027D01*
X102288067Y-80672000D01*
X101733933Y-80672000D01*
X101652985Y-80664027D01*
X101549121Y-80632521D01*
X101521945Y-80617995D01*
X101453400Y-80581357D01*
X101369499Y-80512501D01*
X101300643Y-80428600D01*
X101249481Y-80332882D01*
X101249479Y-80332879D01*
X101217973Y-80229015D01*
X101207334Y-80121000D01*
X101217973Y-80012985D01*
X101249479Y-79909121D01*
X101264005Y-79881945D01*
X101300643Y-79813400D01*
X101369499Y-79729499D01*
X101453400Y-79660643D01*
X101521945Y-79624005D01*
X101549121Y-79609479D01*
X101561869Y-79605612D01*
X101584496Y-79596240D01*
X101604870Y-79582626D01*
X101622197Y-79565299D01*
X101635811Y-79544925D01*
X101645188Y-79522286D01*
X101649969Y-79498253D01*
X101649969Y-79473749D01*
X101645189Y-79449715D01*
X101635812Y-79427076D01*
X101622198Y-79406702D01*
X101604871Y-79389375D01*
X101584497Y-79375761D01*
X101561869Y-79366388D01*
X101549121Y-79362521D01*
X101521945Y-79347995D01*
X101453400Y-79311357D01*
X101369499Y-79242501D01*
X101300643Y-79158600D01*
X101249481Y-79062882D01*
X101249479Y-79062879D01*
X101217973Y-78959015D01*
X101207334Y-78851000D01*
X101217973Y-78742985D01*
X101249479Y-78639121D01*
X101265579Y-78609000D01*
X101300643Y-78543400D01*
X101369499Y-78459499D01*
X101453400Y-78390643D01*
X101521945Y-78354005D01*
X101549121Y-78339479D01*
X101561869Y-78335612D01*
X101584496Y-78326240D01*
X101604870Y-78312626D01*
X101622197Y-78295299D01*
X101635811Y-78274925D01*
X101645188Y-78252286D01*
X101649969Y-78228253D01*
X101649969Y-78203749D01*
X101645189Y-78179715D01*
X101635812Y-78157076D01*
X101622198Y-78136702D01*
X101604871Y-78119375D01*
X101584497Y-78105761D01*
X101561869Y-78096388D01*
X101549121Y-78092521D01*
X101521945Y-78077995D01*
X101453400Y-78041357D01*
X101369499Y-77972501D01*
X101300643Y-77888600D01*
X101249481Y-77792882D01*
X101249479Y-77792879D01*
X101217973Y-77689015D01*
X101207334Y-77581000D01*
X101217973Y-77472985D01*
X101249479Y-77369121D01*
X101283753Y-77305000D01*
X101300643Y-77273400D01*
X101369499Y-77189499D01*
X101453399Y-77120645D01*
X101453398Y-77120645D01*
X101453400Y-77120644D01*
X101497193Y-77097236D01*
X101517563Y-77083625D01*
X101534890Y-77066298D01*
X101548504Y-77045924D01*
X101557881Y-77023285D01*
X101562662Y-76999252D01*
X101562662Y-76974748D01*
X101557882Y-76950714D01*
X101548505Y-76928076D01*
X101534891Y-76907701D01*
X101517564Y-76890374D01*
X101497190Y-76876760D01*
X101474551Y-76867383D01*
X101450518Y-76862602D01*
X101438265Y-76862000D01*
X101210000Y-76862000D01*
X101210000Y-75760000D01*
X102812000Y-75760000D01*
X102812000Y-76862000D01*
G37*
G36*
X71114228Y-78937703D02*
G01*
X71269100Y-79001853D01*
X71408481Y-79094985D01*
X71527015Y-79213519D01*
X71620147Y-79352900D01*
X71684297Y-79507772D01*
X71717000Y-79672184D01*
X71717000Y-79839816D01*
X71684297Y-80004228D01*
X71620147Y-80159100D01*
X71527015Y-80298481D01*
X71408481Y-80417015D01*
X71269100Y-80510147D01*
X71114228Y-80574297D01*
X70949816Y-80607000D01*
X70782184Y-80607000D01*
X70617772Y-80574297D01*
X70462900Y-80510147D01*
X70323519Y-80417015D01*
X70204985Y-80298481D01*
X70111853Y-80159100D01*
X70047703Y-80004228D01*
X70015000Y-79839816D01*
X70015000Y-79672184D01*
X70047703Y-79507772D01*
X70111853Y-79352900D01*
X70204985Y-79213519D01*
X70323519Y-79094985D01*
X70462900Y-79001853D01*
X70617772Y-78937703D01*
X70782184Y-78905000D01*
X70949816Y-78905000D01*
X71114228Y-78937703D01*
G37*
G36*
X55874228Y-78937703D02*
G01*
X56029100Y-79001853D01*
X56168481Y-79094985D01*
X56287015Y-79213519D01*
X56380147Y-79352900D01*
X56444297Y-79507772D01*
X56477000Y-79672184D01*
X56477000Y-79839816D01*
X56444297Y-80004228D01*
X56380147Y-80159100D01*
X56287015Y-80298481D01*
X56168481Y-80417015D01*
X56029100Y-80510147D01*
X55874228Y-80574297D01*
X55709816Y-80607000D01*
X55542184Y-80607000D01*
X55377772Y-80574297D01*
X55222900Y-80510147D01*
X55083519Y-80417015D01*
X54964985Y-80298481D01*
X54871853Y-80159100D01*
X54807703Y-80004228D01*
X54775000Y-79839816D01*
X54775000Y-79672184D01*
X54807703Y-79507772D01*
X54871853Y-79352900D01*
X54964985Y-79213519D01*
X55083519Y-79094985D01*
X55222900Y-79001853D01*
X55377772Y-78937703D01*
X55542184Y-78905000D01*
X55709816Y-78905000D01*
X55874228Y-78937703D01*
G37*
G36*
X89559228Y-78667703D02*
G01*
X89714100Y-78731853D01*
X89853481Y-78824985D01*
X89972015Y-78943519D01*
X90065147Y-79082900D01*
X90129297Y-79237772D01*
X90162000Y-79402184D01*
X90162000Y-79569816D01*
X90129297Y-79734228D01*
X90065147Y-79889100D01*
X89972015Y-80028481D01*
X89853481Y-80147015D01*
X89714100Y-80240147D01*
X89559228Y-80304297D01*
X89394816Y-80337000D01*
X89227184Y-80337000D01*
X89062772Y-80304297D01*
X88907900Y-80240147D01*
X88768519Y-80147015D01*
X88649985Y-80028481D01*
X88556853Y-79889100D01*
X88492703Y-79734228D01*
X88460000Y-79569816D01*
X88460000Y-79402184D01*
X88492703Y-79237772D01*
X88556853Y-79082900D01*
X88649985Y-78943519D01*
X88768519Y-78824985D01*
X88907900Y-78731853D01*
X89062772Y-78667703D01*
X89227184Y-78635000D01*
X89394816Y-78635000D01*
X89559228Y-78667703D01*
G37*
G36*
X99719228Y-78667703D02*
G01*
X99874100Y-78731853D01*
X100013481Y-78824985D01*
X100132015Y-78943519D01*
X100225147Y-79082900D01*
X100289297Y-79237772D01*
X100322000Y-79402184D01*
X100322000Y-79569816D01*
X100289297Y-79734228D01*
X100225147Y-79889100D01*
X100132015Y-80028481D01*
X100013481Y-80147015D01*
X99874100Y-80240147D01*
X99719228Y-80304297D01*
X99554816Y-80337000D01*
X99387184Y-80337000D01*
X99222772Y-80304297D01*
X99067900Y-80240147D01*
X98928519Y-80147015D01*
X98809985Y-80028481D01*
X98716853Y-79889100D01*
X98652703Y-79734228D01*
X98620000Y-79569816D01*
X98620000Y-79402184D01*
X98652703Y-79237772D01*
X98716853Y-79082900D01*
X98809985Y-78943519D01*
X98928519Y-78824985D01*
X99067900Y-78731853D01*
X99222772Y-78667703D01*
X99387184Y-78635000D01*
X99554816Y-78635000D01*
X99719228Y-78667703D01*
G37*
G36*
X40946000Y-78236000D02*
G01*
X36344000Y-78236000D01*
X36344000Y-75434000D01*
X40946000Y-75434000D01*
X40946000Y-78236000D01*
G37*
G36*
X48746000Y-78236000D02*
G01*
X44144000Y-78236000D01*
X44144000Y-75434000D01*
X48746000Y-75434000D01*
X48746000Y-78236000D01*
G37*
G36*
X68280228Y-75635703D02*
G01*
X68435100Y-75699853D01*
X68574481Y-75792985D01*
X68693015Y-75911519D01*
X68786147Y-76050900D01*
X68850297Y-76205772D01*
X68883000Y-76370184D01*
X68883000Y-76537816D01*
X68850297Y-76702228D01*
X68786147Y-76857100D01*
X68693015Y-76996481D01*
X68574481Y-77115015D01*
X68435100Y-77208147D01*
X68280228Y-77272297D01*
X68115816Y-77305000D01*
X67948184Y-77305000D01*
X67783772Y-77272297D01*
X67628900Y-77208147D01*
X67489519Y-77115015D01*
X67370985Y-76996481D01*
X67277853Y-76857100D01*
X67213703Y-76702228D01*
X67181000Y-76537816D01*
X67181000Y-76370184D01*
X67213703Y-76205772D01*
X67277853Y-76050900D01*
X67370985Y-75911519D01*
X67489519Y-75792985D01*
X67628900Y-75699853D01*
X67783772Y-75635703D01*
X67948184Y-75603000D01*
X68115816Y-75603000D01*
X68280228Y-75635703D01*
G37*
G36*
X65780228Y-75635703D02*
G01*
X65935100Y-75699853D01*
X66074481Y-75792985D01*
X66193015Y-75911519D01*
X66286147Y-76050900D01*
X66350297Y-76205772D01*
X66383000Y-76370184D01*
X66383000Y-76537816D01*
X66350297Y-76702228D01*
X66286147Y-76857100D01*
X66193015Y-76996481D01*
X66074481Y-77115015D01*
X65935100Y-77208147D01*
X65780228Y-77272297D01*
X65615816Y-77305000D01*
X65448184Y-77305000D01*
X65283772Y-77272297D01*
X65128900Y-77208147D01*
X64989519Y-77115015D01*
X64870985Y-76996481D01*
X64777853Y-76857100D01*
X64713703Y-76702228D01*
X64681000Y-76537816D01*
X64681000Y-76370184D01*
X64713703Y-76205772D01*
X64777853Y-76050900D01*
X64870985Y-75911519D01*
X64989519Y-75792985D01*
X65128900Y-75699853D01*
X65283772Y-75635703D01*
X65448184Y-75603000D01*
X65615816Y-75603000D01*
X65780228Y-75635703D01*
G37*
G36*
X55283396Y-72474985D02*
G01*
X55452410Y-72508604D01*
X55734674Y-72625521D01*
X55988705Y-72795259D01*
X56204741Y-73011295D01*
X56374479Y-73265326D01*
X56491396Y-73547590D01*
X56514349Y-73662985D01*
X56551000Y-73847239D01*
X56551000Y-74152761D01*
X56535366Y-74231356D01*
X56491396Y-74452410D01*
X56374479Y-74734674D01*
X56204741Y-74988705D01*
X55988705Y-75204741D01*
X55734674Y-75374479D01*
X55452410Y-75491396D01*
X55302585Y-75521198D01*
X55152761Y-75551000D01*
X54847239Y-75551000D01*
X54697415Y-75521198D01*
X54547590Y-75491396D01*
X54265326Y-75374479D01*
X54011295Y-75204741D01*
X53795259Y-74988705D01*
X53625521Y-74734674D01*
X53508604Y-74452410D01*
X53464634Y-74231356D01*
X53449000Y-74152761D01*
X53449000Y-73847239D01*
X53485651Y-73662985D01*
X53508604Y-73547590D01*
X53625521Y-73265326D01*
X53795259Y-73011295D01*
X54011295Y-72795259D01*
X54265326Y-72625521D01*
X54547590Y-72508604D01*
X54716604Y-72474985D01*
X54847239Y-72449000D01*
X55152761Y-72449000D01*
X55283396Y-72474985D01*
G37*
G36*
X102812000Y-70512000D02*
G01*
X102583735Y-70512000D01*
X102559349Y-70514402D01*
X102535900Y-70521515D01*
X102514289Y-70533066D01*
X102495347Y-70548611D01*
X102479802Y-70567553D01*
X102468251Y-70589164D01*
X102461138Y-70612613D01*
X102458736Y-70636999D01*
X102461138Y-70661385D01*
X102468251Y-70684834D01*
X102479802Y-70706445D01*
X102495347Y-70725387D01*
X102514289Y-70740932D01*
X102524802Y-70747233D01*
X102568600Y-70770644D01*
X102568602Y-70770645D01*
X102568601Y-70770645D01*
X102652501Y-70839499D01*
X102721357Y-70923400D01*
X102757995Y-70991945D01*
X102772521Y-71019121D01*
X102804027Y-71122985D01*
X102814666Y-71231000D01*
X102804027Y-71339015D01*
X102772521Y-71442879D01*
X102772519Y-71442882D01*
X102721357Y-71538600D01*
X102652501Y-71622501D01*
X102568600Y-71691357D01*
X102500055Y-71727995D01*
X102472879Y-71742521D01*
X102460131Y-71746388D01*
X102437504Y-71755760D01*
X102417130Y-71769374D01*
X102399803Y-71786701D01*
X102386189Y-71807075D01*
X102376812Y-71829714D01*
X102372031Y-71853747D01*
X102372031Y-71878251D01*
X102376811Y-71902285D01*
X102386188Y-71924924D01*
X102399802Y-71945298D01*
X102417129Y-71962625D01*
X102437503Y-71976239D01*
X102460131Y-71985612D01*
X102472879Y-71989479D01*
X102500055Y-72004005D01*
X102568600Y-72040643D01*
X102652501Y-72109499D01*
X102721357Y-72193400D01*
X102756421Y-72259000D01*
X102772521Y-72289121D01*
X102804027Y-72392985D01*
X102814666Y-72501000D01*
X102804027Y-72609015D01*
X102772521Y-72712879D01*
X102772519Y-72712882D01*
X102721357Y-72808600D01*
X102652501Y-72892501D01*
X102568600Y-72961357D01*
X102500055Y-72997995D01*
X102472879Y-73012521D01*
X102460131Y-73016388D01*
X102437504Y-73025760D01*
X102417130Y-73039374D01*
X102399803Y-73056701D01*
X102386189Y-73077075D01*
X102376812Y-73099714D01*
X102372031Y-73123747D01*
X102372031Y-73148251D01*
X102376811Y-73172285D01*
X102386188Y-73194924D01*
X102399802Y-73215298D01*
X102417129Y-73232625D01*
X102437503Y-73246239D01*
X102460131Y-73255612D01*
X102472879Y-73259479D01*
X102483821Y-73265328D01*
X102568600Y-73310643D01*
X102652501Y-73379499D01*
X102721357Y-73463400D01*
X102757995Y-73531945D01*
X102772521Y-73559121D01*
X102804027Y-73662985D01*
X102814666Y-73771000D01*
X102804027Y-73879015D01*
X102772521Y-73982879D01*
X102772519Y-73982882D01*
X102721357Y-74078600D01*
X102652501Y-74162501D01*
X102568600Y-74231357D01*
X102500055Y-74267995D01*
X102472879Y-74282521D01*
X102369015Y-74314027D01*
X102288067Y-74322000D01*
X101733933Y-74322000D01*
X101652985Y-74314027D01*
X101549121Y-74282521D01*
X101521945Y-74267995D01*
X101453400Y-74231357D01*
X101369499Y-74162501D01*
X101300643Y-74078600D01*
X101249481Y-73982882D01*
X101249479Y-73982879D01*
X101217973Y-73879015D01*
X101207334Y-73771000D01*
X101217973Y-73662985D01*
X101249479Y-73559121D01*
X101264005Y-73531945D01*
X101300643Y-73463400D01*
X101369499Y-73379499D01*
X101453400Y-73310643D01*
X101538179Y-73265328D01*
X101549121Y-73259479D01*
X101561869Y-73255612D01*
X101584496Y-73246240D01*
X101604870Y-73232626D01*
X101622197Y-73215299D01*
X101635811Y-73194925D01*
X101645188Y-73172286D01*
X101649969Y-73148253D01*
X101649969Y-73123749D01*
X101645189Y-73099715D01*
X101635812Y-73077076D01*
X101622198Y-73056702D01*
X101604871Y-73039375D01*
X101584497Y-73025761D01*
X101561869Y-73016388D01*
X101549121Y-73012521D01*
X101521945Y-72997995D01*
X101453400Y-72961357D01*
X101369499Y-72892501D01*
X101300643Y-72808600D01*
X101249481Y-72712882D01*
X101249479Y-72712879D01*
X101217973Y-72609015D01*
X101207334Y-72501000D01*
X101217973Y-72392985D01*
X101249479Y-72289121D01*
X101265579Y-72259000D01*
X101300643Y-72193400D01*
X101369499Y-72109499D01*
X101453400Y-72040643D01*
X101521945Y-72004005D01*
X101549121Y-71989479D01*
X101561869Y-71985612D01*
X101584496Y-71976240D01*
X101604870Y-71962626D01*
X101622197Y-71945299D01*
X101635811Y-71924925D01*
X101645188Y-71902286D01*
X101649969Y-71878253D01*
X101649969Y-71853749D01*
X101645189Y-71829715D01*
X101635812Y-71807076D01*
X101622198Y-71786702D01*
X101604871Y-71769375D01*
X101584497Y-71755761D01*
X101561869Y-71746388D01*
X101549121Y-71742521D01*
X101521945Y-71727995D01*
X101453400Y-71691357D01*
X101369499Y-71622501D01*
X101300643Y-71538600D01*
X101249481Y-71442882D01*
X101249479Y-71442879D01*
X101217973Y-71339015D01*
X101207334Y-71231000D01*
X101217973Y-71122985D01*
X101249479Y-71019121D01*
X101264005Y-70991945D01*
X101300643Y-70923400D01*
X101369499Y-70839499D01*
X101453399Y-70770645D01*
X101453398Y-70770645D01*
X101453400Y-70770644D01*
X101497193Y-70747236D01*
X101517563Y-70733625D01*
X101534890Y-70716298D01*
X101548504Y-70695924D01*
X101557881Y-70673285D01*
X101562662Y-70649252D01*
X101562662Y-70624748D01*
X101557882Y-70600714D01*
X101548505Y-70578076D01*
X101534891Y-70557701D01*
X101517564Y-70540374D01*
X101497190Y-70526760D01*
X101474551Y-70517383D01*
X101450518Y-70512602D01*
X101438265Y-70512000D01*
X101210000Y-70512000D01*
X101210000Y-69410000D01*
X102812000Y-69410000D01*
X102812000Y-70512000D01*
G37*
G36*
X40231000Y-74061000D02*
G01*
X38429000Y-74061000D01*
X38429000Y-72259000D01*
X40231000Y-72259000D01*
X40231000Y-74061000D01*
G37*
G36*
X89559228Y-72317703D02*
G01*
X89714100Y-72381853D01*
X89853481Y-72474985D01*
X89972015Y-72593519D01*
X90065147Y-72732900D01*
X90129297Y-72887772D01*
X90162000Y-73052184D01*
X90162000Y-73219816D01*
X90129297Y-73384228D01*
X90065147Y-73539100D01*
X89972015Y-73678481D01*
X89853481Y-73797015D01*
X89714100Y-73890147D01*
X89559228Y-73954297D01*
X89394816Y-73987000D01*
X89227184Y-73987000D01*
X89062772Y-73954297D01*
X88907900Y-73890147D01*
X88768519Y-73797015D01*
X88649985Y-73678481D01*
X88556853Y-73539100D01*
X88492703Y-73384228D01*
X88460000Y-73219816D01*
X88460000Y-73052184D01*
X88492703Y-72887772D01*
X88556853Y-72732900D01*
X88649985Y-72593519D01*
X88768519Y-72474985D01*
X88907900Y-72381853D01*
X89062772Y-72317703D01*
X89227184Y-72285000D01*
X89394816Y-72285000D01*
X89559228Y-72317703D01*
G37*
G36*
X99719228Y-72317703D02*
G01*
X99874100Y-72381853D01*
X100013481Y-72474985D01*
X100132015Y-72593519D01*
X100225147Y-72732900D01*
X100289297Y-72887772D01*
X100322000Y-73052184D01*
X100322000Y-73219816D01*
X100289297Y-73384228D01*
X100225147Y-73539100D01*
X100132015Y-73678481D01*
X100013481Y-73797015D01*
X99874100Y-73890147D01*
X99719228Y-73954297D01*
X99554816Y-73987000D01*
X99387184Y-73987000D01*
X99222772Y-73954297D01*
X99067900Y-73890147D01*
X98928519Y-73797015D01*
X98809985Y-73678481D01*
X98716853Y-73539100D01*
X98652703Y-73384228D01*
X98620000Y-73219816D01*
X98620000Y-73052184D01*
X98652703Y-72887772D01*
X98716853Y-72732900D01*
X98809985Y-72593519D01*
X98928519Y-72474985D01*
X99067900Y-72381853D01*
X99222772Y-72317703D01*
X99387184Y-72285000D01*
X99554816Y-72285000D01*
X99719228Y-72317703D01*
G37*
G36*
X84701000Y-73951000D02*
G01*
X82799000Y-73951000D01*
X82799000Y-72049000D01*
X84701000Y-72049000D01*
X84701000Y-73951000D01*
G37*
G36*
X76407395Y-72085546D02*
G01*
X76580466Y-72157234D01*
X76580467Y-72157235D01*
X76736227Y-72261310D01*
X76868690Y-72393773D01*
X76868691Y-72393775D01*
X76972766Y-72549534D01*
X77044454Y-72722605D01*
X77081000Y-72906333D01*
X77081000Y-73093667D01*
X77044454Y-73277395D01*
X76972766Y-73450466D01*
X76921081Y-73527818D01*
X76868690Y-73606227D01*
X76736227Y-73738690D01*
X76687871Y-73771000D01*
X76580466Y-73842766D01*
X76407395Y-73914454D01*
X76223667Y-73951000D01*
X76036333Y-73951000D01*
X75852605Y-73914454D01*
X75679534Y-73842766D01*
X75572129Y-73771000D01*
X75523773Y-73738690D01*
X75391310Y-73606227D01*
X75338919Y-73527818D01*
X75287234Y-73450466D01*
X75215546Y-73277395D01*
X75179000Y-73093667D01*
X75179000Y-72906333D01*
X75215546Y-72722605D01*
X75287234Y-72549534D01*
X75391309Y-72393775D01*
X75391310Y-72393773D01*
X75523773Y-72261310D01*
X75679533Y-72157235D01*
X75679534Y-72157234D01*
X75852605Y-72085546D01*
X76036333Y-72049000D01*
X76223667Y-72049000D01*
X76407395Y-72085546D01*
G37*
G36*
X39443512Y-69723927D02*
G01*
X39592812Y-69753624D01*
X39756784Y-69821544D01*
X39904354Y-69920147D01*
X40029853Y-70045646D01*
X40128456Y-70193216D01*
X40196376Y-70357188D01*
X40231000Y-70531259D01*
X40231000Y-70708741D01*
X40196376Y-70882812D01*
X40128456Y-71046784D01*
X40029853Y-71194354D01*
X39904354Y-71319853D01*
X39756784Y-71418456D01*
X39592812Y-71486376D01*
X39443512Y-71516073D01*
X39418742Y-71521000D01*
X39241258Y-71521000D01*
X39216488Y-71516073D01*
X39067188Y-71486376D01*
X38903216Y-71418456D01*
X38755646Y-71319853D01*
X38630147Y-71194354D01*
X38531544Y-71046784D01*
X38463624Y-70882812D01*
X38429000Y-70708741D01*
X38429000Y-70531259D01*
X38463624Y-70357188D01*
X38531544Y-70193216D01*
X38630147Y-70045646D01*
X38755646Y-69920147D01*
X38903216Y-69821544D01*
X39067188Y-69753624D01*
X39216488Y-69723927D01*
X39241258Y-69719000D01*
X39418742Y-69719000D01*
X39443512Y-69723927D01*
G37*
G36*
X55297585Y-65098802D02*
G01*
X55447410Y-65128604D01*
X55729674Y-65245521D01*
X55983705Y-65415259D01*
X56199741Y-65631295D01*
X56369479Y-65885326D01*
X56486396Y-66167590D01*
X56509430Y-66283389D01*
X56546000Y-66467239D01*
X56546000Y-66772761D01*
X56541344Y-66796167D01*
X56486396Y-67072410D01*
X56369479Y-67354674D01*
X56199741Y-67608705D01*
X56026823Y-67781623D01*
X56011287Y-67800554D01*
X55999736Y-67822165D01*
X55992623Y-67845614D01*
X55990221Y-67870000D01*
X55992623Y-67894386D01*
X55999736Y-67917835D01*
X56011287Y-67939446D01*
X56026823Y-67958377D01*
X56199741Y-68131295D01*
X56369479Y-68385326D01*
X56435833Y-68545520D01*
X56486396Y-68667591D01*
X56546000Y-68967239D01*
X56546000Y-69272761D01*
X56533375Y-69336229D01*
X56486396Y-69572410D01*
X56369479Y-69854674D01*
X56199741Y-70108705D01*
X55983705Y-70324741D01*
X55729674Y-70494479D01*
X55447410Y-70611396D01*
X55318695Y-70636999D01*
X55147761Y-70671000D01*
X54842239Y-70671000D01*
X54671305Y-70636999D01*
X54542590Y-70611396D01*
X54260326Y-70494479D01*
X54006295Y-70324741D01*
X53790259Y-70108705D01*
X53620521Y-69854674D01*
X53503604Y-69572410D01*
X53456625Y-69336229D01*
X53444000Y-69272761D01*
X53444000Y-68967239D01*
X53503604Y-68667591D01*
X53554167Y-68545520D01*
X53620521Y-68385326D01*
X53790259Y-68131295D01*
X53963177Y-67958377D01*
X53978713Y-67939446D01*
X53990264Y-67917835D01*
X53997377Y-67894386D01*
X53999779Y-67870000D01*
X53997377Y-67845614D01*
X53990264Y-67822165D01*
X53978713Y-67800554D01*
X53963177Y-67781623D01*
X53790259Y-67608705D01*
X53620521Y-67354674D01*
X53503604Y-67072410D01*
X53448656Y-66796167D01*
X53444000Y-66772761D01*
X53444000Y-66467239D01*
X53480570Y-66283389D01*
X53503604Y-66167590D01*
X53620521Y-65885326D01*
X53790259Y-65631295D01*
X54006295Y-65415259D01*
X54260326Y-65245521D01*
X54542590Y-65128604D01*
X54692415Y-65098802D01*
X54842239Y-65069000D01*
X55147761Y-65069000D01*
X55297585Y-65098802D01*
G37*
G36*
X67812228Y-68269703D02*
G01*
X67967100Y-68333853D01*
X68106481Y-68426985D01*
X68225015Y-68545519D01*
X68318147Y-68684900D01*
X68382297Y-68839772D01*
X68415000Y-69004184D01*
X68415000Y-69171816D01*
X68382297Y-69336228D01*
X68318147Y-69491100D01*
X68225015Y-69630481D01*
X68106481Y-69749015D01*
X67967100Y-69842147D01*
X67812228Y-69906297D01*
X67647816Y-69939000D01*
X67480184Y-69939000D01*
X67315772Y-69906297D01*
X67160900Y-69842147D01*
X67021519Y-69749015D01*
X66902985Y-69630481D01*
X66809853Y-69491100D01*
X66745703Y-69336228D01*
X66713000Y-69171816D01*
X66713000Y-69004184D01*
X66745703Y-68839772D01*
X66809853Y-68684900D01*
X66902985Y-68545519D01*
X67021519Y-68426985D01*
X67160900Y-68333853D01*
X67315772Y-68269703D01*
X67480184Y-68237000D01*
X67647816Y-68237000D01*
X67812228Y-68269703D01*
G37*
G36*
X77972228Y-68269703D02*
G01*
X78127100Y-68333853D01*
X78266481Y-68426985D01*
X78385015Y-68545519D01*
X78478147Y-68684900D01*
X78542297Y-68839772D01*
X78575000Y-69004184D01*
X78575000Y-69171816D01*
X78542297Y-69336228D01*
X78478147Y-69491100D01*
X78385015Y-69630481D01*
X78266481Y-69749015D01*
X78127100Y-69842147D01*
X77972228Y-69906297D01*
X77807816Y-69939000D01*
X77640184Y-69939000D01*
X77475772Y-69906297D01*
X77320900Y-69842147D01*
X77181519Y-69749015D01*
X77062985Y-69630481D01*
X76969853Y-69491100D01*
X76905703Y-69336228D01*
X76873000Y-69171816D01*
X76873000Y-69004184D01*
X76905703Y-68839772D01*
X76969853Y-68684900D01*
X77062985Y-68545519D01*
X77181519Y-68426985D01*
X77320900Y-68333853D01*
X77475772Y-68269703D01*
X77640184Y-68237000D01*
X77807816Y-68237000D01*
X77972228Y-68269703D01*
G37*
G36*
X40231000Y-68981000D02*
G01*
X38429000Y-68981000D01*
X38429000Y-67179000D01*
X40231000Y-67179000D01*
X40231000Y-68981000D01*
G37*
G36*
X87714564Y-66283389D02*
G01*
X87905833Y-66362615D01*
X87905835Y-66362616D01*
X88023145Y-66441000D01*
X88077973Y-66477635D01*
X88224365Y-66624027D01*
X88339385Y-66796167D01*
X88418611Y-66987436D01*
X88459000Y-67190484D01*
X88459000Y-67397516D01*
X88418611Y-67600564D01*
X88339385Y-67791833D01*
X88339384Y-67791835D01*
X88224365Y-67963973D01*
X88077973Y-68110365D01*
X87905835Y-68225384D01*
X87905834Y-68225385D01*
X87905833Y-68225385D01*
X87714564Y-68304611D01*
X87511516Y-68345000D01*
X87304484Y-68345000D01*
X87101436Y-68304611D01*
X86910167Y-68225385D01*
X86910166Y-68225385D01*
X86910165Y-68225384D01*
X86738027Y-68110365D01*
X86591635Y-67963973D01*
X86476616Y-67791835D01*
X86476615Y-67791833D01*
X86397389Y-67600564D01*
X86357000Y-67397516D01*
X86357000Y-67190484D01*
X86397389Y-66987436D01*
X86476615Y-66796167D01*
X86591635Y-66624027D01*
X86738027Y-66477635D01*
X86792855Y-66441000D01*
X86910165Y-66362616D01*
X86910167Y-66362615D01*
X87101436Y-66283389D01*
X87304484Y-66243000D01*
X87511516Y-66243000D01*
X87714564Y-66283389D01*
G37*
G36*
X81214564Y-66283389D02*
G01*
X81405833Y-66362615D01*
X81405835Y-66362616D01*
X81523145Y-66441000D01*
X81577973Y-66477635D01*
X81724365Y-66624027D01*
X81839385Y-66796167D01*
X81918611Y-66987436D01*
X81959000Y-67190484D01*
X81959000Y-67397516D01*
X81918611Y-67600564D01*
X81839385Y-67791833D01*
X81839384Y-67791835D01*
X81724365Y-67963973D01*
X81577973Y-68110365D01*
X81405835Y-68225384D01*
X81405834Y-68225385D01*
X81405833Y-68225385D01*
X81214564Y-68304611D01*
X81011516Y-68345000D01*
X80804484Y-68345000D01*
X80601436Y-68304611D01*
X80410167Y-68225385D01*
X80410166Y-68225385D01*
X80410165Y-68225384D01*
X80238027Y-68110365D01*
X80091635Y-67963973D01*
X79976616Y-67791835D01*
X79976615Y-67791833D01*
X79897389Y-67600564D01*
X79857000Y-67397516D01*
X79857000Y-67190484D01*
X79897389Y-66987436D01*
X79976615Y-66796167D01*
X80091635Y-66624027D01*
X80238027Y-66477635D01*
X80292855Y-66441000D01*
X80410165Y-66362616D01*
X80410167Y-66362615D01*
X80601436Y-66283389D01*
X80804484Y-66243000D01*
X81011516Y-66243000D01*
X81214564Y-66283389D01*
G37*
G36*
X99113395Y-65236546D02*
G01*
X99286466Y-65308234D01*
X99286467Y-65308235D01*
X99442227Y-65412310D01*
X99574690Y-65544773D01*
X99622159Y-65615816D01*
X99678766Y-65700534D01*
X99750454Y-65873605D01*
X99787000Y-66057333D01*
X99787000Y-66244667D01*
X99750454Y-66428395D01*
X99678766Y-66601466D01*
X99678765Y-66601467D01*
X99574690Y-66757227D01*
X99442227Y-66889690D01*
X99363818Y-66942081D01*
X99286466Y-66993766D01*
X99113395Y-67065454D01*
X98929667Y-67102000D01*
X98742333Y-67102000D01*
X98558605Y-67065454D01*
X98385534Y-66993766D01*
X98308182Y-66942081D01*
X98229773Y-66889690D01*
X98097310Y-66757227D01*
X97993235Y-66601467D01*
X97993234Y-66601466D01*
X97921546Y-66428395D01*
X97885000Y-66244667D01*
X97885000Y-66057333D01*
X97921546Y-65873605D01*
X97993234Y-65700534D01*
X98049841Y-65615816D01*
X98097310Y-65544773D01*
X98229773Y-65412310D01*
X98385533Y-65308235D01*
X98385534Y-65308234D01*
X98558605Y-65236546D01*
X98742333Y-65200000D01*
X98929667Y-65200000D01*
X99113395Y-65236546D01*
G37*
G36*
X92167000Y-67102000D02*
G01*
X90265000Y-67102000D01*
X90265000Y-65200000D01*
X92167000Y-65200000D01*
X92167000Y-67102000D01*
G37*
G36*
X39443512Y-64643927D02*
G01*
X39592812Y-64673624D01*
X39756784Y-64741544D01*
X39904354Y-64840147D01*
X40029853Y-64965646D01*
X40128456Y-65113216D01*
X40196376Y-65277188D01*
X40226073Y-65426488D01*
X40230389Y-65448184D01*
X40231000Y-65451259D01*
X40231000Y-65628741D01*
X40196376Y-65802812D01*
X40128456Y-65966784D01*
X40029853Y-66114354D01*
X39904354Y-66239853D01*
X39756784Y-66338456D01*
X39592812Y-66406376D01*
X39443512Y-66436073D01*
X39418742Y-66441000D01*
X39241258Y-66441000D01*
X39216488Y-66436073D01*
X39067188Y-66406376D01*
X38903216Y-66338456D01*
X38755646Y-66239853D01*
X38630147Y-66114354D01*
X38531544Y-65966784D01*
X38463624Y-65802812D01*
X38429000Y-65628741D01*
X38429000Y-65451259D01*
X38429612Y-65448184D01*
X38433927Y-65426488D01*
X38463624Y-65277188D01*
X38531544Y-65113216D01*
X38630147Y-64965646D01*
X38755646Y-64840147D01*
X38903216Y-64741544D01*
X39067188Y-64673624D01*
X39216488Y-64643927D01*
X39241258Y-64639000D01*
X39418742Y-64639000D01*
X39443512Y-64643927D01*
G37*
G36*
X67812228Y-64713703D02*
G01*
X67967100Y-64777853D01*
X68106481Y-64870985D01*
X68225015Y-64989519D01*
X68318147Y-65128900D01*
X68382297Y-65283772D01*
X68415000Y-65448184D01*
X68415000Y-65615816D01*
X68382297Y-65780228D01*
X68318147Y-65935100D01*
X68225015Y-66074481D01*
X68106481Y-66193015D01*
X67967100Y-66286147D01*
X67812228Y-66350297D01*
X67647816Y-66383000D01*
X67480184Y-66383000D01*
X67315772Y-66350297D01*
X67160900Y-66286147D01*
X67021519Y-66193015D01*
X66902985Y-66074481D01*
X66809853Y-65935100D01*
X66745703Y-65780228D01*
X66713000Y-65615816D01*
X66713000Y-65448184D01*
X66745703Y-65283772D01*
X66809853Y-65128900D01*
X66902985Y-64989519D01*
X67021519Y-64870985D01*
X67160900Y-64777853D01*
X67315772Y-64713703D01*
X67480184Y-64681000D01*
X67647816Y-64681000D01*
X67812228Y-64713703D01*
G37*
G36*
X77972228Y-64713703D02*
G01*
X78127100Y-64777853D01*
X78266481Y-64870985D01*
X78385015Y-64989519D01*
X78478147Y-65128900D01*
X78542297Y-65283772D01*
X78575000Y-65448184D01*
X78575000Y-65615816D01*
X78542297Y-65780228D01*
X78478147Y-65935100D01*
X78385015Y-66074481D01*
X78266481Y-66193015D01*
X78127100Y-66286147D01*
X77972228Y-66350297D01*
X77807816Y-66383000D01*
X77640184Y-66383000D01*
X77475772Y-66350297D01*
X77320900Y-66286147D01*
X77181519Y-66193015D01*
X77062985Y-66074481D01*
X76969853Y-65935100D01*
X76905703Y-65780228D01*
X76873000Y-65615816D01*
X76873000Y-65448184D01*
X76905703Y-65283772D01*
X76969853Y-65128900D01*
X77062985Y-64989519D01*
X77181519Y-64870985D01*
X77320900Y-64777853D01*
X77475772Y-64713703D01*
X77640184Y-64681000D01*
X77807816Y-64681000D01*
X77972228Y-64713703D01*
G37*
G36*
X102639000Y-66226000D02*
G01*
X100837000Y-66226000D01*
X100837000Y-64424000D01*
X102639000Y-64424000D01*
X102639000Y-66226000D01*
G37*
G36*
X40231000Y-63901000D02*
G01*
X38429000Y-63901000D01*
X38429000Y-62099000D01*
X40231000Y-62099000D01*
X40231000Y-63901000D01*
G37*
G36*
X87714564Y-61783389D02*
G01*
X87905833Y-61862615D01*
X87905835Y-61862616D01*
X88077973Y-61977635D01*
X88224365Y-62124027D01*
X88282243Y-62210647D01*
X88339385Y-62296167D01*
X88418611Y-62487436D01*
X88459000Y-62690484D01*
X88459000Y-62897516D01*
X88418611Y-63100564D01*
X88372543Y-63211782D01*
X88339384Y-63291835D01*
X88224365Y-63463973D01*
X88077973Y-63610365D01*
X87905835Y-63725384D01*
X87905834Y-63725385D01*
X87905833Y-63725385D01*
X87714564Y-63804611D01*
X87511516Y-63845000D01*
X87304484Y-63845000D01*
X87101436Y-63804611D01*
X86910167Y-63725385D01*
X86910166Y-63725385D01*
X86910165Y-63725384D01*
X86738027Y-63610365D01*
X86591635Y-63463973D01*
X86476616Y-63291835D01*
X86443457Y-63211782D01*
X86397389Y-63100564D01*
X86357000Y-62897516D01*
X86357000Y-62690484D01*
X86397389Y-62487436D01*
X86476615Y-62296167D01*
X86533758Y-62210647D01*
X86591635Y-62124027D01*
X86738027Y-61977635D01*
X86910165Y-61862616D01*
X86910167Y-61862615D01*
X87101436Y-61783389D01*
X87304484Y-61743000D01*
X87511516Y-61743000D01*
X87714564Y-61783389D01*
G37*
G36*
X81214564Y-61783389D02*
G01*
X81405833Y-61862615D01*
X81405835Y-61862616D01*
X81577973Y-61977635D01*
X81724365Y-62124027D01*
X81782243Y-62210647D01*
X81839385Y-62296167D01*
X81918611Y-62487436D01*
X81959000Y-62690484D01*
X81959000Y-62897516D01*
X81918611Y-63100564D01*
X81872543Y-63211782D01*
X81839384Y-63291835D01*
X81724365Y-63463973D01*
X81577973Y-63610365D01*
X81405835Y-63725384D01*
X81405834Y-63725385D01*
X81405833Y-63725385D01*
X81214564Y-63804611D01*
X81011516Y-63845000D01*
X80804484Y-63845000D01*
X80601436Y-63804611D01*
X80410167Y-63725385D01*
X80410166Y-63725385D01*
X80410165Y-63725384D01*
X80238027Y-63610365D01*
X80091635Y-63463973D01*
X79976616Y-63291835D01*
X79943457Y-63211782D01*
X79897389Y-63100564D01*
X79857000Y-62897516D01*
X79857000Y-62690484D01*
X79897389Y-62487436D01*
X79976615Y-62296167D01*
X80033758Y-62210647D01*
X80091635Y-62124027D01*
X80238027Y-61977635D01*
X80410165Y-61862616D01*
X80410167Y-61862615D01*
X80601436Y-61783389D01*
X80804484Y-61743000D01*
X81011516Y-61743000D01*
X81214564Y-61783389D01*
G37*
G36*
X101851512Y-61888927D02*
G01*
X102000812Y-61918624D01*
X102164784Y-61986544D01*
X102312354Y-62085147D01*
X102437853Y-62210646D01*
X102536456Y-62358216D01*
X102604376Y-62522188D01*
X102639000Y-62696259D01*
X102639000Y-62873741D01*
X102604376Y-63047812D01*
X102536456Y-63211784D01*
X102437853Y-63359354D01*
X102312354Y-63484853D01*
X102164784Y-63583456D01*
X102000812Y-63651376D01*
X101851512Y-63681073D01*
X101826742Y-63686000D01*
X101649258Y-63686000D01*
X101624488Y-63681073D01*
X101475188Y-63651376D01*
X101311216Y-63583456D01*
X101163646Y-63484853D01*
X101038147Y-63359354D01*
X100939544Y-63211784D01*
X100871624Y-63047812D01*
X100837000Y-62873741D01*
X100837000Y-62696259D01*
X100871624Y-62522188D01*
X100939544Y-62358216D01*
X101038147Y-62210646D01*
X101163646Y-62085147D01*
X101311216Y-61986544D01*
X101475188Y-61918624D01*
X101624488Y-61888927D01*
X101649258Y-61884000D01*
X101826742Y-61884000D01*
X101851512Y-61888927D01*
G37*
G36*
X55261577Y-52470645D02*
G01*
X55452410Y-52508604D01*
X55734674Y-52625521D01*
X55988705Y-52795259D01*
X56204741Y-53011295D01*
X56374479Y-53265326D01*
X56491396Y-53547590D01*
X56551000Y-53847240D01*
X56551000Y-54152760D01*
X56491396Y-54452410D01*
X56374479Y-54734674D01*
X56204741Y-54988705D01*
X56087823Y-55105623D01*
X56072287Y-55124554D01*
X56060736Y-55146165D01*
X56053623Y-55169614D01*
X56051221Y-55194000D01*
X56053623Y-55218386D01*
X56060736Y-55241835D01*
X56072287Y-55263446D01*
X56087823Y-55282377D01*
X56204741Y-55399295D01*
X56374479Y-55653326D01*
X56491396Y-55935590D01*
X56551000Y-56235240D01*
X56551000Y-56540760D01*
X56491396Y-56840410D01*
X56374479Y-57122674D01*
X56206170Y-57374567D01*
X56194625Y-57396166D01*
X56187512Y-57419615D01*
X56185110Y-57444001D01*
X56187512Y-57468387D01*
X56194625Y-57491836D01*
X56206176Y-57513447D01*
X56221721Y-57532389D01*
X56240663Y-57547934D01*
X56262274Y-57559485D01*
X56285723Y-57566598D01*
X56310109Y-57569000D01*
X56546000Y-57569000D01*
X56546000Y-60671000D01*
X56460127Y-60671000D01*
X56435741Y-60673402D01*
X56412292Y-60680515D01*
X56390681Y-60692066D01*
X56371739Y-60707611D01*
X56356194Y-60726553D01*
X56344643Y-60748164D01*
X56337530Y-60771613D01*
X56335128Y-60795999D01*
X56337530Y-60820385D01*
X56344643Y-60843834D01*
X56356193Y-60865442D01*
X56369479Y-60885326D01*
X56486396Y-61167590D01*
X56546000Y-61467240D01*
X56546000Y-61772760D01*
X56486396Y-62072410D01*
X56369479Y-62354674D01*
X56199741Y-62608705D01*
X55983705Y-62824741D01*
X55729674Y-62994479D01*
X55447410Y-63111396D01*
X55297585Y-63141198D01*
X55147761Y-63171000D01*
X54842239Y-63171000D01*
X54692415Y-63141198D01*
X54542590Y-63111396D01*
X54260326Y-62994479D01*
X54006295Y-62824741D01*
X53790259Y-62608705D01*
X53620521Y-62354674D01*
X53503604Y-62072410D01*
X53444000Y-61772760D01*
X53444000Y-61467240D01*
X53503604Y-61167590D01*
X53620521Y-60885326D01*
X53633807Y-60865442D01*
X53645357Y-60843834D01*
X53652470Y-60820385D01*
X53654872Y-60795998D01*
X53652470Y-60771612D01*
X53645357Y-60748163D01*
X53633806Y-60726553D01*
X53618260Y-60707611D01*
X53599318Y-60692066D01*
X53577708Y-60680515D01*
X53554259Y-60673402D01*
X53529873Y-60671000D01*
X53444000Y-60671000D01*
X53444000Y-57569000D01*
X53689891Y-57569000D01*
X53714277Y-57566598D01*
X53737726Y-57559485D01*
X53759337Y-57547934D01*
X53778279Y-57532389D01*
X53793824Y-57513447D01*
X53805375Y-57491836D01*
X53812488Y-57468387D01*
X53814890Y-57444001D01*
X53812488Y-57419615D01*
X53805375Y-57396166D01*
X53793830Y-57374567D01*
X53625521Y-57122674D01*
X53508604Y-56840410D01*
X53449000Y-56540760D01*
X53449000Y-56235240D01*
X53508604Y-55935590D01*
X53625521Y-55653326D01*
X53795259Y-55399295D01*
X53912177Y-55282377D01*
X53927713Y-55263446D01*
X53939264Y-55241835D01*
X53946377Y-55218386D01*
X53948779Y-55194000D01*
X53946377Y-55169614D01*
X53939264Y-55146165D01*
X53927713Y-55124554D01*
X53912177Y-55105623D01*
X53795259Y-54988705D01*
X53625521Y-54734674D01*
X53508604Y-54452410D01*
X53449000Y-54152760D01*
X53449000Y-53847240D01*
X53508604Y-53547590D01*
X53625521Y-53265326D01*
X53795259Y-53011295D01*
X54011295Y-52795259D01*
X54265326Y-52625521D01*
X54547590Y-52508604D01*
X54738423Y-52470645D01*
X54847239Y-52449000D01*
X55152761Y-52449000D01*
X55261577Y-52470645D01*
G37*
G36*
X39443512Y-59563927D02*
G01*
X39592812Y-59593624D01*
X39756784Y-59661544D01*
X39904354Y-59760147D01*
X40029853Y-59885646D01*
X40128456Y-60033216D01*
X40196376Y-60197188D01*
X40231000Y-60371259D01*
X40231000Y-60548741D01*
X40196376Y-60722812D01*
X40128456Y-60886784D01*
X40029853Y-61034354D01*
X39904354Y-61159853D01*
X39756784Y-61258456D01*
X39592812Y-61326376D01*
X39443512Y-61356073D01*
X39418742Y-61361000D01*
X39241258Y-61361000D01*
X39216488Y-61356073D01*
X39067188Y-61326376D01*
X38903216Y-61258456D01*
X38755646Y-61159853D01*
X38630147Y-61034354D01*
X38531544Y-60886784D01*
X38463624Y-60722812D01*
X38429000Y-60548741D01*
X38429000Y-60371259D01*
X38463624Y-60197188D01*
X38531544Y-60033216D01*
X38630147Y-59885646D01*
X38755646Y-59760147D01*
X38903216Y-59661544D01*
X39067188Y-59593624D01*
X39216488Y-59563927D01*
X39241258Y-59559000D01*
X39418742Y-59559000D01*
X39443512Y-59563927D01*
G37*
G36*
X85608242Y-58428404D02*
G01*
X85645337Y-58439657D01*
X85679515Y-58457925D01*
X85709481Y-58482519D01*
X85734075Y-58512485D01*
X85752343Y-58546663D01*
X85763596Y-58583758D01*
X85768000Y-58628474D01*
X85768000Y-59521526D01*
X85763596Y-59566242D01*
X85752343Y-59603337D01*
X85734075Y-59637515D01*
X85709481Y-59667481D01*
X85679515Y-59692075D01*
X85645337Y-59710343D01*
X85608242Y-59721596D01*
X85563526Y-59726000D01*
X84120474Y-59726000D01*
X84075758Y-59721596D01*
X84038663Y-59710343D01*
X84004485Y-59692075D01*
X83974519Y-59667481D01*
X83949925Y-59637515D01*
X83931657Y-59603337D01*
X83920404Y-59566242D01*
X83916000Y-59521526D01*
X83916000Y-58628474D01*
X83920404Y-58583758D01*
X83931657Y-58546663D01*
X83949925Y-58512485D01*
X83974519Y-58482519D01*
X84004485Y-58457925D01*
X84038663Y-58439657D01*
X84075758Y-58428404D01*
X84120474Y-58424000D01*
X85563526Y-58424000D01*
X85608242Y-58428404D01*
G37*
G36*
X99887718Y-56540760D02*
G01*
X100158410Y-56594604D01*
X100440674Y-56711521D01*
X100694705Y-56881259D01*
X100910741Y-57097295D01*
X101080479Y-57351326D01*
X101197396Y-57633590D01*
X101257000Y-57933240D01*
X101257000Y-58238760D01*
X101197396Y-58538410D01*
X101080479Y-58820674D01*
X100910741Y-59074705D01*
X100694705Y-59290741D01*
X100440674Y-59460479D01*
X100158410Y-59577396D01*
X100017378Y-59605449D01*
X99858761Y-59637000D01*
X99553239Y-59637000D01*
X99394622Y-59605449D01*
X99253590Y-59577396D01*
X98971326Y-59460479D01*
X98717295Y-59290741D01*
X98501259Y-59074705D01*
X98331521Y-58820674D01*
X98214604Y-58538410D01*
X98155000Y-58238760D01*
X98155000Y-57933240D01*
X98214604Y-57633590D01*
X98331521Y-57351326D01*
X98501259Y-57097295D01*
X98717295Y-56881259D01*
X98971326Y-56711521D01*
X99253590Y-56594604D01*
X99524282Y-56540760D01*
X99553239Y-56535000D01*
X99858761Y-56535000D01*
X99887718Y-56540760D01*
G37*
G36*
X40231000Y-58821000D02*
G01*
X38429000Y-58821000D01*
X38429000Y-57019000D01*
X40231000Y-57019000D01*
X40231000Y-58821000D01*
G37*
G36*
X85180855Y-56427140D02*
G01*
X85244618Y-56433420D01*
X85335404Y-56460960D01*
X85367336Y-56470646D01*
X85480425Y-56531094D01*
X85579554Y-56612446D01*
X85660906Y-56711575D01*
X85721354Y-56824664D01*
X85721355Y-56824668D01*
X85758580Y-56947382D01*
X85771149Y-57075000D01*
X85758580Y-57202618D01*
X85731040Y-57293404D01*
X85721354Y-57325336D01*
X85660906Y-57438425D01*
X85579554Y-57537554D01*
X85480425Y-57618906D01*
X85367336Y-57679354D01*
X85335404Y-57689040D01*
X85244618Y-57716580D01*
X85180855Y-57722860D01*
X85148974Y-57726000D01*
X84535026Y-57726000D01*
X84503145Y-57722860D01*
X84439382Y-57716580D01*
X84348596Y-57689040D01*
X84316664Y-57679354D01*
X84203575Y-57618906D01*
X84104446Y-57537554D01*
X84023094Y-57438425D01*
X83962646Y-57325336D01*
X83952960Y-57293404D01*
X83925420Y-57202618D01*
X83912851Y-57075000D01*
X83925420Y-56947382D01*
X83962645Y-56824668D01*
X83962646Y-56824664D01*
X84023094Y-56711575D01*
X84104446Y-56612446D01*
X84203575Y-56531094D01*
X84316664Y-56470646D01*
X84348596Y-56460960D01*
X84439382Y-56433420D01*
X84503145Y-56427140D01*
X84535026Y-56424000D01*
X85148974Y-56424000D01*
X85180855Y-56427140D01*
G37*
G36*
X39443512Y-54483927D02*
G01*
X39592812Y-54513624D01*
X39756784Y-54581544D01*
X39904354Y-54680147D01*
X40029853Y-54805646D01*
X40128456Y-54953216D01*
X40196376Y-55117188D01*
X40216505Y-55218386D01*
X40229236Y-55282388D01*
X40231000Y-55291259D01*
X40231000Y-55468741D01*
X40196376Y-55642812D01*
X40128456Y-55806784D01*
X40029853Y-55954354D01*
X39904354Y-56079853D01*
X39756784Y-56178456D01*
X39592812Y-56246376D01*
X39443512Y-56276073D01*
X39418742Y-56281000D01*
X39241258Y-56281000D01*
X39216488Y-56276073D01*
X39067188Y-56246376D01*
X38903216Y-56178456D01*
X38755646Y-56079853D01*
X38630147Y-55954354D01*
X38531544Y-55806784D01*
X38463624Y-55642812D01*
X38429000Y-55468741D01*
X38429000Y-55291259D01*
X38430765Y-55282388D01*
X38443495Y-55218386D01*
X38463624Y-55117188D01*
X38531544Y-54953216D01*
X38630147Y-54805646D01*
X38755646Y-54680147D01*
X38903216Y-54581544D01*
X39067188Y-54513624D01*
X39216488Y-54483927D01*
X39241258Y-54479000D01*
X39418742Y-54479000D01*
X39443512Y-54483927D01*
G37*
G36*
X85180855Y-54427140D02*
G01*
X85244618Y-54433420D01*
X85307216Y-54452409D01*
X85367336Y-54470646D01*
X85480425Y-54531094D01*
X85579554Y-54612446D01*
X85660906Y-54711575D01*
X85721354Y-54824664D01*
X85721355Y-54824668D01*
X85758580Y-54947382D01*
X85771149Y-55075000D01*
X85758580Y-55202618D01*
X85740128Y-55263446D01*
X85721354Y-55325336D01*
X85660906Y-55438425D01*
X85579554Y-55537554D01*
X85480425Y-55618906D01*
X85367336Y-55679354D01*
X85335404Y-55689040D01*
X85244618Y-55716580D01*
X85180855Y-55722860D01*
X85148974Y-55726000D01*
X84535026Y-55726000D01*
X84503145Y-55722860D01*
X84439382Y-55716580D01*
X84348596Y-55689040D01*
X84316664Y-55679354D01*
X84203575Y-55618906D01*
X84104446Y-55537554D01*
X84023094Y-55438425D01*
X83962646Y-55325336D01*
X83943872Y-55263446D01*
X83925420Y-55202618D01*
X83912851Y-55075000D01*
X83925420Y-54947382D01*
X83962645Y-54824668D01*
X83962646Y-54824664D01*
X84023094Y-54711575D01*
X84104446Y-54612446D01*
X84203575Y-54531094D01*
X84316664Y-54470646D01*
X84376784Y-54452409D01*
X84439382Y-54433420D01*
X84503145Y-54427140D01*
X84535026Y-54424000D01*
X85148974Y-54424000D01*
X85180855Y-54427140D01*
G37*
G36*
X101257000Y-54557000D02*
G01*
X98155000Y-54557000D01*
X98155000Y-51455000D01*
X101257000Y-51455000D01*
X101257000Y-54557000D01*
G37*
G36*
X85180855Y-52427140D02*
G01*
X85244618Y-52433420D01*
X85335404Y-52460960D01*
X85367336Y-52470646D01*
X85480425Y-52531094D01*
X85579554Y-52612446D01*
X85660906Y-52711575D01*
X85721354Y-52824664D01*
X85721355Y-52824668D01*
X85758580Y-52947382D01*
X85771149Y-53075000D01*
X85758580Y-53202618D01*
X85739557Y-53265328D01*
X85721354Y-53325336D01*
X85660906Y-53438425D01*
X85579554Y-53537554D01*
X85480425Y-53618906D01*
X85367336Y-53679354D01*
X85335404Y-53689040D01*
X85244618Y-53716580D01*
X85180855Y-53722860D01*
X85148974Y-53726000D01*
X84535026Y-53726000D01*
X84503145Y-53722860D01*
X84439382Y-53716580D01*
X84348596Y-53689040D01*
X84316664Y-53679354D01*
X84203575Y-53618906D01*
X84104446Y-53537554D01*
X84023094Y-53438425D01*
X83962646Y-53325336D01*
X83944443Y-53265328D01*
X83925420Y-53202618D01*
X83912851Y-53075000D01*
X83925420Y-52947382D01*
X83962645Y-52824668D01*
X83962646Y-52824664D01*
X84023094Y-52711575D01*
X84104446Y-52612446D01*
X84203575Y-52531094D01*
X84316664Y-52470646D01*
X84348596Y-52460960D01*
X84439382Y-52433420D01*
X84503145Y-52427140D01*
X84535026Y-52424000D01*
X85148974Y-52424000D01*
X85180855Y-52427140D01*
G37*
G36*
X48746000Y-52836000D02*
G01*
X44144000Y-52836000D01*
X44144000Y-50034000D01*
X48746000Y-50034000D01*
X48746000Y-52836000D01*
G37*
G36*
X42239999Y-46824737D02*
G01*
X42249608Y-46827652D01*
X42258472Y-46832390D01*
X42266212Y-46838742D01*
X42266213Y-46838743D01*
X42266237Y-46838763D01*
X42272640Y-46846573D01*
X42272677Y-46846628D01*
X42280480Y-46856147D01*
X42280511Y-46856122D01*
X42291853Y-46869972D01*
X42310779Y-46885537D01*
X42332377Y-46897111D01*
X42355819Y-46904249D01*
X42380202Y-46906676D01*
X42404591Y-46904300D01*
X42428047Y-46897211D01*
X42449670Y-46885682D01*
X42468628Y-46870157D01*
X42484193Y-46851231D01*
X42486029Y-46848175D01*
X42487418Y-46846486D01*
X42487419Y-46846484D01*
X42493801Y-46838725D01*
X42501573Y-46832360D01*
X42501575Y-46832358D01*
X42510399Y-46827654D01*
X42510438Y-46827633D01*
X42520055Y-46824727D01*
X42520085Y-46824718D01*
X42536113Y-46823148D01*
X43673860Y-46823148D01*
X43689999Y-46824737D01*
X43699608Y-46827652D01*
X43708472Y-46832390D01*
X43716237Y-46838763D01*
X43722610Y-46846528D01*
X43727348Y-46855392D01*
X43730263Y-46865001D01*
X43731852Y-46881140D01*
X43731852Y-48368860D01*
X43730263Y-48384999D01*
X43727348Y-48394608D01*
X43722610Y-48403472D01*
X43716237Y-48411237D01*
X43708472Y-48417610D01*
X43699608Y-48422348D01*
X43689999Y-48425263D01*
X43673860Y-48426852D01*
X42536140Y-48426852D01*
X42520001Y-48425263D01*
X42510392Y-48422348D01*
X42501528Y-48417610D01*
X42493763Y-48411237D01*
X42483116Y-48398263D01*
X42476947Y-48389032D01*
X42459619Y-48371706D01*
X42439244Y-48358093D01*
X42416605Y-48348717D01*
X42392572Y-48343937D01*
X42368068Y-48343938D01*
X42344035Y-48348720D01*
X42321396Y-48358098D01*
X42301022Y-48371713D01*
X42283696Y-48389041D01*
X42276825Y-48398317D01*
X42272640Y-48403427D01*
X42266275Y-48411199D01*
X42258516Y-48417581D01*
X42249661Y-48422326D01*
X42246623Y-48423251D01*
X42240085Y-48425242D01*
X42240082Y-48425242D01*
X42240050Y-48425252D01*
X42230000Y-48426247D01*
X42229935Y-48426247D01*
X42223825Y-48426852D01*
X41236140Y-48426852D01*
X41220001Y-48425263D01*
X41210392Y-48422348D01*
X41201528Y-48417610D01*
X41193763Y-48411237D01*
X41187390Y-48403472D01*
X41181238Y-48391962D01*
X41167624Y-48371588D01*
X41150297Y-48354261D01*
X41129923Y-48340647D01*
X41107284Y-48331270D01*
X41083251Y-48326490D01*
X41058746Y-48326490D01*
X41034713Y-48331271D01*
X41012074Y-48340648D01*
X40991700Y-48354262D01*
X40974373Y-48371589D01*
X40960759Y-48391963D01*
X40951382Y-48414602D01*
X40946000Y-48450887D01*
X40946000Y-48704113D01*
X40948402Y-48728499D01*
X40955515Y-48751948D01*
X40967066Y-48773559D01*
X40982611Y-48792501D01*
X41001553Y-48808046D01*
X41023164Y-48819597D01*
X41046613Y-48826710D01*
X41070999Y-48829112D01*
X41095385Y-48826710D01*
X41118834Y-48819597D01*
X41140445Y-48808046D01*
X41159387Y-48792501D01*
X41181238Y-48763038D01*
X41187390Y-48751528D01*
X41193763Y-48743763D01*
X41201528Y-48737390D01*
X41210392Y-48732652D01*
X41220001Y-48729737D01*
X41236140Y-48728148D01*
X42223860Y-48728148D01*
X42239999Y-48729737D01*
X42249608Y-48732652D01*
X42258472Y-48737390D01*
X42266212Y-48743742D01*
X42266213Y-48743743D01*
X42266237Y-48743763D01*
X42272640Y-48751573D01*
X42272677Y-48751628D01*
X42280480Y-48761147D01*
X42280511Y-48761122D01*
X42291853Y-48774972D01*
X42310779Y-48790537D01*
X42332377Y-48802111D01*
X42355819Y-48809249D01*
X42380202Y-48811676D01*
X42404591Y-48809300D01*
X42428047Y-48802211D01*
X42449670Y-48790682D01*
X42468628Y-48775157D01*
X42484193Y-48756231D01*
X42486029Y-48753175D01*
X42487418Y-48751486D01*
X42487419Y-48751484D01*
X42493801Y-48743725D01*
X42501573Y-48737360D01*
X42501575Y-48737358D01*
X42510399Y-48732654D01*
X42510438Y-48732633D01*
X42520055Y-48729727D01*
X42520085Y-48729718D01*
X42536113Y-48728148D01*
X43673860Y-48728148D01*
X43689999Y-48729737D01*
X43699608Y-48732652D01*
X43708472Y-48737390D01*
X43716237Y-48743763D01*
X43722610Y-48751528D01*
X43727348Y-48760392D01*
X43730263Y-48770001D01*
X43731852Y-48786140D01*
X43731852Y-50273860D01*
X43730263Y-50289999D01*
X43727348Y-50299608D01*
X43722610Y-50308472D01*
X43716237Y-50316237D01*
X43708472Y-50322610D01*
X43699608Y-50327348D01*
X43689999Y-50330263D01*
X43673860Y-50331852D01*
X42536140Y-50331852D01*
X42520001Y-50330263D01*
X42510392Y-50327348D01*
X42501528Y-50322610D01*
X42493763Y-50316237D01*
X42483116Y-50303263D01*
X42476947Y-50294032D01*
X42459619Y-50276706D01*
X42439244Y-50263093D01*
X42416605Y-50253717D01*
X42392572Y-50248937D01*
X42368068Y-50248938D01*
X42344035Y-50253720D01*
X42321396Y-50263098D01*
X42301022Y-50276713D01*
X42283696Y-50294041D01*
X42276825Y-50303317D01*
X42272640Y-50308427D01*
X42266275Y-50316199D01*
X42258516Y-50322581D01*
X42249661Y-50327326D01*
X42246623Y-50328251D01*
X42240085Y-50330242D01*
X42240082Y-50330242D01*
X42240050Y-50330252D01*
X42230000Y-50331247D01*
X42229935Y-50331247D01*
X42223825Y-50331852D01*
X41236140Y-50331852D01*
X41220001Y-50330263D01*
X41210392Y-50327348D01*
X41201528Y-50322610D01*
X41193763Y-50316237D01*
X41187390Y-50308472D01*
X41181238Y-50296962D01*
X41167624Y-50276588D01*
X41150297Y-50259261D01*
X41129923Y-50245647D01*
X41107284Y-50236270D01*
X41083251Y-50231490D01*
X41058746Y-50231490D01*
X41034713Y-50236271D01*
X41012074Y-50245648D01*
X40991700Y-50259262D01*
X40974373Y-50276589D01*
X40960759Y-50296963D01*
X40951382Y-50319602D01*
X40946000Y-50355887D01*
X40946000Y-52836000D01*
X36344000Y-52836000D01*
X36344000Y-50034000D01*
X41053149Y-50034000D01*
X41077535Y-50031598D01*
X41100984Y-50024485D01*
X41122595Y-50012934D01*
X41141537Y-49997389D01*
X41157082Y-49978447D01*
X41168633Y-49956836D01*
X41175746Y-49933387D01*
X41178148Y-49909001D01*
X41178148Y-49785999D01*
X41175746Y-49761613D01*
X41168633Y-49738164D01*
X41157082Y-49716553D01*
X41141537Y-49697611D01*
X41122595Y-49682066D01*
X41100984Y-49670515D01*
X41077535Y-49663402D01*
X41053149Y-49661000D01*
X36344000Y-49661000D01*
X36344000Y-46859000D01*
X40961957Y-46859000D01*
X40967066Y-46868559D01*
X40982611Y-46887501D01*
X41001553Y-46903046D01*
X41023164Y-46914597D01*
X41046613Y-46921710D01*
X41070999Y-46924112D01*
X41095385Y-46921710D01*
X41118834Y-46914597D01*
X41140445Y-46903046D01*
X41159387Y-46887501D01*
X41181238Y-46858038D01*
X41187390Y-46846528D01*
X41193763Y-46838763D01*
X41201528Y-46832390D01*
X41210392Y-46827652D01*
X41220001Y-46824737D01*
X41236140Y-46823148D01*
X42223860Y-46823148D01*
X42239999Y-46824737D01*
G37*
G36*
X71114228Y-50997703D02*
G01*
X71269100Y-51061853D01*
X71408481Y-51154985D01*
X71527015Y-51273519D01*
X71620147Y-51412900D01*
X71684297Y-51567772D01*
X71717000Y-51732184D01*
X71717000Y-51899816D01*
X71684297Y-52064228D01*
X71620147Y-52219100D01*
X71527015Y-52358481D01*
X71408481Y-52477015D01*
X71269100Y-52570147D01*
X71114228Y-52634297D01*
X70949816Y-52667000D01*
X70782184Y-52667000D01*
X70617772Y-52634297D01*
X70462900Y-52570147D01*
X70323519Y-52477015D01*
X70204985Y-52358481D01*
X70111853Y-52219100D01*
X70047703Y-52064228D01*
X70015000Y-51899816D01*
X70015000Y-51732184D01*
X70047703Y-51567772D01*
X70111853Y-51412900D01*
X70204985Y-51273519D01*
X70323519Y-51154985D01*
X70462900Y-51061853D01*
X70617772Y-50997703D01*
X70782184Y-50965000D01*
X70949816Y-50965000D01*
X71114228Y-50997703D01*
G37*
G36*
X60954228Y-50997703D02*
G01*
X61109100Y-51061853D01*
X61248481Y-51154985D01*
X61367015Y-51273519D01*
X61460147Y-51412900D01*
X61524297Y-51567772D01*
X61557000Y-51732184D01*
X61557000Y-51899816D01*
X61524297Y-52064228D01*
X61460147Y-52219100D01*
X61367015Y-52358481D01*
X61248481Y-52477015D01*
X61109100Y-52570147D01*
X60954228Y-52634297D01*
X60789816Y-52667000D01*
X60622184Y-52667000D01*
X60457772Y-52634297D01*
X60302900Y-52570147D01*
X60163519Y-52477015D01*
X60044985Y-52358481D01*
X59951853Y-52219100D01*
X59887703Y-52064228D01*
X59855000Y-51899816D01*
X59855000Y-51732184D01*
X59887703Y-51567772D01*
X59951853Y-51412900D01*
X60044985Y-51273519D01*
X60163519Y-51154985D01*
X60302900Y-51061853D01*
X60457772Y-50997703D01*
X60622184Y-50965000D01*
X60789816Y-50965000D01*
X60954228Y-50997703D01*
G37*
G36*
X85180855Y-50427140D02*
G01*
X85244618Y-50433420D01*
X85335404Y-50460960D01*
X85367336Y-50470646D01*
X85480425Y-50531094D01*
X85579554Y-50612446D01*
X85660906Y-50711575D01*
X85721354Y-50824664D01*
X85721355Y-50824668D01*
X85758580Y-50947382D01*
X85771149Y-51075000D01*
X85758580Y-51202618D01*
X85737072Y-51273519D01*
X85721354Y-51325336D01*
X85660906Y-51438425D01*
X85579554Y-51537554D01*
X85480425Y-51618906D01*
X85367336Y-51679354D01*
X85335404Y-51689040D01*
X85244618Y-51716580D01*
X85180855Y-51722860D01*
X85148974Y-51726000D01*
X84535026Y-51726000D01*
X84503145Y-51722860D01*
X84439382Y-51716580D01*
X84348596Y-51689040D01*
X84316664Y-51679354D01*
X84203575Y-51618906D01*
X84104446Y-51537554D01*
X84023094Y-51438425D01*
X83962646Y-51325336D01*
X83946928Y-51273519D01*
X83925420Y-51202618D01*
X83912851Y-51075000D01*
X83925420Y-50947382D01*
X83962645Y-50824668D01*
X83962646Y-50824664D01*
X84023094Y-50711575D01*
X84104446Y-50612446D01*
X84203575Y-50531094D01*
X84316664Y-50470646D01*
X84348596Y-50460960D01*
X84439382Y-50433420D01*
X84503145Y-50427140D01*
X84535026Y-50424000D01*
X85148974Y-50424000D01*
X85180855Y-50427140D01*
G37*
G36*
X85180855Y-48427140D02*
G01*
X85244618Y-48433420D01*
X85331386Y-48459741D01*
X85367336Y-48470646D01*
X85480425Y-48531094D01*
X85579554Y-48612446D01*
X85660906Y-48711575D01*
X85721354Y-48824664D01*
X85722703Y-48829112D01*
X85758580Y-48947382D01*
X85771149Y-49075000D01*
X85758580Y-49202618D01*
X85737533Y-49272000D01*
X85721354Y-49325336D01*
X85660906Y-49438425D01*
X85579554Y-49537554D01*
X85480425Y-49618906D01*
X85367336Y-49679354D01*
X85335404Y-49689040D01*
X85244618Y-49716580D01*
X85180855Y-49722860D01*
X85148974Y-49726000D01*
X84535026Y-49726000D01*
X84503145Y-49722860D01*
X84439382Y-49716580D01*
X84348596Y-49689040D01*
X84316664Y-49679354D01*
X84203575Y-49618906D01*
X84104446Y-49537554D01*
X84023094Y-49438425D01*
X83962646Y-49325336D01*
X83946467Y-49272000D01*
X83925420Y-49202618D01*
X83912851Y-49075000D01*
X83925420Y-48947382D01*
X83961297Y-48829112D01*
X83962646Y-48824664D01*
X84023094Y-48711575D01*
X84104446Y-48612446D01*
X84203575Y-48531094D01*
X84316664Y-48470646D01*
X84352614Y-48459741D01*
X84439382Y-48433420D01*
X84503145Y-48427140D01*
X84535026Y-48424000D01*
X85148974Y-48424000D01*
X85180855Y-48427140D01*
G37*
G36*
X48746000Y-49661000D02*
G01*
X44144000Y-49661000D01*
X44144000Y-46859000D01*
X48746000Y-46859000D01*
X48746000Y-49661000D01*
G37*
G36*
X71114228Y-47695703D02*
G01*
X71269100Y-47759853D01*
X71408481Y-47852985D01*
X71527015Y-47971519D01*
X71620147Y-48110900D01*
X71684297Y-48265772D01*
X71717000Y-48430184D01*
X71717000Y-48597816D01*
X71684297Y-48762228D01*
X71620147Y-48917100D01*
X71527015Y-49056481D01*
X71408481Y-49175015D01*
X71269100Y-49268147D01*
X71114228Y-49332297D01*
X70949816Y-49365000D01*
X70782184Y-49365000D01*
X70617772Y-49332297D01*
X70462900Y-49268147D01*
X70323519Y-49175015D01*
X70204985Y-49056481D01*
X70111853Y-48917100D01*
X70047703Y-48762228D01*
X70015000Y-48597816D01*
X70015000Y-48430184D01*
X70047703Y-48265772D01*
X70111853Y-48110900D01*
X70204985Y-47971519D01*
X70323519Y-47852985D01*
X70462900Y-47759853D01*
X70617772Y-47695703D01*
X70782184Y-47663000D01*
X70949816Y-47663000D01*
X71114228Y-47695703D01*
G37*
G36*
X55874228Y-47695703D02*
G01*
X56029100Y-47759853D01*
X56168481Y-47852985D01*
X56287015Y-47971519D01*
X56380147Y-48110900D01*
X56444297Y-48265772D01*
X56477000Y-48430184D01*
X56477000Y-48597816D01*
X56444297Y-48762228D01*
X56380147Y-48917100D01*
X56287015Y-49056481D01*
X56168481Y-49175015D01*
X56029100Y-49268147D01*
X55874228Y-49332297D01*
X55709816Y-49365000D01*
X55542184Y-49365000D01*
X55377772Y-49332297D01*
X55222900Y-49268147D01*
X55083519Y-49175015D01*
X54964985Y-49056481D01*
X54871853Y-48917100D01*
X54807703Y-48762228D01*
X54775000Y-48597816D01*
X54775000Y-48430184D01*
X54807703Y-48265772D01*
X54871853Y-48110900D01*
X54964985Y-47971519D01*
X55083519Y-47852985D01*
X55222900Y-47759853D01*
X55377772Y-47695703D01*
X55542184Y-47663000D01*
X55709816Y-47663000D01*
X55874228Y-47695703D01*
G37*
G36*
X51928916Y-47721334D02*
G01*
X52037492Y-47754271D01*
X52037495Y-47754272D01*
X52073601Y-47773571D01*
X52137557Y-47807756D01*
X52225264Y-47879736D01*
X52288383Y-47956646D01*
X52305702Y-47973965D01*
X52326077Y-47987579D01*
X52348716Y-47996957D01*
X52372749Y-48001737D01*
X52397253Y-48001737D01*
X52421286Y-47996957D01*
X52443925Y-47987579D01*
X52464299Y-47973966D01*
X52481626Y-47956639D01*
X52495240Y-47936264D01*
X52504618Y-47913625D01*
X52509398Y-47889592D01*
X52510000Y-47877340D01*
X52510000Y-47713000D01*
X53662000Y-47713000D01*
X53662000Y-49315000D01*
X52510000Y-49315000D01*
X52510000Y-49150660D01*
X52507598Y-49126274D01*
X52500485Y-49102825D01*
X52488934Y-49081214D01*
X52473389Y-49062272D01*
X52454447Y-49046727D01*
X52432836Y-49035176D01*
X52409387Y-49028063D01*
X52385001Y-49025661D01*
X52360615Y-49028063D01*
X52337166Y-49035176D01*
X52315555Y-49046727D01*
X52288381Y-49071356D01*
X52225264Y-49148264D01*
X52137556Y-49220244D01*
X52073600Y-49254429D01*
X52037494Y-49273728D01*
X52037491Y-49273729D01*
X51928915Y-49306666D01*
X51816000Y-49317787D01*
X51703084Y-49306666D01*
X51594508Y-49273729D01*
X51594505Y-49273728D01*
X51558399Y-49254429D01*
X51494443Y-49220244D01*
X51406736Y-49148264D01*
X51334756Y-49060556D01*
X51291239Y-48979140D01*
X51277625Y-48958766D01*
X51260298Y-48941439D01*
X51239924Y-48927825D01*
X51217285Y-48918448D01*
X51193251Y-48913668D01*
X51168747Y-48913668D01*
X51144714Y-48918449D01*
X51122075Y-48927826D01*
X51101701Y-48941440D01*
X51084374Y-48958767D01*
X51070762Y-48979140D01*
X51027244Y-49060557D01*
X50955264Y-49148264D01*
X50867556Y-49220244D01*
X50803600Y-49254429D01*
X50767494Y-49273728D01*
X50767491Y-49273729D01*
X50658915Y-49306666D01*
X50546000Y-49317787D01*
X50433084Y-49306666D01*
X50324508Y-49273729D01*
X50324505Y-49273728D01*
X50288399Y-49254429D01*
X50224443Y-49220244D01*
X50136736Y-49148264D01*
X50064756Y-49060556D01*
X50021239Y-48979140D01*
X50011272Y-48960494D01*
X50007295Y-48947384D01*
X49978334Y-48851915D01*
X49970000Y-48767297D01*
X49970000Y-48260702D01*
X49978334Y-48176084D01*
X50011271Y-48067508D01*
X50011272Y-48067505D01*
X50064756Y-47967445D01*
X50064757Y-47967443D01*
X50136737Y-47879736D01*
X50224444Y-47807756D01*
X50288400Y-47773571D01*
X50324506Y-47754272D01*
X50324509Y-47754271D01*
X50433085Y-47721334D01*
X50546000Y-47710213D01*
X50658916Y-47721334D01*
X50767492Y-47754271D01*
X50767495Y-47754272D01*
X50803601Y-47773571D01*
X50867557Y-47807756D01*
X50955264Y-47879736D01*
X51027244Y-47967443D01*
X51043019Y-47996957D01*
X51070761Y-48048859D01*
X51084375Y-48069234D01*
X51101702Y-48086561D01*
X51122076Y-48100174D01*
X51144715Y-48109552D01*
X51168748Y-48114332D01*
X51193252Y-48114332D01*
X51217285Y-48109552D01*
X51239924Y-48100174D01*
X51260299Y-48086560D01*
X51277626Y-48069233D01*
X51291239Y-48048859D01*
X51334756Y-47967445D01*
X51334757Y-47967443D01*
X51406737Y-47879736D01*
X51494444Y-47807756D01*
X51558400Y-47773571D01*
X51594506Y-47754272D01*
X51594509Y-47754271D01*
X51703085Y-47721334D01*
X51816000Y-47710213D01*
X51928916Y-47721334D01*
G37*
G36*
X99439512Y-47474927D02*
G01*
X99588812Y-47504624D01*
X99752784Y-47572544D01*
X99900354Y-47671147D01*
X100025853Y-47796646D01*
X100124456Y-47944216D01*
X100192376Y-48108188D01*
X100227000Y-48282259D01*
X100227000Y-48459741D01*
X100192376Y-48633812D01*
X100124456Y-48797784D01*
X100025853Y-48945354D01*
X99900354Y-49070853D01*
X99752784Y-49169456D01*
X99588812Y-49237376D01*
X99439512Y-49267073D01*
X99414742Y-49272000D01*
X99237258Y-49272000D01*
X99212488Y-49267073D01*
X99063188Y-49237376D01*
X98899216Y-49169456D01*
X98751646Y-49070853D01*
X98626147Y-48945354D01*
X98527544Y-48797784D01*
X98459624Y-48633812D01*
X98425000Y-48459741D01*
X98425000Y-48282259D01*
X98459624Y-48108188D01*
X98527544Y-47944216D01*
X98626147Y-47796646D01*
X98751646Y-47671147D01*
X98899216Y-47572544D01*
X99063188Y-47504624D01*
X99212488Y-47474927D01*
X99237258Y-47470000D01*
X99414742Y-47470000D01*
X99439512Y-47474927D01*
G37*
G36*
X102767000Y-49272000D02*
G01*
X100965000Y-49272000D01*
X100965000Y-47470000D01*
X102767000Y-47470000D01*
X102767000Y-49272000D01*
G37*
M02*
