%FSLAX45Y45*%
G04 Gerber Fmt 4.5, Leading zero omitted, Abs format (unit mm)*
G04 Created by KiCad (PCBNEW 5.1.5+dfsg1-2build2) date 2022-06-14 14:03:17*
%MOMM*%
%LPD*%
G04 APERTURE LIST*
%ADD10C,0.200000*%
%ADD11C,0.300000*%
G04 APERTURE END LIST*
D10*
X4526600Y-5999800D02*
X4566600Y-6039800D01*
X4566600Y-5999800D02*
X4526600Y-6039800D01*
X4882200Y-6838000D02*
X4922200Y-6878000D01*
X4922200Y-6838000D02*
X4882200Y-6878000D01*
X5105000Y-7370000D02*
X5145000Y-7410000D01*
X5145000Y-7370000D02*
X5105000Y-7410000D01*
X5110800Y-7885750D02*
X5150800Y-7925750D01*
X5150800Y-7885750D02*
X5110800Y-7925750D01*
X5441000Y-7600000D02*
X5481000Y-7640000D01*
X5481000Y-7600000D02*
X5441000Y-7640000D01*
X5618800Y-7168200D02*
X5658800Y-7208200D01*
X5658800Y-7168200D02*
X5618800Y-7208200D01*
X6140000Y-5580000D02*
X6180000Y-5620000D01*
X6180000Y-5580000D02*
X6140000Y-5620000D01*
X6350000Y-5312700D02*
X6390000Y-5352700D01*
X6390000Y-5312700D02*
X6350000Y-5352700D01*
X6380000Y-5580000D02*
X6420000Y-5620000D01*
X6420000Y-5580000D02*
X6380000Y-5620000D01*
X6507800Y-7269800D02*
X6547800Y-7309800D01*
X6547800Y-7269800D02*
X6507800Y-7309800D01*
X6660200Y-5568000D02*
X6700200Y-5608000D01*
X6700200Y-5568000D02*
X6660200Y-5608000D01*
X6812600Y-6050600D02*
X6852600Y-6090600D01*
X6852600Y-6050600D02*
X6812600Y-6090600D01*
X6888800Y-5390200D02*
X6928800Y-5430200D01*
X6928800Y-5390200D02*
X6888800Y-5430200D01*
X6930000Y-6330000D02*
X6970000Y-6370000D01*
X6970000Y-6330000D02*
X6930000Y-6370000D01*
X7320000Y-6330000D02*
X7360000Y-6370000D01*
X7360000Y-6330000D02*
X7320000Y-6370000D01*
X7380000Y-4805000D02*
X7420000Y-4845000D01*
X7420000Y-4805000D02*
X7380000Y-4845000D01*
X7523800Y-5745800D02*
X7563800Y-5785800D01*
X7563800Y-5745800D02*
X7523800Y-5785800D01*
X7523800Y-6050600D02*
X7563800Y-6090600D01*
X7563800Y-6050600D02*
X7523800Y-6090600D01*
X7654000Y-5363200D02*
X7694000Y-5403200D01*
X7694000Y-5363200D02*
X7654000Y-5403200D01*
X7654000Y-5591800D02*
X7694000Y-5631800D01*
X7694000Y-5591800D02*
X7654000Y-5631800D01*
X7830000Y-5130000D02*
X7870000Y-5170000D01*
X7870000Y-5130000D02*
X7830000Y-5170000D01*
X7942100Y-5747900D02*
X7982100Y-5787900D01*
X7982100Y-5747900D02*
X7942100Y-5787900D01*
X8793800Y-5263200D02*
X8833800Y-5303200D01*
X8833800Y-5263200D02*
X8793800Y-5303200D01*
X8810000Y-5050000D02*
X8850000Y-5090000D01*
X8850000Y-5050000D02*
X8810000Y-5090000D01*
X9080000Y-5050000D02*
X9120000Y-5090000D01*
X9120000Y-5050000D02*
X9080000Y-5090000D01*
X9177800Y-5160000D02*
X9217800Y-5200000D01*
X9217800Y-5160000D02*
X9177800Y-5200000D01*
X9454200Y-5263200D02*
X9494200Y-5303200D01*
X9494200Y-5263200D02*
X9454200Y-5303200D01*
X9550000Y-5030000D02*
X9590000Y-5070000D01*
X9590000Y-5030000D02*
X9550000Y-5070000D01*
X10236100Y-7631100D02*
G75*
G03X10236100Y-7631100I-35000J0D01*
G01*
X10236100Y-7758100D02*
G75*
G03X10236100Y-7758100I-35000J0D01*
G01*
X10236100Y-7885100D02*
G75*
G03X10236100Y-7885100I-35000J0D01*
G01*
X10236100Y-8012100D02*
G75*
G03X10236100Y-8012100I-35000J0D01*
G01*
X10236100Y-6996100D02*
G75*
G03X10236100Y-6996100I-35000J0D01*
G01*
X10236100Y-7123100D02*
G75*
G03X10236100Y-7123100I-35000J0D01*
G01*
X10236100Y-7250100D02*
G75*
G03X10236100Y-7250100I-35000J0D01*
G01*
X10236100Y-7377100D02*
G75*
G03X10236100Y-7377100I-35000J0D01*
G01*
X5054600Y-4813900D02*
X5054600Y-4888900D01*
X5017100Y-4851400D02*
X5092100Y-4851400D01*
X5181600Y-4813900D02*
X5181600Y-4888900D01*
X5144100Y-4851400D02*
X5219100Y-4851400D01*
X5308600Y-4813900D02*
X5308600Y-4888900D01*
X5271100Y-4851400D02*
X5346100Y-4851400D01*
X8484200Y-4870000D02*
X8484200Y-4945000D01*
X8446700Y-4907500D02*
X8521700Y-4907500D01*
X8484200Y-5070000D02*
X8484200Y-5145000D01*
X8446700Y-5107500D02*
X8521700Y-5107500D01*
X8484200Y-5270000D02*
X8484200Y-5345000D01*
X8446700Y-5307500D02*
X8521700Y-5307500D01*
X8484200Y-5470000D02*
X8484200Y-5545000D01*
X8446700Y-5507500D02*
X8521700Y-5507500D01*
X8484200Y-5670000D02*
X8484200Y-5745000D01*
X8446700Y-5707500D02*
X8521700Y-5707500D01*
X8484200Y-5870000D02*
X8484200Y-5945000D01*
X8446700Y-5907500D02*
X8521700Y-5907500D01*
X6581484Y-7673684D02*
X6581484Y-7617115D01*
X6524915Y-7617115D01*
X6524915Y-7673684D01*
X6581484Y-7673684D01*
X6831484Y-7673684D02*
X6831484Y-7617115D01*
X6774915Y-7617115D01*
X6774915Y-7673684D01*
X6831484Y-7673684D01*
X6784684Y-6581484D02*
X6784684Y-6524915D01*
X6728115Y-6524915D01*
X6728115Y-6581484D01*
X6784684Y-6581484D01*
X7800684Y-6581484D02*
X7800684Y-6524915D01*
X7744115Y-6524915D01*
X7744115Y-6581484D01*
X7800684Y-6581484D01*
X5590885Y-4879685D02*
X5590885Y-4823116D01*
X5534316Y-4823116D01*
X5534316Y-4879685D01*
X5590885Y-4879685D01*
X7114884Y-4879685D02*
X7114884Y-4823116D01*
X7058315Y-4823116D01*
X7058315Y-4879685D01*
X7114884Y-4879685D01*
X5590885Y-8003884D02*
X5590885Y-7947315D01*
X5534316Y-7947315D01*
X5534316Y-8003884D01*
X5590885Y-8003884D01*
X7114884Y-8003884D02*
X7114884Y-7947315D01*
X7058315Y-7947315D01*
X7058315Y-8003884D01*
X7114884Y-8003884D01*
X8959385Y-7341884D02*
X8959385Y-7285315D01*
X8902816Y-7285315D01*
X8902816Y-7341884D01*
X8959385Y-7341884D01*
X9975385Y-7341884D02*
X9975385Y-7285315D01*
X9918816Y-7285315D01*
X9918816Y-7341884D01*
X9975385Y-7341884D01*
X8959385Y-7976884D02*
X8959385Y-7920315D01*
X8902816Y-7920315D01*
X8902816Y-7976884D01*
X8959385Y-7976884D01*
X9975385Y-7976884D02*
X9975385Y-7920315D01*
X9918816Y-7920315D01*
X9918816Y-7976884D01*
X9975385Y-7976884D01*
X6784684Y-6937084D02*
X6784684Y-6880515D01*
X6728115Y-6880515D01*
X6728115Y-6937084D01*
X6784684Y-6937084D01*
X7800684Y-6937084D02*
X7800684Y-6880515D01*
X7744115Y-6880515D01*
X7744115Y-6937084D01*
X7800684Y-6937084D01*
X6098884Y-5209885D02*
X6098884Y-5153316D01*
X6042315Y-5153316D01*
X6042315Y-5209885D01*
X6098884Y-5209885D01*
X7114884Y-5209885D02*
X7114884Y-5153316D01*
X7058315Y-5153316D01*
X7058315Y-5209885D01*
X7114884Y-5209885D01*
X7613000Y-7345000D02*
X7658000Y-7300000D01*
X7613000Y-7255000D01*
X7568000Y-7300000D01*
X7613000Y-7345000D01*
X8375000Y-7345000D02*
X8420000Y-7300000D01*
X8375000Y-7255000D01*
X8330000Y-7300000D01*
X8375000Y-7345000D01*
X9121600Y-6660100D02*
X9166600Y-6615100D01*
X9121600Y-6570100D01*
X9076600Y-6615100D01*
X9121600Y-6660100D01*
X9883600Y-6660100D02*
X9928600Y-6615100D01*
X9883600Y-6570100D01*
X9838600Y-6615100D01*
X9883600Y-6660100D01*
X3883000Y-5488000D02*
X3983000Y-5588000D01*
X3983000Y-5488000D02*
X3883000Y-5588000D01*
X3983000Y-5538000D02*
G75*
G03X3983000Y-5538000I-50000J0D01*
G01*
X3883000Y-5742000D02*
X3983000Y-5842000D01*
X3983000Y-5742000D02*
X3883000Y-5842000D01*
X3983000Y-5792000D02*
G75*
G03X3983000Y-5792000I-50000J0D01*
G01*
X3883000Y-7012000D02*
X3983000Y-7112000D01*
X3983000Y-7012000D02*
X3883000Y-7112000D01*
X3983000Y-7062000D02*
G75*
G03X3983000Y-7062000I-50000J0D01*
G01*
X3883000Y-7266000D02*
X3983000Y-7366000D01*
X3983000Y-7266000D02*
X3883000Y-7366000D01*
X3983000Y-7316000D02*
G75*
G03X3983000Y-7316000I-50000J0D01*
G01*
X10123800Y-6228500D02*
X10223800Y-6328500D01*
X10223800Y-6228500D02*
X10123800Y-6328500D01*
X10223800Y-6278500D02*
G75*
G03X10223800Y-6278500I-50000J0D01*
G01*
X10123800Y-6482500D02*
X10223800Y-6582500D01*
X10223800Y-6482500D02*
X10123800Y-6582500D01*
X10223800Y-6532500D02*
G75*
G03X10223800Y-6532500I-50000J0D01*
G01*
X3883000Y-5996000D02*
X3983000Y-6096000D01*
X3983000Y-5996000D02*
X3883000Y-6096000D01*
X3983000Y-6046000D02*
G75*
G03X3983000Y-6046000I-50000J0D01*
G01*
X3883000Y-6250000D02*
X3983000Y-6350000D01*
X3983000Y-6250000D02*
X3883000Y-6350000D01*
X3983000Y-6300000D02*
G75*
G03X3983000Y-6300000I-50000J0D01*
G01*
X3883000Y-6504000D02*
X3983000Y-6604000D01*
X3983000Y-6504000D02*
X3883000Y-6604000D01*
X3983000Y-6554000D02*
G75*
G03X3983000Y-6554000I-50000J0D01*
G01*
X3883000Y-6758000D02*
X3983000Y-6858000D01*
X3983000Y-6758000D02*
X3883000Y-6858000D01*
X3983000Y-6808000D02*
G75*
G03X3983000Y-6808000I-50000J0D01*
G01*
X9882600Y-4787100D02*
X9982600Y-4887100D01*
X9982600Y-4787100D02*
X9882600Y-4887100D01*
X9982600Y-4837100D02*
G75*
G03X9982600Y-4837100I-50000J0D01*
G01*
X10136600Y-4787100D02*
X10236600Y-4887100D01*
X10236600Y-4787100D02*
X10136600Y-4887100D01*
X10236600Y-4837100D02*
G75*
G03X10236600Y-4837100I-50000J0D01*
G01*
X8035800Y-6224400D02*
X8145800Y-6334400D01*
X8145800Y-6224400D02*
X8035800Y-6334400D01*
X8090800Y-6224400D02*
X8090800Y-6334400D01*
X8035800Y-6279400D02*
X8145800Y-6279400D01*
X8035800Y-6674400D02*
X8145800Y-6784400D01*
X8145800Y-6674400D02*
X8035800Y-6784400D01*
X8090800Y-6674400D02*
X8090800Y-6784400D01*
X8035800Y-6729400D02*
X8145800Y-6729400D01*
X8685800Y-6224400D02*
X8795800Y-6334400D01*
X8795800Y-6224400D02*
X8685800Y-6334400D01*
X8740800Y-6224400D02*
X8740800Y-6334400D01*
X8685800Y-6279400D02*
X8795800Y-6279400D01*
X8685800Y-6674400D02*
X8795800Y-6784400D01*
X8795800Y-6674400D02*
X8685800Y-6784400D01*
X8740800Y-6674400D02*
X8740800Y-6784400D01*
X8685800Y-6729400D02*
X8795800Y-6729400D01*
X3694556Y-5083556D02*
X3814444Y-5203444D01*
X3814444Y-5083556D02*
X3694556Y-5203444D01*
X3796887Y-5185887D02*
X3796887Y-5101113D01*
X3712113Y-5101113D01*
X3712113Y-5185887D01*
X3796887Y-5185887D01*
X4694556Y-5083556D02*
X4814444Y-5203444D01*
X4814444Y-5083556D02*
X4694556Y-5203444D01*
X4796887Y-5185887D02*
X4796887Y-5101113D01*
X4712113Y-5101113D01*
X4712113Y-5185887D01*
X4796887Y-5185887D01*
X3694556Y-7941056D02*
X3814444Y-8060944D01*
X3814444Y-7941056D02*
X3694556Y-8060944D01*
X3796887Y-8043387D02*
X3796887Y-7958613D01*
X3712113Y-7958613D01*
X3712113Y-8043387D01*
X3796887Y-8043387D01*
X4694556Y-7941056D02*
X4814444Y-8060944D01*
X4814444Y-7941056D02*
X4694556Y-8060944D01*
X4796887Y-8043387D02*
X4796887Y-7958613D01*
X4712113Y-7958613D01*
X4712113Y-8043387D01*
X4796887Y-8043387D01*
X3694556Y-4766056D02*
X3814444Y-4885944D01*
X3814444Y-4766056D02*
X3694556Y-4885944D01*
X3796887Y-4868387D02*
X3796887Y-4783613D01*
X3712113Y-4783613D01*
X3712113Y-4868387D01*
X3796887Y-4868387D01*
X4694556Y-4766056D02*
X4814444Y-4885944D01*
X4814444Y-4766056D02*
X4694556Y-4885944D01*
X4796887Y-4868387D02*
X4796887Y-4783613D01*
X4712113Y-4783613D01*
X4712113Y-4868387D01*
X4796887Y-4868387D01*
X3694556Y-7623556D02*
X3814444Y-7743444D01*
X3814444Y-7623556D02*
X3694556Y-7743444D01*
X3796887Y-7725887D02*
X3796887Y-7641113D01*
X3712113Y-7641113D01*
X3712113Y-7725887D01*
X3796887Y-7725887D01*
X4694556Y-7623556D02*
X4814444Y-7743444D01*
X4814444Y-7623556D02*
X4694556Y-7743444D01*
X4796887Y-7725887D02*
X4796887Y-7641113D01*
X4712113Y-7641113D01*
X4712113Y-7725887D01*
X4796887Y-7725887D01*
X5434500Y-6597000D02*
X5564500Y-6727000D01*
X5564500Y-6597000D02*
X5434500Y-6727000D01*
X5499500Y-6727000D02*
X5564500Y-6662000D01*
X5499500Y-6597000D01*
X5434500Y-6662000D01*
X5499500Y-6727000D01*
X5435000Y-5573800D02*
X5565000Y-5703800D01*
X5565000Y-5573800D02*
X5435000Y-5703800D01*
X5500000Y-5703800D02*
X5565000Y-5638800D01*
X5500000Y-5573800D01*
X5435000Y-5638800D01*
X5500000Y-5703800D01*
X5434500Y-6097000D02*
X5564500Y-6227000D01*
X5564500Y-6097000D02*
X5434500Y-6227000D01*
X5499500Y-6227000D02*
X5564500Y-6162000D01*
X5499500Y-6097000D01*
X5434500Y-6162000D01*
X5499500Y-6227000D01*
X5435000Y-7335000D02*
X5565000Y-7465000D01*
X5565000Y-7335000D02*
X5435000Y-7465000D01*
X5500000Y-7465000D02*
X5565000Y-7400000D01*
X5500000Y-7335000D01*
X5435000Y-7400000D01*
X5500000Y-7465000D01*
X5435000Y-5335000D02*
X5565000Y-5465000D01*
X5565000Y-5335000D02*
X5435000Y-5465000D01*
X5500000Y-5465000D02*
X5565000Y-5400000D01*
X5500000Y-5335000D01*
X5435000Y-5400000D01*
X5500000Y-5465000D01*
X5434500Y-5847000D02*
X5564500Y-5977000D01*
X5564500Y-5847000D02*
X5434500Y-5977000D01*
X5499500Y-5977000D02*
X5564500Y-5912000D01*
X5499500Y-5847000D01*
X5434500Y-5912000D01*
X5499500Y-5977000D01*
X5434500Y-6847000D02*
X5564500Y-6977000D01*
X5564500Y-6847000D02*
X5434500Y-6977000D01*
X5499500Y-6977000D02*
X5564500Y-6912000D01*
X5499500Y-6847000D01*
X5434500Y-6912000D01*
X5499500Y-6977000D01*
X9970600Y-5224600D02*
X9970600Y-5376600D01*
X9894600Y-5300600D02*
X10046600Y-5300600D01*
X10046600Y-5300600D02*
G75*
G03X10046600Y-5300600I-76000J0D01*
G01*
X9970600Y-5732600D02*
X9970600Y-5884600D01*
X9894600Y-5808600D02*
X10046600Y-5808600D01*
X10046600Y-5808600D02*
G75*
G03X10046600Y-5808600I-76000J0D01*
G01*
D11*
X286429Y-465714D02*
X286429Y-165714D01*
X357857Y-165714D01*
X400714Y-180000D01*
X429286Y-208571D01*
X443571Y-237143D01*
X457857Y-294286D01*
X457857Y-337143D01*
X443571Y-394286D01*
X429286Y-422857D01*
X400714Y-451428D01*
X357857Y-465714D01*
X286429Y-465714D01*
X586429Y-465714D02*
X586429Y-265714D01*
X586429Y-322857D02*
X600714Y-294286D01*
X615000Y-280000D01*
X643571Y-265714D01*
X672143Y-265714D01*
X772143Y-465714D02*
X772143Y-265714D01*
X772143Y-165714D02*
X757857Y-180000D01*
X772143Y-194286D01*
X786428Y-180000D01*
X772143Y-165714D01*
X772143Y-194286D01*
X957857Y-465714D02*
X929286Y-451428D01*
X915000Y-422857D01*
X915000Y-165714D01*
X1115000Y-465714D02*
X1086429Y-451428D01*
X1072143Y-422857D01*
X1072143Y-165714D01*
X1457857Y-465714D02*
X1457857Y-165714D01*
X1557857Y-380000D01*
X1657857Y-165714D01*
X1657857Y-465714D01*
X1929286Y-465714D02*
X1929286Y-308571D01*
X1915000Y-280000D01*
X1886428Y-265714D01*
X1829286Y-265714D01*
X1800714Y-280000D01*
X1929286Y-451428D02*
X1900714Y-465714D01*
X1829286Y-465714D01*
X1800714Y-451428D01*
X1786428Y-422857D01*
X1786428Y-394286D01*
X1800714Y-365714D01*
X1829286Y-351428D01*
X1900714Y-351428D01*
X1929286Y-337143D01*
X2072143Y-265714D02*
X2072143Y-565714D01*
X2072143Y-280000D02*
X2100714Y-265714D01*
X2157857Y-265714D01*
X2186429Y-280000D01*
X2200714Y-294286D01*
X2215000Y-322857D01*
X2215000Y-408571D01*
X2200714Y-437143D01*
X2186429Y-451428D01*
X2157857Y-465714D01*
X2100714Y-465714D01*
X2072143Y-451428D01*
X2343571Y-437143D02*
X2357857Y-451428D01*
X2343571Y-465714D01*
X2329286Y-451428D01*
X2343571Y-437143D01*
X2343571Y-465714D01*
X2343571Y-280000D02*
X2357857Y-294286D01*
X2343571Y-308571D01*
X2329286Y-294286D01*
X2343571Y-280000D01*
X2343571Y-308571D01*
X-40000Y-940000D02*
X0Y-980000D01*
X0Y-940000D02*
X-40000Y-980000D01*
X343571Y-795714D02*
X372143Y-795714D01*
X400714Y-810000D01*
X415000Y-824286D01*
X429286Y-852857D01*
X443571Y-910000D01*
X443571Y-981428D01*
X429286Y-1038571D01*
X415000Y-1067143D01*
X400714Y-1081429D01*
X372143Y-1095714D01*
X343571Y-1095714D01*
X315000Y-1081429D01*
X300714Y-1067143D01*
X286429Y-1038571D01*
X272143Y-981428D01*
X272143Y-910000D01*
X286429Y-852857D01*
X300714Y-824286D01*
X315000Y-810000D01*
X343571Y-795714D01*
X572143Y-1067143D02*
X586429Y-1081429D01*
X572143Y-1095714D01*
X557857Y-1081429D01*
X572143Y-1067143D01*
X572143Y-1095714D01*
X843571Y-895714D02*
X843571Y-1095714D01*
X772143Y-781428D02*
X700714Y-995714D01*
X886428Y-995714D01*
X1057857Y-795714D02*
X1086429Y-795714D01*
X1115000Y-810000D01*
X1129286Y-824286D01*
X1143571Y-852857D01*
X1157857Y-910000D01*
X1157857Y-981428D01*
X1143571Y-1038571D01*
X1129286Y-1067143D01*
X1115000Y-1081429D01*
X1086429Y-1095714D01*
X1057857Y-1095714D01*
X1029286Y-1081429D01*
X1015000Y-1067143D01*
X1000714Y-1038571D01*
X986428Y-981428D01*
X986428Y-910000D01*
X1000714Y-852857D01*
X1015000Y-824286D01*
X1029286Y-810000D01*
X1057857Y-795714D01*
X1286429Y-1095714D02*
X1286429Y-895714D01*
X1286429Y-924286D02*
X1300714Y-910000D01*
X1329286Y-895714D01*
X1372143Y-895714D01*
X1400714Y-910000D01*
X1415000Y-938571D01*
X1415000Y-1095714D01*
X1415000Y-938571D02*
X1429286Y-910000D01*
X1457857Y-895714D01*
X1500714Y-895714D01*
X1529286Y-910000D01*
X1543571Y-938571D01*
X1543571Y-1095714D01*
X1686428Y-1095714D02*
X1686428Y-895714D01*
X1686428Y-924286D02*
X1700714Y-910000D01*
X1729286Y-895714D01*
X1772143Y-895714D01*
X1800714Y-910000D01*
X1815000Y-938571D01*
X1815000Y-1095714D01*
X1815000Y-938571D02*
X1829286Y-910000D01*
X1857857Y-895714D01*
X1900714Y-895714D01*
X1929286Y-910000D01*
X1943571Y-938571D01*
X1943571Y-1095714D01*
X2529286Y-781428D02*
X2272143Y-1167143D01*
X2915000Y-795714D02*
X2943571Y-795714D01*
X2972143Y-810000D01*
X2986428Y-824286D01*
X3000714Y-852857D01*
X3015000Y-910000D01*
X3015000Y-981428D01*
X3000714Y-1038571D01*
X2986428Y-1067143D01*
X2972143Y-1081429D01*
X2943571Y-1095714D01*
X2915000Y-1095714D01*
X2886428Y-1081429D01*
X2872143Y-1067143D01*
X2857857Y-1038571D01*
X2843571Y-981428D01*
X2843571Y-910000D01*
X2857857Y-852857D01*
X2872143Y-824286D01*
X2886428Y-810000D01*
X2915000Y-795714D01*
X3143571Y-1067143D02*
X3157857Y-1081429D01*
X3143571Y-1095714D01*
X3129286Y-1081429D01*
X3143571Y-1067143D01*
X3143571Y-1095714D01*
X3343571Y-795714D02*
X3372143Y-795714D01*
X3400714Y-810000D01*
X3415000Y-824286D01*
X3429286Y-852857D01*
X3443571Y-910000D01*
X3443571Y-981428D01*
X3429286Y-1038571D01*
X3415000Y-1067143D01*
X3400714Y-1081429D01*
X3372143Y-1095714D01*
X3343571Y-1095714D01*
X3315000Y-1081429D01*
X3300714Y-1067143D01*
X3286428Y-1038571D01*
X3272143Y-981428D01*
X3272143Y-910000D01*
X3286428Y-852857D01*
X3300714Y-824286D01*
X3315000Y-810000D01*
X3343571Y-795714D01*
X3729286Y-1095714D02*
X3557857Y-1095714D01*
X3643571Y-1095714D02*
X3643571Y-795714D01*
X3615000Y-838571D01*
X3586428Y-867143D01*
X3557857Y-881428D01*
X3986428Y-795714D02*
X3929286Y-795714D01*
X3900714Y-810000D01*
X3886428Y-824286D01*
X3857857Y-867143D01*
X3843571Y-924286D01*
X3843571Y-1038571D01*
X3857857Y-1067143D01*
X3872143Y-1081429D01*
X3900714Y-1095714D01*
X3957857Y-1095714D01*
X3986428Y-1081429D01*
X4000714Y-1067143D01*
X4015000Y-1038571D01*
X4015000Y-967143D01*
X4000714Y-938571D01*
X3986428Y-924286D01*
X3957857Y-910000D01*
X3900714Y-910000D01*
X3872143Y-924286D01*
X3857857Y-938571D01*
X3843571Y-967143D01*
X4129286Y-795714D02*
X4129286Y-852857D01*
X4243571Y-795714D02*
X4243571Y-852857D01*
X4686429Y-1210000D02*
X4672143Y-1195714D01*
X4643571Y-1152857D01*
X4629286Y-1124286D01*
X4615000Y-1081429D01*
X4600714Y-1010000D01*
X4600714Y-952857D01*
X4615000Y-881428D01*
X4629286Y-838571D01*
X4643571Y-810000D01*
X4672143Y-767143D01*
X4686429Y-752857D01*
X4786429Y-824286D02*
X4800714Y-810000D01*
X4829286Y-795714D01*
X4900714Y-795714D01*
X4929286Y-810000D01*
X4943571Y-824286D01*
X4957857Y-852857D01*
X4957857Y-881428D01*
X4943571Y-924286D01*
X4772143Y-1095714D01*
X4957857Y-1095714D01*
X5129286Y-924286D02*
X5100714Y-910000D01*
X5086429Y-895714D01*
X5072143Y-867143D01*
X5072143Y-852857D01*
X5086429Y-824286D01*
X5100714Y-810000D01*
X5129286Y-795714D01*
X5186429Y-795714D01*
X5215000Y-810000D01*
X5229286Y-824286D01*
X5243571Y-852857D01*
X5243571Y-867143D01*
X5229286Y-895714D01*
X5215000Y-910000D01*
X5186429Y-924286D01*
X5129286Y-924286D01*
X5100714Y-938571D01*
X5086429Y-952857D01*
X5072143Y-981428D01*
X5072143Y-1038571D01*
X5086429Y-1067143D01*
X5100714Y-1081429D01*
X5129286Y-1095714D01*
X5186429Y-1095714D01*
X5215000Y-1081429D01*
X5229286Y-1067143D01*
X5243571Y-1038571D01*
X5243571Y-981428D01*
X5229286Y-952857D01*
X5215000Y-938571D01*
X5186429Y-924286D01*
X5600714Y-1095714D02*
X5600714Y-795714D01*
X5729286Y-1095714D02*
X5729286Y-938571D01*
X5715000Y-910000D01*
X5686428Y-895714D01*
X5643571Y-895714D01*
X5615000Y-910000D01*
X5600714Y-924286D01*
X5915000Y-1095714D02*
X5886428Y-1081429D01*
X5872143Y-1067143D01*
X5857857Y-1038571D01*
X5857857Y-952857D01*
X5872143Y-924286D01*
X5886428Y-910000D01*
X5915000Y-895714D01*
X5957857Y-895714D01*
X5986428Y-910000D01*
X6000714Y-924286D01*
X6015000Y-952857D01*
X6015000Y-1038571D01*
X6000714Y-1067143D01*
X5986428Y-1081429D01*
X5957857Y-1095714D01*
X5915000Y-1095714D01*
X6186428Y-1095714D02*
X6157857Y-1081429D01*
X6143571Y-1052857D01*
X6143571Y-795714D01*
X6415000Y-1081429D02*
X6386428Y-1095714D01*
X6329286Y-1095714D01*
X6300714Y-1081429D01*
X6286428Y-1052857D01*
X6286428Y-938571D01*
X6300714Y-910000D01*
X6329286Y-895714D01*
X6386428Y-895714D01*
X6415000Y-910000D01*
X6429286Y-938571D01*
X6429286Y-967143D01*
X6286428Y-995714D01*
X6543571Y-1081429D02*
X6572143Y-1095714D01*
X6629286Y-1095714D01*
X6657857Y-1081429D01*
X6672143Y-1052857D01*
X6672143Y-1038571D01*
X6657857Y-1010000D01*
X6629286Y-995714D01*
X6586428Y-995714D01*
X6557857Y-981428D01*
X6543571Y-952857D01*
X6543571Y-938571D01*
X6557857Y-910000D01*
X6586428Y-895714D01*
X6629286Y-895714D01*
X6657857Y-910000D01*
X6772143Y-1210000D02*
X6786428Y-1195714D01*
X6815000Y-1152857D01*
X6829286Y-1124286D01*
X6843571Y-1081429D01*
X6857857Y-1010000D01*
X6857857Y-952857D01*
X6843571Y-881428D01*
X6829286Y-838571D01*
X6815000Y-810000D01*
X6786428Y-767143D01*
X6772143Y-752857D01*
X0Y-1356000D02*
G75*
G03X0Y-1356000I-35000J0D01*
G01*
X343571Y-1191714D02*
X372143Y-1191714D01*
X400714Y-1206000D01*
X415000Y-1220286D01*
X429286Y-1248857D01*
X443571Y-1306000D01*
X443571Y-1377429D01*
X429286Y-1434571D01*
X415000Y-1463143D01*
X400714Y-1477428D01*
X372143Y-1491714D01*
X343571Y-1491714D01*
X315000Y-1477428D01*
X300714Y-1463143D01*
X286429Y-1434571D01*
X272143Y-1377429D01*
X272143Y-1306000D01*
X286429Y-1248857D01*
X300714Y-1220286D01*
X315000Y-1206000D01*
X343571Y-1191714D01*
X572143Y-1463143D02*
X586429Y-1477428D01*
X572143Y-1491714D01*
X557857Y-1477428D01*
X572143Y-1463143D01*
X572143Y-1491714D01*
X686429Y-1191714D02*
X886428Y-1191714D01*
X757857Y-1491714D01*
X1057857Y-1191714D02*
X1086429Y-1191714D01*
X1115000Y-1206000D01*
X1129286Y-1220286D01*
X1143571Y-1248857D01*
X1157857Y-1306000D01*
X1157857Y-1377429D01*
X1143571Y-1434571D01*
X1129286Y-1463143D01*
X1115000Y-1477428D01*
X1086429Y-1491714D01*
X1057857Y-1491714D01*
X1029286Y-1477428D01*
X1015000Y-1463143D01*
X1000714Y-1434571D01*
X986428Y-1377429D01*
X986428Y-1306000D01*
X1000714Y-1248857D01*
X1015000Y-1220286D01*
X1029286Y-1206000D01*
X1057857Y-1191714D01*
X1286429Y-1491714D02*
X1286429Y-1291714D01*
X1286429Y-1320286D02*
X1300714Y-1306000D01*
X1329286Y-1291714D01*
X1372143Y-1291714D01*
X1400714Y-1306000D01*
X1415000Y-1334571D01*
X1415000Y-1491714D01*
X1415000Y-1334571D02*
X1429286Y-1306000D01*
X1457857Y-1291714D01*
X1500714Y-1291714D01*
X1529286Y-1306000D01*
X1543571Y-1334571D01*
X1543571Y-1491714D01*
X1686428Y-1491714D02*
X1686428Y-1291714D01*
X1686428Y-1320286D02*
X1700714Y-1306000D01*
X1729286Y-1291714D01*
X1772143Y-1291714D01*
X1800714Y-1306000D01*
X1815000Y-1334571D01*
X1815000Y-1491714D01*
X1815000Y-1334571D02*
X1829286Y-1306000D01*
X1857857Y-1291714D01*
X1900714Y-1291714D01*
X1929286Y-1306000D01*
X1943571Y-1334571D01*
X1943571Y-1491714D01*
X2529286Y-1177429D02*
X2272143Y-1563143D01*
X2915000Y-1191714D02*
X2943571Y-1191714D01*
X2972143Y-1206000D01*
X2986428Y-1220286D01*
X3000714Y-1248857D01*
X3015000Y-1306000D01*
X3015000Y-1377429D01*
X3000714Y-1434571D01*
X2986428Y-1463143D01*
X2972143Y-1477428D01*
X2943571Y-1491714D01*
X2915000Y-1491714D01*
X2886428Y-1477428D01*
X2872143Y-1463143D01*
X2857857Y-1434571D01*
X2843571Y-1377429D01*
X2843571Y-1306000D01*
X2857857Y-1248857D01*
X2872143Y-1220286D01*
X2886428Y-1206000D01*
X2915000Y-1191714D01*
X3143571Y-1463143D02*
X3157857Y-1477428D01*
X3143571Y-1491714D01*
X3129286Y-1477428D01*
X3143571Y-1463143D01*
X3143571Y-1491714D01*
X3343571Y-1191714D02*
X3372143Y-1191714D01*
X3400714Y-1206000D01*
X3415000Y-1220286D01*
X3429286Y-1248857D01*
X3443571Y-1306000D01*
X3443571Y-1377429D01*
X3429286Y-1434571D01*
X3415000Y-1463143D01*
X3400714Y-1477428D01*
X3372143Y-1491714D01*
X3343571Y-1491714D01*
X3315000Y-1477428D01*
X3300714Y-1463143D01*
X3286428Y-1434571D01*
X3272143Y-1377429D01*
X3272143Y-1306000D01*
X3286428Y-1248857D01*
X3300714Y-1220286D01*
X3315000Y-1206000D01*
X3343571Y-1191714D01*
X3557857Y-1220286D02*
X3572143Y-1206000D01*
X3600714Y-1191714D01*
X3672143Y-1191714D01*
X3700714Y-1206000D01*
X3715000Y-1220286D01*
X3729286Y-1248857D01*
X3729286Y-1277429D01*
X3715000Y-1320286D01*
X3543571Y-1491714D01*
X3729286Y-1491714D01*
X3900714Y-1320286D02*
X3872143Y-1306000D01*
X3857857Y-1291714D01*
X3843571Y-1263143D01*
X3843571Y-1248857D01*
X3857857Y-1220286D01*
X3872143Y-1206000D01*
X3900714Y-1191714D01*
X3957857Y-1191714D01*
X3986428Y-1206000D01*
X4000714Y-1220286D01*
X4015000Y-1248857D01*
X4015000Y-1263143D01*
X4000714Y-1291714D01*
X3986428Y-1306000D01*
X3957857Y-1320286D01*
X3900714Y-1320286D01*
X3872143Y-1334571D01*
X3857857Y-1348857D01*
X3843571Y-1377429D01*
X3843571Y-1434571D01*
X3857857Y-1463143D01*
X3872143Y-1477428D01*
X3900714Y-1491714D01*
X3957857Y-1491714D01*
X3986428Y-1477428D01*
X4000714Y-1463143D01*
X4015000Y-1434571D01*
X4015000Y-1377429D01*
X4000714Y-1348857D01*
X3986428Y-1334571D01*
X3957857Y-1320286D01*
X4129286Y-1191714D02*
X4129286Y-1248857D01*
X4243571Y-1191714D02*
X4243571Y-1248857D01*
X4686429Y-1606000D02*
X4672143Y-1591714D01*
X4643571Y-1548857D01*
X4629286Y-1520286D01*
X4615000Y-1477428D01*
X4600714Y-1406000D01*
X4600714Y-1348857D01*
X4615000Y-1277429D01*
X4629286Y-1234571D01*
X4643571Y-1206000D01*
X4672143Y-1163143D01*
X4686429Y-1148857D01*
X4843571Y-1320286D02*
X4815000Y-1306000D01*
X4800714Y-1291714D01*
X4786429Y-1263143D01*
X4786429Y-1248857D01*
X4800714Y-1220286D01*
X4815000Y-1206000D01*
X4843571Y-1191714D01*
X4900714Y-1191714D01*
X4929286Y-1206000D01*
X4943571Y-1220286D01*
X4957857Y-1248857D01*
X4957857Y-1263143D01*
X4943571Y-1291714D01*
X4929286Y-1306000D01*
X4900714Y-1320286D01*
X4843571Y-1320286D01*
X4815000Y-1334571D01*
X4800714Y-1348857D01*
X4786429Y-1377429D01*
X4786429Y-1434571D01*
X4800714Y-1463143D01*
X4815000Y-1477428D01*
X4843571Y-1491714D01*
X4900714Y-1491714D01*
X4929286Y-1477428D01*
X4943571Y-1463143D01*
X4957857Y-1434571D01*
X4957857Y-1377429D01*
X4943571Y-1348857D01*
X4929286Y-1334571D01*
X4900714Y-1320286D01*
X5315000Y-1491714D02*
X5315000Y-1191714D01*
X5443571Y-1491714D02*
X5443571Y-1334571D01*
X5429286Y-1306000D01*
X5400714Y-1291714D01*
X5357857Y-1291714D01*
X5329286Y-1306000D01*
X5315000Y-1320286D01*
X5629286Y-1491714D02*
X5600714Y-1477428D01*
X5586429Y-1463143D01*
X5572143Y-1434571D01*
X5572143Y-1348857D01*
X5586429Y-1320286D01*
X5600714Y-1306000D01*
X5629286Y-1291714D01*
X5672143Y-1291714D01*
X5700714Y-1306000D01*
X5715000Y-1320286D01*
X5729286Y-1348857D01*
X5729286Y-1434571D01*
X5715000Y-1463143D01*
X5700714Y-1477428D01*
X5672143Y-1491714D01*
X5629286Y-1491714D01*
X5900714Y-1491714D02*
X5872143Y-1477428D01*
X5857857Y-1448857D01*
X5857857Y-1191714D01*
X6129286Y-1477428D02*
X6100714Y-1491714D01*
X6043571Y-1491714D01*
X6015000Y-1477428D01*
X6000714Y-1448857D01*
X6000714Y-1334571D01*
X6015000Y-1306000D01*
X6043571Y-1291714D01*
X6100714Y-1291714D01*
X6129286Y-1306000D01*
X6143571Y-1334571D01*
X6143571Y-1363143D01*
X6000714Y-1391714D01*
X6257857Y-1477428D02*
X6286428Y-1491714D01*
X6343571Y-1491714D01*
X6372143Y-1477428D01*
X6386428Y-1448857D01*
X6386428Y-1434571D01*
X6372143Y-1406000D01*
X6343571Y-1391714D01*
X6300714Y-1391714D01*
X6272143Y-1377429D01*
X6257857Y-1348857D01*
X6257857Y-1334571D01*
X6272143Y-1306000D01*
X6300714Y-1291714D01*
X6343571Y-1291714D01*
X6372143Y-1306000D01*
X6486428Y-1606000D02*
X6500714Y-1591714D01*
X6529286Y-1548857D01*
X6543571Y-1520286D01*
X6557857Y-1477428D01*
X6572143Y-1406000D01*
X6572143Y-1348857D01*
X6557857Y-1277429D01*
X6543571Y-1234571D01*
X6529286Y-1206000D01*
X6500714Y-1163143D01*
X6486428Y-1148857D01*
X-37500Y-1714500D02*
X-37500Y-1789500D01*
X-75000Y-1752000D02*
X0Y-1752000D01*
X343571Y-1587714D02*
X372143Y-1587714D01*
X400714Y-1602000D01*
X415000Y-1616286D01*
X429286Y-1644857D01*
X443571Y-1702000D01*
X443571Y-1773428D01*
X429286Y-1830571D01*
X415000Y-1859143D01*
X400714Y-1873428D01*
X372143Y-1887714D01*
X343571Y-1887714D01*
X315000Y-1873428D01*
X300714Y-1859143D01*
X286429Y-1830571D01*
X272143Y-1773428D01*
X272143Y-1702000D01*
X286429Y-1644857D01*
X300714Y-1616286D01*
X315000Y-1602000D01*
X343571Y-1587714D01*
X572143Y-1859143D02*
X586429Y-1873428D01*
X572143Y-1887714D01*
X557857Y-1873428D01*
X572143Y-1859143D01*
X572143Y-1887714D01*
X686429Y-1587714D02*
X886428Y-1587714D01*
X757857Y-1887714D01*
X1143571Y-1587714D02*
X1000714Y-1587714D01*
X986428Y-1730571D01*
X1000714Y-1716286D01*
X1029286Y-1702000D01*
X1100714Y-1702000D01*
X1129286Y-1716286D01*
X1143571Y-1730571D01*
X1157857Y-1759143D01*
X1157857Y-1830571D01*
X1143571Y-1859143D01*
X1129286Y-1873428D01*
X1100714Y-1887714D01*
X1029286Y-1887714D01*
X1000714Y-1873428D01*
X986428Y-1859143D01*
X1286429Y-1887714D02*
X1286429Y-1687714D01*
X1286429Y-1716286D02*
X1300714Y-1702000D01*
X1329286Y-1687714D01*
X1372143Y-1687714D01*
X1400714Y-1702000D01*
X1415000Y-1730571D01*
X1415000Y-1887714D01*
X1415000Y-1730571D02*
X1429286Y-1702000D01*
X1457857Y-1687714D01*
X1500714Y-1687714D01*
X1529286Y-1702000D01*
X1543571Y-1730571D01*
X1543571Y-1887714D01*
X1686428Y-1887714D02*
X1686428Y-1687714D01*
X1686428Y-1716286D02*
X1700714Y-1702000D01*
X1729286Y-1687714D01*
X1772143Y-1687714D01*
X1800714Y-1702000D01*
X1815000Y-1730571D01*
X1815000Y-1887714D01*
X1815000Y-1730571D02*
X1829286Y-1702000D01*
X1857857Y-1687714D01*
X1900714Y-1687714D01*
X1929286Y-1702000D01*
X1943571Y-1730571D01*
X1943571Y-1887714D01*
X2529286Y-1573428D02*
X2272143Y-1959143D01*
X2915000Y-1587714D02*
X2943571Y-1587714D01*
X2972143Y-1602000D01*
X2986428Y-1616286D01*
X3000714Y-1644857D01*
X3015000Y-1702000D01*
X3015000Y-1773428D01*
X3000714Y-1830571D01*
X2986428Y-1859143D01*
X2972143Y-1873428D01*
X2943571Y-1887714D01*
X2915000Y-1887714D01*
X2886428Y-1873428D01*
X2872143Y-1859143D01*
X2857857Y-1830571D01*
X2843571Y-1773428D01*
X2843571Y-1702000D01*
X2857857Y-1644857D01*
X2872143Y-1616286D01*
X2886428Y-1602000D01*
X2915000Y-1587714D01*
X3143571Y-1859143D02*
X3157857Y-1873428D01*
X3143571Y-1887714D01*
X3129286Y-1873428D01*
X3143571Y-1859143D01*
X3143571Y-1887714D01*
X3343571Y-1587714D02*
X3372143Y-1587714D01*
X3400714Y-1602000D01*
X3415000Y-1616286D01*
X3429286Y-1644857D01*
X3443571Y-1702000D01*
X3443571Y-1773428D01*
X3429286Y-1830571D01*
X3415000Y-1859143D01*
X3400714Y-1873428D01*
X3372143Y-1887714D01*
X3343571Y-1887714D01*
X3315000Y-1873428D01*
X3300714Y-1859143D01*
X3286428Y-1830571D01*
X3272143Y-1773428D01*
X3272143Y-1702000D01*
X3286428Y-1644857D01*
X3300714Y-1616286D01*
X3315000Y-1602000D01*
X3343571Y-1587714D01*
X3543571Y-1587714D02*
X3729286Y-1587714D01*
X3629286Y-1702000D01*
X3672143Y-1702000D01*
X3700714Y-1716286D01*
X3715000Y-1730571D01*
X3729286Y-1759143D01*
X3729286Y-1830571D01*
X3715000Y-1859143D01*
X3700714Y-1873428D01*
X3672143Y-1887714D01*
X3586428Y-1887714D01*
X3557857Y-1873428D01*
X3543571Y-1859143D01*
X3915000Y-1587714D02*
X3943571Y-1587714D01*
X3972143Y-1602000D01*
X3986428Y-1616286D01*
X4000714Y-1644857D01*
X4015000Y-1702000D01*
X4015000Y-1773428D01*
X4000714Y-1830571D01*
X3986428Y-1859143D01*
X3972143Y-1873428D01*
X3943571Y-1887714D01*
X3915000Y-1887714D01*
X3886428Y-1873428D01*
X3872143Y-1859143D01*
X3857857Y-1830571D01*
X3843571Y-1773428D01*
X3843571Y-1702000D01*
X3857857Y-1644857D01*
X3872143Y-1616286D01*
X3886428Y-1602000D01*
X3915000Y-1587714D01*
X4129286Y-1587714D02*
X4129286Y-1644857D01*
X4243571Y-1587714D02*
X4243571Y-1644857D01*
X4686429Y-2002000D02*
X4672143Y-1987714D01*
X4643571Y-1944857D01*
X4629286Y-1916286D01*
X4615000Y-1873428D01*
X4600714Y-1802000D01*
X4600714Y-1744857D01*
X4615000Y-1673428D01*
X4629286Y-1630571D01*
X4643571Y-1602000D01*
X4672143Y-1559143D01*
X4686429Y-1544857D01*
X4815000Y-1887714D02*
X4872143Y-1887714D01*
X4900714Y-1873428D01*
X4915000Y-1859143D01*
X4943571Y-1816286D01*
X4957857Y-1759143D01*
X4957857Y-1644857D01*
X4943571Y-1616286D01*
X4929286Y-1602000D01*
X4900714Y-1587714D01*
X4843571Y-1587714D01*
X4815000Y-1602000D01*
X4800714Y-1616286D01*
X4786429Y-1644857D01*
X4786429Y-1716286D01*
X4800714Y-1744857D01*
X4815000Y-1759143D01*
X4843571Y-1773428D01*
X4900714Y-1773428D01*
X4929286Y-1759143D01*
X4943571Y-1744857D01*
X4957857Y-1716286D01*
X5315000Y-1887714D02*
X5315000Y-1587714D01*
X5443571Y-1887714D02*
X5443571Y-1730571D01*
X5429286Y-1702000D01*
X5400714Y-1687714D01*
X5357857Y-1687714D01*
X5329286Y-1702000D01*
X5315000Y-1716286D01*
X5629286Y-1887714D02*
X5600714Y-1873428D01*
X5586429Y-1859143D01*
X5572143Y-1830571D01*
X5572143Y-1744857D01*
X5586429Y-1716286D01*
X5600714Y-1702000D01*
X5629286Y-1687714D01*
X5672143Y-1687714D01*
X5700714Y-1702000D01*
X5715000Y-1716286D01*
X5729286Y-1744857D01*
X5729286Y-1830571D01*
X5715000Y-1859143D01*
X5700714Y-1873428D01*
X5672143Y-1887714D01*
X5629286Y-1887714D01*
X5900714Y-1887714D02*
X5872143Y-1873428D01*
X5857857Y-1844857D01*
X5857857Y-1587714D01*
X6129286Y-1873428D02*
X6100714Y-1887714D01*
X6043571Y-1887714D01*
X6015000Y-1873428D01*
X6000714Y-1844857D01*
X6000714Y-1730571D01*
X6015000Y-1702000D01*
X6043571Y-1687714D01*
X6100714Y-1687714D01*
X6129286Y-1702000D01*
X6143571Y-1730571D01*
X6143571Y-1759143D01*
X6000714Y-1787714D01*
X6257857Y-1873428D02*
X6286428Y-1887714D01*
X6343571Y-1887714D01*
X6372143Y-1873428D01*
X6386428Y-1844857D01*
X6386428Y-1830571D01*
X6372143Y-1802000D01*
X6343571Y-1787714D01*
X6300714Y-1787714D01*
X6272143Y-1773428D01*
X6257857Y-1744857D01*
X6257857Y-1730571D01*
X6272143Y-1702000D01*
X6300714Y-1687714D01*
X6343571Y-1687714D01*
X6372143Y-1702000D01*
X6486428Y-2002000D02*
X6500714Y-1987714D01*
X6529286Y-1944857D01*
X6543571Y-1916286D01*
X6557857Y-1873428D01*
X6572143Y-1802000D01*
X6572143Y-1744857D01*
X6557857Y-1673428D01*
X6543571Y-1630571D01*
X6529286Y-1602000D01*
X6500714Y-1559143D01*
X6486428Y-1544857D01*
X-11715Y-2176285D02*
X-11715Y-2119716D01*
X-68285Y-2119716D01*
X-68285Y-2176285D01*
X-11715Y-2176285D01*
X343571Y-1983714D02*
X372143Y-1983714D01*
X400714Y-1998000D01*
X415000Y-2012286D01*
X429286Y-2040857D01*
X443571Y-2098000D01*
X443571Y-2169429D01*
X429286Y-2226571D01*
X415000Y-2255143D01*
X400714Y-2269429D01*
X372143Y-2283714D01*
X343571Y-2283714D01*
X315000Y-2269429D01*
X300714Y-2255143D01*
X286429Y-2226571D01*
X272143Y-2169429D01*
X272143Y-2098000D01*
X286429Y-2040857D01*
X300714Y-2012286D01*
X315000Y-1998000D01*
X343571Y-1983714D01*
X572143Y-2255143D02*
X586429Y-2269429D01*
X572143Y-2283714D01*
X557857Y-2269429D01*
X572143Y-2255143D01*
X572143Y-2283714D01*
X757857Y-2112286D02*
X729286Y-2098000D01*
X715000Y-2083714D01*
X700714Y-2055143D01*
X700714Y-2040857D01*
X715000Y-2012286D01*
X729286Y-1998000D01*
X757857Y-1983714D01*
X815000Y-1983714D01*
X843571Y-1998000D01*
X857857Y-2012286D01*
X872143Y-2040857D01*
X872143Y-2055143D01*
X857857Y-2083714D01*
X843571Y-2098000D01*
X815000Y-2112286D01*
X757857Y-2112286D01*
X729286Y-2126571D01*
X715000Y-2140857D01*
X700714Y-2169429D01*
X700714Y-2226571D01*
X715000Y-2255143D01*
X729286Y-2269429D01*
X757857Y-2283714D01*
X815000Y-2283714D01*
X843571Y-2269429D01*
X857857Y-2255143D01*
X872143Y-2226571D01*
X872143Y-2169429D01*
X857857Y-2140857D01*
X843571Y-2126571D01*
X815000Y-2112286D01*
X1057857Y-1983714D02*
X1086429Y-1983714D01*
X1115000Y-1998000D01*
X1129286Y-2012286D01*
X1143571Y-2040857D01*
X1157857Y-2098000D01*
X1157857Y-2169429D01*
X1143571Y-2226571D01*
X1129286Y-2255143D01*
X1115000Y-2269429D01*
X1086429Y-2283714D01*
X1057857Y-2283714D01*
X1029286Y-2269429D01*
X1015000Y-2255143D01*
X1000714Y-2226571D01*
X986428Y-2169429D01*
X986428Y-2098000D01*
X1000714Y-2040857D01*
X1015000Y-2012286D01*
X1029286Y-1998000D01*
X1057857Y-1983714D01*
X1286429Y-2283714D02*
X1286429Y-2083714D01*
X1286429Y-2112286D02*
X1300714Y-2098000D01*
X1329286Y-2083714D01*
X1372143Y-2083714D01*
X1400714Y-2098000D01*
X1415000Y-2126571D01*
X1415000Y-2283714D01*
X1415000Y-2126571D02*
X1429286Y-2098000D01*
X1457857Y-2083714D01*
X1500714Y-2083714D01*
X1529286Y-2098000D01*
X1543571Y-2126571D01*
X1543571Y-2283714D01*
X1686428Y-2283714D02*
X1686428Y-2083714D01*
X1686428Y-2112286D02*
X1700714Y-2098000D01*
X1729286Y-2083714D01*
X1772143Y-2083714D01*
X1800714Y-2098000D01*
X1815000Y-2126571D01*
X1815000Y-2283714D01*
X1815000Y-2126571D02*
X1829286Y-2098000D01*
X1857857Y-2083714D01*
X1900714Y-2083714D01*
X1929286Y-2098000D01*
X1943571Y-2126571D01*
X1943571Y-2283714D01*
X2529286Y-1969428D02*
X2272143Y-2355143D01*
X2915000Y-1983714D02*
X2943571Y-1983714D01*
X2972143Y-1998000D01*
X2986428Y-2012286D01*
X3000714Y-2040857D01*
X3015000Y-2098000D01*
X3015000Y-2169429D01*
X3000714Y-2226571D01*
X2986428Y-2255143D01*
X2972143Y-2269429D01*
X2943571Y-2283714D01*
X2915000Y-2283714D01*
X2886428Y-2269429D01*
X2872143Y-2255143D01*
X2857857Y-2226571D01*
X2843571Y-2169429D01*
X2843571Y-2098000D01*
X2857857Y-2040857D01*
X2872143Y-2012286D01*
X2886428Y-1998000D01*
X2915000Y-1983714D01*
X3143571Y-2255143D02*
X3157857Y-2269429D01*
X3143571Y-2283714D01*
X3129286Y-2269429D01*
X3143571Y-2255143D01*
X3143571Y-2283714D01*
X3343571Y-1983714D02*
X3372143Y-1983714D01*
X3400714Y-1998000D01*
X3415000Y-2012286D01*
X3429286Y-2040857D01*
X3443571Y-2098000D01*
X3443571Y-2169429D01*
X3429286Y-2226571D01*
X3415000Y-2255143D01*
X3400714Y-2269429D01*
X3372143Y-2283714D01*
X3343571Y-2283714D01*
X3315000Y-2269429D01*
X3300714Y-2255143D01*
X3286428Y-2226571D01*
X3272143Y-2169429D01*
X3272143Y-2098000D01*
X3286428Y-2040857D01*
X3300714Y-2012286D01*
X3315000Y-1998000D01*
X3343571Y-1983714D01*
X3543571Y-1983714D02*
X3729286Y-1983714D01*
X3629286Y-2098000D01*
X3672143Y-2098000D01*
X3700714Y-2112286D01*
X3715000Y-2126571D01*
X3729286Y-2155143D01*
X3729286Y-2226571D01*
X3715000Y-2255143D01*
X3700714Y-2269429D01*
X3672143Y-2283714D01*
X3586428Y-2283714D01*
X3557857Y-2269429D01*
X3543571Y-2255143D01*
X4015000Y-2283714D02*
X3843571Y-2283714D01*
X3929286Y-2283714D02*
X3929286Y-1983714D01*
X3900714Y-2026571D01*
X3872143Y-2055143D01*
X3843571Y-2069428D01*
X4129286Y-1983714D02*
X4129286Y-2040857D01*
X4243571Y-1983714D02*
X4243571Y-2040857D01*
X4686429Y-2398000D02*
X4672143Y-2383714D01*
X4643571Y-2340857D01*
X4629286Y-2312286D01*
X4615000Y-2269429D01*
X4600714Y-2198000D01*
X4600714Y-2140857D01*
X4615000Y-2069428D01*
X4629286Y-2026571D01*
X4643571Y-1998000D01*
X4672143Y-1955143D01*
X4686429Y-1940857D01*
X4957857Y-2283714D02*
X4786429Y-2283714D01*
X4872143Y-2283714D02*
X4872143Y-1983714D01*
X4843571Y-2026571D01*
X4815000Y-2055143D01*
X4786429Y-2069428D01*
X5215000Y-1983714D02*
X5157857Y-1983714D01*
X5129286Y-1998000D01*
X5115000Y-2012286D01*
X5086429Y-2055143D01*
X5072143Y-2112286D01*
X5072143Y-2226571D01*
X5086429Y-2255143D01*
X5100714Y-2269429D01*
X5129286Y-2283714D01*
X5186429Y-2283714D01*
X5215000Y-2269429D01*
X5229286Y-2255143D01*
X5243571Y-2226571D01*
X5243571Y-2155143D01*
X5229286Y-2126571D01*
X5215000Y-2112286D01*
X5186429Y-2098000D01*
X5129286Y-2098000D01*
X5100714Y-2112286D01*
X5086429Y-2126571D01*
X5072143Y-2155143D01*
X5600714Y-2283714D02*
X5600714Y-1983714D01*
X5729286Y-2283714D02*
X5729286Y-2126571D01*
X5715000Y-2098000D01*
X5686428Y-2083714D01*
X5643571Y-2083714D01*
X5615000Y-2098000D01*
X5600714Y-2112286D01*
X5915000Y-2283714D02*
X5886428Y-2269429D01*
X5872143Y-2255143D01*
X5857857Y-2226571D01*
X5857857Y-2140857D01*
X5872143Y-2112286D01*
X5886428Y-2098000D01*
X5915000Y-2083714D01*
X5957857Y-2083714D01*
X5986428Y-2098000D01*
X6000714Y-2112286D01*
X6015000Y-2140857D01*
X6015000Y-2226571D01*
X6000714Y-2255143D01*
X5986428Y-2269429D01*
X5957857Y-2283714D01*
X5915000Y-2283714D01*
X6186428Y-2283714D02*
X6157857Y-2269429D01*
X6143571Y-2240857D01*
X6143571Y-1983714D01*
X6415000Y-2269429D02*
X6386428Y-2283714D01*
X6329286Y-2283714D01*
X6300714Y-2269429D01*
X6286428Y-2240857D01*
X6286428Y-2126571D01*
X6300714Y-2098000D01*
X6329286Y-2083714D01*
X6386428Y-2083714D01*
X6415000Y-2098000D01*
X6429286Y-2126571D01*
X6429286Y-2155143D01*
X6286428Y-2183714D01*
X6543571Y-2269429D02*
X6572143Y-2283714D01*
X6629286Y-2283714D01*
X6657857Y-2269429D01*
X6672143Y-2240857D01*
X6672143Y-2226571D01*
X6657857Y-2198000D01*
X6629286Y-2183714D01*
X6586428Y-2183714D01*
X6557857Y-2169429D01*
X6543571Y-2140857D01*
X6543571Y-2126571D01*
X6557857Y-2098000D01*
X6586428Y-2083714D01*
X6629286Y-2083714D01*
X6657857Y-2098000D01*
X6772143Y-2398000D02*
X6786428Y-2383714D01*
X6815000Y-2340857D01*
X6829286Y-2312286D01*
X6843571Y-2269429D01*
X6857857Y-2198000D01*
X6857857Y-2140857D01*
X6843571Y-2069428D01*
X6829286Y-2026571D01*
X6815000Y-1998000D01*
X6786428Y-1955143D01*
X6772143Y-1940857D01*
X-45000Y-2589000D02*
X0Y-2544000D01*
X-45000Y-2499000D01*
X-90000Y-2544000D01*
X-45000Y-2589000D01*
X343571Y-2379714D02*
X372143Y-2379714D01*
X400714Y-2394000D01*
X415000Y-2408286D01*
X429286Y-2436857D01*
X443571Y-2494000D01*
X443571Y-2565429D01*
X429286Y-2622571D01*
X415000Y-2651143D01*
X400714Y-2665429D01*
X372143Y-2679714D01*
X343571Y-2679714D01*
X315000Y-2665429D01*
X300714Y-2651143D01*
X286429Y-2622571D01*
X272143Y-2565429D01*
X272143Y-2494000D01*
X286429Y-2436857D01*
X300714Y-2408286D01*
X315000Y-2394000D01*
X343571Y-2379714D01*
X572143Y-2651143D02*
X586429Y-2665429D01*
X572143Y-2679714D01*
X557857Y-2665429D01*
X572143Y-2651143D01*
X572143Y-2679714D01*
X729286Y-2679714D02*
X786428Y-2679714D01*
X815000Y-2665429D01*
X829286Y-2651143D01*
X857857Y-2608286D01*
X872143Y-2551143D01*
X872143Y-2436857D01*
X857857Y-2408286D01*
X843571Y-2394000D01*
X815000Y-2379714D01*
X757857Y-2379714D01*
X729286Y-2394000D01*
X715000Y-2408286D01*
X700714Y-2436857D01*
X700714Y-2508286D01*
X715000Y-2536857D01*
X729286Y-2551143D01*
X757857Y-2565429D01*
X815000Y-2565429D01*
X843571Y-2551143D01*
X857857Y-2536857D01*
X872143Y-2508286D01*
X1057857Y-2379714D02*
X1086429Y-2379714D01*
X1115000Y-2394000D01*
X1129286Y-2408286D01*
X1143571Y-2436857D01*
X1157857Y-2494000D01*
X1157857Y-2565429D01*
X1143571Y-2622571D01*
X1129286Y-2651143D01*
X1115000Y-2665429D01*
X1086429Y-2679714D01*
X1057857Y-2679714D01*
X1029286Y-2665429D01*
X1015000Y-2651143D01*
X1000714Y-2622571D01*
X986428Y-2565429D01*
X986428Y-2494000D01*
X1000714Y-2436857D01*
X1015000Y-2408286D01*
X1029286Y-2394000D01*
X1057857Y-2379714D01*
X1286429Y-2679714D02*
X1286429Y-2479714D01*
X1286429Y-2508286D02*
X1300714Y-2494000D01*
X1329286Y-2479714D01*
X1372143Y-2479714D01*
X1400714Y-2494000D01*
X1415000Y-2522571D01*
X1415000Y-2679714D01*
X1415000Y-2522571D02*
X1429286Y-2494000D01*
X1457857Y-2479714D01*
X1500714Y-2479714D01*
X1529286Y-2494000D01*
X1543571Y-2522571D01*
X1543571Y-2679714D01*
X1686428Y-2679714D02*
X1686428Y-2479714D01*
X1686428Y-2508286D02*
X1700714Y-2494000D01*
X1729286Y-2479714D01*
X1772143Y-2479714D01*
X1800714Y-2494000D01*
X1815000Y-2522571D01*
X1815000Y-2679714D01*
X1815000Y-2522571D02*
X1829286Y-2494000D01*
X1857857Y-2479714D01*
X1900714Y-2479714D01*
X1929286Y-2494000D01*
X1943571Y-2522571D01*
X1943571Y-2679714D01*
X2529286Y-2365429D02*
X2272143Y-2751143D01*
X2915000Y-2379714D02*
X2943571Y-2379714D01*
X2972143Y-2394000D01*
X2986428Y-2408286D01*
X3000714Y-2436857D01*
X3015000Y-2494000D01*
X3015000Y-2565429D01*
X3000714Y-2622571D01*
X2986428Y-2651143D01*
X2972143Y-2665429D01*
X2943571Y-2679714D01*
X2915000Y-2679714D01*
X2886428Y-2665429D01*
X2872143Y-2651143D01*
X2857857Y-2622571D01*
X2843571Y-2565429D01*
X2843571Y-2494000D01*
X2857857Y-2436857D01*
X2872143Y-2408286D01*
X2886428Y-2394000D01*
X2915000Y-2379714D01*
X3143571Y-2651143D02*
X3157857Y-2665429D01*
X3143571Y-2679714D01*
X3129286Y-2665429D01*
X3143571Y-2651143D01*
X3143571Y-2679714D01*
X3343571Y-2379714D02*
X3372143Y-2379714D01*
X3400714Y-2394000D01*
X3415000Y-2408286D01*
X3429286Y-2436857D01*
X3443571Y-2494000D01*
X3443571Y-2565429D01*
X3429286Y-2622571D01*
X3415000Y-2651143D01*
X3400714Y-2665429D01*
X3372143Y-2679714D01*
X3343571Y-2679714D01*
X3315000Y-2665429D01*
X3300714Y-2651143D01*
X3286428Y-2622571D01*
X3272143Y-2565429D01*
X3272143Y-2494000D01*
X3286428Y-2436857D01*
X3300714Y-2408286D01*
X3315000Y-2394000D01*
X3343571Y-2379714D01*
X3543571Y-2379714D02*
X3729286Y-2379714D01*
X3629286Y-2494000D01*
X3672143Y-2494000D01*
X3700714Y-2508286D01*
X3715000Y-2522571D01*
X3729286Y-2551143D01*
X3729286Y-2622571D01*
X3715000Y-2651143D01*
X3700714Y-2665429D01*
X3672143Y-2679714D01*
X3586428Y-2679714D01*
X3557857Y-2665429D01*
X3543571Y-2651143D01*
X4000714Y-2379714D02*
X3857857Y-2379714D01*
X3843571Y-2522571D01*
X3857857Y-2508286D01*
X3886428Y-2494000D01*
X3957857Y-2494000D01*
X3986428Y-2508286D01*
X4000714Y-2522571D01*
X4015000Y-2551143D01*
X4015000Y-2622571D01*
X4000714Y-2651143D01*
X3986428Y-2665429D01*
X3957857Y-2679714D01*
X3886428Y-2679714D01*
X3857857Y-2665429D01*
X3843571Y-2651143D01*
X4129286Y-2379714D02*
X4129286Y-2436857D01*
X4243571Y-2379714D02*
X4243571Y-2436857D01*
X4686429Y-2794000D02*
X4672143Y-2779714D01*
X4643571Y-2736857D01*
X4629286Y-2708286D01*
X4615000Y-2665429D01*
X4600714Y-2594000D01*
X4600714Y-2536857D01*
X4615000Y-2465429D01*
X4629286Y-2422571D01*
X4643571Y-2394000D01*
X4672143Y-2351143D01*
X4686429Y-2336857D01*
X4929286Y-2479714D02*
X4929286Y-2679714D01*
X4857857Y-2365429D02*
X4786429Y-2579714D01*
X4972143Y-2579714D01*
X5315000Y-2679714D02*
X5315000Y-2379714D01*
X5443571Y-2679714D02*
X5443571Y-2522571D01*
X5429286Y-2494000D01*
X5400714Y-2479714D01*
X5357857Y-2479714D01*
X5329286Y-2494000D01*
X5315000Y-2508286D01*
X5629286Y-2679714D02*
X5600714Y-2665429D01*
X5586429Y-2651143D01*
X5572143Y-2622571D01*
X5572143Y-2536857D01*
X5586429Y-2508286D01*
X5600714Y-2494000D01*
X5629286Y-2479714D01*
X5672143Y-2479714D01*
X5700714Y-2494000D01*
X5715000Y-2508286D01*
X5729286Y-2536857D01*
X5729286Y-2622571D01*
X5715000Y-2651143D01*
X5700714Y-2665429D01*
X5672143Y-2679714D01*
X5629286Y-2679714D01*
X5900714Y-2679714D02*
X5872143Y-2665429D01*
X5857857Y-2636857D01*
X5857857Y-2379714D01*
X6129286Y-2665429D02*
X6100714Y-2679714D01*
X6043571Y-2679714D01*
X6015000Y-2665429D01*
X6000714Y-2636857D01*
X6000714Y-2522571D01*
X6015000Y-2494000D01*
X6043571Y-2479714D01*
X6100714Y-2479714D01*
X6129286Y-2494000D01*
X6143571Y-2522571D01*
X6143571Y-2551143D01*
X6000714Y-2579714D01*
X6257857Y-2665429D02*
X6286428Y-2679714D01*
X6343571Y-2679714D01*
X6372143Y-2665429D01*
X6386428Y-2636857D01*
X6386428Y-2622571D01*
X6372143Y-2594000D01*
X6343571Y-2579714D01*
X6300714Y-2579714D01*
X6272143Y-2565429D01*
X6257857Y-2536857D01*
X6257857Y-2522571D01*
X6272143Y-2494000D01*
X6300714Y-2479714D01*
X6343571Y-2479714D01*
X6372143Y-2494000D01*
X6486428Y-2794000D02*
X6500714Y-2779714D01*
X6529286Y-2736857D01*
X6543571Y-2708286D01*
X6557857Y-2665429D01*
X6572143Y-2594000D01*
X6572143Y-2536857D01*
X6557857Y-2465429D01*
X6543571Y-2422571D01*
X6529286Y-2394000D01*
X6500714Y-2351143D01*
X6486428Y-2336857D01*
X-100000Y-2890000D02*
X0Y-2990000D01*
X0Y-2890000D02*
X-100000Y-2990000D01*
X0Y-2940000D02*
G75*
G03X0Y-2940000I-50000J0D01*
G01*
X443571Y-3075714D02*
X272143Y-3075714D01*
X357857Y-3075714D02*
X357857Y-2775714D01*
X329286Y-2818571D01*
X300714Y-2847143D01*
X272143Y-2861428D01*
X572143Y-3047143D02*
X586429Y-3061428D01*
X572143Y-3075714D01*
X557857Y-3061428D01*
X572143Y-3047143D01*
X572143Y-3075714D01*
X772143Y-2775714D02*
X800714Y-2775714D01*
X829286Y-2790000D01*
X843571Y-2804286D01*
X857857Y-2832857D01*
X872143Y-2890000D01*
X872143Y-2961428D01*
X857857Y-3018571D01*
X843571Y-3047143D01*
X829286Y-3061428D01*
X800714Y-3075714D01*
X772143Y-3075714D01*
X743571Y-3061428D01*
X729286Y-3047143D01*
X715000Y-3018571D01*
X700714Y-2961428D01*
X700714Y-2890000D01*
X715000Y-2832857D01*
X729286Y-2804286D01*
X743571Y-2790000D01*
X772143Y-2775714D01*
X1057857Y-2775714D02*
X1086429Y-2775714D01*
X1115000Y-2790000D01*
X1129286Y-2804286D01*
X1143571Y-2832857D01*
X1157857Y-2890000D01*
X1157857Y-2961428D01*
X1143571Y-3018571D01*
X1129286Y-3047143D01*
X1115000Y-3061428D01*
X1086429Y-3075714D01*
X1057857Y-3075714D01*
X1029286Y-3061428D01*
X1015000Y-3047143D01*
X1000714Y-3018571D01*
X986428Y-2961428D01*
X986428Y-2890000D01*
X1000714Y-2832857D01*
X1015000Y-2804286D01*
X1029286Y-2790000D01*
X1057857Y-2775714D01*
X1286429Y-3075714D02*
X1286429Y-2875714D01*
X1286429Y-2904286D02*
X1300714Y-2890000D01*
X1329286Y-2875714D01*
X1372143Y-2875714D01*
X1400714Y-2890000D01*
X1415000Y-2918571D01*
X1415000Y-3075714D01*
X1415000Y-2918571D02*
X1429286Y-2890000D01*
X1457857Y-2875714D01*
X1500714Y-2875714D01*
X1529286Y-2890000D01*
X1543571Y-2918571D01*
X1543571Y-3075714D01*
X1686428Y-3075714D02*
X1686428Y-2875714D01*
X1686428Y-2904286D02*
X1700714Y-2890000D01*
X1729286Y-2875714D01*
X1772143Y-2875714D01*
X1800714Y-2890000D01*
X1815000Y-2918571D01*
X1815000Y-3075714D01*
X1815000Y-2918571D02*
X1829286Y-2890000D01*
X1857857Y-2875714D01*
X1900714Y-2875714D01*
X1929286Y-2890000D01*
X1943571Y-2918571D01*
X1943571Y-3075714D01*
X2529286Y-2761429D02*
X2272143Y-3147143D01*
X2915000Y-2775714D02*
X2943571Y-2775714D01*
X2972143Y-2790000D01*
X2986428Y-2804286D01*
X3000714Y-2832857D01*
X3015000Y-2890000D01*
X3015000Y-2961428D01*
X3000714Y-3018571D01*
X2986428Y-3047143D01*
X2972143Y-3061428D01*
X2943571Y-3075714D01*
X2915000Y-3075714D01*
X2886428Y-3061428D01*
X2872143Y-3047143D01*
X2857857Y-3018571D01*
X2843571Y-2961428D01*
X2843571Y-2890000D01*
X2857857Y-2832857D01*
X2872143Y-2804286D01*
X2886428Y-2790000D01*
X2915000Y-2775714D01*
X3143571Y-3047143D02*
X3157857Y-3061428D01*
X3143571Y-3075714D01*
X3129286Y-3061428D01*
X3143571Y-3047143D01*
X3143571Y-3075714D01*
X3343571Y-2775714D02*
X3372143Y-2775714D01*
X3400714Y-2790000D01*
X3415000Y-2804286D01*
X3429286Y-2832857D01*
X3443571Y-2890000D01*
X3443571Y-2961428D01*
X3429286Y-3018571D01*
X3415000Y-3047143D01*
X3400714Y-3061428D01*
X3372143Y-3075714D01*
X3343571Y-3075714D01*
X3315000Y-3061428D01*
X3300714Y-3047143D01*
X3286428Y-3018571D01*
X3272143Y-2961428D01*
X3272143Y-2890000D01*
X3286428Y-2832857D01*
X3300714Y-2804286D01*
X3315000Y-2790000D01*
X3343571Y-2775714D01*
X3543571Y-2775714D02*
X3729286Y-2775714D01*
X3629286Y-2890000D01*
X3672143Y-2890000D01*
X3700714Y-2904286D01*
X3715000Y-2918571D01*
X3729286Y-2947143D01*
X3729286Y-3018571D01*
X3715000Y-3047143D01*
X3700714Y-3061428D01*
X3672143Y-3075714D01*
X3586428Y-3075714D01*
X3557857Y-3061428D01*
X3543571Y-3047143D01*
X3872143Y-3075714D02*
X3929286Y-3075714D01*
X3957857Y-3061428D01*
X3972143Y-3047143D01*
X4000714Y-3004286D01*
X4015000Y-2947143D01*
X4015000Y-2832857D01*
X4000714Y-2804286D01*
X3986428Y-2790000D01*
X3957857Y-2775714D01*
X3900714Y-2775714D01*
X3872143Y-2790000D01*
X3857857Y-2804286D01*
X3843571Y-2832857D01*
X3843571Y-2904286D01*
X3857857Y-2932857D01*
X3872143Y-2947143D01*
X3900714Y-2961428D01*
X3957857Y-2961428D01*
X3986428Y-2947143D01*
X4000714Y-2932857D01*
X4015000Y-2904286D01*
X4129286Y-2775714D02*
X4129286Y-2832857D01*
X4243571Y-2775714D02*
X4243571Y-2832857D01*
X4686429Y-3190000D02*
X4672143Y-3175714D01*
X4643571Y-3132857D01*
X4629286Y-3104286D01*
X4615000Y-3061428D01*
X4600714Y-2990000D01*
X4600714Y-2932857D01*
X4615000Y-2861428D01*
X4629286Y-2818571D01*
X4643571Y-2790000D01*
X4672143Y-2747143D01*
X4686429Y-2732857D01*
X4957857Y-3075714D02*
X4786429Y-3075714D01*
X4872143Y-3075714D02*
X4872143Y-2775714D01*
X4843571Y-2818571D01*
X4815000Y-2847143D01*
X4786429Y-2861428D01*
X5072143Y-2804286D02*
X5086429Y-2790000D01*
X5115000Y-2775714D01*
X5186429Y-2775714D01*
X5215000Y-2790000D01*
X5229286Y-2804286D01*
X5243571Y-2832857D01*
X5243571Y-2861428D01*
X5229286Y-2904286D01*
X5057857Y-3075714D01*
X5243571Y-3075714D01*
X5600714Y-3075714D02*
X5600714Y-2775714D01*
X5729286Y-3075714D02*
X5729286Y-2918571D01*
X5715000Y-2890000D01*
X5686428Y-2875714D01*
X5643571Y-2875714D01*
X5615000Y-2890000D01*
X5600714Y-2904286D01*
X5915000Y-3075714D02*
X5886428Y-3061428D01*
X5872143Y-3047143D01*
X5857857Y-3018571D01*
X5857857Y-2932857D01*
X5872143Y-2904286D01*
X5886428Y-2890000D01*
X5915000Y-2875714D01*
X5957857Y-2875714D01*
X5986428Y-2890000D01*
X6000714Y-2904286D01*
X6015000Y-2932857D01*
X6015000Y-3018571D01*
X6000714Y-3047143D01*
X5986428Y-3061428D01*
X5957857Y-3075714D01*
X5915000Y-3075714D01*
X6186428Y-3075714D02*
X6157857Y-3061428D01*
X6143571Y-3032857D01*
X6143571Y-2775714D01*
X6415000Y-3061428D02*
X6386428Y-3075714D01*
X6329286Y-3075714D01*
X6300714Y-3061428D01*
X6286428Y-3032857D01*
X6286428Y-2918571D01*
X6300714Y-2890000D01*
X6329286Y-2875714D01*
X6386428Y-2875714D01*
X6415000Y-2890000D01*
X6429286Y-2918571D01*
X6429286Y-2947143D01*
X6286428Y-2975714D01*
X6543571Y-3061428D02*
X6572143Y-3075714D01*
X6629286Y-3075714D01*
X6657857Y-3061428D01*
X6672143Y-3032857D01*
X6672143Y-3018571D01*
X6657857Y-2990000D01*
X6629286Y-2975714D01*
X6586428Y-2975714D01*
X6557857Y-2961428D01*
X6543571Y-2932857D01*
X6543571Y-2918571D01*
X6557857Y-2890000D01*
X6586428Y-2875714D01*
X6629286Y-2875714D01*
X6657857Y-2890000D01*
X6772143Y-3190000D02*
X6786428Y-3175714D01*
X6815000Y-3132857D01*
X6829286Y-3104286D01*
X6843571Y-3061428D01*
X6857857Y-2990000D01*
X6857857Y-2932857D01*
X6843571Y-2861428D01*
X6829286Y-2818571D01*
X6815000Y-2790000D01*
X6786428Y-2747143D01*
X6772143Y-2732857D01*
X-110000Y-3281000D02*
X0Y-3391000D01*
X0Y-3281000D02*
X-110000Y-3391000D01*
X-55000Y-3281000D02*
X-55000Y-3391000D01*
X-110000Y-3336000D02*
X0Y-3336000D01*
X443571Y-3471714D02*
X272143Y-3471714D01*
X357857Y-3471714D02*
X357857Y-3171714D01*
X329286Y-3214571D01*
X300714Y-3243143D01*
X272143Y-3257428D01*
X572143Y-3443143D02*
X586429Y-3457428D01*
X572143Y-3471714D01*
X557857Y-3457428D01*
X572143Y-3443143D01*
X572143Y-3471714D01*
X872143Y-3471714D02*
X700714Y-3471714D01*
X786428Y-3471714D02*
X786428Y-3171714D01*
X757857Y-3214571D01*
X729286Y-3243143D01*
X700714Y-3257428D01*
X1057857Y-3171714D02*
X1086429Y-3171714D01*
X1115000Y-3186000D01*
X1129286Y-3200286D01*
X1143571Y-3228857D01*
X1157857Y-3286000D01*
X1157857Y-3357428D01*
X1143571Y-3414571D01*
X1129286Y-3443143D01*
X1115000Y-3457428D01*
X1086429Y-3471714D01*
X1057857Y-3471714D01*
X1029286Y-3457428D01*
X1015000Y-3443143D01*
X1000714Y-3414571D01*
X986428Y-3357428D01*
X986428Y-3286000D01*
X1000714Y-3228857D01*
X1015000Y-3200286D01*
X1029286Y-3186000D01*
X1057857Y-3171714D01*
X1286429Y-3471714D02*
X1286429Y-3271714D01*
X1286429Y-3300286D02*
X1300714Y-3286000D01*
X1329286Y-3271714D01*
X1372143Y-3271714D01*
X1400714Y-3286000D01*
X1415000Y-3314571D01*
X1415000Y-3471714D01*
X1415000Y-3314571D02*
X1429286Y-3286000D01*
X1457857Y-3271714D01*
X1500714Y-3271714D01*
X1529286Y-3286000D01*
X1543571Y-3314571D01*
X1543571Y-3471714D01*
X1686428Y-3471714D02*
X1686428Y-3271714D01*
X1686428Y-3300286D02*
X1700714Y-3286000D01*
X1729286Y-3271714D01*
X1772143Y-3271714D01*
X1800714Y-3286000D01*
X1815000Y-3314571D01*
X1815000Y-3471714D01*
X1815000Y-3314571D02*
X1829286Y-3286000D01*
X1857857Y-3271714D01*
X1900714Y-3271714D01*
X1929286Y-3286000D01*
X1943571Y-3314571D01*
X1943571Y-3471714D01*
X2529286Y-3157428D02*
X2272143Y-3543143D01*
X2915000Y-3171714D02*
X2943571Y-3171714D01*
X2972143Y-3186000D01*
X2986428Y-3200286D01*
X3000714Y-3228857D01*
X3015000Y-3286000D01*
X3015000Y-3357428D01*
X3000714Y-3414571D01*
X2986428Y-3443143D01*
X2972143Y-3457428D01*
X2943571Y-3471714D01*
X2915000Y-3471714D01*
X2886428Y-3457428D01*
X2872143Y-3443143D01*
X2857857Y-3414571D01*
X2843571Y-3357428D01*
X2843571Y-3286000D01*
X2857857Y-3228857D01*
X2872143Y-3200286D01*
X2886428Y-3186000D01*
X2915000Y-3171714D01*
X3143571Y-3443143D02*
X3157857Y-3457428D01*
X3143571Y-3471714D01*
X3129286Y-3457428D01*
X3143571Y-3443143D01*
X3143571Y-3471714D01*
X3343571Y-3171714D02*
X3372143Y-3171714D01*
X3400714Y-3186000D01*
X3415000Y-3200286D01*
X3429286Y-3228857D01*
X3443571Y-3286000D01*
X3443571Y-3357428D01*
X3429286Y-3414571D01*
X3415000Y-3443143D01*
X3400714Y-3457428D01*
X3372143Y-3471714D01*
X3343571Y-3471714D01*
X3315000Y-3457428D01*
X3300714Y-3443143D01*
X3286428Y-3414571D01*
X3272143Y-3357428D01*
X3272143Y-3286000D01*
X3286428Y-3228857D01*
X3300714Y-3200286D01*
X3315000Y-3186000D01*
X3343571Y-3171714D01*
X3700714Y-3271714D02*
X3700714Y-3471714D01*
X3629286Y-3157428D02*
X3557857Y-3371714D01*
X3743571Y-3371714D01*
X3829286Y-3171714D02*
X4015000Y-3171714D01*
X3915000Y-3286000D01*
X3957857Y-3286000D01*
X3986428Y-3300286D01*
X4000714Y-3314571D01*
X4015000Y-3343143D01*
X4015000Y-3414571D01*
X4000714Y-3443143D01*
X3986428Y-3457428D01*
X3957857Y-3471714D01*
X3872143Y-3471714D01*
X3843571Y-3457428D01*
X3829286Y-3443143D01*
X4129286Y-3171714D02*
X4129286Y-3228857D01*
X4243571Y-3171714D02*
X4243571Y-3228857D01*
X4686429Y-3586000D02*
X4672143Y-3571714D01*
X4643571Y-3528857D01*
X4629286Y-3500286D01*
X4615000Y-3457428D01*
X4600714Y-3386000D01*
X4600714Y-3328857D01*
X4615000Y-3257428D01*
X4629286Y-3214571D01*
X4643571Y-3186000D01*
X4672143Y-3143143D01*
X4686429Y-3128857D01*
X4929286Y-3271714D02*
X4929286Y-3471714D01*
X4857857Y-3157428D02*
X4786429Y-3371714D01*
X4972143Y-3371714D01*
X5315000Y-3471714D02*
X5315000Y-3171714D01*
X5443571Y-3471714D02*
X5443571Y-3314571D01*
X5429286Y-3286000D01*
X5400714Y-3271714D01*
X5357857Y-3271714D01*
X5329286Y-3286000D01*
X5315000Y-3300286D01*
X5629286Y-3471714D02*
X5600714Y-3457428D01*
X5586429Y-3443143D01*
X5572143Y-3414571D01*
X5572143Y-3328857D01*
X5586429Y-3300286D01*
X5600714Y-3286000D01*
X5629286Y-3271714D01*
X5672143Y-3271714D01*
X5700714Y-3286000D01*
X5715000Y-3300286D01*
X5729286Y-3328857D01*
X5729286Y-3414571D01*
X5715000Y-3443143D01*
X5700714Y-3457428D01*
X5672143Y-3471714D01*
X5629286Y-3471714D01*
X5900714Y-3471714D02*
X5872143Y-3457428D01*
X5857857Y-3428857D01*
X5857857Y-3171714D01*
X6129286Y-3457428D02*
X6100714Y-3471714D01*
X6043571Y-3471714D01*
X6015000Y-3457428D01*
X6000714Y-3428857D01*
X6000714Y-3314571D01*
X6015000Y-3286000D01*
X6043571Y-3271714D01*
X6100714Y-3271714D01*
X6129286Y-3286000D01*
X6143571Y-3314571D01*
X6143571Y-3343143D01*
X6000714Y-3371714D01*
X6257857Y-3457428D02*
X6286428Y-3471714D01*
X6343571Y-3471714D01*
X6372143Y-3457428D01*
X6386428Y-3428857D01*
X6386428Y-3414571D01*
X6372143Y-3386000D01*
X6343571Y-3371714D01*
X6300714Y-3371714D01*
X6272143Y-3357428D01*
X6257857Y-3328857D01*
X6257857Y-3314571D01*
X6272143Y-3286000D01*
X6300714Y-3271714D01*
X6343571Y-3271714D01*
X6372143Y-3286000D01*
X6486428Y-3586000D02*
X6500714Y-3571714D01*
X6529286Y-3528857D01*
X6543571Y-3500286D01*
X6557857Y-3457428D01*
X6572143Y-3386000D01*
X6572143Y-3328857D01*
X6557857Y-3257428D01*
X6543571Y-3214571D01*
X6529286Y-3186000D01*
X6500714Y-3143143D01*
X6486428Y-3128857D01*
X-119888Y-3672056D02*
X0Y-3791944D01*
X0Y-3672056D02*
X-119888Y-3791944D01*
X-17557Y-3774387D02*
X-17557Y-3689613D01*
X-102331Y-3689613D01*
X-102331Y-3774387D01*
X-17557Y-3774387D01*
X443571Y-3867714D02*
X272143Y-3867714D01*
X357857Y-3867714D02*
X357857Y-3567714D01*
X329286Y-3610571D01*
X300714Y-3639143D01*
X272143Y-3653428D01*
X572143Y-3839143D02*
X586429Y-3853428D01*
X572143Y-3867714D01*
X557857Y-3853428D01*
X572143Y-3839143D01*
X572143Y-3867714D01*
X700714Y-3596286D02*
X715000Y-3582000D01*
X743571Y-3567714D01*
X815000Y-3567714D01*
X843571Y-3582000D01*
X857857Y-3596286D01*
X872143Y-3624857D01*
X872143Y-3653428D01*
X857857Y-3696286D01*
X686429Y-3867714D01*
X872143Y-3867714D01*
X1057857Y-3567714D02*
X1086429Y-3567714D01*
X1115000Y-3582000D01*
X1129286Y-3596286D01*
X1143571Y-3624857D01*
X1157857Y-3682000D01*
X1157857Y-3753428D01*
X1143571Y-3810571D01*
X1129286Y-3839143D01*
X1115000Y-3853428D01*
X1086429Y-3867714D01*
X1057857Y-3867714D01*
X1029286Y-3853428D01*
X1015000Y-3839143D01*
X1000714Y-3810571D01*
X986428Y-3753428D01*
X986428Y-3682000D01*
X1000714Y-3624857D01*
X1015000Y-3596286D01*
X1029286Y-3582000D01*
X1057857Y-3567714D01*
X1286429Y-3867714D02*
X1286429Y-3667714D01*
X1286429Y-3696286D02*
X1300714Y-3682000D01*
X1329286Y-3667714D01*
X1372143Y-3667714D01*
X1400714Y-3682000D01*
X1415000Y-3710571D01*
X1415000Y-3867714D01*
X1415000Y-3710571D02*
X1429286Y-3682000D01*
X1457857Y-3667714D01*
X1500714Y-3667714D01*
X1529286Y-3682000D01*
X1543571Y-3710571D01*
X1543571Y-3867714D01*
X1686428Y-3867714D02*
X1686428Y-3667714D01*
X1686428Y-3696286D02*
X1700714Y-3682000D01*
X1729286Y-3667714D01*
X1772143Y-3667714D01*
X1800714Y-3682000D01*
X1815000Y-3710571D01*
X1815000Y-3867714D01*
X1815000Y-3710571D02*
X1829286Y-3682000D01*
X1857857Y-3667714D01*
X1900714Y-3667714D01*
X1929286Y-3682000D01*
X1943571Y-3710571D01*
X1943571Y-3867714D01*
X2529286Y-3553428D02*
X2272143Y-3939143D01*
X2915000Y-3567714D02*
X2943571Y-3567714D01*
X2972143Y-3582000D01*
X2986428Y-3596286D01*
X3000714Y-3624857D01*
X3015000Y-3682000D01*
X3015000Y-3753428D01*
X3000714Y-3810571D01*
X2986428Y-3839143D01*
X2972143Y-3853428D01*
X2943571Y-3867714D01*
X2915000Y-3867714D01*
X2886428Y-3853428D01*
X2872143Y-3839143D01*
X2857857Y-3810571D01*
X2843571Y-3753428D01*
X2843571Y-3682000D01*
X2857857Y-3624857D01*
X2872143Y-3596286D01*
X2886428Y-3582000D01*
X2915000Y-3567714D01*
X3143571Y-3839143D02*
X3157857Y-3853428D01*
X3143571Y-3867714D01*
X3129286Y-3853428D01*
X3143571Y-3839143D01*
X3143571Y-3867714D01*
X3343571Y-3567714D02*
X3372143Y-3567714D01*
X3400714Y-3582000D01*
X3415000Y-3596286D01*
X3429286Y-3624857D01*
X3443571Y-3682000D01*
X3443571Y-3753428D01*
X3429286Y-3810571D01*
X3415000Y-3839143D01*
X3400714Y-3853428D01*
X3372143Y-3867714D01*
X3343571Y-3867714D01*
X3315000Y-3853428D01*
X3300714Y-3839143D01*
X3286428Y-3810571D01*
X3272143Y-3753428D01*
X3272143Y-3682000D01*
X3286428Y-3624857D01*
X3300714Y-3596286D01*
X3315000Y-3582000D01*
X3343571Y-3567714D01*
X3700714Y-3667714D02*
X3700714Y-3867714D01*
X3629286Y-3553428D02*
X3557857Y-3767714D01*
X3743571Y-3767714D01*
X3829286Y-3567714D02*
X4029286Y-3567714D01*
X3900714Y-3867714D01*
X4129286Y-3567714D02*
X4129286Y-3624857D01*
X4243571Y-3567714D02*
X4243571Y-3624857D01*
X4686429Y-3982000D02*
X4672143Y-3967714D01*
X4643571Y-3924857D01*
X4629286Y-3896286D01*
X4615000Y-3853428D01*
X4600714Y-3782000D01*
X4600714Y-3724857D01*
X4615000Y-3653428D01*
X4629286Y-3610571D01*
X4643571Y-3582000D01*
X4672143Y-3539143D01*
X4686429Y-3524857D01*
X4843571Y-3696286D02*
X4815000Y-3682000D01*
X4800714Y-3667714D01*
X4786429Y-3639143D01*
X4786429Y-3624857D01*
X4800714Y-3596286D01*
X4815000Y-3582000D01*
X4843571Y-3567714D01*
X4900714Y-3567714D01*
X4929286Y-3582000D01*
X4943571Y-3596286D01*
X4957857Y-3624857D01*
X4957857Y-3639143D01*
X4943571Y-3667714D01*
X4929286Y-3682000D01*
X4900714Y-3696286D01*
X4843571Y-3696286D01*
X4815000Y-3710571D01*
X4800714Y-3724857D01*
X4786429Y-3753428D01*
X4786429Y-3810571D01*
X4800714Y-3839143D01*
X4815000Y-3853428D01*
X4843571Y-3867714D01*
X4900714Y-3867714D01*
X4929286Y-3853428D01*
X4943571Y-3839143D01*
X4957857Y-3810571D01*
X4957857Y-3753428D01*
X4943571Y-3724857D01*
X4929286Y-3710571D01*
X4900714Y-3696286D01*
X5315000Y-3867714D02*
X5315000Y-3567714D01*
X5443571Y-3867714D02*
X5443571Y-3710571D01*
X5429286Y-3682000D01*
X5400714Y-3667714D01*
X5357857Y-3667714D01*
X5329286Y-3682000D01*
X5315000Y-3696286D01*
X5629286Y-3867714D02*
X5600714Y-3853428D01*
X5586429Y-3839143D01*
X5572143Y-3810571D01*
X5572143Y-3724857D01*
X5586429Y-3696286D01*
X5600714Y-3682000D01*
X5629286Y-3667714D01*
X5672143Y-3667714D01*
X5700714Y-3682000D01*
X5715000Y-3696286D01*
X5729286Y-3724857D01*
X5729286Y-3810571D01*
X5715000Y-3839143D01*
X5700714Y-3853428D01*
X5672143Y-3867714D01*
X5629286Y-3867714D01*
X5900714Y-3867714D02*
X5872143Y-3853428D01*
X5857857Y-3824857D01*
X5857857Y-3567714D01*
X6129286Y-3853428D02*
X6100714Y-3867714D01*
X6043571Y-3867714D01*
X6015000Y-3853428D01*
X6000714Y-3824857D01*
X6000714Y-3710571D01*
X6015000Y-3682000D01*
X6043571Y-3667714D01*
X6100714Y-3667714D01*
X6129286Y-3682000D01*
X6143571Y-3710571D01*
X6143571Y-3739143D01*
X6000714Y-3767714D01*
X6257857Y-3853428D02*
X6286428Y-3867714D01*
X6343571Y-3867714D01*
X6372143Y-3853428D01*
X6386428Y-3824857D01*
X6386428Y-3810571D01*
X6372143Y-3782000D01*
X6343571Y-3767714D01*
X6300714Y-3767714D01*
X6272143Y-3753428D01*
X6257857Y-3724857D01*
X6257857Y-3710571D01*
X6272143Y-3682000D01*
X6300714Y-3667714D01*
X6343571Y-3667714D01*
X6372143Y-3682000D01*
X6486428Y-3982000D02*
X6500714Y-3967714D01*
X6529286Y-3924857D01*
X6543571Y-3896286D01*
X6557857Y-3853428D01*
X6572143Y-3782000D01*
X6572143Y-3724857D01*
X6557857Y-3653428D01*
X6543571Y-3610571D01*
X6529286Y-3582000D01*
X6500714Y-3539143D01*
X6486428Y-3524857D01*
X-130000Y-4063000D02*
X0Y-4193000D01*
X0Y-4063000D02*
X-130000Y-4193000D01*
X-65000Y-4193000D02*
X0Y-4128000D01*
X-65000Y-4063000D01*
X-130000Y-4128000D01*
X-65000Y-4193000D01*
X443571Y-4263714D02*
X272143Y-4263714D01*
X357857Y-4263714D02*
X357857Y-3963714D01*
X329286Y-4006571D01*
X300714Y-4035143D01*
X272143Y-4049428D01*
X572143Y-4235143D02*
X586429Y-4249429D01*
X572143Y-4263714D01*
X557857Y-4249429D01*
X572143Y-4235143D01*
X572143Y-4263714D01*
X686429Y-3963714D02*
X872143Y-3963714D01*
X772143Y-4078000D01*
X815000Y-4078000D01*
X843571Y-4092286D01*
X857857Y-4106571D01*
X872143Y-4135143D01*
X872143Y-4206571D01*
X857857Y-4235143D01*
X843571Y-4249429D01*
X815000Y-4263714D01*
X729286Y-4263714D01*
X700714Y-4249429D01*
X686429Y-4235143D01*
X1057857Y-3963714D02*
X1086429Y-3963714D01*
X1115000Y-3978000D01*
X1129286Y-3992286D01*
X1143571Y-4020857D01*
X1157857Y-4078000D01*
X1157857Y-4149428D01*
X1143571Y-4206571D01*
X1129286Y-4235143D01*
X1115000Y-4249429D01*
X1086429Y-4263714D01*
X1057857Y-4263714D01*
X1029286Y-4249429D01*
X1015000Y-4235143D01*
X1000714Y-4206571D01*
X986428Y-4149428D01*
X986428Y-4078000D01*
X1000714Y-4020857D01*
X1015000Y-3992286D01*
X1029286Y-3978000D01*
X1057857Y-3963714D01*
X1286429Y-4263714D02*
X1286429Y-4063714D01*
X1286429Y-4092286D02*
X1300714Y-4078000D01*
X1329286Y-4063714D01*
X1372143Y-4063714D01*
X1400714Y-4078000D01*
X1415000Y-4106571D01*
X1415000Y-4263714D01*
X1415000Y-4106571D02*
X1429286Y-4078000D01*
X1457857Y-4063714D01*
X1500714Y-4063714D01*
X1529286Y-4078000D01*
X1543571Y-4106571D01*
X1543571Y-4263714D01*
X1686428Y-4263714D02*
X1686428Y-4063714D01*
X1686428Y-4092286D02*
X1700714Y-4078000D01*
X1729286Y-4063714D01*
X1772143Y-4063714D01*
X1800714Y-4078000D01*
X1815000Y-4106571D01*
X1815000Y-4263714D01*
X1815000Y-4106571D02*
X1829286Y-4078000D01*
X1857857Y-4063714D01*
X1900714Y-4063714D01*
X1929286Y-4078000D01*
X1943571Y-4106571D01*
X1943571Y-4263714D01*
X2529286Y-3949428D02*
X2272143Y-4335143D01*
X2915000Y-3963714D02*
X2943571Y-3963714D01*
X2972143Y-3978000D01*
X2986428Y-3992286D01*
X3000714Y-4020857D01*
X3015000Y-4078000D01*
X3015000Y-4149428D01*
X3000714Y-4206571D01*
X2986428Y-4235143D01*
X2972143Y-4249429D01*
X2943571Y-4263714D01*
X2915000Y-4263714D01*
X2886428Y-4249429D01*
X2872143Y-4235143D01*
X2857857Y-4206571D01*
X2843571Y-4149428D01*
X2843571Y-4078000D01*
X2857857Y-4020857D01*
X2872143Y-3992286D01*
X2886428Y-3978000D01*
X2915000Y-3963714D01*
X3143571Y-4235143D02*
X3157857Y-4249429D01*
X3143571Y-4263714D01*
X3129286Y-4249429D01*
X3143571Y-4235143D01*
X3143571Y-4263714D01*
X3343571Y-3963714D02*
X3372143Y-3963714D01*
X3400714Y-3978000D01*
X3415000Y-3992286D01*
X3429286Y-4020857D01*
X3443571Y-4078000D01*
X3443571Y-4149428D01*
X3429286Y-4206571D01*
X3415000Y-4235143D01*
X3400714Y-4249429D01*
X3372143Y-4263714D01*
X3343571Y-4263714D01*
X3315000Y-4249429D01*
X3300714Y-4235143D01*
X3286428Y-4206571D01*
X3272143Y-4149428D01*
X3272143Y-4078000D01*
X3286428Y-4020857D01*
X3300714Y-3992286D01*
X3315000Y-3978000D01*
X3343571Y-3963714D01*
X3715000Y-3963714D02*
X3572143Y-3963714D01*
X3557857Y-4106571D01*
X3572143Y-4092286D01*
X3600714Y-4078000D01*
X3672143Y-4078000D01*
X3700714Y-4092286D01*
X3715000Y-4106571D01*
X3729286Y-4135143D01*
X3729286Y-4206571D01*
X3715000Y-4235143D01*
X3700714Y-4249429D01*
X3672143Y-4263714D01*
X3600714Y-4263714D01*
X3572143Y-4249429D01*
X3557857Y-4235143D01*
X4015000Y-4263714D02*
X3843571Y-4263714D01*
X3929286Y-4263714D02*
X3929286Y-3963714D01*
X3900714Y-4006571D01*
X3872143Y-4035143D01*
X3843571Y-4049428D01*
X4129286Y-3963714D02*
X4129286Y-4020857D01*
X4243571Y-3963714D02*
X4243571Y-4020857D01*
X4686429Y-4378000D02*
X4672143Y-4363714D01*
X4643571Y-4320857D01*
X4629286Y-4292286D01*
X4615000Y-4249429D01*
X4600714Y-4178000D01*
X4600714Y-4120857D01*
X4615000Y-4049428D01*
X4629286Y-4006571D01*
X4643571Y-3978000D01*
X4672143Y-3935143D01*
X4686429Y-3920857D01*
X4772143Y-3963714D02*
X4972143Y-3963714D01*
X4843571Y-4263714D01*
X5315000Y-4263714D02*
X5315000Y-3963714D01*
X5443571Y-4263714D02*
X5443571Y-4106571D01*
X5429286Y-4078000D01*
X5400714Y-4063714D01*
X5357857Y-4063714D01*
X5329286Y-4078000D01*
X5315000Y-4092286D01*
X5629286Y-4263714D02*
X5600714Y-4249429D01*
X5586429Y-4235143D01*
X5572143Y-4206571D01*
X5572143Y-4120857D01*
X5586429Y-4092286D01*
X5600714Y-4078000D01*
X5629286Y-4063714D01*
X5672143Y-4063714D01*
X5700714Y-4078000D01*
X5715000Y-4092286D01*
X5729286Y-4120857D01*
X5729286Y-4206571D01*
X5715000Y-4235143D01*
X5700714Y-4249429D01*
X5672143Y-4263714D01*
X5629286Y-4263714D01*
X5900714Y-4263714D02*
X5872143Y-4249429D01*
X5857857Y-4220857D01*
X5857857Y-3963714D01*
X6129286Y-4249429D02*
X6100714Y-4263714D01*
X6043571Y-4263714D01*
X6015000Y-4249429D01*
X6000714Y-4220857D01*
X6000714Y-4106571D01*
X6015000Y-4078000D01*
X6043571Y-4063714D01*
X6100714Y-4063714D01*
X6129286Y-4078000D01*
X6143571Y-4106571D01*
X6143571Y-4135143D01*
X6000714Y-4163714D01*
X6257857Y-4249429D02*
X6286428Y-4263714D01*
X6343571Y-4263714D01*
X6372143Y-4249429D01*
X6386428Y-4220857D01*
X6386428Y-4206571D01*
X6372143Y-4178000D01*
X6343571Y-4163714D01*
X6300714Y-4163714D01*
X6272143Y-4149428D01*
X6257857Y-4120857D01*
X6257857Y-4106571D01*
X6272143Y-4078000D01*
X6300714Y-4063714D01*
X6343571Y-4063714D01*
X6372143Y-4078000D01*
X6486428Y-4378000D02*
X6500714Y-4363714D01*
X6529286Y-4320857D01*
X6543571Y-4292286D01*
X6557857Y-4249429D01*
X6572143Y-4178000D01*
X6572143Y-4120857D01*
X6557857Y-4049428D01*
X6543571Y-4006571D01*
X6529286Y-3978000D01*
X6500714Y-3935143D01*
X6486428Y-3920857D01*
X-76000Y-4448000D02*
X-76000Y-4600000D01*
X-152000Y-4524000D02*
X0Y-4524000D01*
X0Y-4524000D02*
G75*
G03X0Y-4524000I-76000J0D01*
G01*
X443571Y-4659714D02*
X272143Y-4659714D01*
X357857Y-4659714D02*
X357857Y-4359714D01*
X329286Y-4402571D01*
X300714Y-4431143D01*
X272143Y-4445429D01*
X572143Y-4631143D02*
X586429Y-4645429D01*
X572143Y-4659714D01*
X557857Y-4645429D01*
X572143Y-4631143D01*
X572143Y-4659714D01*
X857857Y-4359714D02*
X715000Y-4359714D01*
X700714Y-4502571D01*
X715000Y-4488286D01*
X743571Y-4474000D01*
X815000Y-4474000D01*
X843571Y-4488286D01*
X857857Y-4502571D01*
X872143Y-4531143D01*
X872143Y-4602571D01*
X857857Y-4631143D01*
X843571Y-4645429D01*
X815000Y-4659714D01*
X743571Y-4659714D01*
X715000Y-4645429D01*
X700714Y-4631143D01*
X986428Y-4388286D02*
X1000714Y-4374000D01*
X1029286Y-4359714D01*
X1100714Y-4359714D01*
X1129286Y-4374000D01*
X1143571Y-4388286D01*
X1157857Y-4416857D01*
X1157857Y-4445429D01*
X1143571Y-4488286D01*
X972143Y-4659714D01*
X1157857Y-4659714D01*
X1286429Y-4659714D02*
X1286429Y-4459714D01*
X1286429Y-4488286D02*
X1300714Y-4474000D01*
X1329286Y-4459714D01*
X1372143Y-4459714D01*
X1400714Y-4474000D01*
X1415000Y-4502571D01*
X1415000Y-4659714D01*
X1415000Y-4502571D02*
X1429286Y-4474000D01*
X1457857Y-4459714D01*
X1500714Y-4459714D01*
X1529286Y-4474000D01*
X1543571Y-4502571D01*
X1543571Y-4659714D01*
X1686428Y-4659714D02*
X1686428Y-4459714D01*
X1686428Y-4488286D02*
X1700714Y-4474000D01*
X1729286Y-4459714D01*
X1772143Y-4459714D01*
X1800714Y-4474000D01*
X1815000Y-4502571D01*
X1815000Y-4659714D01*
X1815000Y-4502571D02*
X1829286Y-4474000D01*
X1857857Y-4459714D01*
X1900714Y-4459714D01*
X1929286Y-4474000D01*
X1943571Y-4502571D01*
X1943571Y-4659714D01*
X2529286Y-4345429D02*
X2272143Y-4731143D01*
X2915000Y-4359714D02*
X2943571Y-4359714D01*
X2972143Y-4374000D01*
X2986428Y-4388286D01*
X3000714Y-4416857D01*
X3015000Y-4474000D01*
X3015000Y-4545429D01*
X3000714Y-4602571D01*
X2986428Y-4631143D01*
X2972143Y-4645429D01*
X2943571Y-4659714D01*
X2915000Y-4659714D01*
X2886428Y-4645429D01*
X2872143Y-4631143D01*
X2857857Y-4602571D01*
X2843571Y-4545429D01*
X2843571Y-4474000D01*
X2857857Y-4416857D01*
X2872143Y-4388286D01*
X2886428Y-4374000D01*
X2915000Y-4359714D01*
X3143571Y-4631143D02*
X3157857Y-4645429D01*
X3143571Y-4659714D01*
X3129286Y-4645429D01*
X3143571Y-4631143D01*
X3143571Y-4659714D01*
X3343571Y-4359714D02*
X3372143Y-4359714D01*
X3400714Y-4374000D01*
X3415000Y-4388286D01*
X3429286Y-4416857D01*
X3443571Y-4474000D01*
X3443571Y-4545429D01*
X3429286Y-4602571D01*
X3415000Y-4631143D01*
X3400714Y-4645429D01*
X3372143Y-4659714D01*
X3343571Y-4659714D01*
X3315000Y-4645429D01*
X3300714Y-4631143D01*
X3286428Y-4602571D01*
X3272143Y-4545429D01*
X3272143Y-4474000D01*
X3286428Y-4416857D01*
X3300714Y-4388286D01*
X3315000Y-4374000D01*
X3343571Y-4359714D01*
X3700714Y-4359714D02*
X3643571Y-4359714D01*
X3615000Y-4374000D01*
X3600714Y-4388286D01*
X3572143Y-4431143D01*
X3557857Y-4488286D01*
X3557857Y-4602571D01*
X3572143Y-4631143D01*
X3586428Y-4645429D01*
X3615000Y-4659714D01*
X3672143Y-4659714D01*
X3700714Y-4645429D01*
X3715000Y-4631143D01*
X3729286Y-4602571D01*
X3729286Y-4531143D01*
X3715000Y-4502571D01*
X3700714Y-4488286D01*
X3672143Y-4474000D01*
X3615000Y-4474000D01*
X3586428Y-4488286D01*
X3572143Y-4502571D01*
X3557857Y-4531143D01*
X3915000Y-4359714D02*
X3943571Y-4359714D01*
X3972143Y-4374000D01*
X3986428Y-4388286D01*
X4000714Y-4416857D01*
X4015000Y-4474000D01*
X4015000Y-4545429D01*
X4000714Y-4602571D01*
X3986428Y-4631143D01*
X3972143Y-4645429D01*
X3943571Y-4659714D01*
X3915000Y-4659714D01*
X3886428Y-4645429D01*
X3872143Y-4631143D01*
X3857857Y-4602571D01*
X3843571Y-4545429D01*
X3843571Y-4474000D01*
X3857857Y-4416857D01*
X3872143Y-4388286D01*
X3886428Y-4374000D01*
X3915000Y-4359714D01*
X4129286Y-4359714D02*
X4129286Y-4416857D01*
X4243571Y-4359714D02*
X4243571Y-4416857D01*
X4686429Y-4774000D02*
X4672143Y-4759714D01*
X4643571Y-4716857D01*
X4629286Y-4688286D01*
X4615000Y-4645429D01*
X4600714Y-4574000D01*
X4600714Y-4516857D01*
X4615000Y-4445429D01*
X4629286Y-4402571D01*
X4643571Y-4374000D01*
X4672143Y-4331143D01*
X4686429Y-4316857D01*
X4786429Y-4388286D02*
X4800714Y-4374000D01*
X4829286Y-4359714D01*
X4900714Y-4359714D01*
X4929286Y-4374000D01*
X4943571Y-4388286D01*
X4957857Y-4416857D01*
X4957857Y-4445429D01*
X4943571Y-4488286D01*
X4772143Y-4659714D01*
X4957857Y-4659714D01*
X5315000Y-4659714D02*
X5315000Y-4359714D01*
X5443571Y-4659714D02*
X5443571Y-4502571D01*
X5429286Y-4474000D01*
X5400714Y-4459714D01*
X5357857Y-4459714D01*
X5329286Y-4474000D01*
X5315000Y-4488286D01*
X5629286Y-4659714D02*
X5600714Y-4645429D01*
X5586429Y-4631143D01*
X5572143Y-4602571D01*
X5572143Y-4516857D01*
X5586429Y-4488286D01*
X5600714Y-4474000D01*
X5629286Y-4459714D01*
X5672143Y-4459714D01*
X5700714Y-4474000D01*
X5715000Y-4488286D01*
X5729286Y-4516857D01*
X5729286Y-4602571D01*
X5715000Y-4631143D01*
X5700714Y-4645429D01*
X5672143Y-4659714D01*
X5629286Y-4659714D01*
X5900714Y-4659714D02*
X5872143Y-4645429D01*
X5857857Y-4616857D01*
X5857857Y-4359714D01*
X6129286Y-4645429D02*
X6100714Y-4659714D01*
X6043571Y-4659714D01*
X6015000Y-4645429D01*
X6000714Y-4616857D01*
X6000714Y-4502571D01*
X6015000Y-4474000D01*
X6043571Y-4459714D01*
X6100714Y-4459714D01*
X6129286Y-4474000D01*
X6143571Y-4502571D01*
X6143571Y-4531143D01*
X6000714Y-4559714D01*
X6257857Y-4645429D02*
X6286428Y-4659714D01*
X6343571Y-4659714D01*
X6372143Y-4645429D01*
X6386428Y-4616857D01*
X6386428Y-4602571D01*
X6372143Y-4574000D01*
X6343571Y-4559714D01*
X6300714Y-4559714D01*
X6272143Y-4545429D01*
X6257857Y-4516857D01*
X6257857Y-4502571D01*
X6272143Y-4474000D01*
X6300714Y-4459714D01*
X6343571Y-4459714D01*
X6372143Y-4474000D01*
X6486428Y-4774000D02*
X6500714Y-4759714D01*
X6529286Y-4716857D01*
X6543571Y-4688286D01*
X6557857Y-4645429D01*
X6572143Y-4574000D01*
X6572143Y-4516857D01*
X6557857Y-4445429D01*
X6543571Y-4402571D01*
X6529286Y-4374000D01*
X6500714Y-4331143D01*
X6486428Y-4316857D01*
M02*
