G04 #@! TF.GenerationSoftware,KiCad,Pcbnew,5.1.5+dfsg1-2build2*
G04 #@! TF.CreationDate,2022-06-14T14:00:15+02:00*
G04 #@! TF.ProjectId,4x18650 z zabezpieczeniem,34783138-3635-4302-907a-207a6162657a,rev?*
G04 #@! TF.SameCoordinates,Original*
G04 #@! TF.FileFunction,Copper,L1,Top*
G04 #@! TF.FilePolarity,Positive*
%FSLAX46Y46*%
G04 Gerber Fmt 4.6, Leading zero omitted, Abs format (unit mm)*
G04 Created by KiCad (PCBNEW 5.1.5+dfsg1-2build2) date 2022-06-14 14:00:15*
%MOMM*%
%LPD*%
G04 APERTURE LIST*
%ADD10C,0.300000*%
%ADD11C,4.000000*%
%ADD12C,2.500000*%
%ADD13C,3.000000*%
%ADD14R,3.000000X3.000000*%
%ADD15C,6.000000*%
%ADD16O,1.700000X1.700000*%
%ADD17R,1.700000X1.700000*%
%ADD18R,1.905000X2.000000*%
%ADD19O,1.905000X2.000000*%
%ADD20O,1.050000X1.500000*%
%ADD21R,1.050000X1.500000*%
%ADD22C,0.600000*%
%ADD23C,0.250000*%
%ADD24C,2.000000*%
%ADD25C,0.500000*%
%ADD26C,3.500000*%
%ADD27C,0.254000*%
G04 APERTURE END LIST*
D10*
X167738095Y-161583333D02*
X165833333Y-161583333D01*
X165833333Y-158083333D01*
X169071428Y-161583333D02*
X169071428Y-159250000D01*
X169071428Y-158083333D02*
X168880952Y-158250000D01*
X169071428Y-158416666D01*
X169261904Y-158250000D01*
X169071428Y-158083333D01*
X169071428Y-158416666D01*
X170976190Y-160250000D02*
X174023809Y-160250000D01*
X175928571Y-161583333D02*
X175928571Y-158083333D01*
X178404761Y-161583333D02*
X178023809Y-161416666D01*
X177833333Y-161250000D01*
X177642857Y-160916666D01*
X177642857Y-159916666D01*
X177833333Y-159583333D01*
X178023809Y-159416666D01*
X178404761Y-159250000D01*
X178976190Y-159250000D01*
X179357142Y-159416666D01*
X179547619Y-159583333D01*
X179738095Y-159916666D01*
X179738095Y-160916666D01*
X179547619Y-161250000D01*
X179357142Y-161416666D01*
X178976190Y-161583333D01*
X178404761Y-161583333D01*
X181452380Y-159250000D02*
X181452380Y-161583333D01*
X181452380Y-159583333D02*
X181642857Y-159416666D01*
X182023809Y-159250000D01*
X182595238Y-159250000D01*
X182976190Y-159416666D01*
X183166666Y-159750000D01*
X183166666Y-161583333D01*
X200357142Y-161583333D02*
X198452380Y-161583333D01*
X198452380Y-158083333D01*
X201690476Y-161583333D02*
X201690476Y-159250000D01*
X201690476Y-158083333D02*
X201500000Y-158250000D01*
X201690476Y-158416666D01*
X201880952Y-158250000D01*
X201690476Y-158083333D01*
X201690476Y-158416666D01*
X204928571Y-159750000D02*
X203595238Y-159750000D01*
X203595238Y-161583333D02*
X203595238Y-158083333D01*
X205500000Y-158083333D01*
X208547619Y-161416666D02*
X208166666Y-161583333D01*
X207404761Y-161583333D01*
X207023809Y-161416666D01*
X206833333Y-161083333D01*
X206833333Y-159750000D01*
X207023809Y-159416666D01*
X207404761Y-159250000D01*
X208166666Y-159250000D01*
X208547619Y-159416666D01*
X208738095Y-159750000D01*
X208738095Y-160083333D01*
X206833333Y-160416666D01*
X210452380Y-161583333D02*
X210452380Y-158083333D01*
X211976190Y-158083333D01*
X212357142Y-158250000D01*
X212547619Y-158416666D01*
X212738095Y-158750000D01*
X212738095Y-159250000D01*
X212547619Y-159583333D01*
X212357142Y-159750000D01*
X211976190Y-159916666D01*
X210452380Y-159916666D01*
X215214285Y-158083333D02*
X215976190Y-158083333D01*
X216357142Y-158250000D01*
X216738095Y-158583333D01*
X216928571Y-159250000D01*
X216928571Y-160416666D01*
X216738095Y-161083333D01*
X216357142Y-161416666D01*
X215976190Y-161583333D01*
X215214285Y-161583333D01*
X214833333Y-161416666D01*
X214452380Y-161083333D01*
X214261904Y-160416666D01*
X214261904Y-159250000D01*
X214452380Y-158583333D01*
X214833333Y-158250000D01*
X215214285Y-158083333D01*
X220357142Y-159250000D02*
X220357142Y-161583333D01*
X219404761Y-157916666D02*
X218452380Y-160416666D01*
X220928571Y-160416666D01*
D11*
X157000000Y-101500000D03*
X230000000Y-101500000D03*
X157000000Y-80000000D03*
X230000000Y-80000000D03*
X157000000Y-123000000D03*
X230000000Y-123000000D03*
D12*
X165188000Y-64770000D03*
X181188000Y-64770000D03*
X160188000Y-64770000D03*
X176188000Y-64770000D03*
D13*
X207010000Y-63500000D03*
D14*
X201930000Y-63500000D03*
D15*
X228600000Y-63500000D03*
X152400000Y-160020000D03*
X228600000Y-160020000D03*
X152400000Y-63500000D03*
D16*
X214630000Y-67310000D03*
D17*
X212090000Y-67310000D03*
X218440000Y-67310000D03*
D16*
X220980000Y-67310000D03*
D18*
X187960000Y-63500000D03*
D19*
X190500000Y-63500000D03*
X193040000Y-63500000D03*
D20*
X151262000Y-72754000D03*
X152532000Y-72754000D03*
D21*
X149992000Y-72754000D03*
D20*
X151130000Y-94234000D03*
X152400000Y-94234000D03*
D21*
X149860000Y-94234000D03*
D20*
X151130000Y-115570000D03*
X152400000Y-115570000D03*
D21*
X149860000Y-115570000D03*
X149860000Y-137160000D03*
D20*
X152400000Y-137160000D03*
X151130000Y-137160000D03*
D21*
X149992000Y-87994000D03*
D20*
X152532000Y-87994000D03*
X151262000Y-87994000D03*
X151130000Y-109474000D03*
X152400000Y-109474000D03*
D21*
X149860000Y-109474000D03*
X149860000Y-130810000D03*
D20*
X152400000Y-130810000D03*
X151130000Y-130810000D03*
D21*
X149860000Y-152400000D03*
D20*
X152400000Y-152400000D03*
X151130000Y-152400000D03*
D22*
X165000000Y-81000000D03*
X165000000Y-83000000D03*
X165000000Y-82000000D03*
X188000000Y-76000000D03*
X189801500Y-79121000D03*
X192468500Y-79121000D03*
X192468500Y-83121500D03*
X189801500Y-83121500D03*
X192438000Y-81120000D03*
X189832000Y-81120000D03*
X188000000Y-86614000D03*
X165000000Y-102000000D03*
X165000000Y-104000000D03*
X165000000Y-103000000D03*
X188000000Y-107696000D03*
X188000000Y-98000000D03*
X192468500Y-100457000D03*
X189801500Y-100457000D03*
X189801500Y-104394000D03*
X192468500Y-104394000D03*
X192454000Y-102440000D03*
X189850500Y-102440000D03*
X165000000Y-123000000D03*
X165000000Y-125000000D03*
X165000000Y-124000000D03*
X188000000Y-119000000D03*
X188000000Y-129000000D03*
X189801500Y-121793000D03*
X192468500Y-121793000D03*
X192468500Y-125730000D03*
X189801500Y-125730000D03*
X189803000Y-123760000D03*
X192465771Y-123700729D03*
X165000000Y-145000000D03*
X165000000Y-147000000D03*
X165000000Y-146000000D03*
X188000000Y-140000000D03*
X188000000Y-150000000D03*
X148000000Y-62000000D03*
X148000000Y-72000000D03*
X148000000Y-82000000D03*
X148000000Y-92000000D03*
X148000000Y-102000000D03*
X148000000Y-112000000D03*
X148000000Y-122000000D03*
X148000000Y-132000000D03*
X148000000Y-142000000D03*
X148000000Y-152000000D03*
X148000000Y-162000000D03*
X233000000Y-62000000D03*
X233000000Y-72000000D03*
X233000000Y-82000000D03*
X233000000Y-92000000D03*
X233000000Y-102000000D03*
X233000000Y-112000000D03*
X233000000Y-122000000D03*
X233000000Y-132000000D03*
X233000000Y-142000000D03*
X233000000Y-152000000D03*
X233000000Y-162000000D03*
X190182500Y-145097500D03*
X192849500Y-145097500D03*
X190182500Y-147002500D03*
X192849500Y-147002500D03*
X192849500Y-143129000D03*
X190182500Y-143129000D03*
X175280000Y-75786000D03*
X184678000Y-85438000D03*
X184678000Y-106504000D03*
X184678000Y-128078000D03*
X185170000Y-149144000D03*
D23*
X164000000Y-157000000D02*
X159000000Y-157000000D01*
X159000000Y-157000000D02*
X158000000Y-157000000D01*
X158000000Y-157000000D02*
X158000000Y-163000000D01*
X158000000Y-163000000D02*
X164000000Y-163000000D01*
X164000000Y-163000000D02*
X164000000Y-157000000D01*
X197000000Y-157000000D02*
X191000000Y-157000000D01*
X191000000Y-157000000D02*
X191000000Y-163000000D01*
X191000000Y-163000000D02*
X197000000Y-163000000D01*
X197000000Y-163000000D02*
X197000000Y-157000000D01*
D24*
X160188000Y-64770000D02*
X165188000Y-64770000D01*
X157000000Y-72616000D02*
X157000000Y-80000000D01*
X160180000Y-69436000D02*
X157000000Y-72616000D01*
X160180000Y-64770000D02*
X160180000Y-69436000D01*
D25*
X151262000Y-74004000D02*
X151262000Y-87994000D01*
X151262000Y-72754000D02*
X151262000Y-74004000D01*
D26*
X157000000Y-99794000D02*
X157000000Y-101500000D01*
X166116000Y-90678000D02*
X157000000Y-99794000D01*
X225298000Y-90678000D02*
X166116000Y-90678000D01*
X230000000Y-85976000D02*
X225298000Y-90678000D01*
X230000000Y-80000000D02*
X230000000Y-85976000D01*
D25*
X151130000Y-94234000D02*
X151130000Y-109474000D01*
D26*
X157000000Y-123000000D02*
X157500000Y-123000000D01*
X157000000Y-121000000D02*
X157000000Y-123000000D01*
X165986000Y-112014000D02*
X157000000Y-121000000D01*
X225044000Y-112014000D02*
X165986000Y-112014000D01*
X230000000Y-107058000D02*
X225044000Y-112014000D01*
X230000000Y-101500000D02*
X230000000Y-107058000D01*
D25*
X151130000Y-115570000D02*
X151130000Y-130810000D01*
D26*
X157000000Y-142000000D02*
X157000000Y-144500000D01*
X165396000Y-133604000D02*
X157000000Y-142000000D01*
X225806000Y-133604000D02*
X165396000Y-133604000D01*
X230000000Y-129410000D02*
X225806000Y-133604000D01*
X230000000Y-123500000D02*
X230000000Y-129410000D01*
D25*
X151130000Y-137160000D02*
X151130000Y-152400000D01*
D24*
X181188000Y-62398000D02*
X181188000Y-64770000D01*
X191770000Y-60706000D02*
X182880000Y-60706000D01*
X193040000Y-61976000D02*
X191770000Y-60706000D01*
X182880000Y-60706000D02*
X181188000Y-62398000D01*
X193040000Y-63500000D02*
X193040000Y-61976000D01*
X205740000Y-67310000D02*
X212090000Y-67310000D01*
X190500000Y-64770000D02*
X193040000Y-67310000D01*
X190500000Y-63500000D02*
X190500000Y-64770000D01*
X201676000Y-67254000D02*
X201676000Y-67310000D01*
X201930000Y-67000000D02*
X201676000Y-67254000D01*
X201930000Y-63500000D02*
X201930000Y-67000000D01*
X201676000Y-67310000D02*
X205740000Y-67310000D01*
X193040000Y-67310000D02*
X201676000Y-67310000D01*
D25*
X175592999Y-75486001D02*
X176022000Y-75057000D01*
X175579999Y-75486001D02*
X175592999Y-75486001D01*
X175280000Y-75786000D02*
X175579999Y-75486001D01*
X176022000Y-75057000D02*
X184023000Y-75057000D01*
X187960000Y-63500000D02*
X187960000Y-71120000D01*
X187960000Y-65000000D02*
X187960000Y-71374000D01*
X187960000Y-63500000D02*
X187960000Y-65000000D01*
X187960000Y-71374000D02*
X187960000Y-71120000D01*
X184467500Y-75057000D02*
X184023000Y-75057000D01*
X187960000Y-71564500D02*
X184467500Y-75057000D01*
X187960000Y-71374000D02*
X187960000Y-71564500D01*
X152532000Y-72754000D02*
X152532000Y-80142000D01*
X152532000Y-80142000D02*
X157828000Y-85438000D01*
X173388000Y-85438000D02*
X184678000Y-85438000D01*
X157828000Y-85438000D02*
X173388000Y-85438000D01*
D23*
X156796000Y-106504000D02*
X152400000Y-102108000D01*
D25*
X156796000Y-106504000D02*
X156781500Y-106489500D01*
X184678000Y-106504000D02*
X156796000Y-106504000D01*
X156781500Y-106489500D02*
X152400000Y-102108000D01*
X152400000Y-94234000D02*
X152400000Y-102108000D01*
X184239236Y-106489500D02*
X180086000Y-106489500D01*
X184253736Y-106504000D02*
X184239236Y-106489500D01*
X184678000Y-106504000D02*
X184253736Y-106504000D01*
D23*
X180086000Y-106489500D02*
X156781500Y-106489500D01*
D25*
X152400000Y-115570000D02*
X152400000Y-123444000D01*
X152400000Y-123444000D02*
X157034000Y-128078000D01*
X157034000Y-128078000D02*
X184678000Y-128078000D01*
X152400000Y-137160000D02*
X152400000Y-144589500D01*
X152400000Y-144589500D02*
X156972000Y-149161500D01*
X156989500Y-149144000D02*
X185170000Y-149144000D01*
X156972000Y-149161500D02*
X156989500Y-149144000D01*
D27*
G36*
X187075001Y-71076513D02*
G01*
X187075000Y-71076523D01*
X187075000Y-71197921D01*
X184100922Y-74172000D01*
X176065466Y-74172000D01*
X176021999Y-74167719D01*
X175978533Y-74172000D01*
X175978523Y-74172000D01*
X175848510Y-74184805D01*
X175681687Y-74235411D01*
X175527941Y-74317589D01*
X175393183Y-74428183D01*
X175365468Y-74461954D01*
X175057454Y-74769968D01*
X174951182Y-74857184D01*
X174923467Y-74890955D01*
X174871077Y-74943345D01*
X174837111Y-74957414D01*
X174683972Y-75059738D01*
X174553738Y-75189972D01*
X174451414Y-75343111D01*
X174380932Y-75513271D01*
X174345000Y-75693911D01*
X174345000Y-75878089D01*
X174380932Y-76058729D01*
X174451414Y-76228889D01*
X174553738Y-76382028D01*
X174683972Y-76512262D01*
X174837111Y-76614586D01*
X175007271Y-76685068D01*
X175187911Y-76721000D01*
X175372089Y-76721000D01*
X175552729Y-76685068D01*
X175722889Y-76614586D01*
X175876028Y-76512262D01*
X176006262Y-76382028D01*
X176108586Y-76228889D01*
X176121855Y-76196855D01*
X176221816Y-76114818D01*
X176249533Y-76081045D01*
X176388578Y-75942000D01*
X184424031Y-75942000D01*
X184467500Y-75946281D01*
X184510969Y-75942000D01*
X184510977Y-75942000D01*
X184640990Y-75929195D01*
X184807813Y-75878589D01*
X184961559Y-75796411D01*
X185096317Y-75685817D01*
X185124034Y-75652044D01*
X188555049Y-72221030D01*
X188588817Y-72193317D01*
X188699411Y-72058559D01*
X188781589Y-71904813D01*
X188816843Y-71788596D01*
X188832195Y-71737990D01*
X188835465Y-71704788D01*
X188845000Y-71607976D01*
X188845000Y-71607969D01*
X188849281Y-71564500D01*
X188845000Y-71521031D01*
X188845000Y-69627000D01*
X231373000Y-69627000D01*
X231373000Y-77744516D01*
X230991895Y-77545062D01*
X230493902Y-77398725D01*
X229976929Y-77352352D01*
X229460841Y-77407727D01*
X228965474Y-77562721D01*
X228548228Y-77785742D01*
X228332106Y-78152501D01*
X230000000Y-79820395D01*
X230014143Y-79806253D01*
X230193748Y-79985858D01*
X230179605Y-80000000D01*
X230193748Y-80014143D01*
X230014143Y-80193748D01*
X230000000Y-80179605D01*
X228332106Y-81847499D01*
X228548228Y-82214258D01*
X229008105Y-82454938D01*
X229506098Y-82601275D01*
X230023071Y-82647648D01*
X230539159Y-82592273D01*
X231034526Y-82437279D01*
X231373000Y-82256362D01*
X231373000Y-90373000D01*
X154127000Y-90373000D01*
X154127000Y-82988578D01*
X157171470Y-86033049D01*
X157199183Y-86066817D01*
X157232951Y-86094530D01*
X157232953Y-86094532D01*
X157304452Y-86153210D01*
X157333941Y-86177411D01*
X157487687Y-86259589D01*
X157654510Y-86310195D01*
X157784523Y-86323000D01*
X157784533Y-86323000D01*
X157827999Y-86327281D01*
X157871466Y-86323000D01*
X184371308Y-86323000D01*
X184405271Y-86337068D01*
X184585911Y-86373000D01*
X184770089Y-86373000D01*
X184950729Y-86337068D01*
X185120889Y-86266586D01*
X185274028Y-86164262D01*
X185404262Y-86034028D01*
X185506586Y-85880889D01*
X185577068Y-85710729D01*
X185613000Y-85530089D01*
X185613000Y-85345911D01*
X185577068Y-85165271D01*
X185506586Y-84995111D01*
X185404262Y-84841972D01*
X185274028Y-84711738D01*
X185120889Y-84609414D01*
X184950729Y-84538932D01*
X184770089Y-84503000D01*
X184585911Y-84503000D01*
X184405271Y-84538932D01*
X184371308Y-84553000D01*
X158194579Y-84553000D01*
X156135662Y-82494083D01*
X156231399Y-82533739D01*
X156740475Y-82635000D01*
X157259525Y-82635000D01*
X157768601Y-82533739D01*
X158248141Y-82335107D01*
X158679715Y-82046738D01*
X159046738Y-81679715D01*
X159335107Y-81248141D01*
X159533739Y-80768601D01*
X159635000Y-80259525D01*
X159635000Y-80023071D01*
X227352352Y-80023071D01*
X227407727Y-80539159D01*
X227562721Y-81034526D01*
X227785742Y-81451772D01*
X228152501Y-81667894D01*
X229820395Y-80000000D01*
X228152501Y-78332106D01*
X227785742Y-78548228D01*
X227545062Y-79008105D01*
X227398725Y-79506098D01*
X227352352Y-80023071D01*
X159635000Y-80023071D01*
X159635000Y-79740475D01*
X159533739Y-79231399D01*
X159335107Y-78751859D01*
X159046738Y-78320285D01*
X158679715Y-77953262D01*
X158635000Y-77923384D01*
X158635000Y-73293238D01*
X161279319Y-70648920D01*
X161341714Y-70597714D01*
X161546031Y-70348752D01*
X161697852Y-70064715D01*
X161791343Y-69756516D01*
X161804099Y-69627000D01*
X187075001Y-69627000D01*
X187075001Y-71076513D01*
G37*
X187075001Y-71076513D02*
X187075000Y-71076523D01*
X187075000Y-71197921D01*
X184100922Y-74172000D01*
X176065466Y-74172000D01*
X176021999Y-74167719D01*
X175978533Y-74172000D01*
X175978523Y-74172000D01*
X175848510Y-74184805D01*
X175681687Y-74235411D01*
X175527941Y-74317589D01*
X175393183Y-74428183D01*
X175365468Y-74461954D01*
X175057454Y-74769968D01*
X174951182Y-74857184D01*
X174923467Y-74890955D01*
X174871077Y-74943345D01*
X174837111Y-74957414D01*
X174683972Y-75059738D01*
X174553738Y-75189972D01*
X174451414Y-75343111D01*
X174380932Y-75513271D01*
X174345000Y-75693911D01*
X174345000Y-75878089D01*
X174380932Y-76058729D01*
X174451414Y-76228889D01*
X174553738Y-76382028D01*
X174683972Y-76512262D01*
X174837111Y-76614586D01*
X175007271Y-76685068D01*
X175187911Y-76721000D01*
X175372089Y-76721000D01*
X175552729Y-76685068D01*
X175722889Y-76614586D01*
X175876028Y-76512262D01*
X176006262Y-76382028D01*
X176108586Y-76228889D01*
X176121855Y-76196855D01*
X176221816Y-76114818D01*
X176249533Y-76081045D01*
X176388578Y-75942000D01*
X184424031Y-75942000D01*
X184467500Y-75946281D01*
X184510969Y-75942000D01*
X184510977Y-75942000D01*
X184640990Y-75929195D01*
X184807813Y-75878589D01*
X184961559Y-75796411D01*
X185096317Y-75685817D01*
X185124034Y-75652044D01*
X188555049Y-72221030D01*
X188588817Y-72193317D01*
X188699411Y-72058559D01*
X188781589Y-71904813D01*
X188816843Y-71788596D01*
X188832195Y-71737990D01*
X188835465Y-71704788D01*
X188845000Y-71607976D01*
X188845000Y-71607969D01*
X188849281Y-71564500D01*
X188845000Y-71521031D01*
X188845000Y-69627000D01*
X231373000Y-69627000D01*
X231373000Y-77744516D01*
X230991895Y-77545062D01*
X230493902Y-77398725D01*
X229976929Y-77352352D01*
X229460841Y-77407727D01*
X228965474Y-77562721D01*
X228548228Y-77785742D01*
X228332106Y-78152501D01*
X230000000Y-79820395D01*
X230014143Y-79806253D01*
X230193748Y-79985858D01*
X230179605Y-80000000D01*
X230193748Y-80014143D01*
X230014143Y-80193748D01*
X230000000Y-80179605D01*
X228332106Y-81847499D01*
X228548228Y-82214258D01*
X229008105Y-82454938D01*
X229506098Y-82601275D01*
X230023071Y-82647648D01*
X230539159Y-82592273D01*
X231034526Y-82437279D01*
X231373000Y-82256362D01*
X231373000Y-90373000D01*
X154127000Y-90373000D01*
X154127000Y-82988578D01*
X157171470Y-86033049D01*
X157199183Y-86066817D01*
X157232951Y-86094530D01*
X157232953Y-86094532D01*
X157304452Y-86153210D01*
X157333941Y-86177411D01*
X157487687Y-86259589D01*
X157654510Y-86310195D01*
X157784523Y-86323000D01*
X157784533Y-86323000D01*
X157827999Y-86327281D01*
X157871466Y-86323000D01*
X184371308Y-86323000D01*
X184405271Y-86337068D01*
X184585911Y-86373000D01*
X184770089Y-86373000D01*
X184950729Y-86337068D01*
X185120889Y-86266586D01*
X185274028Y-86164262D01*
X185404262Y-86034028D01*
X185506586Y-85880889D01*
X185577068Y-85710729D01*
X185613000Y-85530089D01*
X185613000Y-85345911D01*
X185577068Y-85165271D01*
X185506586Y-84995111D01*
X185404262Y-84841972D01*
X185274028Y-84711738D01*
X185120889Y-84609414D01*
X184950729Y-84538932D01*
X184770089Y-84503000D01*
X184585911Y-84503000D01*
X184405271Y-84538932D01*
X184371308Y-84553000D01*
X158194579Y-84553000D01*
X156135662Y-82494083D01*
X156231399Y-82533739D01*
X156740475Y-82635000D01*
X157259525Y-82635000D01*
X157768601Y-82533739D01*
X158248141Y-82335107D01*
X158679715Y-82046738D01*
X159046738Y-81679715D01*
X159335107Y-81248141D01*
X159533739Y-80768601D01*
X159635000Y-80259525D01*
X159635000Y-80023071D01*
X227352352Y-80023071D01*
X227407727Y-80539159D01*
X227562721Y-81034526D01*
X227785742Y-81451772D01*
X228152501Y-81667894D01*
X229820395Y-80000000D01*
X228152501Y-78332106D01*
X227785742Y-78548228D01*
X227545062Y-79008105D01*
X227398725Y-79506098D01*
X227352352Y-80023071D01*
X159635000Y-80023071D01*
X159635000Y-79740475D01*
X159533739Y-79231399D01*
X159335107Y-78751859D01*
X159046738Y-78320285D01*
X158679715Y-77953262D01*
X158635000Y-77923384D01*
X158635000Y-73293238D01*
X161279319Y-70648920D01*
X161341714Y-70597714D01*
X161546031Y-70348752D01*
X161697852Y-70064715D01*
X161791343Y-69756516D01*
X161804099Y-69627000D01*
X187075001Y-69627000D01*
X187075001Y-71076513D01*
G36*
X155396395Y-98024706D02*
G01*
X155305391Y-98099391D01*
X155230708Y-98190393D01*
X155007351Y-98462555D01*
X154785887Y-98876885D01*
X154649510Y-99326459D01*
X154603461Y-99794000D01*
X154615000Y-99911157D01*
X154615000Y-100372311D01*
X154466261Y-100731399D01*
X154365000Y-101240475D01*
X154365000Y-101759525D01*
X154466261Y-102268601D01*
X154664893Y-102748141D01*
X154953262Y-103179715D01*
X155320285Y-103546738D01*
X155751859Y-103835107D01*
X156231399Y-104033739D01*
X156740475Y-104135000D01*
X157259525Y-104135000D01*
X157768601Y-104033739D01*
X158248141Y-103835107D01*
X158679715Y-103546738D01*
X159046738Y-103179715D01*
X159335107Y-102748141D01*
X159533739Y-102268601D01*
X159635000Y-101759525D01*
X159635000Y-101523071D01*
X227352352Y-101523071D01*
X227407727Y-102039159D01*
X227562721Y-102534526D01*
X227785742Y-102951772D01*
X228152501Y-103167894D01*
X229820395Y-101500000D01*
X228152501Y-99832106D01*
X227785742Y-100048228D01*
X227545062Y-100508105D01*
X227398725Y-101006098D01*
X227352352Y-101523071D01*
X159635000Y-101523071D01*
X159635000Y-101240475D01*
X159533739Y-100731399D01*
X159504965Y-100661934D01*
X167103900Y-93063000D01*
X225180843Y-93063000D01*
X225298000Y-93074539D01*
X225415157Y-93063000D01*
X225765542Y-93028490D01*
X226215116Y-92892113D01*
X226629446Y-92670649D01*
X226992609Y-92372609D01*
X227067294Y-92281605D01*
X228221899Y-91127000D01*
X231373000Y-91127000D01*
X231373000Y-99244516D01*
X230991895Y-99045062D01*
X230493902Y-98898725D01*
X229976929Y-98852352D01*
X229460841Y-98907727D01*
X228965474Y-99062721D01*
X228548228Y-99285742D01*
X228332106Y-99652501D01*
X230000000Y-101320395D01*
X230014143Y-101306253D01*
X230193748Y-101485858D01*
X230179605Y-101500000D01*
X230193748Y-101514143D01*
X230014143Y-101693748D01*
X230000000Y-101679605D01*
X228332106Y-103347499D01*
X228548228Y-103714258D01*
X229008105Y-103954938D01*
X229506098Y-104101275D01*
X230023071Y-104147648D01*
X230539159Y-104092273D01*
X231034526Y-103937279D01*
X231373000Y-103756362D01*
X231373000Y-111873000D01*
X154127000Y-111873000D01*
X154127000Y-105086579D01*
X156139470Y-107099049D01*
X156167183Y-107132817D01*
X156301941Y-107243411D01*
X156455687Y-107325589D01*
X156622510Y-107376195D01*
X156752523Y-107389000D01*
X156752533Y-107389000D01*
X156795999Y-107393281D01*
X156839465Y-107389000D01*
X184210269Y-107389000D01*
X184253735Y-107393281D01*
X184297201Y-107389000D01*
X184371308Y-107389000D01*
X184405271Y-107403068D01*
X184585911Y-107439000D01*
X184770089Y-107439000D01*
X184950729Y-107403068D01*
X185120889Y-107332586D01*
X185274028Y-107230262D01*
X185404262Y-107100028D01*
X185506586Y-106946889D01*
X185577068Y-106776729D01*
X185613000Y-106596089D01*
X185613000Y-106411911D01*
X185577068Y-106231271D01*
X185506586Y-106061111D01*
X185404262Y-105907972D01*
X185274028Y-105777738D01*
X185120889Y-105675414D01*
X184950729Y-105604932D01*
X184770089Y-105569000D01*
X184585911Y-105569000D01*
X184405271Y-105604932D01*
X184382570Y-105614335D01*
X184282713Y-105604500D01*
X184282705Y-105604500D01*
X184239236Y-105600219D01*
X184195767Y-105604500D01*
X180042523Y-105604500D01*
X179912510Y-105617305D01*
X179906922Y-105619000D01*
X157162579Y-105619000D01*
X154127000Y-102583422D01*
X154127000Y-91127000D01*
X162294100Y-91127000D01*
X155396395Y-98024706D01*
G37*
X155396395Y-98024706D02*
X155305391Y-98099391D01*
X155230708Y-98190393D01*
X155007351Y-98462555D01*
X154785887Y-98876885D01*
X154649510Y-99326459D01*
X154603461Y-99794000D01*
X154615000Y-99911157D01*
X154615000Y-100372311D01*
X154466261Y-100731399D01*
X154365000Y-101240475D01*
X154365000Y-101759525D01*
X154466261Y-102268601D01*
X154664893Y-102748141D01*
X154953262Y-103179715D01*
X155320285Y-103546738D01*
X155751859Y-103835107D01*
X156231399Y-104033739D01*
X156740475Y-104135000D01*
X157259525Y-104135000D01*
X157768601Y-104033739D01*
X158248141Y-103835107D01*
X158679715Y-103546738D01*
X159046738Y-103179715D01*
X159335107Y-102748141D01*
X159533739Y-102268601D01*
X159635000Y-101759525D01*
X159635000Y-101523071D01*
X227352352Y-101523071D01*
X227407727Y-102039159D01*
X227562721Y-102534526D01*
X227785742Y-102951772D01*
X228152501Y-103167894D01*
X229820395Y-101500000D01*
X228152501Y-99832106D01*
X227785742Y-100048228D01*
X227545062Y-100508105D01*
X227398725Y-101006098D01*
X227352352Y-101523071D01*
X159635000Y-101523071D01*
X159635000Y-101240475D01*
X159533739Y-100731399D01*
X159504965Y-100661934D01*
X167103900Y-93063000D01*
X225180843Y-93063000D01*
X225298000Y-93074539D01*
X225415157Y-93063000D01*
X225765542Y-93028490D01*
X226215116Y-92892113D01*
X226629446Y-92670649D01*
X226992609Y-92372609D01*
X227067294Y-92281605D01*
X228221899Y-91127000D01*
X231373000Y-91127000D01*
X231373000Y-99244516D01*
X230991895Y-99045062D01*
X230493902Y-98898725D01*
X229976929Y-98852352D01*
X229460841Y-98907727D01*
X228965474Y-99062721D01*
X228548228Y-99285742D01*
X228332106Y-99652501D01*
X230000000Y-101320395D01*
X230014143Y-101306253D01*
X230193748Y-101485858D01*
X230179605Y-101500000D01*
X230193748Y-101514143D01*
X230014143Y-101693748D01*
X230000000Y-101679605D01*
X228332106Y-103347499D01*
X228548228Y-103714258D01*
X229008105Y-103954938D01*
X229506098Y-104101275D01*
X230023071Y-104147648D01*
X230539159Y-104092273D01*
X231034526Y-103937279D01*
X231373000Y-103756362D01*
X231373000Y-111873000D01*
X154127000Y-111873000D01*
X154127000Y-105086579D01*
X156139470Y-107099049D01*
X156167183Y-107132817D01*
X156301941Y-107243411D01*
X156455687Y-107325589D01*
X156622510Y-107376195D01*
X156752523Y-107389000D01*
X156752533Y-107389000D01*
X156795999Y-107393281D01*
X156839465Y-107389000D01*
X184210269Y-107389000D01*
X184253735Y-107393281D01*
X184297201Y-107389000D01*
X184371308Y-107389000D01*
X184405271Y-107403068D01*
X184585911Y-107439000D01*
X184770089Y-107439000D01*
X184950729Y-107403068D01*
X185120889Y-107332586D01*
X185274028Y-107230262D01*
X185404262Y-107100028D01*
X185506586Y-106946889D01*
X185577068Y-106776729D01*
X185613000Y-106596089D01*
X185613000Y-106411911D01*
X185577068Y-106231271D01*
X185506586Y-106061111D01*
X185404262Y-105907972D01*
X185274028Y-105777738D01*
X185120889Y-105675414D01*
X184950729Y-105604932D01*
X184770089Y-105569000D01*
X184585911Y-105569000D01*
X184405271Y-105604932D01*
X184382570Y-105614335D01*
X184282713Y-105604500D01*
X184282705Y-105604500D01*
X184239236Y-105600219D01*
X184195767Y-105604500D01*
X180042523Y-105604500D01*
X179912510Y-105617305D01*
X179906922Y-105619000D01*
X157162579Y-105619000D01*
X154127000Y-102583422D01*
X154127000Y-91127000D01*
X162294100Y-91127000D01*
X155396395Y-98024706D01*
G36*
X155396395Y-119230706D02*
G01*
X155305391Y-119305391D01*
X155230708Y-119396393D01*
X155007351Y-119668555D01*
X154785887Y-120082885D01*
X154649510Y-120532459D01*
X154603461Y-121000000D01*
X154615000Y-121117157D01*
X154615000Y-121872311D01*
X154466261Y-122231399D01*
X154365000Y-122740475D01*
X154365000Y-123259525D01*
X154466261Y-123768601D01*
X154664893Y-124248141D01*
X154953262Y-124679715D01*
X155320285Y-125046738D01*
X155751859Y-125335107D01*
X156231399Y-125533739D01*
X156740475Y-125635000D01*
X157259525Y-125635000D01*
X157768601Y-125533739D01*
X158248141Y-125335107D01*
X158477626Y-125181770D01*
X158831446Y-124992649D01*
X159194609Y-124694609D01*
X159492649Y-124331446D01*
X159714113Y-123917116D01*
X159850490Y-123467542D01*
X159894266Y-123023071D01*
X227352352Y-123023071D01*
X227407727Y-123539159D01*
X227562721Y-124034526D01*
X227785742Y-124451772D01*
X228152501Y-124667894D01*
X229820395Y-123000000D01*
X228152501Y-121332106D01*
X227785742Y-121548228D01*
X227545062Y-122008105D01*
X227398725Y-122506098D01*
X227352352Y-123023071D01*
X159894266Y-123023071D01*
X159896539Y-123000000D01*
X159850490Y-122532458D01*
X159714113Y-122082884D01*
X159566388Y-121806511D01*
X166973900Y-114399000D01*
X224926843Y-114399000D01*
X225044000Y-114410539D01*
X225161157Y-114399000D01*
X225511542Y-114364490D01*
X225961116Y-114228113D01*
X226375446Y-114006649D01*
X226738609Y-113708609D01*
X226813294Y-113617605D01*
X227803899Y-112627000D01*
X231373000Y-112627000D01*
X231373000Y-120744516D01*
X230991895Y-120545062D01*
X230493902Y-120398725D01*
X229976929Y-120352352D01*
X229460841Y-120407727D01*
X228965474Y-120562721D01*
X228548228Y-120785742D01*
X228332106Y-121152501D01*
X230000000Y-122820395D01*
X230014143Y-122806253D01*
X230193748Y-122985858D01*
X230179605Y-123000000D01*
X230193748Y-123014143D01*
X230014143Y-123193748D01*
X230000000Y-123179605D01*
X228332106Y-124847499D01*
X228548228Y-125214258D01*
X229008105Y-125454938D01*
X229506098Y-125601275D01*
X230023071Y-125647648D01*
X230539159Y-125592273D01*
X231034526Y-125437279D01*
X231373000Y-125256362D01*
X231373000Y-133373000D01*
X154127000Y-133373000D01*
X154127000Y-126422579D01*
X156377470Y-128673049D01*
X156405183Y-128706817D01*
X156438951Y-128734530D01*
X156438953Y-128734532D01*
X156539941Y-128817411D01*
X156693686Y-128899589D01*
X156860510Y-128950195D01*
X156990523Y-128963000D01*
X156990531Y-128963000D01*
X157034000Y-128967281D01*
X157077469Y-128963000D01*
X184371308Y-128963000D01*
X184405271Y-128977068D01*
X184585911Y-129013000D01*
X184770089Y-129013000D01*
X184950729Y-128977068D01*
X185120889Y-128906586D01*
X185274028Y-128804262D01*
X185404262Y-128674028D01*
X185506586Y-128520889D01*
X185577068Y-128350729D01*
X185613000Y-128170089D01*
X185613000Y-127985911D01*
X185577068Y-127805271D01*
X185506586Y-127635111D01*
X185404262Y-127481972D01*
X185274028Y-127351738D01*
X185120889Y-127249414D01*
X184950729Y-127178932D01*
X184770089Y-127143000D01*
X184585911Y-127143000D01*
X184405271Y-127178932D01*
X184371308Y-127193000D01*
X157400579Y-127193000D01*
X154127000Y-123919422D01*
X154127000Y-112627000D01*
X162000100Y-112627000D01*
X155396395Y-119230706D01*
G37*
X155396395Y-119230706D02*
X155305391Y-119305391D01*
X155230708Y-119396393D01*
X155007351Y-119668555D01*
X154785887Y-120082885D01*
X154649510Y-120532459D01*
X154603461Y-121000000D01*
X154615000Y-121117157D01*
X154615000Y-121872311D01*
X154466261Y-122231399D01*
X154365000Y-122740475D01*
X154365000Y-123259525D01*
X154466261Y-123768601D01*
X154664893Y-124248141D01*
X154953262Y-124679715D01*
X155320285Y-125046738D01*
X155751859Y-125335107D01*
X156231399Y-125533739D01*
X156740475Y-125635000D01*
X157259525Y-125635000D01*
X157768601Y-125533739D01*
X158248141Y-125335107D01*
X158477626Y-125181770D01*
X158831446Y-124992649D01*
X159194609Y-124694609D01*
X159492649Y-124331446D01*
X159714113Y-123917116D01*
X159850490Y-123467542D01*
X159894266Y-123023071D01*
X227352352Y-123023071D01*
X227407727Y-123539159D01*
X227562721Y-124034526D01*
X227785742Y-124451772D01*
X228152501Y-124667894D01*
X229820395Y-123000000D01*
X228152501Y-121332106D01*
X227785742Y-121548228D01*
X227545062Y-122008105D01*
X227398725Y-122506098D01*
X227352352Y-123023071D01*
X159894266Y-123023071D01*
X159896539Y-123000000D01*
X159850490Y-122532458D01*
X159714113Y-122082884D01*
X159566388Y-121806511D01*
X166973900Y-114399000D01*
X224926843Y-114399000D01*
X225044000Y-114410539D01*
X225161157Y-114399000D01*
X225511542Y-114364490D01*
X225961116Y-114228113D01*
X226375446Y-114006649D01*
X226738609Y-113708609D01*
X226813294Y-113617605D01*
X227803899Y-112627000D01*
X231373000Y-112627000D01*
X231373000Y-120744516D01*
X230991895Y-120545062D01*
X230493902Y-120398725D01*
X229976929Y-120352352D01*
X229460841Y-120407727D01*
X228965474Y-120562721D01*
X228548228Y-120785742D01*
X228332106Y-121152501D01*
X230000000Y-122820395D01*
X230014143Y-122806253D01*
X230193748Y-122985858D01*
X230179605Y-123000000D01*
X230193748Y-123014143D01*
X230014143Y-123193748D01*
X230000000Y-123179605D01*
X228332106Y-124847499D01*
X228548228Y-125214258D01*
X229008105Y-125454938D01*
X229506098Y-125601275D01*
X230023071Y-125647648D01*
X230539159Y-125592273D01*
X231034526Y-125437279D01*
X231373000Y-125256362D01*
X231373000Y-133373000D01*
X154127000Y-133373000D01*
X154127000Y-126422579D01*
X156377470Y-128673049D01*
X156405183Y-128706817D01*
X156438951Y-128734530D01*
X156438953Y-128734532D01*
X156539941Y-128817411D01*
X156693686Y-128899589D01*
X156860510Y-128950195D01*
X156990523Y-128963000D01*
X156990531Y-128963000D01*
X157034000Y-128967281D01*
X157077469Y-128963000D01*
X184371308Y-128963000D01*
X184405271Y-128977068D01*
X184585911Y-129013000D01*
X184770089Y-129013000D01*
X184950729Y-128977068D01*
X185120889Y-128906586D01*
X185274028Y-128804262D01*
X185404262Y-128674028D01*
X185506586Y-128520889D01*
X185577068Y-128350729D01*
X185613000Y-128170089D01*
X185613000Y-127985911D01*
X185577068Y-127805271D01*
X185506586Y-127635111D01*
X185404262Y-127481972D01*
X185274028Y-127351738D01*
X185120889Y-127249414D01*
X184950729Y-127178932D01*
X184770089Y-127143000D01*
X184585911Y-127143000D01*
X184405271Y-127178932D01*
X184371308Y-127193000D01*
X157400579Y-127193000D01*
X154127000Y-123919422D01*
X154127000Y-112627000D01*
X162000100Y-112627000D01*
X155396395Y-119230706D01*
G36*
X232873000Y-163873000D02*
G01*
X161627000Y-163873000D01*
X161627000Y-163760000D01*
X163962667Y-163760000D01*
X164000000Y-163763677D01*
X164037333Y-163760000D01*
X164148986Y-163749003D01*
X164292247Y-163705546D01*
X164424276Y-163634974D01*
X164479077Y-163590000D01*
X184904048Y-163590000D01*
X184904048Y-157000000D01*
X190236323Y-157000000D01*
X190240000Y-157037333D01*
X190240001Y-162962657D01*
X190236323Y-163000000D01*
X190250997Y-163148986D01*
X190294454Y-163292247D01*
X190365026Y-163424276D01*
X190459999Y-163540001D01*
X190575724Y-163634974D01*
X190707753Y-163705546D01*
X190851014Y-163749003D01*
X190962667Y-163760000D01*
X191000000Y-163763677D01*
X191037333Y-163760000D01*
X196962667Y-163760000D01*
X197000000Y-163763677D01*
X197037333Y-163760000D01*
X197148986Y-163749003D01*
X197292247Y-163705546D01*
X197424276Y-163634974D01*
X197479077Y-163590000D01*
X222285000Y-163590000D01*
X222285000Y-159661984D01*
X224965000Y-159661984D01*
X224965000Y-160378016D01*
X225104691Y-161080290D01*
X225378705Y-161741818D01*
X225776511Y-162337177D01*
X226282823Y-162843489D01*
X226878182Y-163241295D01*
X227539710Y-163515309D01*
X228241984Y-163655000D01*
X228958016Y-163655000D01*
X229660290Y-163515309D01*
X230321818Y-163241295D01*
X230917177Y-162843489D01*
X231423489Y-162337177D01*
X231821295Y-161741818D01*
X232095309Y-161080290D01*
X232235000Y-160378016D01*
X232235000Y-159661984D01*
X232095309Y-158959710D01*
X231821295Y-158298182D01*
X231423489Y-157702823D01*
X230917177Y-157196511D01*
X230321818Y-156798705D01*
X229660290Y-156524691D01*
X228958016Y-156385000D01*
X228241984Y-156385000D01*
X227539710Y-156524691D01*
X226878182Y-156798705D01*
X226282823Y-157196511D01*
X225776511Y-157702823D01*
X225378705Y-158298182D01*
X225104691Y-158959710D01*
X224965000Y-159661984D01*
X222285000Y-159661984D01*
X222285000Y-156770000D01*
X197724428Y-156770000D01*
X197705546Y-156707753D01*
X197634974Y-156575724D01*
X197540001Y-156459999D01*
X197424276Y-156365026D01*
X197292247Y-156294454D01*
X197148986Y-156250997D01*
X197037333Y-156240000D01*
X197000000Y-156236323D01*
X196962667Y-156240000D01*
X191037333Y-156240000D01*
X191000000Y-156236323D01*
X190962667Y-156240000D01*
X190851014Y-156250997D01*
X190707753Y-156294454D01*
X190575724Y-156365026D01*
X190459999Y-156459999D01*
X190365026Y-156575724D01*
X190294454Y-156707753D01*
X190250997Y-156851014D01*
X190236323Y-157000000D01*
X184904048Y-157000000D01*
X184904048Y-156770000D01*
X164724428Y-156770000D01*
X164705546Y-156707753D01*
X164634974Y-156575724D01*
X164540001Y-156459999D01*
X164424276Y-156365026D01*
X164292247Y-156294454D01*
X164148986Y-156250997D01*
X164037333Y-156240000D01*
X164000000Y-156236323D01*
X163962667Y-156240000D01*
X161627000Y-156240000D01*
X161627000Y-150029000D01*
X184863308Y-150029000D01*
X184897271Y-150043068D01*
X185077911Y-150079000D01*
X185262089Y-150079000D01*
X185442729Y-150043068D01*
X185612889Y-149972586D01*
X185766028Y-149870262D01*
X185896262Y-149740028D01*
X185998586Y-149586889D01*
X186069068Y-149416729D01*
X186105000Y-149236089D01*
X186105000Y-149051911D01*
X186069068Y-148871271D01*
X185998586Y-148701111D01*
X185896262Y-148547972D01*
X185766028Y-148417738D01*
X185612889Y-148315414D01*
X185442729Y-148244932D01*
X185262089Y-148209000D01*
X185077911Y-148209000D01*
X184897271Y-148244932D01*
X184863308Y-148259000D01*
X161627000Y-148259000D01*
X161627000Y-140745899D01*
X166383900Y-135989000D01*
X225688843Y-135989000D01*
X225806000Y-136000539D01*
X225923157Y-135989000D01*
X226273542Y-135954490D01*
X226723116Y-135818113D01*
X227137446Y-135596649D01*
X227500609Y-135298609D01*
X227575294Y-135207605D01*
X228655899Y-134127000D01*
X232000000Y-134127000D01*
X232024776Y-134124560D01*
X232048601Y-134117333D01*
X232070557Y-134105597D01*
X232089803Y-134089803D01*
X232105597Y-134070557D01*
X232117333Y-134048601D01*
X232124560Y-134024776D01*
X232127000Y-134000000D01*
X232127000Y-130490093D01*
X232214113Y-130327116D01*
X232350490Y-129877542D01*
X232385000Y-129527157D01*
X232396539Y-129410000D01*
X232385000Y-129292843D01*
X232385000Y-124127689D01*
X232533739Y-123768601D01*
X232635000Y-123259525D01*
X232635000Y-122740475D01*
X232533739Y-122231399D01*
X232335107Y-121751859D01*
X232127000Y-121440405D01*
X232127000Y-108138093D01*
X232214113Y-107975116D01*
X232350490Y-107525542D01*
X232385000Y-107175157D01*
X232385000Y-107175148D01*
X232396538Y-107058001D01*
X232385000Y-106940854D01*
X232385000Y-102627689D01*
X232533739Y-102268601D01*
X232635000Y-101759525D01*
X232635000Y-101240475D01*
X232533739Y-100731399D01*
X232335107Y-100251859D01*
X232127000Y-99940405D01*
X232127000Y-87056093D01*
X232214113Y-86893116D01*
X232270847Y-86706089D01*
X232350490Y-86443542D01*
X232385000Y-86093157D01*
X232385000Y-86093148D01*
X232396538Y-85976001D01*
X232385000Y-85858854D01*
X232385000Y-81127689D01*
X232533739Y-80768601D01*
X232635000Y-80259525D01*
X232635000Y-79740475D01*
X232533739Y-79231399D01*
X232335107Y-78751859D01*
X232127000Y-78440405D01*
X232127000Y-69000000D01*
X232124560Y-68975224D01*
X232117333Y-68951399D01*
X232105597Y-68929443D01*
X232089803Y-68910197D01*
X232070557Y-68894403D01*
X232048601Y-68882667D01*
X232024776Y-68875440D01*
X232000000Y-68873000D01*
X212569882Y-68873000D01*
X212718715Y-68827852D01*
X212774429Y-68798072D01*
X212940000Y-68798072D01*
X213064482Y-68785812D01*
X213184180Y-68749502D01*
X213294494Y-68690537D01*
X213391185Y-68611185D01*
X213470537Y-68514494D01*
X213529502Y-68404180D01*
X213553966Y-68323534D01*
X213629731Y-68407588D01*
X213863080Y-68581641D01*
X214125901Y-68706825D01*
X214273110Y-68751476D01*
X214503000Y-68630155D01*
X214503000Y-67437000D01*
X214757000Y-67437000D01*
X214757000Y-68630155D01*
X214986890Y-68751476D01*
X215134099Y-68706825D01*
X215396920Y-68581641D01*
X215630269Y-68407588D01*
X215825178Y-68191355D01*
X215974157Y-67941252D01*
X216071481Y-67666891D01*
X215950814Y-67437000D01*
X214757000Y-67437000D01*
X214503000Y-67437000D01*
X214483000Y-67437000D01*
X214483000Y-67183000D01*
X214503000Y-67183000D01*
X214503000Y-65989845D01*
X214757000Y-65989845D01*
X214757000Y-67183000D01*
X215950814Y-67183000D01*
X216071481Y-66953109D01*
X215974157Y-66678748D01*
X215843856Y-66460000D01*
X216951928Y-66460000D01*
X216951928Y-68160000D01*
X216964188Y-68284482D01*
X217000498Y-68404180D01*
X217059463Y-68514494D01*
X217138815Y-68611185D01*
X217235506Y-68690537D01*
X217345820Y-68749502D01*
X217465518Y-68785812D01*
X217590000Y-68798072D01*
X219290000Y-68798072D01*
X219414482Y-68785812D01*
X219534180Y-68749502D01*
X219644494Y-68690537D01*
X219741185Y-68611185D01*
X219820537Y-68514494D01*
X219879502Y-68404180D01*
X219903966Y-68323534D01*
X219979731Y-68407588D01*
X220213080Y-68581641D01*
X220475901Y-68706825D01*
X220623110Y-68751476D01*
X220853000Y-68630155D01*
X220853000Y-67437000D01*
X221107000Y-67437000D01*
X221107000Y-68630155D01*
X221336890Y-68751476D01*
X221484099Y-68706825D01*
X221746920Y-68581641D01*
X221980269Y-68407588D01*
X222175178Y-68191355D01*
X222324157Y-67941252D01*
X222421481Y-67666891D01*
X222300814Y-67437000D01*
X221107000Y-67437000D01*
X220853000Y-67437000D01*
X220833000Y-67437000D01*
X220833000Y-67183000D01*
X220853000Y-67183000D01*
X220853000Y-65989845D01*
X221107000Y-65989845D01*
X221107000Y-67183000D01*
X222300814Y-67183000D01*
X222421481Y-66953109D01*
X222324157Y-66678748D01*
X222175178Y-66428645D01*
X221980269Y-66212412D01*
X221746920Y-66038359D01*
X221484099Y-65913175D01*
X221336890Y-65868524D01*
X221107000Y-65989845D01*
X220853000Y-65989845D01*
X220623110Y-65868524D01*
X220475901Y-65913175D01*
X220213080Y-66038359D01*
X219979731Y-66212412D01*
X219903966Y-66296466D01*
X219879502Y-66215820D01*
X219820537Y-66105506D01*
X219741185Y-66008815D01*
X219644494Y-65929463D01*
X219534180Y-65870498D01*
X219414482Y-65834188D01*
X219290000Y-65821928D01*
X217590000Y-65821928D01*
X217465518Y-65834188D01*
X217345820Y-65870498D01*
X217235506Y-65929463D01*
X217138815Y-66008815D01*
X217059463Y-66105506D01*
X217000498Y-66215820D01*
X216964188Y-66335518D01*
X216951928Y-66460000D01*
X215843856Y-66460000D01*
X215825178Y-66428645D01*
X215630269Y-66212412D01*
X215396920Y-66038359D01*
X215134099Y-65913175D01*
X214986890Y-65868524D01*
X214757000Y-65989845D01*
X214503000Y-65989845D01*
X214273110Y-65868524D01*
X214125901Y-65913175D01*
X213863080Y-66038359D01*
X213629731Y-66212412D01*
X213553966Y-66296466D01*
X213529502Y-66215820D01*
X213470537Y-66105506D01*
X213391185Y-66008815D01*
X213294494Y-65929463D01*
X213184180Y-65870498D01*
X213064482Y-65834188D01*
X212940000Y-65821928D01*
X212774429Y-65821928D01*
X212718715Y-65792148D01*
X212410516Y-65698657D01*
X212170322Y-65675000D01*
X203565000Y-65675000D01*
X203565000Y-65622621D01*
X203674180Y-65589502D01*
X203784494Y-65530537D01*
X203881185Y-65451185D01*
X203960537Y-65354494D01*
X204019502Y-65244180D01*
X204055812Y-65124482D01*
X204068072Y-65000000D01*
X204068072Y-64991653D01*
X205697952Y-64991653D01*
X205853962Y-65307214D01*
X206228745Y-65498020D01*
X206633551Y-65612044D01*
X207052824Y-65644902D01*
X207470451Y-65595334D01*
X207870383Y-65465243D01*
X208166038Y-65307214D01*
X208322048Y-64991653D01*
X207010000Y-63679605D01*
X205697952Y-64991653D01*
X204068072Y-64991653D01*
X204068072Y-63542824D01*
X204865098Y-63542824D01*
X204914666Y-63960451D01*
X205044757Y-64360383D01*
X205202786Y-64656038D01*
X205518347Y-64812048D01*
X206830395Y-63500000D01*
X207189605Y-63500000D01*
X208501653Y-64812048D01*
X208817214Y-64656038D01*
X209008020Y-64281255D01*
X209122044Y-63876449D01*
X209154902Y-63457176D01*
X209117492Y-63141984D01*
X224965000Y-63141984D01*
X224965000Y-63858016D01*
X225104691Y-64560290D01*
X225378705Y-65221818D01*
X225776511Y-65817177D01*
X226282823Y-66323489D01*
X226878182Y-66721295D01*
X227539710Y-66995309D01*
X228241984Y-67135000D01*
X228958016Y-67135000D01*
X229660290Y-66995309D01*
X230321818Y-66721295D01*
X230917177Y-66323489D01*
X231423489Y-65817177D01*
X231821295Y-65221818D01*
X232095309Y-64560290D01*
X232235000Y-63858016D01*
X232235000Y-63141984D01*
X232095309Y-62439710D01*
X231821295Y-61778182D01*
X231423489Y-61182823D01*
X230917177Y-60676511D01*
X230321818Y-60278705D01*
X229660290Y-60004691D01*
X228958016Y-59865000D01*
X228241984Y-59865000D01*
X227539710Y-60004691D01*
X226878182Y-60278705D01*
X226282823Y-60676511D01*
X225776511Y-61182823D01*
X225378705Y-61778182D01*
X225104691Y-62439710D01*
X224965000Y-63141984D01*
X209117492Y-63141984D01*
X209105334Y-63039549D01*
X208975243Y-62639617D01*
X208817214Y-62343962D01*
X208501653Y-62187952D01*
X207189605Y-63500000D01*
X206830395Y-63500000D01*
X205518347Y-62187952D01*
X205202786Y-62343962D01*
X205011980Y-62718745D01*
X204897956Y-63123551D01*
X204865098Y-63542824D01*
X204068072Y-63542824D01*
X204068072Y-62008347D01*
X205697952Y-62008347D01*
X207010000Y-63320395D01*
X208322048Y-62008347D01*
X208166038Y-61692786D01*
X207791255Y-61501980D01*
X207386449Y-61387956D01*
X206967176Y-61355098D01*
X206549549Y-61404666D01*
X206149617Y-61534757D01*
X205853962Y-61692786D01*
X205697952Y-62008347D01*
X204068072Y-62008347D01*
X204068072Y-62000000D01*
X204055812Y-61875518D01*
X204019502Y-61755820D01*
X203960537Y-61645506D01*
X203881185Y-61548815D01*
X203784494Y-61469463D01*
X203674180Y-61410498D01*
X203554482Y-61374188D01*
X203430000Y-61361928D01*
X200430000Y-61361928D01*
X200305518Y-61374188D01*
X200185820Y-61410498D01*
X200075506Y-61469463D01*
X199978815Y-61548815D01*
X199899463Y-61645506D01*
X199840498Y-61755820D01*
X199804188Y-61875518D01*
X199791928Y-62000000D01*
X199791928Y-65000000D01*
X199804188Y-65124482D01*
X199840498Y-65244180D01*
X199899463Y-65354494D01*
X199978815Y-65451185D01*
X200075506Y-65530537D01*
X200185820Y-65589502D01*
X200295001Y-65622622D01*
X200295001Y-65675000D01*
X197627000Y-65675000D01*
X197627000Y-59127000D01*
X232873000Y-59127000D01*
X232873000Y-163873000D01*
G37*
X232873000Y-163873000D02*
X161627000Y-163873000D01*
X161627000Y-163760000D01*
X163962667Y-163760000D01*
X164000000Y-163763677D01*
X164037333Y-163760000D01*
X164148986Y-163749003D01*
X164292247Y-163705546D01*
X164424276Y-163634974D01*
X164479077Y-163590000D01*
X184904048Y-163590000D01*
X184904048Y-157000000D01*
X190236323Y-157000000D01*
X190240000Y-157037333D01*
X190240001Y-162962657D01*
X190236323Y-163000000D01*
X190250997Y-163148986D01*
X190294454Y-163292247D01*
X190365026Y-163424276D01*
X190459999Y-163540001D01*
X190575724Y-163634974D01*
X190707753Y-163705546D01*
X190851014Y-163749003D01*
X190962667Y-163760000D01*
X191000000Y-163763677D01*
X191037333Y-163760000D01*
X196962667Y-163760000D01*
X197000000Y-163763677D01*
X197037333Y-163760000D01*
X197148986Y-163749003D01*
X197292247Y-163705546D01*
X197424276Y-163634974D01*
X197479077Y-163590000D01*
X222285000Y-163590000D01*
X222285000Y-159661984D01*
X224965000Y-159661984D01*
X224965000Y-160378016D01*
X225104691Y-161080290D01*
X225378705Y-161741818D01*
X225776511Y-162337177D01*
X226282823Y-162843489D01*
X226878182Y-163241295D01*
X227539710Y-163515309D01*
X228241984Y-163655000D01*
X228958016Y-163655000D01*
X229660290Y-163515309D01*
X230321818Y-163241295D01*
X230917177Y-162843489D01*
X231423489Y-162337177D01*
X231821295Y-161741818D01*
X232095309Y-161080290D01*
X232235000Y-160378016D01*
X232235000Y-159661984D01*
X232095309Y-158959710D01*
X231821295Y-158298182D01*
X231423489Y-157702823D01*
X230917177Y-157196511D01*
X230321818Y-156798705D01*
X229660290Y-156524691D01*
X228958016Y-156385000D01*
X228241984Y-156385000D01*
X227539710Y-156524691D01*
X226878182Y-156798705D01*
X226282823Y-157196511D01*
X225776511Y-157702823D01*
X225378705Y-158298182D01*
X225104691Y-158959710D01*
X224965000Y-159661984D01*
X222285000Y-159661984D01*
X222285000Y-156770000D01*
X197724428Y-156770000D01*
X197705546Y-156707753D01*
X197634974Y-156575724D01*
X197540001Y-156459999D01*
X197424276Y-156365026D01*
X197292247Y-156294454D01*
X197148986Y-156250997D01*
X197037333Y-156240000D01*
X197000000Y-156236323D01*
X196962667Y-156240000D01*
X191037333Y-156240000D01*
X191000000Y-156236323D01*
X190962667Y-156240000D01*
X190851014Y-156250997D01*
X190707753Y-156294454D01*
X190575724Y-156365026D01*
X190459999Y-156459999D01*
X190365026Y-156575724D01*
X190294454Y-156707753D01*
X190250997Y-156851014D01*
X190236323Y-157000000D01*
X184904048Y-157000000D01*
X184904048Y-156770000D01*
X164724428Y-156770000D01*
X164705546Y-156707753D01*
X164634974Y-156575724D01*
X164540001Y-156459999D01*
X164424276Y-156365026D01*
X164292247Y-156294454D01*
X164148986Y-156250997D01*
X164037333Y-156240000D01*
X164000000Y-156236323D01*
X163962667Y-156240000D01*
X161627000Y-156240000D01*
X161627000Y-150029000D01*
X184863308Y-150029000D01*
X184897271Y-150043068D01*
X185077911Y-150079000D01*
X185262089Y-150079000D01*
X185442729Y-150043068D01*
X185612889Y-149972586D01*
X185766028Y-149870262D01*
X185896262Y-149740028D01*
X185998586Y-149586889D01*
X186069068Y-149416729D01*
X186105000Y-149236089D01*
X186105000Y-149051911D01*
X186069068Y-148871271D01*
X185998586Y-148701111D01*
X185896262Y-148547972D01*
X185766028Y-148417738D01*
X185612889Y-148315414D01*
X185442729Y-148244932D01*
X185262089Y-148209000D01*
X185077911Y-148209000D01*
X184897271Y-148244932D01*
X184863308Y-148259000D01*
X161627000Y-148259000D01*
X161627000Y-140745899D01*
X166383900Y-135989000D01*
X225688843Y-135989000D01*
X225806000Y-136000539D01*
X225923157Y-135989000D01*
X226273542Y-135954490D01*
X226723116Y-135818113D01*
X227137446Y-135596649D01*
X227500609Y-135298609D01*
X227575294Y-135207605D01*
X228655899Y-134127000D01*
X232000000Y-134127000D01*
X232024776Y-134124560D01*
X232048601Y-134117333D01*
X232070557Y-134105597D01*
X232089803Y-134089803D01*
X232105597Y-134070557D01*
X232117333Y-134048601D01*
X232124560Y-134024776D01*
X232127000Y-134000000D01*
X232127000Y-130490093D01*
X232214113Y-130327116D01*
X232350490Y-129877542D01*
X232385000Y-129527157D01*
X232396539Y-129410000D01*
X232385000Y-129292843D01*
X232385000Y-124127689D01*
X232533739Y-123768601D01*
X232635000Y-123259525D01*
X232635000Y-122740475D01*
X232533739Y-122231399D01*
X232335107Y-121751859D01*
X232127000Y-121440405D01*
X232127000Y-108138093D01*
X232214113Y-107975116D01*
X232350490Y-107525542D01*
X232385000Y-107175157D01*
X232385000Y-107175148D01*
X232396538Y-107058001D01*
X232385000Y-106940854D01*
X232385000Y-102627689D01*
X232533739Y-102268601D01*
X232635000Y-101759525D01*
X232635000Y-101240475D01*
X232533739Y-100731399D01*
X232335107Y-100251859D01*
X232127000Y-99940405D01*
X232127000Y-87056093D01*
X232214113Y-86893116D01*
X232270847Y-86706089D01*
X232350490Y-86443542D01*
X232385000Y-86093157D01*
X232385000Y-86093148D01*
X232396538Y-85976001D01*
X232385000Y-85858854D01*
X232385000Y-81127689D01*
X232533739Y-80768601D01*
X232635000Y-80259525D01*
X232635000Y-79740475D01*
X232533739Y-79231399D01*
X232335107Y-78751859D01*
X232127000Y-78440405D01*
X232127000Y-69000000D01*
X232124560Y-68975224D01*
X232117333Y-68951399D01*
X232105597Y-68929443D01*
X232089803Y-68910197D01*
X232070557Y-68894403D01*
X232048601Y-68882667D01*
X232024776Y-68875440D01*
X232000000Y-68873000D01*
X212569882Y-68873000D01*
X212718715Y-68827852D01*
X212774429Y-68798072D01*
X212940000Y-68798072D01*
X213064482Y-68785812D01*
X213184180Y-68749502D01*
X213294494Y-68690537D01*
X213391185Y-68611185D01*
X213470537Y-68514494D01*
X213529502Y-68404180D01*
X213553966Y-68323534D01*
X213629731Y-68407588D01*
X213863080Y-68581641D01*
X214125901Y-68706825D01*
X214273110Y-68751476D01*
X214503000Y-68630155D01*
X214503000Y-67437000D01*
X214757000Y-67437000D01*
X214757000Y-68630155D01*
X214986890Y-68751476D01*
X215134099Y-68706825D01*
X215396920Y-68581641D01*
X215630269Y-68407588D01*
X215825178Y-68191355D01*
X215974157Y-67941252D01*
X216071481Y-67666891D01*
X215950814Y-67437000D01*
X214757000Y-67437000D01*
X214503000Y-67437000D01*
X214483000Y-67437000D01*
X214483000Y-67183000D01*
X214503000Y-67183000D01*
X214503000Y-65989845D01*
X214757000Y-65989845D01*
X214757000Y-67183000D01*
X215950814Y-67183000D01*
X216071481Y-66953109D01*
X215974157Y-66678748D01*
X215843856Y-66460000D01*
X216951928Y-66460000D01*
X216951928Y-68160000D01*
X216964188Y-68284482D01*
X217000498Y-68404180D01*
X217059463Y-68514494D01*
X217138815Y-68611185D01*
X217235506Y-68690537D01*
X217345820Y-68749502D01*
X217465518Y-68785812D01*
X217590000Y-68798072D01*
X219290000Y-68798072D01*
X219414482Y-68785812D01*
X219534180Y-68749502D01*
X219644494Y-68690537D01*
X219741185Y-68611185D01*
X219820537Y-68514494D01*
X219879502Y-68404180D01*
X219903966Y-68323534D01*
X219979731Y-68407588D01*
X220213080Y-68581641D01*
X220475901Y-68706825D01*
X220623110Y-68751476D01*
X220853000Y-68630155D01*
X220853000Y-67437000D01*
X221107000Y-67437000D01*
X221107000Y-68630155D01*
X221336890Y-68751476D01*
X221484099Y-68706825D01*
X221746920Y-68581641D01*
X221980269Y-68407588D01*
X222175178Y-68191355D01*
X222324157Y-67941252D01*
X222421481Y-67666891D01*
X222300814Y-67437000D01*
X221107000Y-67437000D01*
X220853000Y-67437000D01*
X220833000Y-67437000D01*
X220833000Y-67183000D01*
X220853000Y-67183000D01*
X220853000Y-65989845D01*
X221107000Y-65989845D01*
X221107000Y-67183000D01*
X222300814Y-67183000D01*
X222421481Y-66953109D01*
X222324157Y-66678748D01*
X222175178Y-66428645D01*
X221980269Y-66212412D01*
X221746920Y-66038359D01*
X221484099Y-65913175D01*
X221336890Y-65868524D01*
X221107000Y-65989845D01*
X220853000Y-65989845D01*
X220623110Y-65868524D01*
X220475901Y-65913175D01*
X220213080Y-66038359D01*
X219979731Y-66212412D01*
X219903966Y-66296466D01*
X219879502Y-66215820D01*
X219820537Y-66105506D01*
X219741185Y-66008815D01*
X219644494Y-65929463D01*
X219534180Y-65870498D01*
X219414482Y-65834188D01*
X219290000Y-65821928D01*
X217590000Y-65821928D01*
X217465518Y-65834188D01*
X217345820Y-65870498D01*
X217235506Y-65929463D01*
X217138815Y-66008815D01*
X217059463Y-66105506D01*
X217000498Y-66215820D01*
X216964188Y-66335518D01*
X216951928Y-66460000D01*
X215843856Y-66460000D01*
X215825178Y-66428645D01*
X215630269Y-66212412D01*
X215396920Y-66038359D01*
X215134099Y-65913175D01*
X214986890Y-65868524D01*
X214757000Y-65989845D01*
X214503000Y-65989845D01*
X214273110Y-65868524D01*
X214125901Y-65913175D01*
X213863080Y-66038359D01*
X213629731Y-66212412D01*
X213553966Y-66296466D01*
X213529502Y-66215820D01*
X213470537Y-66105506D01*
X213391185Y-66008815D01*
X213294494Y-65929463D01*
X213184180Y-65870498D01*
X213064482Y-65834188D01*
X212940000Y-65821928D01*
X212774429Y-65821928D01*
X212718715Y-65792148D01*
X212410516Y-65698657D01*
X212170322Y-65675000D01*
X203565000Y-65675000D01*
X203565000Y-65622621D01*
X203674180Y-65589502D01*
X203784494Y-65530537D01*
X203881185Y-65451185D01*
X203960537Y-65354494D01*
X204019502Y-65244180D01*
X204055812Y-65124482D01*
X204068072Y-65000000D01*
X204068072Y-64991653D01*
X205697952Y-64991653D01*
X205853962Y-65307214D01*
X206228745Y-65498020D01*
X206633551Y-65612044D01*
X207052824Y-65644902D01*
X207470451Y-65595334D01*
X207870383Y-65465243D01*
X208166038Y-65307214D01*
X208322048Y-64991653D01*
X207010000Y-63679605D01*
X205697952Y-64991653D01*
X204068072Y-64991653D01*
X204068072Y-63542824D01*
X204865098Y-63542824D01*
X204914666Y-63960451D01*
X205044757Y-64360383D01*
X205202786Y-64656038D01*
X205518347Y-64812048D01*
X206830395Y-63500000D01*
X207189605Y-63500000D01*
X208501653Y-64812048D01*
X208817214Y-64656038D01*
X209008020Y-64281255D01*
X209122044Y-63876449D01*
X209154902Y-63457176D01*
X209117492Y-63141984D01*
X224965000Y-63141984D01*
X224965000Y-63858016D01*
X225104691Y-64560290D01*
X225378705Y-65221818D01*
X225776511Y-65817177D01*
X226282823Y-66323489D01*
X226878182Y-66721295D01*
X227539710Y-66995309D01*
X228241984Y-67135000D01*
X228958016Y-67135000D01*
X229660290Y-66995309D01*
X230321818Y-66721295D01*
X230917177Y-66323489D01*
X231423489Y-65817177D01*
X231821295Y-65221818D01*
X232095309Y-64560290D01*
X232235000Y-63858016D01*
X232235000Y-63141984D01*
X232095309Y-62439710D01*
X231821295Y-61778182D01*
X231423489Y-61182823D01*
X230917177Y-60676511D01*
X230321818Y-60278705D01*
X229660290Y-60004691D01*
X228958016Y-59865000D01*
X228241984Y-59865000D01*
X227539710Y-60004691D01*
X226878182Y-60278705D01*
X226282823Y-60676511D01*
X225776511Y-61182823D01*
X225378705Y-61778182D01*
X225104691Y-62439710D01*
X224965000Y-63141984D01*
X209117492Y-63141984D01*
X209105334Y-63039549D01*
X208975243Y-62639617D01*
X208817214Y-62343962D01*
X208501653Y-62187952D01*
X207189605Y-63500000D01*
X206830395Y-63500000D01*
X205518347Y-62187952D01*
X205202786Y-62343962D01*
X205011980Y-62718745D01*
X204897956Y-63123551D01*
X204865098Y-63542824D01*
X204068072Y-63542824D01*
X204068072Y-62008347D01*
X205697952Y-62008347D01*
X207010000Y-63320395D01*
X208322048Y-62008347D01*
X208166038Y-61692786D01*
X207791255Y-61501980D01*
X207386449Y-61387956D01*
X206967176Y-61355098D01*
X206549549Y-61404666D01*
X206149617Y-61534757D01*
X205853962Y-61692786D01*
X205697952Y-62008347D01*
X204068072Y-62008347D01*
X204068072Y-62000000D01*
X204055812Y-61875518D01*
X204019502Y-61755820D01*
X203960537Y-61645506D01*
X203881185Y-61548815D01*
X203784494Y-61469463D01*
X203674180Y-61410498D01*
X203554482Y-61374188D01*
X203430000Y-61361928D01*
X200430000Y-61361928D01*
X200305518Y-61374188D01*
X200185820Y-61410498D01*
X200075506Y-61469463D01*
X199978815Y-61548815D01*
X199899463Y-61645506D01*
X199840498Y-61755820D01*
X199804188Y-61875518D01*
X199791928Y-62000000D01*
X199791928Y-65000000D01*
X199804188Y-65124482D01*
X199840498Y-65244180D01*
X199899463Y-65354494D01*
X199978815Y-65451185D01*
X200075506Y-65530537D01*
X200185820Y-65589502D01*
X200295001Y-65622622D01*
X200295001Y-65675000D01*
X197627000Y-65675000D01*
X197627000Y-59127000D01*
X232873000Y-59127000D01*
X232873000Y-163873000D01*
G36*
X182251285Y-59188148D02*
G01*
X181967248Y-59339969D01*
X181718286Y-59544286D01*
X181667079Y-59606682D01*
X180088686Y-61185075D01*
X180026286Y-61236286D01*
X179821969Y-61485249D01*
X179670148Y-61769286D01*
X179576657Y-62077485D01*
X179553033Y-62317343D01*
X179545089Y-62398000D01*
X179553000Y-62478320D01*
X179553001Y-63824039D01*
X179517534Y-63877118D01*
X179375439Y-64220166D01*
X179303000Y-64584344D01*
X179303000Y-64955656D01*
X179375439Y-65319834D01*
X179517534Y-65662882D01*
X179723825Y-65971618D01*
X179986382Y-66234175D01*
X180295118Y-66440466D01*
X180638166Y-66582561D01*
X181002344Y-66655000D01*
X181373656Y-66655000D01*
X181737834Y-66582561D01*
X182080882Y-66440466D01*
X182389618Y-66234175D01*
X182652175Y-65971618D01*
X182858466Y-65662882D01*
X183000561Y-65319834D01*
X183073000Y-64955656D01*
X183073000Y-64584344D01*
X183000561Y-64220166D01*
X182858466Y-63877118D01*
X182823000Y-63824039D01*
X182823000Y-63075238D01*
X183557239Y-62341000D01*
X186392159Y-62341000D01*
X186381688Y-62375518D01*
X186369428Y-62500000D01*
X186369428Y-64500000D01*
X186381688Y-64624482D01*
X186417998Y-64744180D01*
X186476963Y-64854494D01*
X186556315Y-64951185D01*
X186653006Y-65030537D01*
X186763320Y-65089502D01*
X186883018Y-65125812D01*
X187007500Y-65138072D01*
X187075000Y-65138072D01*
X187075001Y-68873000D01*
X161815000Y-68873000D01*
X161815000Y-66405000D01*
X164242039Y-66405000D01*
X164295118Y-66440466D01*
X164638166Y-66582561D01*
X165002344Y-66655000D01*
X165373656Y-66655000D01*
X165737834Y-66582561D01*
X166080882Y-66440466D01*
X166389618Y-66234175D01*
X166652175Y-65971618D01*
X166858466Y-65662882D01*
X167000561Y-65319834D01*
X167073000Y-64955656D01*
X167073000Y-64584344D01*
X174303000Y-64584344D01*
X174303000Y-64955656D01*
X174375439Y-65319834D01*
X174517534Y-65662882D01*
X174723825Y-65971618D01*
X174986382Y-66234175D01*
X175295118Y-66440466D01*
X175638166Y-66582561D01*
X176002344Y-66655000D01*
X176373656Y-66655000D01*
X176737834Y-66582561D01*
X177080882Y-66440466D01*
X177389618Y-66234175D01*
X177652175Y-65971618D01*
X177858466Y-65662882D01*
X178000561Y-65319834D01*
X178073000Y-64955656D01*
X178073000Y-64584344D01*
X178000561Y-64220166D01*
X177858466Y-63877118D01*
X177652175Y-63568382D01*
X177389618Y-63305825D01*
X177080882Y-63099534D01*
X176737834Y-62957439D01*
X176373656Y-62885000D01*
X176002344Y-62885000D01*
X175638166Y-62957439D01*
X175295118Y-63099534D01*
X174986382Y-63305825D01*
X174723825Y-63568382D01*
X174517534Y-63877118D01*
X174375439Y-64220166D01*
X174303000Y-64584344D01*
X167073000Y-64584344D01*
X167000561Y-64220166D01*
X166858466Y-63877118D01*
X166652175Y-63568382D01*
X166389618Y-63305825D01*
X166080882Y-63099534D01*
X165737834Y-62957439D01*
X165373656Y-62885000D01*
X165002344Y-62885000D01*
X164638166Y-62957439D01*
X164295118Y-63099534D01*
X164242039Y-63135000D01*
X161133961Y-63135000D01*
X161080882Y-63099534D01*
X160737834Y-62957439D01*
X160373656Y-62885000D01*
X160002344Y-62885000D01*
X159638166Y-62957439D01*
X159295118Y-63099534D01*
X158986382Y-63305825D01*
X158723825Y-63568382D01*
X158517534Y-63877118D01*
X158375439Y-64220166D01*
X158303000Y-64584344D01*
X158303000Y-64955656D01*
X158375439Y-65319834D01*
X158517534Y-65662882D01*
X158545000Y-65703988D01*
X158545001Y-68758760D01*
X158430761Y-68873000D01*
X153500000Y-68873000D01*
X153475224Y-68875440D01*
X153451399Y-68882667D01*
X153429443Y-68894403D01*
X153410197Y-68910197D01*
X153394403Y-68929443D01*
X153382667Y-68951399D01*
X153375440Y-68975224D01*
X153373000Y-69000000D01*
X153373000Y-71725244D01*
X153356212Y-71704788D01*
X153179578Y-71559829D01*
X152978059Y-71452115D01*
X152759399Y-71385785D01*
X152532000Y-71363388D01*
X152304600Y-71385785D01*
X152085940Y-71452115D01*
X151897000Y-71553106D01*
X151708059Y-71452115D01*
X151489399Y-71385785D01*
X151262000Y-71363388D01*
X151034600Y-71385785D01*
X150825902Y-71449093D01*
X150761180Y-71414498D01*
X150641482Y-71378188D01*
X150517000Y-71365928D01*
X149467000Y-71365928D01*
X149342518Y-71378188D01*
X149222820Y-71414498D01*
X149112506Y-71473463D01*
X149015815Y-71552815D01*
X148936463Y-71649506D01*
X148877498Y-71759820D01*
X148841188Y-71879518D01*
X148828928Y-72004000D01*
X148828928Y-73504000D01*
X148841188Y-73628482D01*
X148877498Y-73748180D01*
X148936463Y-73858494D01*
X149015815Y-73955185D01*
X149112506Y-74034537D01*
X149222820Y-74093502D01*
X149342518Y-74129812D01*
X149467000Y-74142072D01*
X150377000Y-74142072D01*
X150377001Y-86605928D01*
X149467000Y-86605928D01*
X149342518Y-86618188D01*
X149222820Y-86654498D01*
X149112506Y-86713463D01*
X149015815Y-86792815D01*
X148936463Y-86889506D01*
X148877498Y-86999820D01*
X148841188Y-87119518D01*
X148828928Y-87244000D01*
X148828928Y-88744000D01*
X148841188Y-88868482D01*
X148877498Y-88988180D01*
X148936463Y-89098494D01*
X149015815Y-89195185D01*
X149112506Y-89274537D01*
X149222820Y-89333502D01*
X149342518Y-89369812D01*
X149467000Y-89382072D01*
X150517000Y-89382072D01*
X150641482Y-89369812D01*
X150761180Y-89333502D01*
X150825902Y-89298907D01*
X151034601Y-89362215D01*
X151262000Y-89384612D01*
X151489400Y-89362215D01*
X151708060Y-89295885D01*
X151897001Y-89194894D01*
X152085941Y-89295885D01*
X152304601Y-89362215D01*
X152532000Y-89384612D01*
X152759400Y-89362215D01*
X152978060Y-89295885D01*
X153179579Y-89188171D01*
X153356212Y-89043212D01*
X153373000Y-89022756D01*
X153373000Y-93368585D01*
X153369171Y-93361421D01*
X153224212Y-93184788D01*
X153047578Y-93039829D01*
X152846059Y-92932115D01*
X152627399Y-92865785D01*
X152400000Y-92843388D01*
X152172600Y-92865785D01*
X151953940Y-92932115D01*
X151765000Y-93033106D01*
X151576059Y-92932115D01*
X151357399Y-92865785D01*
X151130000Y-92843388D01*
X150902600Y-92865785D01*
X150693902Y-92929093D01*
X150629180Y-92894498D01*
X150509482Y-92858188D01*
X150385000Y-92845928D01*
X149335000Y-92845928D01*
X149210518Y-92858188D01*
X149090820Y-92894498D01*
X148980506Y-92953463D01*
X148883815Y-93032815D01*
X148804463Y-93129506D01*
X148745498Y-93239820D01*
X148709188Y-93359518D01*
X148696928Y-93484000D01*
X148696928Y-94984000D01*
X148709188Y-95108482D01*
X148745498Y-95228180D01*
X148804463Y-95338494D01*
X148883815Y-95435185D01*
X148980506Y-95514537D01*
X149090820Y-95573502D01*
X149210518Y-95609812D01*
X149335000Y-95622072D01*
X150245000Y-95622072D01*
X150245001Y-108085928D01*
X149335000Y-108085928D01*
X149210518Y-108098188D01*
X149090820Y-108134498D01*
X148980506Y-108193463D01*
X148883815Y-108272815D01*
X148804463Y-108369506D01*
X148745498Y-108479820D01*
X148709188Y-108599518D01*
X148696928Y-108724000D01*
X148696928Y-110224000D01*
X148709188Y-110348482D01*
X148745498Y-110468180D01*
X148804463Y-110578494D01*
X148883815Y-110675185D01*
X148980506Y-110754537D01*
X149090820Y-110813502D01*
X149210518Y-110849812D01*
X149335000Y-110862072D01*
X150385000Y-110862072D01*
X150509482Y-110849812D01*
X150629180Y-110813502D01*
X150693902Y-110778907D01*
X150902601Y-110842215D01*
X151130000Y-110864612D01*
X151357400Y-110842215D01*
X151576060Y-110775885D01*
X151765000Y-110674894D01*
X151953941Y-110775885D01*
X152172601Y-110842215D01*
X152400000Y-110864612D01*
X152627400Y-110842215D01*
X152846060Y-110775885D01*
X153047579Y-110668171D01*
X153224212Y-110523212D01*
X153369171Y-110346579D01*
X153373000Y-110339415D01*
X153373000Y-114704585D01*
X153369171Y-114697421D01*
X153224212Y-114520788D01*
X153047578Y-114375829D01*
X152846059Y-114268115D01*
X152627399Y-114201785D01*
X152400000Y-114179388D01*
X152172600Y-114201785D01*
X151953940Y-114268115D01*
X151765000Y-114369106D01*
X151576059Y-114268115D01*
X151357399Y-114201785D01*
X151130000Y-114179388D01*
X150902600Y-114201785D01*
X150693902Y-114265093D01*
X150629180Y-114230498D01*
X150509482Y-114194188D01*
X150385000Y-114181928D01*
X149335000Y-114181928D01*
X149210518Y-114194188D01*
X149090820Y-114230498D01*
X148980506Y-114289463D01*
X148883815Y-114368815D01*
X148804463Y-114465506D01*
X148745498Y-114575820D01*
X148709188Y-114695518D01*
X148696928Y-114820000D01*
X148696928Y-116320000D01*
X148709188Y-116444482D01*
X148745498Y-116564180D01*
X148804463Y-116674494D01*
X148883815Y-116771185D01*
X148980506Y-116850537D01*
X149090820Y-116909502D01*
X149210518Y-116945812D01*
X149335000Y-116958072D01*
X150245000Y-116958072D01*
X150245001Y-129421928D01*
X149335000Y-129421928D01*
X149210518Y-129434188D01*
X149090820Y-129470498D01*
X148980506Y-129529463D01*
X148883815Y-129608815D01*
X148804463Y-129705506D01*
X148745498Y-129815820D01*
X148709188Y-129935518D01*
X148696928Y-130060000D01*
X148696928Y-131560000D01*
X148709188Y-131684482D01*
X148745498Y-131804180D01*
X148804463Y-131914494D01*
X148883815Y-132011185D01*
X148980506Y-132090537D01*
X149090820Y-132149502D01*
X149210518Y-132185812D01*
X149335000Y-132198072D01*
X150385000Y-132198072D01*
X150509482Y-132185812D01*
X150629180Y-132149502D01*
X150693902Y-132114907D01*
X150902601Y-132178215D01*
X151130000Y-132200612D01*
X151357400Y-132178215D01*
X151576060Y-132111885D01*
X151765001Y-132010894D01*
X151953941Y-132111885D01*
X152172601Y-132178215D01*
X152400000Y-132200612D01*
X152627400Y-132178215D01*
X152846060Y-132111885D01*
X153047579Y-132004171D01*
X153224212Y-131859212D01*
X153369171Y-131682579D01*
X153373000Y-131675415D01*
X153373000Y-134000000D01*
X153375440Y-134024776D01*
X153382667Y-134048601D01*
X153394403Y-134070557D01*
X153410197Y-134089803D01*
X153429443Y-134105597D01*
X153451399Y-134117333D01*
X153475224Y-134124560D01*
X153500000Y-134127000D01*
X161373000Y-134127000D01*
X161373000Y-134254100D01*
X155396395Y-140230706D01*
X155305391Y-140305391D01*
X155230708Y-140396393D01*
X155007351Y-140668555D01*
X154785887Y-141082885D01*
X154649510Y-141532459D01*
X154603461Y-142000000D01*
X154615000Y-142117157D01*
X154615000Y-144617157D01*
X154649510Y-144967542D01*
X154785887Y-145417116D01*
X155007352Y-145831446D01*
X155305392Y-146194609D01*
X155668555Y-146492649D01*
X156082885Y-146714113D01*
X156532459Y-146850490D01*
X157000000Y-146896539D01*
X157467542Y-146850490D01*
X157917116Y-146714113D01*
X158331446Y-146492649D01*
X158694609Y-146194609D01*
X158992649Y-145831446D01*
X159214113Y-145417116D01*
X159350490Y-144967542D01*
X159385000Y-144617157D01*
X159385000Y-142987899D01*
X161373000Y-140999899D01*
X161373000Y-148259000D01*
X157321079Y-148259000D01*
X153285000Y-144222922D01*
X153285000Y-138135142D01*
X153369171Y-138032579D01*
X153476885Y-137831059D01*
X153543215Y-137612399D01*
X153560000Y-137441978D01*
X153560000Y-136878021D01*
X153543215Y-136707600D01*
X153476885Y-136488940D01*
X153369171Y-136287421D01*
X153224212Y-136110788D01*
X153047578Y-135965829D01*
X152846059Y-135858115D01*
X152627399Y-135791785D01*
X152400000Y-135769388D01*
X152172600Y-135791785D01*
X151953940Y-135858115D01*
X151765331Y-135958929D01*
X151706882Y-135917725D01*
X151497337Y-135824728D01*
X151435810Y-135816036D01*
X151257000Y-135941837D01*
X151257000Y-136706892D01*
X151256785Y-136707601D01*
X151240000Y-136878022D01*
X151240000Y-137441979D01*
X151256785Y-137612400D01*
X151257000Y-137613109D01*
X151257000Y-138378163D01*
X151435810Y-138503964D01*
X151497337Y-138495272D01*
X151515000Y-138487433D01*
X151515001Y-144546021D01*
X151510719Y-144589500D01*
X151527805Y-144762990D01*
X151578412Y-144929813D01*
X151660590Y-145083559D01*
X151743468Y-145184546D01*
X151743471Y-145184549D01*
X151771184Y-145218317D01*
X151804952Y-145246030D01*
X156315472Y-149756551D01*
X156343183Y-149790317D01*
X156376949Y-149818028D01*
X156376953Y-149818032D01*
X156477940Y-149900910D01*
X156631686Y-149983088D01*
X156682293Y-149998440D01*
X156798510Y-150033695D01*
X156954913Y-150049098D01*
X156971999Y-150050781D01*
X156972000Y-150050781D01*
X157145490Y-150033695D01*
X157160967Y-150029000D01*
X161373000Y-150029000D01*
X161373000Y-156240000D01*
X158037333Y-156240000D01*
X158000000Y-156236323D01*
X157962667Y-156240000D01*
X157851014Y-156250997D01*
X157707753Y-156294454D01*
X157575724Y-156365026D01*
X157459999Y-156459999D01*
X157365026Y-156575724D01*
X157294454Y-156707753D01*
X157250997Y-156851014D01*
X157236323Y-157000000D01*
X157240000Y-157037333D01*
X157240001Y-162962657D01*
X157236323Y-163000000D01*
X157250997Y-163148986D01*
X157294454Y-163292247D01*
X157365026Y-163424276D01*
X157459999Y-163540001D01*
X157575724Y-163634974D01*
X157707753Y-163705546D01*
X157851014Y-163749003D01*
X157962667Y-163760000D01*
X158000000Y-163763677D01*
X158037333Y-163760000D01*
X161373000Y-163760000D01*
X161373000Y-163873000D01*
X148127000Y-163873000D01*
X148127000Y-159661984D01*
X148765000Y-159661984D01*
X148765000Y-160378016D01*
X148904691Y-161080290D01*
X149178705Y-161741818D01*
X149576511Y-162337177D01*
X150082823Y-162843489D01*
X150678182Y-163241295D01*
X151339710Y-163515309D01*
X152041984Y-163655000D01*
X152758016Y-163655000D01*
X153460290Y-163515309D01*
X154121818Y-163241295D01*
X154717177Y-162843489D01*
X155223489Y-162337177D01*
X155621295Y-161741818D01*
X155895309Y-161080290D01*
X156035000Y-160378016D01*
X156035000Y-159661984D01*
X155895309Y-158959710D01*
X155621295Y-158298182D01*
X155223489Y-157702823D01*
X154717177Y-157196511D01*
X154121818Y-156798705D01*
X153460290Y-156524691D01*
X152758016Y-156385000D01*
X152041984Y-156385000D01*
X151339710Y-156524691D01*
X150678182Y-156798705D01*
X150082823Y-157196511D01*
X149576511Y-157702823D01*
X149178705Y-158298182D01*
X148904691Y-158959710D01*
X148765000Y-159661984D01*
X148127000Y-159661984D01*
X148127000Y-151650000D01*
X148696928Y-151650000D01*
X148696928Y-153150000D01*
X148709188Y-153274482D01*
X148745498Y-153394180D01*
X148804463Y-153504494D01*
X148883815Y-153601185D01*
X148980506Y-153680537D01*
X149090820Y-153739502D01*
X149210518Y-153775812D01*
X149335000Y-153788072D01*
X150385000Y-153788072D01*
X150509482Y-153775812D01*
X150629180Y-153739502D01*
X150694057Y-153704824D01*
X150762663Y-153735272D01*
X150824190Y-153743964D01*
X151003000Y-153618163D01*
X151003000Y-153300235D01*
X151010812Y-153274482D01*
X151023072Y-153150000D01*
X151023072Y-152118022D01*
X151240000Y-152118022D01*
X151240000Y-152681979D01*
X151256785Y-152852400D01*
X151257000Y-152853109D01*
X151257000Y-153618163D01*
X151435810Y-153743964D01*
X151497337Y-153735272D01*
X151706882Y-153642275D01*
X151765331Y-153601071D01*
X151953941Y-153701885D01*
X152172601Y-153768215D01*
X152400000Y-153790612D01*
X152627400Y-153768215D01*
X152846060Y-153701885D01*
X153047579Y-153594171D01*
X153224212Y-153449212D01*
X153369171Y-153272579D01*
X153476885Y-153071059D01*
X153543215Y-152852399D01*
X153560000Y-152681978D01*
X153560000Y-152118021D01*
X153543215Y-151947600D01*
X153476885Y-151728940D01*
X153369171Y-151527421D01*
X153224212Y-151350788D01*
X153047578Y-151205829D01*
X152846059Y-151098115D01*
X152627399Y-151031785D01*
X152400000Y-151009388D01*
X152172600Y-151031785D01*
X151953940Y-151098115D01*
X151765331Y-151198929D01*
X151706882Y-151157725D01*
X151497337Y-151064728D01*
X151435810Y-151056036D01*
X151257000Y-151181837D01*
X151257000Y-151946892D01*
X151256785Y-151947601D01*
X151240000Y-152118022D01*
X151023072Y-152118022D01*
X151023072Y-151650000D01*
X151010812Y-151525518D01*
X151003000Y-151499765D01*
X151003000Y-151181837D01*
X150824190Y-151056036D01*
X150762663Y-151064728D01*
X150694057Y-151095176D01*
X150629180Y-151060498D01*
X150509482Y-151024188D01*
X150385000Y-151011928D01*
X149335000Y-151011928D01*
X149210518Y-151024188D01*
X149090820Y-151060498D01*
X148980506Y-151119463D01*
X148883815Y-151198815D01*
X148804463Y-151295506D01*
X148745498Y-151405820D01*
X148709188Y-151525518D01*
X148696928Y-151650000D01*
X148127000Y-151650000D01*
X148127000Y-136410000D01*
X148696928Y-136410000D01*
X148696928Y-137910000D01*
X148709188Y-138034482D01*
X148745498Y-138154180D01*
X148804463Y-138264494D01*
X148883815Y-138361185D01*
X148980506Y-138440537D01*
X149090820Y-138499502D01*
X149210518Y-138535812D01*
X149335000Y-138548072D01*
X150385000Y-138548072D01*
X150509482Y-138535812D01*
X150629180Y-138499502D01*
X150694057Y-138464824D01*
X150762663Y-138495272D01*
X150824190Y-138503964D01*
X151003000Y-138378163D01*
X151003000Y-138060235D01*
X151010812Y-138034482D01*
X151023072Y-137910000D01*
X151023072Y-136410000D01*
X151010812Y-136285518D01*
X151003000Y-136259765D01*
X151003000Y-135941837D01*
X150824190Y-135816036D01*
X150762663Y-135824728D01*
X150694057Y-135855176D01*
X150629180Y-135820498D01*
X150509482Y-135784188D01*
X150385000Y-135771928D01*
X149335000Y-135771928D01*
X149210518Y-135784188D01*
X149090820Y-135820498D01*
X148980506Y-135879463D01*
X148883815Y-135958815D01*
X148804463Y-136055506D01*
X148745498Y-136165820D01*
X148709188Y-136285518D01*
X148696928Y-136410000D01*
X148127000Y-136410000D01*
X148127000Y-63141984D01*
X148765000Y-63141984D01*
X148765000Y-63858016D01*
X148904691Y-64560290D01*
X149178705Y-65221818D01*
X149576511Y-65817177D01*
X150082823Y-66323489D01*
X150678182Y-66721295D01*
X151339710Y-66995309D01*
X152041984Y-67135000D01*
X152758016Y-67135000D01*
X153460290Y-66995309D01*
X154121818Y-66721295D01*
X154717177Y-66323489D01*
X155223489Y-65817177D01*
X155621295Y-65221818D01*
X155895309Y-64560290D01*
X156035000Y-63858016D01*
X156035000Y-63141984D01*
X155895309Y-62439710D01*
X155621295Y-61778182D01*
X155223489Y-61182823D01*
X154717177Y-60676511D01*
X154121818Y-60278705D01*
X153460290Y-60004691D01*
X152758016Y-59865000D01*
X152041984Y-59865000D01*
X151339710Y-60004691D01*
X150678182Y-60278705D01*
X150082823Y-60676511D01*
X149576511Y-61182823D01*
X149178705Y-61778182D01*
X148904691Y-62439710D01*
X148765000Y-63141984D01*
X148127000Y-63141984D01*
X148127000Y-59127000D01*
X182452863Y-59127000D01*
X182251285Y-59188148D01*
G37*
X182251285Y-59188148D02*
X181967248Y-59339969D01*
X181718286Y-59544286D01*
X181667079Y-59606682D01*
X180088686Y-61185075D01*
X180026286Y-61236286D01*
X179821969Y-61485249D01*
X179670148Y-61769286D01*
X179576657Y-62077485D01*
X179553033Y-62317343D01*
X179545089Y-62398000D01*
X179553000Y-62478320D01*
X179553001Y-63824039D01*
X179517534Y-63877118D01*
X179375439Y-64220166D01*
X179303000Y-64584344D01*
X179303000Y-64955656D01*
X179375439Y-65319834D01*
X179517534Y-65662882D01*
X179723825Y-65971618D01*
X179986382Y-66234175D01*
X180295118Y-66440466D01*
X180638166Y-66582561D01*
X181002344Y-66655000D01*
X181373656Y-66655000D01*
X181737834Y-66582561D01*
X182080882Y-66440466D01*
X182389618Y-66234175D01*
X182652175Y-65971618D01*
X182858466Y-65662882D01*
X183000561Y-65319834D01*
X183073000Y-64955656D01*
X183073000Y-64584344D01*
X183000561Y-64220166D01*
X182858466Y-63877118D01*
X182823000Y-63824039D01*
X182823000Y-63075238D01*
X183557239Y-62341000D01*
X186392159Y-62341000D01*
X186381688Y-62375518D01*
X186369428Y-62500000D01*
X186369428Y-64500000D01*
X186381688Y-64624482D01*
X186417998Y-64744180D01*
X186476963Y-64854494D01*
X186556315Y-64951185D01*
X186653006Y-65030537D01*
X186763320Y-65089502D01*
X186883018Y-65125812D01*
X187007500Y-65138072D01*
X187075000Y-65138072D01*
X187075001Y-68873000D01*
X161815000Y-68873000D01*
X161815000Y-66405000D01*
X164242039Y-66405000D01*
X164295118Y-66440466D01*
X164638166Y-66582561D01*
X165002344Y-66655000D01*
X165373656Y-66655000D01*
X165737834Y-66582561D01*
X166080882Y-66440466D01*
X166389618Y-66234175D01*
X166652175Y-65971618D01*
X166858466Y-65662882D01*
X167000561Y-65319834D01*
X167073000Y-64955656D01*
X167073000Y-64584344D01*
X174303000Y-64584344D01*
X174303000Y-64955656D01*
X174375439Y-65319834D01*
X174517534Y-65662882D01*
X174723825Y-65971618D01*
X174986382Y-66234175D01*
X175295118Y-66440466D01*
X175638166Y-66582561D01*
X176002344Y-66655000D01*
X176373656Y-66655000D01*
X176737834Y-66582561D01*
X177080882Y-66440466D01*
X177389618Y-66234175D01*
X177652175Y-65971618D01*
X177858466Y-65662882D01*
X178000561Y-65319834D01*
X178073000Y-64955656D01*
X178073000Y-64584344D01*
X178000561Y-64220166D01*
X177858466Y-63877118D01*
X177652175Y-63568382D01*
X177389618Y-63305825D01*
X177080882Y-63099534D01*
X176737834Y-62957439D01*
X176373656Y-62885000D01*
X176002344Y-62885000D01*
X175638166Y-62957439D01*
X175295118Y-63099534D01*
X174986382Y-63305825D01*
X174723825Y-63568382D01*
X174517534Y-63877118D01*
X174375439Y-64220166D01*
X174303000Y-64584344D01*
X167073000Y-64584344D01*
X167000561Y-64220166D01*
X166858466Y-63877118D01*
X166652175Y-63568382D01*
X166389618Y-63305825D01*
X166080882Y-63099534D01*
X165737834Y-62957439D01*
X165373656Y-62885000D01*
X165002344Y-62885000D01*
X164638166Y-62957439D01*
X164295118Y-63099534D01*
X164242039Y-63135000D01*
X161133961Y-63135000D01*
X161080882Y-63099534D01*
X160737834Y-62957439D01*
X160373656Y-62885000D01*
X160002344Y-62885000D01*
X159638166Y-62957439D01*
X159295118Y-63099534D01*
X158986382Y-63305825D01*
X158723825Y-63568382D01*
X158517534Y-63877118D01*
X158375439Y-64220166D01*
X158303000Y-64584344D01*
X158303000Y-64955656D01*
X158375439Y-65319834D01*
X158517534Y-65662882D01*
X158545000Y-65703988D01*
X158545001Y-68758760D01*
X158430761Y-68873000D01*
X153500000Y-68873000D01*
X153475224Y-68875440D01*
X153451399Y-68882667D01*
X153429443Y-68894403D01*
X153410197Y-68910197D01*
X153394403Y-68929443D01*
X153382667Y-68951399D01*
X153375440Y-68975224D01*
X153373000Y-69000000D01*
X153373000Y-71725244D01*
X153356212Y-71704788D01*
X153179578Y-71559829D01*
X152978059Y-71452115D01*
X152759399Y-71385785D01*
X152532000Y-71363388D01*
X152304600Y-71385785D01*
X152085940Y-71452115D01*
X151897000Y-71553106D01*
X151708059Y-71452115D01*
X151489399Y-71385785D01*
X151262000Y-71363388D01*
X151034600Y-71385785D01*
X150825902Y-71449093D01*
X150761180Y-71414498D01*
X150641482Y-71378188D01*
X150517000Y-71365928D01*
X149467000Y-71365928D01*
X149342518Y-71378188D01*
X149222820Y-71414498D01*
X149112506Y-71473463D01*
X149015815Y-71552815D01*
X148936463Y-71649506D01*
X148877498Y-71759820D01*
X148841188Y-71879518D01*
X148828928Y-72004000D01*
X148828928Y-73504000D01*
X148841188Y-73628482D01*
X148877498Y-73748180D01*
X148936463Y-73858494D01*
X149015815Y-73955185D01*
X149112506Y-74034537D01*
X149222820Y-74093502D01*
X149342518Y-74129812D01*
X149467000Y-74142072D01*
X150377000Y-74142072D01*
X150377001Y-86605928D01*
X149467000Y-86605928D01*
X149342518Y-86618188D01*
X149222820Y-86654498D01*
X149112506Y-86713463D01*
X149015815Y-86792815D01*
X148936463Y-86889506D01*
X148877498Y-86999820D01*
X148841188Y-87119518D01*
X148828928Y-87244000D01*
X148828928Y-88744000D01*
X148841188Y-88868482D01*
X148877498Y-88988180D01*
X148936463Y-89098494D01*
X149015815Y-89195185D01*
X149112506Y-89274537D01*
X149222820Y-89333502D01*
X149342518Y-89369812D01*
X149467000Y-89382072D01*
X150517000Y-89382072D01*
X150641482Y-89369812D01*
X150761180Y-89333502D01*
X150825902Y-89298907D01*
X151034601Y-89362215D01*
X151262000Y-89384612D01*
X151489400Y-89362215D01*
X151708060Y-89295885D01*
X151897001Y-89194894D01*
X152085941Y-89295885D01*
X152304601Y-89362215D01*
X152532000Y-89384612D01*
X152759400Y-89362215D01*
X152978060Y-89295885D01*
X153179579Y-89188171D01*
X153356212Y-89043212D01*
X153373000Y-89022756D01*
X153373000Y-93368585D01*
X153369171Y-93361421D01*
X153224212Y-93184788D01*
X153047578Y-93039829D01*
X152846059Y-92932115D01*
X152627399Y-92865785D01*
X152400000Y-92843388D01*
X152172600Y-92865785D01*
X151953940Y-92932115D01*
X151765000Y-93033106D01*
X151576059Y-92932115D01*
X151357399Y-92865785D01*
X151130000Y-92843388D01*
X150902600Y-92865785D01*
X150693902Y-92929093D01*
X150629180Y-92894498D01*
X150509482Y-92858188D01*
X150385000Y-92845928D01*
X149335000Y-92845928D01*
X149210518Y-92858188D01*
X149090820Y-92894498D01*
X148980506Y-92953463D01*
X148883815Y-93032815D01*
X148804463Y-93129506D01*
X148745498Y-93239820D01*
X148709188Y-93359518D01*
X148696928Y-93484000D01*
X148696928Y-94984000D01*
X148709188Y-95108482D01*
X148745498Y-95228180D01*
X148804463Y-95338494D01*
X148883815Y-95435185D01*
X148980506Y-95514537D01*
X149090820Y-95573502D01*
X149210518Y-95609812D01*
X149335000Y-95622072D01*
X150245000Y-95622072D01*
X150245001Y-108085928D01*
X149335000Y-108085928D01*
X149210518Y-108098188D01*
X149090820Y-108134498D01*
X148980506Y-108193463D01*
X148883815Y-108272815D01*
X148804463Y-108369506D01*
X148745498Y-108479820D01*
X148709188Y-108599518D01*
X148696928Y-108724000D01*
X148696928Y-110224000D01*
X148709188Y-110348482D01*
X148745498Y-110468180D01*
X148804463Y-110578494D01*
X148883815Y-110675185D01*
X148980506Y-110754537D01*
X149090820Y-110813502D01*
X149210518Y-110849812D01*
X149335000Y-110862072D01*
X150385000Y-110862072D01*
X150509482Y-110849812D01*
X150629180Y-110813502D01*
X150693902Y-110778907D01*
X150902601Y-110842215D01*
X151130000Y-110864612D01*
X151357400Y-110842215D01*
X151576060Y-110775885D01*
X151765000Y-110674894D01*
X151953941Y-110775885D01*
X152172601Y-110842215D01*
X152400000Y-110864612D01*
X152627400Y-110842215D01*
X152846060Y-110775885D01*
X153047579Y-110668171D01*
X153224212Y-110523212D01*
X153369171Y-110346579D01*
X153373000Y-110339415D01*
X153373000Y-114704585D01*
X153369171Y-114697421D01*
X153224212Y-114520788D01*
X153047578Y-114375829D01*
X152846059Y-114268115D01*
X152627399Y-114201785D01*
X152400000Y-114179388D01*
X152172600Y-114201785D01*
X151953940Y-114268115D01*
X151765000Y-114369106D01*
X151576059Y-114268115D01*
X151357399Y-114201785D01*
X151130000Y-114179388D01*
X150902600Y-114201785D01*
X150693902Y-114265093D01*
X150629180Y-114230498D01*
X150509482Y-114194188D01*
X150385000Y-114181928D01*
X149335000Y-114181928D01*
X149210518Y-114194188D01*
X149090820Y-114230498D01*
X148980506Y-114289463D01*
X148883815Y-114368815D01*
X148804463Y-114465506D01*
X148745498Y-114575820D01*
X148709188Y-114695518D01*
X148696928Y-114820000D01*
X148696928Y-116320000D01*
X148709188Y-116444482D01*
X148745498Y-116564180D01*
X148804463Y-116674494D01*
X148883815Y-116771185D01*
X148980506Y-116850537D01*
X149090820Y-116909502D01*
X149210518Y-116945812D01*
X149335000Y-116958072D01*
X150245000Y-116958072D01*
X150245001Y-129421928D01*
X149335000Y-129421928D01*
X149210518Y-129434188D01*
X149090820Y-129470498D01*
X148980506Y-129529463D01*
X148883815Y-129608815D01*
X148804463Y-129705506D01*
X148745498Y-129815820D01*
X148709188Y-129935518D01*
X148696928Y-130060000D01*
X148696928Y-131560000D01*
X148709188Y-131684482D01*
X148745498Y-131804180D01*
X148804463Y-131914494D01*
X148883815Y-132011185D01*
X148980506Y-132090537D01*
X149090820Y-132149502D01*
X149210518Y-132185812D01*
X149335000Y-132198072D01*
X150385000Y-132198072D01*
X150509482Y-132185812D01*
X150629180Y-132149502D01*
X150693902Y-132114907D01*
X150902601Y-132178215D01*
X151130000Y-132200612D01*
X151357400Y-132178215D01*
X151576060Y-132111885D01*
X151765001Y-132010894D01*
X151953941Y-132111885D01*
X152172601Y-132178215D01*
X152400000Y-132200612D01*
X152627400Y-132178215D01*
X152846060Y-132111885D01*
X153047579Y-132004171D01*
X153224212Y-131859212D01*
X153369171Y-131682579D01*
X153373000Y-131675415D01*
X153373000Y-134000000D01*
X153375440Y-134024776D01*
X153382667Y-134048601D01*
X153394403Y-134070557D01*
X153410197Y-134089803D01*
X153429443Y-134105597D01*
X153451399Y-134117333D01*
X153475224Y-134124560D01*
X153500000Y-134127000D01*
X161373000Y-134127000D01*
X161373000Y-134254100D01*
X155396395Y-140230706D01*
X155305391Y-140305391D01*
X155230708Y-140396393D01*
X155007351Y-140668555D01*
X154785887Y-141082885D01*
X154649510Y-141532459D01*
X154603461Y-142000000D01*
X154615000Y-142117157D01*
X154615000Y-144617157D01*
X154649510Y-144967542D01*
X154785887Y-145417116D01*
X155007352Y-145831446D01*
X155305392Y-146194609D01*
X155668555Y-146492649D01*
X156082885Y-146714113D01*
X156532459Y-146850490D01*
X157000000Y-146896539D01*
X157467542Y-146850490D01*
X157917116Y-146714113D01*
X158331446Y-146492649D01*
X158694609Y-146194609D01*
X158992649Y-145831446D01*
X159214113Y-145417116D01*
X159350490Y-144967542D01*
X159385000Y-144617157D01*
X159385000Y-142987899D01*
X161373000Y-140999899D01*
X161373000Y-148259000D01*
X157321079Y-148259000D01*
X153285000Y-144222922D01*
X153285000Y-138135142D01*
X153369171Y-138032579D01*
X153476885Y-137831059D01*
X153543215Y-137612399D01*
X153560000Y-137441978D01*
X153560000Y-136878021D01*
X153543215Y-136707600D01*
X153476885Y-136488940D01*
X153369171Y-136287421D01*
X153224212Y-136110788D01*
X153047578Y-135965829D01*
X152846059Y-135858115D01*
X152627399Y-135791785D01*
X152400000Y-135769388D01*
X152172600Y-135791785D01*
X151953940Y-135858115D01*
X151765331Y-135958929D01*
X151706882Y-135917725D01*
X151497337Y-135824728D01*
X151435810Y-135816036D01*
X151257000Y-135941837D01*
X151257000Y-136706892D01*
X151256785Y-136707601D01*
X151240000Y-136878022D01*
X151240000Y-137441979D01*
X151256785Y-137612400D01*
X151257000Y-137613109D01*
X151257000Y-138378163D01*
X151435810Y-138503964D01*
X151497337Y-138495272D01*
X151515000Y-138487433D01*
X151515001Y-144546021D01*
X151510719Y-144589500D01*
X151527805Y-144762990D01*
X151578412Y-144929813D01*
X151660590Y-145083559D01*
X151743468Y-145184546D01*
X151743471Y-145184549D01*
X151771184Y-145218317D01*
X151804952Y-145246030D01*
X156315472Y-149756551D01*
X156343183Y-149790317D01*
X156376949Y-149818028D01*
X156376953Y-149818032D01*
X156477940Y-149900910D01*
X156631686Y-149983088D01*
X156682293Y-149998440D01*
X156798510Y-150033695D01*
X156954913Y-150049098D01*
X156971999Y-150050781D01*
X156972000Y-150050781D01*
X157145490Y-150033695D01*
X157160967Y-150029000D01*
X161373000Y-150029000D01*
X161373000Y-156240000D01*
X158037333Y-156240000D01*
X158000000Y-156236323D01*
X157962667Y-156240000D01*
X157851014Y-156250997D01*
X157707753Y-156294454D01*
X157575724Y-156365026D01*
X157459999Y-156459999D01*
X157365026Y-156575724D01*
X157294454Y-156707753D01*
X157250997Y-156851014D01*
X157236323Y-157000000D01*
X157240000Y-157037333D01*
X157240001Y-162962657D01*
X157236323Y-163000000D01*
X157250997Y-163148986D01*
X157294454Y-163292247D01*
X157365026Y-163424276D01*
X157459999Y-163540001D01*
X157575724Y-163634974D01*
X157707753Y-163705546D01*
X157851014Y-163749003D01*
X157962667Y-163760000D01*
X158000000Y-163763677D01*
X158037333Y-163760000D01*
X161373000Y-163760000D01*
X161373000Y-163873000D01*
X148127000Y-163873000D01*
X148127000Y-159661984D01*
X148765000Y-159661984D01*
X148765000Y-160378016D01*
X148904691Y-161080290D01*
X149178705Y-161741818D01*
X149576511Y-162337177D01*
X150082823Y-162843489D01*
X150678182Y-163241295D01*
X151339710Y-163515309D01*
X152041984Y-163655000D01*
X152758016Y-163655000D01*
X153460290Y-163515309D01*
X154121818Y-163241295D01*
X154717177Y-162843489D01*
X155223489Y-162337177D01*
X155621295Y-161741818D01*
X155895309Y-161080290D01*
X156035000Y-160378016D01*
X156035000Y-159661984D01*
X155895309Y-158959710D01*
X155621295Y-158298182D01*
X155223489Y-157702823D01*
X154717177Y-157196511D01*
X154121818Y-156798705D01*
X153460290Y-156524691D01*
X152758016Y-156385000D01*
X152041984Y-156385000D01*
X151339710Y-156524691D01*
X150678182Y-156798705D01*
X150082823Y-157196511D01*
X149576511Y-157702823D01*
X149178705Y-158298182D01*
X148904691Y-158959710D01*
X148765000Y-159661984D01*
X148127000Y-159661984D01*
X148127000Y-151650000D01*
X148696928Y-151650000D01*
X148696928Y-153150000D01*
X148709188Y-153274482D01*
X148745498Y-153394180D01*
X148804463Y-153504494D01*
X148883815Y-153601185D01*
X148980506Y-153680537D01*
X149090820Y-153739502D01*
X149210518Y-153775812D01*
X149335000Y-153788072D01*
X150385000Y-153788072D01*
X150509482Y-153775812D01*
X150629180Y-153739502D01*
X150694057Y-153704824D01*
X150762663Y-153735272D01*
X150824190Y-153743964D01*
X151003000Y-153618163D01*
X151003000Y-153300235D01*
X151010812Y-153274482D01*
X151023072Y-153150000D01*
X151023072Y-152118022D01*
X151240000Y-152118022D01*
X151240000Y-152681979D01*
X151256785Y-152852400D01*
X151257000Y-152853109D01*
X151257000Y-153618163D01*
X151435810Y-153743964D01*
X151497337Y-153735272D01*
X151706882Y-153642275D01*
X151765331Y-153601071D01*
X151953941Y-153701885D01*
X152172601Y-153768215D01*
X152400000Y-153790612D01*
X152627400Y-153768215D01*
X152846060Y-153701885D01*
X153047579Y-153594171D01*
X153224212Y-153449212D01*
X153369171Y-153272579D01*
X153476885Y-153071059D01*
X153543215Y-152852399D01*
X153560000Y-152681978D01*
X153560000Y-152118021D01*
X153543215Y-151947600D01*
X153476885Y-151728940D01*
X153369171Y-151527421D01*
X153224212Y-151350788D01*
X153047578Y-151205829D01*
X152846059Y-151098115D01*
X152627399Y-151031785D01*
X152400000Y-151009388D01*
X152172600Y-151031785D01*
X151953940Y-151098115D01*
X151765331Y-151198929D01*
X151706882Y-151157725D01*
X151497337Y-151064728D01*
X151435810Y-151056036D01*
X151257000Y-151181837D01*
X151257000Y-151946892D01*
X151256785Y-151947601D01*
X151240000Y-152118022D01*
X151023072Y-152118022D01*
X151023072Y-151650000D01*
X151010812Y-151525518D01*
X151003000Y-151499765D01*
X151003000Y-151181837D01*
X150824190Y-151056036D01*
X150762663Y-151064728D01*
X150694057Y-151095176D01*
X150629180Y-151060498D01*
X150509482Y-151024188D01*
X150385000Y-151011928D01*
X149335000Y-151011928D01*
X149210518Y-151024188D01*
X149090820Y-151060498D01*
X148980506Y-151119463D01*
X148883815Y-151198815D01*
X148804463Y-151295506D01*
X148745498Y-151405820D01*
X148709188Y-151525518D01*
X148696928Y-151650000D01*
X148127000Y-151650000D01*
X148127000Y-136410000D01*
X148696928Y-136410000D01*
X148696928Y-137910000D01*
X148709188Y-138034482D01*
X148745498Y-138154180D01*
X148804463Y-138264494D01*
X148883815Y-138361185D01*
X148980506Y-138440537D01*
X149090820Y-138499502D01*
X149210518Y-138535812D01*
X149335000Y-138548072D01*
X150385000Y-138548072D01*
X150509482Y-138535812D01*
X150629180Y-138499502D01*
X150694057Y-138464824D01*
X150762663Y-138495272D01*
X150824190Y-138503964D01*
X151003000Y-138378163D01*
X151003000Y-138060235D01*
X151010812Y-138034482D01*
X151023072Y-137910000D01*
X151023072Y-136410000D01*
X151010812Y-136285518D01*
X151003000Y-136259765D01*
X151003000Y-135941837D01*
X150824190Y-135816036D01*
X150762663Y-135824728D01*
X150694057Y-135855176D01*
X150629180Y-135820498D01*
X150509482Y-135784188D01*
X150385000Y-135771928D01*
X149335000Y-135771928D01*
X149210518Y-135784188D01*
X149090820Y-135820498D01*
X148980506Y-135879463D01*
X148883815Y-135958815D01*
X148804463Y-136055506D01*
X148745498Y-136165820D01*
X148709188Y-136285518D01*
X148696928Y-136410000D01*
X148127000Y-136410000D01*
X148127000Y-63141984D01*
X148765000Y-63141984D01*
X148765000Y-63858016D01*
X148904691Y-64560290D01*
X149178705Y-65221818D01*
X149576511Y-65817177D01*
X150082823Y-66323489D01*
X150678182Y-66721295D01*
X151339710Y-66995309D01*
X152041984Y-67135000D01*
X152758016Y-67135000D01*
X153460290Y-66995309D01*
X154121818Y-66721295D01*
X154717177Y-66323489D01*
X155223489Y-65817177D01*
X155621295Y-65221818D01*
X155895309Y-64560290D01*
X156035000Y-63858016D01*
X156035000Y-63141984D01*
X155895309Y-62439710D01*
X155621295Y-61778182D01*
X155223489Y-61182823D01*
X154717177Y-60676511D01*
X154121818Y-60278705D01*
X153460290Y-60004691D01*
X152758016Y-59865000D01*
X152041984Y-59865000D01*
X151339710Y-60004691D01*
X150678182Y-60278705D01*
X150082823Y-60676511D01*
X149576511Y-61182823D01*
X149178705Y-61778182D01*
X148904691Y-62439710D01*
X148765000Y-63141984D01*
X148127000Y-63141984D01*
X148127000Y-59127000D01*
X182452863Y-59127000D01*
X182251285Y-59188148D01*
G36*
X147873000Y-163873000D02*
G01*
X147127000Y-163873000D01*
X147127000Y-59127000D01*
X147873000Y-59127000D01*
X147873000Y-163873000D01*
G37*
X147873000Y-163873000D02*
X147127000Y-163873000D01*
X147127000Y-59127000D01*
X147873000Y-59127000D01*
X147873000Y-163873000D01*
G36*
X233873000Y-163873000D02*
G01*
X233127000Y-163873000D01*
X233127000Y-59127000D01*
X233873000Y-59127000D01*
X233873000Y-163873000D01*
G37*
X233873000Y-163873000D02*
X233127000Y-163873000D01*
X233127000Y-59127000D01*
X233873000Y-59127000D01*
X233873000Y-163873000D01*
M02*
