G04 #@! TF.GenerationSoftware,KiCad,Pcbnew,5.1.5+dfsg1-2build2*
G04 #@! TF.CreationDate,2022-06-14T14:00:15+02:00*
G04 #@! TF.ProjectId,4x18650 z zabezpieczeniem,34783138-3635-4302-907a-207a6162657a,rev?*
G04 #@! TF.SameCoordinates,Original*
G04 #@! TF.FileFunction,Soldermask,Bot*
G04 #@! TF.FilePolarity,Negative*
%FSLAX46Y46*%
G04 Gerber Fmt 4.6, Leading zero omitted, Abs format (unit mm)*
G04 Created by KiCad (PCBNEW 5.1.5+dfsg1-2build2) date 2022-06-14 14:00:15*
%MOMM*%
%LPD*%
G04 APERTURE LIST*
%ADD10C,0.100000*%
G04 APERTURE END LIST*
D10*
G36*
X229489943Y-157086248D02*
G01*
X230045189Y-157316238D01*
X230045190Y-157316239D01*
X230544899Y-157650134D01*
X230969866Y-158075101D01*
X230969867Y-158075103D01*
X231303762Y-158574811D01*
X231533752Y-159130057D01*
X231651000Y-159719501D01*
X231651000Y-160320499D01*
X231533752Y-160909943D01*
X231303762Y-161465189D01*
X231303761Y-161465190D01*
X230969866Y-161964899D01*
X230544899Y-162389866D01*
X230293347Y-162557948D01*
X230045189Y-162723762D01*
X229489943Y-162953752D01*
X228900499Y-163071000D01*
X228299501Y-163071000D01*
X227710057Y-162953752D01*
X227154811Y-162723762D01*
X226906653Y-162557948D01*
X226655101Y-162389866D01*
X226230134Y-161964899D01*
X225896239Y-161465190D01*
X225896238Y-161465189D01*
X225666248Y-160909943D01*
X225549000Y-160320499D01*
X225549000Y-159719501D01*
X225666248Y-159130057D01*
X225896238Y-158574811D01*
X226230133Y-158075103D01*
X226230134Y-158075101D01*
X226655101Y-157650134D01*
X227154810Y-157316239D01*
X227154811Y-157316238D01*
X227710057Y-157086248D01*
X228299501Y-156969000D01*
X228900499Y-156969000D01*
X229489943Y-157086248D01*
G37*
G36*
X153289943Y-157086248D02*
G01*
X153845189Y-157316238D01*
X153845190Y-157316239D01*
X154344899Y-157650134D01*
X154769866Y-158075101D01*
X154769867Y-158075103D01*
X155103762Y-158574811D01*
X155333752Y-159130057D01*
X155451000Y-159719501D01*
X155451000Y-160320499D01*
X155333752Y-160909943D01*
X155103762Y-161465189D01*
X155103761Y-161465190D01*
X154769866Y-161964899D01*
X154344899Y-162389866D01*
X154093347Y-162557948D01*
X153845189Y-162723762D01*
X153289943Y-162953752D01*
X152700499Y-163071000D01*
X152099501Y-163071000D01*
X151510057Y-162953752D01*
X150954811Y-162723762D01*
X150706653Y-162557948D01*
X150455101Y-162389866D01*
X150030134Y-161964899D01*
X149696239Y-161465190D01*
X149696238Y-161465189D01*
X149466248Y-160909943D01*
X149349000Y-160320499D01*
X149349000Y-159719501D01*
X149466248Y-159130057D01*
X149696238Y-158574811D01*
X150030133Y-158075103D01*
X150030134Y-158075101D01*
X150455101Y-157650134D01*
X150954810Y-157316239D01*
X150954811Y-157316238D01*
X151510057Y-157086248D01*
X152099501Y-156969000D01*
X152700499Y-156969000D01*
X153289943Y-157086248D01*
G37*
G36*
X152512915Y-151607334D02*
G01*
X152621491Y-151640271D01*
X152621494Y-151640272D01*
X152657600Y-151659571D01*
X152721556Y-151693756D01*
X152809264Y-151765736D01*
X152881244Y-151853443D01*
X152915429Y-151917399D01*
X152934728Y-151953505D01*
X152934729Y-151953508D01*
X152967666Y-152062084D01*
X152976000Y-152146702D01*
X152976000Y-152653297D01*
X152967666Y-152737916D01*
X152935252Y-152844767D01*
X152934728Y-152846495D01*
X152924761Y-152865141D01*
X152881244Y-152946557D01*
X152809264Y-153034264D01*
X152721557Y-153106244D01*
X152657601Y-153140429D01*
X152621495Y-153159728D01*
X152621492Y-153159729D01*
X152512916Y-153192666D01*
X152400000Y-153203787D01*
X152287085Y-153192666D01*
X152178509Y-153159729D01*
X152178506Y-153159728D01*
X152142400Y-153140429D01*
X152078444Y-153106244D01*
X151990737Y-153034264D01*
X151918757Y-152946557D01*
X151875239Y-152865141D01*
X151861625Y-152844766D01*
X151844298Y-152827439D01*
X151823924Y-152813826D01*
X151801285Y-152804448D01*
X151777252Y-152799668D01*
X151752748Y-152799668D01*
X151728715Y-152804448D01*
X151706076Y-152813826D01*
X151685701Y-152827440D01*
X151668374Y-152844767D01*
X151654761Y-152865141D01*
X151611244Y-152946557D01*
X151539264Y-153034264D01*
X151451557Y-153106244D01*
X151387601Y-153140429D01*
X151351495Y-153159728D01*
X151351492Y-153159729D01*
X151242916Y-153192666D01*
X151130000Y-153203787D01*
X151017085Y-153192666D01*
X150908509Y-153159729D01*
X150908506Y-153159728D01*
X150872400Y-153140429D01*
X150808444Y-153106244D01*
X150720737Y-153034264D01*
X150657622Y-152957359D01*
X150640297Y-152940034D01*
X150619923Y-152926420D01*
X150597284Y-152917043D01*
X150573250Y-152912263D01*
X150548746Y-152912263D01*
X150524713Y-152917044D01*
X150502074Y-152926421D01*
X150481700Y-152940035D01*
X150464373Y-152957362D01*
X150450759Y-152977736D01*
X150441382Y-153000375D01*
X150436000Y-153036660D01*
X150436000Y-153201000D01*
X149284000Y-153201000D01*
X149284000Y-151599000D01*
X150436000Y-151599000D01*
X150436000Y-151763341D01*
X150438402Y-151787727D01*
X150445515Y-151811176D01*
X150457066Y-151832787D01*
X150472611Y-151851729D01*
X150491553Y-151867274D01*
X150513164Y-151878825D01*
X150536613Y-151885938D01*
X150560999Y-151888340D01*
X150585385Y-151885938D01*
X150608834Y-151878825D01*
X150630445Y-151867274D01*
X150649387Y-151851729D01*
X150657608Y-151842657D01*
X150720736Y-151765736D01*
X150808443Y-151693756D01*
X150872399Y-151659571D01*
X150908505Y-151640272D01*
X150908508Y-151640271D01*
X151017084Y-151607334D01*
X151130000Y-151596213D01*
X151242915Y-151607334D01*
X151351491Y-151640271D01*
X151351494Y-151640272D01*
X151387600Y-151659571D01*
X151451556Y-151693756D01*
X151539264Y-151765736D01*
X151611244Y-151853443D01*
X151654761Y-151934859D01*
X151668375Y-151955234D01*
X151685702Y-151972561D01*
X151706076Y-151986174D01*
X151728715Y-151995552D01*
X151752748Y-152000332D01*
X151777252Y-152000332D01*
X151801285Y-151995552D01*
X151823924Y-151986174D01*
X151844299Y-151972560D01*
X151861626Y-151955233D01*
X151875239Y-151934860D01*
X151918756Y-151853444D01*
X151990736Y-151765736D01*
X152078443Y-151693756D01*
X152142399Y-151659571D01*
X152178505Y-151640272D01*
X152178508Y-151640271D01*
X152287084Y-151607334D01*
X152400000Y-151596213D01*
X152512915Y-151607334D01*
G37*
G36*
X150020499Y-150100445D02*
G01*
X150057995Y-150111820D01*
X150092554Y-150130292D01*
X150122847Y-150155153D01*
X150147708Y-150185446D01*
X150166180Y-150220005D01*
X150177555Y-150257501D01*
X150182000Y-150302638D01*
X150182000Y-150941362D01*
X150177555Y-150986499D01*
X150166180Y-151023995D01*
X150147708Y-151058554D01*
X150122847Y-151088847D01*
X150092554Y-151113708D01*
X150057995Y-151132180D01*
X150020499Y-151143555D01*
X149975362Y-151148000D01*
X149236638Y-151148000D01*
X149191501Y-151143555D01*
X149154005Y-151132180D01*
X149119446Y-151113708D01*
X149089153Y-151088847D01*
X149064292Y-151058554D01*
X149045820Y-151023995D01*
X149034445Y-150986499D01*
X149030000Y-150941362D01*
X149030000Y-150302638D01*
X149034445Y-150257501D01*
X149045820Y-150220005D01*
X149064292Y-150185446D01*
X149089153Y-150155153D01*
X149119446Y-150130292D01*
X149154005Y-150111820D01*
X149191501Y-150100445D01*
X149236638Y-150096000D01*
X149975362Y-150096000D01*
X150020499Y-150100445D01*
G37*
G36*
X151770499Y-150100445D02*
G01*
X151807995Y-150111820D01*
X151842554Y-150130292D01*
X151872847Y-150155153D01*
X151897708Y-150185446D01*
X151916180Y-150220005D01*
X151927555Y-150257501D01*
X151932000Y-150302638D01*
X151932000Y-150941362D01*
X151927555Y-150986499D01*
X151916180Y-151023995D01*
X151897708Y-151058554D01*
X151872847Y-151088847D01*
X151842554Y-151113708D01*
X151807995Y-151132180D01*
X151770499Y-151143555D01*
X151725362Y-151148000D01*
X150986638Y-151148000D01*
X150941501Y-151143555D01*
X150904005Y-151132180D01*
X150869446Y-151113708D01*
X150839153Y-151088847D01*
X150814292Y-151058554D01*
X150795820Y-151023995D01*
X150784445Y-150986499D01*
X150780000Y-150941362D01*
X150780000Y-150302638D01*
X150784445Y-150257501D01*
X150795820Y-150220005D01*
X150814292Y-150185446D01*
X150839153Y-150155153D01*
X150869446Y-150130292D01*
X150904005Y-150111820D01*
X150941501Y-150100445D01*
X150986638Y-150096000D01*
X151725362Y-150096000D01*
X151770499Y-150100445D01*
G37*
G36*
X180826000Y-149831000D02*
G01*
X178724000Y-149831000D01*
X178724000Y-147949000D01*
X180826000Y-147949000D01*
X180826000Y-149831000D01*
G37*
G36*
X171296000Y-149831000D02*
G01*
X169194000Y-149831000D01*
X169194000Y-147949000D01*
X171296000Y-147949000D01*
X171296000Y-149831000D01*
G37*
G36*
X152165499Y-148576445D02*
G01*
X152202995Y-148587820D01*
X152237554Y-148606292D01*
X152267847Y-148631153D01*
X152292708Y-148661446D01*
X152311180Y-148696005D01*
X152322555Y-148733501D01*
X152327000Y-148778638D01*
X152327000Y-149417362D01*
X152322555Y-149462499D01*
X152311180Y-149499995D01*
X152292708Y-149534554D01*
X152267847Y-149564847D01*
X152237554Y-149589708D01*
X152202995Y-149608180D01*
X152165499Y-149619555D01*
X152120362Y-149624000D01*
X151381638Y-149624000D01*
X151336501Y-149619555D01*
X151299005Y-149608180D01*
X151264446Y-149589708D01*
X151234153Y-149564847D01*
X151209292Y-149534554D01*
X151190820Y-149499995D01*
X151179445Y-149462499D01*
X151175000Y-149417362D01*
X151175000Y-148778638D01*
X151179445Y-148733501D01*
X151190820Y-148696005D01*
X151209292Y-148661446D01*
X151234153Y-148631153D01*
X151264446Y-148606292D01*
X151299005Y-148587820D01*
X151336501Y-148576445D01*
X151381638Y-148572000D01*
X152120362Y-148572000D01*
X152165499Y-148576445D01*
G37*
G36*
X150415499Y-148576445D02*
G01*
X150452995Y-148587820D01*
X150487554Y-148606292D01*
X150517847Y-148631153D01*
X150542708Y-148661446D01*
X150561180Y-148696005D01*
X150572555Y-148733501D01*
X150577000Y-148778638D01*
X150577000Y-149417362D01*
X150572555Y-149462499D01*
X150561180Y-149499995D01*
X150542708Y-149534554D01*
X150517847Y-149564847D01*
X150487554Y-149589708D01*
X150452995Y-149608180D01*
X150415499Y-149619555D01*
X150370362Y-149624000D01*
X149631638Y-149624000D01*
X149586501Y-149619555D01*
X149549005Y-149608180D01*
X149514446Y-149589708D01*
X149484153Y-149564847D01*
X149459292Y-149534554D01*
X149440820Y-149499995D01*
X149429445Y-149462499D01*
X149425000Y-149417362D01*
X149425000Y-148778638D01*
X149429445Y-148733501D01*
X149440820Y-148696005D01*
X149459292Y-148661446D01*
X149484153Y-148631153D01*
X149514446Y-148606292D01*
X149549005Y-148587820D01*
X149586501Y-148576445D01*
X149631638Y-148572000D01*
X150370362Y-148572000D01*
X150415499Y-148576445D01*
G37*
G36*
X186271000Y-148181000D02*
G01*
X184169000Y-148181000D01*
X184169000Y-146579000D01*
X186271000Y-146579000D01*
X186271000Y-148181000D01*
G37*
G36*
X180826000Y-147291000D02*
G01*
X178724000Y-147291000D01*
X178724000Y-145409000D01*
X180826000Y-145409000D01*
X180826000Y-147291000D01*
G37*
G36*
X171296000Y-147291000D02*
G01*
X169194000Y-147291000D01*
X169194000Y-145409000D01*
X171296000Y-145409000D01*
X171296000Y-147291000D01*
G37*
G36*
X192571000Y-147031000D02*
G01*
X190469000Y-147031000D01*
X190469000Y-143129000D01*
X192571000Y-143129000D01*
X192571000Y-147031000D01*
G37*
G36*
X183248499Y-145383445D02*
G01*
X183285995Y-145394820D01*
X183320554Y-145413292D01*
X183350847Y-145438153D01*
X183375708Y-145468446D01*
X183394180Y-145503005D01*
X183405555Y-145540501D01*
X183410000Y-145585638D01*
X183410000Y-146324362D01*
X183405555Y-146369499D01*
X183394180Y-146406995D01*
X183375708Y-146441554D01*
X183350847Y-146471847D01*
X183320554Y-146496708D01*
X183285995Y-146515180D01*
X183248499Y-146526555D01*
X183203362Y-146531000D01*
X182564638Y-146531000D01*
X182519501Y-146526555D01*
X182482005Y-146515180D01*
X182447446Y-146496708D01*
X182417153Y-146471847D01*
X182392292Y-146441554D01*
X182373820Y-146406995D01*
X182362445Y-146369499D01*
X182358000Y-146324362D01*
X182358000Y-145585638D01*
X182362445Y-145540501D01*
X182373820Y-145503005D01*
X182392292Y-145468446D01*
X182417153Y-145438153D01*
X182447446Y-145413292D01*
X182482005Y-145394820D01*
X182519501Y-145383445D01*
X182564638Y-145379000D01*
X183203362Y-145379000D01*
X183248499Y-145383445D01*
G37*
G36*
X186271000Y-145881000D02*
G01*
X184169000Y-145881000D01*
X184169000Y-144279000D01*
X186271000Y-144279000D01*
X186271000Y-145881000D01*
G37*
G36*
X183248499Y-143633445D02*
G01*
X183285995Y-143644820D01*
X183320554Y-143663292D01*
X183350847Y-143688153D01*
X183375708Y-143718446D01*
X183394180Y-143753005D01*
X183405555Y-143790501D01*
X183410000Y-143835638D01*
X183410000Y-144574362D01*
X183405555Y-144619499D01*
X183394180Y-144656995D01*
X183375708Y-144691554D01*
X183350847Y-144721847D01*
X183320554Y-144746708D01*
X183285995Y-144765180D01*
X183248499Y-144776555D01*
X183203362Y-144781000D01*
X182564638Y-144781000D01*
X182519501Y-144776555D01*
X182482005Y-144765180D01*
X182447446Y-144746708D01*
X182417153Y-144721847D01*
X182392292Y-144691554D01*
X182373820Y-144656995D01*
X182362445Y-144619499D01*
X182358000Y-144574362D01*
X182358000Y-143835638D01*
X182362445Y-143790501D01*
X182373820Y-143753005D01*
X182392292Y-143718446D01*
X182417153Y-143688153D01*
X182447446Y-143663292D01*
X182482005Y-143644820D01*
X182519501Y-143633445D01*
X182564638Y-143629000D01*
X183203362Y-143629000D01*
X183248499Y-143633445D01*
G37*
G36*
X186271000Y-143581000D02*
G01*
X184169000Y-143581000D01*
X184169000Y-141979000D01*
X186271000Y-141979000D01*
X186271000Y-143581000D01*
G37*
G36*
X151911499Y-140448445D02*
G01*
X151948995Y-140459820D01*
X151983554Y-140478292D01*
X152013847Y-140503153D01*
X152038708Y-140533446D01*
X152057180Y-140568005D01*
X152068555Y-140605501D01*
X152073000Y-140650638D01*
X152073000Y-141289362D01*
X152068555Y-141334499D01*
X152057180Y-141371995D01*
X152038708Y-141406554D01*
X152013847Y-141436847D01*
X151983554Y-141461708D01*
X151948995Y-141480180D01*
X151911499Y-141491555D01*
X151866362Y-141496000D01*
X151127638Y-141496000D01*
X151082501Y-141491555D01*
X151045005Y-141480180D01*
X151010446Y-141461708D01*
X150980153Y-141436847D01*
X150955292Y-141406554D01*
X150936820Y-141371995D01*
X150925445Y-141334499D01*
X150921000Y-141289362D01*
X150921000Y-140650638D01*
X150925445Y-140605501D01*
X150936820Y-140568005D01*
X150955292Y-140533446D01*
X150980153Y-140503153D01*
X151010446Y-140478292D01*
X151045005Y-140459820D01*
X151082501Y-140448445D01*
X151127638Y-140444000D01*
X151866362Y-140444000D01*
X151911499Y-140448445D01*
G37*
G36*
X150161499Y-140448445D02*
G01*
X150198995Y-140459820D01*
X150233554Y-140478292D01*
X150263847Y-140503153D01*
X150288708Y-140533446D01*
X150307180Y-140568005D01*
X150318555Y-140605501D01*
X150323000Y-140650638D01*
X150323000Y-141289362D01*
X150318555Y-141334499D01*
X150307180Y-141371995D01*
X150288708Y-141406554D01*
X150263847Y-141436847D01*
X150233554Y-141461708D01*
X150198995Y-141480180D01*
X150161499Y-141491555D01*
X150116362Y-141496000D01*
X149377638Y-141496000D01*
X149332501Y-141491555D01*
X149295005Y-141480180D01*
X149260446Y-141461708D01*
X149230153Y-141436847D01*
X149205292Y-141406554D01*
X149186820Y-141371995D01*
X149175445Y-141334499D01*
X149171000Y-141289362D01*
X149171000Y-140650638D01*
X149175445Y-140605501D01*
X149186820Y-140568005D01*
X149205292Y-140533446D01*
X149230153Y-140503153D01*
X149260446Y-140478292D01*
X149295005Y-140459820D01*
X149332501Y-140448445D01*
X149377638Y-140444000D01*
X150116362Y-140444000D01*
X150161499Y-140448445D01*
G37*
G36*
X151657499Y-138670445D02*
G01*
X151694995Y-138681820D01*
X151729554Y-138700292D01*
X151759847Y-138725153D01*
X151784708Y-138755446D01*
X151803180Y-138790005D01*
X151814555Y-138827501D01*
X151819000Y-138872638D01*
X151819000Y-139511362D01*
X151814555Y-139556499D01*
X151803180Y-139593995D01*
X151784708Y-139628554D01*
X151759847Y-139658847D01*
X151729554Y-139683708D01*
X151694995Y-139702180D01*
X151657499Y-139713555D01*
X151612362Y-139718000D01*
X150873638Y-139718000D01*
X150828501Y-139713555D01*
X150791005Y-139702180D01*
X150756446Y-139683708D01*
X150726153Y-139658847D01*
X150701292Y-139628554D01*
X150682820Y-139593995D01*
X150671445Y-139556499D01*
X150667000Y-139511362D01*
X150667000Y-138872638D01*
X150671445Y-138827501D01*
X150682820Y-138790005D01*
X150701292Y-138755446D01*
X150726153Y-138725153D01*
X150756446Y-138700292D01*
X150791005Y-138681820D01*
X150828501Y-138670445D01*
X150873638Y-138666000D01*
X151612362Y-138666000D01*
X151657499Y-138670445D01*
G37*
G36*
X149907499Y-138670445D02*
G01*
X149944995Y-138681820D01*
X149979554Y-138700292D01*
X150009847Y-138725153D01*
X150034708Y-138755446D01*
X150053180Y-138790005D01*
X150064555Y-138827501D01*
X150069000Y-138872638D01*
X150069000Y-139511362D01*
X150064555Y-139556499D01*
X150053180Y-139593995D01*
X150034708Y-139628554D01*
X150009847Y-139658847D01*
X149979554Y-139683708D01*
X149944995Y-139702180D01*
X149907499Y-139713555D01*
X149862362Y-139718000D01*
X149123638Y-139718000D01*
X149078501Y-139713555D01*
X149041005Y-139702180D01*
X149006446Y-139683708D01*
X148976153Y-139658847D01*
X148951292Y-139628554D01*
X148932820Y-139593995D01*
X148921445Y-139556499D01*
X148917000Y-139511362D01*
X148917000Y-138872638D01*
X148921445Y-138827501D01*
X148932820Y-138790005D01*
X148951292Y-138755446D01*
X148976153Y-138725153D01*
X149006446Y-138700292D01*
X149041005Y-138681820D01*
X149078501Y-138670445D01*
X149123638Y-138666000D01*
X149862362Y-138666000D01*
X149907499Y-138670445D01*
G37*
G36*
X164276499Y-138462445D02*
G01*
X164313995Y-138473820D01*
X164348554Y-138492292D01*
X164378847Y-138517153D01*
X164403708Y-138547446D01*
X164422180Y-138582005D01*
X164433555Y-138619501D01*
X164438000Y-138664638D01*
X164438000Y-139303362D01*
X164433555Y-139348499D01*
X164422180Y-139385995D01*
X164403708Y-139420554D01*
X164378847Y-139450847D01*
X164348554Y-139475708D01*
X164313995Y-139494180D01*
X164276499Y-139505555D01*
X164231362Y-139510000D01*
X163492638Y-139510000D01*
X163447501Y-139505555D01*
X163410005Y-139494180D01*
X163375446Y-139475708D01*
X163345153Y-139450847D01*
X163320292Y-139420554D01*
X163301820Y-139385995D01*
X163290445Y-139348499D01*
X163286000Y-139303362D01*
X163286000Y-138664638D01*
X163290445Y-138619501D01*
X163301820Y-138582005D01*
X163320292Y-138547446D01*
X163345153Y-138517153D01*
X163375446Y-138492292D01*
X163410005Y-138473820D01*
X163447501Y-138462445D01*
X163492638Y-138458000D01*
X164231362Y-138458000D01*
X164276499Y-138462445D01*
G37*
G36*
X166026499Y-138462445D02*
G01*
X166063995Y-138473820D01*
X166098554Y-138492292D01*
X166128847Y-138517153D01*
X166153708Y-138547446D01*
X166172180Y-138582005D01*
X166183555Y-138619501D01*
X166188000Y-138664638D01*
X166188000Y-139303362D01*
X166183555Y-139348499D01*
X166172180Y-139385995D01*
X166153708Y-139420554D01*
X166128847Y-139450847D01*
X166098554Y-139475708D01*
X166063995Y-139494180D01*
X166026499Y-139505555D01*
X165981362Y-139510000D01*
X165242638Y-139510000D01*
X165197501Y-139505555D01*
X165160005Y-139494180D01*
X165125446Y-139475708D01*
X165095153Y-139450847D01*
X165070292Y-139420554D01*
X165051820Y-139385995D01*
X165040445Y-139348499D01*
X165036000Y-139303362D01*
X165036000Y-138664638D01*
X165040445Y-138619501D01*
X165051820Y-138582005D01*
X165070292Y-138547446D01*
X165095153Y-138517153D01*
X165125446Y-138492292D01*
X165160005Y-138473820D01*
X165197501Y-138462445D01*
X165242638Y-138458000D01*
X165981362Y-138458000D01*
X166026499Y-138462445D01*
G37*
G36*
X167754499Y-138271445D02*
G01*
X167791995Y-138282820D01*
X167826554Y-138301292D01*
X167856847Y-138326153D01*
X167881708Y-138356446D01*
X167900180Y-138391005D01*
X167911555Y-138428501D01*
X167916000Y-138473638D01*
X167916000Y-139212362D01*
X167911555Y-139257499D01*
X167900180Y-139294995D01*
X167881708Y-139329554D01*
X167856847Y-139359847D01*
X167826554Y-139384708D01*
X167791995Y-139403180D01*
X167754499Y-139414555D01*
X167709362Y-139419000D01*
X167070638Y-139419000D01*
X167025501Y-139414555D01*
X166988005Y-139403180D01*
X166953446Y-139384708D01*
X166923153Y-139359847D01*
X166898292Y-139329554D01*
X166879820Y-139294995D01*
X166868445Y-139257499D01*
X166864000Y-139212362D01*
X166864000Y-138473638D01*
X166868445Y-138428501D01*
X166879820Y-138391005D01*
X166898292Y-138356446D01*
X166923153Y-138326153D01*
X166953446Y-138301292D01*
X166988005Y-138282820D01*
X167025501Y-138271445D01*
X167070638Y-138267000D01*
X167709362Y-138267000D01*
X167754499Y-138271445D01*
G37*
G36*
X169701000Y-139369000D02*
G01*
X168699000Y-139369000D01*
X168699000Y-138467000D01*
X169701000Y-138467000D01*
X169701000Y-139369000D01*
G37*
G36*
X176045499Y-137446445D02*
G01*
X176082995Y-137457820D01*
X176117554Y-137476292D01*
X176147847Y-137501153D01*
X176172708Y-137531446D01*
X176191180Y-137566005D01*
X176202555Y-137603501D01*
X176207000Y-137648638D01*
X176207000Y-138287362D01*
X176202555Y-138332499D01*
X176191180Y-138369995D01*
X176172708Y-138404554D01*
X176147847Y-138434847D01*
X176117554Y-138459708D01*
X176082995Y-138478180D01*
X176045499Y-138489555D01*
X176000362Y-138494000D01*
X175261638Y-138494000D01*
X175216501Y-138489555D01*
X175179005Y-138478180D01*
X175144446Y-138459708D01*
X175114153Y-138434847D01*
X175089292Y-138404554D01*
X175070820Y-138369995D01*
X175059445Y-138332499D01*
X175055000Y-138287362D01*
X175055000Y-137648638D01*
X175059445Y-137603501D01*
X175070820Y-137566005D01*
X175089292Y-137531446D01*
X175114153Y-137501153D01*
X175144446Y-137476292D01*
X175179005Y-137457820D01*
X175216501Y-137446445D01*
X175261638Y-137442000D01*
X176000362Y-137442000D01*
X176045499Y-137446445D01*
G37*
G36*
X174295499Y-137446445D02*
G01*
X174332995Y-137457820D01*
X174367554Y-137476292D01*
X174397847Y-137501153D01*
X174422708Y-137531446D01*
X174441180Y-137566005D01*
X174452555Y-137603501D01*
X174457000Y-137648638D01*
X174457000Y-138287362D01*
X174452555Y-138332499D01*
X174441180Y-138369995D01*
X174422708Y-138404554D01*
X174397847Y-138434847D01*
X174367554Y-138459708D01*
X174332995Y-138478180D01*
X174295499Y-138489555D01*
X174250362Y-138494000D01*
X173511638Y-138494000D01*
X173466501Y-138489555D01*
X173429005Y-138478180D01*
X173394446Y-138459708D01*
X173364153Y-138434847D01*
X173339292Y-138404554D01*
X173320820Y-138369995D01*
X173309445Y-138332499D01*
X173305000Y-138287362D01*
X173305000Y-137648638D01*
X173309445Y-137603501D01*
X173320820Y-137566005D01*
X173339292Y-137531446D01*
X173364153Y-137501153D01*
X173394446Y-137476292D01*
X173429005Y-137457820D01*
X173466501Y-137446445D01*
X173511638Y-137442000D01*
X174250362Y-137442000D01*
X174295499Y-137446445D01*
G37*
G36*
X171701000Y-138419000D02*
G01*
X170699000Y-138419000D01*
X170699000Y-137517000D01*
X171701000Y-137517000D01*
X171701000Y-138419000D01*
G37*
G36*
X152512915Y-136367334D02*
G01*
X152621491Y-136400271D01*
X152621494Y-136400272D01*
X152657600Y-136419571D01*
X152721556Y-136453756D01*
X152809264Y-136525736D01*
X152881244Y-136613443D01*
X152915429Y-136677399D01*
X152934728Y-136713505D01*
X152934729Y-136713508D01*
X152967666Y-136822084D01*
X152976000Y-136906702D01*
X152976000Y-137413297D01*
X152967666Y-137497916D01*
X152935252Y-137604767D01*
X152934728Y-137606495D01*
X152915429Y-137642601D01*
X152881244Y-137706557D01*
X152809264Y-137794264D01*
X152721557Y-137866244D01*
X152657601Y-137900429D01*
X152621495Y-137919728D01*
X152621492Y-137919729D01*
X152512916Y-137952666D01*
X152400000Y-137963787D01*
X152287085Y-137952666D01*
X152178509Y-137919729D01*
X152178506Y-137919728D01*
X152142400Y-137900429D01*
X152078444Y-137866244D01*
X151990737Y-137794264D01*
X151918757Y-137706557D01*
X151887981Y-137648980D01*
X151875239Y-137625141D01*
X151861625Y-137604766D01*
X151844298Y-137587439D01*
X151823924Y-137573826D01*
X151801285Y-137564448D01*
X151777252Y-137559668D01*
X151752748Y-137559668D01*
X151728715Y-137564448D01*
X151706076Y-137573826D01*
X151685701Y-137587440D01*
X151668374Y-137604767D01*
X151654761Y-137625141D01*
X151611244Y-137706557D01*
X151539264Y-137794264D01*
X151451557Y-137866244D01*
X151387601Y-137900429D01*
X151351495Y-137919728D01*
X151351492Y-137919729D01*
X151242916Y-137952666D01*
X151130000Y-137963787D01*
X151017085Y-137952666D01*
X150908509Y-137919729D01*
X150908506Y-137919728D01*
X150872400Y-137900429D01*
X150808444Y-137866244D01*
X150720737Y-137794264D01*
X150657622Y-137717359D01*
X150640297Y-137700034D01*
X150619923Y-137686420D01*
X150597284Y-137677043D01*
X150573250Y-137672263D01*
X150548746Y-137672263D01*
X150524713Y-137677044D01*
X150502074Y-137686421D01*
X150481700Y-137700035D01*
X150464373Y-137717362D01*
X150450759Y-137737736D01*
X150441382Y-137760375D01*
X150436000Y-137796660D01*
X150436000Y-137961000D01*
X149284000Y-137961000D01*
X149284000Y-136359000D01*
X150436000Y-136359000D01*
X150436000Y-136523341D01*
X150438402Y-136547727D01*
X150445515Y-136571176D01*
X150457066Y-136592787D01*
X150472611Y-136611729D01*
X150491553Y-136627274D01*
X150513164Y-136638825D01*
X150536613Y-136645938D01*
X150560999Y-136648340D01*
X150585385Y-136645938D01*
X150608834Y-136638825D01*
X150630445Y-136627274D01*
X150649387Y-136611729D01*
X150657608Y-136602657D01*
X150720736Y-136525736D01*
X150808443Y-136453756D01*
X150872399Y-136419571D01*
X150908505Y-136400272D01*
X150908508Y-136400271D01*
X151017084Y-136367334D01*
X151130000Y-136356213D01*
X151242915Y-136367334D01*
X151351491Y-136400271D01*
X151351494Y-136400272D01*
X151387600Y-136419571D01*
X151451556Y-136453756D01*
X151539264Y-136525736D01*
X151611244Y-136613443D01*
X151654761Y-136694859D01*
X151668375Y-136715234D01*
X151685702Y-136732561D01*
X151706076Y-136746174D01*
X151728715Y-136755552D01*
X151752748Y-136760332D01*
X151777252Y-136760332D01*
X151801285Y-136755552D01*
X151823924Y-136746174D01*
X151844299Y-136732560D01*
X151861626Y-136715233D01*
X151875239Y-136694860D01*
X151918756Y-136613444D01*
X151990736Y-136525736D01*
X152078443Y-136453756D01*
X152142399Y-136419571D01*
X152178505Y-136400272D01*
X152178508Y-136400271D01*
X152287084Y-136367334D01*
X152400000Y-136356213D01*
X152512915Y-136367334D01*
G37*
G36*
X167754499Y-136521445D02*
G01*
X167791995Y-136532820D01*
X167826554Y-136551292D01*
X167856847Y-136576153D01*
X167881708Y-136606446D01*
X167900180Y-136641005D01*
X167911555Y-136678501D01*
X167916000Y-136723638D01*
X167916000Y-137462362D01*
X167911555Y-137507499D01*
X167900180Y-137544995D01*
X167881708Y-137579554D01*
X167856847Y-137609847D01*
X167826554Y-137634708D01*
X167791995Y-137653180D01*
X167754499Y-137664555D01*
X167709362Y-137669000D01*
X167070638Y-137669000D01*
X167025501Y-137664555D01*
X166988005Y-137653180D01*
X166953446Y-137634708D01*
X166923153Y-137609847D01*
X166898292Y-137579554D01*
X166879820Y-137544995D01*
X166868445Y-137507499D01*
X166864000Y-137462362D01*
X166864000Y-136723638D01*
X166868445Y-136678501D01*
X166879820Y-136641005D01*
X166898292Y-136606446D01*
X166923153Y-136576153D01*
X166953446Y-136551292D01*
X166988005Y-136532820D01*
X167025501Y-136521445D01*
X167070638Y-136517000D01*
X167709362Y-136517000D01*
X167754499Y-136521445D01*
G37*
G36*
X169701000Y-137469000D02*
G01*
X168699000Y-137469000D01*
X168699000Y-136567000D01*
X169701000Y-136567000D01*
X169701000Y-137469000D01*
G37*
G36*
X152512915Y-130017334D02*
G01*
X152621491Y-130050271D01*
X152621494Y-130050272D01*
X152657600Y-130069571D01*
X152721556Y-130103756D01*
X152809264Y-130175736D01*
X152881244Y-130263443D01*
X152915429Y-130327399D01*
X152934728Y-130363505D01*
X152934729Y-130363508D01*
X152967666Y-130472084D01*
X152976000Y-130556702D01*
X152976000Y-131063297D01*
X152967666Y-131147916D01*
X152935252Y-131254767D01*
X152934728Y-131256495D01*
X152924761Y-131275141D01*
X152881244Y-131356557D01*
X152809264Y-131444264D01*
X152721557Y-131516244D01*
X152657601Y-131550429D01*
X152621495Y-131569728D01*
X152621492Y-131569729D01*
X152512916Y-131602666D01*
X152400000Y-131613787D01*
X152287085Y-131602666D01*
X152178509Y-131569729D01*
X152178506Y-131569728D01*
X152142400Y-131550429D01*
X152078444Y-131516244D01*
X151990737Y-131444264D01*
X151918757Y-131356557D01*
X151875239Y-131275141D01*
X151861625Y-131254766D01*
X151844298Y-131237439D01*
X151823924Y-131223826D01*
X151801285Y-131214448D01*
X151777252Y-131209668D01*
X151752748Y-131209668D01*
X151728715Y-131214448D01*
X151706076Y-131223826D01*
X151685701Y-131237440D01*
X151668374Y-131254767D01*
X151654761Y-131275141D01*
X151611244Y-131356557D01*
X151539264Y-131444264D01*
X151451557Y-131516244D01*
X151387601Y-131550429D01*
X151351495Y-131569728D01*
X151351492Y-131569729D01*
X151242916Y-131602666D01*
X151130000Y-131613787D01*
X151017085Y-131602666D01*
X150908509Y-131569729D01*
X150908506Y-131569728D01*
X150872400Y-131550429D01*
X150808444Y-131516244D01*
X150720737Y-131444264D01*
X150657622Y-131367359D01*
X150640297Y-131350034D01*
X150619923Y-131336420D01*
X150597284Y-131327043D01*
X150573250Y-131322263D01*
X150548746Y-131322263D01*
X150524713Y-131327044D01*
X150502074Y-131336421D01*
X150481700Y-131350035D01*
X150464373Y-131367362D01*
X150450759Y-131387736D01*
X150441382Y-131410375D01*
X150436000Y-131446660D01*
X150436000Y-131611000D01*
X149284000Y-131611000D01*
X149284000Y-130009000D01*
X150436000Y-130009000D01*
X150436000Y-130173341D01*
X150438402Y-130197727D01*
X150445515Y-130221176D01*
X150457066Y-130242787D01*
X150472611Y-130261729D01*
X150491553Y-130277274D01*
X150513164Y-130288825D01*
X150536613Y-130295938D01*
X150560999Y-130298340D01*
X150585385Y-130295938D01*
X150608834Y-130288825D01*
X150630445Y-130277274D01*
X150649387Y-130261729D01*
X150657608Y-130252657D01*
X150720736Y-130175736D01*
X150808443Y-130103756D01*
X150872399Y-130069571D01*
X150908505Y-130050272D01*
X150908508Y-130050271D01*
X151017084Y-130017334D01*
X151130000Y-130006213D01*
X151242915Y-130017334D01*
X151351491Y-130050271D01*
X151351494Y-130050272D01*
X151387600Y-130069571D01*
X151451556Y-130103756D01*
X151539264Y-130175736D01*
X151611244Y-130263443D01*
X151654761Y-130344859D01*
X151668375Y-130365234D01*
X151685702Y-130382561D01*
X151706076Y-130396174D01*
X151728715Y-130405552D01*
X151752748Y-130410332D01*
X151777252Y-130410332D01*
X151801285Y-130405552D01*
X151823924Y-130396174D01*
X151844299Y-130382560D01*
X151861626Y-130365233D01*
X151875239Y-130344860D01*
X151918756Y-130263444D01*
X151990736Y-130175736D01*
X152078443Y-130103756D01*
X152142399Y-130069571D01*
X152178505Y-130050272D01*
X152178508Y-130050271D01*
X152287084Y-130017334D01*
X152400000Y-130006213D01*
X152512915Y-130017334D01*
G37*
G36*
X151770499Y-128510445D02*
G01*
X151807995Y-128521820D01*
X151842554Y-128540292D01*
X151872847Y-128565153D01*
X151897708Y-128595446D01*
X151916180Y-128630005D01*
X151927555Y-128667501D01*
X151932000Y-128712638D01*
X151932000Y-129351362D01*
X151927555Y-129396499D01*
X151916180Y-129433995D01*
X151897708Y-129468554D01*
X151872847Y-129498847D01*
X151842554Y-129523708D01*
X151807995Y-129542180D01*
X151770499Y-129553555D01*
X151725362Y-129558000D01*
X150986638Y-129558000D01*
X150941501Y-129553555D01*
X150904005Y-129542180D01*
X150869446Y-129523708D01*
X150839153Y-129498847D01*
X150814292Y-129468554D01*
X150795820Y-129433995D01*
X150784445Y-129396499D01*
X150780000Y-129351362D01*
X150780000Y-128712638D01*
X150784445Y-128667501D01*
X150795820Y-128630005D01*
X150814292Y-128595446D01*
X150839153Y-128565153D01*
X150869446Y-128540292D01*
X150904005Y-128521820D01*
X150941501Y-128510445D01*
X150986638Y-128506000D01*
X151725362Y-128506000D01*
X151770499Y-128510445D01*
G37*
G36*
X150020499Y-128510445D02*
G01*
X150057995Y-128521820D01*
X150092554Y-128540292D01*
X150122847Y-128565153D01*
X150147708Y-128595446D01*
X150166180Y-128630005D01*
X150177555Y-128667501D01*
X150182000Y-128712638D01*
X150182000Y-129351362D01*
X150177555Y-129396499D01*
X150166180Y-129433995D01*
X150147708Y-129468554D01*
X150122847Y-129498847D01*
X150092554Y-129523708D01*
X150057995Y-129542180D01*
X150020499Y-129553555D01*
X149975362Y-129558000D01*
X149236638Y-129558000D01*
X149191501Y-129553555D01*
X149154005Y-129542180D01*
X149119446Y-129523708D01*
X149089153Y-129498847D01*
X149064292Y-129468554D01*
X149045820Y-129433995D01*
X149034445Y-129396499D01*
X149030000Y-129351362D01*
X149030000Y-128712638D01*
X149034445Y-128667501D01*
X149045820Y-128630005D01*
X149064292Y-128595446D01*
X149089153Y-128565153D01*
X149119446Y-128540292D01*
X149154005Y-128521820D01*
X149191501Y-128510445D01*
X149236638Y-128506000D01*
X149975362Y-128506000D01*
X150020499Y-128510445D01*
G37*
G36*
X170296000Y-128511000D02*
G01*
X168194000Y-128511000D01*
X168194000Y-126629000D01*
X170296000Y-126629000D01*
X170296000Y-128511000D01*
G37*
G36*
X179826000Y-128511000D02*
G01*
X177724000Y-128511000D01*
X177724000Y-126629000D01*
X179826000Y-126629000D01*
X179826000Y-128511000D01*
G37*
G36*
X150669499Y-126732445D02*
G01*
X150706995Y-126743820D01*
X150741554Y-126762292D01*
X150771847Y-126787153D01*
X150796708Y-126817446D01*
X150815180Y-126852005D01*
X150826555Y-126889501D01*
X150831000Y-126934638D01*
X150831000Y-127573362D01*
X150826555Y-127618499D01*
X150815180Y-127655995D01*
X150796708Y-127690554D01*
X150771847Y-127720847D01*
X150741554Y-127745708D01*
X150706995Y-127764180D01*
X150669499Y-127775555D01*
X150624362Y-127780000D01*
X149885638Y-127780000D01*
X149840501Y-127775555D01*
X149803005Y-127764180D01*
X149768446Y-127745708D01*
X149738153Y-127720847D01*
X149713292Y-127690554D01*
X149694820Y-127655995D01*
X149683445Y-127618499D01*
X149679000Y-127573362D01*
X149679000Y-126934638D01*
X149683445Y-126889501D01*
X149694820Y-126852005D01*
X149713292Y-126817446D01*
X149738153Y-126787153D01*
X149768446Y-126762292D01*
X149803005Y-126743820D01*
X149840501Y-126732445D01*
X149885638Y-126728000D01*
X150624362Y-126728000D01*
X150669499Y-126732445D01*
G37*
G36*
X152419499Y-126732445D02*
G01*
X152456995Y-126743820D01*
X152491554Y-126762292D01*
X152521847Y-126787153D01*
X152546708Y-126817446D01*
X152565180Y-126852005D01*
X152576555Y-126889501D01*
X152581000Y-126934638D01*
X152581000Y-127573362D01*
X152576555Y-127618499D01*
X152565180Y-127655995D01*
X152546708Y-127690554D01*
X152521847Y-127720847D01*
X152491554Y-127745708D01*
X152456995Y-127764180D01*
X152419499Y-127775555D01*
X152374362Y-127780000D01*
X151635638Y-127780000D01*
X151590501Y-127775555D01*
X151553005Y-127764180D01*
X151518446Y-127745708D01*
X151488153Y-127720847D01*
X151463292Y-127690554D01*
X151444820Y-127655995D01*
X151433445Y-127618499D01*
X151429000Y-127573362D01*
X151429000Y-126934638D01*
X151433445Y-126889501D01*
X151444820Y-126852005D01*
X151463292Y-126817446D01*
X151488153Y-126787153D01*
X151518446Y-126762292D01*
X151553005Y-126743820D01*
X151590501Y-126732445D01*
X151635638Y-126728000D01*
X152374362Y-126728000D01*
X152419499Y-126732445D01*
G37*
G36*
X185881000Y-126861000D02*
G01*
X183779000Y-126861000D01*
X183779000Y-125259000D01*
X185881000Y-125259000D01*
X185881000Y-126861000D01*
G37*
G36*
X179826000Y-125971000D02*
G01*
X177724000Y-125971000D01*
X177724000Y-124089000D01*
X179826000Y-124089000D01*
X179826000Y-125971000D01*
G37*
G36*
X170296000Y-125971000D02*
G01*
X168194000Y-125971000D01*
X168194000Y-124089000D01*
X170296000Y-124089000D01*
X170296000Y-125971000D01*
G37*
G36*
X192181000Y-125711000D02*
G01*
X190079000Y-125711000D01*
X190079000Y-121809000D01*
X192181000Y-121809000D01*
X192181000Y-125711000D01*
G37*
G36*
X182756499Y-124176445D02*
G01*
X182793995Y-124187820D01*
X182828554Y-124206292D01*
X182858847Y-124231153D01*
X182883708Y-124261446D01*
X182902180Y-124296005D01*
X182913555Y-124333501D01*
X182918000Y-124378638D01*
X182918000Y-125117362D01*
X182913555Y-125162499D01*
X182902180Y-125199995D01*
X182883708Y-125234554D01*
X182858847Y-125264847D01*
X182828554Y-125289708D01*
X182793995Y-125308180D01*
X182756499Y-125319555D01*
X182711362Y-125324000D01*
X182072638Y-125324000D01*
X182027501Y-125319555D01*
X181990005Y-125308180D01*
X181955446Y-125289708D01*
X181925153Y-125264847D01*
X181900292Y-125234554D01*
X181881820Y-125199995D01*
X181870445Y-125162499D01*
X181866000Y-125117362D01*
X181866000Y-124378638D01*
X181870445Y-124333501D01*
X181881820Y-124296005D01*
X181900292Y-124261446D01*
X181925153Y-124231153D01*
X181955446Y-124206292D01*
X181990005Y-124187820D01*
X182027501Y-124176445D01*
X182072638Y-124172000D01*
X182711362Y-124172000D01*
X182756499Y-124176445D01*
G37*
G36*
X230598254Y-121027818D02*
G01*
X230971511Y-121182426D01*
X230971513Y-121182427D01*
X231307436Y-121406884D01*
X231593116Y-121692564D01*
X231817574Y-122028489D01*
X231972182Y-122401746D01*
X232051000Y-122797993D01*
X232051000Y-123202007D01*
X231972182Y-123598254D01*
X231817574Y-123971511D01*
X231817573Y-123971513D01*
X231593116Y-124307436D01*
X231307436Y-124593116D01*
X230971513Y-124817573D01*
X230971512Y-124817574D01*
X230971511Y-124817574D01*
X230598254Y-124972182D01*
X230202007Y-125051000D01*
X229797993Y-125051000D01*
X229401746Y-124972182D01*
X229028489Y-124817574D01*
X229028488Y-124817574D01*
X229028487Y-124817573D01*
X228692564Y-124593116D01*
X228406884Y-124307436D01*
X228182427Y-123971513D01*
X228182426Y-123971511D01*
X228027818Y-123598254D01*
X227949000Y-123202007D01*
X227949000Y-122797993D01*
X228027818Y-122401746D01*
X228182426Y-122028489D01*
X228406884Y-121692564D01*
X228692564Y-121406884D01*
X229028487Y-121182427D01*
X229028489Y-121182426D01*
X229401746Y-121027818D01*
X229797993Y-120949000D01*
X230202007Y-120949000D01*
X230598254Y-121027818D01*
G37*
G36*
X157598254Y-121027818D02*
G01*
X157971511Y-121182426D01*
X157971513Y-121182427D01*
X158307436Y-121406884D01*
X158593116Y-121692564D01*
X158817574Y-122028489D01*
X158972182Y-122401746D01*
X159051000Y-122797993D01*
X159051000Y-123202007D01*
X158972182Y-123598254D01*
X158817574Y-123971511D01*
X158817573Y-123971513D01*
X158593116Y-124307436D01*
X158307436Y-124593116D01*
X157971513Y-124817573D01*
X157971512Y-124817574D01*
X157971511Y-124817574D01*
X157598254Y-124972182D01*
X157202007Y-125051000D01*
X156797993Y-125051000D01*
X156401746Y-124972182D01*
X156028489Y-124817574D01*
X156028488Y-124817574D01*
X156028487Y-124817573D01*
X155692564Y-124593116D01*
X155406884Y-124307436D01*
X155182427Y-123971513D01*
X155182426Y-123971511D01*
X155027818Y-123598254D01*
X154949000Y-123202007D01*
X154949000Y-122797993D01*
X155027818Y-122401746D01*
X155182426Y-122028489D01*
X155406884Y-121692564D01*
X155692564Y-121406884D01*
X156028487Y-121182427D01*
X156028489Y-121182426D01*
X156401746Y-121027818D01*
X156797993Y-120949000D01*
X157202007Y-120949000D01*
X157598254Y-121027818D01*
G37*
G36*
X185881000Y-124561000D02*
G01*
X183779000Y-124561000D01*
X183779000Y-122959000D01*
X185881000Y-122959000D01*
X185881000Y-124561000D01*
G37*
G36*
X182756499Y-122426445D02*
G01*
X182793995Y-122437820D01*
X182828554Y-122456292D01*
X182858847Y-122481153D01*
X182883708Y-122511446D01*
X182902180Y-122546005D01*
X182913555Y-122583501D01*
X182918000Y-122628638D01*
X182918000Y-123367362D01*
X182913555Y-123412499D01*
X182902180Y-123449995D01*
X182883708Y-123484554D01*
X182858847Y-123514847D01*
X182828554Y-123539708D01*
X182793995Y-123558180D01*
X182756499Y-123569555D01*
X182711362Y-123574000D01*
X182072638Y-123574000D01*
X182027501Y-123569555D01*
X181990005Y-123558180D01*
X181955446Y-123539708D01*
X181925153Y-123514847D01*
X181900292Y-123484554D01*
X181881820Y-123449995D01*
X181870445Y-123412499D01*
X181866000Y-123367362D01*
X181866000Y-122628638D01*
X181870445Y-122583501D01*
X181881820Y-122546005D01*
X181900292Y-122511446D01*
X181925153Y-122481153D01*
X181955446Y-122456292D01*
X181990005Y-122437820D01*
X182027501Y-122426445D01*
X182072638Y-122422000D01*
X182711362Y-122422000D01*
X182756499Y-122426445D01*
G37*
G36*
X185881000Y-122261000D02*
G01*
X183779000Y-122261000D01*
X183779000Y-120659000D01*
X185881000Y-120659000D01*
X185881000Y-122261000D01*
G37*
G36*
X152165499Y-118858445D02*
G01*
X152202995Y-118869820D01*
X152237554Y-118888292D01*
X152267847Y-118913153D01*
X152292708Y-118943446D01*
X152311180Y-118978005D01*
X152322555Y-119015501D01*
X152327000Y-119060638D01*
X152327000Y-119699362D01*
X152322555Y-119744499D01*
X152311180Y-119781995D01*
X152292708Y-119816554D01*
X152267847Y-119846847D01*
X152237554Y-119871708D01*
X152202995Y-119890180D01*
X152165499Y-119901555D01*
X152120362Y-119906000D01*
X151381638Y-119906000D01*
X151336501Y-119901555D01*
X151299005Y-119890180D01*
X151264446Y-119871708D01*
X151234153Y-119846847D01*
X151209292Y-119816554D01*
X151190820Y-119781995D01*
X151179445Y-119744499D01*
X151175000Y-119699362D01*
X151175000Y-119060638D01*
X151179445Y-119015501D01*
X151190820Y-118978005D01*
X151209292Y-118943446D01*
X151234153Y-118913153D01*
X151264446Y-118888292D01*
X151299005Y-118869820D01*
X151336501Y-118858445D01*
X151381638Y-118854000D01*
X152120362Y-118854000D01*
X152165499Y-118858445D01*
G37*
G36*
X150415499Y-118858445D02*
G01*
X150452995Y-118869820D01*
X150487554Y-118888292D01*
X150517847Y-118913153D01*
X150542708Y-118943446D01*
X150561180Y-118978005D01*
X150572555Y-119015501D01*
X150577000Y-119060638D01*
X150577000Y-119699362D01*
X150572555Y-119744499D01*
X150561180Y-119781995D01*
X150542708Y-119816554D01*
X150517847Y-119846847D01*
X150487554Y-119871708D01*
X150452995Y-119890180D01*
X150415499Y-119901555D01*
X150370362Y-119906000D01*
X149631638Y-119906000D01*
X149586501Y-119901555D01*
X149549005Y-119890180D01*
X149514446Y-119871708D01*
X149484153Y-119846847D01*
X149459292Y-119816554D01*
X149440820Y-119781995D01*
X149429445Y-119744499D01*
X149425000Y-119699362D01*
X149425000Y-119060638D01*
X149429445Y-119015501D01*
X149440820Y-118978005D01*
X149459292Y-118943446D01*
X149484153Y-118913153D01*
X149514446Y-118888292D01*
X149549005Y-118869820D01*
X149586501Y-118858445D01*
X149631638Y-118854000D01*
X150370362Y-118854000D01*
X150415499Y-118858445D01*
G37*
G36*
X164998499Y-117142445D02*
G01*
X165035995Y-117153820D01*
X165070554Y-117172292D01*
X165100847Y-117197153D01*
X165125708Y-117227446D01*
X165144180Y-117262005D01*
X165155555Y-117299501D01*
X165160000Y-117344638D01*
X165160000Y-117983362D01*
X165155555Y-118028499D01*
X165144180Y-118065995D01*
X165125708Y-118100554D01*
X165100847Y-118130847D01*
X165070554Y-118155708D01*
X165035995Y-118174180D01*
X164998499Y-118185555D01*
X164953362Y-118190000D01*
X164214638Y-118190000D01*
X164169501Y-118185555D01*
X164132005Y-118174180D01*
X164097446Y-118155708D01*
X164067153Y-118130847D01*
X164042292Y-118100554D01*
X164023820Y-118065995D01*
X164012445Y-118028499D01*
X164008000Y-117983362D01*
X164008000Y-117344638D01*
X164012445Y-117299501D01*
X164023820Y-117262005D01*
X164042292Y-117227446D01*
X164067153Y-117197153D01*
X164097446Y-117172292D01*
X164132005Y-117153820D01*
X164169501Y-117142445D01*
X164214638Y-117138000D01*
X164953362Y-117138000D01*
X164998499Y-117142445D01*
G37*
G36*
X163248499Y-117142445D02*
G01*
X163285995Y-117153820D01*
X163320554Y-117172292D01*
X163350847Y-117197153D01*
X163375708Y-117227446D01*
X163394180Y-117262005D01*
X163405555Y-117299501D01*
X163410000Y-117344638D01*
X163410000Y-117983362D01*
X163405555Y-118028499D01*
X163394180Y-118065995D01*
X163375708Y-118100554D01*
X163350847Y-118130847D01*
X163320554Y-118155708D01*
X163285995Y-118174180D01*
X163248499Y-118185555D01*
X163203362Y-118190000D01*
X162464638Y-118190000D01*
X162419501Y-118185555D01*
X162382005Y-118174180D01*
X162347446Y-118155708D01*
X162317153Y-118130847D01*
X162292292Y-118100554D01*
X162273820Y-118065995D01*
X162262445Y-118028499D01*
X162258000Y-117983362D01*
X162258000Y-117344638D01*
X162262445Y-117299501D01*
X162273820Y-117262005D01*
X162292292Y-117227446D01*
X162317153Y-117197153D01*
X162347446Y-117172292D01*
X162382005Y-117153820D01*
X162419501Y-117142445D01*
X162464638Y-117138000D01*
X163203362Y-117138000D01*
X163248499Y-117142445D01*
G37*
G36*
X150020499Y-117080445D02*
G01*
X150057995Y-117091820D01*
X150092554Y-117110292D01*
X150122847Y-117135153D01*
X150147708Y-117165446D01*
X150166180Y-117200005D01*
X150177555Y-117237501D01*
X150182000Y-117282638D01*
X150182000Y-117921362D01*
X150177555Y-117966499D01*
X150166180Y-118003995D01*
X150147708Y-118038554D01*
X150122847Y-118068847D01*
X150092554Y-118093708D01*
X150057995Y-118112180D01*
X150020499Y-118123555D01*
X149975362Y-118128000D01*
X149236638Y-118128000D01*
X149191501Y-118123555D01*
X149154005Y-118112180D01*
X149119446Y-118093708D01*
X149089153Y-118068847D01*
X149064292Y-118038554D01*
X149045820Y-118003995D01*
X149034445Y-117966499D01*
X149030000Y-117921362D01*
X149030000Y-117282638D01*
X149034445Y-117237501D01*
X149045820Y-117200005D01*
X149064292Y-117165446D01*
X149089153Y-117135153D01*
X149119446Y-117110292D01*
X149154005Y-117091820D01*
X149191501Y-117080445D01*
X149236638Y-117076000D01*
X149975362Y-117076000D01*
X150020499Y-117080445D01*
G37*
G36*
X151770499Y-117080445D02*
G01*
X151807995Y-117091820D01*
X151842554Y-117110292D01*
X151872847Y-117135153D01*
X151897708Y-117165446D01*
X151916180Y-117200005D01*
X151927555Y-117237501D01*
X151932000Y-117282638D01*
X151932000Y-117921362D01*
X151927555Y-117966499D01*
X151916180Y-118003995D01*
X151897708Y-118038554D01*
X151872847Y-118068847D01*
X151842554Y-118093708D01*
X151807995Y-118112180D01*
X151770499Y-118123555D01*
X151725362Y-118128000D01*
X150986638Y-118128000D01*
X150941501Y-118123555D01*
X150904005Y-118112180D01*
X150869446Y-118093708D01*
X150839153Y-118068847D01*
X150814292Y-118038554D01*
X150795820Y-118003995D01*
X150784445Y-117966499D01*
X150780000Y-117921362D01*
X150780000Y-117282638D01*
X150784445Y-117237501D01*
X150795820Y-117200005D01*
X150814292Y-117165446D01*
X150839153Y-117135153D01*
X150869446Y-117110292D01*
X150904005Y-117091820D01*
X150941501Y-117080445D01*
X150986638Y-117076000D01*
X151725362Y-117076000D01*
X151770499Y-117080445D01*
G37*
G36*
X168685000Y-118049000D02*
G01*
X167683000Y-118049000D01*
X167683000Y-117147000D01*
X168685000Y-117147000D01*
X168685000Y-118049000D01*
G37*
G36*
X166754499Y-116838445D02*
G01*
X166791995Y-116849820D01*
X166826554Y-116868292D01*
X166856847Y-116893153D01*
X166881708Y-116923446D01*
X166900180Y-116958005D01*
X166911555Y-116995501D01*
X166916000Y-117040638D01*
X166916000Y-117779362D01*
X166911555Y-117824499D01*
X166900180Y-117861995D01*
X166881708Y-117896554D01*
X166856847Y-117926847D01*
X166826554Y-117951708D01*
X166791995Y-117970180D01*
X166754499Y-117981555D01*
X166709362Y-117986000D01*
X166070638Y-117986000D01*
X166025501Y-117981555D01*
X165988005Y-117970180D01*
X165953446Y-117951708D01*
X165923153Y-117926847D01*
X165898292Y-117896554D01*
X165879820Y-117861995D01*
X165868445Y-117824499D01*
X165864000Y-117779362D01*
X165864000Y-117040638D01*
X165868445Y-116995501D01*
X165879820Y-116958005D01*
X165898292Y-116923446D01*
X165923153Y-116893153D01*
X165953446Y-116868292D01*
X165988005Y-116849820D01*
X166025501Y-116838445D01*
X166070638Y-116834000D01*
X166709362Y-116834000D01*
X166754499Y-116838445D01*
G37*
G36*
X175186499Y-116126445D02*
G01*
X175223995Y-116137820D01*
X175258554Y-116156292D01*
X175288847Y-116181153D01*
X175313708Y-116211446D01*
X175332180Y-116246005D01*
X175343555Y-116283501D01*
X175348000Y-116328638D01*
X175348000Y-116967362D01*
X175343555Y-117012499D01*
X175332180Y-117049995D01*
X175313708Y-117084554D01*
X175288847Y-117114847D01*
X175258554Y-117139708D01*
X175223995Y-117158180D01*
X175186499Y-117169555D01*
X175141362Y-117174000D01*
X174402638Y-117174000D01*
X174357501Y-117169555D01*
X174320005Y-117158180D01*
X174285446Y-117139708D01*
X174255153Y-117114847D01*
X174230292Y-117084554D01*
X174211820Y-117049995D01*
X174200445Y-117012499D01*
X174196000Y-116967362D01*
X174196000Y-116328638D01*
X174200445Y-116283501D01*
X174211820Y-116246005D01*
X174230292Y-116211446D01*
X174255153Y-116181153D01*
X174285446Y-116156292D01*
X174320005Y-116137820D01*
X174357501Y-116126445D01*
X174402638Y-116122000D01*
X175141362Y-116122000D01*
X175186499Y-116126445D01*
G37*
G36*
X173436499Y-116126445D02*
G01*
X173473995Y-116137820D01*
X173508554Y-116156292D01*
X173538847Y-116181153D01*
X173563708Y-116211446D01*
X173582180Y-116246005D01*
X173593555Y-116283501D01*
X173598000Y-116328638D01*
X173598000Y-116967362D01*
X173593555Y-117012499D01*
X173582180Y-117049995D01*
X173563708Y-117084554D01*
X173538847Y-117114847D01*
X173508554Y-117139708D01*
X173473995Y-117158180D01*
X173436499Y-117169555D01*
X173391362Y-117174000D01*
X172652638Y-117174000D01*
X172607501Y-117169555D01*
X172570005Y-117158180D01*
X172535446Y-117139708D01*
X172505153Y-117114847D01*
X172480292Y-117084554D01*
X172461820Y-117049995D01*
X172450445Y-117012499D01*
X172446000Y-116967362D01*
X172446000Y-116328638D01*
X172450445Y-116283501D01*
X172461820Y-116246005D01*
X172480292Y-116211446D01*
X172505153Y-116181153D01*
X172535446Y-116156292D01*
X172570005Y-116137820D01*
X172607501Y-116126445D01*
X172652638Y-116122000D01*
X173391362Y-116122000D01*
X173436499Y-116126445D01*
G37*
G36*
X170685000Y-117099000D02*
G01*
X169683000Y-117099000D01*
X169683000Y-116197000D01*
X170685000Y-116197000D01*
X170685000Y-117099000D01*
G37*
G36*
X152512915Y-114777334D02*
G01*
X152621491Y-114810271D01*
X152621494Y-114810272D01*
X152657600Y-114829571D01*
X152721556Y-114863756D01*
X152809264Y-114935736D01*
X152881244Y-115023443D01*
X152913612Y-115084000D01*
X152934728Y-115123505D01*
X152934729Y-115123508D01*
X152967666Y-115232084D01*
X152976000Y-115316702D01*
X152976000Y-115823297D01*
X152967666Y-115907916D01*
X152935252Y-116014767D01*
X152934728Y-116016495D01*
X152930551Y-116024309D01*
X152881244Y-116116557D01*
X152809264Y-116204264D01*
X152721557Y-116276244D01*
X152657601Y-116310429D01*
X152621495Y-116329728D01*
X152621492Y-116329729D01*
X152512916Y-116362666D01*
X152400000Y-116373787D01*
X152287085Y-116362666D01*
X152178509Y-116329729D01*
X152178506Y-116329728D01*
X152142400Y-116310429D01*
X152078444Y-116276244D01*
X151990737Y-116204264D01*
X151918757Y-116116557D01*
X151896276Y-116074499D01*
X151875239Y-116035141D01*
X151861625Y-116014766D01*
X151844298Y-115997439D01*
X151823924Y-115983826D01*
X151801285Y-115974448D01*
X151777252Y-115969668D01*
X151752748Y-115969668D01*
X151728715Y-115974448D01*
X151706076Y-115983826D01*
X151685701Y-115997440D01*
X151668374Y-116014767D01*
X151654761Y-116035141D01*
X151611244Y-116116557D01*
X151539264Y-116204264D01*
X151451557Y-116276244D01*
X151387601Y-116310429D01*
X151351495Y-116329728D01*
X151351492Y-116329729D01*
X151242916Y-116362666D01*
X151130000Y-116373787D01*
X151017085Y-116362666D01*
X150908509Y-116329729D01*
X150908506Y-116329728D01*
X150872400Y-116310429D01*
X150808444Y-116276244D01*
X150720737Y-116204264D01*
X150657622Y-116127359D01*
X150640297Y-116110034D01*
X150619923Y-116096420D01*
X150597284Y-116087043D01*
X150573250Y-116082263D01*
X150548746Y-116082263D01*
X150524713Y-116087044D01*
X150502074Y-116096421D01*
X150481700Y-116110035D01*
X150464373Y-116127362D01*
X150450759Y-116147736D01*
X150441382Y-116170375D01*
X150436000Y-116206660D01*
X150436000Y-116371000D01*
X149284000Y-116371000D01*
X149284000Y-114769000D01*
X150436000Y-114769000D01*
X150436000Y-114933341D01*
X150438402Y-114957727D01*
X150445515Y-114981176D01*
X150457066Y-115002787D01*
X150472611Y-115021729D01*
X150491553Y-115037274D01*
X150513164Y-115048825D01*
X150536613Y-115055938D01*
X150560999Y-115058340D01*
X150585385Y-115055938D01*
X150608834Y-115048825D01*
X150630445Y-115037274D01*
X150649387Y-115021729D01*
X150657608Y-115012657D01*
X150720736Y-114935736D01*
X150808443Y-114863756D01*
X150872399Y-114829571D01*
X150908505Y-114810272D01*
X150908508Y-114810271D01*
X151017084Y-114777334D01*
X151130000Y-114766213D01*
X151242915Y-114777334D01*
X151351491Y-114810271D01*
X151351494Y-114810272D01*
X151387600Y-114829571D01*
X151451556Y-114863756D01*
X151539264Y-114935736D01*
X151611244Y-115023443D01*
X151652068Y-115099820D01*
X151654761Y-115104859D01*
X151668375Y-115125234D01*
X151685702Y-115142561D01*
X151706076Y-115156174D01*
X151728715Y-115165552D01*
X151752748Y-115170332D01*
X151777252Y-115170332D01*
X151801285Y-115165552D01*
X151823924Y-115156174D01*
X151844299Y-115142560D01*
X151861626Y-115125233D01*
X151875239Y-115104860D01*
X151918756Y-115023444D01*
X151990736Y-114935736D01*
X152078443Y-114863756D01*
X152142399Y-114829571D01*
X152178505Y-114810272D01*
X152178508Y-114810271D01*
X152287084Y-114777334D01*
X152400000Y-114766213D01*
X152512915Y-114777334D01*
G37*
G36*
X166754499Y-115088445D02*
G01*
X166791995Y-115099820D01*
X166826554Y-115118292D01*
X166856847Y-115143153D01*
X166881708Y-115173446D01*
X166900180Y-115208005D01*
X166911555Y-115245501D01*
X166916000Y-115290638D01*
X166916000Y-116029362D01*
X166911555Y-116074499D01*
X166900180Y-116111995D01*
X166881708Y-116146554D01*
X166856847Y-116176847D01*
X166826554Y-116201708D01*
X166791995Y-116220180D01*
X166754499Y-116231555D01*
X166709362Y-116236000D01*
X166070638Y-116236000D01*
X166025501Y-116231555D01*
X165988005Y-116220180D01*
X165953446Y-116201708D01*
X165923153Y-116176847D01*
X165898292Y-116146554D01*
X165879820Y-116111995D01*
X165868445Y-116074499D01*
X165864000Y-116029362D01*
X165864000Y-115290638D01*
X165868445Y-115245501D01*
X165879820Y-115208005D01*
X165898292Y-115173446D01*
X165923153Y-115143153D01*
X165953446Y-115118292D01*
X165988005Y-115099820D01*
X166025501Y-115088445D01*
X166070638Y-115084000D01*
X166709362Y-115084000D01*
X166754499Y-115088445D01*
G37*
G36*
X168685000Y-116149000D02*
G01*
X167683000Y-116149000D01*
X167683000Y-115247000D01*
X168685000Y-115247000D01*
X168685000Y-116149000D01*
G37*
G36*
X152512915Y-108681334D02*
G01*
X152621491Y-108714271D01*
X152621494Y-108714272D01*
X152657600Y-108733571D01*
X152721556Y-108767756D01*
X152809264Y-108839736D01*
X152881244Y-108927443D01*
X152915429Y-108991399D01*
X152934728Y-109027505D01*
X152934729Y-109027508D01*
X152967666Y-109136084D01*
X152976000Y-109220702D01*
X152976000Y-109727297D01*
X152967666Y-109811916D01*
X152935252Y-109918767D01*
X152934728Y-109920495D01*
X152924761Y-109939141D01*
X152881244Y-110020557D01*
X152809264Y-110108264D01*
X152721557Y-110180244D01*
X152657601Y-110214429D01*
X152621495Y-110233728D01*
X152621492Y-110233729D01*
X152512916Y-110266666D01*
X152400000Y-110277787D01*
X152287085Y-110266666D01*
X152178509Y-110233729D01*
X152178506Y-110233728D01*
X152142400Y-110214429D01*
X152078444Y-110180244D01*
X151990737Y-110108264D01*
X151918757Y-110020557D01*
X151875239Y-109939141D01*
X151861625Y-109918766D01*
X151844298Y-109901439D01*
X151823924Y-109887826D01*
X151801285Y-109878448D01*
X151777252Y-109873668D01*
X151752748Y-109873668D01*
X151728715Y-109878448D01*
X151706076Y-109887826D01*
X151685701Y-109901440D01*
X151668374Y-109918767D01*
X151654761Y-109939141D01*
X151611244Y-110020557D01*
X151539264Y-110108264D01*
X151451557Y-110180244D01*
X151387601Y-110214429D01*
X151351495Y-110233728D01*
X151351492Y-110233729D01*
X151242916Y-110266666D01*
X151130000Y-110277787D01*
X151017085Y-110266666D01*
X150908509Y-110233729D01*
X150908506Y-110233728D01*
X150872400Y-110214429D01*
X150808444Y-110180244D01*
X150720737Y-110108264D01*
X150657622Y-110031359D01*
X150640297Y-110014034D01*
X150619923Y-110000420D01*
X150597284Y-109991043D01*
X150573250Y-109986263D01*
X150548746Y-109986263D01*
X150524713Y-109991044D01*
X150502074Y-110000421D01*
X150481700Y-110014035D01*
X150464373Y-110031362D01*
X150450759Y-110051736D01*
X150441382Y-110074375D01*
X150436000Y-110110660D01*
X150436000Y-110275000D01*
X149284000Y-110275000D01*
X149284000Y-108673000D01*
X150436000Y-108673000D01*
X150436000Y-108837341D01*
X150438402Y-108861727D01*
X150445515Y-108885176D01*
X150457066Y-108906787D01*
X150472611Y-108925729D01*
X150491553Y-108941274D01*
X150513164Y-108952825D01*
X150536613Y-108959938D01*
X150560999Y-108962340D01*
X150585385Y-108959938D01*
X150608834Y-108952825D01*
X150630445Y-108941274D01*
X150649387Y-108925729D01*
X150657608Y-108916657D01*
X150720736Y-108839736D01*
X150808443Y-108767756D01*
X150872399Y-108733571D01*
X150908505Y-108714272D01*
X150908508Y-108714271D01*
X151017084Y-108681334D01*
X151130000Y-108670213D01*
X151242915Y-108681334D01*
X151351491Y-108714271D01*
X151351494Y-108714272D01*
X151387600Y-108733571D01*
X151451556Y-108767756D01*
X151539264Y-108839736D01*
X151611244Y-108927443D01*
X151654761Y-109008859D01*
X151668375Y-109029234D01*
X151685702Y-109046561D01*
X151706076Y-109060174D01*
X151728715Y-109069552D01*
X151752748Y-109074332D01*
X151777252Y-109074332D01*
X151801285Y-109069552D01*
X151823924Y-109060174D01*
X151844299Y-109046560D01*
X151861626Y-109029233D01*
X151875239Y-109008860D01*
X151918756Y-108927444D01*
X151990736Y-108839736D01*
X152078443Y-108767756D01*
X152142399Y-108733571D01*
X152178505Y-108714272D01*
X152178508Y-108714271D01*
X152287084Y-108681334D01*
X152400000Y-108670213D01*
X152512915Y-108681334D01*
G37*
G36*
X150048499Y-106920445D02*
G01*
X150085995Y-106931820D01*
X150120554Y-106950292D01*
X150150847Y-106975153D01*
X150175708Y-107005446D01*
X150194180Y-107040005D01*
X150205555Y-107077501D01*
X150210000Y-107122638D01*
X150210000Y-107761362D01*
X150205555Y-107806499D01*
X150194180Y-107843995D01*
X150175708Y-107878554D01*
X150150847Y-107908847D01*
X150120554Y-107933708D01*
X150085995Y-107952180D01*
X150048499Y-107963555D01*
X150003362Y-107968000D01*
X149264638Y-107968000D01*
X149219501Y-107963555D01*
X149182005Y-107952180D01*
X149147446Y-107933708D01*
X149117153Y-107908847D01*
X149092292Y-107878554D01*
X149073820Y-107843995D01*
X149062445Y-107806499D01*
X149058000Y-107761362D01*
X149058000Y-107122638D01*
X149062445Y-107077501D01*
X149073820Y-107040005D01*
X149092292Y-107005446D01*
X149117153Y-106975153D01*
X149147446Y-106950292D01*
X149182005Y-106931820D01*
X149219501Y-106920445D01*
X149264638Y-106916000D01*
X150003362Y-106916000D01*
X150048499Y-106920445D01*
G37*
G36*
X151798499Y-106920445D02*
G01*
X151835995Y-106931820D01*
X151870554Y-106950292D01*
X151900847Y-106975153D01*
X151925708Y-107005446D01*
X151944180Y-107040005D01*
X151955555Y-107077501D01*
X151960000Y-107122638D01*
X151960000Y-107761362D01*
X151955555Y-107806499D01*
X151944180Y-107843995D01*
X151925708Y-107878554D01*
X151900847Y-107908847D01*
X151870554Y-107933708D01*
X151835995Y-107952180D01*
X151798499Y-107963555D01*
X151753362Y-107968000D01*
X151014638Y-107968000D01*
X150969501Y-107963555D01*
X150932005Y-107952180D01*
X150897446Y-107933708D01*
X150867153Y-107908847D01*
X150842292Y-107878554D01*
X150823820Y-107843995D01*
X150812445Y-107806499D01*
X150808000Y-107761362D01*
X150808000Y-107122638D01*
X150812445Y-107077501D01*
X150823820Y-107040005D01*
X150842292Y-107005446D01*
X150867153Y-106975153D01*
X150897446Y-106950292D01*
X150932005Y-106931820D01*
X150969501Y-106920445D01*
X151014638Y-106916000D01*
X151753362Y-106916000D01*
X151798499Y-106920445D01*
G37*
G36*
X170296000Y-107191000D02*
G01*
X168194000Y-107191000D01*
X168194000Y-105309000D01*
X170296000Y-105309000D01*
X170296000Y-107191000D01*
G37*
G36*
X179826000Y-107191000D02*
G01*
X177724000Y-107191000D01*
X177724000Y-105309000D01*
X179826000Y-105309000D01*
X179826000Y-107191000D01*
G37*
G36*
X150669499Y-105142445D02*
G01*
X150706995Y-105153820D01*
X150741554Y-105172292D01*
X150771847Y-105197153D01*
X150796708Y-105227446D01*
X150815180Y-105262005D01*
X150826555Y-105299501D01*
X150831000Y-105344638D01*
X150831000Y-105983362D01*
X150826555Y-106028499D01*
X150815180Y-106065995D01*
X150796708Y-106100554D01*
X150771847Y-106130847D01*
X150741554Y-106155708D01*
X150706995Y-106174180D01*
X150669499Y-106185555D01*
X150624362Y-106190000D01*
X149885638Y-106190000D01*
X149840501Y-106185555D01*
X149803005Y-106174180D01*
X149768446Y-106155708D01*
X149738153Y-106130847D01*
X149713292Y-106100554D01*
X149694820Y-106065995D01*
X149683445Y-106028499D01*
X149679000Y-105983362D01*
X149679000Y-105344638D01*
X149683445Y-105299501D01*
X149694820Y-105262005D01*
X149713292Y-105227446D01*
X149738153Y-105197153D01*
X149768446Y-105172292D01*
X149803005Y-105153820D01*
X149840501Y-105142445D01*
X149885638Y-105138000D01*
X150624362Y-105138000D01*
X150669499Y-105142445D01*
G37*
G36*
X152419499Y-105142445D02*
G01*
X152456995Y-105153820D01*
X152491554Y-105172292D01*
X152521847Y-105197153D01*
X152546708Y-105227446D01*
X152565180Y-105262005D01*
X152576555Y-105299501D01*
X152581000Y-105344638D01*
X152581000Y-105983362D01*
X152576555Y-106028499D01*
X152565180Y-106065995D01*
X152546708Y-106100554D01*
X152521847Y-106130847D01*
X152491554Y-106155708D01*
X152456995Y-106174180D01*
X152419499Y-106185555D01*
X152374362Y-106190000D01*
X151635638Y-106190000D01*
X151590501Y-106185555D01*
X151553005Y-106174180D01*
X151518446Y-106155708D01*
X151488153Y-106130847D01*
X151463292Y-106100554D01*
X151444820Y-106065995D01*
X151433445Y-106028499D01*
X151429000Y-105983362D01*
X151429000Y-105344638D01*
X151433445Y-105299501D01*
X151444820Y-105262005D01*
X151463292Y-105227446D01*
X151488153Y-105197153D01*
X151518446Y-105172292D01*
X151553005Y-105153820D01*
X151590501Y-105142445D01*
X151635638Y-105138000D01*
X152374362Y-105138000D01*
X152419499Y-105142445D01*
G37*
G36*
X185881000Y-105541000D02*
G01*
X183779000Y-105541000D01*
X183779000Y-103939000D01*
X185881000Y-103939000D01*
X185881000Y-105541000D01*
G37*
G36*
X170296000Y-104651000D02*
G01*
X168194000Y-104651000D01*
X168194000Y-102769000D01*
X170296000Y-102769000D01*
X170296000Y-104651000D01*
G37*
G36*
X179826000Y-104651000D02*
G01*
X177724000Y-104651000D01*
X177724000Y-102769000D01*
X179826000Y-102769000D01*
X179826000Y-104651000D01*
G37*
G36*
X192181000Y-104391000D02*
G01*
X190079000Y-104391000D01*
X190079000Y-100489000D01*
X192181000Y-100489000D01*
X192181000Y-104391000D01*
G37*
G36*
X182756499Y-102743445D02*
G01*
X182793995Y-102754820D01*
X182828554Y-102773292D01*
X182858847Y-102798153D01*
X182883708Y-102828446D01*
X182902180Y-102863005D01*
X182913555Y-102900501D01*
X182918000Y-102945638D01*
X182918000Y-103684362D01*
X182913555Y-103729499D01*
X182902180Y-103766995D01*
X182883708Y-103801554D01*
X182858847Y-103831847D01*
X182828554Y-103856708D01*
X182793995Y-103875180D01*
X182756499Y-103886555D01*
X182711362Y-103891000D01*
X182072638Y-103891000D01*
X182027501Y-103886555D01*
X181990005Y-103875180D01*
X181955446Y-103856708D01*
X181925153Y-103831847D01*
X181900292Y-103801554D01*
X181881820Y-103766995D01*
X181870445Y-103729499D01*
X181866000Y-103684362D01*
X181866000Y-102945638D01*
X181870445Y-102900501D01*
X181881820Y-102863005D01*
X181900292Y-102828446D01*
X181925153Y-102798153D01*
X181955446Y-102773292D01*
X181990005Y-102754820D01*
X182027501Y-102743445D01*
X182072638Y-102739000D01*
X182711362Y-102739000D01*
X182756499Y-102743445D01*
G37*
G36*
X157598254Y-99527818D02*
G01*
X157971511Y-99682426D01*
X157971513Y-99682427D01*
X158307436Y-99906884D01*
X158593116Y-100192564D01*
X158791189Y-100489000D01*
X158817574Y-100528489D01*
X158972182Y-100901746D01*
X159051000Y-101297993D01*
X159051000Y-101702007D01*
X158972182Y-102098254D01*
X158956569Y-102135947D01*
X158817573Y-102471513D01*
X158593116Y-102807436D01*
X158307436Y-103093116D01*
X157971513Y-103317573D01*
X157971512Y-103317574D01*
X157971511Y-103317574D01*
X157598254Y-103472182D01*
X157202007Y-103551000D01*
X156797993Y-103551000D01*
X156401746Y-103472182D01*
X156028489Y-103317574D01*
X156028488Y-103317574D01*
X156028487Y-103317573D01*
X155692564Y-103093116D01*
X155406884Y-102807436D01*
X155182427Y-102471513D01*
X155043431Y-102135947D01*
X155027818Y-102098254D01*
X154949000Y-101702007D01*
X154949000Y-101297993D01*
X155027818Y-100901746D01*
X155182426Y-100528489D01*
X155208812Y-100489000D01*
X155406884Y-100192564D01*
X155692564Y-99906884D01*
X156028487Y-99682427D01*
X156028489Y-99682426D01*
X156401746Y-99527818D01*
X156797993Y-99449000D01*
X157202007Y-99449000D01*
X157598254Y-99527818D01*
G37*
G36*
X230598254Y-99527818D02*
G01*
X230971511Y-99682426D01*
X230971513Y-99682427D01*
X231307436Y-99906884D01*
X231593116Y-100192564D01*
X231791189Y-100489000D01*
X231817574Y-100528489D01*
X231972182Y-100901746D01*
X232051000Y-101297993D01*
X232051000Y-101702007D01*
X231972182Y-102098254D01*
X231956569Y-102135947D01*
X231817573Y-102471513D01*
X231593116Y-102807436D01*
X231307436Y-103093116D01*
X230971513Y-103317573D01*
X230971512Y-103317574D01*
X230971511Y-103317574D01*
X230598254Y-103472182D01*
X230202007Y-103551000D01*
X229797993Y-103551000D01*
X229401746Y-103472182D01*
X229028489Y-103317574D01*
X229028488Y-103317574D01*
X229028487Y-103317573D01*
X228692564Y-103093116D01*
X228406884Y-102807436D01*
X228182427Y-102471513D01*
X228043431Y-102135947D01*
X228027818Y-102098254D01*
X227949000Y-101702007D01*
X227949000Y-101297993D01*
X228027818Y-100901746D01*
X228182426Y-100528489D01*
X228208812Y-100489000D01*
X228406884Y-100192564D01*
X228692564Y-99906884D01*
X229028487Y-99682427D01*
X229028489Y-99682426D01*
X229401746Y-99527818D01*
X229797993Y-99449000D01*
X230202007Y-99449000D01*
X230598254Y-99527818D01*
G37*
G36*
X185881000Y-103241000D02*
G01*
X183779000Y-103241000D01*
X183779000Y-101639000D01*
X185881000Y-101639000D01*
X185881000Y-103241000D01*
G37*
G36*
X182756499Y-100993445D02*
G01*
X182793995Y-101004820D01*
X182828554Y-101023292D01*
X182858847Y-101048153D01*
X182883708Y-101078446D01*
X182902180Y-101113005D01*
X182913555Y-101150501D01*
X182918000Y-101195638D01*
X182918000Y-101934362D01*
X182913555Y-101979499D01*
X182902180Y-102016995D01*
X182883708Y-102051554D01*
X182858847Y-102081847D01*
X182828554Y-102106708D01*
X182793995Y-102125180D01*
X182756499Y-102136555D01*
X182711362Y-102141000D01*
X182072638Y-102141000D01*
X182027501Y-102136555D01*
X181990005Y-102125180D01*
X181955446Y-102106708D01*
X181925153Y-102081847D01*
X181900292Y-102051554D01*
X181881820Y-102016995D01*
X181870445Y-101979499D01*
X181866000Y-101934362D01*
X181866000Y-101195638D01*
X181870445Y-101150501D01*
X181881820Y-101113005D01*
X181900292Y-101078446D01*
X181925153Y-101048153D01*
X181955446Y-101023292D01*
X181990005Y-101004820D01*
X182027501Y-100993445D01*
X182072638Y-100989000D01*
X182711362Y-100989000D01*
X182756499Y-100993445D01*
G37*
G36*
X185881000Y-100941000D02*
G01*
X183779000Y-100941000D01*
X183779000Y-99339000D01*
X185881000Y-99339000D01*
X185881000Y-100941000D01*
G37*
G36*
X152560499Y-97522445D02*
G01*
X152597995Y-97533820D01*
X152632554Y-97552292D01*
X152662847Y-97577153D01*
X152687708Y-97607446D01*
X152706180Y-97642005D01*
X152717555Y-97679501D01*
X152722000Y-97724638D01*
X152722000Y-98363362D01*
X152717555Y-98408499D01*
X152706180Y-98445995D01*
X152687708Y-98480554D01*
X152662847Y-98510847D01*
X152632554Y-98535708D01*
X152597995Y-98554180D01*
X152560499Y-98565555D01*
X152515362Y-98570000D01*
X151776638Y-98570000D01*
X151731501Y-98565555D01*
X151694005Y-98554180D01*
X151659446Y-98535708D01*
X151629153Y-98510847D01*
X151604292Y-98480554D01*
X151585820Y-98445995D01*
X151574445Y-98408499D01*
X151570000Y-98363362D01*
X151570000Y-97724638D01*
X151574445Y-97679501D01*
X151585820Y-97642005D01*
X151604292Y-97607446D01*
X151629153Y-97577153D01*
X151659446Y-97552292D01*
X151694005Y-97533820D01*
X151731501Y-97522445D01*
X151776638Y-97518000D01*
X152515362Y-97518000D01*
X152560499Y-97522445D01*
G37*
G36*
X150810499Y-97522445D02*
G01*
X150847995Y-97533820D01*
X150882554Y-97552292D01*
X150912847Y-97577153D01*
X150937708Y-97607446D01*
X150956180Y-97642005D01*
X150967555Y-97679501D01*
X150972000Y-97724638D01*
X150972000Y-98363362D01*
X150967555Y-98408499D01*
X150956180Y-98445995D01*
X150937708Y-98480554D01*
X150912847Y-98510847D01*
X150882554Y-98535708D01*
X150847995Y-98554180D01*
X150810499Y-98565555D01*
X150765362Y-98570000D01*
X150026638Y-98570000D01*
X149981501Y-98565555D01*
X149944005Y-98554180D01*
X149909446Y-98535708D01*
X149879153Y-98510847D01*
X149854292Y-98480554D01*
X149835820Y-98445995D01*
X149824445Y-98408499D01*
X149820000Y-98363362D01*
X149820000Y-97724638D01*
X149824445Y-97679501D01*
X149835820Y-97642005D01*
X149854292Y-97607446D01*
X149879153Y-97577153D01*
X149909446Y-97552292D01*
X149944005Y-97533820D01*
X149981501Y-97522445D01*
X150026638Y-97518000D01*
X150765362Y-97518000D01*
X150810499Y-97522445D01*
G37*
G36*
X150048499Y-95744445D02*
G01*
X150085995Y-95755820D01*
X150120554Y-95774292D01*
X150150847Y-95799153D01*
X150175708Y-95829446D01*
X150194180Y-95864005D01*
X150205555Y-95901501D01*
X150210000Y-95946638D01*
X150210000Y-96585362D01*
X150205555Y-96630499D01*
X150194180Y-96667995D01*
X150175708Y-96702554D01*
X150150847Y-96732847D01*
X150120554Y-96757708D01*
X150085995Y-96776180D01*
X150048499Y-96787555D01*
X150003362Y-96792000D01*
X149264638Y-96792000D01*
X149219501Y-96787555D01*
X149182005Y-96776180D01*
X149147446Y-96757708D01*
X149117153Y-96732847D01*
X149092292Y-96702554D01*
X149073820Y-96667995D01*
X149062445Y-96630499D01*
X149058000Y-96585362D01*
X149058000Y-95946638D01*
X149062445Y-95901501D01*
X149073820Y-95864005D01*
X149092292Y-95829446D01*
X149117153Y-95799153D01*
X149147446Y-95774292D01*
X149182005Y-95755820D01*
X149219501Y-95744445D01*
X149264638Y-95740000D01*
X150003362Y-95740000D01*
X150048499Y-95744445D01*
G37*
G36*
X151798499Y-95744445D02*
G01*
X151835995Y-95755820D01*
X151870554Y-95774292D01*
X151900847Y-95799153D01*
X151925708Y-95829446D01*
X151944180Y-95864005D01*
X151955555Y-95901501D01*
X151960000Y-95946638D01*
X151960000Y-96585362D01*
X151955555Y-96630499D01*
X151944180Y-96667995D01*
X151925708Y-96702554D01*
X151900847Y-96732847D01*
X151870554Y-96757708D01*
X151835995Y-96776180D01*
X151798499Y-96787555D01*
X151753362Y-96792000D01*
X151014638Y-96792000D01*
X150969501Y-96787555D01*
X150932005Y-96776180D01*
X150897446Y-96757708D01*
X150867153Y-96732847D01*
X150842292Y-96702554D01*
X150823820Y-96667995D01*
X150812445Y-96630499D01*
X150808000Y-96585362D01*
X150808000Y-95946638D01*
X150812445Y-95901501D01*
X150823820Y-95864005D01*
X150842292Y-95829446D01*
X150867153Y-95799153D01*
X150897446Y-95774292D01*
X150932005Y-95755820D01*
X150969501Y-95744445D01*
X151014638Y-95740000D01*
X151753362Y-95740000D01*
X151798499Y-95744445D01*
G37*
G36*
X163530499Y-95568445D02*
G01*
X163567995Y-95579820D01*
X163602554Y-95598292D01*
X163632847Y-95623153D01*
X163657708Y-95653446D01*
X163676180Y-95688005D01*
X163687555Y-95725501D01*
X163692000Y-95770638D01*
X163692000Y-96409362D01*
X163687555Y-96454499D01*
X163676180Y-96491995D01*
X163657708Y-96526554D01*
X163632847Y-96556847D01*
X163602554Y-96581708D01*
X163567995Y-96600180D01*
X163530499Y-96611555D01*
X163485362Y-96616000D01*
X162746638Y-96616000D01*
X162701501Y-96611555D01*
X162664005Y-96600180D01*
X162629446Y-96581708D01*
X162599153Y-96556847D01*
X162574292Y-96526554D01*
X162555820Y-96491995D01*
X162544445Y-96454499D01*
X162540000Y-96409362D01*
X162540000Y-95770638D01*
X162544445Y-95725501D01*
X162555820Y-95688005D01*
X162574292Y-95653446D01*
X162599153Y-95623153D01*
X162629446Y-95598292D01*
X162664005Y-95579820D01*
X162701501Y-95568445D01*
X162746638Y-95564000D01*
X163485362Y-95564000D01*
X163530499Y-95568445D01*
G37*
G36*
X165280499Y-95568445D02*
G01*
X165317995Y-95579820D01*
X165352554Y-95598292D01*
X165382847Y-95623153D01*
X165407708Y-95653446D01*
X165426180Y-95688005D01*
X165437555Y-95725501D01*
X165442000Y-95770638D01*
X165442000Y-96409362D01*
X165437555Y-96454499D01*
X165426180Y-96491995D01*
X165407708Y-96526554D01*
X165382847Y-96556847D01*
X165352554Y-96581708D01*
X165317995Y-96600180D01*
X165280499Y-96611555D01*
X165235362Y-96616000D01*
X164496638Y-96616000D01*
X164451501Y-96611555D01*
X164414005Y-96600180D01*
X164379446Y-96581708D01*
X164349153Y-96556847D01*
X164324292Y-96526554D01*
X164305820Y-96491995D01*
X164294445Y-96454499D01*
X164290000Y-96409362D01*
X164290000Y-95770638D01*
X164294445Y-95725501D01*
X164305820Y-95688005D01*
X164324292Y-95653446D01*
X164349153Y-95623153D01*
X164379446Y-95598292D01*
X164414005Y-95579820D01*
X164451501Y-95568445D01*
X164496638Y-95564000D01*
X165235362Y-95564000D01*
X165280499Y-95568445D01*
G37*
G36*
X167008499Y-95377445D02*
G01*
X167045995Y-95388820D01*
X167080554Y-95407292D01*
X167110847Y-95432153D01*
X167135708Y-95462446D01*
X167154180Y-95497005D01*
X167165555Y-95534501D01*
X167170000Y-95579638D01*
X167170000Y-96318362D01*
X167165555Y-96363499D01*
X167154180Y-96400995D01*
X167135708Y-96435554D01*
X167110847Y-96465847D01*
X167080554Y-96490708D01*
X167045995Y-96509180D01*
X167008499Y-96520555D01*
X166963362Y-96525000D01*
X166324638Y-96525000D01*
X166279501Y-96520555D01*
X166242005Y-96509180D01*
X166207446Y-96490708D01*
X166177153Y-96465847D01*
X166152292Y-96435554D01*
X166133820Y-96400995D01*
X166122445Y-96363499D01*
X166118000Y-96318362D01*
X166118000Y-95579638D01*
X166122445Y-95534501D01*
X166133820Y-95497005D01*
X166152292Y-95462446D01*
X166177153Y-95432153D01*
X166207446Y-95407292D01*
X166242005Y-95388820D01*
X166279501Y-95377445D01*
X166324638Y-95373000D01*
X166963362Y-95373000D01*
X167008499Y-95377445D01*
G37*
G36*
X168939000Y-96475000D02*
G01*
X167937000Y-96475000D01*
X167937000Y-95573000D01*
X168939000Y-95573000D01*
X168939000Y-96475000D01*
G37*
G36*
X175412499Y-94552445D02*
G01*
X175449995Y-94563820D01*
X175484554Y-94582292D01*
X175514847Y-94607153D01*
X175539708Y-94637446D01*
X175558180Y-94672005D01*
X175569555Y-94709501D01*
X175574000Y-94754638D01*
X175574000Y-95393362D01*
X175569555Y-95438499D01*
X175558180Y-95475995D01*
X175539708Y-95510554D01*
X175514847Y-95540847D01*
X175484554Y-95565708D01*
X175449995Y-95584180D01*
X175412499Y-95595555D01*
X175367362Y-95600000D01*
X174628638Y-95600000D01*
X174583501Y-95595555D01*
X174546005Y-95584180D01*
X174511446Y-95565708D01*
X174481153Y-95540847D01*
X174456292Y-95510554D01*
X174437820Y-95475995D01*
X174426445Y-95438499D01*
X174422000Y-95393362D01*
X174422000Y-94754638D01*
X174426445Y-94709501D01*
X174437820Y-94672005D01*
X174456292Y-94637446D01*
X174481153Y-94607153D01*
X174511446Y-94582292D01*
X174546005Y-94563820D01*
X174583501Y-94552445D01*
X174628638Y-94548000D01*
X175367362Y-94548000D01*
X175412499Y-94552445D01*
G37*
G36*
X173662499Y-94552445D02*
G01*
X173699995Y-94563820D01*
X173734554Y-94582292D01*
X173764847Y-94607153D01*
X173789708Y-94637446D01*
X173808180Y-94672005D01*
X173819555Y-94709501D01*
X173824000Y-94754638D01*
X173824000Y-95393362D01*
X173819555Y-95438499D01*
X173808180Y-95475995D01*
X173789708Y-95510554D01*
X173764847Y-95540847D01*
X173734554Y-95565708D01*
X173699995Y-95584180D01*
X173662499Y-95595555D01*
X173617362Y-95600000D01*
X172878638Y-95600000D01*
X172833501Y-95595555D01*
X172796005Y-95584180D01*
X172761446Y-95565708D01*
X172731153Y-95540847D01*
X172706292Y-95510554D01*
X172687820Y-95475995D01*
X172676445Y-95438499D01*
X172672000Y-95393362D01*
X172672000Y-94754638D01*
X172676445Y-94709501D01*
X172687820Y-94672005D01*
X172706292Y-94637446D01*
X172731153Y-94607153D01*
X172761446Y-94582292D01*
X172796005Y-94563820D01*
X172833501Y-94552445D01*
X172878638Y-94548000D01*
X173617362Y-94548000D01*
X173662499Y-94552445D01*
G37*
G36*
X170939000Y-95525000D02*
G01*
X169937000Y-95525000D01*
X169937000Y-94623000D01*
X170939000Y-94623000D01*
X170939000Y-95525000D01*
G37*
G36*
X152512915Y-93441334D02*
G01*
X152621491Y-93474271D01*
X152621494Y-93474272D01*
X152657600Y-93493571D01*
X152721556Y-93527756D01*
X152809264Y-93599736D01*
X152881244Y-93687443D01*
X152909274Y-93739885D01*
X152934728Y-93787505D01*
X152934729Y-93787508D01*
X152967666Y-93896084D01*
X152976000Y-93980702D01*
X152976000Y-94487297D01*
X152967666Y-94571916D01*
X152935252Y-94678767D01*
X152934728Y-94680495D01*
X152924761Y-94699141D01*
X152881244Y-94780557D01*
X152809264Y-94868264D01*
X152721557Y-94940244D01*
X152657601Y-94974429D01*
X152621495Y-94993728D01*
X152621492Y-94993729D01*
X152512916Y-95026666D01*
X152400000Y-95037787D01*
X152287085Y-95026666D01*
X152178509Y-94993729D01*
X152178506Y-94993728D01*
X152142400Y-94974429D01*
X152078444Y-94940244D01*
X151990737Y-94868264D01*
X151918757Y-94780557D01*
X151897457Y-94740708D01*
X151875239Y-94699141D01*
X151861625Y-94678766D01*
X151844298Y-94661439D01*
X151823924Y-94647826D01*
X151801285Y-94638448D01*
X151777252Y-94633668D01*
X151752748Y-94633668D01*
X151728715Y-94638448D01*
X151706076Y-94647826D01*
X151685701Y-94661440D01*
X151668374Y-94678767D01*
X151654761Y-94699141D01*
X151611244Y-94780557D01*
X151539264Y-94868264D01*
X151451557Y-94940244D01*
X151387601Y-94974429D01*
X151351495Y-94993728D01*
X151351492Y-94993729D01*
X151242916Y-95026666D01*
X151130000Y-95037787D01*
X151017085Y-95026666D01*
X150908509Y-94993729D01*
X150908506Y-94993728D01*
X150872400Y-94974429D01*
X150808444Y-94940244D01*
X150720737Y-94868264D01*
X150657622Y-94791359D01*
X150640297Y-94774034D01*
X150619923Y-94760420D01*
X150597284Y-94751043D01*
X150573250Y-94746263D01*
X150548746Y-94746263D01*
X150524713Y-94751044D01*
X150502074Y-94760421D01*
X150481700Y-94774035D01*
X150464373Y-94791362D01*
X150450759Y-94811736D01*
X150441382Y-94834375D01*
X150436000Y-94870660D01*
X150436000Y-95035000D01*
X149284000Y-95035000D01*
X149284000Y-93433000D01*
X150436000Y-93433000D01*
X150436000Y-93597341D01*
X150438402Y-93621727D01*
X150445515Y-93645176D01*
X150457066Y-93666787D01*
X150472611Y-93685729D01*
X150491553Y-93701274D01*
X150513164Y-93712825D01*
X150536613Y-93719938D01*
X150560999Y-93722340D01*
X150585385Y-93719938D01*
X150608834Y-93712825D01*
X150630445Y-93701274D01*
X150649387Y-93685729D01*
X150657608Y-93676657D01*
X150720736Y-93599736D01*
X150808443Y-93527756D01*
X150872399Y-93493571D01*
X150908505Y-93474272D01*
X150908508Y-93474271D01*
X151017084Y-93441334D01*
X151130000Y-93430213D01*
X151242915Y-93441334D01*
X151351491Y-93474271D01*
X151351494Y-93474272D01*
X151387600Y-93493571D01*
X151451556Y-93527756D01*
X151539264Y-93599736D01*
X151611244Y-93687443D01*
X151639274Y-93739885D01*
X151654761Y-93768859D01*
X151668375Y-93789234D01*
X151685702Y-93806561D01*
X151706076Y-93820174D01*
X151728715Y-93829552D01*
X151752748Y-93834332D01*
X151777252Y-93834332D01*
X151801285Y-93829552D01*
X151823924Y-93820174D01*
X151844299Y-93806560D01*
X151861626Y-93789233D01*
X151875239Y-93768860D01*
X151918756Y-93687444D01*
X151990736Y-93599736D01*
X152078443Y-93527756D01*
X152142399Y-93493571D01*
X152178505Y-93474272D01*
X152178508Y-93474271D01*
X152287084Y-93441334D01*
X152400000Y-93430213D01*
X152512915Y-93441334D01*
G37*
G36*
X167008499Y-93627445D02*
G01*
X167045995Y-93638820D01*
X167080554Y-93657292D01*
X167110847Y-93682153D01*
X167135708Y-93712446D01*
X167154180Y-93747005D01*
X167165555Y-93784501D01*
X167170000Y-93829638D01*
X167170000Y-94568362D01*
X167165555Y-94613499D01*
X167154180Y-94650995D01*
X167135708Y-94685554D01*
X167110847Y-94715847D01*
X167080554Y-94740708D01*
X167045995Y-94759180D01*
X167008499Y-94770555D01*
X166963362Y-94775000D01*
X166324638Y-94775000D01*
X166279501Y-94770555D01*
X166242005Y-94759180D01*
X166207446Y-94740708D01*
X166177153Y-94715847D01*
X166152292Y-94685554D01*
X166133820Y-94650995D01*
X166122445Y-94613499D01*
X166118000Y-94568362D01*
X166118000Y-93829638D01*
X166122445Y-93784501D01*
X166133820Y-93747005D01*
X166152292Y-93712446D01*
X166177153Y-93682153D01*
X166207446Y-93657292D01*
X166242005Y-93638820D01*
X166279501Y-93627445D01*
X166324638Y-93623000D01*
X166963362Y-93623000D01*
X167008499Y-93627445D01*
G37*
G36*
X168939000Y-94575000D02*
G01*
X167937000Y-94575000D01*
X167937000Y-93673000D01*
X168939000Y-93673000D01*
X168939000Y-94575000D01*
G37*
G36*
X152644915Y-87201334D02*
G01*
X152753491Y-87234271D01*
X152753494Y-87234272D01*
X152789600Y-87253571D01*
X152853556Y-87287756D01*
X152941264Y-87359736D01*
X153013244Y-87447443D01*
X153047429Y-87511399D01*
X153066728Y-87547505D01*
X153066729Y-87547508D01*
X153099666Y-87656084D01*
X153108000Y-87740702D01*
X153108000Y-88247297D01*
X153099666Y-88331916D01*
X153067252Y-88438767D01*
X153066728Y-88440495D01*
X153056761Y-88459141D01*
X153013244Y-88540557D01*
X152941264Y-88628264D01*
X152853557Y-88700244D01*
X152789601Y-88734429D01*
X152753495Y-88753728D01*
X152753492Y-88753729D01*
X152644916Y-88786666D01*
X152532000Y-88797787D01*
X152419085Y-88786666D01*
X152310509Y-88753729D01*
X152310506Y-88753728D01*
X152274400Y-88734429D01*
X152210444Y-88700244D01*
X152122737Y-88628264D01*
X152050757Y-88540557D01*
X152007239Y-88459141D01*
X151993625Y-88438766D01*
X151976298Y-88421439D01*
X151955924Y-88407826D01*
X151933285Y-88398448D01*
X151909252Y-88393668D01*
X151884748Y-88393668D01*
X151860715Y-88398448D01*
X151838076Y-88407826D01*
X151817701Y-88421440D01*
X151800374Y-88438767D01*
X151786761Y-88459141D01*
X151743244Y-88540557D01*
X151671264Y-88628264D01*
X151583557Y-88700244D01*
X151519601Y-88734429D01*
X151483495Y-88753728D01*
X151483492Y-88753729D01*
X151374916Y-88786666D01*
X151262000Y-88797787D01*
X151149085Y-88786666D01*
X151040509Y-88753729D01*
X151040506Y-88753728D01*
X151004400Y-88734429D01*
X150940444Y-88700244D01*
X150852737Y-88628264D01*
X150789622Y-88551359D01*
X150772297Y-88534034D01*
X150751923Y-88520420D01*
X150729284Y-88511043D01*
X150705250Y-88506263D01*
X150680746Y-88506263D01*
X150656713Y-88511044D01*
X150634074Y-88520421D01*
X150613700Y-88534035D01*
X150596373Y-88551362D01*
X150582759Y-88571736D01*
X150573382Y-88594375D01*
X150568000Y-88630660D01*
X150568000Y-88795000D01*
X149416000Y-88795000D01*
X149416000Y-87193000D01*
X150568000Y-87193000D01*
X150568000Y-87357341D01*
X150570402Y-87381727D01*
X150577515Y-87405176D01*
X150589066Y-87426787D01*
X150604611Y-87445729D01*
X150623553Y-87461274D01*
X150645164Y-87472825D01*
X150668613Y-87479938D01*
X150692999Y-87482340D01*
X150717385Y-87479938D01*
X150740834Y-87472825D01*
X150762445Y-87461274D01*
X150781387Y-87445729D01*
X150789608Y-87436657D01*
X150852736Y-87359736D01*
X150940443Y-87287756D01*
X151004399Y-87253571D01*
X151040505Y-87234272D01*
X151040508Y-87234271D01*
X151149084Y-87201334D01*
X151262000Y-87190213D01*
X151374915Y-87201334D01*
X151483491Y-87234271D01*
X151483494Y-87234272D01*
X151519600Y-87253571D01*
X151583556Y-87287756D01*
X151671264Y-87359736D01*
X151743244Y-87447443D01*
X151786761Y-87528859D01*
X151800375Y-87549234D01*
X151817702Y-87566561D01*
X151838076Y-87580174D01*
X151860715Y-87589552D01*
X151884748Y-87594332D01*
X151909252Y-87594332D01*
X151933285Y-87589552D01*
X151955924Y-87580174D01*
X151976299Y-87566560D01*
X151993626Y-87549233D01*
X152007239Y-87528860D01*
X152050756Y-87447444D01*
X152122736Y-87359736D01*
X152210443Y-87287756D01*
X152274399Y-87253571D01*
X152310505Y-87234272D01*
X152310508Y-87234271D01*
X152419084Y-87201334D01*
X152532000Y-87190213D01*
X152644915Y-87201334D01*
G37*
G36*
X151930499Y-85440445D02*
G01*
X151967995Y-85451820D01*
X152002554Y-85470292D01*
X152032847Y-85495153D01*
X152057708Y-85525446D01*
X152076180Y-85560005D01*
X152087555Y-85597501D01*
X152092000Y-85642638D01*
X152092000Y-86281362D01*
X152087555Y-86326499D01*
X152076180Y-86363995D01*
X152057708Y-86398554D01*
X152032847Y-86428847D01*
X152002554Y-86453708D01*
X151967995Y-86472180D01*
X151930499Y-86483555D01*
X151885362Y-86488000D01*
X151146638Y-86488000D01*
X151101501Y-86483555D01*
X151064005Y-86472180D01*
X151029446Y-86453708D01*
X150999153Y-86428847D01*
X150974292Y-86398554D01*
X150955820Y-86363995D01*
X150944445Y-86326499D01*
X150940000Y-86281362D01*
X150940000Y-85642638D01*
X150944445Y-85597501D01*
X150955820Y-85560005D01*
X150974292Y-85525446D01*
X150999153Y-85495153D01*
X151029446Y-85470292D01*
X151064005Y-85451820D01*
X151101501Y-85440445D01*
X151146638Y-85436000D01*
X151885362Y-85436000D01*
X151930499Y-85440445D01*
G37*
G36*
X150180499Y-85440445D02*
G01*
X150217995Y-85451820D01*
X150252554Y-85470292D01*
X150282847Y-85495153D01*
X150307708Y-85525446D01*
X150326180Y-85560005D01*
X150337555Y-85597501D01*
X150342000Y-85642638D01*
X150342000Y-86281362D01*
X150337555Y-86326499D01*
X150326180Y-86363995D01*
X150307708Y-86398554D01*
X150282847Y-86428847D01*
X150252554Y-86453708D01*
X150217995Y-86472180D01*
X150180499Y-86483555D01*
X150135362Y-86488000D01*
X149396638Y-86488000D01*
X149351501Y-86483555D01*
X149314005Y-86472180D01*
X149279446Y-86453708D01*
X149249153Y-86428847D01*
X149224292Y-86398554D01*
X149205820Y-86363995D01*
X149194445Y-86326499D01*
X149190000Y-86281362D01*
X149190000Y-85642638D01*
X149194445Y-85597501D01*
X149205820Y-85560005D01*
X149224292Y-85525446D01*
X149249153Y-85495153D01*
X149279446Y-85470292D01*
X149314005Y-85451820D01*
X149351501Y-85440445D01*
X149396638Y-85436000D01*
X150135362Y-85436000D01*
X150180499Y-85440445D01*
G37*
G36*
X180141000Y-85617000D02*
G01*
X178039000Y-85617000D01*
X178039000Y-83735000D01*
X180141000Y-83735000D01*
X180141000Y-85617000D01*
G37*
G36*
X170611000Y-85617000D02*
G01*
X168509000Y-85617000D01*
X168509000Y-83735000D01*
X170611000Y-83735000D01*
X170611000Y-85617000D01*
G37*
G36*
X152692499Y-83662445D02*
G01*
X152729995Y-83673820D01*
X152764554Y-83692292D01*
X152794847Y-83717153D01*
X152819708Y-83747446D01*
X152838180Y-83782005D01*
X152849555Y-83819501D01*
X152854000Y-83864638D01*
X152854000Y-84503362D01*
X152849555Y-84548499D01*
X152838180Y-84585995D01*
X152819708Y-84620554D01*
X152794847Y-84650847D01*
X152764554Y-84675708D01*
X152729995Y-84694180D01*
X152692499Y-84705555D01*
X152647362Y-84710000D01*
X151908638Y-84710000D01*
X151863501Y-84705555D01*
X151826005Y-84694180D01*
X151791446Y-84675708D01*
X151761153Y-84650847D01*
X151736292Y-84620554D01*
X151717820Y-84585995D01*
X151706445Y-84548499D01*
X151702000Y-84503362D01*
X151702000Y-83864638D01*
X151706445Y-83819501D01*
X151717820Y-83782005D01*
X151736292Y-83747446D01*
X151761153Y-83717153D01*
X151791446Y-83692292D01*
X151826005Y-83673820D01*
X151863501Y-83662445D01*
X151908638Y-83658000D01*
X152647362Y-83658000D01*
X152692499Y-83662445D01*
G37*
G36*
X150942499Y-83662445D02*
G01*
X150979995Y-83673820D01*
X151014554Y-83692292D01*
X151044847Y-83717153D01*
X151069708Y-83747446D01*
X151088180Y-83782005D01*
X151099555Y-83819501D01*
X151104000Y-83864638D01*
X151104000Y-84503362D01*
X151099555Y-84548499D01*
X151088180Y-84585995D01*
X151069708Y-84620554D01*
X151044847Y-84650847D01*
X151014554Y-84675708D01*
X150979995Y-84694180D01*
X150942499Y-84705555D01*
X150897362Y-84710000D01*
X150158638Y-84710000D01*
X150113501Y-84705555D01*
X150076005Y-84694180D01*
X150041446Y-84675708D01*
X150011153Y-84650847D01*
X149986292Y-84620554D01*
X149967820Y-84585995D01*
X149956445Y-84548499D01*
X149952000Y-84503362D01*
X149952000Y-83864638D01*
X149956445Y-83819501D01*
X149967820Y-83782005D01*
X149986292Y-83747446D01*
X150011153Y-83717153D01*
X150041446Y-83692292D01*
X150076005Y-83673820D01*
X150113501Y-83662445D01*
X150158638Y-83658000D01*
X150897362Y-83658000D01*
X150942499Y-83662445D01*
G37*
G36*
X185881000Y-84221000D02*
G01*
X183779000Y-84221000D01*
X183779000Y-82619000D01*
X185881000Y-82619000D01*
X185881000Y-84221000D01*
G37*
G36*
X180141000Y-83077000D02*
G01*
X178039000Y-83077000D01*
X178039000Y-81195000D01*
X180141000Y-81195000D01*
X180141000Y-83077000D01*
G37*
G36*
X170611000Y-83077000D02*
G01*
X168509000Y-83077000D01*
X168509000Y-81195000D01*
X170611000Y-81195000D01*
X170611000Y-83077000D01*
G37*
G36*
X192181000Y-83071000D02*
G01*
X190079000Y-83071000D01*
X190079000Y-79169000D01*
X192181000Y-79169000D01*
X192181000Y-83071000D01*
G37*
G36*
X182756499Y-81536445D02*
G01*
X182793995Y-81547820D01*
X182828554Y-81566292D01*
X182858847Y-81591153D01*
X182883708Y-81621446D01*
X182902180Y-81656005D01*
X182913555Y-81693501D01*
X182918000Y-81738638D01*
X182918000Y-82477362D01*
X182913555Y-82522499D01*
X182902180Y-82559995D01*
X182883708Y-82594554D01*
X182858847Y-82624847D01*
X182828554Y-82649708D01*
X182793995Y-82668180D01*
X182756499Y-82679555D01*
X182711362Y-82684000D01*
X182072638Y-82684000D01*
X182027501Y-82679555D01*
X181990005Y-82668180D01*
X181955446Y-82649708D01*
X181925153Y-82624847D01*
X181900292Y-82594554D01*
X181881820Y-82559995D01*
X181870445Y-82522499D01*
X181866000Y-82477362D01*
X181866000Y-81738638D01*
X181870445Y-81693501D01*
X181881820Y-81656005D01*
X181900292Y-81621446D01*
X181925153Y-81591153D01*
X181955446Y-81566292D01*
X181990005Y-81547820D01*
X182027501Y-81536445D01*
X182072638Y-81532000D01*
X182711362Y-81532000D01*
X182756499Y-81536445D01*
G37*
G36*
X157598254Y-78027818D02*
G01*
X157971511Y-78182426D01*
X157971513Y-78182427D01*
X158307436Y-78406884D01*
X158593116Y-78692564D01*
X158817574Y-79028489D01*
X158972182Y-79401746D01*
X159051000Y-79797993D01*
X159051000Y-80202007D01*
X158972182Y-80598254D01*
X158817574Y-80971511D01*
X158817573Y-80971513D01*
X158593116Y-81307436D01*
X158307436Y-81593116D01*
X157971513Y-81817573D01*
X157971512Y-81817574D01*
X157971511Y-81817574D01*
X157598254Y-81972182D01*
X157202007Y-82051000D01*
X156797993Y-82051000D01*
X156401746Y-81972182D01*
X156028489Y-81817574D01*
X156028488Y-81817574D01*
X156028487Y-81817573D01*
X155692564Y-81593116D01*
X155406884Y-81307436D01*
X155182427Y-80971513D01*
X155182426Y-80971511D01*
X155027818Y-80598254D01*
X154949000Y-80202007D01*
X154949000Y-79797993D01*
X155027818Y-79401746D01*
X155182426Y-79028489D01*
X155406884Y-78692564D01*
X155692564Y-78406884D01*
X156028487Y-78182427D01*
X156028489Y-78182426D01*
X156401746Y-78027818D01*
X156797993Y-77949000D01*
X157202007Y-77949000D01*
X157598254Y-78027818D01*
G37*
G36*
X230598254Y-78027818D02*
G01*
X230971511Y-78182426D01*
X230971513Y-78182427D01*
X231307436Y-78406884D01*
X231593116Y-78692564D01*
X231817574Y-79028489D01*
X231972182Y-79401746D01*
X232051000Y-79797993D01*
X232051000Y-80202007D01*
X231972182Y-80598254D01*
X231817574Y-80971511D01*
X231817573Y-80971513D01*
X231593116Y-81307436D01*
X231307436Y-81593116D01*
X230971513Y-81817573D01*
X230971512Y-81817574D01*
X230971511Y-81817574D01*
X230598254Y-81972182D01*
X230202007Y-82051000D01*
X229797993Y-82051000D01*
X229401746Y-81972182D01*
X229028489Y-81817574D01*
X229028488Y-81817574D01*
X229028487Y-81817573D01*
X228692564Y-81593116D01*
X228406884Y-81307436D01*
X228182427Y-80971513D01*
X228182426Y-80971511D01*
X228027818Y-80598254D01*
X227949000Y-80202007D01*
X227949000Y-79797993D01*
X228027818Y-79401746D01*
X228182426Y-79028489D01*
X228406884Y-78692564D01*
X228692564Y-78406884D01*
X229028487Y-78182427D01*
X229028489Y-78182426D01*
X229401746Y-78027818D01*
X229797993Y-77949000D01*
X230202007Y-77949000D01*
X230598254Y-78027818D01*
G37*
G36*
X185881000Y-81921000D02*
G01*
X183779000Y-81921000D01*
X183779000Y-80319000D01*
X185881000Y-80319000D01*
X185881000Y-81921000D01*
G37*
G36*
X182756499Y-79786445D02*
G01*
X182793995Y-79797820D01*
X182828554Y-79816292D01*
X182858847Y-79841153D01*
X182883708Y-79871446D01*
X182902180Y-79906005D01*
X182913555Y-79943501D01*
X182918000Y-79988638D01*
X182918000Y-80727362D01*
X182913555Y-80772499D01*
X182902180Y-80809995D01*
X182883708Y-80844554D01*
X182858847Y-80874847D01*
X182828554Y-80899708D01*
X182793995Y-80918180D01*
X182756499Y-80929555D01*
X182711362Y-80934000D01*
X182072638Y-80934000D01*
X182027501Y-80929555D01*
X181990005Y-80918180D01*
X181955446Y-80899708D01*
X181925153Y-80874847D01*
X181900292Y-80844554D01*
X181881820Y-80809995D01*
X181870445Y-80772499D01*
X181866000Y-80727362D01*
X181866000Y-79988638D01*
X181870445Y-79943501D01*
X181881820Y-79906005D01*
X181900292Y-79871446D01*
X181925153Y-79841153D01*
X181955446Y-79816292D01*
X181990005Y-79797820D01*
X182027501Y-79786445D01*
X182072638Y-79782000D01*
X182711362Y-79782000D01*
X182756499Y-79786445D01*
G37*
G36*
X185881000Y-79621000D02*
G01*
X183779000Y-79621000D01*
X183779000Y-78019000D01*
X185881000Y-78019000D01*
X185881000Y-79621000D01*
G37*
G36*
X171771499Y-77042445D02*
G01*
X171808995Y-77053820D01*
X171843554Y-77072292D01*
X171873847Y-77097153D01*
X171898708Y-77127446D01*
X171917180Y-77162005D01*
X171928555Y-77199501D01*
X171933000Y-77244638D01*
X171933000Y-77883362D01*
X171928555Y-77928499D01*
X171917180Y-77965995D01*
X171898708Y-78000554D01*
X171873847Y-78030847D01*
X171843554Y-78055708D01*
X171808995Y-78074180D01*
X171771499Y-78085555D01*
X171726362Y-78090000D01*
X170987638Y-78090000D01*
X170942501Y-78085555D01*
X170905005Y-78074180D01*
X170870446Y-78055708D01*
X170840153Y-78030847D01*
X170815292Y-78000554D01*
X170796820Y-77965995D01*
X170785445Y-77928499D01*
X170781000Y-77883362D01*
X170781000Y-77244638D01*
X170785445Y-77199501D01*
X170796820Y-77162005D01*
X170815292Y-77127446D01*
X170840153Y-77097153D01*
X170870446Y-77072292D01*
X170905005Y-77053820D01*
X170942501Y-77042445D01*
X170987638Y-77038000D01*
X171726362Y-77038000D01*
X171771499Y-77042445D01*
G37*
G36*
X173521499Y-77042445D02*
G01*
X173558995Y-77053820D01*
X173593554Y-77072292D01*
X173623847Y-77097153D01*
X173648708Y-77127446D01*
X173667180Y-77162005D01*
X173678555Y-77199501D01*
X173683000Y-77244638D01*
X173683000Y-77883362D01*
X173678555Y-77928499D01*
X173667180Y-77965995D01*
X173648708Y-78000554D01*
X173623847Y-78030847D01*
X173593554Y-78055708D01*
X173558995Y-78074180D01*
X173521499Y-78085555D01*
X173476362Y-78090000D01*
X172737638Y-78090000D01*
X172692501Y-78085555D01*
X172655005Y-78074180D01*
X172620446Y-78055708D01*
X172590153Y-78030847D01*
X172565292Y-78000554D01*
X172546820Y-77965995D01*
X172535445Y-77928499D01*
X172531000Y-77883362D01*
X172531000Y-77244638D01*
X172535445Y-77199501D01*
X172546820Y-77162005D01*
X172565292Y-77127446D01*
X172590153Y-77097153D01*
X172620446Y-77072292D01*
X172655005Y-77053820D01*
X172692501Y-77042445D01*
X172737638Y-77038000D01*
X173476362Y-77038000D01*
X173521499Y-77042445D01*
G37*
G36*
X175694499Y-77042445D02*
G01*
X175731995Y-77053820D01*
X175766554Y-77072292D01*
X175796847Y-77097153D01*
X175821708Y-77127446D01*
X175840180Y-77162005D01*
X175851555Y-77199501D01*
X175856000Y-77244638D01*
X175856000Y-77883362D01*
X175851555Y-77928499D01*
X175840180Y-77965995D01*
X175821708Y-78000554D01*
X175796847Y-78030847D01*
X175766554Y-78055708D01*
X175731995Y-78074180D01*
X175694499Y-78085555D01*
X175649362Y-78090000D01*
X174910638Y-78090000D01*
X174865501Y-78085555D01*
X174828005Y-78074180D01*
X174793446Y-78055708D01*
X174763153Y-78030847D01*
X174738292Y-78000554D01*
X174719820Y-77965995D01*
X174708445Y-77928499D01*
X174704000Y-77883362D01*
X174704000Y-77244638D01*
X174708445Y-77199501D01*
X174719820Y-77162005D01*
X174738292Y-77127446D01*
X174763153Y-77097153D01*
X174793446Y-77072292D01*
X174828005Y-77053820D01*
X174865501Y-77042445D01*
X174910638Y-77038000D01*
X175649362Y-77038000D01*
X175694499Y-77042445D01*
G37*
G36*
X177444499Y-77042445D02*
G01*
X177481995Y-77053820D01*
X177516554Y-77072292D01*
X177546847Y-77097153D01*
X177571708Y-77127446D01*
X177590180Y-77162005D01*
X177601555Y-77199501D01*
X177606000Y-77244638D01*
X177606000Y-77883362D01*
X177601555Y-77928499D01*
X177590180Y-77965995D01*
X177571708Y-78000554D01*
X177546847Y-78030847D01*
X177516554Y-78055708D01*
X177481995Y-78074180D01*
X177444499Y-78085555D01*
X177399362Y-78090000D01*
X176660638Y-78090000D01*
X176615501Y-78085555D01*
X176578005Y-78074180D01*
X176543446Y-78055708D01*
X176513153Y-78030847D01*
X176488292Y-78000554D01*
X176469820Y-77965995D01*
X176458445Y-77928499D01*
X176454000Y-77883362D01*
X176454000Y-77244638D01*
X176458445Y-77199501D01*
X176469820Y-77162005D01*
X176488292Y-77127446D01*
X176513153Y-77097153D01*
X176543446Y-77072292D01*
X176578005Y-77053820D01*
X176615501Y-77042445D01*
X176660638Y-77038000D01*
X177399362Y-77038000D01*
X177444499Y-77042445D01*
G37*
G36*
X152692499Y-76042445D02*
G01*
X152729995Y-76053820D01*
X152764554Y-76072292D01*
X152794847Y-76097153D01*
X152819708Y-76127446D01*
X152838180Y-76162005D01*
X152849555Y-76199501D01*
X152854000Y-76244638D01*
X152854000Y-76883362D01*
X152849555Y-76928499D01*
X152838180Y-76965995D01*
X152819708Y-77000554D01*
X152794847Y-77030847D01*
X152764554Y-77055708D01*
X152729995Y-77074180D01*
X152692499Y-77085555D01*
X152647362Y-77090000D01*
X151908638Y-77090000D01*
X151863501Y-77085555D01*
X151826005Y-77074180D01*
X151791446Y-77055708D01*
X151761153Y-77030847D01*
X151736292Y-77000554D01*
X151717820Y-76965995D01*
X151706445Y-76928499D01*
X151702000Y-76883362D01*
X151702000Y-76244638D01*
X151706445Y-76199501D01*
X151717820Y-76162005D01*
X151736292Y-76127446D01*
X151761153Y-76097153D01*
X151791446Y-76072292D01*
X151826005Y-76053820D01*
X151863501Y-76042445D01*
X151908638Y-76038000D01*
X152647362Y-76038000D01*
X152692499Y-76042445D01*
G37*
G36*
X150942499Y-76042445D02*
G01*
X150979995Y-76053820D01*
X151014554Y-76072292D01*
X151044847Y-76097153D01*
X151069708Y-76127446D01*
X151088180Y-76162005D01*
X151099555Y-76199501D01*
X151104000Y-76244638D01*
X151104000Y-76883362D01*
X151099555Y-76928499D01*
X151088180Y-76965995D01*
X151069708Y-77000554D01*
X151044847Y-77030847D01*
X151014554Y-77055708D01*
X150979995Y-77074180D01*
X150942499Y-77085555D01*
X150897362Y-77090000D01*
X150158638Y-77090000D01*
X150113501Y-77085555D01*
X150076005Y-77074180D01*
X150041446Y-77055708D01*
X150011153Y-77030847D01*
X149986292Y-77000554D01*
X149967820Y-76965995D01*
X149956445Y-76928499D01*
X149952000Y-76883362D01*
X149952000Y-76244638D01*
X149956445Y-76199501D01*
X149967820Y-76162005D01*
X149986292Y-76127446D01*
X150011153Y-76097153D01*
X150041446Y-76072292D01*
X150076005Y-76053820D01*
X150113501Y-76042445D01*
X150158638Y-76038000D01*
X150897362Y-76038000D01*
X150942499Y-76042445D01*
G37*
G36*
X151930499Y-74264445D02*
G01*
X151967995Y-74275820D01*
X152002554Y-74294292D01*
X152032847Y-74319153D01*
X152057708Y-74349446D01*
X152076180Y-74384005D01*
X152087555Y-74421501D01*
X152092000Y-74466638D01*
X152092000Y-75105362D01*
X152087555Y-75150499D01*
X152076180Y-75187995D01*
X152057708Y-75222554D01*
X152032847Y-75252847D01*
X152002554Y-75277708D01*
X151967995Y-75296180D01*
X151930499Y-75307555D01*
X151885362Y-75312000D01*
X151146638Y-75312000D01*
X151101501Y-75307555D01*
X151064005Y-75296180D01*
X151029446Y-75277708D01*
X150999153Y-75252847D01*
X150974292Y-75222554D01*
X150955820Y-75187995D01*
X150944445Y-75150499D01*
X150940000Y-75105362D01*
X150940000Y-74466638D01*
X150944445Y-74421501D01*
X150955820Y-74384005D01*
X150974292Y-74349446D01*
X150999153Y-74319153D01*
X151029446Y-74294292D01*
X151064005Y-74275820D01*
X151101501Y-74264445D01*
X151146638Y-74260000D01*
X151885362Y-74260000D01*
X151930499Y-74264445D01*
G37*
G36*
X150180499Y-74264445D02*
G01*
X150217995Y-74275820D01*
X150252554Y-74294292D01*
X150282847Y-74319153D01*
X150307708Y-74349446D01*
X150326180Y-74384005D01*
X150337555Y-74421501D01*
X150342000Y-74466638D01*
X150342000Y-75105362D01*
X150337555Y-75150499D01*
X150326180Y-75187995D01*
X150307708Y-75222554D01*
X150282847Y-75252847D01*
X150252554Y-75277708D01*
X150217995Y-75296180D01*
X150180499Y-75307555D01*
X150135362Y-75312000D01*
X149396638Y-75312000D01*
X149351501Y-75307555D01*
X149314005Y-75296180D01*
X149279446Y-75277708D01*
X149249153Y-75252847D01*
X149224292Y-75222554D01*
X149205820Y-75187995D01*
X149194445Y-75150499D01*
X149190000Y-75105362D01*
X149190000Y-74466638D01*
X149194445Y-74421501D01*
X149205820Y-74384005D01*
X149224292Y-74349446D01*
X149249153Y-74319153D01*
X149279446Y-74294292D01*
X149314005Y-74275820D01*
X149351501Y-74264445D01*
X149396638Y-74260000D01*
X150135362Y-74260000D01*
X150180499Y-74264445D01*
G37*
G36*
X165788499Y-74248445D02*
G01*
X165825995Y-74259820D01*
X165860554Y-74278292D01*
X165890847Y-74303153D01*
X165915708Y-74333446D01*
X165934180Y-74368005D01*
X165945555Y-74405501D01*
X165950000Y-74450638D01*
X165950000Y-75089362D01*
X165945555Y-75134499D01*
X165934180Y-75171995D01*
X165915708Y-75206554D01*
X165890847Y-75236847D01*
X165860554Y-75261708D01*
X165825995Y-75280180D01*
X165788499Y-75291555D01*
X165743362Y-75296000D01*
X165004638Y-75296000D01*
X164959501Y-75291555D01*
X164922005Y-75280180D01*
X164887446Y-75261708D01*
X164857153Y-75236847D01*
X164832292Y-75206554D01*
X164813820Y-75171995D01*
X164802445Y-75134499D01*
X164798000Y-75089362D01*
X164798000Y-74450638D01*
X164802445Y-74405501D01*
X164813820Y-74368005D01*
X164832292Y-74333446D01*
X164857153Y-74303153D01*
X164887446Y-74278292D01*
X164922005Y-74259820D01*
X164959501Y-74248445D01*
X165004638Y-74244000D01*
X165743362Y-74244000D01*
X165788499Y-74248445D01*
G37*
G36*
X164038499Y-74248445D02*
G01*
X164075995Y-74259820D01*
X164110554Y-74278292D01*
X164140847Y-74303153D01*
X164165708Y-74333446D01*
X164184180Y-74368005D01*
X164195555Y-74405501D01*
X164200000Y-74450638D01*
X164200000Y-75089362D01*
X164195555Y-75134499D01*
X164184180Y-75171995D01*
X164165708Y-75206554D01*
X164140847Y-75236847D01*
X164110554Y-75261708D01*
X164075995Y-75280180D01*
X164038499Y-75291555D01*
X163993362Y-75296000D01*
X163254638Y-75296000D01*
X163209501Y-75291555D01*
X163172005Y-75280180D01*
X163137446Y-75261708D01*
X163107153Y-75236847D01*
X163082292Y-75206554D01*
X163063820Y-75171995D01*
X163052445Y-75134499D01*
X163048000Y-75089362D01*
X163048000Y-74450638D01*
X163052445Y-74405501D01*
X163063820Y-74368005D01*
X163082292Y-74333446D01*
X163107153Y-74303153D01*
X163137446Y-74278292D01*
X163172005Y-74259820D01*
X163209501Y-74248445D01*
X163254638Y-74244000D01*
X163993362Y-74244000D01*
X164038499Y-74248445D01*
G37*
G36*
X167516499Y-74057445D02*
G01*
X167553995Y-74068820D01*
X167588554Y-74087292D01*
X167618847Y-74112153D01*
X167643708Y-74142446D01*
X167662180Y-74177005D01*
X167673555Y-74214501D01*
X167678000Y-74259638D01*
X167678000Y-74998362D01*
X167673555Y-75043499D01*
X167662180Y-75080995D01*
X167643708Y-75115554D01*
X167618847Y-75145847D01*
X167588554Y-75170708D01*
X167553995Y-75189180D01*
X167516499Y-75200555D01*
X167471362Y-75205000D01*
X166832638Y-75205000D01*
X166787501Y-75200555D01*
X166750005Y-75189180D01*
X166715446Y-75170708D01*
X166685153Y-75145847D01*
X166660292Y-75115554D01*
X166641820Y-75080995D01*
X166630445Y-75043499D01*
X166626000Y-74998362D01*
X166626000Y-74259638D01*
X166630445Y-74214501D01*
X166641820Y-74177005D01*
X166660292Y-74142446D01*
X166685153Y-74112153D01*
X166715446Y-74087292D01*
X166750005Y-74068820D01*
X166787501Y-74057445D01*
X166832638Y-74053000D01*
X167471362Y-74053000D01*
X167516499Y-74057445D01*
G37*
G36*
X169447000Y-75155000D02*
G01*
X168445000Y-75155000D01*
X168445000Y-74253000D01*
X169447000Y-74253000D01*
X169447000Y-75155000D01*
G37*
G36*
X174678499Y-73232445D02*
G01*
X174715995Y-73243820D01*
X174750554Y-73262292D01*
X174780847Y-73287153D01*
X174805708Y-73317446D01*
X174824180Y-73352005D01*
X174835555Y-73389501D01*
X174840000Y-73434638D01*
X174840000Y-74073362D01*
X174835555Y-74118499D01*
X174824180Y-74155995D01*
X174805708Y-74190554D01*
X174780847Y-74220847D01*
X174750554Y-74245708D01*
X174715995Y-74264180D01*
X174678499Y-74275555D01*
X174633362Y-74280000D01*
X173894638Y-74280000D01*
X173849501Y-74275555D01*
X173812005Y-74264180D01*
X173777446Y-74245708D01*
X173747153Y-74220847D01*
X173722292Y-74190554D01*
X173703820Y-74155995D01*
X173692445Y-74118499D01*
X173688000Y-74073362D01*
X173688000Y-73434638D01*
X173692445Y-73389501D01*
X173703820Y-73352005D01*
X173722292Y-73317446D01*
X173747153Y-73287153D01*
X173777446Y-73262292D01*
X173812005Y-73243820D01*
X173849501Y-73232445D01*
X173894638Y-73228000D01*
X174633362Y-73228000D01*
X174678499Y-73232445D01*
G37*
G36*
X176428499Y-73232445D02*
G01*
X176465995Y-73243820D01*
X176500554Y-73262292D01*
X176530847Y-73287153D01*
X176555708Y-73317446D01*
X176574180Y-73352005D01*
X176585555Y-73389501D01*
X176590000Y-73434638D01*
X176590000Y-74073362D01*
X176585555Y-74118499D01*
X176574180Y-74155995D01*
X176555708Y-74190554D01*
X176530847Y-74220847D01*
X176500554Y-74245708D01*
X176465995Y-74264180D01*
X176428499Y-74275555D01*
X176383362Y-74280000D01*
X175644638Y-74280000D01*
X175599501Y-74275555D01*
X175562005Y-74264180D01*
X175527446Y-74245708D01*
X175497153Y-74220847D01*
X175472292Y-74190554D01*
X175453820Y-74155995D01*
X175442445Y-74118499D01*
X175438000Y-74073362D01*
X175438000Y-73434638D01*
X175442445Y-73389501D01*
X175453820Y-73352005D01*
X175472292Y-73317446D01*
X175497153Y-73287153D01*
X175527446Y-73262292D01*
X175562005Y-73243820D01*
X175599501Y-73232445D01*
X175644638Y-73228000D01*
X176383362Y-73228000D01*
X176428499Y-73232445D01*
G37*
G36*
X171447000Y-74205000D02*
G01*
X170445000Y-74205000D01*
X170445000Y-73303000D01*
X171447000Y-73303000D01*
X171447000Y-74205000D01*
G37*
G36*
X152644915Y-71961334D02*
G01*
X152753491Y-71994271D01*
X152753494Y-71994272D01*
X152789600Y-72013571D01*
X152853556Y-72047756D01*
X152941264Y-72119736D01*
X153013244Y-72207443D01*
X153047429Y-72271399D01*
X153066728Y-72307505D01*
X153066729Y-72307508D01*
X153099666Y-72416084D01*
X153108000Y-72500702D01*
X153108000Y-73007297D01*
X153099666Y-73091916D01*
X153067252Y-73198767D01*
X153066728Y-73200495D01*
X153056761Y-73219141D01*
X153013244Y-73300557D01*
X152941264Y-73388264D01*
X152853557Y-73460244D01*
X152789601Y-73494429D01*
X152753495Y-73513728D01*
X152753492Y-73513729D01*
X152644916Y-73546666D01*
X152532000Y-73557787D01*
X152419085Y-73546666D01*
X152310509Y-73513729D01*
X152310506Y-73513728D01*
X152274400Y-73494429D01*
X152210444Y-73460244D01*
X152122737Y-73388264D01*
X152050757Y-73300557D01*
X152007239Y-73219141D01*
X151993625Y-73198766D01*
X151976298Y-73181439D01*
X151955924Y-73167826D01*
X151933285Y-73158448D01*
X151909252Y-73153668D01*
X151884748Y-73153668D01*
X151860715Y-73158448D01*
X151838076Y-73167826D01*
X151817701Y-73181440D01*
X151800374Y-73198767D01*
X151786761Y-73219141D01*
X151743244Y-73300557D01*
X151671264Y-73388264D01*
X151583557Y-73460244D01*
X151519601Y-73494429D01*
X151483495Y-73513728D01*
X151483492Y-73513729D01*
X151374916Y-73546666D01*
X151262000Y-73557787D01*
X151149085Y-73546666D01*
X151040509Y-73513729D01*
X151040506Y-73513728D01*
X151004400Y-73494429D01*
X150940444Y-73460244D01*
X150852737Y-73388264D01*
X150789622Y-73311359D01*
X150772297Y-73294034D01*
X150751923Y-73280420D01*
X150729284Y-73271043D01*
X150705250Y-73266263D01*
X150680746Y-73266263D01*
X150656713Y-73271044D01*
X150634074Y-73280421D01*
X150613700Y-73294035D01*
X150596373Y-73311362D01*
X150582759Y-73331736D01*
X150573382Y-73354375D01*
X150568000Y-73390660D01*
X150568000Y-73555000D01*
X149416000Y-73555000D01*
X149416000Y-71953000D01*
X150568000Y-71953000D01*
X150568000Y-72117341D01*
X150570402Y-72141727D01*
X150577515Y-72165176D01*
X150589066Y-72186787D01*
X150604611Y-72205729D01*
X150623553Y-72221274D01*
X150645164Y-72232825D01*
X150668613Y-72239938D01*
X150692999Y-72242340D01*
X150717385Y-72239938D01*
X150740834Y-72232825D01*
X150762445Y-72221274D01*
X150781387Y-72205729D01*
X150789608Y-72196657D01*
X150852736Y-72119736D01*
X150940443Y-72047756D01*
X151004399Y-72013571D01*
X151040505Y-71994272D01*
X151040508Y-71994271D01*
X151149084Y-71961334D01*
X151262000Y-71950213D01*
X151374915Y-71961334D01*
X151483491Y-71994271D01*
X151483494Y-71994272D01*
X151519600Y-72013571D01*
X151583556Y-72047756D01*
X151671264Y-72119736D01*
X151743244Y-72207443D01*
X151786761Y-72288859D01*
X151800375Y-72309234D01*
X151817702Y-72326561D01*
X151838076Y-72340174D01*
X151860715Y-72349552D01*
X151884748Y-72354332D01*
X151909252Y-72354332D01*
X151933285Y-72349552D01*
X151955924Y-72340174D01*
X151976299Y-72326560D01*
X151993626Y-72309233D01*
X152007239Y-72288860D01*
X152050756Y-72207444D01*
X152122736Y-72119736D01*
X152210443Y-72047756D01*
X152274399Y-72013571D01*
X152310505Y-71994272D01*
X152310508Y-71994271D01*
X152419084Y-71961334D01*
X152532000Y-71950213D01*
X152644915Y-71961334D01*
G37*
G36*
X189311000Y-73537000D02*
G01*
X185709000Y-73537000D01*
X185709000Y-70735000D01*
X189311000Y-70735000D01*
X189311000Y-73537000D01*
G37*
G36*
X196111000Y-73537000D02*
G01*
X192509000Y-73537000D01*
X192509000Y-70735000D01*
X196111000Y-70735000D01*
X196111000Y-73537000D01*
G37*
G36*
X167516499Y-72307445D02*
G01*
X167553995Y-72318820D01*
X167588554Y-72337292D01*
X167618847Y-72362153D01*
X167643708Y-72392446D01*
X167662180Y-72427005D01*
X167673555Y-72464501D01*
X167678000Y-72509638D01*
X167678000Y-73248362D01*
X167673555Y-73293499D01*
X167662180Y-73330995D01*
X167643708Y-73365554D01*
X167618847Y-73395847D01*
X167588554Y-73420708D01*
X167553995Y-73439180D01*
X167516499Y-73450555D01*
X167471362Y-73455000D01*
X166832638Y-73455000D01*
X166787501Y-73450555D01*
X166750005Y-73439180D01*
X166715446Y-73420708D01*
X166685153Y-73395847D01*
X166660292Y-73365554D01*
X166641820Y-73330995D01*
X166630445Y-73293499D01*
X166626000Y-73248362D01*
X166626000Y-72509638D01*
X166630445Y-72464501D01*
X166641820Y-72427005D01*
X166660292Y-72392446D01*
X166685153Y-72362153D01*
X166715446Y-72337292D01*
X166750005Y-72318820D01*
X166787501Y-72307445D01*
X166832638Y-72303000D01*
X167471362Y-72303000D01*
X167516499Y-72307445D01*
G37*
G36*
X169447000Y-73255000D02*
G01*
X168445000Y-73255000D01*
X168445000Y-72353000D01*
X169447000Y-72353000D01*
X169447000Y-73255000D01*
G37*
G36*
X221093512Y-66413927D02*
G01*
X221242812Y-66443624D01*
X221406784Y-66511544D01*
X221554354Y-66610147D01*
X221679853Y-66735646D01*
X221778456Y-66883216D01*
X221846376Y-67047188D01*
X221881000Y-67221259D01*
X221881000Y-67398741D01*
X221846376Y-67572812D01*
X221778456Y-67736784D01*
X221679853Y-67884354D01*
X221554354Y-68009853D01*
X221406784Y-68108456D01*
X221242812Y-68176376D01*
X221093512Y-68206073D01*
X221068742Y-68211000D01*
X220891258Y-68211000D01*
X220866488Y-68206073D01*
X220717188Y-68176376D01*
X220553216Y-68108456D01*
X220405646Y-68009853D01*
X220280147Y-67884354D01*
X220181544Y-67736784D01*
X220113624Y-67572812D01*
X220079000Y-67398741D01*
X220079000Y-67221259D01*
X220113624Y-67047188D01*
X220181544Y-66883216D01*
X220280147Y-66735646D01*
X220405646Y-66610147D01*
X220553216Y-66511544D01*
X220717188Y-66443624D01*
X220866488Y-66413927D01*
X220891258Y-66409000D01*
X221068742Y-66409000D01*
X221093512Y-66413927D01*
G37*
G36*
X219341000Y-68211000D02*
G01*
X217539000Y-68211000D01*
X217539000Y-66409000D01*
X219341000Y-66409000D01*
X219341000Y-68211000D01*
G37*
G36*
X212991000Y-68211000D02*
G01*
X211189000Y-68211000D01*
X211189000Y-66409000D01*
X212991000Y-66409000D01*
X212991000Y-68211000D01*
G37*
G36*
X214743512Y-66413927D02*
G01*
X214892812Y-66443624D01*
X215056784Y-66511544D01*
X215204354Y-66610147D01*
X215329853Y-66735646D01*
X215428456Y-66883216D01*
X215496376Y-67047188D01*
X215531000Y-67221259D01*
X215531000Y-67398741D01*
X215496376Y-67572812D01*
X215428456Y-67736784D01*
X215329853Y-67884354D01*
X215204354Y-68009853D01*
X215056784Y-68108456D01*
X214892812Y-68176376D01*
X214743512Y-68206073D01*
X214718742Y-68211000D01*
X214541258Y-68211000D01*
X214516488Y-68206073D01*
X214367188Y-68176376D01*
X214203216Y-68108456D01*
X214055646Y-68009853D01*
X213930147Y-67884354D01*
X213831544Y-67736784D01*
X213763624Y-67572812D01*
X213729000Y-67398741D01*
X213729000Y-67221259D01*
X213763624Y-67047188D01*
X213831544Y-66883216D01*
X213930147Y-66735646D01*
X214055646Y-66610147D01*
X214203216Y-66511544D01*
X214367188Y-66443624D01*
X214516488Y-66413927D01*
X214541258Y-66409000D01*
X214718742Y-66409000D01*
X214743512Y-66413927D01*
G37*
G36*
X153289943Y-60566248D02*
G01*
X153845189Y-60796238D01*
X153845190Y-60796239D01*
X154344899Y-61130134D01*
X154769866Y-61555101D01*
X154769867Y-61555103D01*
X155103762Y-62054811D01*
X155333752Y-62610057D01*
X155451000Y-63199501D01*
X155451000Y-63800499D01*
X155333752Y-64389943D01*
X155103762Y-64945189D01*
X155103761Y-64945190D01*
X154769866Y-65444899D01*
X154344899Y-65869866D01*
X154265480Y-65922932D01*
X153845189Y-66203762D01*
X153289943Y-66433752D01*
X152700499Y-66551000D01*
X152099501Y-66551000D01*
X151510057Y-66433752D01*
X150954811Y-66203762D01*
X150534520Y-65922932D01*
X150455101Y-65869866D01*
X150030134Y-65444899D01*
X149696239Y-64945190D01*
X149696238Y-64945189D01*
X149466248Y-64389943D01*
X149349000Y-63800499D01*
X149349000Y-63199501D01*
X149466248Y-62610057D01*
X149696238Y-62054811D01*
X150030133Y-61555103D01*
X150030134Y-61555101D01*
X150455101Y-61130134D01*
X150954810Y-60796239D01*
X150954811Y-60796238D01*
X151510057Y-60566248D01*
X152099501Y-60449000D01*
X152700499Y-60449000D01*
X153289943Y-60566248D01*
G37*
G36*
X229489943Y-60566248D02*
G01*
X230045189Y-60796238D01*
X230045190Y-60796239D01*
X230544899Y-61130134D01*
X230969866Y-61555101D01*
X230969867Y-61555103D01*
X231303762Y-62054811D01*
X231533752Y-62610057D01*
X231651000Y-63199501D01*
X231651000Y-63800499D01*
X231533752Y-64389943D01*
X231303762Y-64945189D01*
X231303761Y-64945190D01*
X230969866Y-65444899D01*
X230544899Y-65869866D01*
X230465480Y-65922932D01*
X230045189Y-66203762D01*
X229489943Y-66433752D01*
X228900499Y-66551000D01*
X228299501Y-66551000D01*
X227710057Y-66433752D01*
X227154811Y-66203762D01*
X226734520Y-65922932D01*
X226655101Y-65869866D01*
X226230134Y-65444899D01*
X225896239Y-64945190D01*
X225896238Y-64945189D01*
X225666248Y-64389943D01*
X225549000Y-63800499D01*
X225549000Y-63199501D01*
X225666248Y-62610057D01*
X225896238Y-62054811D01*
X226230133Y-61555103D01*
X226230134Y-61555101D01*
X226655101Y-61130134D01*
X227154810Y-60796239D01*
X227154811Y-60796238D01*
X227710057Y-60566248D01*
X228299501Y-60449000D01*
X228900499Y-60449000D01*
X229489943Y-60566248D01*
G37*
G36*
X181567487Y-63518996D02*
G01*
X181804253Y-63617068D01*
X181804255Y-63617069D01*
X181857670Y-63652760D01*
X182017339Y-63759447D01*
X182198553Y-63940661D01*
X182340932Y-64153747D01*
X182439004Y-64390513D01*
X182489000Y-64641861D01*
X182489000Y-64898139D01*
X182439004Y-65149487D01*
X182340932Y-65386253D01*
X182340931Y-65386255D01*
X182198553Y-65599339D01*
X182017339Y-65780553D01*
X181804255Y-65922931D01*
X181804254Y-65922932D01*
X181804253Y-65922932D01*
X181567487Y-66021004D01*
X181316139Y-66071000D01*
X181059861Y-66071000D01*
X180808513Y-66021004D01*
X180571747Y-65922932D01*
X180571746Y-65922932D01*
X180571745Y-65922931D01*
X180358661Y-65780553D01*
X180177447Y-65599339D01*
X180035069Y-65386255D01*
X180035068Y-65386253D01*
X179936996Y-65149487D01*
X179887000Y-64898139D01*
X179887000Y-64641861D01*
X179936996Y-64390513D01*
X180035068Y-64153747D01*
X180177447Y-63940661D01*
X180358661Y-63759447D01*
X180518330Y-63652760D01*
X180571745Y-63617069D01*
X180571747Y-63617068D01*
X180808513Y-63518996D01*
X181059861Y-63469000D01*
X181316139Y-63469000D01*
X181567487Y-63518996D01*
G37*
G36*
X176567487Y-63518996D02*
G01*
X176804253Y-63617068D01*
X176804255Y-63617069D01*
X176857670Y-63652760D01*
X177017339Y-63759447D01*
X177198553Y-63940661D01*
X177340932Y-64153747D01*
X177439004Y-64390513D01*
X177489000Y-64641861D01*
X177489000Y-64898139D01*
X177439004Y-65149487D01*
X177340932Y-65386253D01*
X177340931Y-65386255D01*
X177198553Y-65599339D01*
X177017339Y-65780553D01*
X176804255Y-65922931D01*
X176804254Y-65922932D01*
X176804253Y-65922932D01*
X176567487Y-66021004D01*
X176316139Y-66071000D01*
X176059861Y-66071000D01*
X175808513Y-66021004D01*
X175571747Y-65922932D01*
X175571746Y-65922932D01*
X175571745Y-65922931D01*
X175358661Y-65780553D01*
X175177447Y-65599339D01*
X175035069Y-65386255D01*
X175035068Y-65386253D01*
X174936996Y-65149487D01*
X174887000Y-64898139D01*
X174887000Y-64641861D01*
X174936996Y-64390513D01*
X175035068Y-64153747D01*
X175177447Y-63940661D01*
X175358661Y-63759447D01*
X175518330Y-63652760D01*
X175571745Y-63617069D01*
X175571747Y-63617068D01*
X175808513Y-63518996D01*
X176059861Y-63469000D01*
X176316139Y-63469000D01*
X176567487Y-63518996D01*
G37*
G36*
X160567487Y-63518996D02*
G01*
X160804253Y-63617068D01*
X160804255Y-63617069D01*
X160857670Y-63652760D01*
X161017339Y-63759447D01*
X161198553Y-63940661D01*
X161340932Y-64153747D01*
X161439004Y-64390513D01*
X161489000Y-64641861D01*
X161489000Y-64898139D01*
X161439004Y-65149487D01*
X161340932Y-65386253D01*
X161340931Y-65386255D01*
X161198553Y-65599339D01*
X161017339Y-65780553D01*
X160804255Y-65922931D01*
X160804254Y-65922932D01*
X160804253Y-65922932D01*
X160567487Y-66021004D01*
X160316139Y-66071000D01*
X160059861Y-66071000D01*
X159808513Y-66021004D01*
X159571747Y-65922932D01*
X159571746Y-65922932D01*
X159571745Y-65922931D01*
X159358661Y-65780553D01*
X159177447Y-65599339D01*
X159035069Y-65386255D01*
X159035068Y-65386253D01*
X158936996Y-65149487D01*
X158887000Y-64898139D01*
X158887000Y-64641861D01*
X158936996Y-64390513D01*
X159035068Y-64153747D01*
X159177447Y-63940661D01*
X159358661Y-63759447D01*
X159518330Y-63652760D01*
X159571745Y-63617069D01*
X159571747Y-63617068D01*
X159808513Y-63518996D01*
X160059861Y-63469000D01*
X160316139Y-63469000D01*
X160567487Y-63518996D01*
G37*
G36*
X165567487Y-63518996D02*
G01*
X165804253Y-63617068D01*
X165804255Y-63617069D01*
X165857670Y-63652760D01*
X166017339Y-63759447D01*
X166198553Y-63940661D01*
X166340932Y-64153747D01*
X166439004Y-64390513D01*
X166489000Y-64641861D01*
X166489000Y-64898139D01*
X166439004Y-65149487D01*
X166340932Y-65386253D01*
X166340931Y-65386255D01*
X166198553Y-65599339D01*
X166017339Y-65780553D01*
X165804255Y-65922931D01*
X165804254Y-65922932D01*
X165804253Y-65922932D01*
X165567487Y-66021004D01*
X165316139Y-66071000D01*
X165059861Y-66071000D01*
X164808513Y-66021004D01*
X164571747Y-65922932D01*
X164571746Y-65922932D01*
X164571745Y-65922931D01*
X164358661Y-65780553D01*
X164177447Y-65599339D01*
X164035069Y-65386255D01*
X164035068Y-65386253D01*
X163936996Y-65149487D01*
X163887000Y-64898139D01*
X163887000Y-64641861D01*
X163936996Y-64390513D01*
X164035068Y-64153747D01*
X164177447Y-63940661D01*
X164358661Y-63759447D01*
X164518330Y-63652760D01*
X164571745Y-63617069D01*
X164571747Y-63617068D01*
X164808513Y-63518996D01*
X165059861Y-63469000D01*
X165316139Y-63469000D01*
X165567487Y-63518996D01*
G37*
G36*
X207312585Y-61978802D02*
G01*
X207462410Y-62008604D01*
X207744674Y-62125521D01*
X207998705Y-62295259D01*
X208214741Y-62511295D01*
X208384479Y-62765326D01*
X208501396Y-63047590D01*
X208561000Y-63347240D01*
X208561000Y-63652760D01*
X208501396Y-63952410D01*
X208384479Y-64234674D01*
X208214741Y-64488705D01*
X207998705Y-64704741D01*
X207744674Y-64874479D01*
X207462410Y-64991396D01*
X207312585Y-65021198D01*
X207162761Y-65051000D01*
X206857239Y-65051000D01*
X206707415Y-65021198D01*
X206557590Y-64991396D01*
X206275326Y-64874479D01*
X206021295Y-64704741D01*
X205805259Y-64488705D01*
X205635521Y-64234674D01*
X205518604Y-63952410D01*
X205459000Y-63652760D01*
X205459000Y-63347240D01*
X205518604Y-63047590D01*
X205635521Y-62765326D01*
X205805259Y-62511295D01*
X206021295Y-62295259D01*
X206275326Y-62125521D01*
X206557590Y-62008604D01*
X206707415Y-61978802D01*
X206857239Y-61949000D01*
X207162761Y-61949000D01*
X207312585Y-61978802D01*
G37*
G36*
X203481000Y-65051000D02*
G01*
X200379000Y-65051000D01*
X200379000Y-61949000D01*
X203481000Y-61949000D01*
X203481000Y-65051000D01*
G37*
G36*
X190696719Y-62463520D02*
G01*
X190854216Y-62511296D01*
X190885883Y-62520902D01*
X190978333Y-62570318D01*
X191060212Y-62614083D01*
X191213015Y-62739485D01*
X191338417Y-62892288D01*
X191431599Y-63066619D01*
X191488980Y-63255780D01*
X191503500Y-63403206D01*
X191503500Y-63596793D01*
X191488980Y-63744219D01*
X191431599Y-63933380D01*
X191431598Y-63933383D01*
X191382182Y-64025833D01*
X191338417Y-64107712D01*
X191213015Y-64260515D01*
X191060212Y-64385917D01*
X190885881Y-64479099D01*
X190696720Y-64536480D01*
X190500000Y-64555855D01*
X190303281Y-64536480D01*
X190114120Y-64479099D01*
X189939788Y-64385917D01*
X189786985Y-64260515D01*
X189661583Y-64107712D01*
X189568401Y-63933381D01*
X189511020Y-63744220D01*
X189496500Y-63596794D01*
X189496500Y-63403207D01*
X189511020Y-63255781D01*
X189568401Y-63066620D01*
X189568402Y-63066617D01*
X189617818Y-62974167D01*
X189661583Y-62892288D01*
X189786985Y-62739485D01*
X189939788Y-62614083D01*
X190114119Y-62520901D01*
X190303280Y-62463520D01*
X190500000Y-62444145D01*
X190696719Y-62463520D01*
G37*
G36*
X193236719Y-62463520D02*
G01*
X193394216Y-62511296D01*
X193425883Y-62520902D01*
X193518333Y-62570318D01*
X193600212Y-62614083D01*
X193753015Y-62739485D01*
X193878417Y-62892288D01*
X193971599Y-63066619D01*
X194028980Y-63255780D01*
X194043500Y-63403206D01*
X194043500Y-63596793D01*
X194028980Y-63744219D01*
X193971599Y-63933380D01*
X193971598Y-63933383D01*
X193922182Y-64025833D01*
X193878417Y-64107712D01*
X193753015Y-64260515D01*
X193600212Y-64385917D01*
X193425881Y-64479099D01*
X193236720Y-64536480D01*
X193040000Y-64555855D01*
X192843281Y-64536480D01*
X192654120Y-64479099D01*
X192479788Y-64385917D01*
X192326985Y-64260515D01*
X192201583Y-64107712D01*
X192108401Y-63933381D01*
X192051020Y-63744220D01*
X192036500Y-63596794D01*
X192036500Y-63403207D01*
X192051020Y-63255781D01*
X192108401Y-63066620D01*
X192108402Y-63066617D01*
X192157818Y-62974167D01*
X192201583Y-62892288D01*
X192326985Y-62739485D01*
X192479788Y-62614083D01*
X192654119Y-62520901D01*
X192843280Y-62463520D01*
X193040000Y-62444145D01*
X193236719Y-62463520D01*
G37*
G36*
X188963500Y-64551000D02*
G01*
X186956500Y-64551000D01*
X186956500Y-62449000D01*
X188963500Y-62449000D01*
X188963500Y-64551000D01*
G37*
M02*
