%FSLAX45Y45*%
G04 Gerber Fmt 4.5, Leading zero omitted, Abs format (unit mm)*
G04 Created by KiCad (PCBNEW 5.1.5+dfsg1-2build2) date 2022-06-14 14:00:26*
%MOMM*%
%LPD*%
G04 APERTURE LIST*
%ADD10C,0.200000*%
%ADD11C,0.300000*%
G04 APERTURE END LIST*
D10*
X14785000Y-6185000D02*
X14815000Y-6215000D01*
X14815000Y-6185000D02*
X14785000Y-6215000D01*
X14785000Y-7185000D02*
X14815000Y-7215000D01*
X14815000Y-7185000D02*
X14785000Y-7215000D01*
X14785000Y-8185000D02*
X14815000Y-8215000D01*
X14815000Y-8185000D02*
X14785000Y-8215000D01*
X14785000Y-9185000D02*
X14815000Y-9215000D01*
X14815000Y-9185000D02*
X14785000Y-9215000D01*
X14785000Y-10185000D02*
X14815000Y-10215000D01*
X14815000Y-10185000D02*
X14785000Y-10215000D01*
X14785000Y-11185000D02*
X14815000Y-11215000D01*
X14815000Y-11185000D02*
X14785000Y-11215000D01*
X14785000Y-12185000D02*
X14815000Y-12215000D01*
X14815000Y-12185000D02*
X14785000Y-12215000D01*
X14785000Y-13185000D02*
X14815000Y-13215000D01*
X14815000Y-13185000D02*
X14785000Y-13215000D01*
X14785000Y-14185000D02*
X14815000Y-14215000D01*
X14815000Y-14185000D02*
X14785000Y-14215000D01*
X14785000Y-15185000D02*
X14815000Y-15215000D01*
X14815000Y-15185000D02*
X14785000Y-15215000D01*
X14785000Y-16185000D02*
X14815000Y-16215000D01*
X14815000Y-16185000D02*
X14785000Y-16215000D01*
X16485000Y-8085000D02*
X16515000Y-8115000D01*
X16515000Y-8085000D02*
X16485000Y-8115000D01*
X16485000Y-8185000D02*
X16515000Y-8215000D01*
X16515000Y-8185000D02*
X16485000Y-8215000D01*
X16485000Y-8285000D02*
X16515000Y-8315000D01*
X16515000Y-8285000D02*
X16485000Y-8315000D01*
X16485000Y-10185000D02*
X16515000Y-10215000D01*
X16515000Y-10185000D02*
X16485000Y-10215000D01*
X16485000Y-10285000D02*
X16515000Y-10315000D01*
X16515000Y-10285000D02*
X16485000Y-10315000D01*
X16485000Y-10385000D02*
X16515000Y-10415000D01*
X16515000Y-10385000D02*
X16485000Y-10415000D01*
X16485000Y-12285000D02*
X16515000Y-12315000D01*
X16515000Y-12285000D02*
X16485000Y-12315000D01*
X16485000Y-12385000D02*
X16515000Y-12415000D01*
X16515000Y-12385000D02*
X16485000Y-12415000D01*
X16485000Y-12485000D02*
X16515000Y-12515000D01*
X16515000Y-12485000D02*
X16485000Y-12515000D01*
X16485000Y-14485000D02*
X16515000Y-14515000D01*
X16515000Y-14485000D02*
X16485000Y-14515000D01*
X16485000Y-14585000D02*
X16515000Y-14615000D01*
X16515000Y-14585000D02*
X16485000Y-14615000D01*
X16485000Y-14685000D02*
X16515000Y-14715000D01*
X16515000Y-14685000D02*
X16485000Y-14715000D01*
X17513000Y-7563600D02*
X17543000Y-7593600D01*
X17543000Y-7563600D02*
X17513000Y-7593600D01*
X18452800Y-8528800D02*
X18482800Y-8558800D01*
X18482800Y-8528800D02*
X18452800Y-8558800D01*
X18452800Y-10635400D02*
X18482800Y-10665400D01*
X18482800Y-10635400D02*
X18452800Y-10665400D01*
X18452800Y-12792800D02*
X18482800Y-12822800D01*
X18482800Y-12792800D02*
X18452800Y-12822800D01*
X18502000Y-14899400D02*
X18532000Y-14929400D01*
X18532000Y-14899400D02*
X18502000Y-14929400D01*
X18785000Y-7585000D02*
X18815000Y-7615000D01*
X18815000Y-7585000D02*
X18785000Y-7615000D01*
X18785000Y-8646400D02*
X18815000Y-8676400D01*
X18815000Y-8646400D02*
X18785000Y-8676400D01*
X18785000Y-9785000D02*
X18815000Y-9815000D01*
X18815000Y-9785000D02*
X18785000Y-9815000D01*
X18785000Y-10754600D02*
X18815000Y-10784600D01*
X18815000Y-10754600D02*
X18785000Y-10784600D01*
X18785000Y-11885000D02*
X18815000Y-11915000D01*
X18815000Y-11885000D02*
X18785000Y-11915000D01*
X18785000Y-12885000D02*
X18815000Y-12915000D01*
X18815000Y-12885000D02*
X18785000Y-12915000D01*
X18785000Y-13985000D02*
X18815000Y-14015000D01*
X18815000Y-13985000D02*
X18785000Y-14015000D01*
X18785000Y-14985000D02*
X18815000Y-15015000D01*
X18815000Y-14985000D02*
X18785000Y-15015000D01*
X18965150Y-7897100D02*
X18995150Y-7927100D01*
X18995150Y-7897100D02*
X18965150Y-7927100D01*
X18965150Y-8297150D02*
X18995150Y-8327150D01*
X18995150Y-8297150D02*
X18965150Y-8327150D01*
X18965150Y-10030700D02*
X18995150Y-10060700D01*
X18995150Y-10030700D02*
X18965150Y-10060700D01*
X18965150Y-10424400D02*
X18995150Y-10454400D01*
X18995150Y-10424400D02*
X18965150Y-10454400D01*
X18965150Y-12164300D02*
X18995150Y-12194300D01*
X18995150Y-12164300D02*
X18965150Y-12194300D01*
X18965150Y-12558000D02*
X18995150Y-12588000D01*
X18995150Y-12558000D02*
X18965150Y-12588000D01*
X18965300Y-12361000D02*
X18995300Y-12391000D01*
X18995300Y-12361000D02*
X18965300Y-12391000D01*
X18968200Y-8097000D02*
X18998200Y-8127000D01*
X18998200Y-8097000D02*
X18968200Y-8127000D01*
X18970050Y-10229000D02*
X19000050Y-10259000D01*
X19000050Y-10229000D02*
X18970050Y-10259000D01*
X19003250Y-14297900D02*
X19033250Y-14327900D01*
X19033250Y-14297900D02*
X19003250Y-14327900D01*
X19003250Y-14494750D02*
X19033250Y-14524750D01*
X19033250Y-14494750D02*
X19003250Y-14524750D01*
X19003250Y-14685250D02*
X19033250Y-14715250D01*
X19033250Y-14685250D02*
X19003250Y-14715250D01*
X19228800Y-8097000D02*
X19258800Y-8127000D01*
X19258800Y-8097000D02*
X19228800Y-8127000D01*
X19230400Y-10229000D02*
X19260400Y-10259000D01*
X19260400Y-10229000D02*
X19230400Y-10259000D01*
X19231577Y-12355073D02*
X19261577Y-12385073D01*
X19261577Y-12355073D02*
X19231577Y-12385073D01*
X19231850Y-7897100D02*
X19261850Y-7927100D01*
X19261850Y-7897100D02*
X19231850Y-7927100D01*
X19231850Y-8297150D02*
X19261850Y-8327150D01*
X19261850Y-8297150D02*
X19231850Y-8327150D01*
X19231850Y-10030700D02*
X19261850Y-10060700D01*
X19261850Y-10030700D02*
X19231850Y-10060700D01*
X19231850Y-10424400D02*
X19261850Y-10454400D01*
X19261850Y-10424400D02*
X19231850Y-10454400D01*
X19231850Y-12164300D02*
X19261850Y-12194300D01*
X19261850Y-12164300D02*
X19231850Y-12194300D01*
X19231850Y-12558000D02*
X19261850Y-12588000D01*
X19261850Y-12558000D02*
X19231850Y-12588000D01*
X19269950Y-14297900D02*
X19299950Y-14327900D01*
X19299950Y-14297900D02*
X19269950Y-14327900D01*
X19269950Y-14494750D02*
X19299950Y-14524750D01*
X19299950Y-14494750D02*
X19269950Y-14524750D01*
X19269950Y-14685250D02*
X19299950Y-14715250D01*
X19299950Y-14685250D02*
X19269950Y-14715250D01*
X23285000Y-6185000D02*
X23315000Y-6215000D01*
X23315000Y-6185000D02*
X23285000Y-6215000D01*
X23285000Y-7185000D02*
X23315000Y-7215000D01*
X23315000Y-7185000D02*
X23285000Y-7215000D01*
X23285000Y-8185000D02*
X23315000Y-8215000D01*
X23315000Y-8185000D02*
X23285000Y-8215000D01*
X23285000Y-9185000D02*
X23315000Y-9215000D01*
X23315000Y-9185000D02*
X23285000Y-9215000D01*
X23285000Y-10185000D02*
X23315000Y-10215000D01*
X23315000Y-10185000D02*
X23285000Y-10215000D01*
X23285000Y-11185000D02*
X23315000Y-11215000D01*
X23315000Y-11185000D02*
X23285000Y-11215000D01*
X23285000Y-12185000D02*
X23315000Y-12215000D01*
X23315000Y-12185000D02*
X23285000Y-12215000D01*
X23285000Y-13185000D02*
X23315000Y-13215000D01*
X23315000Y-13185000D02*
X23285000Y-13215000D01*
X23285000Y-14185000D02*
X23315000Y-14215000D01*
X23315000Y-14185000D02*
X23285000Y-14215000D01*
X23285000Y-15185000D02*
X23315000Y-15215000D01*
X23315000Y-15185000D02*
X23285000Y-15215000D01*
X23285000Y-16185000D02*
X23315000Y-16215000D01*
X23315000Y-16185000D02*
X23285000Y-16215000D01*
X15023500Y-9423400D02*
G75*
G03X15023500Y-9423400I-37500J0D01*
G01*
X15150500Y-9423400D02*
G75*
G03X15150500Y-9423400I-37500J0D01*
G01*
X15277500Y-9423400D02*
G75*
G03X15277500Y-9423400I-37500J0D01*
G01*
X15023500Y-11557000D02*
G75*
G03X15023500Y-11557000I-37500J0D01*
G01*
X15150500Y-11557000D02*
G75*
G03X15150500Y-11557000I-37500J0D01*
G01*
X15277500Y-11557000D02*
G75*
G03X15277500Y-11557000I-37500J0D01*
G01*
X15036700Y-7275400D02*
G75*
G03X15036700Y-7275400I-37500J0D01*
G01*
X15163700Y-7275400D02*
G75*
G03X15163700Y-7275400I-37500J0D01*
G01*
X15290700Y-7275400D02*
G75*
G03X15290700Y-7275400I-37500J0D01*
G01*
X15036700Y-8799400D02*
G75*
G03X15036700Y-8799400I-37500J0D01*
G01*
X15163700Y-8799400D02*
G75*
G03X15163700Y-8799400I-37500J0D01*
G01*
X15290700Y-8799400D02*
G75*
G03X15290700Y-8799400I-37500J0D01*
G01*
X15023500Y-13081000D02*
G75*
G03X15023500Y-13081000I-37500J0D01*
G01*
X15150500Y-13081000D02*
G75*
G03X15150500Y-13081000I-37500J0D01*
G01*
X15277500Y-13081000D02*
G75*
G03X15277500Y-13081000I-37500J0D01*
G01*
X15023500Y-15240000D02*
G75*
G03X15023500Y-15240000I-37500J0D01*
G01*
X15150500Y-15240000D02*
G75*
G03X15150500Y-15240000I-37500J0D01*
G01*
X15277500Y-15240000D02*
G75*
G03X15277500Y-15240000I-37500J0D01*
G01*
X15023500Y-13716000D02*
G75*
G03X15023500Y-13716000I-37500J0D01*
G01*
X15150500Y-13716000D02*
G75*
G03X15150500Y-13716000I-37500J0D01*
G01*
X15277500Y-13716000D02*
G75*
G03X15277500Y-13716000I-37500J0D01*
G01*
X15023500Y-10947400D02*
G75*
G03X15023500Y-10947400I-37500J0D01*
G01*
X15150500Y-10947400D02*
G75*
G03X15150500Y-10947400I-37500J0D01*
G01*
X15277500Y-10947400D02*
G75*
G03X15277500Y-10947400I-37500J0D01*
G01*
X21209000Y-6681000D02*
X21209000Y-6781000D01*
X21159000Y-6731000D02*
X21259000Y-6731000D01*
X21463000Y-6681000D02*
X21463000Y-6781000D01*
X21413000Y-6731000D02*
X21513000Y-6731000D01*
X21844000Y-6681000D02*
X21844000Y-6781000D01*
X21794000Y-6731000D02*
X21894000Y-6731000D01*
X22098000Y-6681000D02*
X22098000Y-6781000D01*
X22048000Y-6731000D02*
X22148000Y-6731000D01*
X18834891Y-6388891D02*
X18834891Y-6311109D01*
X18757109Y-6311109D01*
X18757109Y-6388891D01*
X18834891Y-6388891D01*
X19088891Y-6388891D02*
X19088891Y-6311109D01*
X19011109Y-6311109D01*
X19011109Y-6388891D01*
X19088891Y-6388891D01*
X19342891Y-6388891D02*
X19342891Y-6311109D01*
X19265109Y-6311109D01*
X19265109Y-6388891D01*
X19342891Y-6388891D01*
X16018800Y-6542000D02*
X16083800Y-6477000D01*
X16018800Y-6412000D01*
X15953800Y-6477000D01*
X16018800Y-6542000D01*
X16518800Y-6542000D02*
X16583800Y-6477000D01*
X16518800Y-6412000D01*
X16453800Y-6477000D01*
X16518800Y-6542000D01*
X17618800Y-6542000D02*
X17683800Y-6477000D01*
X17618800Y-6412000D01*
X17553800Y-6477000D01*
X17618800Y-6542000D01*
X18118800Y-6542000D02*
X18183800Y-6477000D01*
X18118800Y-6412000D01*
X18053800Y-6477000D01*
X18118800Y-6542000D01*
X20117000Y-6274000D02*
X20269000Y-6426000D01*
X20269000Y-6274000D02*
X20117000Y-6426000D01*
X20269000Y-6350000D02*
G75*
G03X20269000Y-6350000I-76000J0D01*
G01*
X20625000Y-6274000D02*
X20777000Y-6426000D01*
X20777000Y-6274000D02*
X20625000Y-6426000D01*
X20777000Y-6350000D02*
G75*
G03X20777000Y-6350000I-76000J0D01*
G01*
X15610000Y-7910000D02*
X15790000Y-8090000D01*
X15790000Y-7910000D02*
X15610000Y-8090000D01*
X15700000Y-7910000D02*
X15700000Y-8090000D01*
X15610000Y-8000000D02*
X15790000Y-8000000D01*
X22910000Y-7910000D02*
X23090000Y-8090000D01*
X23090000Y-7910000D02*
X22910000Y-8090000D01*
X23000000Y-7910000D02*
X23000000Y-8090000D01*
X22910000Y-8000000D02*
X23090000Y-8000000D01*
X15610000Y-12210000D02*
X15790000Y-12390000D01*
X15790000Y-12210000D02*
X15610000Y-12390000D01*
X15700000Y-12210000D02*
X15700000Y-12390000D01*
X15610000Y-12300000D02*
X15790000Y-12300000D01*
X22910000Y-12210000D02*
X23090000Y-12390000D01*
X23090000Y-12210000D02*
X22910000Y-12390000D01*
X23000000Y-12210000D02*
X23000000Y-12390000D01*
X22910000Y-12300000D02*
X23090000Y-12300000D01*
X15610000Y-10060000D02*
X15790000Y-10240000D01*
X15790000Y-10060000D02*
X15610000Y-10240000D01*
X15700000Y-10060000D02*
X15700000Y-10240000D01*
X15610000Y-10150000D02*
X15790000Y-10150000D01*
X22910000Y-10060000D02*
X23090000Y-10240000D01*
X23090000Y-10060000D02*
X22910000Y-10240000D01*
X23000000Y-10060000D02*
X23000000Y-10240000D01*
X22910000Y-10150000D02*
X23090000Y-10150000D01*
X22685000Y-6175000D02*
X23035000Y-6525000D01*
X23035000Y-6175000D02*
X22685000Y-6525000D01*
X22983745Y-6473745D02*
X22983745Y-6226255D01*
X22736255Y-6226255D01*
X22736255Y-6473745D01*
X22983745Y-6473745D01*
X22685000Y-15827000D02*
X23035000Y-16177000D01*
X23035000Y-15827000D02*
X22685000Y-16177000D01*
X22983745Y-16125745D02*
X22983745Y-15878255D01*
X22736255Y-15878255D01*
X22736255Y-16125745D01*
X22983745Y-16125745D01*
X15065000Y-6175000D02*
X15415000Y-6525000D01*
X15415000Y-6175000D02*
X15065000Y-6525000D01*
X15363745Y-6473745D02*
X15363745Y-6226255D01*
X15116255Y-6226255D01*
X15116255Y-6473745D01*
X15363745Y-6473745D01*
X15065000Y-15827000D02*
X15415000Y-16177000D01*
X15415000Y-15827000D02*
X15065000Y-16177000D01*
X15363745Y-16125745D02*
X15363745Y-15878255D01*
X15116255Y-15878255D01*
X15116255Y-16125745D01*
X15363745Y-16125745D01*
D11*
X286429Y-465714D02*
X286429Y-165714D01*
X357857Y-165714D01*
X400714Y-180000D01*
X429286Y-208571D01*
X443571Y-237143D01*
X457857Y-294286D01*
X457857Y-337143D01*
X443571Y-394286D01*
X429286Y-422857D01*
X400714Y-451428D01*
X357857Y-465714D01*
X286429Y-465714D01*
X586429Y-465714D02*
X586429Y-265714D01*
X586429Y-322857D02*
X600714Y-294286D01*
X615000Y-280000D01*
X643571Y-265714D01*
X672143Y-265714D01*
X772143Y-465714D02*
X772143Y-265714D01*
X772143Y-165714D02*
X757857Y-180000D01*
X772143Y-194286D01*
X786428Y-180000D01*
X772143Y-165714D01*
X772143Y-194286D01*
X957857Y-465714D02*
X929286Y-451428D01*
X915000Y-422857D01*
X915000Y-165714D01*
X1115000Y-465714D02*
X1086429Y-451428D01*
X1072143Y-422857D01*
X1072143Y-165714D01*
X1457857Y-465714D02*
X1457857Y-165714D01*
X1557857Y-380000D01*
X1657857Y-165714D01*
X1657857Y-465714D01*
X1929286Y-465714D02*
X1929286Y-308571D01*
X1915000Y-280000D01*
X1886428Y-265714D01*
X1829286Y-265714D01*
X1800714Y-280000D01*
X1929286Y-451428D02*
X1900714Y-465714D01*
X1829286Y-465714D01*
X1800714Y-451428D01*
X1786428Y-422857D01*
X1786428Y-394286D01*
X1800714Y-365714D01*
X1829286Y-351428D01*
X1900714Y-351428D01*
X1929286Y-337143D01*
X2072143Y-265714D02*
X2072143Y-565714D01*
X2072143Y-280000D02*
X2100714Y-265714D01*
X2157857Y-265714D01*
X2186429Y-280000D01*
X2200714Y-294286D01*
X2215000Y-322857D01*
X2215000Y-408571D01*
X2200714Y-437143D01*
X2186429Y-451428D01*
X2157857Y-465714D01*
X2100714Y-465714D01*
X2072143Y-451428D01*
X2343571Y-437143D02*
X2357857Y-451428D01*
X2343571Y-465714D01*
X2329286Y-451428D01*
X2343571Y-437143D01*
X2343571Y-465714D01*
X2343571Y-280000D02*
X2357857Y-294286D01*
X2343571Y-308571D01*
X2329286Y-294286D01*
X2343571Y-280000D01*
X2343571Y-308571D01*
X-30000Y-945000D02*
X0Y-975000D01*
X0Y-945000D02*
X-30000Y-975000D01*
X343571Y-795714D02*
X372143Y-795714D01*
X400714Y-810000D01*
X415000Y-824286D01*
X429286Y-852857D01*
X443571Y-910000D01*
X443571Y-981428D01*
X429286Y-1038571D01*
X415000Y-1067143D01*
X400714Y-1081429D01*
X372143Y-1095714D01*
X343571Y-1095714D01*
X315000Y-1081429D01*
X300714Y-1067143D01*
X286429Y-1038571D01*
X272143Y-981428D01*
X272143Y-910000D01*
X286429Y-852857D01*
X300714Y-824286D01*
X315000Y-810000D01*
X343571Y-795714D01*
X572143Y-1067143D02*
X586429Y-1081429D01*
X572143Y-1095714D01*
X557857Y-1081429D01*
X572143Y-1067143D01*
X572143Y-1095714D01*
X686429Y-795714D02*
X872143Y-795714D01*
X772143Y-910000D01*
X815000Y-910000D01*
X843571Y-924286D01*
X857857Y-938571D01*
X872143Y-967143D01*
X872143Y-1038571D01*
X857857Y-1067143D01*
X843571Y-1081429D01*
X815000Y-1095714D01*
X729286Y-1095714D01*
X700714Y-1081429D01*
X686429Y-1067143D01*
X1057857Y-795714D02*
X1086429Y-795714D01*
X1115000Y-810000D01*
X1129286Y-824286D01*
X1143571Y-852857D01*
X1157857Y-910000D01*
X1157857Y-981428D01*
X1143571Y-1038571D01*
X1129286Y-1067143D01*
X1115000Y-1081429D01*
X1086429Y-1095714D01*
X1057857Y-1095714D01*
X1029286Y-1081429D01*
X1015000Y-1067143D01*
X1000714Y-1038571D01*
X986428Y-981428D01*
X986428Y-910000D01*
X1000714Y-852857D01*
X1015000Y-824286D01*
X1029286Y-810000D01*
X1057857Y-795714D01*
X1286429Y-1095714D02*
X1286429Y-895714D01*
X1286429Y-924286D02*
X1300714Y-910000D01*
X1329286Y-895714D01*
X1372143Y-895714D01*
X1400714Y-910000D01*
X1415000Y-938571D01*
X1415000Y-1095714D01*
X1415000Y-938571D02*
X1429286Y-910000D01*
X1457857Y-895714D01*
X1500714Y-895714D01*
X1529286Y-910000D01*
X1543571Y-938571D01*
X1543571Y-1095714D01*
X1686428Y-1095714D02*
X1686428Y-895714D01*
X1686428Y-924286D02*
X1700714Y-910000D01*
X1729286Y-895714D01*
X1772143Y-895714D01*
X1800714Y-910000D01*
X1815000Y-938571D01*
X1815000Y-1095714D01*
X1815000Y-938571D02*
X1829286Y-910000D01*
X1857857Y-895714D01*
X1900714Y-895714D01*
X1929286Y-910000D01*
X1943571Y-938571D01*
X1943571Y-1095714D01*
X2529286Y-781428D02*
X2272143Y-1167143D01*
X2915000Y-795714D02*
X2943571Y-795714D01*
X2972143Y-810000D01*
X2986428Y-824286D01*
X3000714Y-852857D01*
X3015000Y-910000D01*
X3015000Y-981428D01*
X3000714Y-1038571D01*
X2986428Y-1067143D01*
X2972143Y-1081429D01*
X2943571Y-1095714D01*
X2915000Y-1095714D01*
X2886428Y-1081429D01*
X2872143Y-1067143D01*
X2857857Y-1038571D01*
X2843571Y-981428D01*
X2843571Y-910000D01*
X2857857Y-852857D01*
X2872143Y-824286D01*
X2886428Y-810000D01*
X2915000Y-795714D01*
X3143571Y-1067143D02*
X3157857Y-1081429D01*
X3143571Y-1095714D01*
X3129286Y-1081429D01*
X3143571Y-1067143D01*
X3143571Y-1095714D01*
X3343571Y-795714D02*
X3372143Y-795714D01*
X3400714Y-810000D01*
X3415000Y-824286D01*
X3429286Y-852857D01*
X3443571Y-910000D01*
X3443571Y-981428D01*
X3429286Y-1038571D01*
X3415000Y-1067143D01*
X3400714Y-1081429D01*
X3372143Y-1095714D01*
X3343571Y-1095714D01*
X3315000Y-1081429D01*
X3300714Y-1067143D01*
X3286428Y-1038571D01*
X3272143Y-981428D01*
X3272143Y-910000D01*
X3286428Y-852857D01*
X3300714Y-824286D01*
X3315000Y-810000D01*
X3343571Y-795714D01*
X3729286Y-1095714D02*
X3557857Y-1095714D01*
X3643571Y-1095714D02*
X3643571Y-795714D01*
X3615000Y-838571D01*
X3586428Y-867143D01*
X3557857Y-881428D01*
X3843571Y-824286D02*
X3857857Y-810000D01*
X3886428Y-795714D01*
X3957857Y-795714D01*
X3986428Y-810000D01*
X4000714Y-824286D01*
X4015000Y-852857D01*
X4015000Y-881428D01*
X4000714Y-924286D01*
X3829286Y-1095714D01*
X4015000Y-1095714D01*
X4129286Y-795714D02*
X4129286Y-852857D01*
X4243571Y-795714D02*
X4243571Y-852857D01*
X4686429Y-1210000D02*
X4672143Y-1195714D01*
X4643571Y-1152857D01*
X4629286Y-1124286D01*
X4615000Y-1081429D01*
X4600714Y-1010000D01*
X4600714Y-952857D01*
X4615000Y-881428D01*
X4629286Y-838571D01*
X4643571Y-810000D01*
X4672143Y-767143D01*
X4686429Y-752857D01*
X4772143Y-795714D02*
X4972143Y-795714D01*
X4843571Y-1095714D01*
X5243571Y-1095714D02*
X5072143Y-1095714D01*
X5157857Y-1095714D02*
X5157857Y-795714D01*
X5129286Y-838571D01*
X5100714Y-867143D01*
X5072143Y-881428D01*
X5600714Y-1095714D02*
X5600714Y-795714D01*
X5729286Y-1095714D02*
X5729286Y-938571D01*
X5715000Y-910000D01*
X5686428Y-895714D01*
X5643571Y-895714D01*
X5615000Y-910000D01*
X5600714Y-924286D01*
X5915000Y-1095714D02*
X5886428Y-1081429D01*
X5872143Y-1067143D01*
X5857857Y-1038571D01*
X5857857Y-952857D01*
X5872143Y-924286D01*
X5886428Y-910000D01*
X5915000Y-895714D01*
X5957857Y-895714D01*
X5986428Y-910000D01*
X6000714Y-924286D01*
X6015000Y-952857D01*
X6015000Y-1038571D01*
X6000714Y-1067143D01*
X5986428Y-1081429D01*
X5957857Y-1095714D01*
X5915000Y-1095714D01*
X6186428Y-1095714D02*
X6157857Y-1081429D01*
X6143571Y-1052857D01*
X6143571Y-795714D01*
X6415000Y-1081429D02*
X6386428Y-1095714D01*
X6329286Y-1095714D01*
X6300714Y-1081429D01*
X6286428Y-1052857D01*
X6286428Y-938571D01*
X6300714Y-910000D01*
X6329286Y-895714D01*
X6386428Y-895714D01*
X6415000Y-910000D01*
X6429286Y-938571D01*
X6429286Y-967143D01*
X6286428Y-995714D01*
X6543571Y-1081429D02*
X6572143Y-1095714D01*
X6629286Y-1095714D01*
X6657857Y-1081429D01*
X6672143Y-1052857D01*
X6672143Y-1038571D01*
X6657857Y-1010000D01*
X6629286Y-995714D01*
X6586428Y-995714D01*
X6557857Y-981428D01*
X6543571Y-952857D01*
X6543571Y-938571D01*
X6557857Y-910000D01*
X6586428Y-895714D01*
X6629286Y-895714D01*
X6657857Y-910000D01*
X6772143Y-1210000D02*
X6786428Y-1195714D01*
X6815000Y-1152857D01*
X6829286Y-1124286D01*
X6843571Y-1081429D01*
X6857857Y-1010000D01*
X6857857Y-952857D01*
X6843571Y-881428D01*
X6829286Y-838571D01*
X6815000Y-810000D01*
X6786428Y-767143D01*
X6772143Y-752857D01*
X0Y-1356000D02*
G75*
G03X0Y-1356000I-37500J0D01*
G01*
X343571Y-1191714D02*
X372143Y-1191714D01*
X400714Y-1206000D01*
X415000Y-1220286D01*
X429286Y-1248857D01*
X443571Y-1306000D01*
X443571Y-1377429D01*
X429286Y-1434571D01*
X415000Y-1463143D01*
X400714Y-1477428D01*
X372143Y-1491714D01*
X343571Y-1491714D01*
X315000Y-1477428D01*
X300714Y-1463143D01*
X286429Y-1434571D01*
X272143Y-1377429D01*
X272143Y-1306000D01*
X286429Y-1248857D01*
X300714Y-1220286D01*
X315000Y-1206000D01*
X343571Y-1191714D01*
X572143Y-1463143D02*
X586429Y-1477428D01*
X572143Y-1491714D01*
X557857Y-1477428D01*
X572143Y-1463143D01*
X572143Y-1491714D01*
X686429Y-1191714D02*
X886428Y-1191714D01*
X757857Y-1491714D01*
X1143571Y-1191714D02*
X1000714Y-1191714D01*
X986428Y-1334571D01*
X1000714Y-1320286D01*
X1029286Y-1306000D01*
X1100714Y-1306000D01*
X1129286Y-1320286D01*
X1143571Y-1334571D01*
X1157857Y-1363143D01*
X1157857Y-1434571D01*
X1143571Y-1463143D01*
X1129286Y-1477428D01*
X1100714Y-1491714D01*
X1029286Y-1491714D01*
X1000714Y-1477428D01*
X986428Y-1463143D01*
X1286429Y-1491714D02*
X1286429Y-1291714D01*
X1286429Y-1320286D02*
X1300714Y-1306000D01*
X1329286Y-1291714D01*
X1372143Y-1291714D01*
X1400714Y-1306000D01*
X1415000Y-1334571D01*
X1415000Y-1491714D01*
X1415000Y-1334571D02*
X1429286Y-1306000D01*
X1457857Y-1291714D01*
X1500714Y-1291714D01*
X1529286Y-1306000D01*
X1543571Y-1334571D01*
X1543571Y-1491714D01*
X1686428Y-1491714D02*
X1686428Y-1291714D01*
X1686428Y-1320286D02*
X1700714Y-1306000D01*
X1729286Y-1291714D01*
X1772143Y-1291714D01*
X1800714Y-1306000D01*
X1815000Y-1334571D01*
X1815000Y-1491714D01*
X1815000Y-1334571D02*
X1829286Y-1306000D01*
X1857857Y-1291714D01*
X1900714Y-1291714D01*
X1929286Y-1306000D01*
X1943571Y-1334571D01*
X1943571Y-1491714D01*
X2529286Y-1177429D02*
X2272143Y-1563143D01*
X2915000Y-1191714D02*
X2943571Y-1191714D01*
X2972143Y-1206000D01*
X2986428Y-1220286D01*
X3000714Y-1248857D01*
X3015000Y-1306000D01*
X3015000Y-1377429D01*
X3000714Y-1434571D01*
X2986428Y-1463143D01*
X2972143Y-1477428D01*
X2943571Y-1491714D01*
X2915000Y-1491714D01*
X2886428Y-1477428D01*
X2872143Y-1463143D01*
X2857857Y-1434571D01*
X2843571Y-1377429D01*
X2843571Y-1306000D01*
X2857857Y-1248857D01*
X2872143Y-1220286D01*
X2886428Y-1206000D01*
X2915000Y-1191714D01*
X3143571Y-1463143D02*
X3157857Y-1477428D01*
X3143571Y-1491714D01*
X3129286Y-1477428D01*
X3143571Y-1463143D01*
X3143571Y-1491714D01*
X3343571Y-1191714D02*
X3372143Y-1191714D01*
X3400714Y-1206000D01*
X3415000Y-1220286D01*
X3429286Y-1248857D01*
X3443571Y-1306000D01*
X3443571Y-1377429D01*
X3429286Y-1434571D01*
X3415000Y-1463143D01*
X3400714Y-1477428D01*
X3372143Y-1491714D01*
X3343571Y-1491714D01*
X3315000Y-1477428D01*
X3300714Y-1463143D01*
X3286428Y-1434571D01*
X3272143Y-1377429D01*
X3272143Y-1306000D01*
X3286428Y-1248857D01*
X3300714Y-1220286D01*
X3315000Y-1206000D01*
X3343571Y-1191714D01*
X3543571Y-1191714D02*
X3729286Y-1191714D01*
X3629286Y-1306000D01*
X3672143Y-1306000D01*
X3700714Y-1320286D01*
X3715000Y-1334571D01*
X3729286Y-1363143D01*
X3729286Y-1434571D01*
X3715000Y-1463143D01*
X3700714Y-1477428D01*
X3672143Y-1491714D01*
X3586428Y-1491714D01*
X3557857Y-1477428D01*
X3543571Y-1463143D01*
X3915000Y-1191714D02*
X3943571Y-1191714D01*
X3972143Y-1206000D01*
X3986428Y-1220286D01*
X4000714Y-1248857D01*
X4015000Y-1306000D01*
X4015000Y-1377429D01*
X4000714Y-1434571D01*
X3986428Y-1463143D01*
X3972143Y-1477428D01*
X3943571Y-1491714D01*
X3915000Y-1491714D01*
X3886428Y-1477428D01*
X3872143Y-1463143D01*
X3857857Y-1434571D01*
X3843571Y-1377429D01*
X3843571Y-1306000D01*
X3857857Y-1248857D01*
X3872143Y-1220286D01*
X3886428Y-1206000D01*
X3915000Y-1191714D01*
X4129286Y-1191714D02*
X4129286Y-1248857D01*
X4243571Y-1191714D02*
X4243571Y-1248857D01*
X4686429Y-1606000D02*
X4672143Y-1591714D01*
X4643571Y-1548857D01*
X4629286Y-1520286D01*
X4615000Y-1477428D01*
X4600714Y-1406000D01*
X4600714Y-1348857D01*
X4615000Y-1277429D01*
X4629286Y-1234571D01*
X4643571Y-1206000D01*
X4672143Y-1163143D01*
X4686429Y-1148857D01*
X4786429Y-1220286D02*
X4800714Y-1206000D01*
X4829286Y-1191714D01*
X4900714Y-1191714D01*
X4929286Y-1206000D01*
X4943571Y-1220286D01*
X4957857Y-1248857D01*
X4957857Y-1277429D01*
X4943571Y-1320286D01*
X4772143Y-1491714D01*
X4957857Y-1491714D01*
X5215000Y-1291714D02*
X5215000Y-1491714D01*
X5143571Y-1177429D02*
X5072143Y-1391714D01*
X5257857Y-1391714D01*
X5600714Y-1491714D02*
X5600714Y-1191714D01*
X5729286Y-1491714D02*
X5729286Y-1334571D01*
X5715000Y-1306000D01*
X5686428Y-1291714D01*
X5643571Y-1291714D01*
X5615000Y-1306000D01*
X5600714Y-1320286D01*
X5915000Y-1491714D02*
X5886428Y-1477428D01*
X5872143Y-1463143D01*
X5857857Y-1434571D01*
X5857857Y-1348857D01*
X5872143Y-1320286D01*
X5886428Y-1306000D01*
X5915000Y-1291714D01*
X5957857Y-1291714D01*
X5986428Y-1306000D01*
X6000714Y-1320286D01*
X6015000Y-1348857D01*
X6015000Y-1434571D01*
X6000714Y-1463143D01*
X5986428Y-1477428D01*
X5957857Y-1491714D01*
X5915000Y-1491714D01*
X6186428Y-1491714D02*
X6157857Y-1477428D01*
X6143571Y-1448857D01*
X6143571Y-1191714D01*
X6415000Y-1477428D02*
X6386428Y-1491714D01*
X6329286Y-1491714D01*
X6300714Y-1477428D01*
X6286428Y-1448857D01*
X6286428Y-1334571D01*
X6300714Y-1306000D01*
X6329286Y-1291714D01*
X6386428Y-1291714D01*
X6415000Y-1306000D01*
X6429286Y-1334571D01*
X6429286Y-1363143D01*
X6286428Y-1391714D01*
X6543571Y-1477428D02*
X6572143Y-1491714D01*
X6629286Y-1491714D01*
X6657857Y-1477428D01*
X6672143Y-1448857D01*
X6672143Y-1434571D01*
X6657857Y-1406000D01*
X6629286Y-1391714D01*
X6586428Y-1391714D01*
X6557857Y-1377429D01*
X6543571Y-1348857D01*
X6543571Y-1334571D01*
X6557857Y-1306000D01*
X6586428Y-1291714D01*
X6629286Y-1291714D01*
X6657857Y-1306000D01*
X6772143Y-1606000D02*
X6786428Y-1591714D01*
X6815000Y-1548857D01*
X6829286Y-1520286D01*
X6843571Y-1477428D01*
X6857857Y-1406000D01*
X6857857Y-1348857D01*
X6843571Y-1277429D01*
X6829286Y-1234571D01*
X6815000Y-1206000D01*
X6786428Y-1163143D01*
X6772143Y-1148857D01*
X-50000Y-1702000D02*
X-50000Y-1802000D01*
X-100000Y-1752000D02*
X0Y-1752000D01*
X443571Y-1887714D02*
X272143Y-1887714D01*
X357857Y-1887714D02*
X357857Y-1587714D01*
X329286Y-1630571D01*
X300714Y-1659143D01*
X272143Y-1673428D01*
X572143Y-1859143D02*
X586429Y-1873428D01*
X572143Y-1887714D01*
X557857Y-1873428D01*
X572143Y-1859143D01*
X572143Y-1887714D01*
X772143Y-1587714D02*
X800714Y-1587714D01*
X829286Y-1602000D01*
X843571Y-1616286D01*
X857857Y-1644857D01*
X872143Y-1702000D01*
X872143Y-1773428D01*
X857857Y-1830571D01*
X843571Y-1859143D01*
X829286Y-1873428D01*
X800714Y-1887714D01*
X772143Y-1887714D01*
X743571Y-1873428D01*
X729286Y-1859143D01*
X715000Y-1830571D01*
X700714Y-1773428D01*
X700714Y-1702000D01*
X715000Y-1644857D01*
X729286Y-1616286D01*
X743571Y-1602000D01*
X772143Y-1587714D01*
X1057857Y-1587714D02*
X1086429Y-1587714D01*
X1115000Y-1602000D01*
X1129286Y-1616286D01*
X1143571Y-1644857D01*
X1157857Y-1702000D01*
X1157857Y-1773428D01*
X1143571Y-1830571D01*
X1129286Y-1859143D01*
X1115000Y-1873428D01*
X1086429Y-1887714D01*
X1057857Y-1887714D01*
X1029286Y-1873428D01*
X1015000Y-1859143D01*
X1000714Y-1830571D01*
X986428Y-1773428D01*
X986428Y-1702000D01*
X1000714Y-1644857D01*
X1015000Y-1616286D01*
X1029286Y-1602000D01*
X1057857Y-1587714D01*
X1286429Y-1887714D02*
X1286429Y-1687714D01*
X1286429Y-1716286D02*
X1300714Y-1702000D01*
X1329286Y-1687714D01*
X1372143Y-1687714D01*
X1400714Y-1702000D01*
X1415000Y-1730571D01*
X1415000Y-1887714D01*
X1415000Y-1730571D02*
X1429286Y-1702000D01*
X1457857Y-1687714D01*
X1500714Y-1687714D01*
X1529286Y-1702000D01*
X1543571Y-1730571D01*
X1543571Y-1887714D01*
X1686428Y-1887714D02*
X1686428Y-1687714D01*
X1686428Y-1716286D02*
X1700714Y-1702000D01*
X1729286Y-1687714D01*
X1772143Y-1687714D01*
X1800714Y-1702000D01*
X1815000Y-1730571D01*
X1815000Y-1887714D01*
X1815000Y-1730571D02*
X1829286Y-1702000D01*
X1857857Y-1687714D01*
X1900714Y-1687714D01*
X1929286Y-1702000D01*
X1943571Y-1730571D01*
X1943571Y-1887714D01*
X2529286Y-1573428D02*
X2272143Y-1959143D01*
X2915000Y-1587714D02*
X2943571Y-1587714D01*
X2972143Y-1602000D01*
X2986428Y-1616286D01*
X3000714Y-1644857D01*
X3015000Y-1702000D01*
X3015000Y-1773428D01*
X3000714Y-1830571D01*
X2986428Y-1859143D01*
X2972143Y-1873428D01*
X2943571Y-1887714D01*
X2915000Y-1887714D01*
X2886428Y-1873428D01*
X2872143Y-1859143D01*
X2857857Y-1830571D01*
X2843571Y-1773428D01*
X2843571Y-1702000D01*
X2857857Y-1644857D01*
X2872143Y-1616286D01*
X2886428Y-1602000D01*
X2915000Y-1587714D01*
X3143571Y-1859143D02*
X3157857Y-1873428D01*
X3143571Y-1887714D01*
X3129286Y-1873428D01*
X3143571Y-1859143D01*
X3143571Y-1887714D01*
X3343571Y-1587714D02*
X3372143Y-1587714D01*
X3400714Y-1602000D01*
X3415000Y-1616286D01*
X3429286Y-1644857D01*
X3443571Y-1702000D01*
X3443571Y-1773428D01*
X3429286Y-1830571D01*
X3415000Y-1859143D01*
X3400714Y-1873428D01*
X3372143Y-1887714D01*
X3343571Y-1887714D01*
X3315000Y-1873428D01*
X3300714Y-1859143D01*
X3286428Y-1830571D01*
X3272143Y-1773428D01*
X3272143Y-1702000D01*
X3286428Y-1644857D01*
X3300714Y-1616286D01*
X3315000Y-1602000D01*
X3343571Y-1587714D01*
X3543571Y-1587714D02*
X3729286Y-1587714D01*
X3629286Y-1702000D01*
X3672143Y-1702000D01*
X3700714Y-1716286D01*
X3715000Y-1730571D01*
X3729286Y-1759143D01*
X3729286Y-1830571D01*
X3715000Y-1859143D01*
X3700714Y-1873428D01*
X3672143Y-1887714D01*
X3586428Y-1887714D01*
X3557857Y-1873428D01*
X3543571Y-1859143D01*
X3872143Y-1887714D02*
X3929286Y-1887714D01*
X3957857Y-1873428D01*
X3972143Y-1859143D01*
X4000714Y-1816286D01*
X4015000Y-1759143D01*
X4015000Y-1644857D01*
X4000714Y-1616286D01*
X3986428Y-1602000D01*
X3957857Y-1587714D01*
X3900714Y-1587714D01*
X3872143Y-1602000D01*
X3857857Y-1616286D01*
X3843571Y-1644857D01*
X3843571Y-1716286D01*
X3857857Y-1744857D01*
X3872143Y-1759143D01*
X3900714Y-1773428D01*
X3957857Y-1773428D01*
X3986428Y-1759143D01*
X4000714Y-1744857D01*
X4015000Y-1716286D01*
X4129286Y-1587714D02*
X4129286Y-1644857D01*
X4243571Y-1587714D02*
X4243571Y-1644857D01*
X4686429Y-2002000D02*
X4672143Y-1987714D01*
X4643571Y-1944857D01*
X4629286Y-1916286D01*
X4615000Y-1873428D01*
X4600714Y-1802000D01*
X4600714Y-1744857D01*
X4615000Y-1673428D01*
X4629286Y-1630571D01*
X4643571Y-1602000D01*
X4672143Y-1559143D01*
X4686429Y-1544857D01*
X4929286Y-1687714D02*
X4929286Y-1887714D01*
X4857857Y-1573428D02*
X4786429Y-1787714D01*
X4972143Y-1787714D01*
X5315000Y-1887714D02*
X5315000Y-1587714D01*
X5443571Y-1887714D02*
X5443571Y-1730571D01*
X5429286Y-1702000D01*
X5400714Y-1687714D01*
X5357857Y-1687714D01*
X5329286Y-1702000D01*
X5315000Y-1716286D01*
X5629286Y-1887714D02*
X5600714Y-1873428D01*
X5586429Y-1859143D01*
X5572143Y-1830571D01*
X5572143Y-1744857D01*
X5586429Y-1716286D01*
X5600714Y-1702000D01*
X5629286Y-1687714D01*
X5672143Y-1687714D01*
X5700714Y-1702000D01*
X5715000Y-1716286D01*
X5729286Y-1744857D01*
X5729286Y-1830571D01*
X5715000Y-1859143D01*
X5700714Y-1873428D01*
X5672143Y-1887714D01*
X5629286Y-1887714D01*
X5900714Y-1887714D02*
X5872143Y-1873428D01*
X5857857Y-1844857D01*
X5857857Y-1587714D01*
X6129286Y-1873428D02*
X6100714Y-1887714D01*
X6043571Y-1887714D01*
X6015000Y-1873428D01*
X6000714Y-1844857D01*
X6000714Y-1730571D01*
X6015000Y-1702000D01*
X6043571Y-1687714D01*
X6100714Y-1687714D01*
X6129286Y-1702000D01*
X6143571Y-1730571D01*
X6143571Y-1759143D01*
X6000714Y-1787714D01*
X6257857Y-1873428D02*
X6286428Y-1887714D01*
X6343571Y-1887714D01*
X6372143Y-1873428D01*
X6386428Y-1844857D01*
X6386428Y-1830571D01*
X6372143Y-1802000D01*
X6343571Y-1787714D01*
X6300714Y-1787714D01*
X6272143Y-1773428D01*
X6257857Y-1744857D01*
X6257857Y-1730571D01*
X6272143Y-1702000D01*
X6300714Y-1687714D01*
X6343571Y-1687714D01*
X6372143Y-1702000D01*
X6486428Y-2002000D02*
X6500714Y-1987714D01*
X6529286Y-1944857D01*
X6543571Y-1916286D01*
X6557857Y-1873428D01*
X6572143Y-1802000D01*
X6572143Y-1744857D01*
X6557857Y-1673428D01*
X6543571Y-1630571D01*
X6529286Y-1602000D01*
X6500714Y-1559143D01*
X6486428Y-1544857D01*
X-16109Y-2186891D02*
X-16109Y-2109109D01*
X-93891Y-2109109D01*
X-93891Y-2186891D01*
X-16109Y-2186891D01*
X443571Y-2283714D02*
X272143Y-2283714D01*
X357857Y-2283714D02*
X357857Y-1983714D01*
X329286Y-2026571D01*
X300714Y-2055143D01*
X272143Y-2069428D01*
X572143Y-2255143D02*
X586429Y-2269429D01*
X572143Y-2283714D01*
X557857Y-2269429D01*
X572143Y-2255143D01*
X572143Y-2283714D01*
X872143Y-2283714D02*
X700714Y-2283714D01*
X786428Y-2283714D02*
X786428Y-1983714D01*
X757857Y-2026571D01*
X729286Y-2055143D01*
X700714Y-2069428D01*
X1057857Y-1983714D02*
X1086429Y-1983714D01*
X1115000Y-1998000D01*
X1129286Y-2012286D01*
X1143571Y-2040857D01*
X1157857Y-2098000D01*
X1157857Y-2169429D01*
X1143571Y-2226571D01*
X1129286Y-2255143D01*
X1115000Y-2269429D01*
X1086429Y-2283714D01*
X1057857Y-2283714D01*
X1029286Y-2269429D01*
X1015000Y-2255143D01*
X1000714Y-2226571D01*
X986428Y-2169429D01*
X986428Y-2098000D01*
X1000714Y-2040857D01*
X1015000Y-2012286D01*
X1029286Y-1998000D01*
X1057857Y-1983714D01*
X1286429Y-2283714D02*
X1286429Y-2083714D01*
X1286429Y-2112286D02*
X1300714Y-2098000D01*
X1329286Y-2083714D01*
X1372143Y-2083714D01*
X1400714Y-2098000D01*
X1415000Y-2126571D01*
X1415000Y-2283714D01*
X1415000Y-2126571D02*
X1429286Y-2098000D01*
X1457857Y-2083714D01*
X1500714Y-2083714D01*
X1529286Y-2098000D01*
X1543571Y-2126571D01*
X1543571Y-2283714D01*
X1686428Y-2283714D02*
X1686428Y-2083714D01*
X1686428Y-2112286D02*
X1700714Y-2098000D01*
X1729286Y-2083714D01*
X1772143Y-2083714D01*
X1800714Y-2098000D01*
X1815000Y-2126571D01*
X1815000Y-2283714D01*
X1815000Y-2126571D02*
X1829286Y-2098000D01*
X1857857Y-2083714D01*
X1900714Y-2083714D01*
X1929286Y-2098000D01*
X1943571Y-2126571D01*
X1943571Y-2283714D01*
X2529286Y-1969428D02*
X2272143Y-2355143D01*
X2915000Y-1983714D02*
X2943571Y-1983714D01*
X2972143Y-1998000D01*
X2986428Y-2012286D01*
X3000714Y-2040857D01*
X3015000Y-2098000D01*
X3015000Y-2169429D01*
X3000714Y-2226571D01*
X2986428Y-2255143D01*
X2972143Y-2269429D01*
X2943571Y-2283714D01*
X2915000Y-2283714D01*
X2886428Y-2269429D01*
X2872143Y-2255143D01*
X2857857Y-2226571D01*
X2843571Y-2169429D01*
X2843571Y-2098000D01*
X2857857Y-2040857D01*
X2872143Y-2012286D01*
X2886428Y-1998000D01*
X2915000Y-1983714D01*
X3143571Y-2255143D02*
X3157857Y-2269429D01*
X3143571Y-2283714D01*
X3129286Y-2269429D01*
X3143571Y-2255143D01*
X3143571Y-2283714D01*
X3343571Y-1983714D02*
X3372143Y-1983714D01*
X3400714Y-1998000D01*
X3415000Y-2012286D01*
X3429286Y-2040857D01*
X3443571Y-2098000D01*
X3443571Y-2169429D01*
X3429286Y-2226571D01*
X3415000Y-2255143D01*
X3400714Y-2269429D01*
X3372143Y-2283714D01*
X3343571Y-2283714D01*
X3315000Y-2269429D01*
X3300714Y-2255143D01*
X3286428Y-2226571D01*
X3272143Y-2169429D01*
X3272143Y-2098000D01*
X3286428Y-2040857D01*
X3300714Y-2012286D01*
X3315000Y-1998000D01*
X3343571Y-1983714D01*
X3700714Y-2083714D02*
X3700714Y-2283714D01*
X3629286Y-1969428D02*
X3557857Y-2183714D01*
X3743571Y-2183714D01*
X3829286Y-1983714D02*
X4015000Y-1983714D01*
X3915000Y-2098000D01*
X3957857Y-2098000D01*
X3986428Y-2112286D01*
X4000714Y-2126571D01*
X4015000Y-2155143D01*
X4015000Y-2226571D01*
X4000714Y-2255143D01*
X3986428Y-2269429D01*
X3957857Y-2283714D01*
X3872143Y-2283714D01*
X3843571Y-2269429D01*
X3829286Y-2255143D01*
X4129286Y-1983714D02*
X4129286Y-2040857D01*
X4243571Y-1983714D02*
X4243571Y-2040857D01*
X4686429Y-2398000D02*
X4672143Y-2383714D01*
X4643571Y-2340857D01*
X4629286Y-2312286D01*
X4615000Y-2269429D01*
X4600714Y-2198000D01*
X4600714Y-2140857D01*
X4615000Y-2069428D01*
X4629286Y-2026571D01*
X4643571Y-1998000D01*
X4672143Y-1955143D01*
X4686429Y-1940857D01*
X4772143Y-1983714D02*
X4957857Y-1983714D01*
X4857857Y-2098000D01*
X4900714Y-2098000D01*
X4929286Y-2112286D01*
X4943571Y-2126571D01*
X4957857Y-2155143D01*
X4957857Y-2226571D01*
X4943571Y-2255143D01*
X4929286Y-2269429D01*
X4900714Y-2283714D01*
X4815000Y-2283714D01*
X4786429Y-2269429D01*
X4772143Y-2255143D01*
X5315000Y-2283714D02*
X5315000Y-1983714D01*
X5443571Y-2283714D02*
X5443571Y-2126571D01*
X5429286Y-2098000D01*
X5400714Y-2083714D01*
X5357857Y-2083714D01*
X5329286Y-2098000D01*
X5315000Y-2112286D01*
X5629286Y-2283714D02*
X5600714Y-2269429D01*
X5586429Y-2255143D01*
X5572143Y-2226571D01*
X5572143Y-2140857D01*
X5586429Y-2112286D01*
X5600714Y-2098000D01*
X5629286Y-2083714D01*
X5672143Y-2083714D01*
X5700714Y-2098000D01*
X5715000Y-2112286D01*
X5729286Y-2140857D01*
X5729286Y-2226571D01*
X5715000Y-2255143D01*
X5700714Y-2269429D01*
X5672143Y-2283714D01*
X5629286Y-2283714D01*
X5900714Y-2283714D02*
X5872143Y-2269429D01*
X5857857Y-2240857D01*
X5857857Y-1983714D01*
X6129286Y-2269429D02*
X6100714Y-2283714D01*
X6043571Y-2283714D01*
X6015000Y-2269429D01*
X6000714Y-2240857D01*
X6000714Y-2126571D01*
X6015000Y-2098000D01*
X6043571Y-2083714D01*
X6100714Y-2083714D01*
X6129286Y-2098000D01*
X6143571Y-2126571D01*
X6143571Y-2155143D01*
X6000714Y-2183714D01*
X6257857Y-2269429D02*
X6286428Y-2283714D01*
X6343571Y-2283714D01*
X6372143Y-2269429D01*
X6386428Y-2240857D01*
X6386428Y-2226571D01*
X6372143Y-2198000D01*
X6343571Y-2183714D01*
X6300714Y-2183714D01*
X6272143Y-2169429D01*
X6257857Y-2140857D01*
X6257857Y-2126571D01*
X6272143Y-2098000D01*
X6300714Y-2083714D01*
X6343571Y-2083714D01*
X6372143Y-2098000D01*
X6486428Y-2398000D02*
X6500714Y-2383714D01*
X6529286Y-2340857D01*
X6543571Y-2312286D01*
X6557857Y-2269429D01*
X6572143Y-2198000D01*
X6572143Y-2140857D01*
X6557857Y-2069428D01*
X6543571Y-2026571D01*
X6529286Y-1998000D01*
X6500714Y-1955143D01*
X6486428Y-1940857D01*
X-65000Y-2609000D02*
X0Y-2544000D01*
X-65000Y-2479000D01*
X-130000Y-2544000D01*
X-65000Y-2609000D01*
X443571Y-2679714D02*
X272143Y-2679714D01*
X357857Y-2679714D02*
X357857Y-2379714D01*
X329286Y-2422571D01*
X300714Y-2451143D01*
X272143Y-2465429D01*
X572143Y-2651143D02*
X586429Y-2665429D01*
X572143Y-2679714D01*
X557857Y-2665429D01*
X572143Y-2651143D01*
X572143Y-2679714D01*
X686429Y-2379714D02*
X872143Y-2379714D01*
X772143Y-2494000D01*
X815000Y-2494000D01*
X843571Y-2508286D01*
X857857Y-2522571D01*
X872143Y-2551143D01*
X872143Y-2622571D01*
X857857Y-2651143D01*
X843571Y-2665429D01*
X815000Y-2679714D01*
X729286Y-2679714D01*
X700714Y-2665429D01*
X686429Y-2651143D01*
X1057857Y-2379714D02*
X1086429Y-2379714D01*
X1115000Y-2394000D01*
X1129286Y-2408286D01*
X1143571Y-2436857D01*
X1157857Y-2494000D01*
X1157857Y-2565429D01*
X1143571Y-2622571D01*
X1129286Y-2651143D01*
X1115000Y-2665429D01*
X1086429Y-2679714D01*
X1057857Y-2679714D01*
X1029286Y-2665429D01*
X1015000Y-2651143D01*
X1000714Y-2622571D01*
X986428Y-2565429D01*
X986428Y-2494000D01*
X1000714Y-2436857D01*
X1015000Y-2408286D01*
X1029286Y-2394000D01*
X1057857Y-2379714D01*
X1286429Y-2679714D02*
X1286429Y-2479714D01*
X1286429Y-2508286D02*
X1300714Y-2494000D01*
X1329286Y-2479714D01*
X1372143Y-2479714D01*
X1400714Y-2494000D01*
X1415000Y-2522571D01*
X1415000Y-2679714D01*
X1415000Y-2522571D02*
X1429286Y-2494000D01*
X1457857Y-2479714D01*
X1500714Y-2479714D01*
X1529286Y-2494000D01*
X1543571Y-2522571D01*
X1543571Y-2679714D01*
X1686428Y-2679714D02*
X1686428Y-2479714D01*
X1686428Y-2508286D02*
X1700714Y-2494000D01*
X1729286Y-2479714D01*
X1772143Y-2479714D01*
X1800714Y-2494000D01*
X1815000Y-2522571D01*
X1815000Y-2679714D01*
X1815000Y-2522571D02*
X1829286Y-2494000D01*
X1857857Y-2479714D01*
X1900714Y-2479714D01*
X1929286Y-2494000D01*
X1943571Y-2522571D01*
X1943571Y-2679714D01*
X2529286Y-2365429D02*
X2272143Y-2751143D01*
X2915000Y-2379714D02*
X2943571Y-2379714D01*
X2972143Y-2394000D01*
X2986428Y-2408286D01*
X3000714Y-2436857D01*
X3015000Y-2494000D01*
X3015000Y-2565429D01*
X3000714Y-2622571D01*
X2986428Y-2651143D01*
X2972143Y-2665429D01*
X2943571Y-2679714D01*
X2915000Y-2679714D01*
X2886428Y-2665429D01*
X2872143Y-2651143D01*
X2857857Y-2622571D01*
X2843571Y-2565429D01*
X2843571Y-2494000D01*
X2857857Y-2436857D01*
X2872143Y-2408286D01*
X2886428Y-2394000D01*
X2915000Y-2379714D01*
X3143571Y-2651143D02*
X3157857Y-2665429D01*
X3143571Y-2679714D01*
X3129286Y-2665429D01*
X3143571Y-2651143D01*
X3143571Y-2679714D01*
X3343571Y-2379714D02*
X3372143Y-2379714D01*
X3400714Y-2394000D01*
X3415000Y-2408286D01*
X3429286Y-2436857D01*
X3443571Y-2494000D01*
X3443571Y-2565429D01*
X3429286Y-2622571D01*
X3415000Y-2651143D01*
X3400714Y-2665429D01*
X3372143Y-2679714D01*
X3343571Y-2679714D01*
X3315000Y-2665429D01*
X3300714Y-2651143D01*
X3286428Y-2622571D01*
X3272143Y-2565429D01*
X3272143Y-2494000D01*
X3286428Y-2436857D01*
X3300714Y-2408286D01*
X3315000Y-2394000D01*
X3343571Y-2379714D01*
X3715000Y-2379714D02*
X3572143Y-2379714D01*
X3557857Y-2522571D01*
X3572143Y-2508286D01*
X3600714Y-2494000D01*
X3672143Y-2494000D01*
X3700714Y-2508286D01*
X3715000Y-2522571D01*
X3729286Y-2551143D01*
X3729286Y-2622571D01*
X3715000Y-2651143D01*
X3700714Y-2665429D01*
X3672143Y-2679714D01*
X3600714Y-2679714D01*
X3572143Y-2665429D01*
X3557857Y-2651143D01*
X4015000Y-2679714D02*
X3843571Y-2679714D01*
X3929286Y-2679714D02*
X3929286Y-2379714D01*
X3900714Y-2422571D01*
X3872143Y-2451143D01*
X3843571Y-2465429D01*
X4129286Y-2379714D02*
X4129286Y-2436857D01*
X4243571Y-2379714D02*
X4243571Y-2436857D01*
X4686429Y-2794000D02*
X4672143Y-2779714D01*
X4643571Y-2736857D01*
X4629286Y-2708286D01*
X4615000Y-2665429D01*
X4600714Y-2594000D01*
X4600714Y-2536857D01*
X4615000Y-2465429D01*
X4629286Y-2422571D01*
X4643571Y-2394000D01*
X4672143Y-2351143D01*
X4686429Y-2336857D01*
X4929286Y-2479714D02*
X4929286Y-2679714D01*
X4857857Y-2365429D02*
X4786429Y-2579714D01*
X4972143Y-2579714D01*
X5315000Y-2679714D02*
X5315000Y-2379714D01*
X5443571Y-2679714D02*
X5443571Y-2522571D01*
X5429286Y-2494000D01*
X5400714Y-2479714D01*
X5357857Y-2479714D01*
X5329286Y-2494000D01*
X5315000Y-2508286D01*
X5629286Y-2679714D02*
X5600714Y-2665429D01*
X5586429Y-2651143D01*
X5572143Y-2622571D01*
X5572143Y-2536857D01*
X5586429Y-2508286D01*
X5600714Y-2494000D01*
X5629286Y-2479714D01*
X5672143Y-2479714D01*
X5700714Y-2494000D01*
X5715000Y-2508286D01*
X5729286Y-2536857D01*
X5729286Y-2622571D01*
X5715000Y-2651143D01*
X5700714Y-2665429D01*
X5672143Y-2679714D01*
X5629286Y-2679714D01*
X5900714Y-2679714D02*
X5872143Y-2665429D01*
X5857857Y-2636857D01*
X5857857Y-2379714D01*
X6129286Y-2665429D02*
X6100714Y-2679714D01*
X6043571Y-2679714D01*
X6015000Y-2665429D01*
X6000714Y-2636857D01*
X6000714Y-2522571D01*
X6015000Y-2494000D01*
X6043571Y-2479714D01*
X6100714Y-2479714D01*
X6129286Y-2494000D01*
X6143571Y-2522571D01*
X6143571Y-2551143D01*
X6000714Y-2579714D01*
X6257857Y-2665429D02*
X6286428Y-2679714D01*
X6343571Y-2679714D01*
X6372143Y-2665429D01*
X6386428Y-2636857D01*
X6386428Y-2622571D01*
X6372143Y-2594000D01*
X6343571Y-2579714D01*
X6300714Y-2579714D01*
X6272143Y-2565429D01*
X6257857Y-2536857D01*
X6257857Y-2522571D01*
X6272143Y-2494000D01*
X6300714Y-2479714D01*
X6343571Y-2479714D01*
X6372143Y-2494000D01*
X6486428Y-2794000D02*
X6500714Y-2779714D01*
X6529286Y-2736857D01*
X6543571Y-2708286D01*
X6557857Y-2665429D01*
X6572143Y-2594000D01*
X6572143Y-2536857D01*
X6557857Y-2465429D01*
X6543571Y-2422571D01*
X6529286Y-2394000D01*
X6500714Y-2351143D01*
X6486428Y-2336857D01*
X-152000Y-2864000D02*
X0Y-3016000D01*
X0Y-2864000D02*
X-152000Y-3016000D01*
X0Y-2940000D02*
G75*
G03X0Y-2940000I-76000J0D01*
G01*
X443571Y-3075714D02*
X272143Y-3075714D01*
X357857Y-3075714D02*
X357857Y-2775714D01*
X329286Y-2818571D01*
X300714Y-2847143D01*
X272143Y-2861428D01*
X572143Y-3047143D02*
X586429Y-3061428D01*
X572143Y-3075714D01*
X557857Y-3061428D01*
X572143Y-3047143D01*
X572143Y-3075714D01*
X857857Y-2775714D02*
X715000Y-2775714D01*
X700714Y-2918571D01*
X715000Y-2904286D01*
X743571Y-2890000D01*
X815000Y-2890000D01*
X843571Y-2904286D01*
X857857Y-2918571D01*
X872143Y-2947143D01*
X872143Y-3018571D01*
X857857Y-3047143D01*
X843571Y-3061428D01*
X815000Y-3075714D01*
X743571Y-3075714D01*
X715000Y-3061428D01*
X700714Y-3047143D01*
X986428Y-2804286D02*
X1000714Y-2790000D01*
X1029286Y-2775714D01*
X1100714Y-2775714D01*
X1129286Y-2790000D01*
X1143571Y-2804286D01*
X1157857Y-2832857D01*
X1157857Y-2861428D01*
X1143571Y-2904286D01*
X972143Y-3075714D01*
X1157857Y-3075714D01*
X1286429Y-3075714D02*
X1286429Y-2875714D01*
X1286429Y-2904286D02*
X1300714Y-2890000D01*
X1329286Y-2875714D01*
X1372143Y-2875714D01*
X1400714Y-2890000D01*
X1415000Y-2918571D01*
X1415000Y-3075714D01*
X1415000Y-2918571D02*
X1429286Y-2890000D01*
X1457857Y-2875714D01*
X1500714Y-2875714D01*
X1529286Y-2890000D01*
X1543571Y-2918571D01*
X1543571Y-3075714D01*
X1686428Y-3075714D02*
X1686428Y-2875714D01*
X1686428Y-2904286D02*
X1700714Y-2890000D01*
X1729286Y-2875714D01*
X1772143Y-2875714D01*
X1800714Y-2890000D01*
X1815000Y-2918571D01*
X1815000Y-3075714D01*
X1815000Y-2918571D02*
X1829286Y-2890000D01*
X1857857Y-2875714D01*
X1900714Y-2875714D01*
X1929286Y-2890000D01*
X1943571Y-2918571D01*
X1943571Y-3075714D01*
X2529286Y-2761429D02*
X2272143Y-3147143D01*
X2915000Y-2775714D02*
X2943571Y-2775714D01*
X2972143Y-2790000D01*
X2986428Y-2804286D01*
X3000714Y-2832857D01*
X3015000Y-2890000D01*
X3015000Y-2961428D01*
X3000714Y-3018571D01*
X2986428Y-3047143D01*
X2972143Y-3061428D01*
X2943571Y-3075714D01*
X2915000Y-3075714D01*
X2886428Y-3061428D01*
X2872143Y-3047143D01*
X2857857Y-3018571D01*
X2843571Y-2961428D01*
X2843571Y-2890000D01*
X2857857Y-2832857D01*
X2872143Y-2804286D01*
X2886428Y-2790000D01*
X2915000Y-2775714D01*
X3143571Y-3047143D02*
X3157857Y-3061428D01*
X3143571Y-3075714D01*
X3129286Y-3061428D01*
X3143571Y-3047143D01*
X3143571Y-3075714D01*
X3343571Y-2775714D02*
X3372143Y-2775714D01*
X3400714Y-2790000D01*
X3415000Y-2804286D01*
X3429286Y-2832857D01*
X3443571Y-2890000D01*
X3443571Y-2961428D01*
X3429286Y-3018571D01*
X3415000Y-3047143D01*
X3400714Y-3061428D01*
X3372143Y-3075714D01*
X3343571Y-3075714D01*
X3315000Y-3061428D01*
X3300714Y-3047143D01*
X3286428Y-3018571D01*
X3272143Y-2961428D01*
X3272143Y-2890000D01*
X3286428Y-2832857D01*
X3300714Y-2804286D01*
X3315000Y-2790000D01*
X3343571Y-2775714D01*
X3700714Y-2775714D02*
X3643571Y-2775714D01*
X3615000Y-2790000D01*
X3600714Y-2804286D01*
X3572143Y-2847143D01*
X3557857Y-2904286D01*
X3557857Y-3018571D01*
X3572143Y-3047143D01*
X3586428Y-3061428D01*
X3615000Y-3075714D01*
X3672143Y-3075714D01*
X3700714Y-3061428D01*
X3715000Y-3047143D01*
X3729286Y-3018571D01*
X3729286Y-2947143D01*
X3715000Y-2918571D01*
X3700714Y-2904286D01*
X3672143Y-2890000D01*
X3615000Y-2890000D01*
X3586428Y-2904286D01*
X3572143Y-2918571D01*
X3557857Y-2947143D01*
X3915000Y-2775714D02*
X3943571Y-2775714D01*
X3972143Y-2790000D01*
X3986428Y-2804286D01*
X4000714Y-2832857D01*
X4015000Y-2890000D01*
X4015000Y-2961428D01*
X4000714Y-3018571D01*
X3986428Y-3047143D01*
X3972143Y-3061428D01*
X3943571Y-3075714D01*
X3915000Y-3075714D01*
X3886428Y-3061428D01*
X3872143Y-3047143D01*
X3857857Y-3018571D01*
X3843571Y-2961428D01*
X3843571Y-2890000D01*
X3857857Y-2832857D01*
X3872143Y-2804286D01*
X3886428Y-2790000D01*
X3915000Y-2775714D01*
X4129286Y-2775714D02*
X4129286Y-2832857D01*
X4243571Y-2775714D02*
X4243571Y-2832857D01*
X4686429Y-3190000D02*
X4672143Y-3175714D01*
X4643571Y-3132857D01*
X4629286Y-3104286D01*
X4615000Y-3061428D01*
X4600714Y-2990000D01*
X4600714Y-2932857D01*
X4615000Y-2861428D01*
X4629286Y-2818571D01*
X4643571Y-2790000D01*
X4672143Y-2747143D01*
X4686429Y-2732857D01*
X4786429Y-2804286D02*
X4800714Y-2790000D01*
X4829286Y-2775714D01*
X4900714Y-2775714D01*
X4929286Y-2790000D01*
X4943571Y-2804286D01*
X4957857Y-2832857D01*
X4957857Y-2861428D01*
X4943571Y-2904286D01*
X4772143Y-3075714D01*
X4957857Y-3075714D01*
X5315000Y-3075714D02*
X5315000Y-2775714D01*
X5443571Y-3075714D02*
X5443571Y-2918571D01*
X5429286Y-2890000D01*
X5400714Y-2875714D01*
X5357857Y-2875714D01*
X5329286Y-2890000D01*
X5315000Y-2904286D01*
X5629286Y-3075714D02*
X5600714Y-3061428D01*
X5586429Y-3047143D01*
X5572143Y-3018571D01*
X5572143Y-2932857D01*
X5586429Y-2904286D01*
X5600714Y-2890000D01*
X5629286Y-2875714D01*
X5672143Y-2875714D01*
X5700714Y-2890000D01*
X5715000Y-2904286D01*
X5729286Y-2932857D01*
X5729286Y-3018571D01*
X5715000Y-3047143D01*
X5700714Y-3061428D01*
X5672143Y-3075714D01*
X5629286Y-3075714D01*
X5900714Y-3075714D02*
X5872143Y-3061428D01*
X5857857Y-3032857D01*
X5857857Y-2775714D01*
X6129286Y-3061428D02*
X6100714Y-3075714D01*
X6043571Y-3075714D01*
X6015000Y-3061428D01*
X6000714Y-3032857D01*
X6000714Y-2918571D01*
X6015000Y-2890000D01*
X6043571Y-2875714D01*
X6100714Y-2875714D01*
X6129286Y-2890000D01*
X6143571Y-2918571D01*
X6143571Y-2947143D01*
X6000714Y-2975714D01*
X6257857Y-3061428D02*
X6286428Y-3075714D01*
X6343571Y-3075714D01*
X6372143Y-3061428D01*
X6386428Y-3032857D01*
X6386428Y-3018571D01*
X6372143Y-2990000D01*
X6343571Y-2975714D01*
X6300714Y-2975714D01*
X6272143Y-2961428D01*
X6257857Y-2932857D01*
X6257857Y-2918571D01*
X6272143Y-2890000D01*
X6300714Y-2875714D01*
X6343571Y-2875714D01*
X6372143Y-2890000D01*
X6486428Y-3190000D02*
X6500714Y-3175714D01*
X6529286Y-3132857D01*
X6543571Y-3104286D01*
X6557857Y-3061428D01*
X6572143Y-2990000D01*
X6572143Y-2932857D01*
X6557857Y-2861428D01*
X6543571Y-2818571D01*
X6529286Y-2790000D01*
X6500714Y-2747143D01*
X6486428Y-2732857D01*
X-180000Y-3246000D02*
X0Y-3426000D01*
X0Y-3246000D02*
X-180000Y-3426000D01*
X-90000Y-3246000D02*
X-90000Y-3426000D01*
X-180000Y-3336000D02*
X0Y-3336000D01*
X443571Y-3471714D02*
X272143Y-3471714D01*
X357857Y-3471714D02*
X357857Y-3171714D01*
X329286Y-3214571D01*
X300714Y-3243143D01*
X272143Y-3257428D01*
X572143Y-3443143D02*
X586429Y-3457428D01*
X572143Y-3471714D01*
X557857Y-3457428D01*
X572143Y-3443143D01*
X572143Y-3471714D01*
X757857Y-3300286D02*
X729286Y-3286000D01*
X715000Y-3271714D01*
X700714Y-3243143D01*
X700714Y-3228857D01*
X715000Y-3200286D01*
X729286Y-3186000D01*
X757857Y-3171714D01*
X815000Y-3171714D01*
X843571Y-3186000D01*
X857857Y-3200286D01*
X872143Y-3228857D01*
X872143Y-3243143D01*
X857857Y-3271714D01*
X843571Y-3286000D01*
X815000Y-3300286D01*
X757857Y-3300286D01*
X729286Y-3314571D01*
X715000Y-3328857D01*
X700714Y-3357428D01*
X700714Y-3414571D01*
X715000Y-3443143D01*
X729286Y-3457428D01*
X757857Y-3471714D01*
X815000Y-3471714D01*
X843571Y-3457428D01*
X857857Y-3443143D01*
X872143Y-3414571D01*
X872143Y-3357428D01*
X857857Y-3328857D01*
X843571Y-3314571D01*
X815000Y-3300286D01*
X1057857Y-3171714D02*
X1086429Y-3171714D01*
X1115000Y-3186000D01*
X1129286Y-3200286D01*
X1143571Y-3228857D01*
X1157857Y-3286000D01*
X1157857Y-3357428D01*
X1143571Y-3414571D01*
X1129286Y-3443143D01*
X1115000Y-3457428D01*
X1086429Y-3471714D01*
X1057857Y-3471714D01*
X1029286Y-3457428D01*
X1015000Y-3443143D01*
X1000714Y-3414571D01*
X986428Y-3357428D01*
X986428Y-3286000D01*
X1000714Y-3228857D01*
X1015000Y-3200286D01*
X1029286Y-3186000D01*
X1057857Y-3171714D01*
X1286429Y-3471714D02*
X1286429Y-3271714D01*
X1286429Y-3300286D02*
X1300714Y-3286000D01*
X1329286Y-3271714D01*
X1372143Y-3271714D01*
X1400714Y-3286000D01*
X1415000Y-3314571D01*
X1415000Y-3471714D01*
X1415000Y-3314571D02*
X1429286Y-3286000D01*
X1457857Y-3271714D01*
X1500714Y-3271714D01*
X1529286Y-3286000D01*
X1543571Y-3314571D01*
X1543571Y-3471714D01*
X1686428Y-3471714D02*
X1686428Y-3271714D01*
X1686428Y-3300286D02*
X1700714Y-3286000D01*
X1729286Y-3271714D01*
X1772143Y-3271714D01*
X1800714Y-3286000D01*
X1815000Y-3314571D01*
X1815000Y-3471714D01*
X1815000Y-3314571D02*
X1829286Y-3286000D01*
X1857857Y-3271714D01*
X1900714Y-3271714D01*
X1929286Y-3286000D01*
X1943571Y-3314571D01*
X1943571Y-3471714D01*
X2529286Y-3157428D02*
X2272143Y-3543143D01*
X2915000Y-3171714D02*
X2943571Y-3171714D01*
X2972143Y-3186000D01*
X2986428Y-3200286D01*
X3000714Y-3228857D01*
X3015000Y-3286000D01*
X3015000Y-3357428D01*
X3000714Y-3414571D01*
X2986428Y-3443143D01*
X2972143Y-3457428D01*
X2943571Y-3471714D01*
X2915000Y-3471714D01*
X2886428Y-3457428D01*
X2872143Y-3443143D01*
X2857857Y-3414571D01*
X2843571Y-3357428D01*
X2843571Y-3286000D01*
X2857857Y-3228857D01*
X2872143Y-3200286D01*
X2886428Y-3186000D01*
X2915000Y-3171714D01*
X3143571Y-3443143D02*
X3157857Y-3457428D01*
X3143571Y-3471714D01*
X3129286Y-3457428D01*
X3143571Y-3443143D01*
X3143571Y-3471714D01*
X3343571Y-3171714D02*
X3372143Y-3171714D01*
X3400714Y-3186000D01*
X3415000Y-3200286D01*
X3429286Y-3228857D01*
X3443571Y-3286000D01*
X3443571Y-3357428D01*
X3429286Y-3414571D01*
X3415000Y-3443143D01*
X3400714Y-3457428D01*
X3372143Y-3471714D01*
X3343571Y-3471714D01*
X3315000Y-3457428D01*
X3300714Y-3443143D01*
X3286428Y-3414571D01*
X3272143Y-3357428D01*
X3272143Y-3286000D01*
X3286428Y-3228857D01*
X3300714Y-3200286D01*
X3315000Y-3186000D01*
X3343571Y-3171714D01*
X3543571Y-3171714D02*
X3743571Y-3171714D01*
X3615000Y-3471714D01*
X4015000Y-3471714D02*
X3843571Y-3471714D01*
X3929286Y-3471714D02*
X3929286Y-3171714D01*
X3900714Y-3214571D01*
X3872143Y-3243143D01*
X3843571Y-3257428D01*
X4129286Y-3171714D02*
X4129286Y-3228857D01*
X4243571Y-3171714D02*
X4243571Y-3228857D01*
X4686429Y-3586000D02*
X4672143Y-3571714D01*
X4643571Y-3528857D01*
X4629286Y-3500286D01*
X4615000Y-3457428D01*
X4600714Y-3386000D01*
X4600714Y-3328857D01*
X4615000Y-3257428D01*
X4629286Y-3214571D01*
X4643571Y-3186000D01*
X4672143Y-3143143D01*
X4686429Y-3128857D01*
X4929286Y-3171714D02*
X4872143Y-3171714D01*
X4843571Y-3186000D01*
X4829286Y-3200286D01*
X4800714Y-3243143D01*
X4786429Y-3300286D01*
X4786429Y-3414571D01*
X4800714Y-3443143D01*
X4815000Y-3457428D01*
X4843571Y-3471714D01*
X4900714Y-3471714D01*
X4929286Y-3457428D01*
X4943571Y-3443143D01*
X4957857Y-3414571D01*
X4957857Y-3343143D01*
X4943571Y-3314571D01*
X4929286Y-3300286D01*
X4900714Y-3286000D01*
X4843571Y-3286000D01*
X4815000Y-3300286D01*
X4800714Y-3314571D01*
X4786429Y-3343143D01*
X5315000Y-3471714D02*
X5315000Y-3171714D01*
X5443571Y-3471714D02*
X5443571Y-3314571D01*
X5429286Y-3286000D01*
X5400714Y-3271714D01*
X5357857Y-3271714D01*
X5329286Y-3286000D01*
X5315000Y-3300286D01*
X5629286Y-3471714D02*
X5600714Y-3457428D01*
X5586429Y-3443143D01*
X5572143Y-3414571D01*
X5572143Y-3328857D01*
X5586429Y-3300286D01*
X5600714Y-3286000D01*
X5629286Y-3271714D01*
X5672143Y-3271714D01*
X5700714Y-3286000D01*
X5715000Y-3300286D01*
X5729286Y-3328857D01*
X5729286Y-3414571D01*
X5715000Y-3443143D01*
X5700714Y-3457428D01*
X5672143Y-3471714D01*
X5629286Y-3471714D01*
X5900714Y-3471714D02*
X5872143Y-3457428D01*
X5857857Y-3428857D01*
X5857857Y-3171714D01*
X6129286Y-3457428D02*
X6100714Y-3471714D01*
X6043571Y-3471714D01*
X6015000Y-3457428D01*
X6000714Y-3428857D01*
X6000714Y-3314571D01*
X6015000Y-3286000D01*
X6043571Y-3271714D01*
X6100714Y-3271714D01*
X6129286Y-3286000D01*
X6143571Y-3314571D01*
X6143571Y-3343143D01*
X6000714Y-3371714D01*
X6257857Y-3457428D02*
X6286428Y-3471714D01*
X6343571Y-3471714D01*
X6372143Y-3457428D01*
X6386428Y-3428857D01*
X6386428Y-3414571D01*
X6372143Y-3386000D01*
X6343571Y-3371714D01*
X6300714Y-3371714D01*
X6272143Y-3357428D01*
X6257857Y-3328857D01*
X6257857Y-3314571D01*
X6272143Y-3286000D01*
X6300714Y-3271714D01*
X6343571Y-3271714D01*
X6372143Y-3286000D01*
X6486428Y-3586000D02*
X6500714Y-3571714D01*
X6529286Y-3528857D01*
X6543571Y-3500286D01*
X6557857Y-3457428D01*
X6572143Y-3386000D01*
X6572143Y-3328857D01*
X6557857Y-3257428D01*
X6543571Y-3214571D01*
X6529286Y-3186000D01*
X6500714Y-3143143D01*
X6486428Y-3128857D01*
X-350000Y-3557000D02*
X0Y-3907000D01*
X0Y-3557000D02*
X-350000Y-3907000D01*
X-51255Y-3855745D02*
X-51255Y-3608255D01*
X-298745Y-3608255D01*
X-298745Y-3855745D01*
X-51255Y-3855745D01*
X257857Y-3567714D02*
X443571Y-3567714D01*
X343571Y-3682000D01*
X386428Y-3682000D01*
X415000Y-3696286D01*
X429286Y-3710571D01*
X443571Y-3739143D01*
X443571Y-3810571D01*
X429286Y-3839143D01*
X415000Y-3853428D01*
X386428Y-3867714D01*
X300714Y-3867714D01*
X272143Y-3853428D01*
X257857Y-3839143D01*
X572143Y-3839143D02*
X586429Y-3853428D01*
X572143Y-3867714D01*
X557857Y-3853428D01*
X572143Y-3839143D01*
X572143Y-3867714D01*
X857857Y-3567714D02*
X715000Y-3567714D01*
X700714Y-3710571D01*
X715000Y-3696286D01*
X743571Y-3682000D01*
X815000Y-3682000D01*
X843571Y-3696286D01*
X857857Y-3710571D01*
X872143Y-3739143D01*
X872143Y-3810571D01*
X857857Y-3839143D01*
X843571Y-3853428D01*
X815000Y-3867714D01*
X743571Y-3867714D01*
X715000Y-3853428D01*
X700714Y-3839143D01*
X1057857Y-3567714D02*
X1086429Y-3567714D01*
X1115000Y-3582000D01*
X1129286Y-3596286D01*
X1143571Y-3624857D01*
X1157857Y-3682000D01*
X1157857Y-3753428D01*
X1143571Y-3810571D01*
X1129286Y-3839143D01*
X1115000Y-3853428D01*
X1086429Y-3867714D01*
X1057857Y-3867714D01*
X1029286Y-3853428D01*
X1015000Y-3839143D01*
X1000714Y-3810571D01*
X986428Y-3753428D01*
X986428Y-3682000D01*
X1000714Y-3624857D01*
X1015000Y-3596286D01*
X1029286Y-3582000D01*
X1057857Y-3567714D01*
X1286429Y-3867714D02*
X1286429Y-3667714D01*
X1286429Y-3696286D02*
X1300714Y-3682000D01*
X1329286Y-3667714D01*
X1372143Y-3667714D01*
X1400714Y-3682000D01*
X1415000Y-3710571D01*
X1415000Y-3867714D01*
X1415000Y-3710571D02*
X1429286Y-3682000D01*
X1457857Y-3667714D01*
X1500714Y-3667714D01*
X1529286Y-3682000D01*
X1543571Y-3710571D01*
X1543571Y-3867714D01*
X1686428Y-3867714D02*
X1686428Y-3667714D01*
X1686428Y-3696286D02*
X1700714Y-3682000D01*
X1729286Y-3667714D01*
X1772143Y-3667714D01*
X1800714Y-3682000D01*
X1815000Y-3710571D01*
X1815000Y-3867714D01*
X1815000Y-3710571D02*
X1829286Y-3682000D01*
X1857857Y-3667714D01*
X1900714Y-3667714D01*
X1929286Y-3682000D01*
X1943571Y-3710571D01*
X1943571Y-3867714D01*
X2529286Y-3553428D02*
X2272143Y-3939143D01*
X2915000Y-3567714D02*
X2943571Y-3567714D01*
X2972143Y-3582000D01*
X2986428Y-3596286D01*
X3000714Y-3624857D01*
X3015000Y-3682000D01*
X3015000Y-3753428D01*
X3000714Y-3810571D01*
X2986428Y-3839143D01*
X2972143Y-3853428D01*
X2943571Y-3867714D01*
X2915000Y-3867714D01*
X2886428Y-3853428D01*
X2872143Y-3839143D01*
X2857857Y-3810571D01*
X2843571Y-3753428D01*
X2843571Y-3682000D01*
X2857857Y-3624857D01*
X2872143Y-3596286D01*
X2886428Y-3582000D01*
X2915000Y-3567714D01*
X3143571Y-3839143D02*
X3157857Y-3853428D01*
X3143571Y-3867714D01*
X3129286Y-3853428D01*
X3143571Y-3839143D01*
X3143571Y-3867714D01*
X3443571Y-3867714D02*
X3272143Y-3867714D01*
X3357857Y-3867714D02*
X3357857Y-3567714D01*
X3329286Y-3610571D01*
X3300714Y-3639143D01*
X3272143Y-3653428D01*
X3543571Y-3567714D02*
X3729286Y-3567714D01*
X3629286Y-3682000D01*
X3672143Y-3682000D01*
X3700714Y-3696286D01*
X3715000Y-3710571D01*
X3729286Y-3739143D01*
X3729286Y-3810571D01*
X3715000Y-3839143D01*
X3700714Y-3853428D01*
X3672143Y-3867714D01*
X3586428Y-3867714D01*
X3557857Y-3853428D01*
X3543571Y-3839143D01*
X3900714Y-3696286D02*
X3872143Y-3682000D01*
X3857857Y-3667714D01*
X3843571Y-3639143D01*
X3843571Y-3624857D01*
X3857857Y-3596286D01*
X3872143Y-3582000D01*
X3900714Y-3567714D01*
X3957857Y-3567714D01*
X3986428Y-3582000D01*
X4000714Y-3596286D01*
X4015000Y-3624857D01*
X4015000Y-3639143D01*
X4000714Y-3667714D01*
X3986428Y-3682000D01*
X3957857Y-3696286D01*
X3900714Y-3696286D01*
X3872143Y-3710571D01*
X3857857Y-3724857D01*
X3843571Y-3753428D01*
X3843571Y-3810571D01*
X3857857Y-3839143D01*
X3872143Y-3853428D01*
X3900714Y-3867714D01*
X3957857Y-3867714D01*
X3986428Y-3853428D01*
X4000714Y-3839143D01*
X4015000Y-3810571D01*
X4015000Y-3753428D01*
X4000714Y-3724857D01*
X3986428Y-3710571D01*
X3957857Y-3696286D01*
X4129286Y-3567714D02*
X4129286Y-3624857D01*
X4243571Y-3567714D02*
X4243571Y-3624857D01*
X4686429Y-3982000D02*
X4672143Y-3967714D01*
X4643571Y-3924857D01*
X4629286Y-3896286D01*
X4615000Y-3853428D01*
X4600714Y-3782000D01*
X4600714Y-3724857D01*
X4615000Y-3653428D01*
X4629286Y-3610571D01*
X4643571Y-3582000D01*
X4672143Y-3539143D01*
X4686429Y-3524857D01*
X4929286Y-3667714D02*
X4929286Y-3867714D01*
X4857857Y-3553428D02*
X4786429Y-3767714D01*
X4972143Y-3767714D01*
X5315000Y-3867714D02*
X5315000Y-3567714D01*
X5443571Y-3867714D02*
X5443571Y-3710571D01*
X5429286Y-3682000D01*
X5400714Y-3667714D01*
X5357857Y-3667714D01*
X5329286Y-3682000D01*
X5315000Y-3696286D01*
X5629286Y-3867714D02*
X5600714Y-3853428D01*
X5586429Y-3839143D01*
X5572143Y-3810571D01*
X5572143Y-3724857D01*
X5586429Y-3696286D01*
X5600714Y-3682000D01*
X5629286Y-3667714D01*
X5672143Y-3667714D01*
X5700714Y-3682000D01*
X5715000Y-3696286D01*
X5729286Y-3724857D01*
X5729286Y-3810571D01*
X5715000Y-3839143D01*
X5700714Y-3853428D01*
X5672143Y-3867714D01*
X5629286Y-3867714D01*
X5900714Y-3867714D02*
X5872143Y-3853428D01*
X5857857Y-3824857D01*
X5857857Y-3567714D01*
X6129286Y-3853428D02*
X6100714Y-3867714D01*
X6043571Y-3867714D01*
X6015000Y-3853428D01*
X6000714Y-3824857D01*
X6000714Y-3710571D01*
X6015000Y-3682000D01*
X6043571Y-3667714D01*
X6100714Y-3667714D01*
X6129286Y-3682000D01*
X6143571Y-3710571D01*
X6143571Y-3739143D01*
X6000714Y-3767714D01*
X6257857Y-3853428D02*
X6286428Y-3867714D01*
X6343571Y-3867714D01*
X6372143Y-3853428D01*
X6386428Y-3824857D01*
X6386428Y-3810571D01*
X6372143Y-3782000D01*
X6343571Y-3767714D01*
X6300714Y-3767714D01*
X6272143Y-3753428D01*
X6257857Y-3724857D01*
X6257857Y-3710571D01*
X6272143Y-3682000D01*
X6300714Y-3667714D01*
X6343571Y-3667714D01*
X6372143Y-3682000D01*
X6486428Y-3982000D02*
X6500714Y-3967714D01*
X6529286Y-3924857D01*
X6543571Y-3896286D01*
X6557857Y-3853428D01*
X6572143Y-3782000D01*
X6572143Y-3724857D01*
X6557857Y-3653428D01*
X6543571Y-3610571D01*
X6529286Y-3582000D01*
X6500714Y-3539143D01*
X6486428Y-3524857D01*
M02*
