M48
; DRILL file {KiCad 5.1.5+dfsg1-2build2} date wto, 14 cze 2022, 14:00:27
; FORMAT={-:-/ absolute / inch / decimal}
; #@! TF.CreationDate,2022-06-14T14:00:27+02:00
; #@! TF.GenerationSoftware,Kicad,Pcbnew,5.1.5+dfsg1-2build2
; #@! TF.FileFunction,Plated,1,2,PTH
FMAT,2
INCH
T1C0.0118
T2C0.0295
T3C0.0394
T4C0.0433
T5C0.0512
T6C0.0598
T7C0.0709
T8C0.1378
%
G90
G05
T1
X5.8268Y-2.4409
X5.8268Y-2.8346
X5.8268Y-3.2283
X5.8268Y-3.622
X5.8268Y-4.0157
X5.8268Y-4.4094
X5.8268Y-4.8031
X5.8268Y-5.1969
X5.8268Y-5.5906
X5.8268Y-5.9843
X5.8268Y-6.378
X6.4961Y-3.189
X6.4961Y-3.2283
X6.4961Y-3.2677
X6.4961Y-4.0157
X6.4961Y-4.0551
X6.4961Y-4.0945
X6.4961Y-4.8425
X6.4961Y-4.8819
X6.4961Y-4.9213
X6.4961Y-5.7087
X6.4961Y-5.748
X6.4961Y-5.7874
X6.9008Y-2.9837
X7.2708Y-3.3637
X7.2708Y-4.1931
X7.2708Y-5.0424
X7.2902Y-5.8718
X7.4016Y-2.9921
X7.4016Y-3.41
X7.4016Y-3.8583
X7.4016Y-4.24
X7.4016Y-4.685
X7.4016Y-5.0787
X7.4016Y-5.5118
X7.4016Y-5.9055
X7.4725Y-3.115
X7.4725Y-3.2725
X7.4725Y-3.955
X7.4725Y-4.11
X7.4725Y-4.795
X7.4725Y-4.95
X7.4726Y-4.8724
X7.4737Y-3.1937
X7.4744Y-4.0331
X7.4875Y-5.635
X7.4875Y-5.7125
X7.4875Y-5.7875
X7.5763Y-3.1937
X7.5769Y-4.0331
X7.5774Y-4.8701
X7.5775Y-3.115
X7.5775Y-3.2725
X7.5775Y-3.955
X7.5775Y-4.11
X7.5775Y-4.795
X7.5775Y-4.95
X7.5925Y-5.635
X7.5925Y-5.7125
X7.5925Y-5.7875
X9.1732Y-2.4409
X9.1732Y-2.8346
X9.1732Y-3.2283
X9.1732Y-3.622
X9.1732Y-4.0157
X9.1732Y-4.4094
X9.1732Y-4.8031
X9.1732Y-5.1969
X9.1732Y-5.5906
X9.1732Y-5.9843
X9.1732Y-6.378
T2
X5.9Y-3.71
X5.95Y-3.71
X6.0Y-3.71
X5.9Y-4.55
X5.95Y-4.55
X6.0Y-4.55
X5.9052Y-2.8643
X5.9552Y-2.8643
X6.0052Y-2.8643
X5.9052Y-3.4643
X5.9552Y-3.4643
X6.0052Y-3.4643
X5.9Y-5.15
X5.95Y-5.15
X6.0Y-5.15
X5.9Y-6.0
X5.95Y-6.0
X6.0Y-6.0
X5.9Y-5.4
X5.95Y-5.4
X6.0Y-5.4
X5.9Y-4.31
X5.95Y-4.31
X6.0Y-4.31
T3
X8.35Y-2.65
X8.45Y-2.65
X8.6Y-2.65
X8.7Y-2.65
T4
X7.4Y-2.5
X7.5Y-2.5
X7.6Y-2.5
T5
X6.3066Y-2.55
X6.5035Y-2.55
X6.9365Y-2.55
X7.1334Y-2.55
T6
X7.95Y-2.5
X8.15Y-2.5
T7
X6.1811Y-3.1496
X9.0551Y-3.1496
X6.1811Y-4.8425
X9.0551Y-4.8425
X6.1811Y-3.9961
X9.0551Y-3.9961
T8
X9.0Y-2.5
X9.0Y-6.3
X6.0Y-2.5
X6.0Y-6.3
T0
M30
