G04 #@! TF.GenerationSoftware,KiCad,Pcbnew,5.1.5+dfsg1-2build2*
G04 #@! TF.CreationDate,2022-05-23T14:10:05+02:00*
G04 #@! TF.ProjectId,wy__cznik zmierzchowy wersja II,77794205-637a-46e6-996b-207a6d696572,rev?*
G04 #@! TF.SameCoordinates,Original*
G04 #@! TF.FileFunction,Copper,L1,Top*
G04 #@! TF.FilePolarity,Positive*
%FSLAX46Y46*%
G04 Gerber Fmt 4.6, Leading zero omitted, Abs format (unit mm)*
G04 Created by KiCad (PCBNEW 5.1.5+dfsg1-2build2) date 2022-05-23 14:10:05*
%MOMM*%
%LPD*%
G04 APERTURE LIST*
%ADD10R,2.000000X1.600000*%
%ADD11C,1.250000*%
%ADD12R,1.600000X1.600000*%
%ADD13C,1.600000*%
%ADD14C,0.100000*%
%ADD15R,3.300000X1.700000*%
%ADD16R,1.700000X1.200000*%
%ADD17O,1.700000X1.200000*%
%ADD18C,1.300000*%
%ADD19O,1.300000X1.300000*%
%ADD20R,1.700000X2.000000*%
%ADD21R,2.000000X1.700000*%
%ADD22C,1.500000*%
%ADD23R,2.550000X0.700000*%
%ADD24R,2.500000X0.700000*%
%ADD25O,0.900000X1.500000*%
%ADD26R,0.900000X1.500000*%
%ADD27R,3.000000X3.000000*%
%ADD28C,3.000000*%
%ADD29R,1.800000X1.800000*%
%ADD30O,1.800000X1.800000*%
%ADD31R,12.000000X1.500000*%
%ADD32C,2.000000*%
%ADD33C,4.064000*%
%ADD34C,0.800000*%
%ADD35C,0.300000*%
%ADD36C,1.500000*%
%ADD37C,1.700000*%
%ADD38C,2.000000*%
%ADD39C,0.254000*%
G04 APERTURE END LIST*
D10*
X50641000Y-22860000D03*
X46641000Y-22860000D03*
D11*
X57150000Y-23114000D03*
X57150000Y-25614000D03*
D12*
X45212000Y-27051000D03*
D13*
X47712000Y-27051000D03*
D11*
X45466000Y-30988000D03*
X45466000Y-33488000D03*
X51689000Y-29337000D03*
X50632454Y-27071231D03*
X52705000Y-25654000D03*
X52705000Y-23154000D03*
D12*
X57150000Y-31369000D03*
D13*
X54650000Y-31369000D03*
D11*
X47200000Y-20800000D03*
X47200000Y-18300000D03*
D12*
X44450000Y-19050000D03*
D13*
X44450000Y-16550000D03*
D11*
X50038000Y-15367000D03*
X47538000Y-15367000D03*
G04 #@! TA.AperFunction,SMDPad,CuDef*
D14*
G36*
X42927000Y-24123000D02*
G01*
X42927000Y-26423000D01*
X39327000Y-25823000D01*
X39327000Y-24723000D01*
X42927000Y-24123000D01*
G37*
G04 #@! TD.AperFunction*
G04 #@! TA.AperFunction,SMDPad,CuDef*
G36*
X33527000Y-26423000D02*
G01*
X33527000Y-24123000D01*
X37127000Y-24723000D01*
X37127000Y-25823000D01*
X33527000Y-26423000D01*
G37*
G04 #@! TD.AperFunction*
D15*
X35350000Y-33528000D03*
X40850000Y-33528000D03*
D16*
X73000000Y-21000000D03*
D17*
X73000000Y-19000000D03*
D18*
X61976000Y-35306000D03*
D19*
X51816000Y-35306000D03*
D20*
X54610000Y-27273000D03*
X54610000Y-23273000D03*
D21*
X44000000Y-35600000D03*
X48000000Y-35600000D03*
D22*
X24000000Y-20000000D03*
X21500000Y-22500000D03*
X21500000Y-17500000D03*
D23*
X57023000Y-21209000D03*
X57023000Y-19939000D03*
X57023000Y-18669000D03*
D24*
X57023000Y-17399000D03*
D23*
X50673000Y-17399000D03*
X50673000Y-18669000D03*
X50673000Y-19939000D03*
X50673000Y-21209000D03*
D25*
X49800000Y-33500000D03*
X48514000Y-32512000D03*
D26*
X51054000Y-32512000D03*
D27*
X21000000Y-31000000D03*
D28*
X21000000Y-36080000D03*
D27*
X76000000Y-36000000D03*
D28*
X76000000Y-30920000D03*
D29*
X35687000Y-35941000D03*
D30*
X38227000Y-35941000D03*
X40767000Y-35941000D03*
D16*
X60813000Y-28852000D03*
D17*
X60813000Y-26852000D03*
X60813000Y-24852000D03*
X60813000Y-22852000D03*
X60813000Y-20852000D03*
X60813000Y-18852000D03*
D21*
X36100000Y-30480000D03*
X40100000Y-30480000D03*
D31*
X38227000Y-37973000D03*
D32*
X67818000Y-19558000D03*
X67818000Y-17018000D03*
X65900000Y-34800000D03*
X65900000Y-32260000D03*
X28900000Y-34200000D03*
X28900000Y-31660000D03*
D33*
X29000000Y-26000000D03*
X68000000Y-26000000D03*
D34*
X77470000Y-20574000D03*
X33890000Y-15310000D03*
X25000000Y-17000000D03*
X40000000Y-19200000D03*
X54102000Y-18900000D03*
X56400000Y-35000000D03*
X31700000Y-29600000D03*
X31700000Y-34000000D03*
X53340000Y-21082000D03*
X49276000Y-29337000D03*
X42100000Y-15500000D03*
X55372000Y-18669000D03*
D35*
X20070000Y-14380000D02*
X20080000Y-14370000D01*
X20040000Y-14380000D02*
X19980000Y-14380000D01*
X20050000Y-14370000D02*
X20040000Y-14380000D01*
X20140000Y-14370000D02*
X20050000Y-14370000D01*
X20160000Y-14350000D02*
X20140000Y-14370000D01*
X20200000Y-14350000D02*
X20160000Y-14350000D01*
X20290000Y-14350000D02*
X20200000Y-14350000D01*
X20340000Y-14400000D02*
X20290000Y-14350000D01*
X20390000Y-14400000D02*
X20340000Y-14400000D01*
X20440000Y-14450000D02*
X20390000Y-14400000D01*
X20470000Y-14450000D02*
X20440000Y-14450000D01*
X20530000Y-14510000D02*
X20470000Y-14450000D01*
X20540000Y-14510000D02*
X20530000Y-14510000D01*
X20580000Y-14550000D02*
X20540000Y-14510000D01*
X20590000Y-14550000D02*
X20580000Y-14550000D01*
X20630000Y-14590000D02*
X20590000Y-14550000D01*
X20630000Y-14600000D02*
X20630000Y-14590000D01*
X20690000Y-14660000D02*
X20630000Y-14600000D01*
X20690000Y-14700000D02*
X20690000Y-14660000D01*
X20710000Y-14720000D02*
X20690000Y-14700000D01*
X20710000Y-14780000D02*
X20710000Y-14720000D01*
X20730000Y-14800000D02*
X20710000Y-14780000D01*
X20730000Y-14930000D02*
X20730000Y-14800000D01*
X20760000Y-14960000D02*
X20730000Y-14930000D01*
X20760000Y-14990000D02*
X20760000Y-14960000D01*
X20770000Y-15000000D02*
X20760000Y-14990000D01*
X20770000Y-15050000D02*
X20770000Y-15000000D01*
X20730000Y-15090000D02*
X20770000Y-15050000D01*
X20730000Y-15150000D02*
X20730000Y-15090000D01*
X20700000Y-15180000D02*
X20730000Y-15150000D01*
X20700000Y-15260000D02*
X20700000Y-15180000D01*
X20660000Y-15300000D02*
X20700000Y-15260000D01*
X20660000Y-15310000D02*
X20660000Y-15300000D01*
X20610000Y-15360000D02*
X20660000Y-15310000D01*
X20610000Y-15370000D02*
X20610000Y-15360000D01*
X20550000Y-15430000D02*
X20610000Y-15370000D01*
X20490000Y-15430000D02*
X20550000Y-15430000D01*
X20440000Y-15480000D02*
X20490000Y-15430000D01*
X20400000Y-15480000D02*
X20440000Y-15480000D01*
X20360000Y-15520000D02*
X20400000Y-15480000D01*
X20300000Y-15520000D02*
X20360000Y-15520000D01*
X20280000Y-15540000D02*
X20300000Y-15520000D01*
X20210000Y-15540000D02*
X20280000Y-15540000D01*
X20200000Y-15550000D02*
X20210000Y-15540000D01*
X20140000Y-15550000D02*
X20200000Y-15550000D01*
X20110000Y-15550000D02*
X20140000Y-15550000D01*
X20040000Y-15550000D02*
X20110000Y-15550000D01*
X20030000Y-15540000D02*
X20040000Y-15550000D01*
X19970000Y-15540000D02*
X20030000Y-15540000D01*
X19940000Y-15510000D02*
X19970000Y-15540000D01*
X19890000Y-15510000D02*
X19940000Y-15510000D01*
X19870000Y-15490000D02*
X19890000Y-15510000D01*
X19840000Y-15490000D02*
X19870000Y-15490000D01*
X19730000Y-15380000D02*
X19840000Y-15490000D01*
X19730000Y-15360000D02*
X19730000Y-15380000D01*
X19670000Y-15300000D02*
X19730000Y-15360000D01*
X19670000Y-15290000D02*
X19670000Y-15300000D01*
X19620000Y-15240000D02*
X19670000Y-15290000D01*
X19620000Y-15200000D02*
X19620000Y-15240000D01*
X19590000Y-15170000D02*
X19620000Y-15200000D01*
X19590000Y-15130000D02*
X19590000Y-15170000D01*
X19560000Y-15100000D02*
X19590000Y-15130000D01*
X19560000Y-15020000D02*
X19560000Y-15100000D01*
X19550000Y-15010000D02*
X19560000Y-15020000D01*
X19550000Y-14950000D02*
X19550000Y-15010000D01*
X19560000Y-14940000D02*
X19550000Y-14950000D01*
X19560000Y-14830000D02*
X19560000Y-14940000D01*
X19590000Y-14800000D02*
X19560000Y-14830000D01*
X19590000Y-14730000D02*
X19590000Y-14800000D01*
X19620000Y-14700000D02*
X19590000Y-14730000D01*
X19620000Y-14660000D02*
X19620000Y-14700000D01*
X19650000Y-14630000D02*
X19620000Y-14660000D01*
X19650000Y-14600000D02*
X19650000Y-14630000D01*
X19730000Y-14520000D02*
X19650000Y-14600000D01*
X19730000Y-14510000D02*
X19730000Y-14520000D01*
X19780000Y-14460000D02*
X19730000Y-14510000D01*
X19820000Y-14460000D02*
X19780000Y-14460000D01*
X19890000Y-14390000D02*
X19820000Y-14460000D01*
X19990000Y-14390000D02*
X19890000Y-14390000D01*
X20010000Y-14370000D02*
X19990000Y-14390000D01*
X20080000Y-14370000D02*
X20010000Y-14370000D01*
X20190000Y-24900000D02*
X20180000Y-24890000D01*
X20180000Y-24890000D02*
X20180000Y-24650000D01*
X19470000Y-26520000D02*
X19260000Y-26730000D01*
X19260000Y-26730000D02*
X19250000Y-26730000D01*
X27735000Y-20635000D02*
X27765000Y-20665000D01*
X27765000Y-20665000D02*
X27775000Y-20665000D01*
X26465000Y-19155000D02*
X26425000Y-19115000D01*
X26440000Y-20580000D02*
X26420000Y-20600000D01*
X26420000Y-20600000D02*
X26400000Y-20600000D01*
X27820000Y-19210000D02*
X27880000Y-19150000D01*
X28100000Y-19950000D02*
X28160000Y-19950000D01*
X26200000Y-19890000D02*
X26190000Y-19900000D01*
X26190000Y-19900000D02*
X26130000Y-19900000D01*
X27120000Y-20870000D02*
X27120000Y-20980000D01*
X27140000Y-18890000D02*
X27140000Y-18810000D01*
X27060000Y-19310000D02*
X26990000Y-19310000D01*
X26990000Y-19310000D02*
X26970000Y-19330000D01*
X26970000Y-19330000D02*
X26870000Y-19330000D01*
X26870000Y-19330000D02*
X26800000Y-19400000D01*
X26800000Y-19400000D02*
X26760000Y-19400000D01*
X26760000Y-19400000D02*
X26710000Y-19450000D01*
X26710000Y-19450000D02*
X26710000Y-19460000D01*
X26710000Y-19460000D02*
X26630000Y-19540000D01*
X26630000Y-19540000D02*
X26630000Y-19570000D01*
X26630000Y-19570000D02*
X26600000Y-19600000D01*
X26600000Y-19600000D02*
X26600000Y-19640000D01*
X26600000Y-19640000D02*
X26570000Y-19670000D01*
X26570000Y-19670000D02*
X26570000Y-19740000D01*
X26570000Y-19740000D02*
X26540000Y-19770000D01*
X26540000Y-19770000D02*
X26540000Y-19880000D01*
X26540000Y-19880000D02*
X26530000Y-19890000D01*
X26530000Y-19890000D02*
X26530000Y-19950000D01*
X26530000Y-19950000D02*
X26540000Y-19960000D01*
X26540000Y-19960000D02*
X26540000Y-20040000D01*
X26540000Y-20040000D02*
X26570000Y-20070000D01*
X26570000Y-20070000D02*
X26570000Y-20110000D01*
X26570000Y-20110000D02*
X26600000Y-20140000D01*
X26600000Y-20140000D02*
X26600000Y-20180000D01*
X26600000Y-20180000D02*
X26650000Y-20230000D01*
X26650000Y-20230000D02*
X26650000Y-20240000D01*
X26650000Y-20240000D02*
X26710000Y-20300000D01*
X26710000Y-20300000D02*
X26710000Y-20320000D01*
X26710000Y-20320000D02*
X26820000Y-20430000D01*
X26820000Y-20430000D02*
X26850000Y-20430000D01*
X26850000Y-20430000D02*
X26870000Y-20450000D01*
X26870000Y-20450000D02*
X26920000Y-20450000D01*
X26920000Y-20450000D02*
X26950000Y-20480000D01*
X26950000Y-20480000D02*
X27010000Y-20480000D01*
X27010000Y-20480000D02*
X27020000Y-20490000D01*
X27020000Y-20490000D02*
X27090000Y-20490000D01*
X27090000Y-20490000D02*
X27120000Y-20490000D01*
X27120000Y-20490000D02*
X27180000Y-20490000D01*
X27180000Y-20490000D02*
X27190000Y-20480000D01*
X27190000Y-20480000D02*
X27260000Y-20480000D01*
X27260000Y-20480000D02*
X27280000Y-20460000D01*
X27280000Y-20460000D02*
X27340000Y-20460000D01*
X27340000Y-20460000D02*
X27380000Y-20420000D01*
X27380000Y-20420000D02*
X27420000Y-20420000D01*
X27420000Y-20420000D02*
X27470000Y-20370000D01*
X27470000Y-20370000D02*
X27530000Y-20370000D01*
X27530000Y-20370000D02*
X27590000Y-20310000D01*
X27590000Y-20310000D02*
X27590000Y-20300000D01*
X27590000Y-20300000D02*
X27640000Y-20250000D01*
X27640000Y-20250000D02*
X27640000Y-20240000D01*
X27640000Y-20240000D02*
X27680000Y-20200000D01*
X27680000Y-20200000D02*
X27680000Y-20120000D01*
X27680000Y-20120000D02*
X27710000Y-20090000D01*
X27710000Y-20090000D02*
X27710000Y-20030000D01*
X27710000Y-20030000D02*
X27750000Y-19990000D01*
X27750000Y-19990000D02*
X27750000Y-19940000D01*
X27750000Y-19940000D02*
X27740000Y-19930000D01*
X27740000Y-19930000D02*
X27740000Y-19900000D01*
X27740000Y-19900000D02*
X27710000Y-19870000D01*
X27710000Y-19870000D02*
X27710000Y-19740000D01*
X27710000Y-19740000D02*
X27690000Y-19720000D01*
X27690000Y-19720000D02*
X27690000Y-19660000D01*
X27690000Y-19660000D02*
X27670000Y-19640000D01*
X27670000Y-19640000D02*
X27670000Y-19600000D01*
X27670000Y-19600000D02*
X27610000Y-19540000D01*
X27610000Y-19540000D02*
X27610000Y-19530000D01*
X27610000Y-19530000D02*
X27570000Y-19490000D01*
X27570000Y-19490000D02*
X27560000Y-19490000D01*
X27560000Y-19490000D02*
X27520000Y-19450000D01*
X27520000Y-19450000D02*
X27510000Y-19450000D01*
X27510000Y-19450000D02*
X27450000Y-19390000D01*
X27450000Y-19390000D02*
X27420000Y-19390000D01*
X27420000Y-19390000D02*
X27370000Y-19340000D01*
X27370000Y-19340000D02*
X27320000Y-19340000D01*
X27320000Y-19340000D02*
X27270000Y-19290000D01*
X27270000Y-19290000D02*
X27180000Y-19290000D01*
X27180000Y-19290000D02*
X27140000Y-19290000D01*
X27140000Y-19290000D02*
X27120000Y-19310000D01*
X27120000Y-19310000D02*
X27030000Y-19310000D01*
X27030000Y-19310000D02*
X27020000Y-19320000D01*
X27020000Y-19320000D02*
X26960000Y-19320000D01*
X27050000Y-19320000D02*
X27060000Y-19310000D01*
X19420000Y-25200000D02*
X19190000Y-24970000D01*
X20900000Y-25190000D02*
X21110000Y-24980000D01*
X21110000Y-24980000D02*
X21120000Y-24980000D01*
X21030000Y-26780000D02*
X20860000Y-26610000D01*
X21020000Y-26780000D02*
X21030000Y-26780000D01*
X20860000Y-26610000D02*
X20850000Y-26610000D01*
X18850000Y-25800000D02*
X18860000Y-25810000D01*
X18860000Y-25810000D02*
X19200000Y-25810000D01*
X20150000Y-27100000D02*
X20150000Y-26830000D01*
X21400000Y-25840000D02*
X21380000Y-25860000D01*
X21380000Y-25860000D02*
X21100000Y-25860000D01*
X20060000Y-25290000D02*
X20070000Y-25280000D01*
X20030000Y-25290000D02*
X19970000Y-25290000D01*
X20040000Y-25280000D02*
X20030000Y-25290000D01*
X20130000Y-25280000D02*
X20040000Y-25280000D01*
X20150000Y-25260000D02*
X20130000Y-25280000D01*
X20190000Y-25260000D02*
X20150000Y-25260000D01*
X20280000Y-25260000D02*
X20190000Y-25260000D01*
X20330000Y-25310000D02*
X20280000Y-25260000D01*
X20380000Y-25310000D02*
X20330000Y-25310000D01*
X20430000Y-25360000D02*
X20380000Y-25310000D01*
X20460000Y-25360000D02*
X20430000Y-25360000D01*
X20520000Y-25420000D02*
X20460000Y-25360000D01*
X20530000Y-25420000D02*
X20520000Y-25420000D01*
X20570000Y-25460000D02*
X20530000Y-25420000D01*
X20580000Y-25460000D02*
X20570000Y-25460000D01*
X20620000Y-25500000D02*
X20580000Y-25460000D01*
X20620000Y-25510000D02*
X20620000Y-25500000D01*
X20680000Y-25570000D02*
X20620000Y-25510000D01*
X20680000Y-25610000D02*
X20680000Y-25570000D01*
X20700000Y-25630000D02*
X20680000Y-25610000D01*
X20700000Y-25690000D02*
X20700000Y-25630000D01*
X20720000Y-25710000D02*
X20700000Y-25690000D01*
X20720000Y-25840000D02*
X20720000Y-25710000D01*
X20750000Y-25870000D02*
X20720000Y-25840000D01*
X20750000Y-25900000D02*
X20750000Y-25870000D01*
X20760000Y-25910000D02*
X20750000Y-25900000D01*
X20760000Y-25960000D02*
X20760000Y-25910000D01*
X20720000Y-26000000D02*
X20760000Y-25960000D01*
X20720000Y-26060000D02*
X20720000Y-26000000D01*
X20690000Y-26090000D02*
X20720000Y-26060000D01*
X20690000Y-26170000D02*
X20690000Y-26090000D01*
X20650000Y-26210000D02*
X20690000Y-26170000D01*
X20650000Y-26220000D02*
X20650000Y-26210000D01*
X20600000Y-26270000D02*
X20650000Y-26220000D01*
X20600000Y-26280000D02*
X20600000Y-26270000D01*
X20540000Y-26340000D02*
X20600000Y-26280000D01*
X20480000Y-26340000D02*
X20540000Y-26340000D01*
X20430000Y-26390000D02*
X20480000Y-26340000D01*
X20390000Y-26390000D02*
X20430000Y-26390000D01*
X20350000Y-26430000D02*
X20390000Y-26390000D01*
X20290000Y-26430000D02*
X20350000Y-26430000D01*
X20270000Y-26450000D02*
X20290000Y-26430000D01*
X20200000Y-26450000D02*
X20270000Y-26450000D01*
X20190000Y-26460000D02*
X20200000Y-26450000D01*
X20130000Y-26460000D02*
X20190000Y-26460000D01*
X20100000Y-26460000D02*
X20130000Y-26460000D01*
X20030000Y-26460000D02*
X20100000Y-26460000D01*
X20020000Y-26450000D02*
X20030000Y-26460000D01*
X19960000Y-26450000D02*
X20020000Y-26450000D01*
X19930000Y-26420000D02*
X19960000Y-26450000D01*
X19880000Y-26420000D02*
X19930000Y-26420000D01*
X19860000Y-26400000D02*
X19880000Y-26420000D01*
X19830000Y-26400000D02*
X19860000Y-26400000D01*
X19720000Y-26290000D02*
X19830000Y-26400000D01*
X19720000Y-26270000D02*
X19720000Y-26290000D01*
X19660000Y-26210000D02*
X19720000Y-26270000D01*
X19660000Y-26200000D02*
X19660000Y-26210000D01*
X19610000Y-26150000D02*
X19660000Y-26200000D01*
X19610000Y-26110000D02*
X19610000Y-26150000D01*
X19580000Y-26080000D02*
X19610000Y-26110000D01*
X19580000Y-26040000D02*
X19580000Y-26080000D01*
X19550000Y-26010000D02*
X19580000Y-26040000D01*
X19550000Y-25930000D02*
X19550000Y-26010000D01*
X19540000Y-25920000D02*
X19550000Y-25930000D01*
X19540000Y-25860000D02*
X19540000Y-25920000D01*
X19550000Y-25850000D02*
X19540000Y-25860000D01*
X19550000Y-25740000D02*
X19550000Y-25850000D01*
X19580000Y-25710000D02*
X19550000Y-25740000D01*
X19580000Y-25640000D02*
X19580000Y-25710000D01*
X19610000Y-25610000D02*
X19580000Y-25640000D01*
X19610000Y-25570000D02*
X19610000Y-25610000D01*
X19640000Y-25540000D02*
X19610000Y-25570000D01*
X19640000Y-25510000D02*
X19640000Y-25540000D01*
X19720000Y-25430000D02*
X19640000Y-25510000D01*
X19720000Y-25420000D02*
X19720000Y-25430000D01*
X19770000Y-25370000D02*
X19720000Y-25420000D01*
X19810000Y-25370000D02*
X19770000Y-25370000D01*
X19880000Y-25300000D02*
X19810000Y-25370000D01*
X19980000Y-25300000D02*
X19880000Y-25300000D01*
X20000000Y-25280000D02*
X19980000Y-25300000D01*
X20070000Y-25280000D02*
X20000000Y-25280000D01*
X54737000Y-21209000D02*
X54737000Y-21336000D01*
X54610000Y-21082000D02*
X54737000Y-21209000D01*
X29320000Y-26760000D02*
X30580000Y-26760000D01*
X28640000Y-27440000D02*
X29320000Y-26760000D01*
X69200000Y-25700000D02*
X67100000Y-27800000D01*
X45620000Y-25370000D02*
X45000000Y-24750000D01*
X45800000Y-25370000D02*
X45620000Y-25370000D01*
X50322000Y-25370000D02*
X45800000Y-25370000D01*
X50673000Y-25019000D02*
X50322000Y-25370000D01*
X25500000Y-22500000D02*
X30000000Y-22500000D01*
X30000000Y-22500000D02*
X32250000Y-22500000D01*
X32250000Y-22500000D02*
X43000000Y-22500000D01*
X25500000Y-22500000D02*
X21500000Y-22500000D01*
X44000000Y-22500000D02*
X43000000Y-22500000D01*
X44250000Y-22750000D02*
X44000000Y-22500000D01*
X45000000Y-23500000D02*
X44250000Y-22750000D01*
X45000000Y-24750000D02*
X45000000Y-23500000D01*
X21500000Y-22500000D02*
X21490000Y-22510000D01*
X21240000Y-22760000D02*
X21500000Y-22500000D01*
X52705000Y-25654000D02*
X51308000Y-25654000D01*
X50673000Y-25019000D02*
X50673000Y-23876000D01*
X51308000Y-25654000D02*
X50673000Y-25019000D01*
X52705000Y-25654000D02*
X52705000Y-26670000D01*
X53308000Y-27273000D02*
X54610000Y-27273000D01*
X52705000Y-26670000D02*
X53308000Y-27273000D01*
X57150000Y-31369000D02*
X58801000Y-31369000D01*
X58801000Y-31369000D02*
X59690000Y-30480000D01*
X61976000Y-35306000D02*
X61976000Y-34544000D01*
X61976000Y-31623000D02*
X60833000Y-30480000D01*
X60833000Y-30480000D02*
X59690000Y-30480000D01*
X59690000Y-30480000D02*
X59055000Y-29845000D01*
X59055000Y-29845000D02*
X59055000Y-26852000D01*
X61976000Y-34544000D02*
X61976000Y-31623000D01*
X50673000Y-23876000D02*
X50673000Y-22892000D01*
X50673000Y-22892000D02*
X50641000Y-22860000D01*
X60813000Y-26852000D02*
X59055000Y-26852000D01*
X59055000Y-26852000D02*
X57095000Y-26852000D01*
X57095000Y-26852000D02*
X56674000Y-27273000D01*
X56674000Y-27273000D02*
X54610000Y-27273000D01*
X50641000Y-22860000D02*
X50641000Y-21241000D01*
X50641000Y-21241000D02*
X50673000Y-21209000D01*
X60813000Y-26852000D02*
X60126000Y-26852000D01*
X77470000Y-24384000D02*
X76200000Y-25654000D01*
X77470000Y-20574000D02*
X77470000Y-24384000D01*
X33890000Y-15310000D02*
X33830000Y-15250000D01*
X34180000Y-15600000D02*
X36300000Y-15600000D01*
X37500000Y-14400000D02*
X36300000Y-15600000D01*
X38800000Y-14400000D02*
X37500000Y-14400000D01*
X33890000Y-15310000D02*
X34180000Y-15600000D01*
X26750000Y-15250000D02*
X25000000Y-17000000D01*
X28250000Y-15250000D02*
X26750000Y-15250000D01*
X33830000Y-15250000D02*
X28250000Y-15250000D01*
X49000000Y-33909000D02*
X49391000Y-33909000D01*
X49391000Y-33909000D02*
X49800000Y-33500000D01*
X57023000Y-17399000D02*
X54701000Y-17399000D01*
X54701000Y-17399000D02*
X54102000Y-17998000D01*
X54102000Y-17998000D02*
X54102000Y-18900000D01*
X54102000Y-18900000D02*
X54102000Y-20320000D01*
X47200000Y-18300000D02*
X47200000Y-17600000D01*
X45600000Y-17400000D02*
X44750000Y-16550000D01*
X46700000Y-17400000D02*
X45600000Y-17400000D01*
X47000000Y-17400000D02*
X46700000Y-17400000D01*
X47200000Y-17600000D02*
X47000000Y-17400000D01*
X28900000Y-34200000D02*
X30600000Y-34200000D01*
X30800000Y-34000000D02*
X31700000Y-34000000D01*
X30600000Y-34200000D02*
X30800000Y-34000000D01*
X21000000Y-36080000D02*
X21000000Y-36100000D01*
X21000000Y-36100000D02*
X22800000Y-37900000D01*
X21000000Y-36080000D02*
X21020000Y-36080000D01*
X21020000Y-36080000D02*
X23000000Y-34100000D01*
X21000000Y-36080000D02*
X21000000Y-38400000D01*
X21000000Y-36100000D02*
X19300000Y-37800000D01*
X21000000Y-36080000D02*
X18427000Y-36080000D01*
X19530000Y-17500000D02*
X19330000Y-17500000D01*
X18161000Y-35814000D02*
X18427000Y-36080000D01*
X18161000Y-18669000D02*
X18161000Y-35814000D01*
X19330000Y-17500000D02*
X18161000Y-18669000D01*
X21500000Y-17500000D02*
X19530000Y-17500000D01*
X21000000Y-36080000D02*
X20980000Y-36080000D01*
X20980000Y-36080000D02*
X19000000Y-34100000D01*
X21000000Y-36080000D02*
X21000000Y-33600000D01*
X21000000Y-33600000D02*
X20900000Y-33500000D01*
X47538000Y-15367000D02*
X47467000Y-15367000D01*
X47467000Y-15367000D02*
X46500000Y-14400000D01*
X46500000Y-14400000D02*
X38800000Y-14400000D01*
X38800000Y-14400000D02*
X38800000Y-14400000D01*
X46641000Y-22860000D02*
X48440000Y-22860000D01*
X48440000Y-22860000D02*
X48500000Y-22800000D01*
X54650000Y-31369000D02*
X54650000Y-33250000D01*
X54650000Y-33250000D02*
X56400000Y-35000000D01*
X40850000Y-33528000D02*
X38628000Y-33528000D01*
X38100000Y-33000000D02*
X38100000Y-30700000D01*
X38628000Y-33528000D02*
X38100000Y-33000000D01*
X46641000Y-22860000D02*
X45460000Y-22860000D01*
X45460000Y-22860000D02*
X43900000Y-21300000D01*
X43900000Y-21300000D02*
X42800000Y-21300000D01*
X42800000Y-21300000D02*
X40700000Y-19200000D01*
X40700000Y-19200000D02*
X40000000Y-19200000D01*
X44750000Y-16550000D02*
X44450000Y-16550000D01*
X44450000Y-16550000D02*
X40450000Y-16550000D01*
X40450000Y-16550000D02*
X40000000Y-17000000D01*
X40000000Y-17000000D02*
X40000000Y-19200000D01*
X31700000Y-34000000D02*
X31700000Y-29600000D01*
X54102000Y-20320000D02*
X53340000Y-21082000D01*
X52705000Y-23154000D02*
X52705000Y-21717000D01*
X54102000Y-20320000D02*
X52705000Y-21717000D01*
X45466000Y-33488000D02*
X47077000Y-33488000D01*
X49403000Y-33909000D02*
X49784000Y-33528000D01*
X47498000Y-33909000D02*
X49000000Y-33909000D01*
X49000000Y-33909000D02*
X49403000Y-33909000D01*
X47077000Y-33488000D02*
X47498000Y-33909000D01*
X49784000Y-33528000D02*
X49784000Y-33020000D01*
X40100000Y-30480000D02*
X40100000Y-31210000D01*
X40100000Y-31210000D02*
X40850000Y-31960000D01*
X40850000Y-31960000D02*
X40850000Y-33528000D01*
X40850000Y-33528000D02*
X40850000Y-34842000D01*
X40767000Y-34925000D02*
X40767000Y-35941000D01*
X40850000Y-34842000D02*
X40767000Y-34925000D01*
X60813000Y-18852000D02*
X60813000Y-18014000D01*
X60198000Y-17399000D02*
X57023000Y-17399000D01*
X60813000Y-18014000D02*
X60198000Y-17399000D01*
X54610000Y-23273000D02*
X56102000Y-23273000D01*
X56261000Y-23114000D02*
X57150000Y-23114000D01*
X56102000Y-23273000D02*
X56261000Y-23114000D01*
X60813000Y-24852000D02*
X60666000Y-24852000D01*
X60666000Y-24852000D02*
X58928000Y-23114000D01*
X58928000Y-23114000D02*
X57150000Y-23114000D01*
X57023000Y-21209000D02*
X57023000Y-22225000D01*
X57150000Y-22352000D02*
X57150000Y-23114000D01*
X57023000Y-22225000D02*
X57150000Y-22352000D01*
X57023000Y-21209000D02*
X57404000Y-21209000D01*
X48514000Y-32512000D02*
X46736000Y-32512000D01*
X46736000Y-32512000D02*
X45466000Y-31242000D01*
X45466000Y-31242000D02*
X45466000Y-30988000D01*
X45212000Y-27051000D02*
X44958000Y-27051000D01*
X44958000Y-27051000D02*
X43561000Y-25273000D01*
X43561000Y-25273000D02*
X41127000Y-25273000D01*
X51054000Y-32512000D02*
X51054000Y-33782000D01*
X51816000Y-34544000D02*
X51816000Y-35306000D01*
X51054000Y-33782000D02*
X51816000Y-34544000D01*
X47200000Y-20800000D02*
X46400000Y-20800000D01*
X44450000Y-19050000D02*
X44450000Y-20050000D01*
X45200000Y-20800000D02*
X46400000Y-20800000D01*
X46400000Y-20800000D02*
X47600000Y-20800000D01*
X44450000Y-20050000D02*
X45200000Y-20800000D01*
X50673000Y-19939000D02*
X48461000Y-19939000D01*
X48461000Y-19939000D02*
X47600000Y-20800000D01*
X44450000Y-19050000D02*
X44450000Y-19250000D01*
X47639000Y-20839000D02*
X47600000Y-20800000D01*
X60813000Y-22852000D02*
X59936000Y-22852000D01*
X52324000Y-19939000D02*
X50673000Y-19939000D01*
X53086000Y-19177000D02*
X52324000Y-19939000D01*
X53086000Y-16764000D02*
X53086000Y-19177000D01*
X53340000Y-16510000D02*
X53086000Y-16764000D01*
X60452000Y-16510000D02*
X53340000Y-16510000D01*
X62103000Y-18161000D02*
X60452000Y-16510000D01*
X62103000Y-19304000D02*
X62103000Y-18161000D01*
X61595000Y-19812000D02*
X62103000Y-19304000D01*
X59690000Y-19812000D02*
X61595000Y-19812000D01*
X59309000Y-20193000D02*
X59690000Y-19812000D01*
X59309000Y-22225000D02*
X59309000Y-20193000D01*
X59936000Y-22852000D02*
X59309000Y-22225000D01*
X50038000Y-15367000D02*
X49033000Y-15367000D01*
X48800000Y-15600000D02*
X49033000Y-15367000D01*
X48800000Y-15900000D02*
X48800000Y-15600000D01*
X48100000Y-16600000D02*
X48800000Y-15900000D01*
X47000000Y-16600000D02*
X48100000Y-16600000D01*
X45600000Y-15200000D02*
X47000000Y-16600000D01*
X42400000Y-15200000D02*
X45600000Y-15200000D01*
X42100000Y-15500000D02*
X42400000Y-15200000D01*
X50038000Y-15367000D02*
X49657000Y-15367000D01*
X55372000Y-18669000D02*
X57023000Y-18669000D01*
X28900000Y-30850000D02*
X29500000Y-30250000D01*
X31750000Y-28000000D02*
X29500000Y-30250000D01*
X34750000Y-28000000D02*
X31750000Y-28000000D01*
X35250000Y-27500000D02*
X34750000Y-28000000D01*
X35250000Y-27500000D02*
X35250000Y-25350000D01*
X28900000Y-30850000D02*
X28900000Y-31660000D01*
X35327000Y-25273000D02*
X35250000Y-25350000D01*
X29500000Y-31060000D02*
X28900000Y-31660000D01*
X28970000Y-31590000D02*
X28900000Y-31660000D01*
X65900000Y-34800000D02*
X65900000Y-36500000D01*
X65900000Y-36700000D02*
X65900000Y-37719000D01*
X65900000Y-36500000D02*
X65900000Y-36700000D01*
X65900000Y-37719000D02*
X65900000Y-37200000D01*
X65900000Y-37200000D02*
X65900000Y-37719000D01*
X28900000Y-31660000D02*
X26252000Y-31660000D01*
X26252000Y-31660000D02*
X24892000Y-33020000D01*
D36*
X38227000Y-37973000D02*
X32258000Y-37973000D01*
D37*
X32258000Y-37973000D02*
X31623000Y-37338000D01*
D38*
X22872000Y-31000000D02*
X21000000Y-31000000D01*
X24892000Y-33020000D02*
X22872000Y-31000000D01*
X24892000Y-35052000D02*
X24892000Y-33020000D01*
X27178000Y-37338000D02*
X24892000Y-35052000D01*
X31623000Y-37338000D02*
X27178000Y-37338000D01*
D36*
X38227000Y-37973000D02*
X43942000Y-37973000D01*
D37*
X43942000Y-37973000D02*
X44196000Y-37719000D01*
D38*
X44196000Y-37719000D02*
X65900000Y-37719000D01*
X65900000Y-37719000D02*
X72612000Y-37719000D01*
X72612000Y-37719000D02*
X74331000Y-36000000D01*
X74331000Y-36000000D02*
X76000000Y-36000000D01*
X76000000Y-36000000D02*
X76000000Y-36014000D01*
D35*
X21033000Y-30967000D02*
X21000000Y-31000000D01*
X44228000Y-33052000D02*
X44228000Y-35372000D01*
X44228000Y-35372000D02*
X44000000Y-35600000D01*
X44228000Y-35306000D02*
X44228000Y-33052000D01*
X36100000Y-29178000D02*
X36100000Y-30480000D01*
X36703000Y-28575000D02*
X36100000Y-29178000D01*
X41275000Y-28575000D02*
X36703000Y-28575000D01*
X42164000Y-29464000D02*
X41275000Y-28575000D01*
X42164000Y-30988000D02*
X42164000Y-29464000D01*
X44228000Y-33052000D02*
X42164000Y-30988000D01*
X35350000Y-33528000D02*
X35350000Y-34461000D01*
X35687000Y-34798000D02*
X35687000Y-35941000D01*
X35350000Y-34461000D02*
X35687000Y-34798000D01*
X36100000Y-30480000D02*
X36100000Y-31591000D01*
X36100000Y-31591000D02*
X35350000Y-32341000D01*
X35350000Y-32341000D02*
X35350000Y-33528000D01*
X49900000Y-35306000D02*
X48294000Y-35306000D01*
X48294000Y-35306000D02*
X48000000Y-35600000D01*
X48228000Y-35306000D02*
X49900000Y-35306000D01*
X49900000Y-35306000D02*
X49911000Y-35306000D01*
X63627000Y-30018000D02*
X62461000Y-28852000D01*
X63627000Y-35560000D02*
X63627000Y-30018000D01*
X62865000Y-36322000D02*
X63627000Y-35560000D01*
X50927000Y-36322000D02*
X62865000Y-36322000D01*
X49911000Y-35306000D02*
X50927000Y-36322000D01*
X60813000Y-28852000D02*
X62461000Y-28852000D01*
X50673000Y-16764000D02*
X50673000Y-17399000D01*
X52451000Y-14986000D02*
X50673000Y-16764000D01*
X61722000Y-14986000D02*
X52451000Y-14986000D01*
X63500000Y-16764000D02*
X61722000Y-14986000D01*
X63500000Y-27813000D02*
X63500000Y-16764000D01*
X62461000Y-28852000D02*
X63500000Y-27813000D01*
X60813000Y-20852000D02*
X61571000Y-20852000D01*
X61571000Y-20852000D02*
X62611000Y-19812000D01*
X62611000Y-19812000D02*
X62611000Y-17526000D01*
X62611000Y-17526000D02*
X60833000Y-15748000D01*
X60833000Y-15748000D02*
X53005000Y-15748000D01*
X53005000Y-15748000D02*
X52451000Y-16302000D01*
X52451000Y-16302000D02*
X52451000Y-18415000D01*
X52451000Y-18415000D02*
X52197000Y-18669000D01*
X52197000Y-18669000D02*
X50673000Y-18669000D01*
D39*
G36*
X18994138Y-14161768D02*
G01*
X18921246Y-14298141D01*
X18918529Y-14307097D01*
X18891246Y-14358141D01*
X18881515Y-14390220D01*
X18861246Y-14428141D01*
X18816359Y-14576114D01*
X18816198Y-14577747D01*
X18786359Y-14676114D01*
X18775000Y-14791440D01*
X18775000Y-14791447D01*
X18771203Y-14830000D01*
X18772112Y-14839231D01*
X18765000Y-14911440D01*
X18765000Y-14911447D01*
X18761203Y-14950000D01*
X18764158Y-14980000D01*
X18761203Y-15010000D01*
X18765000Y-15048553D01*
X18765000Y-15048561D01*
X18776359Y-15163887D01*
X18778040Y-15169430D01*
X18786359Y-15253887D01*
X18831246Y-15401860D01*
X18851515Y-15439781D01*
X18861246Y-15471860D01*
X18881515Y-15509781D01*
X18891246Y-15541860D01*
X18964138Y-15678233D01*
X19062236Y-15797764D01*
X19063948Y-15799169D01*
X19074138Y-15818233D01*
X19172236Y-15937764D01*
X19202189Y-15962346D01*
X19257653Y-16017810D01*
X19282236Y-16047764D01*
X19401767Y-16145862D01*
X19538140Y-16218754D01*
X19567234Y-16227579D01*
X19588140Y-16238754D01*
X19643342Y-16255499D01*
X19668140Y-16268754D01*
X19816113Y-16313641D01*
X19870954Y-16319043D01*
X19886113Y-16323641D01*
X20001439Y-16335000D01*
X20001446Y-16335000D01*
X20039999Y-16338797D01*
X20078552Y-16335000D01*
X20161447Y-16335000D01*
X20200000Y-16338797D01*
X20238553Y-16335000D01*
X20238561Y-16335000D01*
X20353887Y-16323641D01*
X20364238Y-16320501D01*
X20433887Y-16313641D01*
X20493054Y-16295693D01*
X20513887Y-16293641D01*
X20661860Y-16248754D01*
X20729919Y-16212376D01*
X20741860Y-16208754D01*
X20813810Y-16170296D01*
X20851860Y-16158754D01*
X20988233Y-16085862D01*
X21107764Y-15987764D01*
X21132349Y-15957807D01*
X21137808Y-15952348D01*
X21167764Y-15927764D01*
X21215441Y-15869671D01*
X21217764Y-15867764D01*
X21315862Y-15748233D01*
X21317794Y-15744618D01*
X21355862Y-15698233D01*
X21428754Y-15561860D01*
X21444850Y-15508797D01*
X21473642Y-15413886D01*
X21475261Y-15397442D01*
X21476405Y-15393673D01*
X21498754Y-15351860D01*
X21516002Y-15295000D01*
X21543642Y-15203886D01*
X21552396Y-15115000D01*
X21555000Y-15088561D01*
X21555000Y-15088555D01*
X21558797Y-15050000D01*
X21556335Y-15024999D01*
X21558797Y-14999999D01*
X21555000Y-14961446D01*
X21555000Y-14961440D01*
X21543641Y-14846114D01*
X21541251Y-14838233D01*
X21534667Y-14816529D01*
X21534207Y-14811859D01*
X21533641Y-14806113D01*
X21521169Y-14765000D01*
X21512553Y-14736596D01*
X21504826Y-14658141D01*
X21503641Y-14646113D01*
X21490316Y-14602188D01*
X21485693Y-14586947D01*
X21484198Y-14571768D01*
X21483641Y-14566113D01*
X21470189Y-14521768D01*
X21438754Y-14418141D01*
X21434594Y-14410359D01*
X21418754Y-14358141D01*
X21418494Y-14357655D01*
X21345862Y-14221768D01*
X21268087Y-14127000D01*
X47313354Y-14127000D01*
X47170471Y-14155421D01*
X46941166Y-14250402D01*
X46734797Y-14388294D01*
X46559294Y-14563797D01*
X46421402Y-14770166D01*
X46380081Y-14869924D01*
X46182345Y-14672188D01*
X46157764Y-14642236D01*
X46038233Y-14544138D01*
X45901860Y-14471246D01*
X45753887Y-14426359D01*
X45638561Y-14415000D01*
X45638553Y-14415000D01*
X45600000Y-14411203D01*
X45561447Y-14415000D01*
X42438552Y-14415000D01*
X42399999Y-14411203D01*
X42361446Y-14415000D01*
X42361439Y-14415000D01*
X42246113Y-14426359D01*
X42118730Y-14465000D01*
X41998061Y-14465000D01*
X41798102Y-14504774D01*
X41609744Y-14582795D01*
X41440226Y-14696063D01*
X41296063Y-14840226D01*
X41182795Y-15009744D01*
X41104774Y-15198102D01*
X41065000Y-15398061D01*
X41065000Y-15601939D01*
X41104774Y-15801898D01*
X41182795Y-15990256D01*
X41296063Y-16159774D01*
X41440226Y-16303937D01*
X41609744Y-16417205D01*
X41798102Y-16495226D01*
X41998061Y-16535000D01*
X42201939Y-16535000D01*
X42401898Y-16495226D01*
X42590256Y-16417205D01*
X42759774Y-16303937D01*
X42903937Y-16159774D01*
X43017205Y-15990256D01*
X43019382Y-15985000D01*
X43130799Y-15985000D01*
X43070147Y-16131426D01*
X43015000Y-16408665D01*
X43015000Y-16691335D01*
X43070147Y-16968574D01*
X43178320Y-17229727D01*
X43335363Y-17464759D01*
X43501943Y-17631339D01*
X43405820Y-17660498D01*
X43295506Y-17719463D01*
X43198815Y-17798815D01*
X43119463Y-17895506D01*
X43060498Y-18005820D01*
X43024188Y-18125518D01*
X43011928Y-18250000D01*
X43011928Y-19850000D01*
X43024188Y-19974482D01*
X43060498Y-20094180D01*
X43119463Y-20204494D01*
X43198815Y-20301185D01*
X43295506Y-20380537D01*
X43405820Y-20439502D01*
X43525518Y-20475812D01*
X43650000Y-20488072D01*
X43794053Y-20488072D01*
X43794139Y-20488233D01*
X43831027Y-20533180D01*
X43867655Y-20577812D01*
X43867659Y-20577816D01*
X43892237Y-20607764D01*
X43922185Y-20632342D01*
X44617657Y-21327815D01*
X44642236Y-21357764D01*
X44672184Y-21382342D01*
X44672187Y-21382345D01*
X44689757Y-21396764D01*
X44761767Y-21455862D01*
X44882196Y-21520232D01*
X44898140Y-21528754D01*
X45046112Y-21573641D01*
X45060490Y-21575057D01*
X45161439Y-21585000D01*
X45161446Y-21585000D01*
X45199999Y-21588797D01*
X45216145Y-21587207D01*
X45189815Y-21608815D01*
X45110463Y-21705506D01*
X45051498Y-21815820D01*
X45015188Y-21935518D01*
X45002928Y-22060000D01*
X45002928Y-22392771D01*
X44582347Y-21972190D01*
X44557764Y-21942236D01*
X44438233Y-21844138D01*
X44301860Y-21771246D01*
X44153887Y-21726359D01*
X44038561Y-21715000D01*
X44038553Y-21715000D01*
X44000000Y-21711203D01*
X43961447Y-21715000D01*
X27401270Y-21715000D01*
X27421860Y-21708754D01*
X27558233Y-21635862D01*
X27677764Y-21537764D01*
X27748045Y-21452127D01*
X27764999Y-21453797D01*
X27803552Y-21450000D01*
X27813561Y-21450000D01*
X27928887Y-21438641D01*
X28076860Y-21393754D01*
X28213233Y-21320862D01*
X28332764Y-21222764D01*
X28430862Y-21103233D01*
X28503754Y-20966860D01*
X28548641Y-20818887D01*
X28563798Y-20665000D01*
X28559987Y-20626305D01*
X28598233Y-20605862D01*
X28717764Y-20507764D01*
X28815862Y-20388233D01*
X28888754Y-20251860D01*
X28933641Y-20103887D01*
X28948798Y-19950000D01*
X28933641Y-19796113D01*
X28888754Y-19648140D01*
X28815862Y-19511767D01*
X28717764Y-19392236D01*
X28644965Y-19332490D01*
X28653642Y-19303886D01*
X28668797Y-19150000D01*
X28653642Y-18996113D01*
X28608754Y-18848141D01*
X28535861Y-18711768D01*
X28437764Y-18592236D01*
X28318232Y-18494139D01*
X28181859Y-18421246D01*
X28033887Y-18376358D01*
X27880000Y-18361203D01*
X27794132Y-18369659D01*
X27697764Y-18252236D01*
X27578233Y-18154138D01*
X27441860Y-18081246D01*
X27293887Y-18036359D01*
X27140000Y-18021202D01*
X26986114Y-18036359D01*
X26838141Y-18081246D01*
X26701768Y-18154138D01*
X26582236Y-18252236D01*
X26514313Y-18334999D01*
X26425000Y-18326203D01*
X26271114Y-18341359D01*
X26123141Y-18386246D01*
X25986768Y-18459139D01*
X25867236Y-18557236D01*
X25769139Y-18676768D01*
X25696246Y-18813141D01*
X25651359Y-18961114D01*
X25636203Y-19115000D01*
X25651359Y-19268886D01*
X25653403Y-19275623D01*
X25572236Y-19342236D01*
X25474138Y-19461767D01*
X25401246Y-19598140D01*
X25359544Y-19735614D01*
X25331775Y-19596011D01*
X25227371Y-19343957D01*
X25075799Y-19117114D01*
X24882886Y-18924201D01*
X24656043Y-18772629D01*
X24403989Y-18668225D01*
X24136411Y-18615000D01*
X23863589Y-18615000D01*
X23596011Y-18668225D01*
X23343957Y-18772629D01*
X23117114Y-18924201D01*
X22924201Y-19117114D01*
X22772629Y-19343957D01*
X22668225Y-19596011D01*
X22615000Y-19863589D01*
X22615000Y-20136411D01*
X22668225Y-20403989D01*
X22772629Y-20656043D01*
X22924201Y-20882886D01*
X23117114Y-21075799D01*
X23343957Y-21227371D01*
X23596011Y-21331775D01*
X23863589Y-21385000D01*
X24136411Y-21385000D01*
X24403989Y-21331775D01*
X24656043Y-21227371D01*
X24882886Y-21075799D01*
X25075799Y-20882886D01*
X25227371Y-20656043D01*
X25331775Y-20403989D01*
X25383571Y-20143594D01*
X25401246Y-20201860D01*
X25474138Y-20338233D01*
X25572236Y-20457764D01*
X25621250Y-20497989D01*
X25611202Y-20600000D01*
X25626359Y-20753887D01*
X25671246Y-20901860D01*
X25744138Y-21038233D01*
X25842236Y-21157764D01*
X25961767Y-21255862D01*
X26098140Y-21328754D01*
X26246113Y-21373641D01*
X26361439Y-21385000D01*
X26381447Y-21385000D01*
X26420000Y-21388797D01*
X26446984Y-21386139D01*
X26464138Y-21418233D01*
X26562236Y-21537764D01*
X26681768Y-21635862D01*
X26818141Y-21708754D01*
X26838731Y-21715000D01*
X22641204Y-21715000D01*
X22575799Y-21617114D01*
X22382886Y-21424201D01*
X22156043Y-21272629D01*
X21903989Y-21168225D01*
X21636411Y-21115000D01*
X21363589Y-21115000D01*
X21096011Y-21168225D01*
X20843957Y-21272629D01*
X20617114Y-21424201D01*
X20424201Y-21617114D01*
X20272629Y-21843957D01*
X20168225Y-22096011D01*
X20115000Y-22363589D01*
X20115000Y-22636411D01*
X20168225Y-22903989D01*
X20272629Y-23156043D01*
X20424201Y-23382886D01*
X20617114Y-23575799D01*
X20843957Y-23727371D01*
X21096011Y-23831775D01*
X21363589Y-23885000D01*
X21636411Y-23885000D01*
X21903989Y-23831775D01*
X22156043Y-23727371D01*
X22382886Y-23575799D01*
X22575799Y-23382886D01*
X22641204Y-23285000D01*
X43674843Y-23285000D01*
X44215001Y-23825158D01*
X44215000Y-24711447D01*
X44211203Y-24750000D01*
X44215000Y-24788553D01*
X44215000Y-24788560D01*
X44220159Y-24840935D01*
X44216862Y-24834767D01*
X44173108Y-24781454D01*
X44154436Y-24757689D01*
X44148650Y-24751652D01*
X44118764Y-24715236D01*
X44095275Y-24695958D01*
X44074253Y-24674024D01*
X44035660Y-24647033D01*
X43999233Y-24617138D01*
X43972426Y-24602809D01*
X43947537Y-24585403D01*
X43904416Y-24566458D01*
X43862860Y-24544246D01*
X43833785Y-24535426D01*
X43805966Y-24523204D01*
X43759967Y-24513034D01*
X43714887Y-24499359D01*
X43684643Y-24496380D01*
X43654981Y-24489822D01*
X43607891Y-24488820D01*
X43599561Y-24488000D01*
X43569314Y-24488000D01*
X43565072Y-24487910D01*
X43565072Y-24123000D01*
X43556390Y-24018102D01*
X43523832Y-23897329D01*
X43468338Y-23785229D01*
X43392041Y-23686110D01*
X43297872Y-23603779D01*
X43189451Y-23541403D01*
X43070944Y-23501376D01*
X42946905Y-23485239D01*
X42822102Y-23493610D01*
X39222102Y-24093610D01*
X39082820Y-24133498D01*
X38972506Y-24192463D01*
X38875815Y-24271815D01*
X38796463Y-24368506D01*
X38737498Y-24478820D01*
X38701188Y-24598518D01*
X38688928Y-24723000D01*
X38688928Y-25823000D01*
X38705376Y-25966944D01*
X38745403Y-26085451D01*
X38807779Y-26193872D01*
X38890110Y-26288041D01*
X38989229Y-26364338D01*
X39101329Y-26419832D01*
X39222102Y-26452390D01*
X42822102Y-27052390D01*
X42927000Y-27061072D01*
X43051482Y-27048812D01*
X43171180Y-27012502D01*
X43281494Y-26953537D01*
X43378185Y-26874185D01*
X43457537Y-26777494D01*
X43516502Y-26667180D01*
X43552812Y-26547482D01*
X43554064Y-26534765D01*
X43773928Y-26814592D01*
X43773928Y-27851000D01*
X43786188Y-27975482D01*
X43822498Y-28095180D01*
X43881463Y-28205494D01*
X43960815Y-28302185D01*
X44057506Y-28381537D01*
X44167820Y-28440502D01*
X44287518Y-28476812D01*
X44412000Y-28489072D01*
X46012000Y-28489072D01*
X46136482Y-28476812D01*
X46256180Y-28440502D01*
X46366494Y-28381537D01*
X46463185Y-28302185D01*
X46542537Y-28205494D01*
X46601502Y-28095180D01*
X46630661Y-27999057D01*
X46797241Y-28165637D01*
X47032273Y-28322680D01*
X47293426Y-28430853D01*
X47570665Y-28486000D01*
X47853335Y-28486000D01*
X48130574Y-28430853D01*
X48391727Y-28322680D01*
X48626759Y-28165637D01*
X48826637Y-27965759D01*
X48983680Y-27730727D01*
X49091853Y-27469574D01*
X49147000Y-27192335D01*
X49147000Y-26909665D01*
X49091853Y-26632426D01*
X48983680Y-26371273D01*
X48839171Y-26155000D01*
X49766776Y-26155000D01*
X49653748Y-26268028D01*
X49515856Y-26474397D01*
X49420875Y-26703702D01*
X49372454Y-26947132D01*
X49372454Y-27195330D01*
X49420875Y-27438760D01*
X49515856Y-27668065D01*
X49653748Y-27874434D01*
X49829251Y-28049937D01*
X50035620Y-28187829D01*
X50264925Y-28282810D01*
X50508355Y-28331231D01*
X50756553Y-28331231D01*
X50998251Y-28283155D01*
X50885797Y-28358294D01*
X50710294Y-28533797D01*
X50572402Y-28740166D01*
X50477421Y-28969471D01*
X50429000Y-29212901D01*
X50429000Y-29461099D01*
X50477421Y-29704529D01*
X50572402Y-29933834D01*
X50710294Y-30140203D01*
X50885797Y-30315706D01*
X51092166Y-30453598D01*
X51321471Y-30548579D01*
X51564901Y-30597000D01*
X51813099Y-30597000D01*
X52056529Y-30548579D01*
X52285834Y-30453598D01*
X52492203Y-30315706D01*
X52667706Y-30140203D01*
X52805598Y-29933834D01*
X52900579Y-29704529D01*
X52949000Y-29461099D01*
X52949000Y-29212901D01*
X52900579Y-28969471D01*
X52805598Y-28740166D01*
X52667706Y-28533797D01*
X52492203Y-28358294D01*
X52285834Y-28220402D01*
X52056529Y-28125421D01*
X51813099Y-28077000D01*
X51564901Y-28077000D01*
X51323203Y-28125076D01*
X51435657Y-28049937D01*
X51611160Y-27874434D01*
X51749052Y-27668065D01*
X51844033Y-27438760D01*
X51892454Y-27195330D01*
X51892454Y-26947132D01*
X51844033Y-26703702D01*
X51752986Y-26483895D01*
X51901797Y-26632706D01*
X51918760Y-26644040D01*
X51916203Y-26670000D01*
X51931359Y-26823886D01*
X51976246Y-26971859D01*
X52010177Y-27035340D01*
X52049139Y-27108233D01*
X52082394Y-27148754D01*
X52122655Y-27197812D01*
X52122659Y-27197816D01*
X52147237Y-27227764D01*
X52177185Y-27252342D01*
X52725653Y-27800810D01*
X52750236Y-27830764D01*
X52869767Y-27928862D01*
X53006140Y-28001754D01*
X53121928Y-28036879D01*
X53121928Y-28273000D01*
X53134188Y-28397482D01*
X53170498Y-28517180D01*
X53229463Y-28627494D01*
X53308815Y-28724185D01*
X53405506Y-28803537D01*
X53515820Y-28862502D01*
X53635518Y-28898812D01*
X53760000Y-28911072D01*
X55460000Y-28911072D01*
X55584482Y-28898812D01*
X55704180Y-28862502D01*
X55814494Y-28803537D01*
X55911185Y-28724185D01*
X55990537Y-28627494D01*
X56049502Y-28517180D01*
X56085812Y-28397482D01*
X56098072Y-28273000D01*
X56098072Y-28058000D01*
X56635447Y-28058000D01*
X56674000Y-28061797D01*
X56712553Y-28058000D01*
X56712561Y-28058000D01*
X56827887Y-28046641D01*
X56975860Y-28001754D01*
X57112233Y-27928862D01*
X57231764Y-27830764D01*
X57256347Y-27800810D01*
X57420157Y-27637000D01*
X58270001Y-27637000D01*
X58270000Y-29806447D01*
X58266203Y-29845000D01*
X58270000Y-29883553D01*
X58270000Y-29883560D01*
X58281359Y-29998886D01*
X58291211Y-30031363D01*
X58194180Y-29979498D01*
X58074482Y-29943188D01*
X57950000Y-29930928D01*
X56350000Y-29930928D01*
X56225518Y-29943188D01*
X56105820Y-29979498D01*
X55995506Y-30038463D01*
X55898815Y-30117815D01*
X55819463Y-30214506D01*
X55760498Y-30324820D01*
X55731339Y-30420943D01*
X55564759Y-30254363D01*
X55329727Y-30097320D01*
X55068574Y-29989147D01*
X54791335Y-29934000D01*
X54508665Y-29934000D01*
X54231426Y-29989147D01*
X53970273Y-30097320D01*
X53735241Y-30254363D01*
X53535363Y-30454241D01*
X53378320Y-30689273D01*
X53270147Y-30950426D01*
X53215000Y-31227665D01*
X53215000Y-31510335D01*
X53270147Y-31787574D01*
X53378320Y-32048727D01*
X53535363Y-32283759D01*
X53735241Y-32483637D01*
X53970273Y-32640680D01*
X54231426Y-32748853D01*
X54508665Y-32804000D01*
X54791335Y-32804000D01*
X55068574Y-32748853D01*
X55329727Y-32640680D01*
X55564759Y-32483637D01*
X55731339Y-32317057D01*
X55760498Y-32413180D01*
X55819463Y-32523494D01*
X55898815Y-32620185D01*
X55995506Y-32699537D01*
X56105820Y-32758502D01*
X56225518Y-32794812D01*
X56350000Y-32807072D01*
X57950000Y-32807072D01*
X58074482Y-32794812D01*
X58194180Y-32758502D01*
X58304494Y-32699537D01*
X58401185Y-32620185D01*
X58480537Y-32523494D01*
X58539502Y-32413180D01*
X58575812Y-32293482D01*
X58588072Y-32169000D01*
X58588072Y-32154000D01*
X58762447Y-32154000D01*
X58801000Y-32157797D01*
X58839553Y-32154000D01*
X58839561Y-32154000D01*
X58954887Y-32142641D01*
X59102860Y-32097754D01*
X59239233Y-32024862D01*
X59358764Y-31926764D01*
X59383347Y-31896810D01*
X60015157Y-31265000D01*
X60507843Y-31265000D01*
X61191001Y-31948159D01*
X61191000Y-34285063D01*
X61156860Y-34307875D01*
X60977875Y-34486860D01*
X60837247Y-34697324D01*
X60740381Y-34931179D01*
X60691000Y-35179439D01*
X60691000Y-35432561D01*
X60711774Y-35537000D01*
X53080226Y-35537000D01*
X53101000Y-35432561D01*
X53101000Y-35179439D01*
X53051619Y-34931179D01*
X52954753Y-34697324D01*
X52814125Y-34486860D01*
X52635140Y-34307875D01*
X52546786Y-34248839D01*
X52544754Y-34242140D01*
X52539823Y-34232915D01*
X52471862Y-34105767D01*
X52373764Y-33986236D01*
X52343811Y-33961654D01*
X52018361Y-33636204D01*
X52034537Y-33616494D01*
X52093502Y-33506180D01*
X52129812Y-33386482D01*
X52142072Y-33262000D01*
X52142072Y-31762000D01*
X52129812Y-31637518D01*
X52093502Y-31517820D01*
X52034537Y-31407506D01*
X51955185Y-31310815D01*
X51858494Y-31231463D01*
X51748180Y-31172498D01*
X51628482Y-31136188D01*
X51504000Y-31123928D01*
X50604000Y-31123928D01*
X50479518Y-31136188D01*
X50359820Y-31172498D01*
X50249506Y-31231463D01*
X50152815Y-31310815D01*
X50073463Y-31407506D01*
X50014498Y-31517820D01*
X49978188Y-31637518D01*
X49965928Y-31762000D01*
X49965928Y-32126094D01*
X49800000Y-32109751D01*
X49596156Y-32129828D01*
X49583300Y-31999303D01*
X49521259Y-31794780D01*
X49420509Y-31606290D01*
X49284922Y-31441078D01*
X49119710Y-31305491D01*
X48931219Y-31204741D01*
X48726696Y-31142700D01*
X48514000Y-31121751D01*
X48301303Y-31142700D01*
X48096780Y-31204741D01*
X47908290Y-31305491D01*
X47743078Y-31441078D01*
X47607491Y-31606290D01*
X47542971Y-31727000D01*
X47061158Y-31727000D01*
X46679588Y-31345430D01*
X46726000Y-31112099D01*
X46726000Y-30863901D01*
X46677579Y-30620471D01*
X46582598Y-30391166D01*
X46444706Y-30184797D01*
X46269203Y-30009294D01*
X46062834Y-29871402D01*
X45833529Y-29776421D01*
X45590099Y-29728000D01*
X45341901Y-29728000D01*
X45098471Y-29776421D01*
X44869166Y-29871402D01*
X44662797Y-30009294D01*
X44487294Y-30184797D01*
X44349402Y-30391166D01*
X44254421Y-30620471D01*
X44206000Y-30863901D01*
X44206000Y-31112099D01*
X44254421Y-31355529D01*
X44349402Y-31584834D01*
X44487294Y-31791203D01*
X44662797Y-31966706D01*
X44869166Y-32104598D01*
X45098471Y-32199579D01*
X45291627Y-32238000D01*
X45098471Y-32276421D01*
X44869166Y-32371402D01*
X44742317Y-32456160D01*
X42949000Y-30662843D01*
X42949000Y-29502556D01*
X42952797Y-29464000D01*
X42949000Y-29425444D01*
X42949000Y-29425439D01*
X42939786Y-29331886D01*
X42937642Y-29310113D01*
X42892754Y-29162140D01*
X42868223Y-29116246D01*
X42819862Y-29025767D01*
X42721764Y-28906236D01*
X42691810Y-28881653D01*
X41857347Y-28047190D01*
X41832764Y-28017236D01*
X41713233Y-27919138D01*
X41576860Y-27846246D01*
X41428887Y-27801359D01*
X41313561Y-27790000D01*
X41313553Y-27790000D01*
X41275000Y-27786203D01*
X41236447Y-27790000D01*
X36741556Y-27790000D01*
X36703000Y-27786203D01*
X36664444Y-27790000D01*
X36664439Y-27790000D01*
X36624026Y-27793980D01*
X36549113Y-27801358D01*
X36401578Y-27846113D01*
X36401140Y-27846246D01*
X36264767Y-27919138D01*
X36145236Y-28017236D01*
X36120653Y-28047190D01*
X35572190Y-28595653D01*
X35542236Y-28620236D01*
X35444138Y-28739768D01*
X35371246Y-28876141D01*
X35336122Y-28991928D01*
X35100000Y-28991928D01*
X34975518Y-29004188D01*
X34855820Y-29040498D01*
X34745506Y-29099463D01*
X34648815Y-29178815D01*
X34569463Y-29275506D01*
X34510498Y-29385820D01*
X34474188Y-29505518D01*
X34461928Y-29630000D01*
X34461928Y-31330000D01*
X34474188Y-31454482D01*
X34510498Y-31574180D01*
X34569463Y-31684494D01*
X34648815Y-31781185D01*
X34735521Y-31852343D01*
X34694138Y-31902768D01*
X34621246Y-32039141D01*
X34621007Y-32039928D01*
X33700000Y-32039928D01*
X33575518Y-32052188D01*
X33455820Y-32088498D01*
X33345506Y-32147463D01*
X33248815Y-32226815D01*
X33169463Y-32323506D01*
X33110498Y-32433820D01*
X33074188Y-32553518D01*
X33061928Y-32678000D01*
X33061928Y-34378000D01*
X33074188Y-34502482D01*
X33110498Y-34622180D01*
X33169463Y-34732494D01*
X33248815Y-34829185D01*
X33345506Y-34908537D01*
X33455820Y-34967502D01*
X33575518Y-35003812D01*
X33700000Y-35016072D01*
X34151383Y-35016072D01*
X34148928Y-35041000D01*
X34148928Y-36584928D01*
X33074382Y-36584928D01*
X32989031Y-36425248D01*
X32784714Y-36176286D01*
X32535752Y-35971969D01*
X32251715Y-35820148D01*
X31943516Y-35726657D01*
X31703322Y-35703000D01*
X29543898Y-35703000D01*
X29674463Y-35648918D01*
X29942252Y-35469987D01*
X30169987Y-35242252D01*
X30348918Y-34974463D01*
X30472168Y-34676912D01*
X30535000Y-34361033D01*
X30535000Y-34038967D01*
X30472168Y-33723088D01*
X30348918Y-33425537D01*
X30169987Y-33157748D01*
X29942252Y-32930013D01*
X29942233Y-32930000D01*
X29942252Y-32929987D01*
X30169987Y-32702252D01*
X30348918Y-32434463D01*
X30472168Y-32136912D01*
X30535000Y-31821033D01*
X30535000Y-31498967D01*
X30472168Y-31183088D01*
X30348918Y-30885537D01*
X30198995Y-30661162D01*
X32075157Y-28785000D01*
X34711447Y-28785000D01*
X34750000Y-28788797D01*
X34788553Y-28785000D01*
X34788561Y-28785000D01*
X34903887Y-28773641D01*
X35051860Y-28728754D01*
X35188233Y-28655862D01*
X35307764Y-28557764D01*
X35332347Y-28527810D01*
X35777806Y-28082350D01*
X35807764Y-28057764D01*
X35905862Y-27938233D01*
X35978754Y-27801860D01*
X35982352Y-27790000D01*
X36023642Y-27653887D01*
X36032714Y-27561767D01*
X36035000Y-27538561D01*
X36035000Y-27538556D01*
X36038797Y-27500000D01*
X36035000Y-27461444D01*
X36035000Y-26651873D01*
X37231898Y-26452390D01*
X37371180Y-26412502D01*
X37481494Y-26353537D01*
X37578185Y-26274185D01*
X37657537Y-26177494D01*
X37716502Y-26067180D01*
X37752812Y-25947482D01*
X37765072Y-25823000D01*
X37765072Y-24723000D01*
X37748624Y-24579056D01*
X37708597Y-24460549D01*
X37646221Y-24352128D01*
X37563890Y-24257959D01*
X37464771Y-24181662D01*
X37352671Y-24126168D01*
X37231898Y-24093610D01*
X33631898Y-23493610D01*
X33527000Y-23484928D01*
X33402518Y-23497188D01*
X33282820Y-23533498D01*
X33172506Y-23592463D01*
X33075815Y-23671815D01*
X32996463Y-23768506D01*
X32937498Y-23878820D01*
X32901188Y-23998518D01*
X32888928Y-24123000D01*
X32888928Y-26423000D01*
X32897610Y-26527898D01*
X32930168Y-26648671D01*
X32985662Y-26760771D01*
X33061959Y-26859890D01*
X33156128Y-26942221D01*
X33264549Y-27004597D01*
X33383056Y-27044624D01*
X33507095Y-27060761D01*
X33631898Y-27052390D01*
X34465000Y-26913540D01*
X34465000Y-27174843D01*
X34424843Y-27215000D01*
X31788556Y-27215000D01*
X31750000Y-27211203D01*
X31711444Y-27215000D01*
X31711439Y-27215000D01*
X31672889Y-27218797D01*
X31596113Y-27226358D01*
X31448140Y-27271246D01*
X31311767Y-27344138D01*
X31306633Y-27348351D01*
X31363464Y-27263298D01*
X31564508Y-26777935D01*
X31667000Y-26262677D01*
X31667000Y-25737323D01*
X31564508Y-25222065D01*
X31363464Y-24736702D01*
X31071594Y-24299887D01*
X30700113Y-23928406D01*
X30263298Y-23636536D01*
X29777935Y-23435492D01*
X29262677Y-23333000D01*
X28737323Y-23333000D01*
X28222065Y-23435492D01*
X27736702Y-23636536D01*
X27299887Y-23928406D01*
X26928406Y-24299887D01*
X26636536Y-24736702D01*
X26435492Y-25222065D01*
X26333000Y-25737323D01*
X26333000Y-26262677D01*
X26435492Y-26777935D01*
X26636536Y-27263298D01*
X26928406Y-27700113D01*
X27299887Y-28071594D01*
X27736702Y-28363464D01*
X28222065Y-28564508D01*
X28737323Y-28667000D01*
X29262677Y-28667000D01*
X29777935Y-28564508D01*
X30263298Y-28363464D01*
X30302720Y-28337123D01*
X28972193Y-29667650D01*
X28972187Y-29667655D01*
X28584022Y-30055820D01*
X28423088Y-30087832D01*
X28125537Y-30211082D01*
X27857748Y-30390013D01*
X27630013Y-30617748D01*
X27458123Y-30875000D01*
X26290552Y-30875000D01*
X26251999Y-30871203D01*
X26213446Y-30875000D01*
X26213439Y-30875000D01*
X26112490Y-30884943D01*
X26098112Y-30886359D01*
X26072113Y-30894246D01*
X25950140Y-30931246D01*
X25813767Y-31004138D01*
X25771536Y-31038797D01*
X25724187Y-31077655D01*
X25724184Y-31077658D01*
X25694236Y-31102236D01*
X25669658Y-31132184D01*
X25493040Y-31308802D01*
X24084925Y-29900687D01*
X24033714Y-29838286D01*
X23784752Y-29633969D01*
X23500715Y-29482148D01*
X23192516Y-29388657D01*
X23126465Y-29382152D01*
X23125812Y-29375518D01*
X23089502Y-29255820D01*
X23030537Y-29145506D01*
X22951185Y-29048815D01*
X22854494Y-28969463D01*
X22744180Y-28910498D01*
X22624482Y-28874188D01*
X22500000Y-28861928D01*
X19500000Y-28861928D01*
X19375518Y-28874188D01*
X19255820Y-28910498D01*
X19145506Y-28969463D01*
X19048815Y-29048815D01*
X18969463Y-29145506D01*
X18910498Y-29255820D01*
X18874188Y-29375518D01*
X18861928Y-29500000D01*
X18861928Y-32500000D01*
X18874188Y-32624482D01*
X18910498Y-32744180D01*
X18969463Y-32854494D01*
X19048815Y-32951185D01*
X19145506Y-33030537D01*
X19255820Y-33089502D01*
X19375518Y-33125812D01*
X19500000Y-33138072D01*
X22500000Y-33138072D01*
X22624482Y-33125812D01*
X22671355Y-33111593D01*
X23257001Y-33697239D01*
X23257000Y-34971680D01*
X23249089Y-35052000D01*
X23257000Y-35132319D01*
X23257000Y-35132321D01*
X23280657Y-35372515D01*
X23374148Y-35680714D01*
X23525969Y-35964751D01*
X23730286Y-36213714D01*
X23792687Y-36264925D01*
X25965080Y-38437318D01*
X26016286Y-38499714D01*
X26265248Y-38704031D01*
X26549285Y-38855852D01*
X26605814Y-38873000D01*
X17127000Y-38873000D01*
X17127000Y-35869721D01*
X18865000Y-35869721D01*
X18865000Y-36290279D01*
X18947047Y-36702756D01*
X19107988Y-37091302D01*
X19341637Y-37440983D01*
X19639017Y-37738363D01*
X19988698Y-37972012D01*
X20377244Y-38132953D01*
X20789721Y-38215000D01*
X21210279Y-38215000D01*
X21622756Y-38132953D01*
X22011302Y-37972012D01*
X22360983Y-37738363D01*
X22658363Y-37440983D01*
X22892012Y-37091302D01*
X23052953Y-36702756D01*
X23135000Y-36290279D01*
X23135000Y-35869721D01*
X23052953Y-35457244D01*
X22892012Y-35068698D01*
X22658363Y-34719017D01*
X22360983Y-34421637D01*
X22011302Y-34187988D01*
X21622756Y-34027047D01*
X21210279Y-33945000D01*
X20789721Y-33945000D01*
X20377244Y-34027047D01*
X19988698Y-34187988D01*
X19639017Y-34421637D01*
X19341637Y-34719017D01*
X19107988Y-35068698D01*
X18947047Y-35457244D01*
X18865000Y-35869721D01*
X17127000Y-35869721D01*
X17127000Y-25800000D01*
X18061203Y-25800000D01*
X18076359Y-25953886D01*
X18121246Y-26101859D01*
X18194139Y-26238232D01*
X18267655Y-26327812D01*
X18277653Y-26337810D01*
X18302236Y-26367764D01*
X18421767Y-26465862D01*
X18497521Y-26506353D01*
X18476359Y-26576113D01*
X18461202Y-26730000D01*
X18476359Y-26883887D01*
X18521246Y-27031860D01*
X18594138Y-27168233D01*
X18692236Y-27287764D01*
X18811767Y-27385862D01*
X18948140Y-27458754D01*
X19096113Y-27503641D01*
X19211439Y-27515000D01*
X19221447Y-27515000D01*
X19260000Y-27518797D01*
X19298553Y-27515000D01*
X19298561Y-27515000D01*
X19413887Y-27503641D01*
X19467032Y-27487520D01*
X19494138Y-27538232D01*
X19592236Y-27657764D01*
X19711767Y-27755862D01*
X19848140Y-27828754D01*
X19996113Y-27873641D01*
X20150000Y-27888798D01*
X20303886Y-27873641D01*
X20451859Y-27828754D01*
X20588232Y-27755862D01*
X20707764Y-27657764D01*
X20805862Y-27538233D01*
X20807181Y-27535764D01*
X20866113Y-27553641D01*
X20981439Y-27565000D01*
X20991446Y-27565000D01*
X21029999Y-27568797D01*
X21068552Y-27565000D01*
X21068561Y-27565000D01*
X21183887Y-27553641D01*
X21331860Y-27508754D01*
X21468233Y-27435862D01*
X21587764Y-27337764D01*
X21685862Y-27218233D01*
X21758754Y-27081860D01*
X21803641Y-26933887D01*
X21818798Y-26780000D01*
X21804789Y-26637764D01*
X21803641Y-26626112D01*
X21792150Y-26588232D01*
X21776899Y-26537955D01*
X21818233Y-26515862D01*
X21937764Y-26417764D01*
X21962347Y-26387810D01*
X21982345Y-26367812D01*
X22055861Y-26278232D01*
X22128753Y-26141859D01*
X22173641Y-25993887D01*
X22188797Y-25840001D01*
X22173641Y-25686114D01*
X22128753Y-25538141D01*
X22055861Y-25401768D01*
X21957764Y-25282236D01*
X21870391Y-25210531D01*
X21893641Y-25133887D01*
X21908798Y-24980000D01*
X21893641Y-24826113D01*
X21848754Y-24678140D01*
X21775862Y-24541767D01*
X21677764Y-24422236D01*
X21558233Y-24324138D01*
X21421860Y-24251246D01*
X21273887Y-24206359D01*
X21158561Y-24195000D01*
X21148556Y-24195000D01*
X21110000Y-24191203D01*
X21071444Y-24195000D01*
X21071439Y-24195000D01*
X21031026Y-24198980D01*
X20956113Y-24206358D01*
X20864534Y-24234139D01*
X20850152Y-24238502D01*
X20835862Y-24211767D01*
X20737764Y-24092236D01*
X20618233Y-23994138D01*
X20481860Y-23921246D01*
X20333887Y-23876359D01*
X20180000Y-23861202D01*
X20026114Y-23876359D01*
X19878141Y-23921246D01*
X19741768Y-23994138D01*
X19622236Y-24092236D01*
X19524138Y-24211767D01*
X19504710Y-24248115D01*
X19491859Y-24241246D01*
X19343886Y-24196359D01*
X19190000Y-24181203D01*
X19036114Y-24196359D01*
X18888141Y-24241246D01*
X18751768Y-24314139D01*
X18632236Y-24412236D01*
X18534139Y-24531768D01*
X18461246Y-24668141D01*
X18416359Y-24816114D01*
X18401203Y-24970000D01*
X18416359Y-25123886D01*
X18421005Y-25139202D01*
X18411768Y-25144139D01*
X18292236Y-25242236D01*
X18194139Y-25361768D01*
X18121246Y-25498141D01*
X18076359Y-25646114D01*
X18061203Y-25800000D01*
X17127000Y-25800000D01*
X17127000Y-17363589D01*
X20115000Y-17363589D01*
X20115000Y-17636411D01*
X20168225Y-17903989D01*
X20272629Y-18156043D01*
X20424201Y-18382886D01*
X20617114Y-18575799D01*
X20843957Y-18727371D01*
X21096011Y-18831775D01*
X21363589Y-18885000D01*
X21636411Y-18885000D01*
X21903989Y-18831775D01*
X22156043Y-18727371D01*
X22382886Y-18575799D01*
X22575799Y-18382886D01*
X22727371Y-18156043D01*
X22831775Y-17903989D01*
X22885000Y-17636411D01*
X22885000Y-17363589D01*
X22831775Y-17096011D01*
X22727371Y-16843957D01*
X22575799Y-16617114D01*
X22382886Y-16424201D01*
X22156043Y-16272629D01*
X21903989Y-16168225D01*
X21636411Y-16115000D01*
X21363589Y-16115000D01*
X21096011Y-16168225D01*
X20843957Y-16272629D01*
X20617114Y-16424201D01*
X20424201Y-16617114D01*
X20272629Y-16843957D01*
X20168225Y-17096011D01*
X20115000Y-17363589D01*
X17127000Y-17363589D01*
X17127000Y-14127000D01*
X19022672Y-14127000D01*
X18994138Y-14161768D01*
G37*
X18994138Y-14161768D02*
X18921246Y-14298141D01*
X18918529Y-14307097D01*
X18891246Y-14358141D01*
X18881515Y-14390220D01*
X18861246Y-14428141D01*
X18816359Y-14576114D01*
X18816198Y-14577747D01*
X18786359Y-14676114D01*
X18775000Y-14791440D01*
X18775000Y-14791447D01*
X18771203Y-14830000D01*
X18772112Y-14839231D01*
X18765000Y-14911440D01*
X18765000Y-14911447D01*
X18761203Y-14950000D01*
X18764158Y-14980000D01*
X18761203Y-15010000D01*
X18765000Y-15048553D01*
X18765000Y-15048561D01*
X18776359Y-15163887D01*
X18778040Y-15169430D01*
X18786359Y-15253887D01*
X18831246Y-15401860D01*
X18851515Y-15439781D01*
X18861246Y-15471860D01*
X18881515Y-15509781D01*
X18891246Y-15541860D01*
X18964138Y-15678233D01*
X19062236Y-15797764D01*
X19063948Y-15799169D01*
X19074138Y-15818233D01*
X19172236Y-15937764D01*
X19202189Y-15962346D01*
X19257653Y-16017810D01*
X19282236Y-16047764D01*
X19401767Y-16145862D01*
X19538140Y-16218754D01*
X19567234Y-16227579D01*
X19588140Y-16238754D01*
X19643342Y-16255499D01*
X19668140Y-16268754D01*
X19816113Y-16313641D01*
X19870954Y-16319043D01*
X19886113Y-16323641D01*
X20001439Y-16335000D01*
X20001446Y-16335000D01*
X20039999Y-16338797D01*
X20078552Y-16335000D01*
X20161447Y-16335000D01*
X20200000Y-16338797D01*
X20238553Y-16335000D01*
X20238561Y-16335000D01*
X20353887Y-16323641D01*
X20364238Y-16320501D01*
X20433887Y-16313641D01*
X20493054Y-16295693D01*
X20513887Y-16293641D01*
X20661860Y-16248754D01*
X20729919Y-16212376D01*
X20741860Y-16208754D01*
X20813810Y-16170296D01*
X20851860Y-16158754D01*
X20988233Y-16085862D01*
X21107764Y-15987764D01*
X21132349Y-15957807D01*
X21137808Y-15952348D01*
X21167764Y-15927764D01*
X21215441Y-15869671D01*
X21217764Y-15867764D01*
X21315862Y-15748233D01*
X21317794Y-15744618D01*
X21355862Y-15698233D01*
X21428754Y-15561860D01*
X21444850Y-15508797D01*
X21473642Y-15413886D01*
X21475261Y-15397442D01*
X21476405Y-15393673D01*
X21498754Y-15351860D01*
X21516002Y-15295000D01*
X21543642Y-15203886D01*
X21552396Y-15115000D01*
X21555000Y-15088561D01*
X21555000Y-15088555D01*
X21558797Y-15050000D01*
X21556335Y-15024999D01*
X21558797Y-14999999D01*
X21555000Y-14961446D01*
X21555000Y-14961440D01*
X21543641Y-14846114D01*
X21541251Y-14838233D01*
X21534667Y-14816529D01*
X21534207Y-14811859D01*
X21533641Y-14806113D01*
X21521169Y-14765000D01*
X21512553Y-14736596D01*
X21504826Y-14658141D01*
X21503641Y-14646113D01*
X21490316Y-14602188D01*
X21485693Y-14586947D01*
X21484198Y-14571768D01*
X21483641Y-14566113D01*
X21470189Y-14521768D01*
X21438754Y-14418141D01*
X21434594Y-14410359D01*
X21418754Y-14358141D01*
X21418494Y-14357655D01*
X21345862Y-14221768D01*
X21268087Y-14127000D01*
X47313354Y-14127000D01*
X47170471Y-14155421D01*
X46941166Y-14250402D01*
X46734797Y-14388294D01*
X46559294Y-14563797D01*
X46421402Y-14770166D01*
X46380081Y-14869924D01*
X46182345Y-14672188D01*
X46157764Y-14642236D01*
X46038233Y-14544138D01*
X45901860Y-14471246D01*
X45753887Y-14426359D01*
X45638561Y-14415000D01*
X45638553Y-14415000D01*
X45600000Y-14411203D01*
X45561447Y-14415000D01*
X42438552Y-14415000D01*
X42399999Y-14411203D01*
X42361446Y-14415000D01*
X42361439Y-14415000D01*
X42246113Y-14426359D01*
X42118730Y-14465000D01*
X41998061Y-14465000D01*
X41798102Y-14504774D01*
X41609744Y-14582795D01*
X41440226Y-14696063D01*
X41296063Y-14840226D01*
X41182795Y-15009744D01*
X41104774Y-15198102D01*
X41065000Y-15398061D01*
X41065000Y-15601939D01*
X41104774Y-15801898D01*
X41182795Y-15990256D01*
X41296063Y-16159774D01*
X41440226Y-16303937D01*
X41609744Y-16417205D01*
X41798102Y-16495226D01*
X41998061Y-16535000D01*
X42201939Y-16535000D01*
X42401898Y-16495226D01*
X42590256Y-16417205D01*
X42759774Y-16303937D01*
X42903937Y-16159774D01*
X43017205Y-15990256D01*
X43019382Y-15985000D01*
X43130799Y-15985000D01*
X43070147Y-16131426D01*
X43015000Y-16408665D01*
X43015000Y-16691335D01*
X43070147Y-16968574D01*
X43178320Y-17229727D01*
X43335363Y-17464759D01*
X43501943Y-17631339D01*
X43405820Y-17660498D01*
X43295506Y-17719463D01*
X43198815Y-17798815D01*
X43119463Y-17895506D01*
X43060498Y-18005820D01*
X43024188Y-18125518D01*
X43011928Y-18250000D01*
X43011928Y-19850000D01*
X43024188Y-19974482D01*
X43060498Y-20094180D01*
X43119463Y-20204494D01*
X43198815Y-20301185D01*
X43295506Y-20380537D01*
X43405820Y-20439502D01*
X43525518Y-20475812D01*
X43650000Y-20488072D01*
X43794053Y-20488072D01*
X43794139Y-20488233D01*
X43831027Y-20533180D01*
X43867655Y-20577812D01*
X43867659Y-20577816D01*
X43892237Y-20607764D01*
X43922185Y-20632342D01*
X44617657Y-21327815D01*
X44642236Y-21357764D01*
X44672184Y-21382342D01*
X44672187Y-21382345D01*
X44689757Y-21396764D01*
X44761767Y-21455862D01*
X44882196Y-21520232D01*
X44898140Y-21528754D01*
X45046112Y-21573641D01*
X45060490Y-21575057D01*
X45161439Y-21585000D01*
X45161446Y-21585000D01*
X45199999Y-21588797D01*
X45216145Y-21587207D01*
X45189815Y-21608815D01*
X45110463Y-21705506D01*
X45051498Y-21815820D01*
X45015188Y-21935518D01*
X45002928Y-22060000D01*
X45002928Y-22392771D01*
X44582347Y-21972190D01*
X44557764Y-21942236D01*
X44438233Y-21844138D01*
X44301860Y-21771246D01*
X44153887Y-21726359D01*
X44038561Y-21715000D01*
X44038553Y-21715000D01*
X44000000Y-21711203D01*
X43961447Y-21715000D01*
X27401270Y-21715000D01*
X27421860Y-21708754D01*
X27558233Y-21635862D01*
X27677764Y-21537764D01*
X27748045Y-21452127D01*
X27764999Y-21453797D01*
X27803552Y-21450000D01*
X27813561Y-21450000D01*
X27928887Y-21438641D01*
X28076860Y-21393754D01*
X28213233Y-21320862D01*
X28332764Y-21222764D01*
X28430862Y-21103233D01*
X28503754Y-20966860D01*
X28548641Y-20818887D01*
X28563798Y-20665000D01*
X28559987Y-20626305D01*
X28598233Y-20605862D01*
X28717764Y-20507764D01*
X28815862Y-20388233D01*
X28888754Y-20251860D01*
X28933641Y-20103887D01*
X28948798Y-19950000D01*
X28933641Y-19796113D01*
X28888754Y-19648140D01*
X28815862Y-19511767D01*
X28717764Y-19392236D01*
X28644965Y-19332490D01*
X28653642Y-19303886D01*
X28668797Y-19150000D01*
X28653642Y-18996113D01*
X28608754Y-18848141D01*
X28535861Y-18711768D01*
X28437764Y-18592236D01*
X28318232Y-18494139D01*
X28181859Y-18421246D01*
X28033887Y-18376358D01*
X27880000Y-18361203D01*
X27794132Y-18369659D01*
X27697764Y-18252236D01*
X27578233Y-18154138D01*
X27441860Y-18081246D01*
X27293887Y-18036359D01*
X27140000Y-18021202D01*
X26986114Y-18036359D01*
X26838141Y-18081246D01*
X26701768Y-18154138D01*
X26582236Y-18252236D01*
X26514313Y-18334999D01*
X26425000Y-18326203D01*
X26271114Y-18341359D01*
X26123141Y-18386246D01*
X25986768Y-18459139D01*
X25867236Y-18557236D01*
X25769139Y-18676768D01*
X25696246Y-18813141D01*
X25651359Y-18961114D01*
X25636203Y-19115000D01*
X25651359Y-19268886D01*
X25653403Y-19275623D01*
X25572236Y-19342236D01*
X25474138Y-19461767D01*
X25401246Y-19598140D01*
X25359544Y-19735614D01*
X25331775Y-19596011D01*
X25227371Y-19343957D01*
X25075799Y-19117114D01*
X24882886Y-18924201D01*
X24656043Y-18772629D01*
X24403989Y-18668225D01*
X24136411Y-18615000D01*
X23863589Y-18615000D01*
X23596011Y-18668225D01*
X23343957Y-18772629D01*
X23117114Y-18924201D01*
X22924201Y-19117114D01*
X22772629Y-19343957D01*
X22668225Y-19596011D01*
X22615000Y-19863589D01*
X22615000Y-20136411D01*
X22668225Y-20403989D01*
X22772629Y-20656043D01*
X22924201Y-20882886D01*
X23117114Y-21075799D01*
X23343957Y-21227371D01*
X23596011Y-21331775D01*
X23863589Y-21385000D01*
X24136411Y-21385000D01*
X24403989Y-21331775D01*
X24656043Y-21227371D01*
X24882886Y-21075799D01*
X25075799Y-20882886D01*
X25227371Y-20656043D01*
X25331775Y-20403989D01*
X25383571Y-20143594D01*
X25401246Y-20201860D01*
X25474138Y-20338233D01*
X25572236Y-20457764D01*
X25621250Y-20497989D01*
X25611202Y-20600000D01*
X25626359Y-20753887D01*
X25671246Y-20901860D01*
X25744138Y-21038233D01*
X25842236Y-21157764D01*
X25961767Y-21255862D01*
X26098140Y-21328754D01*
X26246113Y-21373641D01*
X26361439Y-21385000D01*
X26381447Y-21385000D01*
X26420000Y-21388797D01*
X26446984Y-21386139D01*
X26464138Y-21418233D01*
X26562236Y-21537764D01*
X26681768Y-21635862D01*
X26818141Y-21708754D01*
X26838731Y-21715000D01*
X22641204Y-21715000D01*
X22575799Y-21617114D01*
X22382886Y-21424201D01*
X22156043Y-21272629D01*
X21903989Y-21168225D01*
X21636411Y-21115000D01*
X21363589Y-21115000D01*
X21096011Y-21168225D01*
X20843957Y-21272629D01*
X20617114Y-21424201D01*
X20424201Y-21617114D01*
X20272629Y-21843957D01*
X20168225Y-22096011D01*
X20115000Y-22363589D01*
X20115000Y-22636411D01*
X20168225Y-22903989D01*
X20272629Y-23156043D01*
X20424201Y-23382886D01*
X20617114Y-23575799D01*
X20843957Y-23727371D01*
X21096011Y-23831775D01*
X21363589Y-23885000D01*
X21636411Y-23885000D01*
X21903989Y-23831775D01*
X22156043Y-23727371D01*
X22382886Y-23575799D01*
X22575799Y-23382886D01*
X22641204Y-23285000D01*
X43674843Y-23285000D01*
X44215001Y-23825158D01*
X44215000Y-24711447D01*
X44211203Y-24750000D01*
X44215000Y-24788553D01*
X44215000Y-24788560D01*
X44220159Y-24840935D01*
X44216862Y-24834767D01*
X44173108Y-24781454D01*
X44154436Y-24757689D01*
X44148650Y-24751652D01*
X44118764Y-24715236D01*
X44095275Y-24695958D01*
X44074253Y-24674024D01*
X44035660Y-24647033D01*
X43999233Y-24617138D01*
X43972426Y-24602809D01*
X43947537Y-24585403D01*
X43904416Y-24566458D01*
X43862860Y-24544246D01*
X43833785Y-24535426D01*
X43805966Y-24523204D01*
X43759967Y-24513034D01*
X43714887Y-24499359D01*
X43684643Y-24496380D01*
X43654981Y-24489822D01*
X43607891Y-24488820D01*
X43599561Y-24488000D01*
X43569314Y-24488000D01*
X43565072Y-24487910D01*
X43565072Y-24123000D01*
X43556390Y-24018102D01*
X43523832Y-23897329D01*
X43468338Y-23785229D01*
X43392041Y-23686110D01*
X43297872Y-23603779D01*
X43189451Y-23541403D01*
X43070944Y-23501376D01*
X42946905Y-23485239D01*
X42822102Y-23493610D01*
X39222102Y-24093610D01*
X39082820Y-24133498D01*
X38972506Y-24192463D01*
X38875815Y-24271815D01*
X38796463Y-24368506D01*
X38737498Y-24478820D01*
X38701188Y-24598518D01*
X38688928Y-24723000D01*
X38688928Y-25823000D01*
X38705376Y-25966944D01*
X38745403Y-26085451D01*
X38807779Y-26193872D01*
X38890110Y-26288041D01*
X38989229Y-26364338D01*
X39101329Y-26419832D01*
X39222102Y-26452390D01*
X42822102Y-27052390D01*
X42927000Y-27061072D01*
X43051482Y-27048812D01*
X43171180Y-27012502D01*
X43281494Y-26953537D01*
X43378185Y-26874185D01*
X43457537Y-26777494D01*
X43516502Y-26667180D01*
X43552812Y-26547482D01*
X43554064Y-26534765D01*
X43773928Y-26814592D01*
X43773928Y-27851000D01*
X43786188Y-27975482D01*
X43822498Y-28095180D01*
X43881463Y-28205494D01*
X43960815Y-28302185D01*
X44057506Y-28381537D01*
X44167820Y-28440502D01*
X44287518Y-28476812D01*
X44412000Y-28489072D01*
X46012000Y-28489072D01*
X46136482Y-28476812D01*
X46256180Y-28440502D01*
X46366494Y-28381537D01*
X46463185Y-28302185D01*
X46542537Y-28205494D01*
X46601502Y-28095180D01*
X46630661Y-27999057D01*
X46797241Y-28165637D01*
X47032273Y-28322680D01*
X47293426Y-28430853D01*
X47570665Y-28486000D01*
X47853335Y-28486000D01*
X48130574Y-28430853D01*
X48391727Y-28322680D01*
X48626759Y-28165637D01*
X48826637Y-27965759D01*
X48983680Y-27730727D01*
X49091853Y-27469574D01*
X49147000Y-27192335D01*
X49147000Y-26909665D01*
X49091853Y-26632426D01*
X48983680Y-26371273D01*
X48839171Y-26155000D01*
X49766776Y-26155000D01*
X49653748Y-26268028D01*
X49515856Y-26474397D01*
X49420875Y-26703702D01*
X49372454Y-26947132D01*
X49372454Y-27195330D01*
X49420875Y-27438760D01*
X49515856Y-27668065D01*
X49653748Y-27874434D01*
X49829251Y-28049937D01*
X50035620Y-28187829D01*
X50264925Y-28282810D01*
X50508355Y-28331231D01*
X50756553Y-28331231D01*
X50998251Y-28283155D01*
X50885797Y-28358294D01*
X50710294Y-28533797D01*
X50572402Y-28740166D01*
X50477421Y-28969471D01*
X50429000Y-29212901D01*
X50429000Y-29461099D01*
X50477421Y-29704529D01*
X50572402Y-29933834D01*
X50710294Y-30140203D01*
X50885797Y-30315706D01*
X51092166Y-30453598D01*
X51321471Y-30548579D01*
X51564901Y-30597000D01*
X51813099Y-30597000D01*
X52056529Y-30548579D01*
X52285834Y-30453598D01*
X52492203Y-30315706D01*
X52667706Y-30140203D01*
X52805598Y-29933834D01*
X52900579Y-29704529D01*
X52949000Y-29461099D01*
X52949000Y-29212901D01*
X52900579Y-28969471D01*
X52805598Y-28740166D01*
X52667706Y-28533797D01*
X52492203Y-28358294D01*
X52285834Y-28220402D01*
X52056529Y-28125421D01*
X51813099Y-28077000D01*
X51564901Y-28077000D01*
X51323203Y-28125076D01*
X51435657Y-28049937D01*
X51611160Y-27874434D01*
X51749052Y-27668065D01*
X51844033Y-27438760D01*
X51892454Y-27195330D01*
X51892454Y-26947132D01*
X51844033Y-26703702D01*
X51752986Y-26483895D01*
X51901797Y-26632706D01*
X51918760Y-26644040D01*
X51916203Y-26670000D01*
X51931359Y-26823886D01*
X51976246Y-26971859D01*
X52010177Y-27035340D01*
X52049139Y-27108233D01*
X52082394Y-27148754D01*
X52122655Y-27197812D01*
X52122659Y-27197816D01*
X52147237Y-27227764D01*
X52177185Y-27252342D01*
X52725653Y-27800810D01*
X52750236Y-27830764D01*
X52869767Y-27928862D01*
X53006140Y-28001754D01*
X53121928Y-28036879D01*
X53121928Y-28273000D01*
X53134188Y-28397482D01*
X53170498Y-28517180D01*
X53229463Y-28627494D01*
X53308815Y-28724185D01*
X53405506Y-28803537D01*
X53515820Y-28862502D01*
X53635518Y-28898812D01*
X53760000Y-28911072D01*
X55460000Y-28911072D01*
X55584482Y-28898812D01*
X55704180Y-28862502D01*
X55814494Y-28803537D01*
X55911185Y-28724185D01*
X55990537Y-28627494D01*
X56049502Y-28517180D01*
X56085812Y-28397482D01*
X56098072Y-28273000D01*
X56098072Y-28058000D01*
X56635447Y-28058000D01*
X56674000Y-28061797D01*
X56712553Y-28058000D01*
X56712561Y-28058000D01*
X56827887Y-28046641D01*
X56975860Y-28001754D01*
X57112233Y-27928862D01*
X57231764Y-27830764D01*
X57256347Y-27800810D01*
X57420157Y-27637000D01*
X58270001Y-27637000D01*
X58270000Y-29806447D01*
X58266203Y-29845000D01*
X58270000Y-29883553D01*
X58270000Y-29883560D01*
X58281359Y-29998886D01*
X58291211Y-30031363D01*
X58194180Y-29979498D01*
X58074482Y-29943188D01*
X57950000Y-29930928D01*
X56350000Y-29930928D01*
X56225518Y-29943188D01*
X56105820Y-29979498D01*
X55995506Y-30038463D01*
X55898815Y-30117815D01*
X55819463Y-30214506D01*
X55760498Y-30324820D01*
X55731339Y-30420943D01*
X55564759Y-30254363D01*
X55329727Y-30097320D01*
X55068574Y-29989147D01*
X54791335Y-29934000D01*
X54508665Y-29934000D01*
X54231426Y-29989147D01*
X53970273Y-30097320D01*
X53735241Y-30254363D01*
X53535363Y-30454241D01*
X53378320Y-30689273D01*
X53270147Y-30950426D01*
X53215000Y-31227665D01*
X53215000Y-31510335D01*
X53270147Y-31787574D01*
X53378320Y-32048727D01*
X53535363Y-32283759D01*
X53735241Y-32483637D01*
X53970273Y-32640680D01*
X54231426Y-32748853D01*
X54508665Y-32804000D01*
X54791335Y-32804000D01*
X55068574Y-32748853D01*
X55329727Y-32640680D01*
X55564759Y-32483637D01*
X55731339Y-32317057D01*
X55760498Y-32413180D01*
X55819463Y-32523494D01*
X55898815Y-32620185D01*
X55995506Y-32699537D01*
X56105820Y-32758502D01*
X56225518Y-32794812D01*
X56350000Y-32807072D01*
X57950000Y-32807072D01*
X58074482Y-32794812D01*
X58194180Y-32758502D01*
X58304494Y-32699537D01*
X58401185Y-32620185D01*
X58480537Y-32523494D01*
X58539502Y-32413180D01*
X58575812Y-32293482D01*
X58588072Y-32169000D01*
X58588072Y-32154000D01*
X58762447Y-32154000D01*
X58801000Y-32157797D01*
X58839553Y-32154000D01*
X58839561Y-32154000D01*
X58954887Y-32142641D01*
X59102860Y-32097754D01*
X59239233Y-32024862D01*
X59358764Y-31926764D01*
X59383347Y-31896810D01*
X60015157Y-31265000D01*
X60507843Y-31265000D01*
X61191001Y-31948159D01*
X61191000Y-34285063D01*
X61156860Y-34307875D01*
X60977875Y-34486860D01*
X60837247Y-34697324D01*
X60740381Y-34931179D01*
X60691000Y-35179439D01*
X60691000Y-35432561D01*
X60711774Y-35537000D01*
X53080226Y-35537000D01*
X53101000Y-35432561D01*
X53101000Y-35179439D01*
X53051619Y-34931179D01*
X52954753Y-34697324D01*
X52814125Y-34486860D01*
X52635140Y-34307875D01*
X52546786Y-34248839D01*
X52544754Y-34242140D01*
X52539823Y-34232915D01*
X52471862Y-34105767D01*
X52373764Y-33986236D01*
X52343811Y-33961654D01*
X52018361Y-33636204D01*
X52034537Y-33616494D01*
X52093502Y-33506180D01*
X52129812Y-33386482D01*
X52142072Y-33262000D01*
X52142072Y-31762000D01*
X52129812Y-31637518D01*
X52093502Y-31517820D01*
X52034537Y-31407506D01*
X51955185Y-31310815D01*
X51858494Y-31231463D01*
X51748180Y-31172498D01*
X51628482Y-31136188D01*
X51504000Y-31123928D01*
X50604000Y-31123928D01*
X50479518Y-31136188D01*
X50359820Y-31172498D01*
X50249506Y-31231463D01*
X50152815Y-31310815D01*
X50073463Y-31407506D01*
X50014498Y-31517820D01*
X49978188Y-31637518D01*
X49965928Y-31762000D01*
X49965928Y-32126094D01*
X49800000Y-32109751D01*
X49596156Y-32129828D01*
X49583300Y-31999303D01*
X49521259Y-31794780D01*
X49420509Y-31606290D01*
X49284922Y-31441078D01*
X49119710Y-31305491D01*
X48931219Y-31204741D01*
X48726696Y-31142700D01*
X48514000Y-31121751D01*
X48301303Y-31142700D01*
X48096780Y-31204741D01*
X47908290Y-31305491D01*
X47743078Y-31441078D01*
X47607491Y-31606290D01*
X47542971Y-31727000D01*
X47061158Y-31727000D01*
X46679588Y-31345430D01*
X46726000Y-31112099D01*
X46726000Y-30863901D01*
X46677579Y-30620471D01*
X46582598Y-30391166D01*
X46444706Y-30184797D01*
X46269203Y-30009294D01*
X46062834Y-29871402D01*
X45833529Y-29776421D01*
X45590099Y-29728000D01*
X45341901Y-29728000D01*
X45098471Y-29776421D01*
X44869166Y-29871402D01*
X44662797Y-30009294D01*
X44487294Y-30184797D01*
X44349402Y-30391166D01*
X44254421Y-30620471D01*
X44206000Y-30863901D01*
X44206000Y-31112099D01*
X44254421Y-31355529D01*
X44349402Y-31584834D01*
X44487294Y-31791203D01*
X44662797Y-31966706D01*
X44869166Y-32104598D01*
X45098471Y-32199579D01*
X45291627Y-32238000D01*
X45098471Y-32276421D01*
X44869166Y-32371402D01*
X44742317Y-32456160D01*
X42949000Y-30662843D01*
X42949000Y-29502556D01*
X42952797Y-29464000D01*
X42949000Y-29425444D01*
X42949000Y-29425439D01*
X42939786Y-29331886D01*
X42937642Y-29310113D01*
X42892754Y-29162140D01*
X42868223Y-29116246D01*
X42819862Y-29025767D01*
X42721764Y-28906236D01*
X42691810Y-28881653D01*
X41857347Y-28047190D01*
X41832764Y-28017236D01*
X41713233Y-27919138D01*
X41576860Y-27846246D01*
X41428887Y-27801359D01*
X41313561Y-27790000D01*
X41313553Y-27790000D01*
X41275000Y-27786203D01*
X41236447Y-27790000D01*
X36741556Y-27790000D01*
X36703000Y-27786203D01*
X36664444Y-27790000D01*
X36664439Y-27790000D01*
X36624026Y-27793980D01*
X36549113Y-27801358D01*
X36401578Y-27846113D01*
X36401140Y-27846246D01*
X36264767Y-27919138D01*
X36145236Y-28017236D01*
X36120653Y-28047190D01*
X35572190Y-28595653D01*
X35542236Y-28620236D01*
X35444138Y-28739768D01*
X35371246Y-28876141D01*
X35336122Y-28991928D01*
X35100000Y-28991928D01*
X34975518Y-29004188D01*
X34855820Y-29040498D01*
X34745506Y-29099463D01*
X34648815Y-29178815D01*
X34569463Y-29275506D01*
X34510498Y-29385820D01*
X34474188Y-29505518D01*
X34461928Y-29630000D01*
X34461928Y-31330000D01*
X34474188Y-31454482D01*
X34510498Y-31574180D01*
X34569463Y-31684494D01*
X34648815Y-31781185D01*
X34735521Y-31852343D01*
X34694138Y-31902768D01*
X34621246Y-32039141D01*
X34621007Y-32039928D01*
X33700000Y-32039928D01*
X33575518Y-32052188D01*
X33455820Y-32088498D01*
X33345506Y-32147463D01*
X33248815Y-32226815D01*
X33169463Y-32323506D01*
X33110498Y-32433820D01*
X33074188Y-32553518D01*
X33061928Y-32678000D01*
X33061928Y-34378000D01*
X33074188Y-34502482D01*
X33110498Y-34622180D01*
X33169463Y-34732494D01*
X33248815Y-34829185D01*
X33345506Y-34908537D01*
X33455820Y-34967502D01*
X33575518Y-35003812D01*
X33700000Y-35016072D01*
X34151383Y-35016072D01*
X34148928Y-35041000D01*
X34148928Y-36584928D01*
X33074382Y-36584928D01*
X32989031Y-36425248D01*
X32784714Y-36176286D01*
X32535752Y-35971969D01*
X32251715Y-35820148D01*
X31943516Y-35726657D01*
X31703322Y-35703000D01*
X29543898Y-35703000D01*
X29674463Y-35648918D01*
X29942252Y-35469987D01*
X30169987Y-35242252D01*
X30348918Y-34974463D01*
X30472168Y-34676912D01*
X30535000Y-34361033D01*
X30535000Y-34038967D01*
X30472168Y-33723088D01*
X30348918Y-33425537D01*
X30169987Y-33157748D01*
X29942252Y-32930013D01*
X29942233Y-32930000D01*
X29942252Y-32929987D01*
X30169987Y-32702252D01*
X30348918Y-32434463D01*
X30472168Y-32136912D01*
X30535000Y-31821033D01*
X30535000Y-31498967D01*
X30472168Y-31183088D01*
X30348918Y-30885537D01*
X30198995Y-30661162D01*
X32075157Y-28785000D01*
X34711447Y-28785000D01*
X34750000Y-28788797D01*
X34788553Y-28785000D01*
X34788561Y-28785000D01*
X34903887Y-28773641D01*
X35051860Y-28728754D01*
X35188233Y-28655862D01*
X35307764Y-28557764D01*
X35332347Y-28527810D01*
X35777806Y-28082350D01*
X35807764Y-28057764D01*
X35905862Y-27938233D01*
X35978754Y-27801860D01*
X35982352Y-27790000D01*
X36023642Y-27653887D01*
X36032714Y-27561767D01*
X36035000Y-27538561D01*
X36035000Y-27538556D01*
X36038797Y-27500000D01*
X36035000Y-27461444D01*
X36035000Y-26651873D01*
X37231898Y-26452390D01*
X37371180Y-26412502D01*
X37481494Y-26353537D01*
X37578185Y-26274185D01*
X37657537Y-26177494D01*
X37716502Y-26067180D01*
X37752812Y-25947482D01*
X37765072Y-25823000D01*
X37765072Y-24723000D01*
X37748624Y-24579056D01*
X37708597Y-24460549D01*
X37646221Y-24352128D01*
X37563890Y-24257959D01*
X37464771Y-24181662D01*
X37352671Y-24126168D01*
X37231898Y-24093610D01*
X33631898Y-23493610D01*
X33527000Y-23484928D01*
X33402518Y-23497188D01*
X33282820Y-23533498D01*
X33172506Y-23592463D01*
X33075815Y-23671815D01*
X32996463Y-23768506D01*
X32937498Y-23878820D01*
X32901188Y-23998518D01*
X32888928Y-24123000D01*
X32888928Y-26423000D01*
X32897610Y-26527898D01*
X32930168Y-26648671D01*
X32985662Y-26760771D01*
X33061959Y-26859890D01*
X33156128Y-26942221D01*
X33264549Y-27004597D01*
X33383056Y-27044624D01*
X33507095Y-27060761D01*
X33631898Y-27052390D01*
X34465000Y-26913540D01*
X34465000Y-27174843D01*
X34424843Y-27215000D01*
X31788556Y-27215000D01*
X31750000Y-27211203D01*
X31711444Y-27215000D01*
X31711439Y-27215000D01*
X31672889Y-27218797D01*
X31596113Y-27226358D01*
X31448140Y-27271246D01*
X31311767Y-27344138D01*
X31306633Y-27348351D01*
X31363464Y-27263298D01*
X31564508Y-26777935D01*
X31667000Y-26262677D01*
X31667000Y-25737323D01*
X31564508Y-25222065D01*
X31363464Y-24736702D01*
X31071594Y-24299887D01*
X30700113Y-23928406D01*
X30263298Y-23636536D01*
X29777935Y-23435492D01*
X29262677Y-23333000D01*
X28737323Y-23333000D01*
X28222065Y-23435492D01*
X27736702Y-23636536D01*
X27299887Y-23928406D01*
X26928406Y-24299887D01*
X26636536Y-24736702D01*
X26435492Y-25222065D01*
X26333000Y-25737323D01*
X26333000Y-26262677D01*
X26435492Y-26777935D01*
X26636536Y-27263298D01*
X26928406Y-27700113D01*
X27299887Y-28071594D01*
X27736702Y-28363464D01*
X28222065Y-28564508D01*
X28737323Y-28667000D01*
X29262677Y-28667000D01*
X29777935Y-28564508D01*
X30263298Y-28363464D01*
X30302720Y-28337123D01*
X28972193Y-29667650D01*
X28972187Y-29667655D01*
X28584022Y-30055820D01*
X28423088Y-30087832D01*
X28125537Y-30211082D01*
X27857748Y-30390013D01*
X27630013Y-30617748D01*
X27458123Y-30875000D01*
X26290552Y-30875000D01*
X26251999Y-30871203D01*
X26213446Y-30875000D01*
X26213439Y-30875000D01*
X26112490Y-30884943D01*
X26098112Y-30886359D01*
X26072113Y-30894246D01*
X25950140Y-30931246D01*
X25813767Y-31004138D01*
X25771536Y-31038797D01*
X25724187Y-31077655D01*
X25724184Y-31077658D01*
X25694236Y-31102236D01*
X25669658Y-31132184D01*
X25493040Y-31308802D01*
X24084925Y-29900687D01*
X24033714Y-29838286D01*
X23784752Y-29633969D01*
X23500715Y-29482148D01*
X23192516Y-29388657D01*
X23126465Y-29382152D01*
X23125812Y-29375518D01*
X23089502Y-29255820D01*
X23030537Y-29145506D01*
X22951185Y-29048815D01*
X22854494Y-28969463D01*
X22744180Y-28910498D01*
X22624482Y-28874188D01*
X22500000Y-28861928D01*
X19500000Y-28861928D01*
X19375518Y-28874188D01*
X19255820Y-28910498D01*
X19145506Y-28969463D01*
X19048815Y-29048815D01*
X18969463Y-29145506D01*
X18910498Y-29255820D01*
X18874188Y-29375518D01*
X18861928Y-29500000D01*
X18861928Y-32500000D01*
X18874188Y-32624482D01*
X18910498Y-32744180D01*
X18969463Y-32854494D01*
X19048815Y-32951185D01*
X19145506Y-33030537D01*
X19255820Y-33089502D01*
X19375518Y-33125812D01*
X19500000Y-33138072D01*
X22500000Y-33138072D01*
X22624482Y-33125812D01*
X22671355Y-33111593D01*
X23257001Y-33697239D01*
X23257000Y-34971680D01*
X23249089Y-35052000D01*
X23257000Y-35132319D01*
X23257000Y-35132321D01*
X23280657Y-35372515D01*
X23374148Y-35680714D01*
X23525969Y-35964751D01*
X23730286Y-36213714D01*
X23792687Y-36264925D01*
X25965080Y-38437318D01*
X26016286Y-38499714D01*
X26265248Y-38704031D01*
X26549285Y-38855852D01*
X26605814Y-38873000D01*
X17127000Y-38873000D01*
X17127000Y-35869721D01*
X18865000Y-35869721D01*
X18865000Y-36290279D01*
X18947047Y-36702756D01*
X19107988Y-37091302D01*
X19341637Y-37440983D01*
X19639017Y-37738363D01*
X19988698Y-37972012D01*
X20377244Y-38132953D01*
X20789721Y-38215000D01*
X21210279Y-38215000D01*
X21622756Y-38132953D01*
X22011302Y-37972012D01*
X22360983Y-37738363D01*
X22658363Y-37440983D01*
X22892012Y-37091302D01*
X23052953Y-36702756D01*
X23135000Y-36290279D01*
X23135000Y-35869721D01*
X23052953Y-35457244D01*
X22892012Y-35068698D01*
X22658363Y-34719017D01*
X22360983Y-34421637D01*
X22011302Y-34187988D01*
X21622756Y-34027047D01*
X21210279Y-33945000D01*
X20789721Y-33945000D01*
X20377244Y-34027047D01*
X19988698Y-34187988D01*
X19639017Y-34421637D01*
X19341637Y-34719017D01*
X19107988Y-35068698D01*
X18947047Y-35457244D01*
X18865000Y-35869721D01*
X17127000Y-35869721D01*
X17127000Y-25800000D01*
X18061203Y-25800000D01*
X18076359Y-25953886D01*
X18121246Y-26101859D01*
X18194139Y-26238232D01*
X18267655Y-26327812D01*
X18277653Y-26337810D01*
X18302236Y-26367764D01*
X18421767Y-26465862D01*
X18497521Y-26506353D01*
X18476359Y-26576113D01*
X18461202Y-26730000D01*
X18476359Y-26883887D01*
X18521246Y-27031860D01*
X18594138Y-27168233D01*
X18692236Y-27287764D01*
X18811767Y-27385862D01*
X18948140Y-27458754D01*
X19096113Y-27503641D01*
X19211439Y-27515000D01*
X19221447Y-27515000D01*
X19260000Y-27518797D01*
X19298553Y-27515000D01*
X19298561Y-27515000D01*
X19413887Y-27503641D01*
X19467032Y-27487520D01*
X19494138Y-27538232D01*
X19592236Y-27657764D01*
X19711767Y-27755862D01*
X19848140Y-27828754D01*
X19996113Y-27873641D01*
X20150000Y-27888798D01*
X20303886Y-27873641D01*
X20451859Y-27828754D01*
X20588232Y-27755862D01*
X20707764Y-27657764D01*
X20805862Y-27538233D01*
X20807181Y-27535764D01*
X20866113Y-27553641D01*
X20981439Y-27565000D01*
X20991446Y-27565000D01*
X21029999Y-27568797D01*
X21068552Y-27565000D01*
X21068561Y-27565000D01*
X21183887Y-27553641D01*
X21331860Y-27508754D01*
X21468233Y-27435862D01*
X21587764Y-27337764D01*
X21685862Y-27218233D01*
X21758754Y-27081860D01*
X21803641Y-26933887D01*
X21818798Y-26780000D01*
X21804789Y-26637764D01*
X21803641Y-26626112D01*
X21792150Y-26588232D01*
X21776899Y-26537955D01*
X21818233Y-26515862D01*
X21937764Y-26417764D01*
X21962347Y-26387810D01*
X21982345Y-26367812D01*
X22055861Y-26278232D01*
X22128753Y-26141859D01*
X22173641Y-25993887D01*
X22188797Y-25840001D01*
X22173641Y-25686114D01*
X22128753Y-25538141D01*
X22055861Y-25401768D01*
X21957764Y-25282236D01*
X21870391Y-25210531D01*
X21893641Y-25133887D01*
X21908798Y-24980000D01*
X21893641Y-24826113D01*
X21848754Y-24678140D01*
X21775862Y-24541767D01*
X21677764Y-24422236D01*
X21558233Y-24324138D01*
X21421860Y-24251246D01*
X21273887Y-24206359D01*
X21158561Y-24195000D01*
X21148556Y-24195000D01*
X21110000Y-24191203D01*
X21071444Y-24195000D01*
X21071439Y-24195000D01*
X21031026Y-24198980D01*
X20956113Y-24206358D01*
X20864534Y-24234139D01*
X20850152Y-24238502D01*
X20835862Y-24211767D01*
X20737764Y-24092236D01*
X20618233Y-23994138D01*
X20481860Y-23921246D01*
X20333887Y-23876359D01*
X20180000Y-23861202D01*
X20026114Y-23876359D01*
X19878141Y-23921246D01*
X19741768Y-23994138D01*
X19622236Y-24092236D01*
X19524138Y-24211767D01*
X19504710Y-24248115D01*
X19491859Y-24241246D01*
X19343886Y-24196359D01*
X19190000Y-24181203D01*
X19036114Y-24196359D01*
X18888141Y-24241246D01*
X18751768Y-24314139D01*
X18632236Y-24412236D01*
X18534139Y-24531768D01*
X18461246Y-24668141D01*
X18416359Y-24816114D01*
X18401203Y-24970000D01*
X18416359Y-25123886D01*
X18421005Y-25139202D01*
X18411768Y-25144139D01*
X18292236Y-25242236D01*
X18194139Y-25361768D01*
X18121246Y-25498141D01*
X18076359Y-25646114D01*
X18061203Y-25800000D01*
X17127000Y-25800000D01*
X17127000Y-17363589D01*
X20115000Y-17363589D01*
X20115000Y-17636411D01*
X20168225Y-17903989D01*
X20272629Y-18156043D01*
X20424201Y-18382886D01*
X20617114Y-18575799D01*
X20843957Y-18727371D01*
X21096011Y-18831775D01*
X21363589Y-18885000D01*
X21636411Y-18885000D01*
X21903989Y-18831775D01*
X22156043Y-18727371D01*
X22382886Y-18575799D01*
X22575799Y-18382886D01*
X22727371Y-18156043D01*
X22831775Y-17903989D01*
X22885000Y-17636411D01*
X22885000Y-17363589D01*
X22831775Y-17096011D01*
X22727371Y-16843957D01*
X22575799Y-16617114D01*
X22382886Y-16424201D01*
X22156043Y-16272629D01*
X21903989Y-16168225D01*
X21636411Y-16115000D01*
X21363589Y-16115000D01*
X21096011Y-16168225D01*
X20843957Y-16272629D01*
X20617114Y-16424201D01*
X20424201Y-16617114D01*
X20272629Y-16843957D01*
X20168225Y-17096011D01*
X20115000Y-17363589D01*
X17127000Y-17363589D01*
X17127000Y-14127000D01*
X19022672Y-14127000D01*
X18994138Y-14161768D01*
G36*
X79873000Y-38873000D02*
G01*
X73780045Y-38873000D01*
X73824925Y-38818314D01*
X74505166Y-38138072D01*
X77500000Y-38138072D01*
X77624482Y-38125812D01*
X77744180Y-38089502D01*
X77854494Y-38030537D01*
X77951185Y-37951185D01*
X78030537Y-37854494D01*
X78089502Y-37744180D01*
X78125812Y-37624482D01*
X78138072Y-37500000D01*
X78138072Y-34500000D01*
X78125812Y-34375518D01*
X78089502Y-34255820D01*
X78030537Y-34145506D01*
X77951185Y-34048815D01*
X77854494Y-33969463D01*
X77744180Y-33910498D01*
X77624482Y-33874188D01*
X77500000Y-33861928D01*
X74500000Y-33861928D01*
X74375518Y-33874188D01*
X74255820Y-33910498D01*
X74145506Y-33969463D01*
X74048815Y-34048815D01*
X73969463Y-34145506D01*
X73910498Y-34255820D01*
X73874188Y-34375518D01*
X73868657Y-34431680D01*
X73702285Y-34482148D01*
X73418248Y-34633969D01*
X73169286Y-34838286D01*
X73118079Y-34900682D01*
X71934762Y-36084000D01*
X66921280Y-36084000D01*
X66942252Y-36069987D01*
X67169987Y-35842252D01*
X67348918Y-35574463D01*
X67472168Y-35276912D01*
X67535000Y-34961033D01*
X67535000Y-34638967D01*
X67472168Y-34323088D01*
X67348918Y-34025537D01*
X67169987Y-33757748D01*
X66942252Y-33530013D01*
X66942233Y-33530000D01*
X66942252Y-33529987D01*
X67169987Y-33302252D01*
X67348918Y-33034463D01*
X67472168Y-32736912D01*
X67535000Y-32421033D01*
X67535000Y-32098967D01*
X67472168Y-31783088D01*
X67348918Y-31485537D01*
X67169987Y-31217748D01*
X66942252Y-30990013D01*
X66674463Y-30811082D01*
X66429757Y-30709721D01*
X73865000Y-30709721D01*
X73865000Y-31130279D01*
X73947047Y-31542756D01*
X74107988Y-31931302D01*
X74341637Y-32280983D01*
X74639017Y-32578363D01*
X74988698Y-32812012D01*
X75377244Y-32972953D01*
X75789721Y-33055000D01*
X76210279Y-33055000D01*
X76622756Y-32972953D01*
X77011302Y-32812012D01*
X77360983Y-32578363D01*
X77658363Y-32280983D01*
X77892012Y-31931302D01*
X78052953Y-31542756D01*
X78135000Y-31130279D01*
X78135000Y-30709721D01*
X78052953Y-30297244D01*
X77892012Y-29908698D01*
X77658363Y-29559017D01*
X77360983Y-29261637D01*
X77011302Y-29027988D01*
X76622756Y-28867047D01*
X76210279Y-28785000D01*
X75789721Y-28785000D01*
X75377244Y-28867047D01*
X74988698Y-29027988D01*
X74639017Y-29261637D01*
X74341637Y-29559017D01*
X74107988Y-29908698D01*
X73947047Y-30297244D01*
X73865000Y-30709721D01*
X66429757Y-30709721D01*
X66376912Y-30687832D01*
X66061033Y-30625000D01*
X65738967Y-30625000D01*
X65423088Y-30687832D01*
X65125537Y-30811082D01*
X64857748Y-30990013D01*
X64630013Y-31217748D01*
X64451082Y-31485537D01*
X64412000Y-31579889D01*
X64412000Y-30056552D01*
X64415797Y-30017999D01*
X64412000Y-29979446D01*
X64412000Y-29979439D01*
X64400641Y-29864113D01*
X64355754Y-29716140D01*
X64282862Y-29579767D01*
X64223850Y-29507862D01*
X64209345Y-29490187D01*
X64209342Y-29490184D01*
X64184764Y-29460236D01*
X64154815Y-29435658D01*
X63571158Y-28852000D01*
X64027817Y-28395341D01*
X64057764Y-28370764D01*
X64090209Y-28331231D01*
X64120570Y-28294236D01*
X64155862Y-28251233D01*
X64228754Y-28114860D01*
X64237205Y-28087000D01*
X64273642Y-27966887D01*
X64284627Y-27855345D01*
X64285000Y-27851561D01*
X64285000Y-27851556D01*
X64288797Y-27813000D01*
X64285000Y-27774444D01*
X64285000Y-25737323D01*
X65333000Y-25737323D01*
X65333000Y-26262677D01*
X65435492Y-26777935D01*
X65636536Y-27263298D01*
X65928406Y-27700113D01*
X66299887Y-28071594D01*
X66385726Y-28128950D01*
X66444139Y-28238232D01*
X66542236Y-28357764D01*
X66661768Y-28455861D01*
X66798141Y-28528754D01*
X66946114Y-28573641D01*
X67100000Y-28588797D01*
X67253886Y-28573641D01*
X67259467Y-28571948D01*
X67737323Y-28667000D01*
X68262677Y-28667000D01*
X68777935Y-28564508D01*
X69263298Y-28363464D01*
X69700113Y-28071594D01*
X70071594Y-27700113D01*
X70363464Y-27263298D01*
X70564508Y-26777935D01*
X70667000Y-26262677D01*
X70667000Y-25737323D01*
X70564508Y-25222065D01*
X70363464Y-24736702D01*
X70071594Y-24299887D01*
X69700113Y-23928406D01*
X69263298Y-23636536D01*
X68777935Y-23435492D01*
X68262677Y-23333000D01*
X67737323Y-23333000D01*
X67222065Y-23435492D01*
X66736702Y-23636536D01*
X66299887Y-23928406D01*
X65928406Y-24299887D01*
X65636536Y-24736702D01*
X65435492Y-25222065D01*
X65333000Y-25737323D01*
X64285000Y-25737323D01*
X64285000Y-16856967D01*
X66183000Y-16856967D01*
X66183000Y-17179033D01*
X66245832Y-17494912D01*
X66369082Y-17792463D01*
X66548013Y-18060252D01*
X66775748Y-18287987D01*
X66775767Y-18288000D01*
X66775748Y-18288013D01*
X66548013Y-18515748D01*
X66369082Y-18783537D01*
X66245832Y-19081088D01*
X66183000Y-19396967D01*
X66183000Y-19719033D01*
X66245832Y-20034912D01*
X66369082Y-20332463D01*
X66548013Y-20600252D01*
X66775748Y-20827987D01*
X67043537Y-21006918D01*
X67341088Y-21130168D01*
X67656967Y-21193000D01*
X67979033Y-21193000D01*
X68294912Y-21130168D01*
X68592463Y-21006918D01*
X68860252Y-20827987D01*
X69087987Y-20600252D01*
X69266918Y-20332463D01*
X69390168Y-20034912D01*
X69453000Y-19719033D01*
X69453000Y-19396967D01*
X69390168Y-19081088D01*
X69356581Y-19000000D01*
X71509025Y-19000000D01*
X71532870Y-19242102D01*
X71603489Y-19474901D01*
X71718167Y-19689449D01*
X71844436Y-19843309D01*
X71795506Y-19869463D01*
X71698815Y-19948815D01*
X71619463Y-20045506D01*
X71560498Y-20155820D01*
X71524188Y-20275518D01*
X71511928Y-20400000D01*
X71511928Y-21600000D01*
X71524188Y-21724482D01*
X71560498Y-21844180D01*
X71619463Y-21954494D01*
X71698815Y-22051185D01*
X71795506Y-22130537D01*
X71905820Y-22189502D01*
X72025518Y-22225812D01*
X72150000Y-22238072D01*
X73850000Y-22238072D01*
X73974482Y-22225812D01*
X74094180Y-22189502D01*
X74204494Y-22130537D01*
X74301185Y-22051185D01*
X74380537Y-21954494D01*
X74439502Y-21844180D01*
X74475812Y-21724482D01*
X74488072Y-21600000D01*
X74488072Y-20400000D01*
X74475812Y-20275518D01*
X74439502Y-20155820D01*
X74380537Y-20045506D01*
X74301185Y-19948815D01*
X74204494Y-19869463D01*
X74155564Y-19843309D01*
X74281833Y-19689449D01*
X74396511Y-19474901D01*
X74467130Y-19242102D01*
X74490975Y-19000000D01*
X74467130Y-18757898D01*
X74396511Y-18525099D01*
X74281833Y-18310551D01*
X74127502Y-18122498D01*
X73939449Y-17968167D01*
X73724901Y-17853489D01*
X73492102Y-17782870D01*
X73310665Y-17765000D01*
X72689335Y-17765000D01*
X72507898Y-17782870D01*
X72275099Y-17853489D01*
X72060551Y-17968167D01*
X71872498Y-18122498D01*
X71718167Y-18310551D01*
X71603489Y-18525099D01*
X71532870Y-18757898D01*
X71509025Y-19000000D01*
X69356581Y-19000000D01*
X69266918Y-18783537D01*
X69087987Y-18515748D01*
X68860252Y-18288013D01*
X68860233Y-18288000D01*
X68860252Y-18287987D01*
X69087987Y-18060252D01*
X69266918Y-17792463D01*
X69390168Y-17494912D01*
X69453000Y-17179033D01*
X69453000Y-16856967D01*
X69390168Y-16541088D01*
X69266918Y-16243537D01*
X69087987Y-15975748D01*
X68860252Y-15748013D01*
X68592463Y-15569082D01*
X68294912Y-15445832D01*
X67979033Y-15383000D01*
X67656967Y-15383000D01*
X67341088Y-15445832D01*
X67043537Y-15569082D01*
X66775748Y-15748013D01*
X66548013Y-15975748D01*
X66369082Y-16243537D01*
X66245832Y-16541088D01*
X66183000Y-16856967D01*
X64285000Y-16856967D01*
X64285000Y-16802556D01*
X64288797Y-16764000D01*
X64285000Y-16725440D01*
X64285000Y-16725439D01*
X64278938Y-16663888D01*
X64273642Y-16610113D01*
X64228754Y-16462140D01*
X64197604Y-16403862D01*
X64155862Y-16325767D01*
X64057764Y-16206236D01*
X64027810Y-16181653D01*
X62304347Y-14458190D01*
X62279764Y-14428236D01*
X62160233Y-14330138D01*
X62023860Y-14257246D01*
X61875887Y-14212359D01*
X61760561Y-14201000D01*
X61760553Y-14201000D01*
X61722000Y-14197203D01*
X61683447Y-14201000D01*
X52489556Y-14201000D01*
X52451000Y-14197203D01*
X52412444Y-14201000D01*
X52412439Y-14201000D01*
X52372026Y-14204980D01*
X52297113Y-14212358D01*
X52149140Y-14257246D01*
X52012767Y-14330138D01*
X51893236Y-14428236D01*
X51868653Y-14458190D01*
X51262486Y-15064357D01*
X51249579Y-14999471D01*
X51154598Y-14770166D01*
X51016706Y-14563797D01*
X50841203Y-14388294D01*
X50634834Y-14250402D01*
X50405529Y-14155421D01*
X50262646Y-14127000D01*
X79873000Y-14127000D01*
X79873000Y-38873000D01*
G37*
X79873000Y-38873000D02*
X73780045Y-38873000D01*
X73824925Y-38818314D01*
X74505166Y-38138072D01*
X77500000Y-38138072D01*
X77624482Y-38125812D01*
X77744180Y-38089502D01*
X77854494Y-38030537D01*
X77951185Y-37951185D01*
X78030537Y-37854494D01*
X78089502Y-37744180D01*
X78125812Y-37624482D01*
X78138072Y-37500000D01*
X78138072Y-34500000D01*
X78125812Y-34375518D01*
X78089502Y-34255820D01*
X78030537Y-34145506D01*
X77951185Y-34048815D01*
X77854494Y-33969463D01*
X77744180Y-33910498D01*
X77624482Y-33874188D01*
X77500000Y-33861928D01*
X74500000Y-33861928D01*
X74375518Y-33874188D01*
X74255820Y-33910498D01*
X74145506Y-33969463D01*
X74048815Y-34048815D01*
X73969463Y-34145506D01*
X73910498Y-34255820D01*
X73874188Y-34375518D01*
X73868657Y-34431680D01*
X73702285Y-34482148D01*
X73418248Y-34633969D01*
X73169286Y-34838286D01*
X73118079Y-34900682D01*
X71934762Y-36084000D01*
X66921280Y-36084000D01*
X66942252Y-36069987D01*
X67169987Y-35842252D01*
X67348918Y-35574463D01*
X67472168Y-35276912D01*
X67535000Y-34961033D01*
X67535000Y-34638967D01*
X67472168Y-34323088D01*
X67348918Y-34025537D01*
X67169987Y-33757748D01*
X66942252Y-33530013D01*
X66942233Y-33530000D01*
X66942252Y-33529987D01*
X67169987Y-33302252D01*
X67348918Y-33034463D01*
X67472168Y-32736912D01*
X67535000Y-32421033D01*
X67535000Y-32098967D01*
X67472168Y-31783088D01*
X67348918Y-31485537D01*
X67169987Y-31217748D01*
X66942252Y-30990013D01*
X66674463Y-30811082D01*
X66429757Y-30709721D01*
X73865000Y-30709721D01*
X73865000Y-31130279D01*
X73947047Y-31542756D01*
X74107988Y-31931302D01*
X74341637Y-32280983D01*
X74639017Y-32578363D01*
X74988698Y-32812012D01*
X75377244Y-32972953D01*
X75789721Y-33055000D01*
X76210279Y-33055000D01*
X76622756Y-32972953D01*
X77011302Y-32812012D01*
X77360983Y-32578363D01*
X77658363Y-32280983D01*
X77892012Y-31931302D01*
X78052953Y-31542756D01*
X78135000Y-31130279D01*
X78135000Y-30709721D01*
X78052953Y-30297244D01*
X77892012Y-29908698D01*
X77658363Y-29559017D01*
X77360983Y-29261637D01*
X77011302Y-29027988D01*
X76622756Y-28867047D01*
X76210279Y-28785000D01*
X75789721Y-28785000D01*
X75377244Y-28867047D01*
X74988698Y-29027988D01*
X74639017Y-29261637D01*
X74341637Y-29559017D01*
X74107988Y-29908698D01*
X73947047Y-30297244D01*
X73865000Y-30709721D01*
X66429757Y-30709721D01*
X66376912Y-30687832D01*
X66061033Y-30625000D01*
X65738967Y-30625000D01*
X65423088Y-30687832D01*
X65125537Y-30811082D01*
X64857748Y-30990013D01*
X64630013Y-31217748D01*
X64451082Y-31485537D01*
X64412000Y-31579889D01*
X64412000Y-30056552D01*
X64415797Y-30017999D01*
X64412000Y-29979446D01*
X64412000Y-29979439D01*
X64400641Y-29864113D01*
X64355754Y-29716140D01*
X64282862Y-29579767D01*
X64223850Y-29507862D01*
X64209345Y-29490187D01*
X64209342Y-29490184D01*
X64184764Y-29460236D01*
X64154815Y-29435658D01*
X63571158Y-28852000D01*
X64027817Y-28395341D01*
X64057764Y-28370764D01*
X64090209Y-28331231D01*
X64120570Y-28294236D01*
X64155862Y-28251233D01*
X64228754Y-28114860D01*
X64237205Y-28087000D01*
X64273642Y-27966887D01*
X64284627Y-27855345D01*
X64285000Y-27851561D01*
X64285000Y-27851556D01*
X64288797Y-27813000D01*
X64285000Y-27774444D01*
X64285000Y-25737323D01*
X65333000Y-25737323D01*
X65333000Y-26262677D01*
X65435492Y-26777935D01*
X65636536Y-27263298D01*
X65928406Y-27700113D01*
X66299887Y-28071594D01*
X66385726Y-28128950D01*
X66444139Y-28238232D01*
X66542236Y-28357764D01*
X66661768Y-28455861D01*
X66798141Y-28528754D01*
X66946114Y-28573641D01*
X67100000Y-28588797D01*
X67253886Y-28573641D01*
X67259467Y-28571948D01*
X67737323Y-28667000D01*
X68262677Y-28667000D01*
X68777935Y-28564508D01*
X69263298Y-28363464D01*
X69700113Y-28071594D01*
X70071594Y-27700113D01*
X70363464Y-27263298D01*
X70564508Y-26777935D01*
X70667000Y-26262677D01*
X70667000Y-25737323D01*
X70564508Y-25222065D01*
X70363464Y-24736702D01*
X70071594Y-24299887D01*
X69700113Y-23928406D01*
X69263298Y-23636536D01*
X68777935Y-23435492D01*
X68262677Y-23333000D01*
X67737323Y-23333000D01*
X67222065Y-23435492D01*
X66736702Y-23636536D01*
X66299887Y-23928406D01*
X65928406Y-24299887D01*
X65636536Y-24736702D01*
X65435492Y-25222065D01*
X65333000Y-25737323D01*
X64285000Y-25737323D01*
X64285000Y-16856967D01*
X66183000Y-16856967D01*
X66183000Y-17179033D01*
X66245832Y-17494912D01*
X66369082Y-17792463D01*
X66548013Y-18060252D01*
X66775748Y-18287987D01*
X66775767Y-18288000D01*
X66775748Y-18288013D01*
X66548013Y-18515748D01*
X66369082Y-18783537D01*
X66245832Y-19081088D01*
X66183000Y-19396967D01*
X66183000Y-19719033D01*
X66245832Y-20034912D01*
X66369082Y-20332463D01*
X66548013Y-20600252D01*
X66775748Y-20827987D01*
X67043537Y-21006918D01*
X67341088Y-21130168D01*
X67656967Y-21193000D01*
X67979033Y-21193000D01*
X68294912Y-21130168D01*
X68592463Y-21006918D01*
X68860252Y-20827987D01*
X69087987Y-20600252D01*
X69266918Y-20332463D01*
X69390168Y-20034912D01*
X69453000Y-19719033D01*
X69453000Y-19396967D01*
X69390168Y-19081088D01*
X69356581Y-19000000D01*
X71509025Y-19000000D01*
X71532870Y-19242102D01*
X71603489Y-19474901D01*
X71718167Y-19689449D01*
X71844436Y-19843309D01*
X71795506Y-19869463D01*
X71698815Y-19948815D01*
X71619463Y-20045506D01*
X71560498Y-20155820D01*
X71524188Y-20275518D01*
X71511928Y-20400000D01*
X71511928Y-21600000D01*
X71524188Y-21724482D01*
X71560498Y-21844180D01*
X71619463Y-21954494D01*
X71698815Y-22051185D01*
X71795506Y-22130537D01*
X71905820Y-22189502D01*
X72025518Y-22225812D01*
X72150000Y-22238072D01*
X73850000Y-22238072D01*
X73974482Y-22225812D01*
X74094180Y-22189502D01*
X74204494Y-22130537D01*
X74301185Y-22051185D01*
X74380537Y-21954494D01*
X74439502Y-21844180D01*
X74475812Y-21724482D01*
X74488072Y-21600000D01*
X74488072Y-20400000D01*
X74475812Y-20275518D01*
X74439502Y-20155820D01*
X74380537Y-20045506D01*
X74301185Y-19948815D01*
X74204494Y-19869463D01*
X74155564Y-19843309D01*
X74281833Y-19689449D01*
X74396511Y-19474901D01*
X74467130Y-19242102D01*
X74490975Y-19000000D01*
X74467130Y-18757898D01*
X74396511Y-18525099D01*
X74281833Y-18310551D01*
X74127502Y-18122498D01*
X73939449Y-17968167D01*
X73724901Y-17853489D01*
X73492102Y-17782870D01*
X73310665Y-17765000D01*
X72689335Y-17765000D01*
X72507898Y-17782870D01*
X72275099Y-17853489D01*
X72060551Y-17968167D01*
X71872498Y-18122498D01*
X71718167Y-18310551D01*
X71603489Y-18525099D01*
X71532870Y-18757898D01*
X71509025Y-19000000D01*
X69356581Y-19000000D01*
X69266918Y-18783537D01*
X69087987Y-18515748D01*
X68860252Y-18288013D01*
X68860233Y-18288000D01*
X68860252Y-18287987D01*
X69087987Y-18060252D01*
X69266918Y-17792463D01*
X69390168Y-17494912D01*
X69453000Y-17179033D01*
X69453000Y-16856967D01*
X69390168Y-16541088D01*
X69266918Y-16243537D01*
X69087987Y-15975748D01*
X68860252Y-15748013D01*
X68592463Y-15569082D01*
X68294912Y-15445832D01*
X67979033Y-15383000D01*
X67656967Y-15383000D01*
X67341088Y-15445832D01*
X67043537Y-15569082D01*
X66775748Y-15748013D01*
X66548013Y-15975748D01*
X66369082Y-16243537D01*
X66245832Y-16541088D01*
X66183000Y-16856967D01*
X64285000Y-16856967D01*
X64285000Y-16802556D01*
X64288797Y-16764000D01*
X64285000Y-16725440D01*
X64285000Y-16725439D01*
X64278938Y-16663888D01*
X64273642Y-16610113D01*
X64228754Y-16462140D01*
X64197604Y-16403862D01*
X64155862Y-16325767D01*
X64057764Y-16206236D01*
X64027810Y-16181653D01*
X62304347Y-14458190D01*
X62279764Y-14428236D01*
X62160233Y-14330138D01*
X62023860Y-14257246D01*
X61875887Y-14212359D01*
X61760561Y-14201000D01*
X61760553Y-14201000D01*
X61722000Y-14197203D01*
X61683447Y-14201000D01*
X52489556Y-14201000D01*
X52451000Y-14197203D01*
X52412444Y-14201000D01*
X52412439Y-14201000D01*
X52372026Y-14204980D01*
X52297113Y-14212358D01*
X52149140Y-14257246D01*
X52012767Y-14330138D01*
X51893236Y-14428236D01*
X51868653Y-14458190D01*
X51262486Y-15064357D01*
X51249579Y-14999471D01*
X51154598Y-14770166D01*
X51016706Y-14563797D01*
X50841203Y-14388294D01*
X50634834Y-14250402D01*
X50405529Y-14155421D01*
X50262646Y-14127000D01*
X79873000Y-14127000D01*
X79873000Y-38873000D01*
G36*
X47607492Y-33417710D02*
G01*
X47743079Y-33582922D01*
X47908291Y-33718509D01*
X48096781Y-33819259D01*
X48301304Y-33881300D01*
X48514000Y-33902249D01*
X48717844Y-33882172D01*
X48730700Y-34012697D01*
X48760802Y-34111928D01*
X47000000Y-34111928D01*
X46875518Y-34124188D01*
X46755820Y-34160498D01*
X46645506Y-34219463D01*
X46548815Y-34298815D01*
X46469463Y-34395506D01*
X46410498Y-34505820D01*
X46374188Y-34625518D01*
X46361928Y-34750000D01*
X46361928Y-36084000D01*
X45638072Y-36084000D01*
X45638072Y-34750000D01*
X45636957Y-34738679D01*
X45833529Y-34699579D01*
X46062834Y-34604598D01*
X46269203Y-34466706D01*
X46444706Y-34291203D01*
X46582598Y-34084834D01*
X46677579Y-33855529D01*
X46726000Y-33612099D01*
X46726000Y-33363901D01*
X46712997Y-33298532D01*
X46735999Y-33300797D01*
X46774552Y-33297000D01*
X47542971Y-33297000D01*
X47607492Y-33417710D01*
G37*
X47607492Y-33417710D02*
X47743079Y-33582922D01*
X47908291Y-33718509D01*
X48096781Y-33819259D01*
X48301304Y-33881300D01*
X48514000Y-33902249D01*
X48717844Y-33882172D01*
X48730700Y-34012697D01*
X48760802Y-34111928D01*
X47000000Y-34111928D01*
X46875518Y-34124188D01*
X46755820Y-34160498D01*
X46645506Y-34219463D01*
X46548815Y-34298815D01*
X46469463Y-34395506D01*
X46410498Y-34505820D01*
X46374188Y-34625518D01*
X46361928Y-34750000D01*
X46361928Y-36084000D01*
X45638072Y-36084000D01*
X45638072Y-34750000D01*
X45636957Y-34738679D01*
X45833529Y-34699579D01*
X46062834Y-34604598D01*
X46269203Y-34466706D01*
X46444706Y-34291203D01*
X46582598Y-34084834D01*
X46677579Y-33855529D01*
X46726000Y-33612099D01*
X46726000Y-33363901D01*
X46712997Y-33298532D01*
X46735999Y-33300797D01*
X46774552Y-33297000D01*
X47542971Y-33297000D01*
X47607492Y-33417710D01*
G36*
X38510498Y-29385820D02*
G01*
X38474188Y-29505518D01*
X38461928Y-29630000D01*
X38461928Y-31330000D01*
X38474188Y-31454482D01*
X38510498Y-31574180D01*
X38569463Y-31684494D01*
X38648815Y-31781185D01*
X38745506Y-31860537D01*
X38855820Y-31919502D01*
X38975518Y-31955812D01*
X39100000Y-31968072D01*
X41100000Y-31968072D01*
X41224482Y-31955812D01*
X41344180Y-31919502D01*
X41454494Y-31860537D01*
X41551185Y-31781185D01*
X41630537Y-31684494D01*
X41672267Y-31606424D01*
X42105771Y-32039928D01*
X39200000Y-32039928D01*
X39075518Y-32052188D01*
X38955820Y-32088498D01*
X38845506Y-32147463D01*
X38748815Y-32226815D01*
X38669463Y-32323506D01*
X38610498Y-32433820D01*
X38574188Y-32553518D01*
X38561928Y-32678000D01*
X38561928Y-34378000D01*
X38568412Y-34443839D01*
X38378184Y-34406000D01*
X38075816Y-34406000D01*
X37779257Y-34464989D01*
X37616769Y-34532294D01*
X37625812Y-34502482D01*
X37638072Y-34378000D01*
X37638072Y-32678000D01*
X37625812Y-32553518D01*
X37589502Y-32433820D01*
X37530537Y-32323506D01*
X37451185Y-32226815D01*
X37354494Y-32147463D01*
X37244180Y-32088498D01*
X37124482Y-32052188D01*
X37000000Y-32039928D01*
X36747085Y-32039928D01*
X36755862Y-32029233D01*
X36788553Y-31968072D01*
X37100000Y-31968072D01*
X37224482Y-31955812D01*
X37344180Y-31919502D01*
X37454494Y-31860537D01*
X37551185Y-31781185D01*
X37630537Y-31684494D01*
X37689502Y-31574180D01*
X37725812Y-31454482D01*
X37738072Y-31330000D01*
X37738072Y-29630000D01*
X37725812Y-29505518D01*
X37689502Y-29385820D01*
X37675701Y-29360000D01*
X38524299Y-29360000D01*
X38510498Y-29385820D01*
G37*
X38510498Y-29385820D02*
X38474188Y-29505518D01*
X38461928Y-29630000D01*
X38461928Y-31330000D01*
X38474188Y-31454482D01*
X38510498Y-31574180D01*
X38569463Y-31684494D01*
X38648815Y-31781185D01*
X38745506Y-31860537D01*
X38855820Y-31919502D01*
X38975518Y-31955812D01*
X39100000Y-31968072D01*
X41100000Y-31968072D01*
X41224482Y-31955812D01*
X41344180Y-31919502D01*
X41454494Y-31860537D01*
X41551185Y-31781185D01*
X41630537Y-31684494D01*
X41672267Y-31606424D01*
X42105771Y-32039928D01*
X39200000Y-32039928D01*
X39075518Y-32052188D01*
X38955820Y-32088498D01*
X38845506Y-32147463D01*
X38748815Y-32226815D01*
X38669463Y-32323506D01*
X38610498Y-32433820D01*
X38574188Y-32553518D01*
X38561928Y-32678000D01*
X38561928Y-34378000D01*
X38568412Y-34443839D01*
X38378184Y-34406000D01*
X38075816Y-34406000D01*
X37779257Y-34464989D01*
X37616769Y-34532294D01*
X37625812Y-34502482D01*
X37638072Y-34378000D01*
X37638072Y-32678000D01*
X37625812Y-32553518D01*
X37589502Y-32433820D01*
X37530537Y-32323506D01*
X37451185Y-32226815D01*
X37354494Y-32147463D01*
X37244180Y-32088498D01*
X37124482Y-32052188D01*
X37000000Y-32039928D01*
X36747085Y-32039928D01*
X36755862Y-32029233D01*
X36788553Y-31968072D01*
X37100000Y-31968072D01*
X37224482Y-31955812D01*
X37344180Y-31919502D01*
X37454494Y-31860537D01*
X37551185Y-31781185D01*
X37630537Y-31684494D01*
X37689502Y-31574180D01*
X37725812Y-31454482D01*
X37738072Y-31330000D01*
X37738072Y-29630000D01*
X37725812Y-29505518D01*
X37689502Y-29385820D01*
X37675701Y-29360000D01*
X38524299Y-29360000D01*
X38510498Y-29385820D01*
G36*
X48759928Y-20859000D02*
G01*
X48759928Y-21559000D01*
X48772188Y-21683482D01*
X48808498Y-21803180D01*
X48867463Y-21913494D01*
X48946815Y-22010185D01*
X49003271Y-22056517D01*
X49002928Y-22060000D01*
X49002928Y-23660000D01*
X49015188Y-23784482D01*
X49051498Y-23904180D01*
X49110463Y-24014494D01*
X49189815Y-24111185D01*
X49286506Y-24190537D01*
X49396820Y-24249502D01*
X49516518Y-24285812D01*
X49641000Y-24298072D01*
X49888001Y-24298072D01*
X49888000Y-24585000D01*
X45945158Y-24585000D01*
X45785000Y-24424843D01*
X45785000Y-24298072D01*
X47641000Y-24298072D01*
X47765482Y-24285812D01*
X47885180Y-24249502D01*
X47995494Y-24190537D01*
X48092185Y-24111185D01*
X48171537Y-24014494D01*
X48230502Y-23904180D01*
X48266812Y-23784482D01*
X48279072Y-23660000D01*
X48279072Y-22060000D01*
X48266812Y-21935518D01*
X48230502Y-21815820D01*
X48171537Y-21705506D01*
X48128655Y-21653254D01*
X48178706Y-21603203D01*
X48316598Y-21396834D01*
X48411579Y-21167529D01*
X48428700Y-21081457D01*
X48771811Y-20738346D01*
X48759928Y-20859000D01*
G37*
X48759928Y-20859000D02*
X48759928Y-21559000D01*
X48772188Y-21683482D01*
X48808498Y-21803180D01*
X48867463Y-21913494D01*
X48946815Y-22010185D01*
X49003271Y-22056517D01*
X49002928Y-22060000D01*
X49002928Y-23660000D01*
X49015188Y-23784482D01*
X49051498Y-23904180D01*
X49110463Y-24014494D01*
X49189815Y-24111185D01*
X49286506Y-24190537D01*
X49396820Y-24249502D01*
X49516518Y-24285812D01*
X49641000Y-24298072D01*
X49888001Y-24298072D01*
X49888000Y-24585000D01*
X45945158Y-24585000D01*
X45785000Y-24424843D01*
X45785000Y-24298072D01*
X47641000Y-24298072D01*
X47765482Y-24285812D01*
X47885180Y-24249502D01*
X47995494Y-24190537D01*
X48092185Y-24111185D01*
X48171537Y-24014494D01*
X48230502Y-23904180D01*
X48266812Y-23784482D01*
X48279072Y-23660000D01*
X48279072Y-22060000D01*
X48266812Y-21935518D01*
X48230502Y-21815820D01*
X48171537Y-21705506D01*
X48128655Y-21653254D01*
X48178706Y-21603203D01*
X48316598Y-21396834D01*
X48411579Y-21167529D01*
X48428700Y-21081457D01*
X48771811Y-20738346D01*
X48759928Y-20859000D01*
G36*
X55134928Y-17660879D02*
G01*
X55070102Y-17673774D01*
X54881744Y-17751795D01*
X54712226Y-17865063D01*
X54568063Y-18009226D01*
X54454795Y-18178744D01*
X54376774Y-18367102D01*
X54337000Y-18567061D01*
X54337000Y-18770939D01*
X54376774Y-18970898D01*
X54454795Y-19159256D01*
X54568063Y-19328774D01*
X54712226Y-19472937D01*
X54881744Y-19586205D01*
X55070102Y-19664226D01*
X55109928Y-19672148D01*
X55109928Y-20289000D01*
X55122188Y-20413482D01*
X55152907Y-20514750D01*
X55137812Y-20499655D01*
X55048232Y-20426139D01*
X54911859Y-20353246D01*
X54763886Y-20308359D01*
X54610000Y-20293203D01*
X54456114Y-20308359D01*
X54308141Y-20353246D01*
X54171768Y-20426139D01*
X54052236Y-20524236D01*
X53954139Y-20643768D01*
X53881246Y-20780141D01*
X53836359Y-20928114D01*
X53821203Y-21082000D01*
X53836359Y-21235886D01*
X53881246Y-21383859D01*
X53954139Y-21520232D01*
X53983368Y-21555848D01*
X54007357Y-21634928D01*
X53760000Y-21634928D01*
X53635518Y-21647188D01*
X53515820Y-21683498D01*
X53405506Y-21742463D01*
X53308815Y-21821815D01*
X53229463Y-21918506D01*
X53190550Y-21991307D01*
X53072529Y-21942421D01*
X52829099Y-21894000D01*
X52580901Y-21894000D01*
X52477686Y-21914531D01*
X52478537Y-21913494D01*
X52537502Y-21803180D01*
X52573812Y-21683482D01*
X52586072Y-21559000D01*
X52586072Y-20859000D01*
X52573812Y-20734518D01*
X52559652Y-20687838D01*
X52625860Y-20667754D01*
X52762233Y-20594862D01*
X52881764Y-20496764D01*
X52906347Y-20466810D01*
X53613810Y-19759347D01*
X53643764Y-19734764D01*
X53741862Y-19615233D01*
X53814754Y-19478860D01*
X53821116Y-19457887D01*
X53859642Y-19330887D01*
X53868776Y-19238140D01*
X53871000Y-19215561D01*
X53871000Y-19215556D01*
X53874797Y-19177000D01*
X53871000Y-19138444D01*
X53871000Y-17295000D01*
X55134928Y-17295000D01*
X55134928Y-17660879D01*
G37*
X55134928Y-17660879D02*
X55070102Y-17673774D01*
X54881744Y-17751795D01*
X54712226Y-17865063D01*
X54568063Y-18009226D01*
X54454795Y-18178744D01*
X54376774Y-18367102D01*
X54337000Y-18567061D01*
X54337000Y-18770939D01*
X54376774Y-18970898D01*
X54454795Y-19159256D01*
X54568063Y-19328774D01*
X54712226Y-19472937D01*
X54881744Y-19586205D01*
X55070102Y-19664226D01*
X55109928Y-19672148D01*
X55109928Y-20289000D01*
X55122188Y-20413482D01*
X55152907Y-20514750D01*
X55137812Y-20499655D01*
X55048232Y-20426139D01*
X54911859Y-20353246D01*
X54763886Y-20308359D01*
X54610000Y-20293203D01*
X54456114Y-20308359D01*
X54308141Y-20353246D01*
X54171768Y-20426139D01*
X54052236Y-20524236D01*
X53954139Y-20643768D01*
X53881246Y-20780141D01*
X53836359Y-20928114D01*
X53821203Y-21082000D01*
X53836359Y-21235886D01*
X53881246Y-21383859D01*
X53954139Y-21520232D01*
X53983368Y-21555848D01*
X54007357Y-21634928D01*
X53760000Y-21634928D01*
X53635518Y-21647188D01*
X53515820Y-21683498D01*
X53405506Y-21742463D01*
X53308815Y-21821815D01*
X53229463Y-21918506D01*
X53190550Y-21991307D01*
X53072529Y-21942421D01*
X52829099Y-21894000D01*
X52580901Y-21894000D01*
X52477686Y-21914531D01*
X52478537Y-21913494D01*
X52537502Y-21803180D01*
X52573812Y-21683482D01*
X52586072Y-21559000D01*
X52586072Y-20859000D01*
X52573812Y-20734518D01*
X52559652Y-20687838D01*
X52625860Y-20667754D01*
X52762233Y-20594862D01*
X52881764Y-20496764D01*
X52906347Y-20466810D01*
X53613810Y-19759347D01*
X53643764Y-19734764D01*
X53741862Y-19615233D01*
X53814754Y-19478860D01*
X53821116Y-19457887D01*
X53859642Y-19330887D01*
X53868776Y-19238140D01*
X53871000Y-19215561D01*
X53871000Y-19215556D01*
X53874797Y-19177000D01*
X53871000Y-19138444D01*
X53871000Y-17295000D01*
X55134928Y-17295000D01*
X55134928Y-17660879D01*
G36*
X46417658Y-17127816D02*
G01*
X46442236Y-17157764D01*
X46472184Y-17182342D01*
X46472187Y-17182345D01*
X46496420Y-17202232D01*
X46531679Y-17231169D01*
X46396797Y-17321294D01*
X46221294Y-17496797D01*
X46083402Y-17703166D01*
X45988421Y-17932471D01*
X45940000Y-18175901D01*
X45940000Y-18424099D01*
X45988421Y-18667529D01*
X46083402Y-18896834D01*
X46221294Y-19103203D01*
X46396797Y-19278706D01*
X46603166Y-19416598D01*
X46832471Y-19511579D01*
X47025627Y-19550000D01*
X46832471Y-19588421D01*
X46603166Y-19683402D01*
X46396797Y-19821294D01*
X46221294Y-19996797D01*
X46209131Y-20015000D01*
X45863521Y-20015000D01*
X45875812Y-19974482D01*
X45888072Y-19850000D01*
X45888072Y-18250000D01*
X45875812Y-18125518D01*
X45839502Y-18005820D01*
X45780537Y-17895506D01*
X45701185Y-17798815D01*
X45604494Y-17719463D01*
X45494180Y-17660498D01*
X45398057Y-17631339D01*
X45564637Y-17464759D01*
X45721680Y-17229727D01*
X45829853Y-16968574D01*
X45885000Y-16691335D01*
X45885000Y-16595158D01*
X46417658Y-17127816D01*
G37*
X46417658Y-17127816D02*
X46442236Y-17157764D01*
X46472184Y-17182342D01*
X46472187Y-17182345D01*
X46496420Y-17202232D01*
X46531679Y-17231169D01*
X46396797Y-17321294D01*
X46221294Y-17496797D01*
X46083402Y-17703166D01*
X45988421Y-17932471D01*
X45940000Y-18175901D01*
X45940000Y-18424099D01*
X45988421Y-18667529D01*
X46083402Y-18896834D01*
X46221294Y-19103203D01*
X46396797Y-19278706D01*
X46603166Y-19416598D01*
X46832471Y-19511579D01*
X47025627Y-19550000D01*
X46832471Y-19588421D01*
X46603166Y-19683402D01*
X46396797Y-19821294D01*
X46221294Y-19996797D01*
X46209131Y-20015000D01*
X45863521Y-20015000D01*
X45875812Y-19974482D01*
X45888072Y-19850000D01*
X45888072Y-18250000D01*
X45875812Y-18125518D01*
X45839502Y-18005820D01*
X45780537Y-17895506D01*
X45701185Y-17798815D01*
X45604494Y-17719463D01*
X45494180Y-17660498D01*
X45398057Y-17631339D01*
X45564637Y-17464759D01*
X45721680Y-17229727D01*
X45829853Y-16968574D01*
X45885000Y-16691335D01*
X45885000Y-16595158D01*
X46417658Y-17127816D01*
G36*
X60453639Y-17621796D02*
G01*
X60320898Y-17634870D01*
X60088099Y-17705489D01*
X59873551Y-17820167D01*
X59685498Y-17974498D01*
X59531167Y-18162551D01*
X59416489Y-18377099D01*
X59345870Y-18609898D01*
X59322025Y-18852000D01*
X59345870Y-19094102D01*
X59348934Y-19104202D01*
X59251767Y-19156138D01*
X59132236Y-19254236D01*
X59107655Y-19284188D01*
X58924127Y-19467716D01*
X58923812Y-19464518D01*
X58887502Y-19344820D01*
X58865683Y-19304000D01*
X58887502Y-19263180D01*
X58923812Y-19143482D01*
X58936072Y-19019000D01*
X58936072Y-18319000D01*
X58923812Y-18194518D01*
X58887502Y-18074820D01*
X58853183Y-18010615D01*
X58862502Y-17993180D01*
X58898812Y-17873482D01*
X58911072Y-17749000D01*
X58911072Y-17295000D01*
X60126843Y-17295000D01*
X60453639Y-17621796D01*
G37*
X60453639Y-17621796D02*
X60320898Y-17634870D01*
X60088099Y-17705489D01*
X59873551Y-17820167D01*
X59685498Y-17974498D01*
X59531167Y-18162551D01*
X59416489Y-18377099D01*
X59345870Y-18609898D01*
X59322025Y-18852000D01*
X59345870Y-19094102D01*
X59348934Y-19104202D01*
X59251767Y-19156138D01*
X59132236Y-19254236D01*
X59107655Y-19284188D01*
X58924127Y-19467716D01*
X58923812Y-19464518D01*
X58887502Y-19344820D01*
X58865683Y-19304000D01*
X58887502Y-19263180D01*
X58923812Y-19143482D01*
X58936072Y-19019000D01*
X58936072Y-18319000D01*
X58923812Y-18194518D01*
X58887502Y-18074820D01*
X58853183Y-18010615D01*
X58862502Y-17993180D01*
X58898812Y-17873482D01*
X58911072Y-17749000D01*
X58911072Y-17295000D01*
X60126843Y-17295000D01*
X60453639Y-17621796D01*
M02*
