G04 #@! TF.GenerationSoftware,KiCad,Pcbnew,5.1.5+dfsg1-2build2*
G04 #@! TF.CreationDate,2022-05-23T14:10:18+02:00*
G04 #@! TF.ProjectId,wy__cznik zmierzchowy wersja II,77794205-637a-46e6-996b-207a6d696572,rev?*
G04 #@! TF.SameCoordinates,Original*
G04 #@! TF.FileFunction,Soldermask,Bot*
G04 #@! TF.FilePolarity,Negative*
%FSLAX46Y46*%
G04 Gerber Fmt 4.6, Leading zero omitted, Abs format (unit mm)*
G04 Created by KiCad (PCBNEW 5.1.5+dfsg1-2build2) date 2022-05-23 14:10:18*
%MOMM*%
%LPD*%
G04 APERTURE LIST*
%ADD10C,1.650000*%
%ADD11R,2.000000X2.000000*%
%ADD12C,2.000000*%
%ADD13R,2.100000X1.600000*%
%ADD14O,2.100000X1.600000*%
%ADD15C,1.700000*%
%ADD16O,1.700000X1.700000*%
%ADD17R,2.100000X2.400000*%
%ADD18C,1.900000*%
%ADD19O,1.300000X1.900000*%
%ADD20R,1.300000X1.900000*%
%ADD21R,3.400000X3.400000*%
%ADD22C,3.400000*%
%ADD23R,2.200000X2.200000*%
%ADD24O,2.200000X2.200000*%
%ADD25R,1.650000X1.900000*%
%ADD26R,1.900000X1.650000*%
%ADD27C,2.400000*%
%ADD28C,4.464000*%
G04 APERTURE END LIST*
D10*
X57150000Y-23114000D03*
X57150000Y-25614000D03*
D11*
X45212000Y-27051000D03*
D12*
X47712000Y-27051000D03*
D10*
X45466000Y-30988000D03*
X45466000Y-33488000D03*
X51689000Y-29337000D03*
X50632454Y-27071231D03*
X52705000Y-25654000D03*
X52705000Y-23154000D03*
D11*
X57150000Y-31369000D03*
D12*
X54650000Y-31369000D03*
D10*
X47200000Y-20800000D03*
X47200000Y-18300000D03*
D11*
X44450000Y-19050000D03*
D12*
X44450000Y-16550000D03*
D10*
X50038000Y-15367000D03*
X47538000Y-15367000D03*
D13*
X73000000Y-21000000D03*
D14*
X73000000Y-19000000D03*
D15*
X61976000Y-35306000D03*
D16*
X51816000Y-35306000D03*
D17*
X62992000Y-22828000D03*
X62992000Y-18828000D03*
D18*
X24000000Y-20000000D03*
X21500000Y-22500000D03*
X21500000Y-17500000D03*
D19*
X49800000Y-33500000D03*
X48514000Y-32512000D03*
D20*
X51054000Y-32512000D03*
D21*
X21000000Y-31000000D03*
D22*
X21000000Y-36080000D03*
D21*
X76000000Y-36000000D03*
D22*
X76000000Y-30920000D03*
D23*
X35687000Y-35941000D03*
D24*
X38227000Y-35941000D03*
X40767000Y-35941000D03*
D13*
X60813000Y-28852000D03*
D14*
X60813000Y-26852000D03*
X60813000Y-24852000D03*
X60813000Y-22852000D03*
X60813000Y-20852000D03*
X60813000Y-18852000D03*
D25*
X47371000Y-29484000D03*
X47371000Y-31984000D03*
X55626000Y-25634000D03*
X55626000Y-23134000D03*
D26*
X49423000Y-30861000D03*
X51923000Y-30861000D03*
X53868000Y-29210000D03*
X56368000Y-29210000D03*
X59035000Y-18796000D03*
X56535000Y-18796000D03*
D27*
X67818000Y-19558000D03*
X67818000Y-17018000D03*
X65900000Y-34800000D03*
X65900000Y-32260000D03*
X28900000Y-34200000D03*
X28900000Y-31660000D03*
D28*
X29000000Y-26000000D03*
X68000000Y-26000000D03*
M02*
