M48
; DRILL file {KiCad 5.1.5+dfsg1-2build2} date pon, 23 maj 2022, 14:11:36
; FORMAT={-:-/ absolute / inch / decimal}
; #@! TF.CreationDate,2022-05-23T14:11:36+02:00
; #@! TF.GenerationSoftware,Kicad,Pcbnew,5.1.5+dfsg1-2build2
; #@! TF.FileFunction,Plated,1,2,PTH
FMAT,2
INCH
T1C0.0157
T2C0.0236
T3C0.0276
T4C0.0295
T5C0.0315
T6C0.0354
T7C0.0394
T8C0.0551
T9C0.1200
%
G90
G05
T1
X0.9843Y-0.6693
X1.248Y-1.1654
X1.248Y-1.3386
X1.3343Y-0.6028
X1.5748Y-0.7559
X1.6575Y-0.6102
X1.94Y-1.155
X2.1Y-0.83
X2.13Y-0.7441
X2.18Y-0.735
X2.2205Y-1.378
X3.05Y-0.81
T2
X2.04Y-1.39
X2.44Y-1.39
X1.91Y-1.28
X1.9606Y-1.3189
X2.01Y-1.28
T3
X2.075Y-0.9116
X2.075Y-1.01
X1.79Y-1.22
X1.79Y-1.3184
X1.8716Y-0.605
X1.97Y-0.605
X2.25Y-0.91
X2.25Y-1.0084
X1.9934Y-1.0658
X2.035Y-1.155
X1.8583Y-0.7205
X1.8583Y-0.8189
T4
X2.874Y-0.748
X2.874Y-0.8268
X2.3942Y-0.7422
X2.3942Y-0.8209
X2.3942Y-0.8997
X2.3942Y-0.9784
X2.3942Y-1.0572
X2.3942Y-1.1359
T5
X0.8465Y-0.689
X0.8465Y-0.8858
X0.9449Y-0.7874
T6
X1.78Y-1.065
X1.8784Y-1.065
X1.75Y-0.6516
X1.75Y-0.75
X2.1516Y-1.235
X2.25Y-1.235
T7
X1.1378Y-1.2465
X1.1378Y-1.3465
X2.5945Y-1.2701
X2.5945Y-1.3701
X1.405Y-1.415
X1.505Y-1.415
X1.605Y-1.415
X2.67Y-0.67
X2.67Y-0.77
T8
X2.9921Y-1.2173
X2.9921Y-1.4173
X0.8268Y-1.2205
X0.8268Y-1.4205
T9
X2.6772Y-1.0236
X1.1417Y-1.0236
T0
M30
