G04 #@! TF.GenerationSoftware,KiCad,Pcbnew,5.1.5+dfsg1-2build2*
G04 #@! TF.CreationDate,2022-05-23T14:10:09+02:00*
G04 #@! TF.ProjectId,wy__cznik zmierzchowy wersja II,77794205-637a-46e6-996b-207a6d696572,rev?*
G04 #@! TF.SameCoordinates,Original*
G04 #@! TF.FileFunction,Copper,L2,Bot*
G04 #@! TF.FilePolarity,Positive*
%FSLAX46Y46*%
G04 Gerber Fmt 4.6, Leading zero omitted, Abs format (unit mm)*
G04 Created by KiCad (PCBNEW 5.1.5+dfsg1-2build2) date 2022-05-23 14:10:09*
%MOMM*%
%LPD*%
G04 APERTURE LIST*
%ADD10C,0.300000*%
%ADD11C,1.250000*%
%ADD12R,1.600000X1.600000*%
%ADD13C,1.600000*%
%ADD14R,1.700000X1.200000*%
%ADD15O,1.700000X1.200000*%
%ADD16C,1.300000*%
%ADD17O,1.300000X1.300000*%
%ADD18R,1.700000X2.000000*%
%ADD19C,1.500000*%
%ADD20O,0.900000X1.500000*%
%ADD21R,0.900000X1.500000*%
%ADD22R,3.000000X3.000000*%
%ADD23C,3.000000*%
%ADD24R,1.800000X1.800000*%
%ADD25O,1.800000X1.800000*%
%ADD26R,1.250000X1.500000*%
%ADD27R,1.500000X1.250000*%
%ADD28C,2.000000*%
%ADD29C,4.064000*%
%ADD30C,0.800000*%
%ADD31C,2.000000*%
%ADD32C,1.500000*%
%ADD33C,0.254000*%
G04 APERTURE END LIST*
D10*
X43560285Y-25416761D02*
X43560285Y-23416761D01*
X42893619Y-24845333D01*
X42226952Y-23416761D01*
X42226952Y-25416761D01*
X41369809Y-24845333D02*
X40417428Y-24845333D01*
X41560285Y-25416761D02*
X40893619Y-23416761D01*
X40226952Y-25416761D01*
X39560285Y-25416761D02*
X39560285Y-23416761D01*
X39084095Y-23416761D01*
X38798380Y-23512000D01*
X38607904Y-23702476D01*
X38512666Y-23892952D01*
X38417428Y-24273904D01*
X38417428Y-24559619D01*
X38512666Y-24940571D01*
X38607904Y-25131047D01*
X38798380Y-25321523D01*
X39084095Y-25416761D01*
X39560285Y-25416761D01*
X37560285Y-24369142D02*
X36893619Y-24369142D01*
X36607904Y-25416761D02*
X37560285Y-25416761D01*
X37560285Y-23416761D01*
X36607904Y-23416761D01*
X34226952Y-25416761D02*
X34226952Y-23416761D01*
X33274571Y-25416761D02*
X33274571Y-23416761D01*
X32131714Y-25416761D01*
X32131714Y-23416761D01*
X43131714Y-28716761D02*
X43131714Y-26716761D01*
X42369809Y-26716761D01*
X42179333Y-26812000D01*
X42084095Y-26907238D01*
X41988857Y-27097714D01*
X41988857Y-27383428D01*
X42084095Y-27573904D01*
X42179333Y-27669142D01*
X42369809Y-27764380D01*
X43131714Y-27764380D01*
X40750761Y-26716761D02*
X40369809Y-26716761D01*
X40179333Y-26812000D01*
X39988857Y-27002476D01*
X39893619Y-27383428D01*
X39893619Y-28050095D01*
X39988857Y-28431047D01*
X40179333Y-28621523D01*
X40369809Y-28716761D01*
X40750761Y-28716761D01*
X40941238Y-28621523D01*
X41131714Y-28431047D01*
X41226952Y-28050095D01*
X41226952Y-27383428D01*
X41131714Y-27002476D01*
X40941238Y-26812000D01*
X40750761Y-26716761D01*
X38084095Y-28716761D02*
X39036476Y-28716761D01*
X39036476Y-26716761D01*
X37512666Y-28145333D02*
X36560285Y-28145333D01*
X37703142Y-28716761D02*
X37036476Y-26716761D01*
X36369809Y-28716761D01*
X35703142Y-28716761D02*
X35703142Y-26716761D01*
X34560285Y-28716761D01*
X34560285Y-26716761D01*
X33607904Y-28716761D02*
X33607904Y-26716761D01*
X33131714Y-26716761D01*
X32846000Y-26812000D01*
X32655523Y-27002476D01*
X32560285Y-27192952D01*
X32465047Y-27573904D01*
X32465047Y-27859619D01*
X32560285Y-28240571D01*
X32655523Y-28431047D01*
X32846000Y-28621523D01*
X33131714Y-28716761D01*
X33607904Y-28716761D01*
X24032142Y-30728571D02*
X24032142Y-31871428D01*
X24603571Y-31300000D02*
X23460714Y-31300000D01*
X24032142Y-33728571D02*
X24032142Y-34871428D01*
X27153571Y-31871428D02*
X27153571Y-31014285D01*
X27153571Y-31442857D02*
X25653571Y-31442857D01*
X25867857Y-31300000D01*
X26010714Y-31157142D01*
X26082142Y-31014285D01*
X25796428Y-32442857D02*
X25725000Y-32514285D01*
X25653571Y-32657142D01*
X25653571Y-33014285D01*
X25725000Y-33157142D01*
X25796428Y-33228571D01*
X25939285Y-33300000D01*
X26082142Y-33300000D01*
X26296428Y-33228571D01*
X27153571Y-32371428D01*
X27153571Y-33300000D01*
X25653571Y-33728571D02*
X27153571Y-34228571D01*
X25653571Y-34728571D01*
X73267857Y-36071428D02*
X73267857Y-34928571D01*
X72696428Y-35500000D02*
X73839285Y-35500000D01*
X73267857Y-33071428D02*
X73267857Y-31928571D01*
X70146428Y-34964285D02*
X70146428Y-35678571D01*
X71646428Y-35678571D01*
X70932142Y-34464285D02*
X70932142Y-33964285D01*
X70146428Y-33750000D02*
X70146428Y-34464285D01*
X71646428Y-34464285D01*
X71646428Y-33750000D01*
X70146428Y-33107142D02*
X71646428Y-33107142D01*
X71646428Y-32750000D01*
X71575000Y-32535714D01*
X71432142Y-32392857D01*
X71289285Y-32321428D01*
X71003571Y-32250000D01*
X70789285Y-32250000D01*
X70503571Y-32321428D01*
X70360714Y-32392857D01*
X70217857Y-32535714D01*
X70146428Y-32750000D01*
X70146428Y-33107142D01*
D11*
X57150000Y-23114000D03*
X57150000Y-25614000D03*
D12*
X45212000Y-27051000D03*
D13*
X47712000Y-27051000D03*
D11*
X45466000Y-30988000D03*
X45466000Y-33488000D03*
X51689000Y-29337000D03*
X50632454Y-27071231D03*
X52705000Y-25654000D03*
X52705000Y-23154000D03*
D12*
X57150000Y-31369000D03*
D13*
X54650000Y-31369000D03*
D11*
X47200000Y-20800000D03*
X47200000Y-18300000D03*
D12*
X44450000Y-19050000D03*
D13*
X44450000Y-16550000D03*
D11*
X50038000Y-15367000D03*
X47538000Y-15367000D03*
D14*
X73000000Y-21000000D03*
D15*
X73000000Y-19000000D03*
D16*
X61976000Y-35306000D03*
D17*
X51816000Y-35306000D03*
D18*
X62992000Y-22828000D03*
X62992000Y-18828000D03*
D19*
X24000000Y-20000000D03*
X21500000Y-22500000D03*
X21500000Y-17500000D03*
D20*
X49800000Y-33500000D03*
X48514000Y-32512000D03*
D21*
X51054000Y-32512000D03*
D22*
X21000000Y-31000000D03*
D23*
X21000000Y-36080000D03*
D22*
X76000000Y-36000000D03*
D23*
X76000000Y-30920000D03*
D24*
X35687000Y-35941000D03*
D25*
X38227000Y-35941000D03*
X40767000Y-35941000D03*
D14*
X60813000Y-28852000D03*
D15*
X60813000Y-26852000D03*
X60813000Y-24852000D03*
X60813000Y-22852000D03*
X60813000Y-20852000D03*
X60813000Y-18852000D03*
D26*
X47371000Y-29484000D03*
X47371000Y-31984000D03*
X55626000Y-25634000D03*
X55626000Y-23134000D03*
D27*
X49423000Y-30861000D03*
X51923000Y-30861000D03*
X53868000Y-29210000D03*
X56368000Y-29210000D03*
X59035000Y-18796000D03*
X56535000Y-18796000D03*
D28*
X67818000Y-19558000D03*
X67818000Y-17018000D03*
X65900000Y-34800000D03*
X65900000Y-32260000D03*
X28900000Y-34200000D03*
X28900000Y-31660000D03*
D29*
X29000000Y-26000000D03*
X68000000Y-26000000D03*
D30*
X77470000Y-20574000D03*
X33890000Y-15310000D03*
X25000000Y-17000000D03*
X40000000Y-19200000D03*
X54102000Y-18900000D03*
X56400000Y-35000000D03*
X31700000Y-29600000D03*
X31700000Y-34000000D03*
X53340000Y-21082000D03*
X49276000Y-29337000D03*
X42100000Y-15500000D03*
X55372000Y-18669000D03*
D10*
X67818000Y-19558000D02*
X67774000Y-19602000D01*
X67774000Y-19602000D02*
X67774000Y-21844000D01*
X63438000Y-26162000D02*
X63754000Y-25846000D01*
X67774000Y-21844000D02*
X66548000Y-21844000D01*
X66548000Y-21844000D02*
X66040000Y-21844000D01*
X66040000Y-21844000D02*
X65532000Y-22352000D01*
X65532000Y-22352000D02*
X65532000Y-23114000D01*
X65532000Y-23114000D02*
X65024000Y-23622000D01*
X65024000Y-23622000D02*
X63754000Y-24892000D01*
X63438000Y-26162000D02*
X62748000Y-26852000D01*
X60813000Y-26852000D02*
X62748000Y-26852000D01*
X67774000Y-21844000D02*
X67818000Y-21800000D01*
X63754000Y-25846000D02*
X63754000Y-24892000D01*
X73000000Y-21000000D02*
X70200000Y-21000000D01*
X69400000Y-21800000D02*
X67818000Y-21800000D01*
X67818000Y-21800000D02*
X67800000Y-21800000D01*
X70200000Y-21000000D02*
X69400000Y-21800000D01*
X62992000Y-18828000D02*
X62992000Y-16256000D01*
X77470000Y-16764000D02*
X77470000Y-20574000D01*
X75692000Y-14986000D02*
X77470000Y-16764000D01*
X64008000Y-14986000D02*
X75692000Y-14986000D01*
X63500000Y-15494000D02*
X64008000Y-14986000D01*
X62992000Y-16002000D02*
X63500000Y-15494000D01*
X62992000Y-16256000D02*
X62992000Y-16002000D01*
X21500000Y-17500000D02*
X21500000Y-19900000D01*
X36400000Y-19200000D02*
X40000000Y-19200000D01*
X33100000Y-22500000D02*
X36400000Y-19200000D01*
X24100000Y-22500000D02*
X33100000Y-22500000D01*
X21500000Y-19900000D02*
X24100000Y-22500000D01*
X49800000Y-33500000D02*
X49800000Y-32600000D01*
X49800000Y-32600000D02*
X49784000Y-32600000D01*
X59182000Y-20000000D02*
X54500000Y-20000000D01*
X54100000Y-19600000D02*
X54500000Y-20000000D01*
X54100000Y-18902000D02*
X54100000Y-19600000D01*
X54100000Y-18902000D02*
X54102000Y-18900000D01*
X59182000Y-20000000D02*
X59100000Y-20000000D01*
X59100000Y-20000000D02*
X59182000Y-20000000D01*
X47200000Y-18300000D02*
X47200000Y-16507000D01*
X47200000Y-16507000D02*
X47157000Y-16550000D01*
X21000000Y-36080000D02*
X21000000Y-36200000D01*
X21000000Y-36200000D02*
X22700000Y-37900000D01*
X21000000Y-36080000D02*
X18420000Y-36080000D01*
X18420000Y-36080000D02*
X18400000Y-36100000D01*
X20980000Y-36080000D02*
X18900000Y-34000000D01*
X21000000Y-36100000D02*
X19300000Y-37800000D01*
X21000000Y-36080000D02*
X21000000Y-38400000D01*
X21000000Y-36080000D02*
X21000000Y-33400000D01*
X21020000Y-36080000D02*
X22700000Y-34400000D01*
X45466000Y-33488000D02*
X45466000Y-33166000D01*
X45466000Y-33166000D02*
X44100000Y-31800000D01*
X44450000Y-16550000D02*
X45850000Y-16550000D01*
X49784000Y-33020000D02*
X49784000Y-32600000D01*
X49784000Y-32600000D02*
X49784000Y-31222000D01*
X49784000Y-31222000D02*
X49423000Y-30861000D01*
X21000000Y-36080000D02*
X23280000Y-36080000D01*
X31700000Y-29600000D02*
X31600000Y-29500000D01*
X28900000Y-37554000D02*
X31700000Y-34000000D01*
X28554000Y-37900000D02*
X28900000Y-37554000D01*
X25100000Y-37900000D02*
X28554000Y-37900000D01*
X23280000Y-36080000D02*
X25100000Y-37900000D01*
D31*
X40767000Y-35941000D02*
X40767000Y-36830000D01*
D32*
X39624000Y-37973000D02*
X25273000Y-37973000D01*
X25273000Y-37973000D02*
X23380000Y-36080000D01*
X23380000Y-36080000D02*
X21000000Y-36080000D01*
X40767000Y-35941000D02*
X40767000Y-36830000D01*
X40767000Y-36830000D02*
X39624000Y-37973000D01*
D10*
X60813000Y-18852000D02*
X59091000Y-18852000D01*
X59091000Y-18852000D02*
X59035000Y-18796000D01*
X56368000Y-29210000D02*
X56368000Y-29484000D01*
X56368000Y-29484000D02*
X54650000Y-31202000D01*
X54650000Y-31202000D02*
X54650000Y-31369000D01*
X55626000Y-25634000D02*
X57130000Y-25634000D01*
X57130000Y-25634000D02*
X57150000Y-25614000D01*
X47371000Y-29484000D02*
X47371000Y-28321000D01*
X47712000Y-27980000D02*
X47712000Y-27051000D01*
X47371000Y-28321000D02*
X47712000Y-27980000D01*
X48895000Y-30333000D02*
X49423000Y-30861000D01*
X49784000Y-33020000D02*
X49784000Y-29845000D01*
X49276000Y-29337000D02*
X49276000Y-29210000D01*
X49276000Y-29210000D02*
X49276000Y-27051000D01*
X49784000Y-29845000D02*
X49276000Y-29337000D01*
X52705000Y-23154000D02*
X52030000Y-23154000D01*
X50632454Y-24551546D02*
X50632454Y-27071231D01*
X52030000Y-23154000D02*
X50632454Y-24551546D01*
X47712000Y-27051000D02*
X49276000Y-27051000D01*
X49276000Y-27051000D02*
X50612223Y-27051000D01*
X50612223Y-27051000D02*
X50632454Y-27071231D01*
X54650000Y-31369000D02*
X54650000Y-32472000D01*
X50673000Y-33909000D02*
X49784000Y-33020000D01*
X53213000Y-33909000D02*
X50673000Y-33909000D01*
X54650000Y-32472000D02*
X53213000Y-33909000D01*
X45466000Y-33488000D02*
X45760000Y-33488000D01*
X47538000Y-15367000D02*
X47538000Y-16169000D01*
X47538000Y-16169000D02*
X47157000Y-16550000D01*
X40767000Y-36830000D02*
X39624000Y-37973000D01*
X25273000Y-37973000D02*
X23380000Y-36080000D01*
X23380000Y-36080000D02*
X21000000Y-36080000D01*
X47157000Y-16550000D02*
X44450000Y-16550000D01*
X57150000Y-25614000D02*
X58206000Y-25614000D01*
X59634000Y-18852000D02*
X60813000Y-18852000D01*
X59182000Y-19304000D02*
X59634000Y-18852000D01*
X59182000Y-24638000D02*
X59182000Y-20000000D01*
X59182000Y-20000000D02*
X59182000Y-19304000D01*
X58206000Y-25614000D02*
X59182000Y-24638000D01*
X62992000Y-18828000D02*
X60837000Y-18828000D01*
X60837000Y-18828000D02*
X60813000Y-18852000D01*
X55626000Y-23134000D02*
X57130000Y-23134000D01*
X57130000Y-23134000D02*
X57150000Y-23114000D01*
X47371000Y-31984000D02*
X47986000Y-31984000D01*
X47986000Y-31984000D02*
X48514000Y-32512000D01*
X45212000Y-27051000D02*
X45212000Y-29210000D01*
X45466000Y-29464000D02*
X45466000Y-30988000D01*
X45212000Y-29210000D02*
X45466000Y-29464000D01*
X53868000Y-29210000D02*
X51816000Y-29210000D01*
X51816000Y-29210000D02*
X51689000Y-29337000D01*
X51689000Y-29337000D02*
X51689000Y-30627000D01*
X51689000Y-30627000D02*
X51923000Y-30861000D01*
X51054000Y-32512000D02*
X51054000Y-32385000D01*
X51054000Y-32385000D02*
X51689000Y-31750000D01*
X51689000Y-31750000D02*
X51689000Y-29337000D01*
X67818000Y-17018000D02*
X72136000Y-17018000D01*
X72898000Y-17526000D02*
X72898000Y-18898000D01*
X72390000Y-17018000D02*
X72898000Y-17526000D01*
X72136000Y-17018000D02*
X72390000Y-17018000D01*
X72898000Y-18898000D02*
X73000000Y-19000000D01*
X67818000Y-17018000D02*
X66040000Y-17018000D01*
X64516000Y-22860000D02*
X63024000Y-22860000D01*
X64770000Y-22606000D02*
X64516000Y-22860000D01*
X64770000Y-19812000D02*
X64770000Y-22606000D01*
X64770000Y-17526000D02*
X64770000Y-19812000D01*
X65278000Y-17018000D02*
X64770000Y-17526000D01*
X66040000Y-17018000D02*
X65278000Y-17018000D01*
X63024000Y-22860000D02*
X62992000Y-22828000D01*
X60813000Y-22852000D02*
X62968000Y-22852000D01*
X62968000Y-22852000D02*
X62992000Y-22828000D01*
X24000000Y-20000000D02*
X24020000Y-20020000D01*
X24020000Y-20020000D02*
X31590000Y-20020000D01*
X31590000Y-20020000D02*
X33990000Y-17620000D01*
X38300000Y-15800000D02*
X36480000Y-17620000D01*
X38600000Y-15500000D02*
X42100000Y-15500000D01*
X38300000Y-15800000D02*
X38600000Y-15500000D01*
X34130000Y-17620000D02*
X33990000Y-17620000D01*
X33990000Y-17620000D02*
X33980000Y-17620000D01*
X34240000Y-17620000D02*
X34130000Y-17620000D01*
X35520000Y-17620000D02*
X34240000Y-17620000D01*
X36480000Y-17620000D02*
X35520000Y-17620000D01*
X56535000Y-18796000D02*
X55499000Y-18796000D01*
X55499000Y-18796000D02*
X55372000Y-18669000D01*
X55372000Y-18669000D02*
X56515000Y-18669000D01*
X51308000Y-15367000D02*
X50038000Y-15367000D01*
X56515000Y-18669000D02*
X57023000Y-18161000D01*
X57023000Y-18161000D02*
X57023000Y-15875000D01*
X57023000Y-15875000D02*
X56007000Y-14859000D01*
X56007000Y-14859000D02*
X51816000Y-14859000D01*
X51816000Y-14859000D02*
X51308000Y-15367000D01*
X24196000Y-20000000D02*
X24000000Y-20000000D01*
X21100000Y-31100000D02*
X21000000Y-31000000D01*
X65900000Y-32260000D02*
X68400000Y-32260000D01*
X67500000Y-32300000D02*
X68400000Y-32300000D01*
X68360000Y-32300000D02*
X67500000Y-32300000D01*
X68400000Y-32260000D02*
X68360000Y-32300000D01*
D31*
X76000000Y-30920000D02*
X75120000Y-30920000D01*
X75120000Y-30920000D02*
X74200000Y-30000000D01*
X74200000Y-30000000D02*
X69900000Y-30000000D01*
X69900000Y-30000000D02*
X68400000Y-31500000D01*
X68400000Y-31500000D02*
X68400000Y-32300000D01*
X68400000Y-32300000D02*
X68400000Y-36800000D01*
X68400000Y-36800000D02*
X67500000Y-37700000D01*
X67500000Y-37700000D02*
X45066000Y-37700000D01*
X45066000Y-37700000D02*
X45085000Y-37719000D01*
X38227000Y-33655000D02*
X38227000Y-35941000D01*
X38608000Y-33274000D02*
X38227000Y-33655000D01*
X42291000Y-33274000D02*
X38608000Y-33274000D01*
X43434000Y-34417000D02*
X42291000Y-33274000D01*
X43434000Y-36068000D02*
X43434000Y-34417000D01*
X45085000Y-37719000D02*
X43434000Y-36068000D01*
D33*
G36*
X47170471Y-14155421D02*
G01*
X46941166Y-14250402D01*
X46734797Y-14388294D01*
X46559294Y-14563797D01*
X46421402Y-14770166D01*
X46326421Y-14999471D01*
X46278000Y-15242901D01*
X46278000Y-15491099D01*
X46326421Y-15734529D01*
X46421402Y-15963834D01*
X46559294Y-16170203D01*
X46734797Y-16345706D01*
X46941166Y-16483598D01*
X47170471Y-16578579D01*
X47413901Y-16627000D01*
X47662099Y-16627000D01*
X47905529Y-16578579D01*
X48134834Y-16483598D01*
X48341203Y-16345706D01*
X48516706Y-16170203D01*
X48654598Y-15963834D01*
X48749579Y-15734529D01*
X48788000Y-15541373D01*
X48826421Y-15734529D01*
X48921402Y-15963834D01*
X49059294Y-16170203D01*
X49234797Y-16345706D01*
X49441166Y-16483598D01*
X49670471Y-16578579D01*
X49913901Y-16627000D01*
X50162099Y-16627000D01*
X50405529Y-16578579D01*
X50634834Y-16483598D01*
X50841203Y-16345706D01*
X51016706Y-16170203D01*
X51028869Y-16152000D01*
X51269447Y-16152000D01*
X51308000Y-16155797D01*
X51346553Y-16152000D01*
X51346561Y-16152000D01*
X51461887Y-16140641D01*
X51609860Y-16095754D01*
X51746233Y-16022862D01*
X51865764Y-15924764D01*
X51890347Y-15894810D01*
X52141157Y-15644000D01*
X55681843Y-15644000D01*
X56238001Y-16200159D01*
X56238000Y-17532928D01*
X55785000Y-17532928D01*
X55660518Y-17545188D01*
X55540820Y-17581498D01*
X55442597Y-17634000D01*
X55270061Y-17634000D01*
X55070102Y-17673774D01*
X54881744Y-17751795D01*
X54712226Y-17865063D01*
X54568063Y-18009226D01*
X54454795Y-18178744D01*
X54376774Y-18367102D01*
X54337000Y-18567061D01*
X54337000Y-18770939D01*
X54376774Y-18970898D01*
X54454795Y-19159256D01*
X54568063Y-19328774D01*
X54712226Y-19472937D01*
X54881744Y-19586205D01*
X55070102Y-19664226D01*
X55209846Y-19692023D01*
X55254463Y-19775494D01*
X55333815Y-19872185D01*
X55430506Y-19951537D01*
X55540820Y-20010502D01*
X55660518Y-20046812D01*
X55785000Y-20059072D01*
X57285000Y-20059072D01*
X57409482Y-20046812D01*
X57529180Y-20010502D01*
X57639494Y-19951537D01*
X57736185Y-19872185D01*
X57785000Y-19812704D01*
X57833815Y-19872185D01*
X57930506Y-19951537D01*
X58040820Y-20010502D01*
X58160518Y-20046812D01*
X58285000Y-20059072D01*
X59616090Y-20059072D01*
X59531167Y-20162551D01*
X59416489Y-20377099D01*
X59345870Y-20609898D01*
X59322025Y-20852000D01*
X59345870Y-21094102D01*
X59416489Y-21326901D01*
X59531167Y-21541449D01*
X59685498Y-21729502D01*
X59834762Y-21852000D01*
X59685498Y-21974498D01*
X59531167Y-22162551D01*
X59416489Y-22377099D01*
X59345870Y-22609898D01*
X59322025Y-22852000D01*
X59345870Y-23094102D01*
X59416489Y-23326901D01*
X59531167Y-23541449D01*
X59685498Y-23729502D01*
X59834762Y-23852000D01*
X59685498Y-23974498D01*
X59531167Y-24162551D01*
X59416489Y-24377099D01*
X59345870Y-24609898D01*
X59322025Y-24852000D01*
X59345870Y-25094102D01*
X59416489Y-25326901D01*
X59531167Y-25541449D01*
X59685498Y-25729502D01*
X59834762Y-25852000D01*
X59685498Y-25974498D01*
X59531167Y-26162551D01*
X59416489Y-26377099D01*
X59345870Y-26609898D01*
X59322025Y-26852000D01*
X59345870Y-27094102D01*
X59416489Y-27326901D01*
X59531167Y-27541449D01*
X59657436Y-27695309D01*
X59608506Y-27721463D01*
X59511815Y-27800815D01*
X59432463Y-27897506D01*
X59373498Y-28007820D01*
X59337188Y-28127518D01*
X59324928Y-28252000D01*
X59324928Y-29452000D01*
X59337188Y-29576482D01*
X59373498Y-29696180D01*
X59432463Y-29806494D01*
X59511815Y-29903185D01*
X59608506Y-29982537D01*
X59718820Y-30041502D01*
X59838518Y-30077812D01*
X59963000Y-30090072D01*
X61663000Y-30090072D01*
X61787482Y-30077812D01*
X61907180Y-30041502D01*
X62017494Y-29982537D01*
X62114185Y-29903185D01*
X62193537Y-29806494D01*
X62252502Y-29696180D01*
X62288812Y-29576482D01*
X62301072Y-29452000D01*
X62301072Y-28252000D01*
X62288812Y-28127518D01*
X62252502Y-28007820D01*
X62193537Y-27897506D01*
X62114185Y-27800815D01*
X62017494Y-27721463D01*
X61968564Y-27695309D01*
X62016416Y-27637000D01*
X62709447Y-27637000D01*
X62748000Y-27640797D01*
X62786553Y-27637000D01*
X62786561Y-27637000D01*
X62901887Y-27625641D01*
X63049860Y-27580754D01*
X63186233Y-27507862D01*
X63305764Y-27409764D01*
X63330347Y-27379811D01*
X64020345Y-26689813D01*
X64020350Y-26689807D01*
X64281811Y-26428346D01*
X64311764Y-26403764D01*
X64409862Y-26284233D01*
X64482754Y-26147860D01*
X64521076Y-26021529D01*
X64527641Y-25999888D01*
X64532098Y-25954633D01*
X64539000Y-25884561D01*
X64539000Y-25884554D01*
X64542797Y-25846001D01*
X64539000Y-25807448D01*
X64539000Y-25737323D01*
X65333000Y-25737323D01*
X65333000Y-26262677D01*
X65435492Y-26777935D01*
X65636536Y-27263298D01*
X65928406Y-27700113D01*
X66299887Y-28071594D01*
X66736702Y-28363464D01*
X67222065Y-28564508D01*
X67737323Y-28667000D01*
X68262677Y-28667000D01*
X68777935Y-28564508D01*
X69263298Y-28363464D01*
X69700113Y-28071594D01*
X70071594Y-27700113D01*
X70363464Y-27263298D01*
X70564508Y-26777935D01*
X70667000Y-26262677D01*
X70667000Y-25737323D01*
X70564508Y-25222065D01*
X70363464Y-24736702D01*
X70071594Y-24299887D01*
X69700113Y-23928406D01*
X69263298Y-23636536D01*
X68777935Y-23435492D01*
X68262677Y-23333000D01*
X67737323Y-23333000D01*
X67222065Y-23435492D01*
X66736702Y-23636536D01*
X66299887Y-23928406D01*
X65928406Y-24299887D01*
X65636536Y-24736702D01*
X65435492Y-25222065D01*
X65333000Y-25737323D01*
X64539000Y-25737323D01*
X64539000Y-25217157D01*
X65606345Y-24149813D01*
X65606350Y-24149807D01*
X66059810Y-23696347D01*
X66089764Y-23671764D01*
X66187862Y-23552233D01*
X66260754Y-23415860D01*
X66296436Y-23298232D01*
X66305641Y-23267888D01*
X66313926Y-23183768D01*
X66317000Y-23152561D01*
X66317000Y-23152554D01*
X66320797Y-23114001D01*
X66317000Y-23075448D01*
X66317000Y-22677157D01*
X66365157Y-22629000D01*
X67735440Y-22629000D01*
X67774000Y-22632798D01*
X67927887Y-22617641D01*
X68035490Y-22585000D01*
X69361447Y-22585000D01*
X69400000Y-22588797D01*
X69438553Y-22585000D01*
X69438561Y-22585000D01*
X69553887Y-22573641D01*
X69701860Y-22528754D01*
X69838233Y-22455862D01*
X69957764Y-22357764D01*
X69982347Y-22327810D01*
X70525157Y-21785000D01*
X71542546Y-21785000D01*
X71560498Y-21844180D01*
X71619463Y-21954494D01*
X71698815Y-22051185D01*
X71795506Y-22130537D01*
X71905820Y-22189502D01*
X72025518Y-22225812D01*
X72150000Y-22238072D01*
X73850000Y-22238072D01*
X73974482Y-22225812D01*
X74094180Y-22189502D01*
X74204494Y-22130537D01*
X74301185Y-22051185D01*
X74380537Y-21954494D01*
X74439502Y-21844180D01*
X74475812Y-21724482D01*
X74488072Y-21600000D01*
X74488072Y-20400000D01*
X74475812Y-20275518D01*
X74439502Y-20155820D01*
X74380537Y-20045506D01*
X74301185Y-19948815D01*
X74204494Y-19869463D01*
X74155564Y-19843309D01*
X74281833Y-19689449D01*
X74396511Y-19474901D01*
X74467130Y-19242102D01*
X74490975Y-19000000D01*
X74467130Y-18757898D01*
X74396511Y-18525099D01*
X74281833Y-18310551D01*
X74127502Y-18122498D01*
X73939449Y-17968167D01*
X73724901Y-17853489D01*
X73683000Y-17840778D01*
X73683000Y-17564552D01*
X73686797Y-17525999D01*
X73683000Y-17487446D01*
X73683000Y-17487439D01*
X73671641Y-17372113D01*
X73669056Y-17363589D01*
X73655269Y-17318141D01*
X73626754Y-17224140D01*
X73553862Y-17087767D01*
X73455764Y-16968236D01*
X73425811Y-16943654D01*
X72972347Y-16490190D01*
X72947764Y-16460236D01*
X72828233Y-16362138D01*
X72691860Y-16289246D01*
X72543887Y-16244359D01*
X72428561Y-16233000D01*
X72428553Y-16233000D01*
X72390000Y-16229203D01*
X72351447Y-16233000D01*
X69259877Y-16233000D01*
X69087987Y-15975748D01*
X68860252Y-15748013D01*
X68592463Y-15569082D01*
X68294912Y-15445832D01*
X67979033Y-15383000D01*
X67656967Y-15383000D01*
X67341088Y-15445832D01*
X67043537Y-15569082D01*
X66775748Y-15748013D01*
X66548013Y-15975748D01*
X66376123Y-16233000D01*
X65316552Y-16233000D01*
X65277999Y-16229203D01*
X65239446Y-16233000D01*
X65239439Y-16233000D01*
X65138490Y-16242943D01*
X65124112Y-16244359D01*
X65089672Y-16254806D01*
X64976140Y-16289246D01*
X64839767Y-16362138D01*
X64720236Y-16460236D01*
X64695653Y-16490190D01*
X64242190Y-16943653D01*
X64212236Y-16968236D01*
X64114138Y-17087768D01*
X64041246Y-17224141D01*
X64041044Y-17224806D01*
X63966482Y-17202188D01*
X63842000Y-17189928D01*
X62142000Y-17189928D01*
X62017518Y-17202188D01*
X61897820Y-17238498D01*
X61787506Y-17297463D01*
X61690815Y-17376815D01*
X61611463Y-17473506D01*
X61552498Y-17583820D01*
X61517470Y-17699291D01*
X61305102Y-17634870D01*
X61123665Y-17617000D01*
X60502335Y-17617000D01*
X60320898Y-17634870D01*
X60183475Y-17676557D01*
X60139494Y-17640463D01*
X60029180Y-17581498D01*
X59909482Y-17545188D01*
X59785000Y-17532928D01*
X58285000Y-17532928D01*
X58160518Y-17545188D01*
X58040820Y-17581498D01*
X57930506Y-17640463D01*
X57833815Y-17719815D01*
X57808000Y-17751271D01*
X57808000Y-15913555D01*
X57811797Y-15875000D01*
X57808000Y-15836444D01*
X57808000Y-15836439D01*
X57799291Y-15748013D01*
X57796642Y-15721113D01*
X57751754Y-15573140D01*
X57749585Y-15569082D01*
X57678862Y-15436767D01*
X57580764Y-15317236D01*
X57550815Y-15292657D01*
X56589347Y-14331190D01*
X56564764Y-14301236D01*
X56445233Y-14203138D01*
X56308860Y-14130246D01*
X56298159Y-14127000D01*
X79873000Y-14127000D01*
X79873000Y-38873000D01*
X68647962Y-38873000D01*
X68661714Y-38861714D01*
X68712925Y-38799313D01*
X69499313Y-38012925D01*
X69561714Y-37961714D01*
X69766031Y-37712752D01*
X69917852Y-37428715D01*
X69983115Y-37213572D01*
X73861928Y-37213572D01*
X73861928Y-37500000D01*
X73874188Y-37624482D01*
X73910498Y-37744180D01*
X73969463Y-37854494D01*
X74048815Y-37951185D01*
X74145506Y-38030537D01*
X74255820Y-38089502D01*
X74375518Y-38125812D01*
X74500000Y-38138072D01*
X77500000Y-38138072D01*
X77624482Y-38125812D01*
X77744180Y-38089502D01*
X77854494Y-38030537D01*
X77951185Y-37951185D01*
X78030537Y-37854494D01*
X78089502Y-37744180D01*
X78125812Y-37624482D01*
X78138072Y-37500000D01*
X78138072Y-34500000D01*
X78125812Y-34375518D01*
X78089502Y-34255820D01*
X78030537Y-34145506D01*
X77951185Y-34048815D01*
X77854494Y-33969463D01*
X77744180Y-33910498D01*
X77624482Y-33874188D01*
X77500000Y-33861928D01*
X75165000Y-33861928D01*
X75165000Y-32885039D01*
X75377244Y-32972953D01*
X75789721Y-33055000D01*
X76210279Y-33055000D01*
X76622756Y-32972953D01*
X77011302Y-32812012D01*
X77360983Y-32578363D01*
X77658363Y-32280983D01*
X77892012Y-31931302D01*
X78052953Y-31542756D01*
X78135000Y-31130279D01*
X78135000Y-30709721D01*
X78052953Y-30297244D01*
X77892012Y-29908698D01*
X77658363Y-29559017D01*
X77360983Y-29261637D01*
X77011302Y-29027988D01*
X76622756Y-28867047D01*
X76210279Y-28785000D01*
X75789721Y-28785000D01*
X75384184Y-28865666D01*
X75361714Y-28838286D01*
X75112752Y-28633969D01*
X74828715Y-28482148D01*
X74520516Y-28388657D01*
X74280322Y-28365000D01*
X74280319Y-28365000D01*
X74200000Y-28357089D01*
X74119681Y-28365000D01*
X69980319Y-28365000D01*
X69899999Y-28357089D01*
X69819680Y-28365000D01*
X69819678Y-28365000D01*
X69579484Y-28388657D01*
X69271285Y-28482148D01*
X68987248Y-28633969D01*
X68738286Y-28838286D01*
X68687079Y-28900682D01*
X67300686Y-30287075D01*
X67238286Y-30338286D01*
X67033969Y-30587249D01*
X66882148Y-30871286D01*
X66862332Y-30936612D01*
X66674463Y-30811082D01*
X66376912Y-30687832D01*
X66061033Y-30625000D01*
X65738967Y-30625000D01*
X65423088Y-30687832D01*
X65125537Y-30811082D01*
X64857748Y-30990013D01*
X64630013Y-31217748D01*
X64451082Y-31485537D01*
X64327832Y-31783088D01*
X64265000Y-32098967D01*
X64265000Y-32421033D01*
X64327832Y-32736912D01*
X64451082Y-33034463D01*
X64630013Y-33302252D01*
X64857748Y-33529987D01*
X64857767Y-33530000D01*
X64857748Y-33530013D01*
X64630013Y-33757748D01*
X64451082Y-34025537D01*
X64327832Y-34323088D01*
X64265000Y-34638967D01*
X64265000Y-34961033D01*
X64327832Y-35276912D01*
X64451082Y-35574463D01*
X64630013Y-35842252D01*
X64852761Y-36065000D01*
X63014309Y-36065000D01*
X63114753Y-35914676D01*
X63211619Y-35680821D01*
X63261000Y-35432561D01*
X63261000Y-35179439D01*
X63211619Y-34931179D01*
X63114753Y-34697324D01*
X62974125Y-34486860D01*
X62795140Y-34307875D01*
X62584676Y-34167247D01*
X62350821Y-34070381D01*
X62102561Y-34021000D01*
X61849439Y-34021000D01*
X61601179Y-34070381D01*
X61367324Y-34167247D01*
X61156860Y-34307875D01*
X60977875Y-34486860D01*
X60837247Y-34697324D01*
X60740381Y-34931179D01*
X60691000Y-35179439D01*
X60691000Y-35432561D01*
X60740381Y-35680821D01*
X60837247Y-35914676D01*
X60937691Y-36065000D01*
X52854309Y-36065000D01*
X52954753Y-35914676D01*
X53051619Y-35680821D01*
X53101000Y-35432561D01*
X53101000Y-35179439D01*
X53051619Y-34931179D01*
X52954753Y-34697324D01*
X52814125Y-34486860D01*
X52635140Y-34307875D01*
X52424676Y-34167247D01*
X52190821Y-34070381D01*
X51942561Y-34021000D01*
X51689439Y-34021000D01*
X51441179Y-34070381D01*
X51207324Y-34167247D01*
X50996860Y-34307875D01*
X50817875Y-34486860D01*
X50677247Y-34697324D01*
X50580381Y-34931179D01*
X50531000Y-35179439D01*
X50531000Y-35432561D01*
X50580381Y-35680821D01*
X50677247Y-35914676D01*
X50777691Y-36065000D01*
X45743239Y-36065000D01*
X45069000Y-35390761D01*
X45069000Y-34687372D01*
X45098471Y-34699579D01*
X45341901Y-34748000D01*
X45590099Y-34748000D01*
X45833529Y-34699579D01*
X46062834Y-34604598D01*
X46269203Y-34466706D01*
X46444706Y-34291203D01*
X46582598Y-34084834D01*
X46677579Y-33855529D01*
X46726000Y-33612099D01*
X46726000Y-33370102D01*
X46746000Y-33372072D01*
X47583098Y-33372072D01*
X47607492Y-33417710D01*
X47743079Y-33582922D01*
X47908291Y-33718509D01*
X48096781Y-33819259D01*
X48301304Y-33881300D01*
X48514000Y-33902249D01*
X48717844Y-33882172D01*
X48730700Y-34012697D01*
X48792742Y-34217220D01*
X48893492Y-34405710D01*
X49029079Y-34570922D01*
X49194291Y-34706509D01*
X49382781Y-34807259D01*
X49587304Y-34869300D01*
X49800000Y-34890249D01*
X50012697Y-34869300D01*
X50217220Y-34807259D01*
X50405710Y-34706509D01*
X50570922Y-34570922D01*
X50706509Y-34405710D01*
X50807259Y-34217219D01*
X50869300Y-34012696D01*
X50880393Y-33900072D01*
X51504000Y-33900072D01*
X51628482Y-33887812D01*
X51748180Y-33851502D01*
X51858494Y-33792537D01*
X51955185Y-33713185D01*
X52034537Y-33616494D01*
X52093502Y-33506180D01*
X52129812Y-33386482D01*
X52142072Y-33262000D01*
X52142072Y-32407085D01*
X52216811Y-32332346D01*
X52246764Y-32307764D01*
X52344862Y-32188233D01*
X52379156Y-32124072D01*
X52673000Y-32124072D01*
X52797482Y-32111812D01*
X52917180Y-32075502D01*
X53027494Y-32016537D01*
X53124185Y-31937185D01*
X53203537Y-31840494D01*
X53259753Y-31735322D01*
X53270147Y-31787574D01*
X53378320Y-32048727D01*
X53535363Y-32283759D01*
X53735241Y-32483637D01*
X53970273Y-32640680D01*
X54231426Y-32748853D01*
X54508665Y-32804000D01*
X54791335Y-32804000D01*
X55068574Y-32748853D01*
X55329727Y-32640680D01*
X55564759Y-32483637D01*
X55731339Y-32317057D01*
X55760498Y-32413180D01*
X55819463Y-32523494D01*
X55898815Y-32620185D01*
X55995506Y-32699537D01*
X56105820Y-32758502D01*
X56225518Y-32794812D01*
X56350000Y-32807072D01*
X57950000Y-32807072D01*
X58074482Y-32794812D01*
X58194180Y-32758502D01*
X58304494Y-32699537D01*
X58401185Y-32620185D01*
X58480537Y-32523494D01*
X58539502Y-32413180D01*
X58575812Y-32293482D01*
X58588072Y-32169000D01*
X58588072Y-30569000D01*
X58575812Y-30444518D01*
X58539502Y-30324820D01*
X58480537Y-30214506D01*
X58401185Y-30117815D01*
X58304494Y-30038463D01*
X58194180Y-29979498D01*
X58074482Y-29943188D01*
X57950000Y-29930928D01*
X57746624Y-29930928D01*
X57756072Y-29835000D01*
X57756072Y-28585000D01*
X57743812Y-28460518D01*
X57707502Y-28340820D01*
X57648537Y-28230506D01*
X57569185Y-28133815D01*
X57472494Y-28054463D01*
X57362180Y-27995498D01*
X57242482Y-27959188D01*
X57118000Y-27946928D01*
X55618000Y-27946928D01*
X55493518Y-27959188D01*
X55373820Y-27995498D01*
X55263506Y-28054463D01*
X55166815Y-28133815D01*
X55118000Y-28193296D01*
X55069185Y-28133815D01*
X54972494Y-28054463D01*
X54862180Y-27995498D01*
X54742482Y-27959188D01*
X54618000Y-27946928D01*
X53118000Y-27946928D01*
X52993518Y-27959188D01*
X52873820Y-27995498D01*
X52763506Y-28054463D01*
X52666815Y-28133815D01*
X52587463Y-28230506D01*
X52528498Y-28340820D01*
X52515984Y-28382075D01*
X52492203Y-28358294D01*
X52285834Y-28220402D01*
X52056529Y-28125421D01*
X51813099Y-28077000D01*
X51564901Y-28077000D01*
X51323203Y-28125076D01*
X51435657Y-28049937D01*
X51611160Y-27874434D01*
X51749052Y-27668065D01*
X51844033Y-27438760D01*
X51892454Y-27195330D01*
X51892454Y-26947132D01*
X51844033Y-26703702D01*
X51752986Y-26483895D01*
X51901797Y-26632706D01*
X52108166Y-26770598D01*
X52337471Y-26865579D01*
X52580901Y-26914000D01*
X52829099Y-26914000D01*
X53072529Y-26865579D01*
X53301834Y-26770598D01*
X53508203Y-26632706D01*
X53683706Y-26457203D01*
X53821598Y-26250834D01*
X53916579Y-26021529D01*
X53965000Y-25778099D01*
X53965000Y-25529901D01*
X53916579Y-25286471D01*
X53821598Y-25057166D01*
X53683706Y-24850797D01*
X53508203Y-24675294D01*
X53301834Y-24537402D01*
X53072529Y-24442421D01*
X52879373Y-24404000D01*
X53072529Y-24365579D01*
X53301834Y-24270598D01*
X53508203Y-24132706D01*
X53683706Y-23957203D01*
X53821598Y-23750834D01*
X53916579Y-23521529D01*
X53965000Y-23278099D01*
X53965000Y-23029901D01*
X53916579Y-22786471D01*
X53821598Y-22557166D01*
X53705892Y-22384000D01*
X54362928Y-22384000D01*
X54362928Y-23884000D01*
X54375188Y-24008482D01*
X54411498Y-24128180D01*
X54470463Y-24238494D01*
X54549815Y-24335185D01*
X54609296Y-24384000D01*
X54549815Y-24432815D01*
X54470463Y-24529506D01*
X54411498Y-24639820D01*
X54375188Y-24759518D01*
X54362928Y-24884000D01*
X54362928Y-26384000D01*
X54375188Y-26508482D01*
X54411498Y-26628180D01*
X54470463Y-26738494D01*
X54549815Y-26835185D01*
X54646506Y-26914537D01*
X54756820Y-26973502D01*
X54876518Y-27009812D01*
X55001000Y-27022072D01*
X56251000Y-27022072D01*
X56375482Y-27009812D01*
X56495180Y-26973502D01*
X56605494Y-26914537D01*
X56702185Y-26835185D01*
X56728437Y-26803197D01*
X56782471Y-26825579D01*
X57025901Y-26874000D01*
X57274099Y-26874000D01*
X57517529Y-26825579D01*
X57746834Y-26730598D01*
X57953203Y-26592706D01*
X58128706Y-26417203D01*
X58266598Y-26210834D01*
X58361579Y-25981529D01*
X58410000Y-25738099D01*
X58410000Y-25489901D01*
X58361579Y-25246471D01*
X58266598Y-25017166D01*
X58128706Y-24810797D01*
X57953203Y-24635294D01*
X57746834Y-24497402D01*
X57517529Y-24402421D01*
X57324373Y-24364000D01*
X57517529Y-24325579D01*
X57746834Y-24230598D01*
X57953203Y-24092706D01*
X58128706Y-23917203D01*
X58266598Y-23710834D01*
X58361579Y-23481529D01*
X58410000Y-23238099D01*
X58410000Y-22989901D01*
X58361579Y-22746471D01*
X58266598Y-22517166D01*
X58128706Y-22310797D01*
X57953203Y-22135294D01*
X57746834Y-21997402D01*
X57517529Y-21902421D01*
X57274099Y-21854000D01*
X57025901Y-21854000D01*
X56782471Y-21902421D01*
X56703938Y-21934951D01*
X56702185Y-21932815D01*
X56605494Y-21853463D01*
X56495180Y-21794498D01*
X56375482Y-21758188D01*
X56251000Y-21745928D01*
X55001000Y-21745928D01*
X54876518Y-21758188D01*
X54756820Y-21794498D01*
X54646506Y-21853463D01*
X54549815Y-21932815D01*
X54470463Y-22029506D01*
X54411498Y-22139820D01*
X54375188Y-22259518D01*
X54362928Y-22384000D01*
X53705892Y-22384000D01*
X53683706Y-22350797D01*
X53508203Y-22175294D01*
X53301834Y-22037402D01*
X53072529Y-21942421D01*
X52829099Y-21894000D01*
X52580901Y-21894000D01*
X52337471Y-21942421D01*
X52108166Y-22037402D01*
X51901797Y-22175294D01*
X51726294Y-22350797D01*
X51588402Y-22557166D01*
X51493421Y-22786471D01*
X51445000Y-23029901D01*
X51445000Y-23278099D01*
X51493421Y-23521529D01*
X51588402Y-23750834D01*
X51726294Y-23957203D01*
X51901797Y-24132706D01*
X52108166Y-24270598D01*
X52337471Y-24365579D01*
X52530627Y-24404000D01*
X52337471Y-24442421D01*
X52108166Y-24537402D01*
X51901797Y-24675294D01*
X51726294Y-24850797D01*
X51588402Y-25057166D01*
X51493421Y-25286471D01*
X51445000Y-25529901D01*
X51445000Y-25778099D01*
X51493421Y-26021529D01*
X51584468Y-26241336D01*
X51435657Y-26092525D01*
X51229288Y-25954633D01*
X50999983Y-25859652D01*
X50756553Y-25811231D01*
X50508355Y-25811231D01*
X50264925Y-25859652D01*
X50035620Y-25954633D01*
X49829251Y-26092525D01*
X49653748Y-26268028D01*
X49515856Y-26474397D01*
X49420875Y-26703702D01*
X49372454Y-26947132D01*
X49372454Y-27195330D01*
X49420875Y-27438760D01*
X49515856Y-27668065D01*
X49653748Y-27874434D01*
X49829251Y-28049937D01*
X50035620Y-28187829D01*
X50264925Y-28282810D01*
X50508355Y-28331231D01*
X50756553Y-28331231D01*
X50998251Y-28283155D01*
X50885797Y-28358294D01*
X50710294Y-28533797D01*
X50572402Y-28740166D01*
X50477421Y-28969471D01*
X50429000Y-29212901D01*
X50429000Y-29461099D01*
X50471672Y-29675625D01*
X50417180Y-29646498D01*
X50297482Y-29610188D01*
X50173000Y-29597928D01*
X48673000Y-29597928D01*
X48634072Y-29601762D01*
X48634072Y-28734000D01*
X48621812Y-28609518D01*
X48585502Y-28489820D01*
X48526537Y-28379506D01*
X48448674Y-28284629D01*
X48626759Y-28165637D01*
X48826637Y-27965759D01*
X48983680Y-27730727D01*
X49091853Y-27469574D01*
X49147000Y-27192335D01*
X49147000Y-26909665D01*
X49091853Y-26632426D01*
X48983680Y-26371273D01*
X48826637Y-26136241D01*
X48626759Y-25936363D01*
X48391727Y-25779320D01*
X48130574Y-25671147D01*
X47853335Y-25616000D01*
X47570665Y-25616000D01*
X47293426Y-25671147D01*
X47032273Y-25779320D01*
X46797241Y-25936363D01*
X46630661Y-26102943D01*
X46601502Y-26006820D01*
X46542537Y-25896506D01*
X46463185Y-25799815D01*
X46366494Y-25720463D01*
X46256180Y-25661498D01*
X46136482Y-25625188D01*
X46012000Y-25612928D01*
X44821476Y-25612928D01*
X44821476Y-22362000D01*
X30870524Y-22362000D01*
X30870524Y-24098817D01*
X30700113Y-23928406D01*
X30263298Y-23636536D01*
X29777935Y-23435492D01*
X29262677Y-23333000D01*
X28737323Y-23333000D01*
X28222065Y-23435492D01*
X27736702Y-23636536D01*
X27299887Y-23928406D01*
X26928406Y-24299887D01*
X26636536Y-24736702D01*
X26435492Y-25222065D01*
X26333000Y-25737323D01*
X26333000Y-26262677D01*
X26435492Y-26777935D01*
X26636536Y-27263298D01*
X26928406Y-27700113D01*
X27299887Y-28071594D01*
X27736702Y-28363464D01*
X28222065Y-28564508D01*
X28737323Y-28667000D01*
X29262677Y-28667000D01*
X29777935Y-28564508D01*
X30263298Y-28363464D01*
X30700113Y-28071594D01*
X30870524Y-27901183D01*
X30870524Y-30232000D01*
X44455754Y-30232000D01*
X44349402Y-30391166D01*
X44254421Y-30620471D01*
X44206000Y-30863901D01*
X44206000Y-31112099D01*
X44254421Y-31355529D01*
X44349402Y-31584834D01*
X44487294Y-31791203D01*
X44662797Y-31966706D01*
X44869166Y-32104598D01*
X45098471Y-32199579D01*
X45291627Y-32238000D01*
X45098471Y-32276421D01*
X44869166Y-32371402D01*
X44662797Y-32509294D01*
X44487294Y-32684797D01*
X44349402Y-32891166D01*
X44311620Y-32982381D01*
X43503924Y-32174686D01*
X43452714Y-32112286D01*
X43203752Y-31907969D01*
X42919715Y-31756148D01*
X42611516Y-31662657D01*
X42371322Y-31639000D01*
X42371319Y-31639000D01*
X42291000Y-31631089D01*
X42210681Y-31639000D01*
X38688319Y-31639000D01*
X38607999Y-31631089D01*
X38527680Y-31639000D01*
X38527678Y-31639000D01*
X38287484Y-31662657D01*
X37979285Y-31756148D01*
X37695248Y-31907969D01*
X37446286Y-32112286D01*
X37395075Y-32174687D01*
X37127687Y-32442075D01*
X37065286Y-32493286D01*
X36860969Y-32742249D01*
X36709148Y-33026286D01*
X36615657Y-33334485D01*
X36592000Y-33574678D01*
X36584089Y-33655000D01*
X36592000Y-33735320D01*
X36592000Y-34403420D01*
X36587000Y-34402928D01*
X34787000Y-34402928D01*
X34662518Y-34415188D01*
X34542820Y-34451498D01*
X34432506Y-34510463D01*
X34335815Y-34589815D01*
X34256463Y-34686506D01*
X34197498Y-34796820D01*
X34161188Y-34916518D01*
X34148928Y-35041000D01*
X34148928Y-36841000D01*
X34161188Y-36965482D01*
X34197498Y-37085180D01*
X34256463Y-37195494D01*
X34335815Y-37292185D01*
X34432506Y-37371537D01*
X34542820Y-37430502D01*
X34662518Y-37466812D01*
X34787000Y-37479072D01*
X36587000Y-37479072D01*
X36711482Y-37466812D01*
X36831180Y-37430502D01*
X36941494Y-37371537D01*
X37038185Y-37292185D01*
X37117537Y-37195494D01*
X37136077Y-37160809D01*
X37314249Y-37307031D01*
X37598286Y-37458852D01*
X37906485Y-37552343D01*
X38227000Y-37583911D01*
X38547516Y-37552343D01*
X38855715Y-37458852D01*
X39139752Y-37307031D01*
X39388714Y-37102714D01*
X39558703Y-36895581D01*
X39574688Y-36919505D01*
X39788495Y-37133312D01*
X40039905Y-37301299D01*
X40319257Y-37417011D01*
X40615816Y-37476000D01*
X40918184Y-37476000D01*
X41214743Y-37417011D01*
X41494095Y-37301299D01*
X41745505Y-37133312D01*
X41959312Y-36919505D01*
X42001491Y-36856380D01*
X42067969Y-36980751D01*
X42272286Y-37229714D01*
X42334686Y-37280924D01*
X43853084Y-38799323D01*
X43904286Y-38861714D01*
X43918038Y-38873000D01*
X17127000Y-38873000D01*
X17127000Y-29500000D01*
X18861928Y-29500000D01*
X18861928Y-32500000D01*
X18874188Y-32624482D01*
X18910498Y-32744180D01*
X18969463Y-32854494D01*
X19048815Y-32951185D01*
X19145506Y-33030537D01*
X19255820Y-33089502D01*
X19375518Y-33125812D01*
X19500000Y-33138072D01*
X22135000Y-33138072D01*
X22135000Y-34270640D01*
X22011302Y-34187988D01*
X21622756Y-34027047D01*
X21210279Y-33945000D01*
X20789721Y-33945000D01*
X20377244Y-34027047D01*
X19988698Y-34187988D01*
X19639017Y-34421637D01*
X19341637Y-34719017D01*
X19107988Y-35068698D01*
X18947047Y-35457244D01*
X18865000Y-35869721D01*
X18865000Y-36290279D01*
X18947047Y-36702756D01*
X19107988Y-37091302D01*
X19341637Y-37440983D01*
X19639017Y-37738363D01*
X19988698Y-37972012D01*
X20377244Y-38132953D01*
X20789721Y-38215000D01*
X21210279Y-38215000D01*
X21622756Y-38132953D01*
X22011302Y-37972012D01*
X22360983Y-37738363D01*
X22658363Y-37440983D01*
X22892012Y-37091302D01*
X23052953Y-36702756D01*
X23135000Y-36290279D01*
X23135000Y-36013571D01*
X28505000Y-36013571D01*
X28505000Y-35788461D01*
X28738967Y-35835000D01*
X29061033Y-35835000D01*
X29376912Y-35772168D01*
X29674463Y-35648918D01*
X29942252Y-35469987D01*
X30169987Y-35242252D01*
X30348918Y-34974463D01*
X30472168Y-34676912D01*
X30535000Y-34361033D01*
X30535000Y-34038967D01*
X30472168Y-33723088D01*
X30348918Y-33425537D01*
X30169987Y-33157748D01*
X29942252Y-32930013D01*
X29942233Y-32930000D01*
X29942252Y-32929987D01*
X30169987Y-32702252D01*
X30348918Y-32434463D01*
X30472168Y-32136912D01*
X30535000Y-31821033D01*
X30535000Y-31498967D01*
X30472168Y-31183088D01*
X30348918Y-30885537D01*
X30169987Y-30617748D01*
X29942252Y-30390013D01*
X29674463Y-30211082D01*
X29376912Y-30087832D01*
X29061033Y-30025000D01*
X28738967Y-30025000D01*
X28505000Y-30071539D01*
X28505000Y-29586428D01*
X23138072Y-29586428D01*
X23138072Y-29500000D01*
X23125812Y-29375518D01*
X23089502Y-29255820D01*
X23030537Y-29145506D01*
X22951185Y-29048815D01*
X22854494Y-28969463D01*
X22744180Y-28910498D01*
X22624482Y-28874188D01*
X22500000Y-28861928D01*
X19500000Y-28861928D01*
X19375518Y-28874188D01*
X19255820Y-28910498D01*
X19145506Y-28969463D01*
X19048815Y-29048815D01*
X18969463Y-29145506D01*
X18910498Y-29255820D01*
X18874188Y-29375518D01*
X18861928Y-29500000D01*
X17127000Y-29500000D01*
X17127000Y-22363589D01*
X20115000Y-22363589D01*
X20115000Y-22636411D01*
X20168225Y-22903989D01*
X20272629Y-23156043D01*
X20424201Y-23382886D01*
X20617114Y-23575799D01*
X20843957Y-23727371D01*
X21096011Y-23831775D01*
X21363589Y-23885000D01*
X21636411Y-23885000D01*
X21903989Y-23831775D01*
X22156043Y-23727371D01*
X22382886Y-23575799D01*
X22575799Y-23382886D01*
X22727371Y-23156043D01*
X22831775Y-22903989D01*
X22885000Y-22636411D01*
X22885000Y-22363589D01*
X22831775Y-22096011D01*
X22727371Y-21843957D01*
X22575799Y-21617114D01*
X22382886Y-21424201D01*
X22156043Y-21272629D01*
X21903989Y-21168225D01*
X21636411Y-21115000D01*
X21363589Y-21115000D01*
X21096011Y-21168225D01*
X20843957Y-21272629D01*
X20617114Y-21424201D01*
X20424201Y-21617114D01*
X20272629Y-21843957D01*
X20168225Y-22096011D01*
X20115000Y-22363589D01*
X17127000Y-22363589D01*
X17127000Y-19863589D01*
X22615000Y-19863589D01*
X22615000Y-20136411D01*
X22668225Y-20403989D01*
X22772629Y-20656043D01*
X22924201Y-20882886D01*
X23117114Y-21075799D01*
X23343957Y-21227371D01*
X23596011Y-21331775D01*
X23863589Y-21385000D01*
X24136411Y-21385000D01*
X24403989Y-21331775D01*
X24656043Y-21227371D01*
X24882886Y-21075799D01*
X25075799Y-20882886D01*
X25127841Y-20805000D01*
X31551447Y-20805000D01*
X31590000Y-20808797D01*
X31628553Y-20805000D01*
X31628561Y-20805000D01*
X31743887Y-20793641D01*
X31891860Y-20748754D01*
X32028233Y-20675862D01*
X32147764Y-20577764D01*
X32172347Y-20547810D01*
X34315157Y-18405000D01*
X36441447Y-18405000D01*
X36480000Y-18408797D01*
X36518553Y-18405000D01*
X36518561Y-18405000D01*
X36633887Y-18393641D01*
X36781860Y-18348754D01*
X36918233Y-18275862D01*
X36949745Y-18250000D01*
X43011928Y-18250000D01*
X43011928Y-19850000D01*
X43024188Y-19974482D01*
X43060498Y-20094180D01*
X43119463Y-20204494D01*
X43198815Y-20301185D01*
X43295506Y-20380537D01*
X43405820Y-20439502D01*
X43525518Y-20475812D01*
X43650000Y-20488072D01*
X45250000Y-20488072D01*
X45374482Y-20475812D01*
X45494180Y-20439502D01*
X45604494Y-20380537D01*
X45701185Y-20301185D01*
X45780537Y-20204494D01*
X45839502Y-20094180D01*
X45875812Y-19974482D01*
X45888072Y-19850000D01*
X45888072Y-18250000D01*
X45880775Y-18175901D01*
X45940000Y-18175901D01*
X45940000Y-18424099D01*
X45988421Y-18667529D01*
X46083402Y-18896834D01*
X46221294Y-19103203D01*
X46396797Y-19278706D01*
X46603166Y-19416598D01*
X46832471Y-19511579D01*
X47025627Y-19550000D01*
X46832471Y-19588421D01*
X46603166Y-19683402D01*
X46396797Y-19821294D01*
X46221294Y-19996797D01*
X46083402Y-20203166D01*
X45988421Y-20432471D01*
X45940000Y-20675901D01*
X45940000Y-20924099D01*
X45988421Y-21167529D01*
X46083402Y-21396834D01*
X46221294Y-21603203D01*
X46396797Y-21778706D01*
X46603166Y-21916598D01*
X46832471Y-22011579D01*
X47075901Y-22060000D01*
X47324099Y-22060000D01*
X47567529Y-22011579D01*
X47796834Y-21916598D01*
X48003203Y-21778706D01*
X48178706Y-21603203D01*
X48316598Y-21396834D01*
X48411579Y-21167529D01*
X48460000Y-20924099D01*
X48460000Y-20675901D01*
X48411579Y-20432471D01*
X48316598Y-20203166D01*
X48178706Y-19996797D01*
X48003203Y-19821294D01*
X47796834Y-19683402D01*
X47567529Y-19588421D01*
X47374373Y-19550000D01*
X47567529Y-19511579D01*
X47796834Y-19416598D01*
X48003203Y-19278706D01*
X48178706Y-19103203D01*
X48316598Y-18896834D01*
X48411579Y-18667529D01*
X48460000Y-18424099D01*
X48460000Y-18175901D01*
X48411579Y-17932471D01*
X48316598Y-17703166D01*
X48178706Y-17496797D01*
X48003203Y-17321294D01*
X47796834Y-17183402D01*
X47567529Y-17088421D01*
X47324099Y-17040000D01*
X47075901Y-17040000D01*
X46832471Y-17088421D01*
X46603166Y-17183402D01*
X46396797Y-17321294D01*
X46221294Y-17496797D01*
X46083402Y-17703166D01*
X45988421Y-17932471D01*
X45940000Y-18175901D01*
X45880775Y-18175901D01*
X45875812Y-18125518D01*
X45839502Y-18005820D01*
X45780537Y-17895506D01*
X45701185Y-17798815D01*
X45604494Y-17719463D01*
X45494180Y-17660498D01*
X45398057Y-17631339D01*
X45564637Y-17464759D01*
X45721680Y-17229727D01*
X45829853Y-16968574D01*
X45885000Y-16691335D01*
X45885000Y-16408665D01*
X45829853Y-16131426D01*
X45721680Y-15870273D01*
X45564637Y-15635241D01*
X45364759Y-15435363D01*
X45129727Y-15278320D01*
X44868574Y-15170147D01*
X44591335Y-15115000D01*
X44308665Y-15115000D01*
X44031426Y-15170147D01*
X43770273Y-15278320D01*
X43535241Y-15435363D01*
X43335363Y-15635241D01*
X43178320Y-15870273D01*
X43070147Y-16131426D01*
X43015000Y-16408665D01*
X43015000Y-16691335D01*
X43070147Y-16968574D01*
X43178320Y-17229727D01*
X43335363Y-17464759D01*
X43501943Y-17631339D01*
X43405820Y-17660498D01*
X43295506Y-17719463D01*
X43198815Y-17798815D01*
X43119463Y-17895506D01*
X43060498Y-18005820D01*
X43024188Y-18125518D01*
X43011928Y-18250000D01*
X36949745Y-18250000D01*
X37037764Y-18177764D01*
X37062347Y-18147810D01*
X38925157Y-16285000D01*
X41421289Y-16285000D01*
X41440226Y-16303937D01*
X41609744Y-16417205D01*
X41798102Y-16495226D01*
X41998061Y-16535000D01*
X42201939Y-16535000D01*
X42401898Y-16495226D01*
X42590256Y-16417205D01*
X42759774Y-16303937D01*
X42903937Y-16159774D01*
X43017205Y-15990256D01*
X43095226Y-15801898D01*
X43135000Y-15601939D01*
X43135000Y-15398061D01*
X43095226Y-15198102D01*
X43017205Y-15009744D01*
X42903937Y-14840226D01*
X42759774Y-14696063D01*
X42590256Y-14582795D01*
X42401898Y-14504774D01*
X42201939Y-14465000D01*
X41998061Y-14465000D01*
X41798102Y-14504774D01*
X41609744Y-14582795D01*
X41440226Y-14696063D01*
X41421289Y-14715000D01*
X38638552Y-14715000D01*
X38599999Y-14711203D01*
X38561446Y-14715000D01*
X38561439Y-14715000D01*
X38446113Y-14726359D01*
X38298140Y-14771246D01*
X38161767Y-14844138D01*
X38042236Y-14942236D01*
X38017653Y-14972190D01*
X36154843Y-16835000D01*
X34028556Y-16835000D01*
X33990000Y-16831203D01*
X33951444Y-16835000D01*
X33941439Y-16835000D01*
X33826113Y-16846359D01*
X33678140Y-16891246D01*
X33541767Y-16964138D01*
X33422236Y-17062236D01*
X33351884Y-17147959D01*
X31264843Y-19235000D01*
X25154568Y-19235000D01*
X25075799Y-19117114D01*
X24882886Y-18924201D01*
X24656043Y-18772629D01*
X24403989Y-18668225D01*
X24136411Y-18615000D01*
X23863589Y-18615000D01*
X23596011Y-18668225D01*
X23343957Y-18772629D01*
X23117114Y-18924201D01*
X22924201Y-19117114D01*
X22772629Y-19343957D01*
X22668225Y-19596011D01*
X22615000Y-19863589D01*
X17127000Y-19863589D01*
X17127000Y-17363589D01*
X20115000Y-17363589D01*
X20115000Y-17636411D01*
X20168225Y-17903989D01*
X20272629Y-18156043D01*
X20424201Y-18382886D01*
X20617114Y-18575799D01*
X20843957Y-18727371D01*
X21096011Y-18831775D01*
X21363589Y-18885000D01*
X21636411Y-18885000D01*
X21903989Y-18831775D01*
X22156043Y-18727371D01*
X22382886Y-18575799D01*
X22575799Y-18382886D01*
X22727371Y-18156043D01*
X22831775Y-17903989D01*
X22885000Y-17636411D01*
X22885000Y-17363589D01*
X22831775Y-17096011D01*
X22727371Y-16843957D01*
X22575799Y-16617114D01*
X22382886Y-16424201D01*
X22156043Y-16272629D01*
X21903989Y-16168225D01*
X21636411Y-16115000D01*
X21363589Y-16115000D01*
X21096011Y-16168225D01*
X20843957Y-16272629D01*
X20617114Y-16424201D01*
X20424201Y-16617114D01*
X20272629Y-16843957D01*
X20168225Y-17096011D01*
X20115000Y-17363589D01*
X17127000Y-17363589D01*
X17127000Y-14127000D01*
X47313354Y-14127000D01*
X47170471Y-14155421D01*
G37*
X47170471Y-14155421D02*
X46941166Y-14250402D01*
X46734797Y-14388294D01*
X46559294Y-14563797D01*
X46421402Y-14770166D01*
X46326421Y-14999471D01*
X46278000Y-15242901D01*
X46278000Y-15491099D01*
X46326421Y-15734529D01*
X46421402Y-15963834D01*
X46559294Y-16170203D01*
X46734797Y-16345706D01*
X46941166Y-16483598D01*
X47170471Y-16578579D01*
X47413901Y-16627000D01*
X47662099Y-16627000D01*
X47905529Y-16578579D01*
X48134834Y-16483598D01*
X48341203Y-16345706D01*
X48516706Y-16170203D01*
X48654598Y-15963834D01*
X48749579Y-15734529D01*
X48788000Y-15541373D01*
X48826421Y-15734529D01*
X48921402Y-15963834D01*
X49059294Y-16170203D01*
X49234797Y-16345706D01*
X49441166Y-16483598D01*
X49670471Y-16578579D01*
X49913901Y-16627000D01*
X50162099Y-16627000D01*
X50405529Y-16578579D01*
X50634834Y-16483598D01*
X50841203Y-16345706D01*
X51016706Y-16170203D01*
X51028869Y-16152000D01*
X51269447Y-16152000D01*
X51308000Y-16155797D01*
X51346553Y-16152000D01*
X51346561Y-16152000D01*
X51461887Y-16140641D01*
X51609860Y-16095754D01*
X51746233Y-16022862D01*
X51865764Y-15924764D01*
X51890347Y-15894810D01*
X52141157Y-15644000D01*
X55681843Y-15644000D01*
X56238001Y-16200159D01*
X56238000Y-17532928D01*
X55785000Y-17532928D01*
X55660518Y-17545188D01*
X55540820Y-17581498D01*
X55442597Y-17634000D01*
X55270061Y-17634000D01*
X55070102Y-17673774D01*
X54881744Y-17751795D01*
X54712226Y-17865063D01*
X54568063Y-18009226D01*
X54454795Y-18178744D01*
X54376774Y-18367102D01*
X54337000Y-18567061D01*
X54337000Y-18770939D01*
X54376774Y-18970898D01*
X54454795Y-19159256D01*
X54568063Y-19328774D01*
X54712226Y-19472937D01*
X54881744Y-19586205D01*
X55070102Y-19664226D01*
X55209846Y-19692023D01*
X55254463Y-19775494D01*
X55333815Y-19872185D01*
X55430506Y-19951537D01*
X55540820Y-20010502D01*
X55660518Y-20046812D01*
X55785000Y-20059072D01*
X57285000Y-20059072D01*
X57409482Y-20046812D01*
X57529180Y-20010502D01*
X57639494Y-19951537D01*
X57736185Y-19872185D01*
X57785000Y-19812704D01*
X57833815Y-19872185D01*
X57930506Y-19951537D01*
X58040820Y-20010502D01*
X58160518Y-20046812D01*
X58285000Y-20059072D01*
X59616090Y-20059072D01*
X59531167Y-20162551D01*
X59416489Y-20377099D01*
X59345870Y-20609898D01*
X59322025Y-20852000D01*
X59345870Y-21094102D01*
X59416489Y-21326901D01*
X59531167Y-21541449D01*
X59685498Y-21729502D01*
X59834762Y-21852000D01*
X59685498Y-21974498D01*
X59531167Y-22162551D01*
X59416489Y-22377099D01*
X59345870Y-22609898D01*
X59322025Y-22852000D01*
X59345870Y-23094102D01*
X59416489Y-23326901D01*
X59531167Y-23541449D01*
X59685498Y-23729502D01*
X59834762Y-23852000D01*
X59685498Y-23974498D01*
X59531167Y-24162551D01*
X59416489Y-24377099D01*
X59345870Y-24609898D01*
X59322025Y-24852000D01*
X59345870Y-25094102D01*
X59416489Y-25326901D01*
X59531167Y-25541449D01*
X59685498Y-25729502D01*
X59834762Y-25852000D01*
X59685498Y-25974498D01*
X59531167Y-26162551D01*
X59416489Y-26377099D01*
X59345870Y-26609898D01*
X59322025Y-26852000D01*
X59345870Y-27094102D01*
X59416489Y-27326901D01*
X59531167Y-27541449D01*
X59657436Y-27695309D01*
X59608506Y-27721463D01*
X59511815Y-27800815D01*
X59432463Y-27897506D01*
X59373498Y-28007820D01*
X59337188Y-28127518D01*
X59324928Y-28252000D01*
X59324928Y-29452000D01*
X59337188Y-29576482D01*
X59373498Y-29696180D01*
X59432463Y-29806494D01*
X59511815Y-29903185D01*
X59608506Y-29982537D01*
X59718820Y-30041502D01*
X59838518Y-30077812D01*
X59963000Y-30090072D01*
X61663000Y-30090072D01*
X61787482Y-30077812D01*
X61907180Y-30041502D01*
X62017494Y-29982537D01*
X62114185Y-29903185D01*
X62193537Y-29806494D01*
X62252502Y-29696180D01*
X62288812Y-29576482D01*
X62301072Y-29452000D01*
X62301072Y-28252000D01*
X62288812Y-28127518D01*
X62252502Y-28007820D01*
X62193537Y-27897506D01*
X62114185Y-27800815D01*
X62017494Y-27721463D01*
X61968564Y-27695309D01*
X62016416Y-27637000D01*
X62709447Y-27637000D01*
X62748000Y-27640797D01*
X62786553Y-27637000D01*
X62786561Y-27637000D01*
X62901887Y-27625641D01*
X63049860Y-27580754D01*
X63186233Y-27507862D01*
X63305764Y-27409764D01*
X63330347Y-27379811D01*
X64020345Y-26689813D01*
X64020350Y-26689807D01*
X64281811Y-26428346D01*
X64311764Y-26403764D01*
X64409862Y-26284233D01*
X64482754Y-26147860D01*
X64521076Y-26021529D01*
X64527641Y-25999888D01*
X64532098Y-25954633D01*
X64539000Y-25884561D01*
X64539000Y-25884554D01*
X64542797Y-25846001D01*
X64539000Y-25807448D01*
X64539000Y-25737323D01*
X65333000Y-25737323D01*
X65333000Y-26262677D01*
X65435492Y-26777935D01*
X65636536Y-27263298D01*
X65928406Y-27700113D01*
X66299887Y-28071594D01*
X66736702Y-28363464D01*
X67222065Y-28564508D01*
X67737323Y-28667000D01*
X68262677Y-28667000D01*
X68777935Y-28564508D01*
X69263298Y-28363464D01*
X69700113Y-28071594D01*
X70071594Y-27700113D01*
X70363464Y-27263298D01*
X70564508Y-26777935D01*
X70667000Y-26262677D01*
X70667000Y-25737323D01*
X70564508Y-25222065D01*
X70363464Y-24736702D01*
X70071594Y-24299887D01*
X69700113Y-23928406D01*
X69263298Y-23636536D01*
X68777935Y-23435492D01*
X68262677Y-23333000D01*
X67737323Y-23333000D01*
X67222065Y-23435492D01*
X66736702Y-23636536D01*
X66299887Y-23928406D01*
X65928406Y-24299887D01*
X65636536Y-24736702D01*
X65435492Y-25222065D01*
X65333000Y-25737323D01*
X64539000Y-25737323D01*
X64539000Y-25217157D01*
X65606345Y-24149813D01*
X65606350Y-24149807D01*
X66059810Y-23696347D01*
X66089764Y-23671764D01*
X66187862Y-23552233D01*
X66260754Y-23415860D01*
X66296436Y-23298232D01*
X66305641Y-23267888D01*
X66313926Y-23183768D01*
X66317000Y-23152561D01*
X66317000Y-23152554D01*
X66320797Y-23114001D01*
X66317000Y-23075448D01*
X66317000Y-22677157D01*
X66365157Y-22629000D01*
X67735440Y-22629000D01*
X67774000Y-22632798D01*
X67927887Y-22617641D01*
X68035490Y-22585000D01*
X69361447Y-22585000D01*
X69400000Y-22588797D01*
X69438553Y-22585000D01*
X69438561Y-22585000D01*
X69553887Y-22573641D01*
X69701860Y-22528754D01*
X69838233Y-22455862D01*
X69957764Y-22357764D01*
X69982347Y-22327810D01*
X70525157Y-21785000D01*
X71542546Y-21785000D01*
X71560498Y-21844180D01*
X71619463Y-21954494D01*
X71698815Y-22051185D01*
X71795506Y-22130537D01*
X71905820Y-22189502D01*
X72025518Y-22225812D01*
X72150000Y-22238072D01*
X73850000Y-22238072D01*
X73974482Y-22225812D01*
X74094180Y-22189502D01*
X74204494Y-22130537D01*
X74301185Y-22051185D01*
X74380537Y-21954494D01*
X74439502Y-21844180D01*
X74475812Y-21724482D01*
X74488072Y-21600000D01*
X74488072Y-20400000D01*
X74475812Y-20275518D01*
X74439502Y-20155820D01*
X74380537Y-20045506D01*
X74301185Y-19948815D01*
X74204494Y-19869463D01*
X74155564Y-19843309D01*
X74281833Y-19689449D01*
X74396511Y-19474901D01*
X74467130Y-19242102D01*
X74490975Y-19000000D01*
X74467130Y-18757898D01*
X74396511Y-18525099D01*
X74281833Y-18310551D01*
X74127502Y-18122498D01*
X73939449Y-17968167D01*
X73724901Y-17853489D01*
X73683000Y-17840778D01*
X73683000Y-17564552D01*
X73686797Y-17525999D01*
X73683000Y-17487446D01*
X73683000Y-17487439D01*
X73671641Y-17372113D01*
X73669056Y-17363589D01*
X73655269Y-17318141D01*
X73626754Y-17224140D01*
X73553862Y-17087767D01*
X73455764Y-16968236D01*
X73425811Y-16943654D01*
X72972347Y-16490190D01*
X72947764Y-16460236D01*
X72828233Y-16362138D01*
X72691860Y-16289246D01*
X72543887Y-16244359D01*
X72428561Y-16233000D01*
X72428553Y-16233000D01*
X72390000Y-16229203D01*
X72351447Y-16233000D01*
X69259877Y-16233000D01*
X69087987Y-15975748D01*
X68860252Y-15748013D01*
X68592463Y-15569082D01*
X68294912Y-15445832D01*
X67979033Y-15383000D01*
X67656967Y-15383000D01*
X67341088Y-15445832D01*
X67043537Y-15569082D01*
X66775748Y-15748013D01*
X66548013Y-15975748D01*
X66376123Y-16233000D01*
X65316552Y-16233000D01*
X65277999Y-16229203D01*
X65239446Y-16233000D01*
X65239439Y-16233000D01*
X65138490Y-16242943D01*
X65124112Y-16244359D01*
X65089672Y-16254806D01*
X64976140Y-16289246D01*
X64839767Y-16362138D01*
X64720236Y-16460236D01*
X64695653Y-16490190D01*
X64242190Y-16943653D01*
X64212236Y-16968236D01*
X64114138Y-17087768D01*
X64041246Y-17224141D01*
X64041044Y-17224806D01*
X63966482Y-17202188D01*
X63842000Y-17189928D01*
X62142000Y-17189928D01*
X62017518Y-17202188D01*
X61897820Y-17238498D01*
X61787506Y-17297463D01*
X61690815Y-17376815D01*
X61611463Y-17473506D01*
X61552498Y-17583820D01*
X61517470Y-17699291D01*
X61305102Y-17634870D01*
X61123665Y-17617000D01*
X60502335Y-17617000D01*
X60320898Y-17634870D01*
X60183475Y-17676557D01*
X60139494Y-17640463D01*
X60029180Y-17581498D01*
X59909482Y-17545188D01*
X59785000Y-17532928D01*
X58285000Y-17532928D01*
X58160518Y-17545188D01*
X58040820Y-17581498D01*
X57930506Y-17640463D01*
X57833815Y-17719815D01*
X57808000Y-17751271D01*
X57808000Y-15913555D01*
X57811797Y-15875000D01*
X57808000Y-15836444D01*
X57808000Y-15836439D01*
X57799291Y-15748013D01*
X57796642Y-15721113D01*
X57751754Y-15573140D01*
X57749585Y-15569082D01*
X57678862Y-15436767D01*
X57580764Y-15317236D01*
X57550815Y-15292657D01*
X56589347Y-14331190D01*
X56564764Y-14301236D01*
X56445233Y-14203138D01*
X56308860Y-14130246D01*
X56298159Y-14127000D01*
X79873000Y-14127000D01*
X79873000Y-38873000D01*
X68647962Y-38873000D01*
X68661714Y-38861714D01*
X68712925Y-38799313D01*
X69499313Y-38012925D01*
X69561714Y-37961714D01*
X69766031Y-37712752D01*
X69917852Y-37428715D01*
X69983115Y-37213572D01*
X73861928Y-37213572D01*
X73861928Y-37500000D01*
X73874188Y-37624482D01*
X73910498Y-37744180D01*
X73969463Y-37854494D01*
X74048815Y-37951185D01*
X74145506Y-38030537D01*
X74255820Y-38089502D01*
X74375518Y-38125812D01*
X74500000Y-38138072D01*
X77500000Y-38138072D01*
X77624482Y-38125812D01*
X77744180Y-38089502D01*
X77854494Y-38030537D01*
X77951185Y-37951185D01*
X78030537Y-37854494D01*
X78089502Y-37744180D01*
X78125812Y-37624482D01*
X78138072Y-37500000D01*
X78138072Y-34500000D01*
X78125812Y-34375518D01*
X78089502Y-34255820D01*
X78030537Y-34145506D01*
X77951185Y-34048815D01*
X77854494Y-33969463D01*
X77744180Y-33910498D01*
X77624482Y-33874188D01*
X77500000Y-33861928D01*
X75165000Y-33861928D01*
X75165000Y-32885039D01*
X75377244Y-32972953D01*
X75789721Y-33055000D01*
X76210279Y-33055000D01*
X76622756Y-32972953D01*
X77011302Y-32812012D01*
X77360983Y-32578363D01*
X77658363Y-32280983D01*
X77892012Y-31931302D01*
X78052953Y-31542756D01*
X78135000Y-31130279D01*
X78135000Y-30709721D01*
X78052953Y-30297244D01*
X77892012Y-29908698D01*
X77658363Y-29559017D01*
X77360983Y-29261637D01*
X77011302Y-29027988D01*
X76622756Y-28867047D01*
X76210279Y-28785000D01*
X75789721Y-28785000D01*
X75384184Y-28865666D01*
X75361714Y-28838286D01*
X75112752Y-28633969D01*
X74828715Y-28482148D01*
X74520516Y-28388657D01*
X74280322Y-28365000D01*
X74280319Y-28365000D01*
X74200000Y-28357089D01*
X74119681Y-28365000D01*
X69980319Y-28365000D01*
X69899999Y-28357089D01*
X69819680Y-28365000D01*
X69819678Y-28365000D01*
X69579484Y-28388657D01*
X69271285Y-28482148D01*
X68987248Y-28633969D01*
X68738286Y-28838286D01*
X68687079Y-28900682D01*
X67300686Y-30287075D01*
X67238286Y-30338286D01*
X67033969Y-30587249D01*
X66882148Y-30871286D01*
X66862332Y-30936612D01*
X66674463Y-30811082D01*
X66376912Y-30687832D01*
X66061033Y-30625000D01*
X65738967Y-30625000D01*
X65423088Y-30687832D01*
X65125537Y-30811082D01*
X64857748Y-30990013D01*
X64630013Y-31217748D01*
X64451082Y-31485537D01*
X64327832Y-31783088D01*
X64265000Y-32098967D01*
X64265000Y-32421033D01*
X64327832Y-32736912D01*
X64451082Y-33034463D01*
X64630013Y-33302252D01*
X64857748Y-33529987D01*
X64857767Y-33530000D01*
X64857748Y-33530013D01*
X64630013Y-33757748D01*
X64451082Y-34025537D01*
X64327832Y-34323088D01*
X64265000Y-34638967D01*
X64265000Y-34961033D01*
X64327832Y-35276912D01*
X64451082Y-35574463D01*
X64630013Y-35842252D01*
X64852761Y-36065000D01*
X63014309Y-36065000D01*
X63114753Y-35914676D01*
X63211619Y-35680821D01*
X63261000Y-35432561D01*
X63261000Y-35179439D01*
X63211619Y-34931179D01*
X63114753Y-34697324D01*
X62974125Y-34486860D01*
X62795140Y-34307875D01*
X62584676Y-34167247D01*
X62350821Y-34070381D01*
X62102561Y-34021000D01*
X61849439Y-34021000D01*
X61601179Y-34070381D01*
X61367324Y-34167247D01*
X61156860Y-34307875D01*
X60977875Y-34486860D01*
X60837247Y-34697324D01*
X60740381Y-34931179D01*
X60691000Y-35179439D01*
X60691000Y-35432561D01*
X60740381Y-35680821D01*
X60837247Y-35914676D01*
X60937691Y-36065000D01*
X52854309Y-36065000D01*
X52954753Y-35914676D01*
X53051619Y-35680821D01*
X53101000Y-35432561D01*
X53101000Y-35179439D01*
X53051619Y-34931179D01*
X52954753Y-34697324D01*
X52814125Y-34486860D01*
X52635140Y-34307875D01*
X52424676Y-34167247D01*
X52190821Y-34070381D01*
X51942561Y-34021000D01*
X51689439Y-34021000D01*
X51441179Y-34070381D01*
X51207324Y-34167247D01*
X50996860Y-34307875D01*
X50817875Y-34486860D01*
X50677247Y-34697324D01*
X50580381Y-34931179D01*
X50531000Y-35179439D01*
X50531000Y-35432561D01*
X50580381Y-35680821D01*
X50677247Y-35914676D01*
X50777691Y-36065000D01*
X45743239Y-36065000D01*
X45069000Y-35390761D01*
X45069000Y-34687372D01*
X45098471Y-34699579D01*
X45341901Y-34748000D01*
X45590099Y-34748000D01*
X45833529Y-34699579D01*
X46062834Y-34604598D01*
X46269203Y-34466706D01*
X46444706Y-34291203D01*
X46582598Y-34084834D01*
X46677579Y-33855529D01*
X46726000Y-33612099D01*
X46726000Y-33370102D01*
X46746000Y-33372072D01*
X47583098Y-33372072D01*
X47607492Y-33417710D01*
X47743079Y-33582922D01*
X47908291Y-33718509D01*
X48096781Y-33819259D01*
X48301304Y-33881300D01*
X48514000Y-33902249D01*
X48717844Y-33882172D01*
X48730700Y-34012697D01*
X48792742Y-34217220D01*
X48893492Y-34405710D01*
X49029079Y-34570922D01*
X49194291Y-34706509D01*
X49382781Y-34807259D01*
X49587304Y-34869300D01*
X49800000Y-34890249D01*
X50012697Y-34869300D01*
X50217220Y-34807259D01*
X50405710Y-34706509D01*
X50570922Y-34570922D01*
X50706509Y-34405710D01*
X50807259Y-34217219D01*
X50869300Y-34012696D01*
X50880393Y-33900072D01*
X51504000Y-33900072D01*
X51628482Y-33887812D01*
X51748180Y-33851502D01*
X51858494Y-33792537D01*
X51955185Y-33713185D01*
X52034537Y-33616494D01*
X52093502Y-33506180D01*
X52129812Y-33386482D01*
X52142072Y-33262000D01*
X52142072Y-32407085D01*
X52216811Y-32332346D01*
X52246764Y-32307764D01*
X52344862Y-32188233D01*
X52379156Y-32124072D01*
X52673000Y-32124072D01*
X52797482Y-32111812D01*
X52917180Y-32075502D01*
X53027494Y-32016537D01*
X53124185Y-31937185D01*
X53203537Y-31840494D01*
X53259753Y-31735322D01*
X53270147Y-31787574D01*
X53378320Y-32048727D01*
X53535363Y-32283759D01*
X53735241Y-32483637D01*
X53970273Y-32640680D01*
X54231426Y-32748853D01*
X54508665Y-32804000D01*
X54791335Y-32804000D01*
X55068574Y-32748853D01*
X55329727Y-32640680D01*
X55564759Y-32483637D01*
X55731339Y-32317057D01*
X55760498Y-32413180D01*
X55819463Y-32523494D01*
X55898815Y-32620185D01*
X55995506Y-32699537D01*
X56105820Y-32758502D01*
X56225518Y-32794812D01*
X56350000Y-32807072D01*
X57950000Y-32807072D01*
X58074482Y-32794812D01*
X58194180Y-32758502D01*
X58304494Y-32699537D01*
X58401185Y-32620185D01*
X58480537Y-32523494D01*
X58539502Y-32413180D01*
X58575812Y-32293482D01*
X58588072Y-32169000D01*
X58588072Y-30569000D01*
X58575812Y-30444518D01*
X58539502Y-30324820D01*
X58480537Y-30214506D01*
X58401185Y-30117815D01*
X58304494Y-30038463D01*
X58194180Y-29979498D01*
X58074482Y-29943188D01*
X57950000Y-29930928D01*
X57746624Y-29930928D01*
X57756072Y-29835000D01*
X57756072Y-28585000D01*
X57743812Y-28460518D01*
X57707502Y-28340820D01*
X57648537Y-28230506D01*
X57569185Y-28133815D01*
X57472494Y-28054463D01*
X57362180Y-27995498D01*
X57242482Y-27959188D01*
X57118000Y-27946928D01*
X55618000Y-27946928D01*
X55493518Y-27959188D01*
X55373820Y-27995498D01*
X55263506Y-28054463D01*
X55166815Y-28133815D01*
X55118000Y-28193296D01*
X55069185Y-28133815D01*
X54972494Y-28054463D01*
X54862180Y-27995498D01*
X54742482Y-27959188D01*
X54618000Y-27946928D01*
X53118000Y-27946928D01*
X52993518Y-27959188D01*
X52873820Y-27995498D01*
X52763506Y-28054463D01*
X52666815Y-28133815D01*
X52587463Y-28230506D01*
X52528498Y-28340820D01*
X52515984Y-28382075D01*
X52492203Y-28358294D01*
X52285834Y-28220402D01*
X52056529Y-28125421D01*
X51813099Y-28077000D01*
X51564901Y-28077000D01*
X51323203Y-28125076D01*
X51435657Y-28049937D01*
X51611160Y-27874434D01*
X51749052Y-27668065D01*
X51844033Y-27438760D01*
X51892454Y-27195330D01*
X51892454Y-26947132D01*
X51844033Y-26703702D01*
X51752986Y-26483895D01*
X51901797Y-26632706D01*
X52108166Y-26770598D01*
X52337471Y-26865579D01*
X52580901Y-26914000D01*
X52829099Y-26914000D01*
X53072529Y-26865579D01*
X53301834Y-26770598D01*
X53508203Y-26632706D01*
X53683706Y-26457203D01*
X53821598Y-26250834D01*
X53916579Y-26021529D01*
X53965000Y-25778099D01*
X53965000Y-25529901D01*
X53916579Y-25286471D01*
X53821598Y-25057166D01*
X53683706Y-24850797D01*
X53508203Y-24675294D01*
X53301834Y-24537402D01*
X53072529Y-24442421D01*
X52879373Y-24404000D01*
X53072529Y-24365579D01*
X53301834Y-24270598D01*
X53508203Y-24132706D01*
X53683706Y-23957203D01*
X53821598Y-23750834D01*
X53916579Y-23521529D01*
X53965000Y-23278099D01*
X53965000Y-23029901D01*
X53916579Y-22786471D01*
X53821598Y-22557166D01*
X53705892Y-22384000D01*
X54362928Y-22384000D01*
X54362928Y-23884000D01*
X54375188Y-24008482D01*
X54411498Y-24128180D01*
X54470463Y-24238494D01*
X54549815Y-24335185D01*
X54609296Y-24384000D01*
X54549815Y-24432815D01*
X54470463Y-24529506D01*
X54411498Y-24639820D01*
X54375188Y-24759518D01*
X54362928Y-24884000D01*
X54362928Y-26384000D01*
X54375188Y-26508482D01*
X54411498Y-26628180D01*
X54470463Y-26738494D01*
X54549815Y-26835185D01*
X54646506Y-26914537D01*
X54756820Y-26973502D01*
X54876518Y-27009812D01*
X55001000Y-27022072D01*
X56251000Y-27022072D01*
X56375482Y-27009812D01*
X56495180Y-26973502D01*
X56605494Y-26914537D01*
X56702185Y-26835185D01*
X56728437Y-26803197D01*
X56782471Y-26825579D01*
X57025901Y-26874000D01*
X57274099Y-26874000D01*
X57517529Y-26825579D01*
X57746834Y-26730598D01*
X57953203Y-26592706D01*
X58128706Y-26417203D01*
X58266598Y-26210834D01*
X58361579Y-25981529D01*
X58410000Y-25738099D01*
X58410000Y-25489901D01*
X58361579Y-25246471D01*
X58266598Y-25017166D01*
X58128706Y-24810797D01*
X57953203Y-24635294D01*
X57746834Y-24497402D01*
X57517529Y-24402421D01*
X57324373Y-24364000D01*
X57517529Y-24325579D01*
X57746834Y-24230598D01*
X57953203Y-24092706D01*
X58128706Y-23917203D01*
X58266598Y-23710834D01*
X58361579Y-23481529D01*
X58410000Y-23238099D01*
X58410000Y-22989901D01*
X58361579Y-22746471D01*
X58266598Y-22517166D01*
X58128706Y-22310797D01*
X57953203Y-22135294D01*
X57746834Y-21997402D01*
X57517529Y-21902421D01*
X57274099Y-21854000D01*
X57025901Y-21854000D01*
X56782471Y-21902421D01*
X56703938Y-21934951D01*
X56702185Y-21932815D01*
X56605494Y-21853463D01*
X56495180Y-21794498D01*
X56375482Y-21758188D01*
X56251000Y-21745928D01*
X55001000Y-21745928D01*
X54876518Y-21758188D01*
X54756820Y-21794498D01*
X54646506Y-21853463D01*
X54549815Y-21932815D01*
X54470463Y-22029506D01*
X54411498Y-22139820D01*
X54375188Y-22259518D01*
X54362928Y-22384000D01*
X53705892Y-22384000D01*
X53683706Y-22350797D01*
X53508203Y-22175294D01*
X53301834Y-22037402D01*
X53072529Y-21942421D01*
X52829099Y-21894000D01*
X52580901Y-21894000D01*
X52337471Y-21942421D01*
X52108166Y-22037402D01*
X51901797Y-22175294D01*
X51726294Y-22350797D01*
X51588402Y-22557166D01*
X51493421Y-22786471D01*
X51445000Y-23029901D01*
X51445000Y-23278099D01*
X51493421Y-23521529D01*
X51588402Y-23750834D01*
X51726294Y-23957203D01*
X51901797Y-24132706D01*
X52108166Y-24270598D01*
X52337471Y-24365579D01*
X52530627Y-24404000D01*
X52337471Y-24442421D01*
X52108166Y-24537402D01*
X51901797Y-24675294D01*
X51726294Y-24850797D01*
X51588402Y-25057166D01*
X51493421Y-25286471D01*
X51445000Y-25529901D01*
X51445000Y-25778099D01*
X51493421Y-26021529D01*
X51584468Y-26241336D01*
X51435657Y-26092525D01*
X51229288Y-25954633D01*
X50999983Y-25859652D01*
X50756553Y-25811231D01*
X50508355Y-25811231D01*
X50264925Y-25859652D01*
X50035620Y-25954633D01*
X49829251Y-26092525D01*
X49653748Y-26268028D01*
X49515856Y-26474397D01*
X49420875Y-26703702D01*
X49372454Y-26947132D01*
X49372454Y-27195330D01*
X49420875Y-27438760D01*
X49515856Y-27668065D01*
X49653748Y-27874434D01*
X49829251Y-28049937D01*
X50035620Y-28187829D01*
X50264925Y-28282810D01*
X50508355Y-28331231D01*
X50756553Y-28331231D01*
X50998251Y-28283155D01*
X50885797Y-28358294D01*
X50710294Y-28533797D01*
X50572402Y-28740166D01*
X50477421Y-28969471D01*
X50429000Y-29212901D01*
X50429000Y-29461099D01*
X50471672Y-29675625D01*
X50417180Y-29646498D01*
X50297482Y-29610188D01*
X50173000Y-29597928D01*
X48673000Y-29597928D01*
X48634072Y-29601762D01*
X48634072Y-28734000D01*
X48621812Y-28609518D01*
X48585502Y-28489820D01*
X48526537Y-28379506D01*
X48448674Y-28284629D01*
X48626759Y-28165637D01*
X48826637Y-27965759D01*
X48983680Y-27730727D01*
X49091853Y-27469574D01*
X49147000Y-27192335D01*
X49147000Y-26909665D01*
X49091853Y-26632426D01*
X48983680Y-26371273D01*
X48826637Y-26136241D01*
X48626759Y-25936363D01*
X48391727Y-25779320D01*
X48130574Y-25671147D01*
X47853335Y-25616000D01*
X47570665Y-25616000D01*
X47293426Y-25671147D01*
X47032273Y-25779320D01*
X46797241Y-25936363D01*
X46630661Y-26102943D01*
X46601502Y-26006820D01*
X46542537Y-25896506D01*
X46463185Y-25799815D01*
X46366494Y-25720463D01*
X46256180Y-25661498D01*
X46136482Y-25625188D01*
X46012000Y-25612928D01*
X44821476Y-25612928D01*
X44821476Y-22362000D01*
X30870524Y-22362000D01*
X30870524Y-24098817D01*
X30700113Y-23928406D01*
X30263298Y-23636536D01*
X29777935Y-23435492D01*
X29262677Y-23333000D01*
X28737323Y-23333000D01*
X28222065Y-23435492D01*
X27736702Y-23636536D01*
X27299887Y-23928406D01*
X26928406Y-24299887D01*
X26636536Y-24736702D01*
X26435492Y-25222065D01*
X26333000Y-25737323D01*
X26333000Y-26262677D01*
X26435492Y-26777935D01*
X26636536Y-27263298D01*
X26928406Y-27700113D01*
X27299887Y-28071594D01*
X27736702Y-28363464D01*
X28222065Y-28564508D01*
X28737323Y-28667000D01*
X29262677Y-28667000D01*
X29777935Y-28564508D01*
X30263298Y-28363464D01*
X30700113Y-28071594D01*
X30870524Y-27901183D01*
X30870524Y-30232000D01*
X44455754Y-30232000D01*
X44349402Y-30391166D01*
X44254421Y-30620471D01*
X44206000Y-30863901D01*
X44206000Y-31112099D01*
X44254421Y-31355529D01*
X44349402Y-31584834D01*
X44487294Y-31791203D01*
X44662797Y-31966706D01*
X44869166Y-32104598D01*
X45098471Y-32199579D01*
X45291627Y-32238000D01*
X45098471Y-32276421D01*
X44869166Y-32371402D01*
X44662797Y-32509294D01*
X44487294Y-32684797D01*
X44349402Y-32891166D01*
X44311620Y-32982381D01*
X43503924Y-32174686D01*
X43452714Y-32112286D01*
X43203752Y-31907969D01*
X42919715Y-31756148D01*
X42611516Y-31662657D01*
X42371322Y-31639000D01*
X42371319Y-31639000D01*
X42291000Y-31631089D01*
X42210681Y-31639000D01*
X38688319Y-31639000D01*
X38607999Y-31631089D01*
X38527680Y-31639000D01*
X38527678Y-31639000D01*
X38287484Y-31662657D01*
X37979285Y-31756148D01*
X37695248Y-31907969D01*
X37446286Y-32112286D01*
X37395075Y-32174687D01*
X37127687Y-32442075D01*
X37065286Y-32493286D01*
X36860969Y-32742249D01*
X36709148Y-33026286D01*
X36615657Y-33334485D01*
X36592000Y-33574678D01*
X36584089Y-33655000D01*
X36592000Y-33735320D01*
X36592000Y-34403420D01*
X36587000Y-34402928D01*
X34787000Y-34402928D01*
X34662518Y-34415188D01*
X34542820Y-34451498D01*
X34432506Y-34510463D01*
X34335815Y-34589815D01*
X34256463Y-34686506D01*
X34197498Y-34796820D01*
X34161188Y-34916518D01*
X34148928Y-35041000D01*
X34148928Y-36841000D01*
X34161188Y-36965482D01*
X34197498Y-37085180D01*
X34256463Y-37195494D01*
X34335815Y-37292185D01*
X34432506Y-37371537D01*
X34542820Y-37430502D01*
X34662518Y-37466812D01*
X34787000Y-37479072D01*
X36587000Y-37479072D01*
X36711482Y-37466812D01*
X36831180Y-37430502D01*
X36941494Y-37371537D01*
X37038185Y-37292185D01*
X37117537Y-37195494D01*
X37136077Y-37160809D01*
X37314249Y-37307031D01*
X37598286Y-37458852D01*
X37906485Y-37552343D01*
X38227000Y-37583911D01*
X38547516Y-37552343D01*
X38855715Y-37458852D01*
X39139752Y-37307031D01*
X39388714Y-37102714D01*
X39558703Y-36895581D01*
X39574688Y-36919505D01*
X39788495Y-37133312D01*
X40039905Y-37301299D01*
X40319257Y-37417011D01*
X40615816Y-37476000D01*
X40918184Y-37476000D01*
X41214743Y-37417011D01*
X41494095Y-37301299D01*
X41745505Y-37133312D01*
X41959312Y-36919505D01*
X42001491Y-36856380D01*
X42067969Y-36980751D01*
X42272286Y-37229714D01*
X42334686Y-37280924D01*
X43853084Y-38799323D01*
X43904286Y-38861714D01*
X43918038Y-38873000D01*
X17127000Y-38873000D01*
X17127000Y-29500000D01*
X18861928Y-29500000D01*
X18861928Y-32500000D01*
X18874188Y-32624482D01*
X18910498Y-32744180D01*
X18969463Y-32854494D01*
X19048815Y-32951185D01*
X19145506Y-33030537D01*
X19255820Y-33089502D01*
X19375518Y-33125812D01*
X19500000Y-33138072D01*
X22135000Y-33138072D01*
X22135000Y-34270640D01*
X22011302Y-34187988D01*
X21622756Y-34027047D01*
X21210279Y-33945000D01*
X20789721Y-33945000D01*
X20377244Y-34027047D01*
X19988698Y-34187988D01*
X19639017Y-34421637D01*
X19341637Y-34719017D01*
X19107988Y-35068698D01*
X18947047Y-35457244D01*
X18865000Y-35869721D01*
X18865000Y-36290279D01*
X18947047Y-36702756D01*
X19107988Y-37091302D01*
X19341637Y-37440983D01*
X19639017Y-37738363D01*
X19988698Y-37972012D01*
X20377244Y-38132953D01*
X20789721Y-38215000D01*
X21210279Y-38215000D01*
X21622756Y-38132953D01*
X22011302Y-37972012D01*
X22360983Y-37738363D01*
X22658363Y-37440983D01*
X22892012Y-37091302D01*
X23052953Y-36702756D01*
X23135000Y-36290279D01*
X23135000Y-36013571D01*
X28505000Y-36013571D01*
X28505000Y-35788461D01*
X28738967Y-35835000D01*
X29061033Y-35835000D01*
X29376912Y-35772168D01*
X29674463Y-35648918D01*
X29942252Y-35469987D01*
X30169987Y-35242252D01*
X30348918Y-34974463D01*
X30472168Y-34676912D01*
X30535000Y-34361033D01*
X30535000Y-34038967D01*
X30472168Y-33723088D01*
X30348918Y-33425537D01*
X30169987Y-33157748D01*
X29942252Y-32930013D01*
X29942233Y-32930000D01*
X29942252Y-32929987D01*
X30169987Y-32702252D01*
X30348918Y-32434463D01*
X30472168Y-32136912D01*
X30535000Y-31821033D01*
X30535000Y-31498967D01*
X30472168Y-31183088D01*
X30348918Y-30885537D01*
X30169987Y-30617748D01*
X29942252Y-30390013D01*
X29674463Y-30211082D01*
X29376912Y-30087832D01*
X29061033Y-30025000D01*
X28738967Y-30025000D01*
X28505000Y-30071539D01*
X28505000Y-29586428D01*
X23138072Y-29586428D01*
X23138072Y-29500000D01*
X23125812Y-29375518D01*
X23089502Y-29255820D01*
X23030537Y-29145506D01*
X22951185Y-29048815D01*
X22854494Y-28969463D01*
X22744180Y-28910498D01*
X22624482Y-28874188D01*
X22500000Y-28861928D01*
X19500000Y-28861928D01*
X19375518Y-28874188D01*
X19255820Y-28910498D01*
X19145506Y-28969463D01*
X19048815Y-29048815D01*
X18969463Y-29145506D01*
X18910498Y-29255820D01*
X18874188Y-29375518D01*
X18861928Y-29500000D01*
X17127000Y-29500000D01*
X17127000Y-22363589D01*
X20115000Y-22363589D01*
X20115000Y-22636411D01*
X20168225Y-22903989D01*
X20272629Y-23156043D01*
X20424201Y-23382886D01*
X20617114Y-23575799D01*
X20843957Y-23727371D01*
X21096011Y-23831775D01*
X21363589Y-23885000D01*
X21636411Y-23885000D01*
X21903989Y-23831775D01*
X22156043Y-23727371D01*
X22382886Y-23575799D01*
X22575799Y-23382886D01*
X22727371Y-23156043D01*
X22831775Y-22903989D01*
X22885000Y-22636411D01*
X22885000Y-22363589D01*
X22831775Y-22096011D01*
X22727371Y-21843957D01*
X22575799Y-21617114D01*
X22382886Y-21424201D01*
X22156043Y-21272629D01*
X21903989Y-21168225D01*
X21636411Y-21115000D01*
X21363589Y-21115000D01*
X21096011Y-21168225D01*
X20843957Y-21272629D01*
X20617114Y-21424201D01*
X20424201Y-21617114D01*
X20272629Y-21843957D01*
X20168225Y-22096011D01*
X20115000Y-22363589D01*
X17127000Y-22363589D01*
X17127000Y-19863589D01*
X22615000Y-19863589D01*
X22615000Y-20136411D01*
X22668225Y-20403989D01*
X22772629Y-20656043D01*
X22924201Y-20882886D01*
X23117114Y-21075799D01*
X23343957Y-21227371D01*
X23596011Y-21331775D01*
X23863589Y-21385000D01*
X24136411Y-21385000D01*
X24403989Y-21331775D01*
X24656043Y-21227371D01*
X24882886Y-21075799D01*
X25075799Y-20882886D01*
X25127841Y-20805000D01*
X31551447Y-20805000D01*
X31590000Y-20808797D01*
X31628553Y-20805000D01*
X31628561Y-20805000D01*
X31743887Y-20793641D01*
X31891860Y-20748754D01*
X32028233Y-20675862D01*
X32147764Y-20577764D01*
X32172347Y-20547810D01*
X34315157Y-18405000D01*
X36441447Y-18405000D01*
X36480000Y-18408797D01*
X36518553Y-18405000D01*
X36518561Y-18405000D01*
X36633887Y-18393641D01*
X36781860Y-18348754D01*
X36918233Y-18275862D01*
X36949745Y-18250000D01*
X43011928Y-18250000D01*
X43011928Y-19850000D01*
X43024188Y-19974482D01*
X43060498Y-20094180D01*
X43119463Y-20204494D01*
X43198815Y-20301185D01*
X43295506Y-20380537D01*
X43405820Y-20439502D01*
X43525518Y-20475812D01*
X43650000Y-20488072D01*
X45250000Y-20488072D01*
X45374482Y-20475812D01*
X45494180Y-20439502D01*
X45604494Y-20380537D01*
X45701185Y-20301185D01*
X45780537Y-20204494D01*
X45839502Y-20094180D01*
X45875812Y-19974482D01*
X45888072Y-19850000D01*
X45888072Y-18250000D01*
X45880775Y-18175901D01*
X45940000Y-18175901D01*
X45940000Y-18424099D01*
X45988421Y-18667529D01*
X46083402Y-18896834D01*
X46221294Y-19103203D01*
X46396797Y-19278706D01*
X46603166Y-19416598D01*
X46832471Y-19511579D01*
X47025627Y-19550000D01*
X46832471Y-19588421D01*
X46603166Y-19683402D01*
X46396797Y-19821294D01*
X46221294Y-19996797D01*
X46083402Y-20203166D01*
X45988421Y-20432471D01*
X45940000Y-20675901D01*
X45940000Y-20924099D01*
X45988421Y-21167529D01*
X46083402Y-21396834D01*
X46221294Y-21603203D01*
X46396797Y-21778706D01*
X46603166Y-21916598D01*
X46832471Y-22011579D01*
X47075901Y-22060000D01*
X47324099Y-22060000D01*
X47567529Y-22011579D01*
X47796834Y-21916598D01*
X48003203Y-21778706D01*
X48178706Y-21603203D01*
X48316598Y-21396834D01*
X48411579Y-21167529D01*
X48460000Y-20924099D01*
X48460000Y-20675901D01*
X48411579Y-20432471D01*
X48316598Y-20203166D01*
X48178706Y-19996797D01*
X48003203Y-19821294D01*
X47796834Y-19683402D01*
X47567529Y-19588421D01*
X47374373Y-19550000D01*
X47567529Y-19511579D01*
X47796834Y-19416598D01*
X48003203Y-19278706D01*
X48178706Y-19103203D01*
X48316598Y-18896834D01*
X48411579Y-18667529D01*
X48460000Y-18424099D01*
X48460000Y-18175901D01*
X48411579Y-17932471D01*
X48316598Y-17703166D01*
X48178706Y-17496797D01*
X48003203Y-17321294D01*
X47796834Y-17183402D01*
X47567529Y-17088421D01*
X47324099Y-17040000D01*
X47075901Y-17040000D01*
X46832471Y-17088421D01*
X46603166Y-17183402D01*
X46396797Y-17321294D01*
X46221294Y-17496797D01*
X46083402Y-17703166D01*
X45988421Y-17932471D01*
X45940000Y-18175901D01*
X45880775Y-18175901D01*
X45875812Y-18125518D01*
X45839502Y-18005820D01*
X45780537Y-17895506D01*
X45701185Y-17798815D01*
X45604494Y-17719463D01*
X45494180Y-17660498D01*
X45398057Y-17631339D01*
X45564637Y-17464759D01*
X45721680Y-17229727D01*
X45829853Y-16968574D01*
X45885000Y-16691335D01*
X45885000Y-16408665D01*
X45829853Y-16131426D01*
X45721680Y-15870273D01*
X45564637Y-15635241D01*
X45364759Y-15435363D01*
X45129727Y-15278320D01*
X44868574Y-15170147D01*
X44591335Y-15115000D01*
X44308665Y-15115000D01*
X44031426Y-15170147D01*
X43770273Y-15278320D01*
X43535241Y-15435363D01*
X43335363Y-15635241D01*
X43178320Y-15870273D01*
X43070147Y-16131426D01*
X43015000Y-16408665D01*
X43015000Y-16691335D01*
X43070147Y-16968574D01*
X43178320Y-17229727D01*
X43335363Y-17464759D01*
X43501943Y-17631339D01*
X43405820Y-17660498D01*
X43295506Y-17719463D01*
X43198815Y-17798815D01*
X43119463Y-17895506D01*
X43060498Y-18005820D01*
X43024188Y-18125518D01*
X43011928Y-18250000D01*
X36949745Y-18250000D01*
X37037764Y-18177764D01*
X37062347Y-18147810D01*
X38925157Y-16285000D01*
X41421289Y-16285000D01*
X41440226Y-16303937D01*
X41609744Y-16417205D01*
X41798102Y-16495226D01*
X41998061Y-16535000D01*
X42201939Y-16535000D01*
X42401898Y-16495226D01*
X42590256Y-16417205D01*
X42759774Y-16303937D01*
X42903937Y-16159774D01*
X43017205Y-15990256D01*
X43095226Y-15801898D01*
X43135000Y-15601939D01*
X43135000Y-15398061D01*
X43095226Y-15198102D01*
X43017205Y-15009744D01*
X42903937Y-14840226D01*
X42759774Y-14696063D01*
X42590256Y-14582795D01*
X42401898Y-14504774D01*
X42201939Y-14465000D01*
X41998061Y-14465000D01*
X41798102Y-14504774D01*
X41609744Y-14582795D01*
X41440226Y-14696063D01*
X41421289Y-14715000D01*
X38638552Y-14715000D01*
X38599999Y-14711203D01*
X38561446Y-14715000D01*
X38561439Y-14715000D01*
X38446113Y-14726359D01*
X38298140Y-14771246D01*
X38161767Y-14844138D01*
X38042236Y-14942236D01*
X38017653Y-14972190D01*
X36154843Y-16835000D01*
X34028556Y-16835000D01*
X33990000Y-16831203D01*
X33951444Y-16835000D01*
X33941439Y-16835000D01*
X33826113Y-16846359D01*
X33678140Y-16891246D01*
X33541767Y-16964138D01*
X33422236Y-17062236D01*
X33351884Y-17147959D01*
X31264843Y-19235000D01*
X25154568Y-19235000D01*
X25075799Y-19117114D01*
X24882886Y-18924201D01*
X24656043Y-18772629D01*
X24403989Y-18668225D01*
X24136411Y-18615000D01*
X23863589Y-18615000D01*
X23596011Y-18668225D01*
X23343957Y-18772629D01*
X23117114Y-18924201D01*
X22924201Y-19117114D01*
X22772629Y-19343957D01*
X22668225Y-19596011D01*
X22615000Y-19863589D01*
X17127000Y-19863589D01*
X17127000Y-17363589D01*
X20115000Y-17363589D01*
X20115000Y-17636411D01*
X20168225Y-17903989D01*
X20272629Y-18156043D01*
X20424201Y-18382886D01*
X20617114Y-18575799D01*
X20843957Y-18727371D01*
X21096011Y-18831775D01*
X21363589Y-18885000D01*
X21636411Y-18885000D01*
X21903989Y-18831775D01*
X22156043Y-18727371D01*
X22382886Y-18575799D01*
X22575799Y-18382886D01*
X22727371Y-18156043D01*
X22831775Y-17903989D01*
X22885000Y-17636411D01*
X22885000Y-17363589D01*
X22831775Y-17096011D01*
X22727371Y-16843957D01*
X22575799Y-16617114D01*
X22382886Y-16424201D01*
X22156043Y-16272629D01*
X21903989Y-16168225D01*
X21636411Y-16115000D01*
X21363589Y-16115000D01*
X21096011Y-16168225D01*
X20843957Y-16272629D01*
X20617114Y-16424201D01*
X20424201Y-16617114D01*
X20272629Y-16843957D01*
X20168225Y-17096011D01*
X20115000Y-17363589D01*
X17127000Y-17363589D01*
X17127000Y-14127000D01*
X47313354Y-14127000D01*
X47170471Y-14155421D01*
M02*
